<?xml version="1.0" encoding="utf-8" standalone="no"?>
<!DOCTYPE svg PUBLIC "-//W3C//DTD SVG 1.1//EN"
  "http://www.w3.org/Graphics/SVG/1.1/DTD/svg11.dtd">
<!-- Created with matplotlib (https://matplotlib.org/) -->
<svg height="360pt" version="1.1" viewBox="0 0 504 360" width="504pt" xmlns="http://www.w3.org/2000/svg" xmlns:xlink="http://www.w3.org/1999/xlink">
 <metadata>
  <rdf:RDF xmlns:cc="http://creativecommons.org/ns#" xmlns:dc="http://purl.org/dc/elements/1.1/" xmlns:rdf="http://www.w3.org/1999/02/22-rdf-syntax-ns#">
   <cc:Work>
    <dc:type rdf:resource="http://purl.org/dc/dcmitype/StillImage"/>
    <dc:date>2022-01-10T14:39:18.214328</dc:date>
    <dc:format>image/svg+xml</dc:format>
    <dc:creator>
     <cc:Agent>
      <dc:title>Matplotlib v3.3.4, https://matplotlib.org/</dc:title>
     </cc:Agent>
    </dc:creator>
   </cc:Work>
  </rdf:RDF>
 </metadata>
 <defs>
  <style type="text/css">*{stroke-linecap:butt;stroke-linejoin:round;}</style>
 </defs>
 <g id="figure_1">
  <g id="patch_1">
   <path d="M 0 360 
L 504 360 
L 504 0 
L 0 0 
z
" style="fill:#ffffff;"/>
  </g>
  <g id="axes_1">
   <g id="patch_2">
    <path d="M 60.05 308.6 
L 493.2 308.6 
L 493.2 26.8 
L 60.05 26.8 
z
" style="fill:#ffffff;"/>
   </g>
   <g id="matplotlib.axis_1">
    <g id="xtick_1">
     <g id="line2d_1">
      <path clip-path="url(#p2999c833d2)" d="M 79.738636 308.6 
L 79.738636 26.8 
" style="fill:none;stroke:#808080;stroke-linecap:square;stroke-width:0.8;"/>
     </g>
     <g id="line2d_2">
      <defs>
       <path d="M 0 0 
L 0 3.5 
" id="m14de1bd76b" style="stroke:#000000;stroke-width:0.8;"/>
      </defs>
      <g>
       <use style="stroke:#000000;stroke-width:0.8;" x="79.738636" xlink:href="#m14de1bd76b" y="308.6"/>
      </g>
     </g>
     <g id="text_1">
      <!-- $\mathdefault{10^{0}}$ -->
      <g transform="translate(69.178636 324.718125)scale(0.12 -0.12)">
       <defs>
        <path d="M 12.40625 8.296875 
L 28.515625 8.296875 
L 28.515625 63.921875 
L 10.984375 60.40625 
L 10.984375 69.390625 
L 28.421875 72.90625 
L 38.28125 72.90625 
L 38.28125 8.296875 
L 54.390625 8.296875 
L 54.390625 0 
L 12.40625 0 
z
" id="DejaVuSans-49"/>
        <path d="M 31.78125 66.40625 
Q 24.171875 66.40625 20.328125 58.90625 
Q 16.5 51.421875 16.5 36.375 
Q 16.5 21.390625 20.328125 13.890625 
Q 24.171875 6.390625 31.78125 6.390625 
Q 39.453125 6.390625 43.28125 13.890625 
Q 47.125 21.390625 47.125 36.375 
Q 47.125 51.421875 43.28125 58.90625 
Q 39.453125 66.40625 31.78125 66.40625 
z
M 31.78125 74.21875 
Q 44.046875 74.21875 50.515625 64.515625 
Q 56.984375 54.828125 56.984375 36.375 
Q 56.984375 17.96875 50.515625 8.265625 
Q 44.046875 -1.421875 31.78125 -1.421875 
Q 19.53125 -1.421875 13.0625 8.265625 
Q 6.59375 17.96875 6.59375 36.375 
Q 6.59375 54.828125 13.0625 64.515625 
Q 19.53125 74.21875 31.78125 74.21875 
z
" id="DejaVuSans-48"/>
       </defs>
       <use transform="translate(0 0.765625)" xlink:href="#DejaVuSans-49"/>
       <use transform="translate(63.623047 0.765625)" xlink:href="#DejaVuSans-48"/>
       <use transform="translate(128.203125 39.046875)scale(0.7)" xlink:href="#DejaVuSans-48"/>
      </g>
     </g>
    </g>
    <g id="xtick_2">
     <g id="line2d_3">
      <path clip-path="url(#p2999c833d2)" d="M 158.493182 308.6 
L 158.493182 26.8 
" style="fill:none;stroke:#808080;stroke-linecap:square;stroke-width:0.8;"/>
     </g>
     <g id="line2d_4">
      <g>
       <use style="stroke:#000000;stroke-width:0.8;" x="158.493182" xlink:href="#m14de1bd76b" y="308.6"/>
      </g>
     </g>
     <g id="text_2">
      <!-- $\mathdefault{10^{1}}$ -->
      <g transform="translate(147.933182 324.718125)scale(0.12 -0.12)">
       <use transform="translate(0 0.684375)" xlink:href="#DejaVuSans-49"/>
       <use transform="translate(63.623047 0.684375)" xlink:href="#DejaVuSans-48"/>
       <use transform="translate(128.203125 38.965625)scale(0.7)" xlink:href="#DejaVuSans-49"/>
      </g>
     </g>
    </g>
    <g id="xtick_3">
     <g id="line2d_5">
      <path clip-path="url(#p2999c833d2)" d="M 237.247727 308.6 
L 237.247727 26.8 
" style="fill:none;stroke:#808080;stroke-linecap:square;stroke-width:0.8;"/>
     </g>
     <g id="line2d_6">
      <g>
       <use style="stroke:#000000;stroke-width:0.8;" x="237.247727" xlink:href="#m14de1bd76b" y="308.6"/>
      </g>
     </g>
     <g id="text_3">
      <!-- $\mathdefault{10^{2}}$ -->
      <g transform="translate(226.687727 324.718125)scale(0.12 -0.12)">
       <defs>
        <path d="M 19.1875 8.296875 
L 53.609375 8.296875 
L 53.609375 0 
L 7.328125 0 
L 7.328125 8.296875 
Q 12.9375 14.109375 22.625 23.890625 
Q 32.328125 33.6875 34.8125 36.53125 
Q 39.546875 41.84375 41.421875 45.53125 
Q 43.3125 49.21875 43.3125 52.78125 
Q 43.3125 58.59375 39.234375 62.25 
Q 35.15625 65.921875 28.609375 65.921875 
Q 23.96875 65.921875 18.8125 64.3125 
Q 13.671875 62.703125 7.8125 59.421875 
L 7.8125 69.390625 
Q 13.765625 71.78125 18.9375 73 
Q 24.125 74.21875 28.421875 74.21875 
Q 39.75 74.21875 46.484375 68.546875 
Q 53.21875 62.890625 53.21875 53.421875 
Q 53.21875 48.921875 51.53125 44.890625 
Q 49.859375 40.875 45.40625 35.40625 
Q 44.1875 33.984375 37.640625 27.21875 
Q 31.109375 20.453125 19.1875 8.296875 
z
" id="DejaVuSans-50"/>
       </defs>
       <use transform="translate(0 0.765625)" xlink:href="#DejaVuSans-49"/>
       <use transform="translate(63.623047 0.765625)" xlink:href="#DejaVuSans-48"/>
       <use transform="translate(128.203125 39.046875)scale(0.7)" xlink:href="#DejaVuSans-50"/>
      </g>
     </g>
    </g>
    <g id="xtick_4">
     <g id="line2d_7">
      <path clip-path="url(#p2999c833d2)" d="M 316.002273 308.6 
L 316.002273 26.8 
" style="fill:none;stroke:#808080;stroke-linecap:square;stroke-width:0.8;"/>
     </g>
     <g id="line2d_8">
      <g>
       <use style="stroke:#000000;stroke-width:0.8;" x="316.002273" xlink:href="#m14de1bd76b" y="308.6"/>
      </g>
     </g>
     <g id="text_4">
      <!-- $\mathdefault{10^{3}}$ -->
      <g transform="translate(305.442273 324.718125)scale(0.12 -0.12)">
       <defs>
        <path d="M 40.578125 39.3125 
Q 47.65625 37.796875 51.625 33 
Q 55.609375 28.21875 55.609375 21.1875 
Q 55.609375 10.40625 48.1875 4.484375 
Q 40.765625 -1.421875 27.09375 -1.421875 
Q 22.515625 -1.421875 17.65625 -0.515625 
Q 12.796875 0.390625 7.625 2.203125 
L 7.625 11.71875 
Q 11.71875 9.328125 16.59375 8.109375 
Q 21.484375 6.890625 26.8125 6.890625 
Q 36.078125 6.890625 40.9375 10.546875 
Q 45.796875 14.203125 45.796875 21.1875 
Q 45.796875 27.640625 41.28125 31.265625 
Q 36.765625 34.90625 28.71875 34.90625 
L 20.21875 34.90625 
L 20.21875 43.015625 
L 29.109375 43.015625 
Q 36.375 43.015625 40.234375 45.921875 
Q 44.09375 48.828125 44.09375 54.296875 
Q 44.09375 59.90625 40.109375 62.90625 
Q 36.140625 65.921875 28.71875 65.921875 
Q 24.65625 65.921875 20.015625 65.03125 
Q 15.375 64.15625 9.8125 62.3125 
L 9.8125 71.09375 
Q 15.4375 72.65625 20.34375 73.4375 
Q 25.25 74.21875 29.59375 74.21875 
Q 40.828125 74.21875 47.359375 69.109375 
Q 53.90625 64.015625 53.90625 55.328125 
Q 53.90625 49.265625 50.4375 45.09375 
Q 46.96875 40.921875 40.578125 39.3125 
z
" id="DejaVuSans-51"/>
       </defs>
       <use transform="translate(0 0.765625)" xlink:href="#DejaVuSans-49"/>
       <use transform="translate(63.623047 0.765625)" xlink:href="#DejaVuSans-48"/>
       <use transform="translate(128.203125 39.046875)scale(0.7)" xlink:href="#DejaVuSans-51"/>
      </g>
     </g>
    </g>
    <g id="xtick_5">
     <g id="line2d_9">
      <path clip-path="url(#p2999c833d2)" d="M 394.756818 308.6 
L 394.756818 26.8 
" style="fill:none;stroke:#808080;stroke-linecap:square;stroke-width:0.8;"/>
     </g>
     <g id="line2d_10">
      <g>
       <use style="stroke:#000000;stroke-width:0.8;" x="394.756818" xlink:href="#m14de1bd76b" y="308.6"/>
      </g>
     </g>
     <g id="text_5">
      <!-- $\mathdefault{10^{4}}$ -->
      <g transform="translate(384.196818 324.718125)scale(0.12 -0.12)">
       <defs>
        <path d="M 37.796875 64.3125 
L 12.890625 25.390625 
L 37.796875 25.390625 
z
M 35.203125 72.90625 
L 47.609375 72.90625 
L 47.609375 25.390625 
L 58.015625 25.390625 
L 58.015625 17.1875 
L 47.609375 17.1875 
L 47.609375 0 
L 37.796875 0 
L 37.796875 17.1875 
L 4.890625 17.1875 
L 4.890625 26.703125 
z
" id="DejaVuSans-52"/>
       </defs>
       <use transform="translate(0 0.684375)" xlink:href="#DejaVuSans-49"/>
       <use transform="translate(63.623047 0.684375)" xlink:href="#DejaVuSans-48"/>
       <use transform="translate(128.203125 38.965625)scale(0.7)" xlink:href="#DejaVuSans-52"/>
      </g>
     </g>
    </g>
    <g id="xtick_6">
     <g id="line2d_11">
      <path clip-path="url(#p2999c833d2)" d="M 473.511364 308.6 
L 473.511364 26.8 
" style="fill:none;stroke:#808080;stroke-linecap:square;stroke-width:0.8;"/>
     </g>
     <g id="line2d_12">
      <g>
       <use style="stroke:#000000;stroke-width:0.8;" x="473.511364" xlink:href="#m14de1bd76b" y="308.6"/>
      </g>
     </g>
     <g id="text_6">
      <!-- $\mathdefault{10^{5}}$ -->
      <g transform="translate(462.951364 324.718125)scale(0.12 -0.12)">
       <defs>
        <path d="M 10.796875 72.90625 
L 49.515625 72.90625 
L 49.515625 64.59375 
L 19.828125 64.59375 
L 19.828125 46.734375 
Q 21.96875 47.46875 24.109375 47.828125 
Q 26.265625 48.1875 28.421875 48.1875 
Q 40.625 48.1875 47.75 41.5 
Q 54.890625 34.8125 54.890625 23.390625 
Q 54.890625 11.625 47.5625 5.09375 
Q 40.234375 -1.421875 26.90625 -1.421875 
Q 22.3125 -1.421875 17.546875 -0.640625 
Q 12.796875 0.140625 7.71875 1.703125 
L 7.71875 11.625 
Q 12.109375 9.234375 16.796875 8.0625 
Q 21.484375 6.890625 26.703125 6.890625 
Q 35.15625 6.890625 40.078125 11.328125 
Q 45.015625 15.765625 45.015625 23.390625 
Q 45.015625 31 40.078125 35.4375 
Q 35.15625 39.890625 26.703125 39.890625 
Q 22.75 39.890625 18.8125 39.015625 
Q 14.890625 38.140625 10.796875 36.28125 
z
" id="DejaVuSans-53"/>
       </defs>
       <use transform="translate(0 0.684375)" xlink:href="#DejaVuSans-49"/>
       <use transform="translate(63.623047 0.684375)" xlink:href="#DejaVuSans-48"/>
       <use transform="translate(128.203125 38.965625)scale(0.7)" xlink:href="#DejaVuSans-53"/>
      </g>
     </g>
    </g>
    <g id="xtick_7">
     <g id="line2d_13">
      <path clip-path="url(#p2999c833d2)" d="M 62.267039 308.6 
L 62.267039 26.8 
" style="fill:none;stroke:#808080;stroke-dasharray:0.8,1.32;stroke-dashoffset:0;stroke-width:0.8;"/>
     </g>
     <g id="line2d_14">
      <defs>
       <path d="M 0 0 
L 0 2 
" id="m5ef811afda" style="stroke:#000000;stroke-width:0.6;"/>
      </defs>
      <g>
       <use style="stroke:#000000;stroke-width:0.6;" x="62.267039" xlink:href="#m5ef811afda" y="308.6"/>
      </g>
     </g>
    </g>
    <g id="xtick_8">
     <g id="line2d_15">
      <path clip-path="url(#p2999c833d2)" d="M 67.539403 308.6 
L 67.539403 26.8 
" style="fill:none;stroke:#808080;stroke-dasharray:0.8,1.32;stroke-dashoffset:0;stroke-width:0.8;"/>
     </g>
     <g id="line2d_16">
      <g>
       <use style="stroke:#000000;stroke-width:0.6;" x="67.539403" xlink:href="#m5ef811afda" y="308.6"/>
      </g>
     </g>
    </g>
    <g id="xtick_9">
     <g id="line2d_17">
      <path clip-path="url(#p2999c833d2)" d="M 72.106532 308.6 
L 72.106532 26.8 
" style="fill:none;stroke:#808080;stroke-dasharray:0.8,1.32;stroke-dashoffset:0;stroke-width:0.8;"/>
     </g>
     <g id="line2d_18">
      <g>
       <use style="stroke:#000000;stroke-width:0.6;" x="72.106532" xlink:href="#m5ef811afda" y="308.6"/>
      </g>
     </g>
    </g>
    <g id="xtick_10">
     <g id="line2d_19">
      <path clip-path="url(#p2999c833d2)" d="M 76.135026 308.6 
L 76.135026 26.8 
" style="fill:none;stroke:#808080;stroke-dasharray:0.8,1.32;stroke-dashoffset:0;stroke-width:0.8;"/>
     </g>
     <g id="line2d_20">
      <g>
       <use style="stroke:#000000;stroke-width:0.6;" x="76.135026" xlink:href="#m5ef811afda" y="308.6"/>
      </g>
     </g>
    </g>
    <g id="xtick_11">
     <g id="line2d_21">
      <path clip-path="url(#p2999c833d2)" d="M 103.446117 308.6 
L 103.446117 26.8 
" style="fill:none;stroke:#808080;stroke-dasharray:0.8,1.32;stroke-dashoffset:0;stroke-width:0.8;"/>
     </g>
     <g id="line2d_22">
      <g>
       <use style="stroke:#000000;stroke-width:0.6;" x="103.446117" xlink:href="#m5ef811afda" y="308.6"/>
      </g>
     </g>
    </g>
    <g id="xtick_12">
     <g id="line2d_23">
      <path clip-path="url(#p2999c833d2)" d="M 117.314104 308.6 
L 117.314104 26.8 
" style="fill:none;stroke:#808080;stroke-dasharray:0.8,1.32;stroke-dashoffset:0;stroke-width:0.8;"/>
     </g>
     <g id="line2d_24">
      <g>
       <use style="stroke:#000000;stroke-width:0.6;" x="117.314104" xlink:href="#m5ef811afda" y="308.6"/>
      </g>
     </g>
    </g>
    <g id="xtick_13">
     <g id="line2d_25">
      <path clip-path="url(#p2999c833d2)" d="M 127.153597 308.6 
L 127.153597 26.8 
" style="fill:none;stroke:#808080;stroke-dasharray:0.8,1.32;stroke-dashoffset:0;stroke-width:0.8;"/>
     </g>
     <g id="line2d_26">
      <g>
       <use style="stroke:#000000;stroke-width:0.6;" x="127.153597" xlink:href="#m5ef811afda" y="308.6"/>
      </g>
     </g>
    </g>
    <g id="xtick_14">
     <g id="line2d_27">
      <path clip-path="url(#p2999c833d2)" d="M 134.785701 308.6 
L 134.785701 26.8 
" style="fill:none;stroke:#808080;stroke-dasharray:0.8,1.32;stroke-dashoffset:0;stroke-width:0.8;"/>
     </g>
     <g id="line2d_28">
      <g>
       <use style="stroke:#000000;stroke-width:0.6;" x="134.785701" xlink:href="#m5ef811afda" y="308.6"/>
      </g>
     </g>
    </g>
    <g id="xtick_15">
     <g id="line2d_29">
      <path clip-path="url(#p2999c833d2)" d="M 141.021584 308.6 
L 141.021584 26.8 
" style="fill:none;stroke:#808080;stroke-dasharray:0.8,1.32;stroke-dashoffset:0;stroke-width:0.8;"/>
     </g>
     <g id="line2d_30">
      <g>
       <use style="stroke:#000000;stroke-width:0.6;" x="141.021584" xlink:href="#m5ef811afda" y="308.6"/>
      </g>
     </g>
    </g>
    <g id="xtick_16">
     <g id="line2d_31">
      <path clip-path="url(#p2999c833d2)" d="M 146.293948 308.6 
L 146.293948 26.8 
" style="fill:none;stroke:#808080;stroke-dasharray:0.8,1.32;stroke-dashoffset:0;stroke-width:0.8;"/>
     </g>
     <g id="line2d_32">
      <g>
       <use style="stroke:#000000;stroke-width:0.6;" x="146.293948" xlink:href="#m5ef811afda" y="308.6"/>
      </g>
     </g>
    </g>
    <g id="xtick_17">
     <g id="line2d_33">
      <path clip-path="url(#p2999c833d2)" d="M 150.861078 308.6 
L 150.861078 26.8 
" style="fill:none;stroke:#808080;stroke-dasharray:0.8,1.32;stroke-dashoffset:0;stroke-width:0.8;"/>
     </g>
     <g id="line2d_34">
      <g>
       <use style="stroke:#000000;stroke-width:0.6;" x="150.861078" xlink:href="#m5ef811afda" y="308.6"/>
      </g>
     </g>
    </g>
    <g id="xtick_18">
     <g id="line2d_35">
      <path clip-path="url(#p2999c833d2)" d="M 154.889571 308.6 
L 154.889571 26.8 
" style="fill:none;stroke:#808080;stroke-dasharray:0.8,1.32;stroke-dashoffset:0;stroke-width:0.8;"/>
     </g>
     <g id="line2d_36">
      <g>
       <use style="stroke:#000000;stroke-width:0.6;" x="154.889571" xlink:href="#m5ef811afda" y="308.6"/>
      </g>
     </g>
    </g>
    <g id="xtick_19">
     <g id="line2d_37">
      <path clip-path="url(#p2999c833d2)" d="M 182.200662 308.6 
L 182.200662 26.8 
" style="fill:none;stroke:#808080;stroke-dasharray:0.8,1.32;stroke-dashoffset:0;stroke-width:0.8;"/>
     </g>
     <g id="line2d_38">
      <g>
       <use style="stroke:#000000;stroke-width:0.6;" x="182.200662" xlink:href="#m5ef811afda" y="308.6"/>
      </g>
     </g>
    </g>
    <g id="xtick_20">
     <g id="line2d_39">
      <path clip-path="url(#p2999c833d2)" d="M 196.068649 308.6 
L 196.068649 26.8 
" style="fill:none;stroke:#808080;stroke-dasharray:0.8,1.32;stroke-dashoffset:0;stroke-width:0.8;"/>
     </g>
     <g id="line2d_40">
      <g>
       <use style="stroke:#000000;stroke-width:0.6;" x="196.068649" xlink:href="#m5ef811afda" y="308.6"/>
      </g>
     </g>
    </g>
    <g id="xtick_21">
     <g id="line2d_41">
      <path clip-path="url(#p2999c833d2)" d="M 205.908143 308.6 
L 205.908143 26.8 
" style="fill:none;stroke:#808080;stroke-dasharray:0.8,1.32;stroke-dashoffset:0;stroke-width:0.8;"/>
     </g>
     <g id="line2d_42">
      <g>
       <use style="stroke:#000000;stroke-width:0.6;" x="205.908143" xlink:href="#m5ef811afda" y="308.6"/>
      </g>
     </g>
    </g>
    <g id="xtick_22">
     <g id="line2d_43">
      <path clip-path="url(#p2999c833d2)" d="M 213.540247 308.6 
L 213.540247 26.8 
" style="fill:none;stroke:#808080;stroke-dasharray:0.8,1.32;stroke-dashoffset:0;stroke-width:0.8;"/>
     </g>
     <g id="line2d_44">
      <g>
       <use style="stroke:#000000;stroke-width:0.6;" x="213.540247" xlink:href="#m5ef811afda" y="308.6"/>
      </g>
     </g>
    </g>
    <g id="xtick_23">
     <g id="line2d_45">
      <path clip-path="url(#p2999c833d2)" d="M 219.77613 308.6 
L 219.77613 26.8 
" style="fill:none;stroke:#808080;stroke-dasharray:0.8,1.32;stroke-dashoffset:0;stroke-width:0.8;"/>
     </g>
     <g id="line2d_46">
      <g>
       <use style="stroke:#000000;stroke-width:0.6;" x="219.77613" xlink:href="#m5ef811afda" y="308.6"/>
      </g>
     </g>
    </g>
    <g id="xtick_24">
     <g id="line2d_47">
      <path clip-path="url(#p2999c833d2)" d="M 225.048494 308.6 
L 225.048494 26.8 
" style="fill:none;stroke:#808080;stroke-dasharray:0.8,1.32;stroke-dashoffset:0;stroke-width:0.8;"/>
     </g>
     <g id="line2d_48">
      <g>
       <use style="stroke:#000000;stroke-width:0.6;" x="225.048494" xlink:href="#m5ef811afda" y="308.6"/>
      </g>
     </g>
    </g>
    <g id="xtick_25">
     <g id="line2d_49">
      <path clip-path="url(#p2999c833d2)" d="M 229.615623 308.6 
L 229.615623 26.8 
" style="fill:none;stroke:#808080;stroke-dasharray:0.8,1.32;stroke-dashoffset:0;stroke-width:0.8;"/>
     </g>
     <g id="line2d_50">
      <g>
       <use style="stroke:#000000;stroke-width:0.6;" x="229.615623" xlink:href="#m5ef811afda" y="308.6"/>
      </g>
     </g>
    </g>
    <g id="xtick_26">
     <g id="line2d_51">
      <path clip-path="url(#p2999c833d2)" d="M 233.644117 308.6 
L 233.644117 26.8 
" style="fill:none;stroke:#808080;stroke-dasharray:0.8,1.32;stroke-dashoffset:0;stroke-width:0.8;"/>
     </g>
     <g id="line2d_52">
      <g>
       <use style="stroke:#000000;stroke-width:0.6;" x="233.644117" xlink:href="#m5ef811afda" y="308.6"/>
      </g>
     </g>
    </g>
    <g id="xtick_27">
     <g id="line2d_53">
      <path clip-path="url(#p2999c833d2)" d="M 260.955208 308.6 
L 260.955208 26.8 
" style="fill:none;stroke:#808080;stroke-dasharray:0.8,1.32;stroke-dashoffset:0;stroke-width:0.8;"/>
     </g>
     <g id="line2d_54">
      <g>
       <use style="stroke:#000000;stroke-width:0.6;" x="260.955208" xlink:href="#m5ef811afda" y="308.6"/>
      </g>
     </g>
    </g>
    <g id="xtick_28">
     <g id="line2d_55">
      <path clip-path="url(#p2999c833d2)" d="M 274.823195 308.6 
L 274.823195 26.8 
" style="fill:none;stroke:#808080;stroke-dasharray:0.8,1.32;stroke-dashoffset:0;stroke-width:0.8;"/>
     </g>
     <g id="line2d_56">
      <g>
       <use style="stroke:#000000;stroke-width:0.6;" x="274.823195" xlink:href="#m5ef811afda" y="308.6"/>
      </g>
     </g>
    </g>
    <g id="xtick_29">
     <g id="line2d_57">
      <path clip-path="url(#p2999c833d2)" d="M 284.662688 308.6 
L 284.662688 26.8 
" style="fill:none;stroke:#808080;stroke-dasharray:0.8,1.32;stroke-dashoffset:0;stroke-width:0.8;"/>
     </g>
     <g id="line2d_58">
      <g>
       <use style="stroke:#000000;stroke-width:0.6;" x="284.662688" xlink:href="#m5ef811afda" y="308.6"/>
      </g>
     </g>
    </g>
    <g id="xtick_30">
     <g id="line2d_59">
      <path clip-path="url(#p2999c833d2)" d="M 292.294792 308.6 
L 292.294792 26.8 
" style="fill:none;stroke:#808080;stroke-dasharray:0.8,1.32;stroke-dashoffset:0;stroke-width:0.8;"/>
     </g>
     <g id="line2d_60">
      <g>
       <use style="stroke:#000000;stroke-width:0.6;" x="292.294792" xlink:href="#m5ef811afda" y="308.6"/>
      </g>
     </g>
    </g>
    <g id="xtick_31">
     <g id="line2d_61">
      <path clip-path="url(#p2999c833d2)" d="M 298.530675 308.6 
L 298.530675 26.8 
" style="fill:none;stroke:#808080;stroke-dasharray:0.8,1.32;stroke-dashoffset:0;stroke-width:0.8;"/>
     </g>
     <g id="line2d_62">
      <g>
       <use style="stroke:#000000;stroke-width:0.6;" x="298.530675" xlink:href="#m5ef811afda" y="308.6"/>
      </g>
     </g>
    </g>
    <g id="xtick_32">
     <g id="line2d_63">
      <path clip-path="url(#p2999c833d2)" d="M 303.803039 308.6 
L 303.803039 26.8 
" style="fill:none;stroke:#808080;stroke-dasharray:0.8,1.32;stroke-dashoffset:0;stroke-width:0.8;"/>
     </g>
     <g id="line2d_64">
      <g>
       <use style="stroke:#000000;stroke-width:0.6;" x="303.803039" xlink:href="#m5ef811afda" y="308.6"/>
      </g>
     </g>
    </g>
    <g id="xtick_33">
     <g id="line2d_65">
      <path clip-path="url(#p2999c833d2)" d="M 308.370169 308.6 
L 308.370169 26.8 
" style="fill:none;stroke:#808080;stroke-dasharray:0.8,1.32;stroke-dashoffset:0;stroke-width:0.8;"/>
     </g>
     <g id="line2d_66">
      <g>
       <use style="stroke:#000000;stroke-width:0.6;" x="308.370169" xlink:href="#m5ef811afda" y="308.6"/>
      </g>
     </g>
    </g>
    <g id="xtick_34">
     <g id="line2d_67">
      <path clip-path="url(#p2999c833d2)" d="M 312.398662 308.6 
L 312.398662 26.8 
" style="fill:none;stroke:#808080;stroke-dasharray:0.8,1.32;stroke-dashoffset:0;stroke-width:0.8;"/>
     </g>
     <g id="line2d_68">
      <g>
       <use style="stroke:#000000;stroke-width:0.6;" x="312.398662" xlink:href="#m5ef811afda" y="308.6"/>
      </g>
     </g>
    </g>
    <g id="xtick_35">
     <g id="line2d_69">
      <path clip-path="url(#p2999c833d2)" d="M 339.709753 308.6 
L 339.709753 26.8 
" style="fill:none;stroke:#808080;stroke-dasharray:0.8,1.32;stroke-dashoffset:0;stroke-width:0.8;"/>
     </g>
     <g id="line2d_70">
      <g>
       <use style="stroke:#000000;stroke-width:0.6;" x="339.709753" xlink:href="#m5ef811afda" y="308.6"/>
      </g>
     </g>
    </g>
    <g id="xtick_36">
     <g id="line2d_71">
      <path clip-path="url(#p2999c833d2)" d="M 353.57774 308.6 
L 353.57774 26.8 
" style="fill:none;stroke:#808080;stroke-dasharray:0.8,1.32;stroke-dashoffset:0;stroke-width:0.8;"/>
     </g>
     <g id="line2d_72">
      <g>
       <use style="stroke:#000000;stroke-width:0.6;" x="353.57774" xlink:href="#m5ef811afda" y="308.6"/>
      </g>
     </g>
    </g>
    <g id="xtick_37">
     <g id="line2d_73">
      <path clip-path="url(#p2999c833d2)" d="M 363.417234 308.6 
L 363.417234 26.8 
" style="fill:none;stroke:#808080;stroke-dasharray:0.8,1.32;stroke-dashoffset:0;stroke-width:0.8;"/>
     </g>
     <g id="line2d_74">
      <g>
       <use style="stroke:#000000;stroke-width:0.6;" x="363.417234" xlink:href="#m5ef811afda" y="308.6"/>
      </g>
     </g>
    </g>
    <g id="xtick_38">
     <g id="line2d_75">
      <path clip-path="url(#p2999c833d2)" d="M 371.049338 308.6 
L 371.049338 26.8 
" style="fill:none;stroke:#808080;stroke-dasharray:0.8,1.32;stroke-dashoffset:0;stroke-width:0.8;"/>
     </g>
     <g id="line2d_76">
      <g>
       <use style="stroke:#000000;stroke-width:0.6;" x="371.049338" xlink:href="#m5ef811afda" y="308.6"/>
      </g>
     </g>
    </g>
    <g id="xtick_39">
     <g id="line2d_77">
      <path clip-path="url(#p2999c833d2)" d="M 377.285221 308.6 
L 377.285221 26.8 
" style="fill:none;stroke:#808080;stroke-dasharray:0.8,1.32;stroke-dashoffset:0;stroke-width:0.8;"/>
     </g>
     <g id="line2d_78">
      <g>
       <use style="stroke:#000000;stroke-width:0.6;" x="377.285221" xlink:href="#m5ef811afda" y="308.6"/>
      </g>
     </g>
    </g>
    <g id="xtick_40">
     <g id="line2d_79">
      <path clip-path="url(#p2999c833d2)" d="M 382.557585 308.6 
L 382.557585 26.8 
" style="fill:none;stroke:#808080;stroke-dasharray:0.8,1.32;stroke-dashoffset:0;stroke-width:0.8;"/>
     </g>
     <g id="line2d_80">
      <g>
       <use style="stroke:#000000;stroke-width:0.6;" x="382.557585" xlink:href="#m5ef811afda" y="308.6"/>
      </g>
     </g>
    </g>
    <g id="xtick_41">
     <g id="line2d_81">
      <path clip-path="url(#p2999c833d2)" d="M 387.124714 308.6 
L 387.124714 26.8 
" style="fill:none;stroke:#808080;stroke-dasharray:0.8,1.32;stroke-dashoffset:0;stroke-width:0.8;"/>
     </g>
     <g id="line2d_82">
      <g>
       <use style="stroke:#000000;stroke-width:0.6;" x="387.124714" xlink:href="#m5ef811afda" y="308.6"/>
      </g>
     </g>
    </g>
    <g id="xtick_42">
     <g id="line2d_83">
      <path clip-path="url(#p2999c833d2)" d="M 391.153208 308.6 
L 391.153208 26.8 
" style="fill:none;stroke:#808080;stroke-dasharray:0.8,1.32;stroke-dashoffset:0;stroke-width:0.8;"/>
     </g>
     <g id="line2d_84">
      <g>
       <use style="stroke:#000000;stroke-width:0.6;" x="391.153208" xlink:href="#m5ef811afda" y="308.6"/>
      </g>
     </g>
    </g>
    <g id="xtick_43">
     <g id="line2d_85">
      <path clip-path="url(#p2999c833d2)" d="M 418.464299 308.6 
L 418.464299 26.8 
" style="fill:none;stroke:#808080;stroke-dasharray:0.8,1.32;stroke-dashoffset:0;stroke-width:0.8;"/>
     </g>
     <g id="line2d_86">
      <g>
       <use style="stroke:#000000;stroke-width:0.6;" x="418.464299" xlink:href="#m5ef811afda" y="308.6"/>
      </g>
     </g>
    </g>
    <g id="xtick_44">
     <g id="line2d_87">
      <path clip-path="url(#p2999c833d2)" d="M 432.332286 308.6 
L 432.332286 26.8 
" style="fill:none;stroke:#808080;stroke-dasharray:0.8,1.32;stroke-dashoffset:0;stroke-width:0.8;"/>
     </g>
     <g id="line2d_88">
      <g>
       <use style="stroke:#000000;stroke-width:0.6;" x="432.332286" xlink:href="#m5ef811afda" y="308.6"/>
      </g>
     </g>
    </g>
    <g id="xtick_45">
     <g id="line2d_89">
      <path clip-path="url(#p2999c833d2)" d="M 442.171779 308.6 
L 442.171779 26.8 
" style="fill:none;stroke:#808080;stroke-dasharray:0.8,1.32;stroke-dashoffset:0;stroke-width:0.8;"/>
     </g>
     <g id="line2d_90">
      <g>
       <use style="stroke:#000000;stroke-width:0.6;" x="442.171779" xlink:href="#m5ef811afda" y="308.6"/>
      </g>
     </g>
    </g>
    <g id="xtick_46">
     <g id="line2d_91">
      <path clip-path="url(#p2999c833d2)" d="M 449.803883 308.6 
L 449.803883 26.8 
" style="fill:none;stroke:#808080;stroke-dasharray:0.8,1.32;stroke-dashoffset:0;stroke-width:0.8;"/>
     </g>
     <g id="line2d_92">
      <g>
       <use style="stroke:#000000;stroke-width:0.6;" x="449.803883" xlink:href="#m5ef811afda" y="308.6"/>
      </g>
     </g>
    </g>
    <g id="xtick_47">
     <g id="line2d_93">
      <path clip-path="url(#p2999c833d2)" d="M 456.039766 308.6 
L 456.039766 26.8 
" style="fill:none;stroke:#808080;stroke-dasharray:0.8,1.32;stroke-dashoffset:0;stroke-width:0.8;"/>
     </g>
     <g id="line2d_94">
      <g>
       <use style="stroke:#000000;stroke-width:0.6;" x="456.039766" xlink:href="#m5ef811afda" y="308.6"/>
      </g>
     </g>
    </g>
    <g id="xtick_48">
     <g id="line2d_95">
      <path clip-path="url(#p2999c833d2)" d="M 461.31213 308.6 
L 461.31213 26.8 
" style="fill:none;stroke:#808080;stroke-dasharray:0.8,1.32;stroke-dashoffset:0;stroke-width:0.8;"/>
     </g>
     <g id="line2d_96">
      <g>
       <use style="stroke:#000000;stroke-width:0.6;" x="461.31213" xlink:href="#m5ef811afda" y="308.6"/>
      </g>
     </g>
    </g>
    <g id="xtick_49">
     <g id="line2d_97">
      <path clip-path="url(#p2999c833d2)" d="M 465.87926 308.6 
L 465.87926 26.8 
" style="fill:none;stroke:#808080;stroke-dasharray:0.8,1.32;stroke-dashoffset:0;stroke-width:0.8;"/>
     </g>
     <g id="line2d_98">
      <g>
       <use style="stroke:#000000;stroke-width:0.6;" x="465.87926" xlink:href="#m5ef811afda" y="308.6"/>
      </g>
     </g>
    </g>
    <g id="xtick_50">
     <g id="line2d_99">
      <path clip-path="url(#p2999c833d2)" d="M 469.907753 308.6 
L 469.907753 26.8 
" style="fill:none;stroke:#808080;stroke-dasharray:0.8,1.32;stroke-dashoffset:0;stroke-width:0.8;"/>
     </g>
     <g id="line2d_100">
      <g>
       <use style="stroke:#000000;stroke-width:0.6;" x="469.907753" xlink:href="#m5ef811afda" y="308.6"/>
      </g>
     </g>
    </g>
    <g id="text_7">
     <!-- frequency [MHz] -->
     <g transform="translate(227.10625 340.331875)scale(0.12 -0.12)">
      <defs>
       <path d="M 37.109375 75.984375 
L 37.109375 68.5 
L 28.515625 68.5 
Q 23.6875 68.5 21.796875 66.546875 
Q 19.921875 64.59375 19.921875 59.515625 
L 19.921875 54.6875 
L 34.71875 54.6875 
L 34.71875 47.703125 
L 19.921875 47.703125 
L 19.921875 0 
L 10.890625 0 
L 10.890625 47.703125 
L 2.296875 47.703125 
L 2.296875 54.6875 
L 10.890625 54.6875 
L 10.890625 58.5 
Q 10.890625 67.625 15.140625 71.796875 
Q 19.390625 75.984375 28.609375 75.984375 
z
" id="DejaVuSans-102"/>
       <path d="M 41.109375 46.296875 
Q 39.59375 47.171875 37.8125 47.578125 
Q 36.03125 48 33.890625 48 
Q 26.265625 48 22.1875 43.046875 
Q 18.109375 38.09375 18.109375 28.8125 
L 18.109375 0 
L 9.078125 0 
L 9.078125 54.6875 
L 18.109375 54.6875 
L 18.109375 46.1875 
Q 20.953125 51.171875 25.484375 53.578125 
Q 30.03125 56 36.53125 56 
Q 37.453125 56 38.578125 55.875 
Q 39.703125 55.765625 41.0625 55.515625 
z
" id="DejaVuSans-114"/>
       <path d="M 56.203125 29.59375 
L 56.203125 25.203125 
L 14.890625 25.203125 
Q 15.484375 15.921875 20.484375 11.0625 
Q 25.484375 6.203125 34.421875 6.203125 
Q 39.59375 6.203125 44.453125 7.46875 
Q 49.3125 8.734375 54.109375 11.28125 
L 54.109375 2.78125 
Q 49.265625 0.734375 44.1875 -0.34375 
Q 39.109375 -1.421875 33.890625 -1.421875 
Q 20.796875 -1.421875 13.15625 6.1875 
Q 5.515625 13.8125 5.515625 26.8125 
Q 5.515625 40.234375 12.765625 48.109375 
Q 20.015625 56 32.328125 56 
Q 43.359375 56 49.78125 48.890625 
Q 56.203125 41.796875 56.203125 29.59375 
z
M 47.21875 32.234375 
Q 47.125 39.59375 43.09375 43.984375 
Q 39.0625 48.390625 32.421875 48.390625 
Q 24.90625 48.390625 20.390625 44.140625 
Q 15.875 39.890625 15.1875 32.171875 
z
" id="DejaVuSans-101"/>
       <path d="M 14.796875 27.296875 
Q 14.796875 17.390625 18.875 11.75 
Q 22.953125 6.109375 30.078125 6.109375 
Q 37.203125 6.109375 41.296875 11.75 
Q 45.40625 17.390625 45.40625 27.296875 
Q 45.40625 37.203125 41.296875 42.84375 
Q 37.203125 48.484375 30.078125 48.484375 
Q 22.953125 48.484375 18.875 42.84375 
Q 14.796875 37.203125 14.796875 27.296875 
z
M 45.40625 8.203125 
Q 42.578125 3.328125 38.25 0.953125 
Q 33.9375 -1.421875 27.875 -1.421875 
Q 17.96875 -1.421875 11.734375 6.484375 
Q 5.515625 14.40625 5.515625 27.296875 
Q 5.515625 40.1875 11.734375 48.09375 
Q 17.96875 56 27.875 56 
Q 33.9375 56 38.25 53.625 
Q 42.578125 51.265625 45.40625 46.390625 
L 45.40625 54.6875 
L 54.390625 54.6875 
L 54.390625 -20.796875 
L 45.40625 -20.796875 
z
" id="DejaVuSans-113"/>
       <path d="M 8.5 21.578125 
L 8.5 54.6875 
L 17.484375 54.6875 
L 17.484375 21.921875 
Q 17.484375 14.15625 20.5 10.265625 
Q 23.53125 6.390625 29.59375 6.390625 
Q 36.859375 6.390625 41.078125 11.03125 
Q 45.3125 15.671875 45.3125 23.6875 
L 45.3125 54.6875 
L 54.296875 54.6875 
L 54.296875 0 
L 45.3125 0 
L 45.3125 8.40625 
Q 42.046875 3.421875 37.71875 1 
Q 33.40625 -1.421875 27.6875 -1.421875 
Q 18.265625 -1.421875 13.375 4.4375 
Q 8.5 10.296875 8.5 21.578125 
z
M 31.109375 56 
z
" id="DejaVuSans-117"/>
       <path d="M 54.890625 33.015625 
L 54.890625 0 
L 45.90625 0 
L 45.90625 32.71875 
Q 45.90625 40.484375 42.875 44.328125 
Q 39.84375 48.1875 33.796875 48.1875 
Q 26.515625 48.1875 22.3125 43.546875 
Q 18.109375 38.921875 18.109375 30.90625 
L 18.109375 0 
L 9.078125 0 
L 9.078125 54.6875 
L 18.109375 54.6875 
L 18.109375 46.1875 
Q 21.34375 51.125 25.703125 53.5625 
Q 30.078125 56 35.796875 56 
Q 45.21875 56 50.046875 50.171875 
Q 54.890625 44.34375 54.890625 33.015625 
z
" id="DejaVuSans-110"/>
       <path d="M 48.78125 52.59375 
L 48.78125 44.1875 
Q 44.96875 46.296875 41.140625 47.34375 
Q 37.3125 48.390625 33.40625 48.390625 
Q 24.65625 48.390625 19.8125 42.84375 
Q 14.984375 37.3125 14.984375 27.296875 
Q 14.984375 17.28125 19.8125 11.734375 
Q 24.65625 6.203125 33.40625 6.203125 
Q 37.3125 6.203125 41.140625 7.25 
Q 44.96875 8.296875 48.78125 10.40625 
L 48.78125 2.09375 
Q 45.015625 0.34375 40.984375 -0.53125 
Q 36.96875 -1.421875 32.421875 -1.421875 
Q 20.0625 -1.421875 12.78125 6.34375 
Q 5.515625 14.109375 5.515625 27.296875 
Q 5.515625 40.671875 12.859375 48.328125 
Q 20.21875 56 33.015625 56 
Q 37.15625 56 41.109375 55.140625 
Q 45.0625 54.296875 48.78125 52.59375 
z
" id="DejaVuSans-99"/>
       <path d="M 32.171875 -5.078125 
Q 28.375 -14.84375 24.75 -17.8125 
Q 21.140625 -20.796875 15.09375 -20.796875 
L 7.90625 -20.796875 
L 7.90625 -13.28125 
L 13.1875 -13.28125 
Q 16.890625 -13.28125 18.9375 -11.515625 
Q 21 -9.765625 23.484375 -3.21875 
L 25.09375 0.875 
L 2.984375 54.6875 
L 12.5 54.6875 
L 29.59375 11.921875 
L 46.6875 54.6875 
L 56.203125 54.6875 
z
" id="DejaVuSans-121"/>
       <path id="DejaVuSans-32"/>
       <path d="M 8.59375 75.984375 
L 29.296875 75.984375 
L 29.296875 69 
L 17.578125 69 
L 17.578125 -6.203125 
L 29.296875 -6.203125 
L 29.296875 -13.1875 
L 8.59375 -13.1875 
z
" id="DejaVuSans-91"/>
       <path d="M 9.8125 72.90625 
L 24.515625 72.90625 
L 43.109375 23.296875 
L 61.8125 72.90625 
L 76.515625 72.90625 
L 76.515625 0 
L 66.890625 0 
L 66.890625 64.015625 
L 48.09375 14.015625 
L 38.1875 14.015625 
L 19.390625 64.015625 
L 19.390625 0 
L 9.8125 0 
z
" id="DejaVuSans-77"/>
       <path d="M 9.8125 72.90625 
L 19.671875 72.90625 
L 19.671875 43.015625 
L 55.515625 43.015625 
L 55.515625 72.90625 
L 65.375 72.90625 
L 65.375 0 
L 55.515625 0 
L 55.515625 34.71875 
L 19.671875 34.71875 
L 19.671875 0 
L 9.8125 0 
z
" id="DejaVuSans-72"/>
       <path d="M 5.515625 54.6875 
L 48.1875 54.6875 
L 48.1875 46.484375 
L 14.40625 7.171875 
L 48.1875 7.171875 
L 48.1875 0 
L 4.296875 0 
L 4.296875 8.203125 
L 38.09375 47.515625 
L 5.515625 47.515625 
z
" id="DejaVuSans-122"/>
       <path d="M 30.421875 75.984375 
L 30.421875 -13.1875 
L 9.71875 -13.1875 
L 9.71875 -6.203125 
L 21.390625 -6.203125 
L 21.390625 69 
L 9.71875 69 
L 9.71875 75.984375 
z
" id="DejaVuSans-93"/>
      </defs>
      <use xlink:href="#DejaVuSans-102"/>
      <use x="35.205078" xlink:href="#DejaVuSans-114"/>
      <use x="74.068359" xlink:href="#DejaVuSans-101"/>
      <use x="135.591797" xlink:href="#DejaVuSans-113"/>
      <use x="199.068359" xlink:href="#DejaVuSans-117"/>
      <use x="262.447266" xlink:href="#DejaVuSans-101"/>
      <use x="323.970703" xlink:href="#DejaVuSans-110"/>
      <use x="387.349609" xlink:href="#DejaVuSans-99"/>
      <use x="442.330078" xlink:href="#DejaVuSans-121"/>
      <use x="501.509766" xlink:href="#DejaVuSans-32"/>
      <use x="533.296875" xlink:href="#DejaVuSans-91"/>
      <use x="572.310547" xlink:href="#DejaVuSans-77"/>
      <use x="658.589844" xlink:href="#DejaVuSans-72"/>
      <use x="733.785156" xlink:href="#DejaVuSans-122"/>
      <use x="786.275391" xlink:href="#DejaVuSans-93"/>
     </g>
    </g>
   </g>
   <g id="matplotlib.axis_2">
    <g id="ytick_1">
     <g id="line2d_101">
      <path clip-path="url(#p2999c833d2)" d="M 60.05 267.831609 
L 493.2 267.831609 
" style="fill:none;stroke:#808080;stroke-linecap:square;stroke-width:0.8;"/>
     </g>
     <g id="line2d_102">
      <defs>
       <path d="M 0 0 
L -3.5 0 
" id="m6570b7fff6" style="stroke:#000000;stroke-width:0.8;"/>
      </defs>
      <g>
       <use style="stroke:#000000;stroke-width:0.8;" x="60.05" xlink:href="#m6570b7fff6" y="267.831609"/>
      </g>
     </g>
     <g id="text_8">
      <!-- −60 -->
      <g transform="translate(27.724375 272.390671)scale(0.12 -0.12)">
       <defs>
        <path d="M 10.59375 35.5 
L 73.1875 35.5 
L 73.1875 27.203125 
L 10.59375 27.203125 
z
" id="DejaVuSans-8722"/>
        <path d="M 33.015625 40.375 
Q 26.375 40.375 22.484375 35.828125 
Q 18.609375 31.296875 18.609375 23.390625 
Q 18.609375 15.53125 22.484375 10.953125 
Q 26.375 6.390625 33.015625 6.390625 
Q 39.65625 6.390625 43.53125 10.953125 
Q 47.40625 15.53125 47.40625 23.390625 
Q 47.40625 31.296875 43.53125 35.828125 
Q 39.65625 40.375 33.015625 40.375 
z
M 52.59375 71.296875 
L 52.59375 62.3125 
Q 48.875 64.0625 45.09375 64.984375 
Q 41.3125 65.921875 37.59375 65.921875 
Q 27.828125 65.921875 22.671875 59.328125 
Q 17.53125 52.734375 16.796875 39.40625 
Q 19.671875 43.65625 24.015625 45.921875 
Q 28.375 48.1875 33.59375 48.1875 
Q 44.578125 48.1875 50.953125 41.515625 
Q 57.328125 34.859375 57.328125 23.390625 
Q 57.328125 12.15625 50.6875 5.359375 
Q 44.046875 -1.421875 33.015625 -1.421875 
Q 20.359375 -1.421875 13.671875 8.265625 
Q 6.984375 17.96875 6.984375 36.375 
Q 6.984375 53.65625 15.1875 63.9375 
Q 23.390625 74.21875 37.203125 74.21875 
Q 40.921875 74.21875 44.703125 73.484375 
Q 48.484375 72.75 52.59375 71.296875 
z
" id="DejaVuSans-54"/>
       </defs>
       <use xlink:href="#DejaVuSans-8722"/>
       <use x="83.789062" xlink:href="#DejaVuSans-54"/>
       <use x="147.412109" xlink:href="#DejaVuSans-48"/>
      </g>
     </g>
    </g>
    <g id="ytick_2">
     <g id="line2d_103">
      <path clip-path="url(#p2999c833d2)" d="M 60.05 226.034802 
L 493.2 226.034802 
" style="fill:none;stroke:#808080;stroke-linecap:square;stroke-width:0.8;"/>
     </g>
     <g id="line2d_104">
      <g>
       <use style="stroke:#000000;stroke-width:0.8;" x="60.05" xlink:href="#m6570b7fff6" y="226.034802"/>
      </g>
     </g>
     <g id="text_9">
      <!-- −50 -->
      <g transform="translate(27.724375 230.593864)scale(0.12 -0.12)">
       <use xlink:href="#DejaVuSans-8722"/>
       <use x="83.789062" xlink:href="#DejaVuSans-53"/>
       <use x="147.412109" xlink:href="#DejaVuSans-48"/>
      </g>
     </g>
    </g>
    <g id="ytick_3">
     <g id="line2d_105">
      <path clip-path="url(#p2999c833d2)" d="M 60.05 184.237995 
L 493.2 184.237995 
" style="fill:none;stroke:#808080;stroke-linecap:square;stroke-width:0.8;"/>
     </g>
     <g id="line2d_106">
      <g>
       <use style="stroke:#000000;stroke-width:0.8;" x="60.05" xlink:href="#m6570b7fff6" y="184.237995"/>
      </g>
     </g>
     <g id="text_10">
      <!-- −40 -->
      <g transform="translate(27.724375 188.797057)scale(0.12 -0.12)">
       <use xlink:href="#DejaVuSans-8722"/>
       <use x="83.789062" xlink:href="#DejaVuSans-52"/>
       <use x="147.412109" xlink:href="#DejaVuSans-48"/>
      </g>
     </g>
    </g>
    <g id="ytick_4">
     <g id="line2d_107">
      <path clip-path="url(#p2999c833d2)" d="M 60.05 142.441187 
L 493.2 142.441187 
" style="fill:none;stroke:#808080;stroke-linecap:square;stroke-width:0.8;"/>
     </g>
     <g id="line2d_108">
      <g>
       <use style="stroke:#000000;stroke-width:0.8;" x="60.05" xlink:href="#m6570b7fff6" y="142.441187"/>
      </g>
     </g>
     <g id="text_11">
      <!-- −30 -->
      <g transform="translate(27.724375 147.00025)scale(0.12 -0.12)">
       <use xlink:href="#DejaVuSans-8722"/>
       <use x="83.789062" xlink:href="#DejaVuSans-51"/>
       <use x="147.412109" xlink:href="#DejaVuSans-48"/>
      </g>
     </g>
    </g>
    <g id="ytick_5">
     <g id="line2d_109">
      <path clip-path="url(#p2999c833d2)" d="M 60.05 100.64438 
L 493.2 100.64438 
" style="fill:none;stroke:#808080;stroke-linecap:square;stroke-width:0.8;"/>
     </g>
     <g id="line2d_110">
      <g>
       <use style="stroke:#000000;stroke-width:0.8;" x="60.05" xlink:href="#m6570b7fff6" y="100.64438"/>
      </g>
     </g>
     <g id="text_12">
      <!-- −20 -->
      <g transform="translate(27.724375 105.203443)scale(0.12 -0.12)">
       <use xlink:href="#DejaVuSans-8722"/>
       <use x="83.789062" xlink:href="#DejaVuSans-50"/>
       <use x="147.412109" xlink:href="#DejaVuSans-48"/>
      </g>
     </g>
    </g>
    <g id="ytick_6">
     <g id="line2d_111">
      <path clip-path="url(#p2999c833d2)" d="M 60.05 58.847573 
L 493.2 58.847573 
" style="fill:none;stroke:#808080;stroke-linecap:square;stroke-width:0.8;"/>
     </g>
     <g id="line2d_112">
      <g>
       <use style="stroke:#000000;stroke-width:0.8;" x="60.05" xlink:href="#m6570b7fff6" y="58.847573"/>
      </g>
     </g>
     <g id="text_13">
      <!-- −10 -->
      <g transform="translate(27.724375 63.406636)scale(0.12 -0.12)">
       <use xlink:href="#DejaVuSans-8722"/>
       <use x="83.789062" xlink:href="#DejaVuSans-49"/>
       <use x="147.412109" xlink:href="#DejaVuSans-48"/>
      </g>
     </g>
    </g>
    <g id="text_14">
     <!-- magnitude [dB] -->
     <g transform="translate(21.22875 214.669687)rotate(-90)scale(0.12 -0.12)">
      <defs>
       <path d="M 52 44.1875 
Q 55.375 50.25 60.0625 53.125 
Q 64.75 56 71.09375 56 
Q 79.640625 56 84.28125 50.015625 
Q 88.921875 44.046875 88.921875 33.015625 
L 88.921875 0 
L 79.890625 0 
L 79.890625 32.71875 
Q 79.890625 40.578125 77.09375 44.375 
Q 74.3125 48.1875 68.609375 48.1875 
Q 61.625 48.1875 57.5625 43.546875 
Q 53.515625 38.921875 53.515625 30.90625 
L 53.515625 0 
L 44.484375 0 
L 44.484375 32.71875 
Q 44.484375 40.625 41.703125 44.40625 
Q 38.921875 48.1875 33.109375 48.1875 
Q 26.21875 48.1875 22.15625 43.53125 
Q 18.109375 38.875 18.109375 30.90625 
L 18.109375 0 
L 9.078125 0 
L 9.078125 54.6875 
L 18.109375 54.6875 
L 18.109375 46.1875 
Q 21.1875 51.21875 25.484375 53.609375 
Q 29.78125 56 35.6875 56 
Q 41.65625 56 45.828125 52.96875 
Q 50 49.953125 52 44.1875 
z
" id="DejaVuSans-109"/>
       <path d="M 34.28125 27.484375 
Q 23.390625 27.484375 19.1875 25 
Q 14.984375 22.515625 14.984375 16.5 
Q 14.984375 11.71875 18.140625 8.90625 
Q 21.296875 6.109375 26.703125 6.109375 
Q 34.1875 6.109375 38.703125 11.40625 
Q 43.21875 16.703125 43.21875 25.484375 
L 43.21875 27.484375 
z
M 52.203125 31.203125 
L 52.203125 0 
L 43.21875 0 
L 43.21875 8.296875 
Q 40.140625 3.328125 35.546875 0.953125 
Q 30.953125 -1.421875 24.3125 -1.421875 
Q 15.921875 -1.421875 10.953125 3.296875 
Q 6 8.015625 6 15.921875 
Q 6 25.140625 12.171875 29.828125 
Q 18.359375 34.515625 30.609375 34.515625 
L 43.21875 34.515625 
L 43.21875 35.40625 
Q 43.21875 41.609375 39.140625 45 
Q 35.0625 48.390625 27.6875 48.390625 
Q 23 48.390625 18.546875 47.265625 
Q 14.109375 46.140625 10.015625 43.890625 
L 10.015625 52.203125 
Q 14.9375 54.109375 19.578125 55.046875 
Q 24.21875 56 28.609375 56 
Q 40.484375 56 46.34375 49.84375 
Q 52.203125 43.703125 52.203125 31.203125 
z
" id="DejaVuSans-97"/>
       <path d="M 45.40625 27.984375 
Q 45.40625 37.75 41.375 43.109375 
Q 37.359375 48.484375 30.078125 48.484375 
Q 22.859375 48.484375 18.828125 43.109375 
Q 14.796875 37.75 14.796875 27.984375 
Q 14.796875 18.265625 18.828125 12.890625 
Q 22.859375 7.515625 30.078125 7.515625 
Q 37.359375 7.515625 41.375 12.890625 
Q 45.40625 18.265625 45.40625 27.984375 
z
M 54.390625 6.78125 
Q 54.390625 -7.171875 48.1875 -13.984375 
Q 42 -20.796875 29.203125 -20.796875 
Q 24.46875 -20.796875 20.265625 -20.09375 
Q 16.0625 -19.390625 12.109375 -17.921875 
L 12.109375 -9.1875 
Q 16.0625 -11.328125 19.921875 -12.34375 
Q 23.78125 -13.375 27.78125 -13.375 
Q 36.625 -13.375 41.015625 -8.765625 
Q 45.40625 -4.15625 45.40625 5.171875 
L 45.40625 9.625 
Q 42.625 4.78125 38.28125 2.390625 
Q 33.9375 0 27.875 0 
Q 17.828125 0 11.671875 7.65625 
Q 5.515625 15.328125 5.515625 27.984375 
Q 5.515625 40.671875 11.671875 48.328125 
Q 17.828125 56 27.875 56 
Q 33.9375 56 38.28125 53.609375 
Q 42.625 51.21875 45.40625 46.390625 
L 45.40625 54.6875 
L 54.390625 54.6875 
z
" id="DejaVuSans-103"/>
       <path d="M 9.421875 54.6875 
L 18.40625 54.6875 
L 18.40625 0 
L 9.421875 0 
z
M 9.421875 75.984375 
L 18.40625 75.984375 
L 18.40625 64.59375 
L 9.421875 64.59375 
z
" id="DejaVuSans-105"/>
       <path d="M 18.3125 70.21875 
L 18.3125 54.6875 
L 36.8125 54.6875 
L 36.8125 47.703125 
L 18.3125 47.703125 
L 18.3125 18.015625 
Q 18.3125 11.328125 20.140625 9.421875 
Q 21.96875 7.515625 27.59375 7.515625 
L 36.8125 7.515625 
L 36.8125 0 
L 27.59375 0 
Q 17.1875 0 13.234375 3.875 
Q 9.28125 7.765625 9.28125 18.015625 
L 9.28125 47.703125 
L 2.6875 47.703125 
L 2.6875 54.6875 
L 9.28125 54.6875 
L 9.28125 70.21875 
z
" id="DejaVuSans-116"/>
       <path d="M 45.40625 46.390625 
L 45.40625 75.984375 
L 54.390625 75.984375 
L 54.390625 0 
L 45.40625 0 
L 45.40625 8.203125 
Q 42.578125 3.328125 38.25 0.953125 
Q 33.9375 -1.421875 27.875 -1.421875 
Q 17.96875 -1.421875 11.734375 6.484375 
Q 5.515625 14.40625 5.515625 27.296875 
Q 5.515625 40.1875 11.734375 48.09375 
Q 17.96875 56 27.875 56 
Q 33.9375 56 38.25 53.625 
Q 42.578125 51.265625 45.40625 46.390625 
z
M 14.796875 27.296875 
Q 14.796875 17.390625 18.875 11.75 
Q 22.953125 6.109375 30.078125 6.109375 
Q 37.203125 6.109375 41.296875 11.75 
Q 45.40625 17.390625 45.40625 27.296875 
Q 45.40625 37.203125 41.296875 42.84375 
Q 37.203125 48.484375 30.078125 48.484375 
Q 22.953125 48.484375 18.875 42.84375 
Q 14.796875 37.203125 14.796875 27.296875 
z
" id="DejaVuSans-100"/>
       <path d="M 19.671875 34.8125 
L 19.671875 8.109375 
L 35.5 8.109375 
Q 43.453125 8.109375 47.28125 11.40625 
Q 51.125 14.703125 51.125 21.484375 
Q 51.125 28.328125 47.28125 31.5625 
Q 43.453125 34.8125 35.5 34.8125 
z
M 19.671875 64.796875 
L 19.671875 42.828125 
L 34.28125 42.828125 
Q 41.5 42.828125 45.03125 45.53125 
Q 48.578125 48.25 48.578125 53.8125 
Q 48.578125 59.328125 45.03125 62.0625 
Q 41.5 64.796875 34.28125 64.796875 
z
M 9.8125 72.90625 
L 35.015625 72.90625 
Q 46.296875 72.90625 52.390625 68.21875 
Q 58.5 63.53125 58.5 54.890625 
Q 58.5 48.1875 55.375 44.234375 
Q 52.25 40.28125 46.1875 39.3125 
Q 53.46875 37.75 57.5 32.78125 
Q 61.53125 27.828125 61.53125 20.40625 
Q 61.53125 10.640625 54.890625 5.3125 
Q 48.25 0 35.984375 0 
L 9.8125 0 
z
" id="DejaVuSans-66"/>
      </defs>
      <use xlink:href="#DejaVuSans-109"/>
      <use x="97.412109" xlink:href="#DejaVuSans-97"/>
      <use x="158.691406" xlink:href="#DejaVuSans-103"/>
      <use x="222.167969" xlink:href="#DejaVuSans-110"/>
      <use x="285.546875" xlink:href="#DejaVuSans-105"/>
      <use x="313.330078" xlink:href="#DejaVuSans-116"/>
      <use x="352.539062" xlink:href="#DejaVuSans-117"/>
      <use x="415.917969" xlink:href="#DejaVuSans-100"/>
      <use x="479.394531" xlink:href="#DejaVuSans-101"/>
      <use x="540.917969" xlink:href="#DejaVuSans-32"/>
      <use x="572.705078" xlink:href="#DejaVuSans-91"/>
      <use x="611.71875" xlink:href="#DejaVuSans-100"/>
      <use x="675.195312" xlink:href="#DejaVuSans-66"/>
      <use x="743.798828" xlink:href="#DejaVuSans-93"/>
     </g>
    </g>
   </g>
   <g id="line2d_113">
    <path clip-path="url(#p2999c833d2)" d="M 79.738636 42.294548 
L 83.716139 42.294546 
L 87.693641 42.294543 
L 91.671143 42.294539 
L 95.648646 42.294535 
L 99.626148 42.294529 
L 103.60365 42.294522 
L 107.581152 42.294513 
L 111.558655 42.294502 
L 115.536157 42.294487 
L 119.513659 42.294469 
L 123.491162 42.294447 
L 127.468664 42.294418 
L 131.446166 42.294382 
L 135.423669 42.294336 
L 139.401171 42.294278 
L 143.378673 42.294205 
L 147.356175 42.294113 
L 151.333678 42.293997 
L 155.31118 42.293851 
L 159.288682 42.293666 
L 163.266185 42.293433 
L 167.243687 42.293139 
L 171.221189 42.292768 
L 175.198691 42.2923 
L 179.176194 42.291709 
L 183.153696 42.290964 
L 187.131198 42.290024 
L 191.108701 42.288838 
L 195.086203 42.287342 
L 199.063705 42.285454 
L 203.041208 42.283074 
L 207.01871 42.280071 
L 210.996212 42.276285 
L 214.973714 42.271512 
L 218.951217 42.265496 
L 222.928719 42.257915 
L 226.906221 42.248366 
L 230.883724 42.236343 
L 234.861226 42.221214 
L 238.838728 42.202192 
L 242.81623 42.178298 
L 246.793733 42.148319 
L 250.771235 42.110766 
L 254.748737 42.063815 
L 258.72624 42.005266 
L 262.703742 41.932491 
L 266.681244 41.842415 
L 270.658747 41.73154 
L 274.636249 41.596054 
L 278.613751 41.432093 
L 282.591253 41.236261 
L 286.568756 41.006566 
L 290.546258 40.744008 
L 294.52376 40.455107 
L 298.501263 40.155712 
L 302.478765 39.87626 
L 306.456267 39.668091 
L 310.43377 39.609091 
L 314.411272 39.804594 
L 318.388774 40.377277 
L 322.366276 41.441048 
L 326.343779 43.062917 
L 330.321281 45.230757 
L 334.298783 47.848726 
L 338.276286 50.765408 
L 342.253788 53.81726 
L 346.23129 56.864767 
L 350.208792 59.810714 
L 354.186295 62.602712 
L 358.163797 65.226781 
L 362.141299 67.697772 
L 366.118802 70.049823 
L 370.096304 72.328162 
L 374.073806 74.582526 
L 378.051309 76.862051 
L 382.028811 79.211424 
L 386.006313 81.668121 
L 389.983815 84.260691 
L 393.961318 87.008021 
L 397.93882 89.919552 
L 401.916322 92.996292 
L 405.893825 96.232378 
L 409.871327 99.616922 
L 413.848829 103.135849 
L 417.826331 106.773523 
L 421.803834 110.51404 
L 425.781336 114.342153 
L 429.758838 118.243854 
L 433.736341 122.20668 
L 437.713843 126.219812 
L 441.691345 130.274038 
L 445.668848 134.361628 
L 449.64635 138.476175 
L 453.623852 142.612418 
L 457.601354 146.766066 
L 461.578857 150.933643 
L 465.556359 155.112345 
L 469.533861 159.299918 
L 473.511364 163.494555 
" style="fill:none;stroke:#ff0000;stroke-linecap:square;stroke-width:2;"/>
   </g>
   <g id="line2d_114">
    <path clip-path="url(#p2999c833d2)" d="M 79.738636 42.294568 
L 83.716139 42.294572 
L 87.693641 42.294576 
L 91.671143 42.294581 
L 95.648646 42.294587 
L 99.626148 42.294595 
L 103.60365 42.294605 
L 107.581152 42.294618 
L 111.558655 42.294635 
L 115.536157 42.294655 
L 119.513659 42.294681 
L 123.491162 42.294714 
L 127.468664 42.294755 
L 131.446166 42.294807 
L 135.423669 42.294873 
L 139.401171 42.294955 
L 143.378673 42.29506 
L 147.356175 42.295192 
L 151.333678 42.295358 
L 155.31118 42.295568 
L 159.288682 42.295833 
L 163.266185 42.296168 
L 167.243687 42.29659 
L 171.221189 42.297122 
L 175.198691 42.297794 
L 179.176194 42.298642 
L 183.153696 42.299711 
L 187.131198 42.301061 
L 191.108701 42.302763 
L 195.086203 42.304911 
L 199.063705 42.307621 
L 203.041208 42.311039 
L 207.01871 42.315351 
L 210.996212 42.320789 
L 214.973714 42.327647 
L 218.951217 42.336295 
L 222.928719 42.347196 
L 226.906221 42.360935 
L 230.883724 42.378246 
L 234.861226 42.400048 
L 238.838728 42.427492 
L 242.81623 42.462017 
L 246.793733 42.505415 
L 250.771235 42.559915 
L 254.748737 42.628269 
L 258.72624 42.713868 
L 262.703742 42.820856 
L 266.681244 42.954255 
L 270.658747 43.12009 
L 274.636249 43.325491 
L 278.613751 43.578753 
L 282.591253 43.889315 
L 286.568756 44.267618 
L 290.546258 44.724789 
L 294.52376 45.272102 
L 298.501263 45.920203 
L 302.478765 46.678116 
L 306.456267 47.55213 
L 310.43377 48.544779 
L 314.411272 49.654172 
L 318.388774 50.874 
L 322.366276 52.194441 
L 326.343779 53.604036 
L 330.321281 55.092298 
L 334.298783 56.65258 
L 338.276286 58.284498 
L 342.253788 59.995256 
L 346.23129 61.799442 
L 350.208792 63.717237 
L 354.186295 65.771447 
L 358.163797 67.98403 
L 362.141299 70.372913 
L 366.118802 72.949701 
L 370.096304 75.718604 
L 374.073806 78.676563 
L 378.051309 81.814309 
L 382.028811 85.117958 
L 386.006313 88.570752 
L 389.983815 92.154663 
L 393.961318 95.851686 
L 397.93882 99.644753 
L 401.916322 103.51831 
L 405.893825 107.458596 
L 409.871327 111.453715 
L 413.848829 115.49357 
L 417.826331 119.569712 
L 421.803834 123.675148 
L 425.781336 127.804147 
L 429.758838 131.952039 
L 433.736341 136.115046 
L 437.713843 140.29012 
L 441.691345 144.474813 
L 445.668848 148.667167 
L 449.64635 152.865613 
L 453.623852 157.068901 
L 457.601354 161.276037 
L 461.578857 165.486226 
L 465.556359 169.69884 
L 469.533861 173.913377 
L 473.511364 178.129439 
" style="fill:none;stroke:#0000ff;stroke-linecap:square;stroke-width:2;"/>
   </g>
   <g id="line2d_115">
    <path clip-path="url(#p2999c833d2)" d="M 79.738636 42.294612 
L 83.716139 42.294627 
L 87.693641 42.294645 
L 91.671143 42.294669 
L 95.648646 42.294698 
L 99.626148 42.294735 
L 103.60365 42.294782 
L 107.581152 42.294841 
L 111.558655 42.294916 
L 115.536157 42.29501 
L 119.513659 42.295129 
L 123.491162 42.295279 
L 127.468664 42.295469 
L 131.446166 42.295708 
L 135.423669 42.296009 
L 139.401171 42.29639 
L 143.378673 42.29687 
L 147.356175 42.297475 
L 151.333678 42.29824 
L 155.31118 42.299204 
L 159.288682 42.300421 
L 163.266185 42.301956 
L 167.243687 42.303893 
L 171.221189 42.306337 
L 175.198691 42.30942 
L 179.176194 42.31331 
L 183.153696 42.318216 
L 187.131198 42.324405 
L 191.108701 42.33221 
L 195.086203 42.342052 
L 199.063705 42.354461 
L 203.041208 42.370104 
L 207.01871 42.389816 
L 210.996212 42.414649 
L 214.973714 42.44592 
L 218.951217 42.485274 
L 222.928719 42.534769 
L 226.906221 42.596964 
L 230.883724 42.675033 
L 234.861226 42.772897 
L 238.838728 42.895368 
L 242.81623 43.048312 
L 246.793733 43.238814 
L 250.771235 43.475334 
L 254.748737 43.767822 
L 258.72624 44.127768 
L 262.703742 44.568114 
L 266.681244 45.102986 
L 270.658747 45.747147 
L 274.636249 46.515134 
L 278.613751 47.420005 
L 282.591253 48.47174 
L 286.568756 49.675381 
L 290.546258 51.029101 
L 294.52376 52.522474 
L 298.501263 54.135243 
L 302.478765 55.836852 
L 306.456267 57.586921 
L 310.43377 59.336753 
L 314.411272 61.031908 
L 318.388774 62.615885 
L 322.366276 64.03501 
L 326.343779 65.244737 
L 330.321281 66.21757 
L 334.298783 66.952735 
L 338.276286 67.487196 
L 342.253788 67.906396 
L 346.23129 68.350426 
L 350.208792 69.007721 
L 354.186295 70.086988 
L 358.163797 71.766163 
L 362.141299 74.13723 
L 366.118802 77.180249 
L 370.096304 80.784226 
L 374.073806 84.797174 
L 378.051309 89.072597 
L 382.028811 93.494448 
L 386.006313 97.982271 
L 389.983815 102.485827 
L 393.961318 106.976778 
L 397.93882 111.441163 
L 401.916322 115.873771 
L 405.893825 120.274349 
L 409.871327 124.645206 
L 413.848829 128.989776 
L 417.826331 133.311793 
L 421.803834 137.614855 
L 425.781336 141.902218 
L 429.758838 146.176714 
L 433.736341 150.440745 
L 437.713843 154.696316 
L 441.691345 158.945077 
L 445.668848 163.188375 
L 449.64635 167.427302 
L 453.623852 171.66274 
L 457.601354 175.895396 
L 461.578857 180.125837 
L 465.556359 184.354517 
L 469.533861 188.581796 
L 473.511364 192.807964 
" style="fill:none;stroke:#008000;stroke-linecap:square;stroke-width:2;"/>
   </g>
   <g id="line2d_116">
    <path clip-path="url(#p2999c833d2)" d="M 79.738636 42.294707 
L 83.716139 42.294746 
L 87.693641 42.294796 
L 91.671143 42.294858 
L 95.648646 42.294938 
L 99.626148 42.295037 
L 103.60365 42.295163 
L 107.581152 42.295322 
L 111.558655 42.295523 
L 115.536157 42.295776 
L 119.513659 42.296096 
L 123.491162 42.296499 
L 127.468664 42.297008 
L 131.446166 42.297649 
L 135.423669 42.298459 
L 139.401171 42.299481 
L 143.378673 42.30077 
L 147.356175 42.302397 
L 151.333678 42.30445 
L 155.31118 42.307039 
L 159.288682 42.310306 
L 163.266185 42.314428 
L 167.243687 42.319628 
L 171.221189 42.326186 
L 175.198691 42.334458 
L 179.176194 42.34489 
L 183.153696 42.358044 
L 187.131198 42.374627 
L 191.108701 42.395528 
L 195.086203 42.421862 
L 199.063705 42.455029 
L 203.041208 42.496783 
L 207.01871 42.549313 
L 210.996212 42.615351 
L 214.973714 42.698289 
L 218.951217 42.802328 
L 222.928719 42.932639 
L 226.906221 43.095551 
L 230.883724 43.298746 
L 234.861226 43.551456 
L 238.838728 43.864637 
L 242.81623 44.251082 
L 246.793733 44.725433 
L 250.771235 45.304017 
L 254.748737 46.004449 
L 258.72624 46.844921 
L 262.703742 47.843134 
L 266.681244 49.014876 
L 270.658747 50.37232 
L 274.636249 51.922198 
L 278.613751 53.664082 
L 282.591253 55.589011 
L 286.568756 57.678663 
L 290.546258 59.905152 
L 294.52376 62.231394 
L 298.501263 64.611903 
L 302.478765 66.993823 
L 306.456267 69.318072 
L 310.43377 71.520584 
L 314.411272 73.533766 
L 318.388774 75.288445 
L 322.366276 76.71672 
L 326.343779 77.756307 
L 330.321281 78.357284 
L 334.298783 78.49272 
L 338.276286 78.175641 
L 342.253788 77.485797 
L 346.23129 76.608281 
L 350.208792 75.874706 
L 354.186295 75.765238 
L 358.163797 76.794145 
L 362.141299 79.265546 
L 366.118802 83.09092 
L 370.096304 87.878012 
L 374.073806 93.179517 
L 378.051309 98.658261 
L 382.028811 104.115447 
L 386.006313 109.4552 
L 389.983815 114.643136 
L 393.961318 119.677049 
L 397.93882 124.569605 
L 401.916322 129.339018 
L 405.893825 134.00437 
L 409.871327 138.583449 
L 413.848829 143.091894 
L 417.826331 147.543004 
L 421.803834 151.947855 
L 425.781336 156.315547 
L 429.758838 160.653482 
L 433.736341 164.967647 
L 437.713843 169.262858 
L 441.691345 173.542976 
L 445.668848 177.811087 
L 449.64635 182.069655 
L 453.623852 186.320643 
L 457.601354 190.565614 
L 461.578857 194.805808 
L 465.556359 199.042213 
L 469.533861 203.275612 
L 473.511364 207.506628 
" style="fill:none;stroke:#00bfbf;stroke-linecap:square;stroke-width:2;"/>
   </g>
   <g id="line2d_117">
    <path clip-path="url(#p2999c833d2)" d="M 79.738636 42.294913 
L 83.716139 42.295006 
L 87.693641 42.295124 
L 91.671143 42.295273 
L 95.648646 42.295461 
L 99.626148 42.295697 
L 103.60365 42.295996 
L 107.581152 42.296373 
L 111.558655 42.296849 
L 115.536157 42.297449 
L 119.513659 42.298207 
L 123.491162 42.299162 
L 127.468664 42.300368 
L 131.446166 42.30189 
L 135.423669 42.30381 
L 139.401171 42.306232 
L 143.378673 42.309288 
L 147.356175 42.313143 
L 151.333678 42.318007 
L 155.31118 42.324142 
L 159.288682 42.331881 
L 163.266185 42.341642 
L 167.243687 42.35395 
L 171.221189 42.369468 
L 175.198691 42.38903 
L 179.176194 42.413683 
L 183.153696 42.44474 
L 187.131198 42.483849 
L 191.108701 42.533071 
L 195.086203 42.594981 
L 199.063705 42.672782 
L 203.041208 42.770452 
L 207.01871 42.892904 
L 210.996212 43.046175 
L 214.973714 43.23763 
L 218.951217 43.476184 
L 222.928719 43.772502 
L 226.906221 44.139178 
L 230.883724 44.590827 
L 234.861226 45.144055 
L 238.838728 45.817224 
L 242.81623 46.629953 
L 246.793733 47.602292 
L 250.771235 48.753546 
L 254.748737 50.100799 
L 258.72624 51.657254 
L 262.703742 53.430585 
L 266.681244 55.421559 
L 270.658747 57.623134 
L 274.636249 60.020159 
L 278.613751 62.589676 
L 282.591253 65.301657 
L 286.568756 68.119951 
L 290.546258 71.003195 
L 294.52376 73.905499 
L 298.501263 76.776808 
L 302.478765 79.562962 
L 306.456267 82.205547 
L 310.43377 84.641707 
L 314.411272 86.804155 
L 318.388774 88.621622 
L 322.366276 90.020082 
L 326.343779 90.925174 
L 330.321281 91.266606 
L 334.298783 90.986225 
L 338.276286 90.05365 
L 342.253788 88.498074 
L 346.23129 86.472499 
L 350.208792 84.368067 
L 354.186295 82.942793 
L 358.163797 83.23671 
L 362.141299 85.965278 
L 366.118802 90.876073 
L 370.096304 97.045477 
L 374.073806 103.627268 
L 378.051309 110.140717 
L 382.028811 116.387312 
L 386.006313 122.317098 
L 389.983815 127.944599 
L 393.961318 133.307375 
L 397.93882 138.447716 
L 401.916322 143.405259 
L 405.893825 148.214486 
L 409.871327 152.904301 
L 413.848829 157.498443 
L 417.826331 162.016176 
L 421.803834 166.473017 
L 425.781336 170.881403 
L 429.758838 175.251271 
L 433.736341 179.590543 
L 437.713843 183.905527 
L 441.691345 188.201236 
L 445.668848 192.481654 
L 449.64635 196.749945 
L 453.623852 201.008619 
L 457.601354 205.259667 
L 461.578857 209.504671 
L 465.556359 213.744883 
L 469.533861 217.981296 
L 473.511364 222.214698 
" style="fill:none;stroke:#bf00bf;stroke-linecap:square;stroke-width:2;"/>
   </g>
   <g id="line2d_118">
    <path clip-path="url(#p2999c833d2)" d="M 79.738636 42.295368 
L 83.716139 42.29558 
L 87.693641 42.295848 
L 91.671143 42.296187 
L 95.648646 42.296613 
L 99.626148 42.297152 
L 103.60365 42.297832 
L 107.581152 42.298689 
L 111.558655 42.299771 
L 115.536157 42.301137 
L 119.513659 42.30286 
L 123.491162 42.305033 
L 127.468664 42.307776 
L 131.446166 42.311236 
L 135.423669 42.315601 
L 139.401171 42.321107 
L 143.378673 42.328053 
L 147.356175 42.336814 
L 151.333678 42.347862 
L 155.31118 42.361794 
L 159.288682 42.379359 
L 163.266185 42.401498 
L 167.243687 42.429395 
L 171.221189 42.464533 
L 175.198691 42.508774 
L 179.176194 42.564441 
L 183.153696 42.634435 
L 187.131198 42.722364 
L 191.108701 42.832694 
L 195.086203 42.970938 
L 199.063705 43.143848 
L 203.041208 43.359643 
L 207.01871 43.628226 
L 210.996212 43.961395 
L 214.973714 44.373 
L 218.951217 44.879004 
L 222.928719 45.497388 
L 226.906221 46.247833 
L 230.883724 47.151107 
L 234.861226 48.228119 
L 238.838728 49.498657 
L 242.81623 50.97986 
L 246.793733 52.684625 
L 250.771235 54.620151 
L 254.748737 56.786873 
L 258.72624 59.177981 
L 262.703742 61.779571 
L 266.681244 64.571371 
L 270.658747 67.527824 
L 274.636249 70.61928 
L 278.613751 73.813046 
L 282.591253 77.074135 
L 286.568756 80.365608 
L 290.546258 83.648507 
L 294.52376 86.881437 
L 298.501263 90.019869 
L 302.478765 93.015278 
L 306.456267 95.814244 
L 310.43377 98.357637 
L 314.411272 100.580038 
L 318.388774 102.409532 
L 322.366276 103.768028 
L 326.343779 104.572302 
L 330.321281 104.736197 
L 334.298783 104.175249 
L 338.276286 102.817486 
L 342.253788 100.630972 
L 346.23129 97.695395 
L 350.208792 94.37514 
L 354.186295 91.635182 
L 358.163797 91.166192 
L 362.141299 94.304009 
L 366.118802 100.476051 
L 370.096304 107.995706 
L 374.073806 115.647396 
L 378.051309 122.924123 
L 382.028811 129.701001 
L 386.006313 136.000769 
L 389.983815 141.890294 
L 393.961318 147.441889 
L 397.93882 152.720559 
L 401.916322 157.780923 
L 405.893825 162.667521 
L 409.871327 167.416148 
L 413.848829 172.055369 
L 417.826331 176.607886 
L 421.803834 181.091713 
L 425.781336 185.521126 
L 429.758838 189.907434 
L 433.736341 194.259597 
L 437.713843 198.58471 
L 441.691345 202.888392 
L 445.668848 207.175095 
L 449.64635 211.448345 
L 453.623852 215.710936 
L 457.601354 219.96508 
L 461.578857 224.212532 
L 465.556359 228.454681 
L 469.533861 232.692627 
L 473.511364 236.927243 
" style="fill:none;stroke:#bfbf00;stroke-linecap:square;stroke-width:2;"/>
   </g>
   <g id="line2d_119">
    <path clip-path="url(#p2999c833d2)" d="M 79.738636 42.296377 
L 83.716139 42.296853 
L 87.693641 42.297455 
L 91.671143 42.298214 
L 95.648646 42.299172 
L 99.626148 42.30038 
L 103.60365 42.301905 
L 107.581152 42.303828 
L 111.558655 42.306255 
L 115.536157 42.309318 
L 119.513659 42.313181 
L 123.491162 42.318055 
L 127.468664 42.324203 
L 131.446166 42.331958 
L 135.423669 42.341739 
L 139.401171 42.354074 
L 143.378673 42.369626 
L 147.356175 42.389232 
L 151.333678 42.413941 
L 155.31118 42.445072 
L 159.288682 42.484277 
L 163.266185 42.533627 
L 167.243687 42.595705 
L 171.221189 42.673734 
L 175.198691 42.771713 
L 179.176194 42.894588 
L 183.153696 43.048446 
L 187.131198 43.240725 
L 191.108701 43.480443 
L 195.086203 43.778425 
L 199.063705 44.147491 
L 203.041208 44.602594 
L 207.01871 45.160824 
L 210.996212 45.841235 
L 214.973714 46.664421 
L 218.951217 47.651775 
L 222.928719 48.824424 
L 226.906221 50.201859 
L 230.883724 51.800393 
L 234.861226 53.63164 
L 238.838728 55.701259 
L 242.81623 58.008197 
L 246.793733 60.544573 
L 250.771235 63.296201 
L 254.748737 66.243633 
L 258.72624 69.36347 
L 262.703742 72.629699 
L 266.681244 76.014834 
L 270.658747 79.490724 
L 274.636249 83.028975 
L 278.613751 86.600978 
L 282.591253 90.177615 
L 286.568756 93.728671 
L 290.546258 97.222045 
L 294.52376 100.6228 
L 298.501263 103.892118 
L 302.478765 106.986212 
L 306.456267 109.855274 
L 310.43377 112.442525 
L 314.411272 114.683446 
L 318.388774 116.505269 
L 322.366276 117.826745 
L 326.343779 118.558214 
L 330.321281 118.602066 
L 334.298783 117.854297 
L 338.276286 116.210061 
L 342.253788 113.583311 
L 346.23129 109.972689 
L 350.208792 105.664265 
L 354.186295 101.731738 
L 358.163797 100.537093 
L 362.141299 104.182291 
L 366.118802 111.609235 
L 370.096304 120.271423 
L 374.073806 128.715762 
L 378.051309 136.506394 
L 382.028811 143.617444 
L 386.006313 150.139887 
L 389.983815 156.18206 
L 393.961318 161.84109 
L 397.93882 167.19711 
L 401.916322 172.314224 
L 405.893825 177.243103 
L 409.871327 182.023628 
L 413.848829 186.687154 
L 417.826331 191.258341 
L 421.803834 195.756601 
L 425.781336 200.197228 
L 429.758838 204.592286 
L 433.736341 208.951297 
L 437.713843 213.281783 
L 441.691345 217.58969 
L 445.668848 221.879721 
L 449.64635 226.155596 
L 453.623852 230.420258 
L 457.601354 234.676039 
L 461.578857 238.924785 
L 465.556359 243.167957 
L 469.533861 247.406713 
L 473.511364 251.64197 
" style="fill:none;stroke:#000000;stroke-linecap:square;stroke-width:2;"/>
   </g>
   <g id="line2d_120">
    <path clip-path="url(#p2999c833d2)" d="M 79.738636 42.298626 
L 83.716139 42.299691 
L 87.693641 42.301036 
L 91.671143 42.302732 
L 95.648646 42.304872 
L 99.626148 42.307573 
L 103.60365 42.31098 
L 107.581152 42.315278 
L 111.558655 42.3207 
L 115.536157 42.32754 
L 119.513659 42.336166 
L 123.491162 42.347047 
L 127.468664 42.360766 
L 131.446166 42.378064 
L 135.423669 42.399867 
L 139.401171 42.427342 
L 143.378673 42.461953 
L 147.356175 42.505531 
L 151.333678 42.560371 
L 155.31118 42.629334 
L 159.288682 42.715982 
L 163.266185 42.824728 
L 167.243687 42.961022 
L 171.221189 43.131548 
L 175.198691 43.344453 
L 179.176194 43.609572 
L 183.153696 43.938649 
L 187.131198 44.345507 
L 191.108701 44.846142 
L 195.086203 45.458659 
L 199.063705 46.203003 
L 203.041208 47.100406 
L 207.01871 48.172512 
L 210.996212 49.440178 
L 214.973714 50.922026 
L 218.951217 52.632899 
L 222.928719 54.582447 
L 226.906221 56.774099 
L 230.883724 59.204618 
L 234.861226 61.86432 
L 238.838728 64.737909 
L 242.81623 67.805742 
L 246.793733 71.045267 
L 250.771235 74.432404 
L 254.748737 77.942676 
L 258.72624 81.55201 
L 262.703742 85.23716 
L 266.681244 88.975804 
L 270.658747 92.746361 
L 274.636249 96.527577 
L 278.613751 100.297947 
L 282.591253 104.035002 
L 286.568756 107.714482 
L 290.546258 111.309426 
L 294.52376 114.789188 
L 298.501263 118.1184 
L 302.478765 121.255909 
L 306.456267 124.153742 
L 310.43377 126.756131 
L 314.411272 128.998675 
L 318.388774 130.807634 
L 322.366276 132.099338 
L 326.343779 132.779571 
L 330.321281 132.742769 
L 334.298783 131.871222 
L 338.276286 130.036211 
L 342.253788 127.109763 
L 346.23129 123.019657 
L 350.208792 117.95897 
L 354.186295 113.030449 
L 358.163797 111.199735 
L 362.141299 115.373056 
L 366.118802 123.902893 
L 370.096304 133.439706 
L 374.073806 142.4315 
L 378.051309 150.553717 
L 382.028811 157.870982 
L 386.006313 164.526763 
L 389.983815 170.658438 
L 393.961318 176.379514 
L 397.93882 181.779706 
L 401.916322 186.928955 
L 405.893825 191.881622 
L 409.871327 196.680003 
L 413.848829 201.357083 
L 417.826331 205.93865 
L 421.803834 210.444914 
L 425.781336 214.89175 
L 429.758838 219.291644 
L 433.736341 223.654437 
L 437.713843 227.987887 
L 441.691345 232.298124 
L 445.668848 236.589988 
L 449.64635 240.867308 
L 453.623852 245.133111 
L 457.601354 249.389793 
L 461.578857 253.63925 
L 465.556359 257.882985 
L 469.533861 262.122187 
L 473.511364 266.357796 
" style="fill:none;stroke:#ff0000;stroke-linecap:square;stroke-width:2;"/>
   </g>
   <g id="line2d_121">
    <path clip-path="url(#p2999c833d2)" d="M 79.738636 42.303653 
L 83.716139 42.306035 
L 87.693641 42.309039 
L 91.671143 42.31283 
L 95.648646 42.317612 
L 99.626148 42.323644 
L 103.60365 42.331253 
L 107.581152 42.34085 
L 111.558655 42.352953 
L 115.536157 42.368213 
L 119.513659 42.387452 
L 123.491162 42.411698 
L 127.468664 42.442248 
L 131.446166 42.480724 
L 135.423669 42.529159 
L 139.401171 42.590092 
L 143.378673 42.66669 
L 147.356175 42.762885 
L 151.333678 42.883544 
L 155.31118 43.03466 
L 159.288682 43.223564 
L 163.266185 43.459155 
L 167.243687 43.752127 
L 171.221189 44.115174 
L 175.198691 44.563135 
L 179.176194 45.11302 
L 183.153696 45.78387 
L 187.131198 46.596369 
L 191.108701 47.57215 
L 195.086203 48.73278 
L 199.063705 50.098433 
L 203.041208 51.686385 
L 207.01871 53.509511 
L 210.996212 55.575023 
L 214.973714 57.883701 
L 218.951217 60.429769 
L 222.928719 63.20143 
L 226.906221 66.181951 
L 230.883724 69.351079 
L 234.861226 72.686525 
L 238.838728 76.165307 
L 242.81623 79.764812 
L 246.793733 83.463509 
L 250.771235 87.241333 
L 254.748737 91.079778 
L 258.72624 94.961759 
L 262.703742 98.871315 
L 266.681244 102.793181 
L 270.658747 106.712281 
L 274.636249 110.613145 
L 278.613751 114.479267 
L 282.591253 118.292396 
L 286.568756 122.031765 
L 290.546258 125.673244 
L 294.52376 129.188427 
L 298.501263 132.543653 
L 302.478765 135.698997 
L 306.456267 138.60725 
L 310.43377 141.212943 
L 314.411272 143.451448 
L 318.388774 145.248146 
L 322.366276 146.517585 
L 326.343779 147.162391 
L 330.321281 147.071586 
L 334.298783 146.118098 
L 338.276286 144.156573 
L 342.253788 141.028652 
L 346.23129 136.606861 
L 350.208792 130.999057 
L 354.186295 125.291351 
L 358.163797 122.941015 
L 362.141299 127.597207 
L 366.118802 137.011744 
L 370.096304 147.177659 
L 374.073806 156.534857 
L 378.051309 164.868325 
L 382.028811 172.313136 
L 386.006313 179.049773 
L 389.983815 185.234975 
L 393.961318 190.992783 
L 397.93882 196.41893 
L 401.916322 201.586951 
L 405.893825 206.553454 
L 409.871327 211.362185 
L 413.848829 216.047099 
L 417.826331 220.634652 
L 421.803834 225.145526 
L 425.781336 229.595932 
L 429.758838 233.998605 
L 433.736341 238.363567 
L 437.713843 242.698718 
L 441.691345 247.01029 
L 445.668848 251.303205 
L 449.64635 255.581353 
L 453.623852 259.847809 
L 457.601354 264.105007 
L 461.578857 268.354872 
L 465.556359 272.598929 
L 469.533861 276.838385 
L 473.511364 281.074196 
" style="fill:none;stroke:#0000ff;stroke-linecap:square;stroke-width:2;"/>
   </g>
   <g id="line2d_122">
    <path clip-path="url(#p2999c833d2)" d="M 79.738636 42.314911 
L 83.716139 42.320238 
L 87.693641 42.326957 
L 91.671143 42.335431 
L 95.648646 42.346119 
L 99.626148 42.359597 
L 103.60365 42.37659 
L 107.581152 42.39801 
L 111.558655 42.425003 
L 115.536157 42.459007 
L 119.513659 42.501824 
L 123.491162 42.55571 
L 127.468664 42.623478 
L 131.446166 42.708631 
L 135.423669 42.815515 
L 139.401171 42.949494 
L 143.378673 43.117155 
L 147.356175 43.326532 
L 151.333678 43.587329 
L 155.31118 43.911154 
L 159.288682 44.311689 
L 163.266185 44.804796 
L 167.243687 45.408476 
L 171.221189 46.14262 
L 175.198691 47.028489 
L 179.176194 48.087876 
L 183.153696 49.341942 
L 187.131198 50.809787 
L 191.108701 52.506924 
L 195.086203 54.443862 
L 199.063705 56.625046 
L 203.041208 59.048388 
L 207.01871 61.705454 
L 210.996212 64.582295 
L 214.973714 67.660724 
L 218.951217 70.919818 
L 222.928719 74.337383 
L 226.906221 77.891204 
L 230.883724 81.559997 
L 234.861226 85.324005 
L 238.838728 89.165299 
L 242.81623 93.067835 
L 246.793733 97.01732 
L 250.771235 101.000962 
L 254.748737 105.007136 
L 258.72624 109.025002 
L 262.703742 113.044087 
L 266.681244 117.053843 
L 270.658747 121.043165 
L 274.636249 124.999882 
L 278.613751 128.910189 
L 282.591253 132.758021 
L 286.568756 136.524354 
L 290.546258 140.186426 
L 294.52376 143.716874 
L 298.501263 147.082801 
L 302.478765 150.244786 
L 306.456267 153.155879 
L 310.43377 155.760609 
L 314.411272 157.99404 
L 318.388774 159.780854 
L 322.366276 161.034327 
L 326.343779 161.654929 
L 330.321281 161.528032 
L 334.298783 160.520251 
L 338.276286 158.47488 
L 342.253788 155.212305 
L 346.23129 150.564581 
L 350.208792 144.570786 
L 354.186295 138.282552 
L 358.163797 135.531125 
L 362.141299 140.588652 
L 366.118802 150.66939 
L 370.096304 161.271991 
L 374.073806 170.869904 
L 378.051309 179.338245 
L 382.028811 186.862902 
L 386.006313 193.649494 
L 389.983815 199.86746 
L 393.961318 205.647599 
L 397.93882 211.08944 
L 401.916322 216.268769 
L 405.893825 221.243578 
L 409.871327 226.058507 
L 413.848829 230.748104 
L 417.826331 235.33923 
L 421.803834 239.852852 
L 425.781336 244.305384 
L 429.758838 248.709709 
L 433.736341 253.075962 
L 437.713843 257.412124 
L 441.691345 261.724489 
L 445.668848 266.018028 
L 449.64635 270.296667 
L 453.623852 274.563511 
L 457.601354 278.821015 
L 461.578857 283.071122 
L 465.556359 287.315371 
L 469.533861 291.554978 
L 473.511364 295.790909 
" style="fill:none;stroke:#008000;stroke-linecap:square;stroke-width:2;"/>
   </g>
   <g id="patch_3">
    <path d="M 60.05 308.6 
L 60.05 26.8 
" style="fill:none;stroke:#000000;stroke-linecap:square;stroke-linejoin:miter;stroke-width:0.8;"/>
   </g>
   <g id="patch_4">
    <path d="M 493.2 308.6 
L 493.2 26.8 
" style="fill:none;stroke:#000000;stroke-linecap:square;stroke-linejoin:miter;stroke-width:0.8;"/>
   </g>
   <g id="patch_5">
    <path d="M 60.05 308.6 
L 493.2 308.6 
" style="fill:none;stroke:#000000;stroke-linecap:square;stroke-linejoin:miter;stroke-width:0.8;"/>
   </g>
   <g id="patch_6">
    <path d="M 60.05 26.8 
L 493.2 26.8 
" style="fill:none;stroke:#000000;stroke-linecap:square;stroke-linejoin:miter;stroke-width:0.8;"/>
   </g>
   <g id="text_15">
    <!-- Bandwidth limited amplifier -->
    <g transform="translate(193.569063 20.8)scale(0.12 -0.12)">
     <defs>
      <path d="M 4.203125 54.6875 
L 13.1875 54.6875 
L 24.421875 12.015625 
L 35.59375 54.6875 
L 46.1875 54.6875 
L 57.421875 12.015625 
L 68.609375 54.6875 
L 77.59375 54.6875 
L 63.28125 0 
L 52.6875 0 
L 40.921875 44.828125 
L 29.109375 0 
L 18.5 0 
z
" id="DejaVuSans-119"/>
      <path d="M 54.890625 33.015625 
L 54.890625 0 
L 45.90625 0 
L 45.90625 32.71875 
Q 45.90625 40.484375 42.875 44.328125 
Q 39.84375 48.1875 33.796875 48.1875 
Q 26.515625 48.1875 22.3125 43.546875 
Q 18.109375 38.921875 18.109375 30.90625 
L 18.109375 0 
L 9.078125 0 
L 9.078125 75.984375 
L 18.109375 75.984375 
L 18.109375 46.1875 
Q 21.34375 51.125 25.703125 53.5625 
Q 30.078125 56 35.796875 56 
Q 45.21875 56 50.046875 50.171875 
Q 54.890625 44.34375 54.890625 33.015625 
z
" id="DejaVuSans-104"/>
      <path d="M 9.421875 75.984375 
L 18.40625 75.984375 
L 18.40625 0 
L 9.421875 0 
z
" id="DejaVuSans-108"/>
      <path d="M 18.109375 8.203125 
L 18.109375 -20.796875 
L 9.078125 -20.796875 
L 9.078125 54.6875 
L 18.109375 54.6875 
L 18.109375 46.390625 
Q 20.953125 51.265625 25.265625 53.625 
Q 29.59375 56 35.59375 56 
Q 45.5625 56 51.78125 48.09375 
Q 58.015625 40.1875 58.015625 27.296875 
Q 58.015625 14.40625 51.78125 6.484375 
Q 45.5625 -1.421875 35.59375 -1.421875 
Q 29.59375 -1.421875 25.265625 0.953125 
Q 20.953125 3.328125 18.109375 8.203125 
z
M 48.6875 27.296875 
Q 48.6875 37.203125 44.609375 42.84375 
Q 40.53125 48.484375 33.40625 48.484375 
Q 26.265625 48.484375 22.1875 42.84375 
Q 18.109375 37.203125 18.109375 27.296875 
Q 18.109375 17.390625 22.1875 11.75 
Q 26.265625 6.109375 33.40625 6.109375 
Q 40.53125 6.109375 44.609375 11.75 
Q 48.6875 17.390625 48.6875 27.296875 
z
" id="DejaVuSans-112"/>
     </defs>
     <use xlink:href="#DejaVuSans-66"/>
     <use x="68.603516" xlink:href="#DejaVuSans-97"/>
     <use x="129.882812" xlink:href="#DejaVuSans-110"/>
     <use x="193.261719" xlink:href="#DejaVuSans-100"/>
     <use x="256.738281" xlink:href="#DejaVuSans-119"/>
     <use x="338.525391" xlink:href="#DejaVuSans-105"/>
     <use x="366.308594" xlink:href="#DejaVuSans-100"/>
     <use x="429.785156" xlink:href="#DejaVuSans-116"/>
     <use x="468.994141" xlink:href="#DejaVuSans-104"/>
     <use x="532.373047" xlink:href="#DejaVuSans-32"/>
     <use x="564.160156" xlink:href="#DejaVuSans-108"/>
     <use x="591.943359" xlink:href="#DejaVuSans-105"/>
     <use x="619.726562" xlink:href="#DejaVuSans-109"/>
     <use x="717.138672" xlink:href="#DejaVuSans-105"/>
     <use x="744.921875" xlink:href="#DejaVuSans-116"/>
     <use x="784.130859" xlink:href="#DejaVuSans-101"/>
     <use x="845.654297" xlink:href="#DejaVuSans-100"/>
     <use x="909.130859" xlink:href="#DejaVuSans-32"/>
     <use x="940.917969" xlink:href="#DejaVuSans-97"/>
     <use x="1002.197266" xlink:href="#DejaVuSans-109"/>
     <use x="1099.609375" xlink:href="#DejaVuSans-112"/>
     <use x="1163.085938" xlink:href="#DejaVuSans-108"/>
     <use x="1190.869141" xlink:href="#DejaVuSans-105"/>
     <use x="1218.652344" xlink:href="#DejaVuSans-102"/>
     <use x="1253.857422" xlink:href="#DejaVuSans-105"/>
     <use x="1281.640625" xlink:href="#DejaVuSans-101"/>
     <use x="1343.164062" xlink:href="#DejaVuSans-114"/>
    </g>
   </g>
   <g id="legend_1">
    <g id="patch_7">
     <path d="M 67.05 303.6 
L 215.7375 303.6 
Q 217.7375 303.6 217.7375 301.6 
L 217.7375 185.4625 
Q 217.7375 183.4625 215.7375 183.4625 
L 67.05 183.4625 
Q 65.05 183.4625 65.05 185.4625 
L 65.05 301.6 
Q 65.05 303.6 67.05 303.6 
z
" style="fill:#ffffff;opacity:0.8;stroke:#cccccc;stroke-linejoin:miter;"/>
    </g>
    <g id="line2d_123">
     <path d="M 67.05 191.080625 
L 77.05 191.080625 
" style="fill:none;stroke:#ff0000;stroke-linecap:square;stroke-width:2;"/>
    </g>
    <g id="line2d_124"/>
    <g id="text_16">
     <!-- gain, Rphz =  1.4e+01 -->
     <g transform="translate(79.05 194.580625)scale(0.12 -0.12)">
      <defs>
       <path d="M 11.71875 12.40625 
L 22.015625 12.40625 
L 22.015625 4 
L 14.015625 -11.625 
L 7.71875 -11.625 
L 11.71875 4 
z
" id="DejaVuSans-44"/>
       <path d="M 44.390625 34.1875 
Q 47.5625 33.109375 50.5625 29.59375 
Q 53.5625 26.078125 56.59375 19.921875 
L 66.609375 0 
L 56 0 
L 46.6875 18.703125 
Q 43.0625 26.03125 39.671875 28.421875 
Q 36.28125 30.8125 30.421875 30.8125 
L 19.671875 30.8125 
L 19.671875 0 
L 9.8125 0 
L 9.8125 72.90625 
L 32.078125 72.90625 
Q 44.578125 72.90625 50.734375 67.671875 
Q 56.890625 62.453125 56.890625 51.90625 
Q 56.890625 45.015625 53.6875 40.46875 
Q 50.484375 35.9375 44.390625 34.1875 
z
M 19.671875 64.796875 
L 19.671875 38.921875 
L 32.078125 38.921875 
Q 39.203125 38.921875 42.84375 42.21875 
Q 46.484375 45.515625 46.484375 51.90625 
Q 46.484375 58.296875 42.84375 61.546875 
Q 39.203125 64.796875 32.078125 64.796875 
z
" id="DejaVuSans-82"/>
       <path d="M 10.59375 45.40625 
L 73.1875 45.40625 
L 73.1875 37.203125 
L 10.59375 37.203125 
z
M 10.59375 25.484375 
L 73.1875 25.484375 
L 73.1875 17.1875 
L 10.59375 17.1875 
z
" id="DejaVuSans-61"/>
       <path d="M 10.6875 12.40625 
L 21 12.40625 
L 21 0 
L 10.6875 0 
z
" id="DejaVuSans-46"/>
       <path d="M 46 62.703125 
L 46 35.5 
L 73.1875 35.5 
L 73.1875 27.203125 
L 46 27.203125 
L 46 0 
L 37.796875 0 
L 37.796875 27.203125 
L 10.59375 27.203125 
L 10.59375 35.5 
L 37.796875 35.5 
L 37.796875 62.703125 
z
" id="DejaVuSans-43"/>
      </defs>
      <use xlink:href="#DejaVuSans-103"/>
      <use x="63.476562" xlink:href="#DejaVuSans-97"/>
      <use x="124.755859" xlink:href="#DejaVuSans-105"/>
      <use x="152.539062" xlink:href="#DejaVuSans-110"/>
      <use x="215.917969" xlink:href="#DejaVuSans-44"/>
      <use x="247.705078" xlink:href="#DejaVuSans-32"/>
      <use x="279.492188" xlink:href="#DejaVuSans-82"/>
      <use x="348.974609" xlink:href="#DejaVuSans-112"/>
      <use x="412.451172" xlink:href="#DejaVuSans-104"/>
      <use x="475.830078" xlink:href="#DejaVuSans-122"/>
      <use x="528.320312" xlink:href="#DejaVuSans-32"/>
      <use x="560.107422" xlink:href="#DejaVuSans-61"/>
      <use x="643.896484" xlink:href="#DejaVuSans-32"/>
      <use x="675.683594" xlink:href="#DejaVuSans-32"/>
      <use x="707.470703" xlink:href="#DejaVuSans-49"/>
      <use x="771.09375" xlink:href="#DejaVuSans-46"/>
      <use x="802.880859" xlink:href="#DejaVuSans-52"/>
      <use x="866.503906" xlink:href="#DejaVuSans-101"/>
      <use x="928.027344" xlink:href="#DejaVuSans-43"/>
      <use x="1011.816406" xlink:href="#DejaVuSans-48"/>
      <use x="1075.439453" xlink:href="#DejaVuSans-49"/>
     </g>
    </g>
    <g id="line2d_125">
     <path d="M 67.05 202.694375 
L 77.05 202.694375 
" style="fill:none;stroke:#0000ff;stroke-linecap:square;stroke-width:2;"/>
    </g>
    <g id="line2d_126"/>
    <g id="text_17">
     <!-- gain, Rphz =  2.1e+01 -->
     <g transform="translate(79.05 206.194375)scale(0.12 -0.12)">
      <use xlink:href="#DejaVuSans-103"/>
      <use x="63.476562" xlink:href="#DejaVuSans-97"/>
      <use x="124.755859" xlink:href="#DejaVuSans-105"/>
      <use x="152.539062" xlink:href="#DejaVuSans-110"/>
      <use x="215.917969" xlink:href="#DejaVuSans-44"/>
      <use x="247.705078" xlink:href="#DejaVuSans-32"/>
      <use x="279.492188" xlink:href="#DejaVuSans-82"/>
      <use x="348.974609" xlink:href="#DejaVuSans-112"/>
      <use x="412.451172" xlink:href="#DejaVuSans-104"/>
      <use x="475.830078" xlink:href="#DejaVuSans-122"/>
      <use x="528.320312" xlink:href="#DejaVuSans-32"/>
      <use x="560.107422" xlink:href="#DejaVuSans-61"/>
      <use x="643.896484" xlink:href="#DejaVuSans-32"/>
      <use x="675.683594" xlink:href="#DejaVuSans-32"/>
      <use x="707.470703" xlink:href="#DejaVuSans-50"/>
      <use x="771.09375" xlink:href="#DejaVuSans-46"/>
      <use x="802.880859" xlink:href="#DejaVuSans-49"/>
      <use x="866.503906" xlink:href="#DejaVuSans-101"/>
      <use x="928.027344" xlink:href="#DejaVuSans-43"/>
      <use x="1011.816406" xlink:href="#DejaVuSans-48"/>
      <use x="1075.439453" xlink:href="#DejaVuSans-49"/>
     </g>
    </g>
    <g id="line2d_127">
     <path d="M 67.05 214.308125 
L 77.05 214.308125 
" style="fill:none;stroke:#008000;stroke-linecap:square;stroke-width:2;"/>
    </g>
    <g id="line2d_128"/>
    <g id="text_18">
     <!-- gain, Rphz =  3.1e+01 -->
     <g transform="translate(79.05 217.808125)scale(0.12 -0.12)">
      <use xlink:href="#DejaVuSans-103"/>
      <use x="63.476562" xlink:href="#DejaVuSans-97"/>
      <use x="124.755859" xlink:href="#DejaVuSans-105"/>
      <use x="152.539062" xlink:href="#DejaVuSans-110"/>
      <use x="215.917969" xlink:href="#DejaVuSans-44"/>
      <use x="247.705078" xlink:href="#DejaVuSans-32"/>
      <use x="279.492188" xlink:href="#DejaVuSans-82"/>
      <use x="348.974609" xlink:href="#DejaVuSans-112"/>
      <use x="412.451172" xlink:href="#DejaVuSans-104"/>
      <use x="475.830078" xlink:href="#DejaVuSans-122"/>
      <use x="528.320312" xlink:href="#DejaVuSans-32"/>
      <use x="560.107422" xlink:href="#DejaVuSans-61"/>
      <use x="643.896484" xlink:href="#DejaVuSans-32"/>
      <use x="675.683594" xlink:href="#DejaVuSans-32"/>
      <use x="707.470703" xlink:href="#DejaVuSans-51"/>
      <use x="771.09375" xlink:href="#DejaVuSans-46"/>
      <use x="802.880859" xlink:href="#DejaVuSans-49"/>
      <use x="866.503906" xlink:href="#DejaVuSans-101"/>
      <use x="928.027344" xlink:href="#DejaVuSans-43"/>
      <use x="1011.816406" xlink:href="#DejaVuSans-48"/>
      <use x="1075.439453" xlink:href="#DejaVuSans-49"/>
     </g>
    </g>
    <g id="line2d_129">
     <path d="M 67.05 225.921875 
L 77.05 225.921875 
" style="fill:none;stroke:#00bfbf;stroke-linecap:square;stroke-width:2;"/>
    </g>
    <g id="line2d_130"/>
    <g id="text_19">
     <!-- gain, Rphz =  4.7e+01 -->
     <g transform="translate(79.05 229.421875)scale(0.12 -0.12)">
      <defs>
       <path d="M 8.203125 72.90625 
L 55.078125 72.90625 
L 55.078125 68.703125 
L 28.609375 0 
L 18.3125 0 
L 43.21875 64.59375 
L 8.203125 64.59375 
z
" id="DejaVuSans-55"/>
      </defs>
      <use xlink:href="#DejaVuSans-103"/>
      <use x="63.476562" xlink:href="#DejaVuSans-97"/>
      <use x="124.755859" xlink:href="#DejaVuSans-105"/>
      <use x="152.539062" xlink:href="#DejaVuSans-110"/>
      <use x="215.917969" xlink:href="#DejaVuSans-44"/>
      <use x="247.705078" xlink:href="#DejaVuSans-32"/>
      <use x="279.492188" xlink:href="#DejaVuSans-82"/>
      <use x="348.974609" xlink:href="#DejaVuSans-112"/>
      <use x="412.451172" xlink:href="#DejaVuSans-104"/>
      <use x="475.830078" xlink:href="#DejaVuSans-122"/>
      <use x="528.320312" xlink:href="#DejaVuSans-32"/>
      <use x="560.107422" xlink:href="#DejaVuSans-61"/>
      <use x="643.896484" xlink:href="#DejaVuSans-32"/>
      <use x="675.683594" xlink:href="#DejaVuSans-32"/>
      <use x="707.470703" xlink:href="#DejaVuSans-52"/>
      <use x="771.09375" xlink:href="#DejaVuSans-46"/>
      <use x="802.880859" xlink:href="#DejaVuSans-55"/>
      <use x="866.503906" xlink:href="#DejaVuSans-101"/>
      <use x="928.027344" xlink:href="#DejaVuSans-43"/>
      <use x="1011.816406" xlink:href="#DejaVuSans-48"/>
      <use x="1075.439453" xlink:href="#DejaVuSans-49"/>
     </g>
    </g>
    <g id="line2d_131">
     <path d="M 67.05 237.535625 
L 77.05 237.535625 
" style="fill:none;stroke:#bf00bf;stroke-linecap:square;stroke-width:2;"/>
    </g>
    <g id="line2d_132"/>
    <g id="text_20">
     <!-- gain, Rphz =  7.0e+01 -->
     <g transform="translate(79.05 241.035625)scale(0.12 -0.12)">
      <use xlink:href="#DejaVuSans-103"/>
      <use x="63.476562" xlink:href="#DejaVuSans-97"/>
      <use x="124.755859" xlink:href="#DejaVuSans-105"/>
      <use x="152.539062" xlink:href="#DejaVuSans-110"/>
      <use x="215.917969" xlink:href="#DejaVuSans-44"/>
      <use x="247.705078" xlink:href="#DejaVuSans-32"/>
      <use x="279.492188" xlink:href="#DejaVuSans-82"/>
      <use x="348.974609" xlink:href="#DejaVuSans-112"/>
      <use x="412.451172" xlink:href="#DejaVuSans-104"/>
      <use x="475.830078" xlink:href="#DejaVuSans-122"/>
      <use x="528.320312" xlink:href="#DejaVuSans-32"/>
      <use x="560.107422" xlink:href="#DejaVuSans-61"/>
      <use x="643.896484" xlink:href="#DejaVuSans-32"/>
      <use x="675.683594" xlink:href="#DejaVuSans-32"/>
      <use x="707.470703" xlink:href="#DejaVuSans-55"/>
      <use x="771.09375" xlink:href="#DejaVuSans-46"/>
      <use x="802.880859" xlink:href="#DejaVuSans-48"/>
      <use x="866.503906" xlink:href="#DejaVuSans-101"/>
      <use x="928.027344" xlink:href="#DejaVuSans-43"/>
      <use x="1011.816406" xlink:href="#DejaVuSans-48"/>
      <use x="1075.439453" xlink:href="#DejaVuSans-49"/>
     </g>
    </g>
    <g id="line2d_133">
     <path d="M 67.05 249.149375 
L 77.05 249.149375 
" style="fill:none;stroke:#bfbf00;stroke-linecap:square;stroke-width:2;"/>
    </g>
    <g id="line2d_134"/>
    <g id="text_21">
     <!-- gain, Rphz =  1.0e+02 -->
     <g transform="translate(79.05 252.649375)scale(0.12 -0.12)">
      <use xlink:href="#DejaVuSans-103"/>
      <use x="63.476562" xlink:href="#DejaVuSans-97"/>
      <use x="124.755859" xlink:href="#DejaVuSans-105"/>
      <use x="152.539062" xlink:href="#DejaVuSans-110"/>
      <use x="215.917969" xlink:href="#DejaVuSans-44"/>
      <use x="247.705078" xlink:href="#DejaVuSans-32"/>
      <use x="279.492188" xlink:href="#DejaVuSans-82"/>
      <use x="348.974609" xlink:href="#DejaVuSans-112"/>
      <use x="412.451172" xlink:href="#DejaVuSans-104"/>
      <use x="475.830078" xlink:href="#DejaVuSans-122"/>
      <use x="528.320312" xlink:href="#DejaVuSans-32"/>
      <use x="560.107422" xlink:href="#DejaVuSans-61"/>
      <use x="643.896484" xlink:href="#DejaVuSans-32"/>
      <use x="675.683594" xlink:href="#DejaVuSans-32"/>
      <use x="707.470703" xlink:href="#DejaVuSans-49"/>
      <use x="771.09375" xlink:href="#DejaVuSans-46"/>
      <use x="802.880859" xlink:href="#DejaVuSans-48"/>
      <use x="866.503906" xlink:href="#DejaVuSans-101"/>
      <use x="928.027344" xlink:href="#DejaVuSans-43"/>
      <use x="1011.816406" xlink:href="#DejaVuSans-48"/>
      <use x="1075.439453" xlink:href="#DejaVuSans-50"/>
     </g>
    </g>
    <g id="line2d_135">
     <path d="M 67.05 260.763125 
L 77.05 260.763125 
" style="fill:none;stroke:#000000;stroke-linecap:square;stroke-width:2;"/>
    </g>
    <g id="line2d_136"/>
    <g id="text_22">
     <!-- gain, Rphz =  1.6e+02 -->
     <g transform="translate(79.05 264.263125)scale(0.12 -0.12)">
      <use xlink:href="#DejaVuSans-103"/>
      <use x="63.476562" xlink:href="#DejaVuSans-97"/>
      <use x="124.755859" xlink:href="#DejaVuSans-105"/>
      <use x="152.539062" xlink:href="#DejaVuSans-110"/>
      <use x="215.917969" xlink:href="#DejaVuSans-44"/>
      <use x="247.705078" xlink:href="#DejaVuSans-32"/>
      <use x="279.492188" xlink:href="#DejaVuSans-82"/>
      <use x="348.974609" xlink:href="#DejaVuSans-112"/>
      <use x="412.451172" xlink:href="#DejaVuSans-104"/>
      <use x="475.830078" xlink:href="#DejaVuSans-122"/>
      <use x="528.320312" xlink:href="#DejaVuSans-32"/>
      <use x="560.107422" xlink:href="#DejaVuSans-61"/>
      <use x="643.896484" xlink:href="#DejaVuSans-32"/>
      <use x="675.683594" xlink:href="#DejaVuSans-32"/>
      <use x="707.470703" xlink:href="#DejaVuSans-49"/>
      <use x="771.09375" xlink:href="#DejaVuSans-46"/>
      <use x="802.880859" xlink:href="#DejaVuSans-54"/>
      <use x="866.503906" xlink:href="#DejaVuSans-101"/>
      <use x="928.027344" xlink:href="#DejaVuSans-43"/>
      <use x="1011.816406" xlink:href="#DejaVuSans-48"/>
      <use x="1075.439453" xlink:href="#DejaVuSans-50"/>
     </g>
    </g>
    <g id="line2d_137">
     <path d="M 67.05 272.376875 
L 77.05 272.376875 
" style="fill:none;stroke:#ff0000;stroke-linecap:square;stroke-width:2;"/>
    </g>
    <g id="line2d_138"/>
    <g id="text_23">
     <!-- gain, Rphz =  2.4e+02 -->
     <g transform="translate(79.05 275.876875)scale(0.12 -0.12)">
      <use xlink:href="#DejaVuSans-103"/>
      <use x="63.476562" xlink:href="#DejaVuSans-97"/>
      <use x="124.755859" xlink:href="#DejaVuSans-105"/>
      <use x="152.539062" xlink:href="#DejaVuSans-110"/>
      <use x="215.917969" xlink:href="#DejaVuSans-44"/>
      <use x="247.705078" xlink:href="#DejaVuSans-32"/>
      <use x="279.492188" xlink:href="#DejaVuSans-82"/>
      <use x="348.974609" xlink:href="#DejaVuSans-112"/>
      <use x="412.451172" xlink:href="#DejaVuSans-104"/>
      <use x="475.830078" xlink:href="#DejaVuSans-122"/>
      <use x="528.320312" xlink:href="#DejaVuSans-32"/>
      <use x="560.107422" xlink:href="#DejaVuSans-61"/>
      <use x="643.896484" xlink:href="#DejaVuSans-32"/>
      <use x="675.683594" xlink:href="#DejaVuSans-32"/>
      <use x="707.470703" xlink:href="#DejaVuSans-50"/>
      <use x="771.09375" xlink:href="#DejaVuSans-46"/>
      <use x="802.880859" xlink:href="#DejaVuSans-52"/>
      <use x="866.503906" xlink:href="#DejaVuSans-101"/>
      <use x="928.027344" xlink:href="#DejaVuSans-43"/>
      <use x="1011.816406" xlink:href="#DejaVuSans-48"/>
      <use x="1075.439453" xlink:href="#DejaVuSans-50"/>
     </g>
    </g>
    <g id="line2d_139">
     <path d="M 67.05 283.990625 
L 77.05 283.990625 
" style="fill:none;stroke:#0000ff;stroke-linecap:square;stroke-width:2;"/>
    </g>
    <g id="line2d_140"/>
    <g id="text_24">
     <!-- gain, Rphz =  3.5e+02 -->
     <g transform="translate(79.05 287.490625)scale(0.12 -0.12)">
      <use xlink:href="#DejaVuSans-103"/>
      <use x="63.476562" xlink:href="#DejaVuSans-97"/>
      <use x="124.755859" xlink:href="#DejaVuSans-105"/>
      <use x="152.539062" xlink:href="#DejaVuSans-110"/>
      <use x="215.917969" xlink:href="#DejaVuSans-44"/>
      <use x="247.705078" xlink:href="#DejaVuSans-32"/>
      <use x="279.492188" xlink:href="#DejaVuSans-82"/>
      <use x="348.974609" xlink:href="#DejaVuSans-112"/>
      <use x="412.451172" xlink:href="#DejaVuSans-104"/>
      <use x="475.830078" xlink:href="#DejaVuSans-122"/>
      <use x="528.320312" xlink:href="#DejaVuSans-32"/>
      <use x="560.107422" xlink:href="#DejaVuSans-61"/>
      <use x="643.896484" xlink:href="#DejaVuSans-32"/>
      <use x="675.683594" xlink:href="#DejaVuSans-32"/>
      <use x="707.470703" xlink:href="#DejaVuSans-51"/>
      <use x="771.09375" xlink:href="#DejaVuSans-46"/>
      <use x="802.880859" xlink:href="#DejaVuSans-53"/>
      <use x="866.503906" xlink:href="#DejaVuSans-101"/>
      <use x="928.027344" xlink:href="#DejaVuSans-43"/>
      <use x="1011.816406" xlink:href="#DejaVuSans-48"/>
      <use x="1075.439453" xlink:href="#DejaVuSans-50"/>
     </g>
    </g>
    <g id="line2d_141">
     <path d="M 67.05 295.604375 
L 77.05 295.604375 
" style="fill:none;stroke:#008000;stroke-linecap:square;stroke-width:2;"/>
    </g>
    <g id="line2d_142"/>
    <g id="text_25">
     <!-- gain, Rphz =  5.3e+02 -->
     <g transform="translate(79.05 299.104375)scale(0.12 -0.12)">
      <use xlink:href="#DejaVuSans-103"/>
      <use x="63.476562" xlink:href="#DejaVuSans-97"/>
      <use x="124.755859" xlink:href="#DejaVuSans-105"/>
      <use x="152.539062" xlink:href="#DejaVuSans-110"/>
      <use x="215.917969" xlink:href="#DejaVuSans-44"/>
      <use x="247.705078" xlink:href="#DejaVuSans-32"/>
      <use x="279.492188" xlink:href="#DejaVuSans-82"/>
      <use x="348.974609" xlink:href="#DejaVuSans-112"/>
      <use x="412.451172" xlink:href="#DejaVuSans-104"/>
      <use x="475.830078" xlink:href="#DejaVuSans-122"/>
      <use x="528.320312" xlink:href="#DejaVuSans-32"/>
      <use x="560.107422" xlink:href="#DejaVuSans-61"/>
      <use x="643.896484" xlink:href="#DejaVuSans-32"/>
      <use x="675.683594" xlink:href="#DejaVuSans-32"/>
      <use x="707.470703" xlink:href="#DejaVuSans-53"/>
      <use x="771.09375" xlink:href="#DejaVuSans-46"/>
      <use x="802.880859" xlink:href="#DejaVuSans-51"/>
      <use x="866.503906" xlink:href="#DejaVuSans-101"/>
      <use x="928.027344" xlink:href="#DejaVuSans-43"/>
      <use x="1011.816406" xlink:href="#DejaVuSans-48"/>
      <use x="1075.439453" xlink:href="#DejaVuSans-50"/>
     </g>
    </g>
   </g>
  </g>
 </g>
 <defs>
  <clipPath id="p2999c833d2">
   <rect height="281.8" width="433.15" x="60.05" y="26.8"/>
  </clipPath>
 </defs>
</svg>
