<?xml version="1.0" encoding="utf-8" standalone="no"?>
<!DOCTYPE svg PUBLIC "-//W3C//DTD SVG 1.1//EN"
  "http://www.w3.org/Graphics/SVG/1.1/DTD/svg11.dtd">
<!-- Created with matplotlib (https://matplotlib.org/) -->
<svg height="360pt" version="1.1" viewBox="0 0 504 360" width="504pt" xmlns="http://www.w3.org/2000/svg" xmlns:xlink="http://www.w3.org/1999/xlink">
 <metadata>
  <rdf:RDF xmlns:cc="http://creativecommons.org/ns#" xmlns:dc="http://purl.org/dc/elements/1.1/" xmlns:rdf="http://www.w3.org/1999/02/22-rdf-syntax-ns#">
   <cc:Work>
    <dc:type rdf:resource="http://purl.org/dc/dcmitype/StillImage"/>
    <dc:date>2022-01-07T17:08:38.025649</dc:date>
    <dc:format>image/svg+xml</dc:format>
    <dc:creator>
     <cc:Agent>
      <dc:title>Matplotlib v3.3.4, https://matplotlib.org/</dc:title>
     </cc:Agent>
    </dc:creator>
   </cc:Work>
  </rdf:RDF>
 </metadata>
 <defs>
  <style type="text/css">*{stroke-linecap:butt;stroke-linejoin:round;}</style>
 </defs>
 <g id="figure_1">
  <g id="patch_1">
   <path d="M 0 360 
L 504 360 
L 504 0 
L 0 0 
z
" style="fill:#ffffff;"/>
  </g>
  <g id="axes_1">
   <g id="patch_2">
    <path d="M 60.05 308.6 
L 493.2 308.6 
L 493.2 26.8 
L 60.05 26.8 
z
" style="fill:#ffffff;"/>
   </g>
   <g id="matplotlib.axis_1">
    <g id="xtick_1">
     <g id="line2d_1">
      <path clip-path="url(#pdefa8d67ea)" d="M 79.738636 308.6 
L 79.738636 26.8 
" style="fill:none;stroke:#808080;stroke-linecap:square;stroke-width:0.8;"/>
     </g>
     <g id="line2d_2">
      <defs>
       <path d="M 0 0 
L 0 3.5 
" id="m2669bab73c" style="stroke:#000000;stroke-width:0.8;"/>
      </defs>
      <g>
       <use style="stroke:#000000;stroke-width:0.8;" x="79.738636" xlink:href="#m2669bab73c" y="308.6"/>
      </g>
     </g>
     <g id="text_1">
      <!-- $\mathdefault{10^{0}}$ -->
      <g transform="translate(69.178636 324.718125)scale(0.12 -0.12)">
       <defs>
        <path d="M 12.40625 8.296875 
L 28.515625 8.296875 
L 28.515625 63.921875 
L 10.984375 60.40625 
L 10.984375 69.390625 
L 28.421875 72.90625 
L 38.28125 72.90625 
L 38.28125 8.296875 
L 54.390625 8.296875 
L 54.390625 0 
L 12.40625 0 
z
" id="DejaVuSans-49"/>
        <path d="M 31.78125 66.40625 
Q 24.171875 66.40625 20.328125 58.90625 
Q 16.5 51.421875 16.5 36.375 
Q 16.5 21.390625 20.328125 13.890625 
Q 24.171875 6.390625 31.78125 6.390625 
Q 39.453125 6.390625 43.28125 13.890625 
Q 47.125 21.390625 47.125 36.375 
Q 47.125 51.421875 43.28125 58.90625 
Q 39.453125 66.40625 31.78125 66.40625 
z
M 31.78125 74.21875 
Q 44.046875 74.21875 50.515625 64.515625 
Q 56.984375 54.828125 56.984375 36.375 
Q 56.984375 17.96875 50.515625 8.265625 
Q 44.046875 -1.421875 31.78125 -1.421875 
Q 19.53125 -1.421875 13.0625 8.265625 
Q 6.59375 17.96875 6.59375 36.375 
Q 6.59375 54.828125 13.0625 64.515625 
Q 19.53125 74.21875 31.78125 74.21875 
z
" id="DejaVuSans-48"/>
       </defs>
       <use transform="translate(0 0.765625)" xlink:href="#DejaVuSans-49"/>
       <use transform="translate(63.623047 0.765625)" xlink:href="#DejaVuSans-48"/>
       <use transform="translate(128.203125 39.046875)scale(0.7)" xlink:href="#DejaVuSans-48"/>
      </g>
     </g>
    </g>
    <g id="xtick_2">
     <g id="line2d_3">
      <path clip-path="url(#pdefa8d67ea)" d="M 311.510078 308.6 
L 311.510078 26.8 
" style="fill:none;stroke:#808080;stroke-linecap:square;stroke-width:0.8;"/>
     </g>
     <g id="line2d_4">
      <g>
       <use style="stroke:#000000;stroke-width:0.8;" x="311.510078" xlink:href="#m2669bab73c" y="308.6"/>
      </g>
     </g>
     <g id="text_2">
      <!-- $\mathdefault{10^{1}}$ -->
      <g transform="translate(300.950078 324.718125)scale(0.12 -0.12)">
       <use transform="translate(0 0.684375)" xlink:href="#DejaVuSans-49"/>
       <use transform="translate(63.623047 0.684375)" xlink:href="#DejaVuSans-48"/>
       <use transform="translate(128.203125 38.965625)scale(0.7)" xlink:href="#DejaVuSans-49"/>
      </g>
     </g>
    </g>
    <g id="xtick_3">
     <g id="line2d_5">
      <path clip-path="url(#pdefa8d67ea)" d="M 69.133357 308.6 
L 69.133357 26.8 
" style="fill:none;stroke:#808080;stroke-dasharray:0.8,1.32;stroke-dashoffset:0;stroke-width:0.8;"/>
     </g>
     <g id="line2d_6">
      <defs>
       <path d="M 0 0 
L 0 2 
" id="m464ba775e9" style="stroke:#000000;stroke-width:0.6;"/>
      </defs>
      <g>
       <use style="stroke:#000000;stroke-width:0.6;" x="69.133357" xlink:href="#m464ba775e9" y="308.6"/>
      </g>
     </g>
    </g>
    <g id="xtick_4">
     <g id="line2d_7">
      <path clip-path="url(#pdefa8d67ea)" d="M 149.508792 308.6 
L 149.508792 26.8 
" style="fill:none;stroke:#808080;stroke-dasharray:0.8,1.32;stroke-dashoffset:0;stroke-width:0.8;"/>
     </g>
     <g id="line2d_8">
      <g>
       <use style="stroke:#000000;stroke-width:0.6;" x="149.508792" xlink:href="#m464ba775e9" y="308.6"/>
      </g>
     </g>
    </g>
    <g id="xtick_5">
     <g id="line2d_9">
      <path clip-path="url(#pdefa8d67ea)" d="M 190.321717 308.6 
L 190.321717 26.8 
" style="fill:none;stroke:#808080;stroke-dasharray:0.8,1.32;stroke-dashoffset:0;stroke-width:0.8;"/>
     </g>
     <g id="line2d_10">
      <g>
       <use style="stroke:#000000;stroke-width:0.6;" x="190.321717" xlink:href="#m464ba775e9" y="308.6"/>
      </g>
     </g>
    </g>
    <g id="xtick_6">
     <g id="line2d_11">
      <path clip-path="url(#pdefa8d67ea)" d="M 219.278949 308.6 
L 219.278949 26.8 
" style="fill:none;stroke:#808080;stroke-dasharray:0.8,1.32;stroke-dashoffset:0;stroke-width:0.8;"/>
     </g>
     <g id="line2d_12">
      <g>
       <use style="stroke:#000000;stroke-width:0.6;" x="219.278949" xlink:href="#m464ba775e9" y="308.6"/>
      </g>
     </g>
    </g>
    <g id="xtick_7">
     <g id="line2d_13">
      <path clip-path="url(#pdefa8d67ea)" d="M 241.739922 308.6 
L 241.739922 26.8 
" style="fill:none;stroke:#808080;stroke-dasharray:0.8,1.32;stroke-dashoffset:0;stroke-width:0.8;"/>
     </g>
     <g id="line2d_14">
      <g>
       <use style="stroke:#000000;stroke-width:0.6;" x="241.739922" xlink:href="#m464ba775e9" y="308.6"/>
      </g>
     </g>
    </g>
    <g id="xtick_8">
     <g id="line2d_15">
      <path clip-path="url(#pdefa8d67ea)" d="M 260.091874 308.6 
L 260.091874 26.8 
" style="fill:none;stroke:#808080;stroke-dasharray:0.8,1.32;stroke-dashoffset:0;stroke-width:0.8;"/>
     </g>
     <g id="line2d_16">
      <g>
       <use style="stroke:#000000;stroke-width:0.6;" x="260.091874" xlink:href="#m464ba775e9" y="308.6"/>
      </g>
     </g>
    </g>
    <g id="xtick_9">
     <g id="line2d_17">
      <path clip-path="url(#pdefa8d67ea)" d="M 275.608227 308.6 
L 275.608227 26.8 
" style="fill:none;stroke:#808080;stroke-dasharray:0.8,1.32;stroke-dashoffset:0;stroke-width:0.8;"/>
     </g>
     <g id="line2d_18">
      <g>
       <use style="stroke:#000000;stroke-width:0.6;" x="275.608227" xlink:href="#m464ba775e9" y="308.6"/>
      </g>
     </g>
    </g>
    <g id="xtick_10">
     <g id="line2d_19">
      <path clip-path="url(#pdefa8d67ea)" d="M 289.049105 308.6 
L 289.049105 26.8 
" style="fill:none;stroke:#808080;stroke-dasharray:0.8,1.32;stroke-dashoffset:0;stroke-width:0.8;"/>
     </g>
     <g id="line2d_20">
      <g>
       <use style="stroke:#000000;stroke-width:0.6;" x="289.049105" xlink:href="#m464ba775e9" y="308.6"/>
      </g>
     </g>
    </g>
    <g id="xtick_11">
     <g id="line2d_21">
      <path clip-path="url(#pdefa8d67ea)" d="M 300.904798 308.6 
L 300.904798 26.8 
" style="fill:none;stroke:#808080;stroke-dasharray:0.8,1.32;stroke-dashoffset:0;stroke-width:0.8;"/>
     </g>
     <g id="line2d_22">
      <g>
       <use style="stroke:#000000;stroke-width:0.6;" x="300.904798" xlink:href="#m464ba775e9" y="308.6"/>
      </g>
     </g>
    </g>
    <g id="xtick_12">
     <g id="line2d_23">
      <path clip-path="url(#pdefa8d67ea)" d="M 381.280234 308.6 
L 381.280234 26.8 
" style="fill:none;stroke:#808080;stroke-dasharray:0.8,1.32;stroke-dashoffset:0;stroke-width:0.8;"/>
     </g>
     <g id="line2d_24">
      <g>
       <use style="stroke:#000000;stroke-width:0.6;" x="381.280234" xlink:href="#m464ba775e9" y="308.6"/>
      </g>
     </g>
    </g>
    <g id="xtick_13">
     <g id="line2d_25">
      <path clip-path="url(#pdefa8d67ea)" d="M 422.093159 308.6 
L 422.093159 26.8 
" style="fill:none;stroke:#808080;stroke-dasharray:0.8,1.32;stroke-dashoffset:0;stroke-width:0.8;"/>
     </g>
     <g id="line2d_26">
      <g>
       <use style="stroke:#000000;stroke-width:0.6;" x="422.093159" xlink:href="#m464ba775e9" y="308.6"/>
      </g>
     </g>
    </g>
    <g id="xtick_14">
     <g id="line2d_27">
      <path clip-path="url(#pdefa8d67ea)" d="M 451.05039 308.6 
L 451.05039 26.8 
" style="fill:none;stroke:#808080;stroke-dasharray:0.8,1.32;stroke-dashoffset:0;stroke-width:0.8;"/>
     </g>
     <g id="line2d_28">
      <g>
       <use style="stroke:#000000;stroke-width:0.6;" x="451.05039" xlink:href="#m464ba775e9" y="308.6"/>
      </g>
     </g>
    </g>
    <g id="xtick_15">
     <g id="line2d_29">
      <path clip-path="url(#pdefa8d67ea)" d="M 473.511364 308.6 
L 473.511364 26.8 
" style="fill:none;stroke:#808080;stroke-dasharray:0.8,1.32;stroke-dashoffset:0;stroke-width:0.8;"/>
     </g>
     <g id="line2d_30">
      <g>
       <use style="stroke:#000000;stroke-width:0.6;" x="473.511364" xlink:href="#m464ba775e9" y="308.6"/>
      </g>
     </g>
    </g>
    <g id="xtick_16">
     <g id="line2d_31">
      <path clip-path="url(#pdefa8d67ea)" d="M 491.863315 308.6 
L 491.863315 26.8 
" style="fill:none;stroke:#808080;stroke-dasharray:0.8,1.32;stroke-dashoffset:0;stroke-width:0.8;"/>
     </g>
     <g id="line2d_32">
      <g>
       <use style="stroke:#000000;stroke-width:0.6;" x="491.863315" xlink:href="#m464ba775e9" y="308.6"/>
      </g>
     </g>
    </g>
    <g id="text_3">
     <!-- frequency [MHz] -->
     <g transform="translate(227.10625 340.331875)scale(0.12 -0.12)">
      <defs>
       <path d="M 37.109375 75.984375 
L 37.109375 68.5 
L 28.515625 68.5 
Q 23.6875 68.5 21.796875 66.546875 
Q 19.921875 64.59375 19.921875 59.515625 
L 19.921875 54.6875 
L 34.71875 54.6875 
L 34.71875 47.703125 
L 19.921875 47.703125 
L 19.921875 0 
L 10.890625 0 
L 10.890625 47.703125 
L 2.296875 47.703125 
L 2.296875 54.6875 
L 10.890625 54.6875 
L 10.890625 58.5 
Q 10.890625 67.625 15.140625 71.796875 
Q 19.390625 75.984375 28.609375 75.984375 
z
" id="DejaVuSans-102"/>
       <path d="M 41.109375 46.296875 
Q 39.59375 47.171875 37.8125 47.578125 
Q 36.03125 48 33.890625 48 
Q 26.265625 48 22.1875 43.046875 
Q 18.109375 38.09375 18.109375 28.8125 
L 18.109375 0 
L 9.078125 0 
L 9.078125 54.6875 
L 18.109375 54.6875 
L 18.109375 46.1875 
Q 20.953125 51.171875 25.484375 53.578125 
Q 30.03125 56 36.53125 56 
Q 37.453125 56 38.578125 55.875 
Q 39.703125 55.765625 41.0625 55.515625 
z
" id="DejaVuSans-114"/>
       <path d="M 56.203125 29.59375 
L 56.203125 25.203125 
L 14.890625 25.203125 
Q 15.484375 15.921875 20.484375 11.0625 
Q 25.484375 6.203125 34.421875 6.203125 
Q 39.59375 6.203125 44.453125 7.46875 
Q 49.3125 8.734375 54.109375 11.28125 
L 54.109375 2.78125 
Q 49.265625 0.734375 44.1875 -0.34375 
Q 39.109375 -1.421875 33.890625 -1.421875 
Q 20.796875 -1.421875 13.15625 6.1875 
Q 5.515625 13.8125 5.515625 26.8125 
Q 5.515625 40.234375 12.765625 48.109375 
Q 20.015625 56 32.328125 56 
Q 43.359375 56 49.78125 48.890625 
Q 56.203125 41.796875 56.203125 29.59375 
z
M 47.21875 32.234375 
Q 47.125 39.59375 43.09375 43.984375 
Q 39.0625 48.390625 32.421875 48.390625 
Q 24.90625 48.390625 20.390625 44.140625 
Q 15.875 39.890625 15.1875 32.171875 
z
" id="DejaVuSans-101"/>
       <path d="M 14.796875 27.296875 
Q 14.796875 17.390625 18.875 11.75 
Q 22.953125 6.109375 30.078125 6.109375 
Q 37.203125 6.109375 41.296875 11.75 
Q 45.40625 17.390625 45.40625 27.296875 
Q 45.40625 37.203125 41.296875 42.84375 
Q 37.203125 48.484375 30.078125 48.484375 
Q 22.953125 48.484375 18.875 42.84375 
Q 14.796875 37.203125 14.796875 27.296875 
z
M 45.40625 8.203125 
Q 42.578125 3.328125 38.25 0.953125 
Q 33.9375 -1.421875 27.875 -1.421875 
Q 17.96875 -1.421875 11.734375 6.484375 
Q 5.515625 14.40625 5.515625 27.296875 
Q 5.515625 40.1875 11.734375 48.09375 
Q 17.96875 56 27.875 56 
Q 33.9375 56 38.25 53.625 
Q 42.578125 51.265625 45.40625 46.390625 
L 45.40625 54.6875 
L 54.390625 54.6875 
L 54.390625 -20.796875 
L 45.40625 -20.796875 
z
" id="DejaVuSans-113"/>
       <path d="M 8.5 21.578125 
L 8.5 54.6875 
L 17.484375 54.6875 
L 17.484375 21.921875 
Q 17.484375 14.15625 20.5 10.265625 
Q 23.53125 6.390625 29.59375 6.390625 
Q 36.859375 6.390625 41.078125 11.03125 
Q 45.3125 15.671875 45.3125 23.6875 
L 45.3125 54.6875 
L 54.296875 54.6875 
L 54.296875 0 
L 45.3125 0 
L 45.3125 8.40625 
Q 42.046875 3.421875 37.71875 1 
Q 33.40625 -1.421875 27.6875 -1.421875 
Q 18.265625 -1.421875 13.375 4.4375 
Q 8.5 10.296875 8.5 21.578125 
z
M 31.109375 56 
z
" id="DejaVuSans-117"/>
       <path d="M 54.890625 33.015625 
L 54.890625 0 
L 45.90625 0 
L 45.90625 32.71875 
Q 45.90625 40.484375 42.875 44.328125 
Q 39.84375 48.1875 33.796875 48.1875 
Q 26.515625 48.1875 22.3125 43.546875 
Q 18.109375 38.921875 18.109375 30.90625 
L 18.109375 0 
L 9.078125 0 
L 9.078125 54.6875 
L 18.109375 54.6875 
L 18.109375 46.1875 
Q 21.34375 51.125 25.703125 53.5625 
Q 30.078125 56 35.796875 56 
Q 45.21875 56 50.046875 50.171875 
Q 54.890625 44.34375 54.890625 33.015625 
z
" id="DejaVuSans-110"/>
       <path d="M 48.78125 52.59375 
L 48.78125 44.1875 
Q 44.96875 46.296875 41.140625 47.34375 
Q 37.3125 48.390625 33.40625 48.390625 
Q 24.65625 48.390625 19.8125 42.84375 
Q 14.984375 37.3125 14.984375 27.296875 
Q 14.984375 17.28125 19.8125 11.734375 
Q 24.65625 6.203125 33.40625 6.203125 
Q 37.3125 6.203125 41.140625 7.25 
Q 44.96875 8.296875 48.78125 10.40625 
L 48.78125 2.09375 
Q 45.015625 0.34375 40.984375 -0.53125 
Q 36.96875 -1.421875 32.421875 -1.421875 
Q 20.0625 -1.421875 12.78125 6.34375 
Q 5.515625 14.109375 5.515625 27.296875 
Q 5.515625 40.671875 12.859375 48.328125 
Q 20.21875 56 33.015625 56 
Q 37.15625 56 41.109375 55.140625 
Q 45.0625 54.296875 48.78125 52.59375 
z
" id="DejaVuSans-99"/>
       <path d="M 32.171875 -5.078125 
Q 28.375 -14.84375 24.75 -17.8125 
Q 21.140625 -20.796875 15.09375 -20.796875 
L 7.90625 -20.796875 
L 7.90625 -13.28125 
L 13.1875 -13.28125 
Q 16.890625 -13.28125 18.9375 -11.515625 
Q 21 -9.765625 23.484375 -3.21875 
L 25.09375 0.875 
L 2.984375 54.6875 
L 12.5 54.6875 
L 29.59375 11.921875 
L 46.6875 54.6875 
L 56.203125 54.6875 
z
" id="DejaVuSans-121"/>
       <path id="DejaVuSans-32"/>
       <path d="M 8.59375 75.984375 
L 29.296875 75.984375 
L 29.296875 69 
L 17.578125 69 
L 17.578125 -6.203125 
L 29.296875 -6.203125 
L 29.296875 -13.1875 
L 8.59375 -13.1875 
z
" id="DejaVuSans-91"/>
       <path d="M 9.8125 72.90625 
L 24.515625 72.90625 
L 43.109375 23.296875 
L 61.8125 72.90625 
L 76.515625 72.90625 
L 76.515625 0 
L 66.890625 0 
L 66.890625 64.015625 
L 48.09375 14.015625 
L 38.1875 14.015625 
L 19.390625 64.015625 
L 19.390625 0 
L 9.8125 0 
z
" id="DejaVuSans-77"/>
       <path d="M 9.8125 72.90625 
L 19.671875 72.90625 
L 19.671875 43.015625 
L 55.515625 43.015625 
L 55.515625 72.90625 
L 65.375 72.90625 
L 65.375 0 
L 55.515625 0 
L 55.515625 34.71875 
L 19.671875 34.71875 
L 19.671875 0 
L 9.8125 0 
z
" id="DejaVuSans-72"/>
       <path d="M 5.515625 54.6875 
L 48.1875 54.6875 
L 48.1875 46.484375 
L 14.40625 7.171875 
L 48.1875 7.171875 
L 48.1875 0 
L 4.296875 0 
L 4.296875 8.203125 
L 38.09375 47.515625 
L 5.515625 47.515625 
z
" id="DejaVuSans-122"/>
       <path d="M 30.421875 75.984375 
L 30.421875 -13.1875 
L 9.71875 -13.1875 
L 9.71875 -6.203125 
L 21.390625 -6.203125 
L 21.390625 69 
L 9.71875 69 
L 9.71875 75.984375 
z
" id="DejaVuSans-93"/>
      </defs>
      <use xlink:href="#DejaVuSans-102"/>
      <use x="35.205078" xlink:href="#DejaVuSans-114"/>
      <use x="74.068359" xlink:href="#DejaVuSans-101"/>
      <use x="135.591797" xlink:href="#DejaVuSans-113"/>
      <use x="199.068359" xlink:href="#DejaVuSans-117"/>
      <use x="262.447266" xlink:href="#DejaVuSans-101"/>
      <use x="323.970703" xlink:href="#DejaVuSans-110"/>
      <use x="387.349609" xlink:href="#DejaVuSans-99"/>
      <use x="442.330078" xlink:href="#DejaVuSans-121"/>
      <use x="501.509766" xlink:href="#DejaVuSans-32"/>
      <use x="533.296875" xlink:href="#DejaVuSans-91"/>
      <use x="572.310547" xlink:href="#DejaVuSans-77"/>
      <use x="658.589844" xlink:href="#DejaVuSans-72"/>
      <use x="733.785156" xlink:href="#DejaVuSans-122"/>
      <use x="786.275391" xlink:href="#DejaVuSans-93"/>
     </g>
    </g>
   </g>
   <g id="matplotlib.axis_2">
    <g id="ytick_1">
     <g id="line2d_33">
      <path clip-path="url(#pdefa8d67ea)" d="M 60.05 299.681287 
L 493.2 299.681287 
" style="fill:none;stroke:#808080;stroke-linecap:square;stroke-width:0.8;"/>
     </g>
     <g id="line2d_34">
      <defs>
       <path d="M 0 0 
L -3.5 0 
" id="m450867cdab" style="stroke:#000000;stroke-width:0.8;"/>
      </defs>
      <g>
       <use style="stroke:#000000;stroke-width:0.8;" x="60.05" xlink:href="#m450867cdab" y="299.681287"/>
      </g>
     </g>
     <g id="text_4">
      <!-- −12 -->
      <g transform="translate(27.724375 304.24035)scale(0.12 -0.12)">
       <defs>
        <path d="M 10.59375 35.5 
L 73.1875 35.5 
L 73.1875 27.203125 
L 10.59375 27.203125 
z
" id="DejaVuSans-8722"/>
        <path d="M 19.1875 8.296875 
L 53.609375 8.296875 
L 53.609375 0 
L 7.328125 0 
L 7.328125 8.296875 
Q 12.9375 14.109375 22.625 23.890625 
Q 32.328125 33.6875 34.8125 36.53125 
Q 39.546875 41.84375 41.421875 45.53125 
Q 43.3125 49.21875 43.3125 52.78125 
Q 43.3125 58.59375 39.234375 62.25 
Q 35.15625 65.921875 28.609375 65.921875 
Q 23.96875 65.921875 18.8125 64.3125 
Q 13.671875 62.703125 7.8125 59.421875 
L 7.8125 69.390625 
Q 13.765625 71.78125 18.9375 73 
Q 24.125 74.21875 28.421875 74.21875 
Q 39.75 74.21875 46.484375 68.546875 
Q 53.21875 62.890625 53.21875 53.421875 
Q 53.21875 48.921875 51.53125 44.890625 
Q 49.859375 40.875 45.40625 35.40625 
Q 44.1875 33.984375 37.640625 27.21875 
Q 31.109375 20.453125 19.1875 8.296875 
z
" id="DejaVuSans-50"/>
       </defs>
       <use xlink:href="#DejaVuSans-8722"/>
       <use x="83.789062" xlink:href="#DejaVuSans-49"/>
       <use x="147.412109" xlink:href="#DejaVuSans-50"/>
      </g>
     </g>
    </g>
    <g id="ytick_2">
     <g id="line2d_35">
      <path clip-path="url(#pdefa8d67ea)" d="M 60.05 255.828023 
L 493.2 255.828023 
" style="fill:none;stroke:#808080;stroke-linecap:square;stroke-width:0.8;"/>
     </g>
     <g id="line2d_36">
      <g>
       <use style="stroke:#000000;stroke-width:0.8;" x="60.05" xlink:href="#m450867cdab" y="255.828023"/>
      </g>
     </g>
     <g id="text_5">
      <!-- −11 -->
      <g transform="translate(27.724375 260.387086)scale(0.12 -0.12)">
       <use xlink:href="#DejaVuSans-8722"/>
       <use x="83.789062" xlink:href="#DejaVuSans-49"/>
       <use x="147.412109" xlink:href="#DejaVuSans-49"/>
      </g>
     </g>
    </g>
    <g id="ytick_3">
     <g id="line2d_37">
      <path clip-path="url(#pdefa8d67ea)" d="M 60.05 211.974759 
L 493.2 211.974759 
" style="fill:none;stroke:#808080;stroke-linecap:square;stroke-width:0.8;"/>
     </g>
     <g id="line2d_38">
      <g>
       <use style="stroke:#000000;stroke-width:0.8;" x="60.05" xlink:href="#m450867cdab" y="211.974759"/>
      </g>
     </g>
     <g id="text_6">
      <!-- −10 -->
      <g transform="translate(27.724375 216.533821)scale(0.12 -0.12)">
       <use xlink:href="#DejaVuSans-8722"/>
       <use x="83.789062" xlink:href="#DejaVuSans-49"/>
       <use x="147.412109" xlink:href="#DejaVuSans-48"/>
      </g>
     </g>
    </g>
    <g id="ytick_4">
     <g id="line2d_39">
      <path clip-path="url(#pdefa8d67ea)" d="M 60.05 168.121495 
L 493.2 168.121495 
" style="fill:none;stroke:#808080;stroke-linecap:square;stroke-width:0.8;"/>
     </g>
     <g id="line2d_40">
      <g>
       <use style="stroke:#000000;stroke-width:0.8;" x="60.05" xlink:href="#m450867cdab" y="168.121495"/>
      </g>
     </g>
     <g id="text_7">
      <!-- −9 -->
      <g transform="translate(35.359375 172.680557)scale(0.12 -0.12)">
       <defs>
        <path d="M 10.984375 1.515625 
L 10.984375 10.5 
Q 14.703125 8.734375 18.5 7.8125 
Q 22.3125 6.890625 25.984375 6.890625 
Q 35.75 6.890625 40.890625 13.453125 
Q 46.046875 20.015625 46.78125 33.40625 
Q 43.953125 29.203125 39.59375 26.953125 
Q 35.25 24.703125 29.984375 24.703125 
Q 19.046875 24.703125 12.671875 31.3125 
Q 6.296875 37.9375 6.296875 49.421875 
Q 6.296875 60.640625 12.9375 67.421875 
Q 19.578125 74.21875 30.609375 74.21875 
Q 43.265625 74.21875 49.921875 64.515625 
Q 56.59375 54.828125 56.59375 36.375 
Q 56.59375 19.140625 48.40625 8.859375 
Q 40.234375 -1.421875 26.421875 -1.421875 
Q 22.703125 -1.421875 18.890625 -0.6875 
Q 15.09375 0.046875 10.984375 1.515625 
z
M 30.609375 32.421875 
Q 37.25 32.421875 41.125 36.953125 
Q 45.015625 41.5 45.015625 49.421875 
Q 45.015625 57.28125 41.125 61.84375 
Q 37.25 66.40625 30.609375 66.40625 
Q 23.96875 66.40625 20.09375 61.84375 
Q 16.21875 57.28125 16.21875 49.421875 
Q 16.21875 41.5 20.09375 36.953125 
Q 23.96875 32.421875 30.609375 32.421875 
z
" id="DejaVuSans-57"/>
       </defs>
       <use xlink:href="#DejaVuSans-8722"/>
       <use x="83.789062" xlink:href="#DejaVuSans-57"/>
      </g>
     </g>
    </g>
    <g id="ytick_5">
     <g id="line2d_41">
      <path clip-path="url(#pdefa8d67ea)" d="M 60.05 124.26823 
L 493.2 124.26823 
" style="fill:none;stroke:#808080;stroke-linecap:square;stroke-width:0.8;"/>
     </g>
     <g id="line2d_42">
      <g>
       <use style="stroke:#000000;stroke-width:0.8;" x="60.05" xlink:href="#m450867cdab" y="124.26823"/>
      </g>
     </g>
     <g id="text_8">
      <!-- −8 -->
      <g transform="translate(35.359375 128.827293)scale(0.12 -0.12)">
       <defs>
        <path d="M 31.78125 34.625 
Q 24.75 34.625 20.71875 30.859375 
Q 16.703125 27.09375 16.703125 20.515625 
Q 16.703125 13.921875 20.71875 10.15625 
Q 24.75 6.390625 31.78125 6.390625 
Q 38.8125 6.390625 42.859375 10.171875 
Q 46.921875 13.96875 46.921875 20.515625 
Q 46.921875 27.09375 42.890625 30.859375 
Q 38.875 34.625 31.78125 34.625 
z
M 21.921875 38.8125 
Q 15.578125 40.375 12.03125 44.71875 
Q 8.5 49.078125 8.5 55.328125 
Q 8.5 64.0625 14.71875 69.140625 
Q 20.953125 74.21875 31.78125 74.21875 
Q 42.671875 74.21875 48.875 69.140625 
Q 55.078125 64.0625 55.078125 55.328125 
Q 55.078125 49.078125 51.53125 44.71875 
Q 48 40.375 41.703125 38.8125 
Q 48.828125 37.15625 52.796875 32.3125 
Q 56.78125 27.484375 56.78125 20.515625 
Q 56.78125 9.90625 50.3125 4.234375 
Q 43.84375 -1.421875 31.78125 -1.421875 
Q 19.734375 -1.421875 13.25 4.234375 
Q 6.78125 9.90625 6.78125 20.515625 
Q 6.78125 27.484375 10.78125 32.3125 
Q 14.796875 37.15625 21.921875 38.8125 
z
M 18.3125 54.390625 
Q 18.3125 48.734375 21.84375 45.5625 
Q 25.390625 42.390625 31.78125 42.390625 
Q 38.140625 42.390625 41.71875 45.5625 
Q 45.3125 48.734375 45.3125 54.390625 
Q 45.3125 60.0625 41.71875 63.234375 
Q 38.140625 66.40625 31.78125 66.40625 
Q 25.390625 66.40625 21.84375 63.234375 
Q 18.3125 60.0625 18.3125 54.390625 
z
" id="DejaVuSans-56"/>
       </defs>
       <use xlink:href="#DejaVuSans-8722"/>
       <use x="83.789062" xlink:href="#DejaVuSans-56"/>
      </g>
     </g>
    </g>
    <g id="ytick_6">
     <g id="line2d_43">
      <path clip-path="url(#pdefa8d67ea)" d="M 60.05 80.414966 
L 493.2 80.414966 
" style="fill:none;stroke:#808080;stroke-linecap:square;stroke-width:0.8;"/>
     </g>
     <g id="line2d_44">
      <g>
       <use style="stroke:#000000;stroke-width:0.8;" x="60.05" xlink:href="#m450867cdab" y="80.414966"/>
      </g>
     </g>
     <g id="text_9">
      <!-- −7 -->
      <g transform="translate(35.359375 84.974028)scale(0.12 -0.12)">
       <defs>
        <path d="M 8.203125 72.90625 
L 55.078125 72.90625 
L 55.078125 68.703125 
L 28.609375 0 
L 18.3125 0 
L 43.21875 64.59375 
L 8.203125 64.59375 
z
" id="DejaVuSans-55"/>
       </defs>
       <use xlink:href="#DejaVuSans-8722"/>
       <use x="83.789062" xlink:href="#DejaVuSans-55"/>
      </g>
     </g>
    </g>
    <g id="ytick_7">
     <g id="line2d_45">
      <path clip-path="url(#pdefa8d67ea)" d="M 60.05 36.561702 
L 493.2 36.561702 
" style="fill:none;stroke:#808080;stroke-linecap:square;stroke-width:0.8;"/>
     </g>
     <g id="line2d_46">
      <g>
       <use style="stroke:#000000;stroke-width:0.8;" x="60.05" xlink:href="#m450867cdab" y="36.561702"/>
      </g>
     </g>
     <g id="text_10">
      <!-- −6 -->
      <g transform="translate(35.359375 41.120764)scale(0.12 -0.12)">
       <defs>
        <path d="M 33.015625 40.375 
Q 26.375 40.375 22.484375 35.828125 
Q 18.609375 31.296875 18.609375 23.390625 
Q 18.609375 15.53125 22.484375 10.953125 
Q 26.375 6.390625 33.015625 6.390625 
Q 39.65625 6.390625 43.53125 10.953125 
Q 47.40625 15.53125 47.40625 23.390625 
Q 47.40625 31.296875 43.53125 35.828125 
Q 39.65625 40.375 33.015625 40.375 
z
M 52.59375 71.296875 
L 52.59375 62.3125 
Q 48.875 64.0625 45.09375 64.984375 
Q 41.3125 65.921875 37.59375 65.921875 
Q 27.828125 65.921875 22.671875 59.328125 
Q 17.53125 52.734375 16.796875 39.40625 
Q 19.671875 43.65625 24.015625 45.921875 
Q 28.375 48.1875 33.59375 48.1875 
Q 44.578125 48.1875 50.953125 41.515625 
Q 57.328125 34.859375 57.328125 23.390625 
Q 57.328125 12.15625 50.6875 5.359375 
Q 44.046875 -1.421875 33.015625 -1.421875 
Q 20.359375 -1.421875 13.671875 8.265625 
Q 6.984375 17.96875 6.984375 36.375 
Q 6.984375 53.65625 15.1875 63.9375 
Q 23.390625 74.21875 37.203125 74.21875 
Q 40.921875 74.21875 44.703125 73.484375 
Q 48.484375 72.75 52.59375 71.296875 
z
" id="DejaVuSans-54"/>
       </defs>
       <use xlink:href="#DejaVuSans-8722"/>
       <use x="83.789062" xlink:href="#DejaVuSans-54"/>
      </g>
     </g>
    </g>
    <g id="text_11">
     <!-- magnitude [dB] -->
     <g transform="translate(21.22875 214.669687)rotate(-90)scale(0.12 -0.12)">
      <defs>
       <path d="M 52 44.1875 
Q 55.375 50.25 60.0625 53.125 
Q 64.75 56 71.09375 56 
Q 79.640625 56 84.28125 50.015625 
Q 88.921875 44.046875 88.921875 33.015625 
L 88.921875 0 
L 79.890625 0 
L 79.890625 32.71875 
Q 79.890625 40.578125 77.09375 44.375 
Q 74.3125 48.1875 68.609375 48.1875 
Q 61.625 48.1875 57.5625 43.546875 
Q 53.515625 38.921875 53.515625 30.90625 
L 53.515625 0 
L 44.484375 0 
L 44.484375 32.71875 
Q 44.484375 40.625 41.703125 44.40625 
Q 38.921875 48.1875 33.109375 48.1875 
Q 26.21875 48.1875 22.15625 43.53125 
Q 18.109375 38.875 18.109375 30.90625 
L 18.109375 0 
L 9.078125 0 
L 9.078125 54.6875 
L 18.109375 54.6875 
L 18.109375 46.1875 
Q 21.1875 51.21875 25.484375 53.609375 
Q 29.78125 56 35.6875 56 
Q 41.65625 56 45.828125 52.96875 
Q 50 49.953125 52 44.1875 
z
" id="DejaVuSans-109"/>
       <path d="M 34.28125 27.484375 
Q 23.390625 27.484375 19.1875 25 
Q 14.984375 22.515625 14.984375 16.5 
Q 14.984375 11.71875 18.140625 8.90625 
Q 21.296875 6.109375 26.703125 6.109375 
Q 34.1875 6.109375 38.703125 11.40625 
Q 43.21875 16.703125 43.21875 25.484375 
L 43.21875 27.484375 
z
M 52.203125 31.203125 
L 52.203125 0 
L 43.21875 0 
L 43.21875 8.296875 
Q 40.140625 3.328125 35.546875 0.953125 
Q 30.953125 -1.421875 24.3125 -1.421875 
Q 15.921875 -1.421875 10.953125 3.296875 
Q 6 8.015625 6 15.921875 
Q 6 25.140625 12.171875 29.828125 
Q 18.359375 34.515625 30.609375 34.515625 
L 43.21875 34.515625 
L 43.21875 35.40625 
Q 43.21875 41.609375 39.140625 45 
Q 35.0625 48.390625 27.6875 48.390625 
Q 23 48.390625 18.546875 47.265625 
Q 14.109375 46.140625 10.015625 43.890625 
L 10.015625 52.203125 
Q 14.9375 54.109375 19.578125 55.046875 
Q 24.21875 56 28.609375 56 
Q 40.484375 56 46.34375 49.84375 
Q 52.203125 43.703125 52.203125 31.203125 
z
" id="DejaVuSans-97"/>
       <path d="M 45.40625 27.984375 
Q 45.40625 37.75 41.375 43.109375 
Q 37.359375 48.484375 30.078125 48.484375 
Q 22.859375 48.484375 18.828125 43.109375 
Q 14.796875 37.75 14.796875 27.984375 
Q 14.796875 18.265625 18.828125 12.890625 
Q 22.859375 7.515625 30.078125 7.515625 
Q 37.359375 7.515625 41.375 12.890625 
Q 45.40625 18.265625 45.40625 27.984375 
z
M 54.390625 6.78125 
Q 54.390625 -7.171875 48.1875 -13.984375 
Q 42 -20.796875 29.203125 -20.796875 
Q 24.46875 -20.796875 20.265625 -20.09375 
Q 16.0625 -19.390625 12.109375 -17.921875 
L 12.109375 -9.1875 
Q 16.0625 -11.328125 19.921875 -12.34375 
Q 23.78125 -13.375 27.78125 -13.375 
Q 36.625 -13.375 41.015625 -8.765625 
Q 45.40625 -4.15625 45.40625 5.171875 
L 45.40625 9.625 
Q 42.625 4.78125 38.28125 2.390625 
Q 33.9375 0 27.875 0 
Q 17.828125 0 11.671875 7.65625 
Q 5.515625 15.328125 5.515625 27.984375 
Q 5.515625 40.671875 11.671875 48.328125 
Q 17.828125 56 27.875 56 
Q 33.9375 56 38.28125 53.609375 
Q 42.625 51.21875 45.40625 46.390625 
L 45.40625 54.6875 
L 54.390625 54.6875 
z
" id="DejaVuSans-103"/>
       <path d="M 9.421875 54.6875 
L 18.40625 54.6875 
L 18.40625 0 
L 9.421875 0 
z
M 9.421875 75.984375 
L 18.40625 75.984375 
L 18.40625 64.59375 
L 9.421875 64.59375 
z
" id="DejaVuSans-105"/>
       <path d="M 18.3125 70.21875 
L 18.3125 54.6875 
L 36.8125 54.6875 
L 36.8125 47.703125 
L 18.3125 47.703125 
L 18.3125 18.015625 
Q 18.3125 11.328125 20.140625 9.421875 
Q 21.96875 7.515625 27.59375 7.515625 
L 36.8125 7.515625 
L 36.8125 0 
L 27.59375 0 
Q 17.1875 0 13.234375 3.875 
Q 9.28125 7.765625 9.28125 18.015625 
L 9.28125 47.703125 
L 2.6875 47.703125 
L 2.6875 54.6875 
L 9.28125 54.6875 
L 9.28125 70.21875 
z
" id="DejaVuSans-116"/>
       <path d="M 45.40625 46.390625 
L 45.40625 75.984375 
L 54.390625 75.984375 
L 54.390625 0 
L 45.40625 0 
L 45.40625 8.203125 
Q 42.578125 3.328125 38.25 0.953125 
Q 33.9375 -1.421875 27.875 -1.421875 
Q 17.96875 -1.421875 11.734375 6.484375 
Q 5.515625 14.40625 5.515625 27.296875 
Q 5.515625 40.1875 11.734375 48.09375 
Q 17.96875 56 27.875 56 
Q 33.9375 56 38.25 53.625 
Q 42.578125 51.265625 45.40625 46.390625 
z
M 14.796875 27.296875 
Q 14.796875 17.390625 18.875 11.75 
Q 22.953125 6.109375 30.078125 6.109375 
Q 37.203125 6.109375 41.296875 11.75 
Q 45.40625 17.390625 45.40625 27.296875 
Q 45.40625 37.203125 41.296875 42.84375 
Q 37.203125 48.484375 30.078125 48.484375 
Q 22.953125 48.484375 18.875 42.84375 
Q 14.796875 37.203125 14.796875 27.296875 
z
" id="DejaVuSans-100"/>
       <path d="M 19.671875 34.8125 
L 19.671875 8.109375 
L 35.5 8.109375 
Q 43.453125 8.109375 47.28125 11.40625 
Q 51.125 14.703125 51.125 21.484375 
Q 51.125 28.328125 47.28125 31.5625 
Q 43.453125 34.8125 35.5 34.8125 
z
M 19.671875 64.796875 
L 19.671875 42.828125 
L 34.28125 42.828125 
Q 41.5 42.828125 45.03125 45.53125 
Q 48.578125 48.25 48.578125 53.8125 
Q 48.578125 59.328125 45.03125 62.0625 
Q 41.5 64.796875 34.28125 64.796875 
z
M 9.8125 72.90625 
L 35.015625 72.90625 
Q 46.296875 72.90625 52.390625 68.21875 
Q 58.5 63.53125 58.5 54.890625 
Q 58.5 48.1875 55.375 44.234375 
Q 52.25 40.28125 46.1875 39.3125 
Q 53.46875 37.75 57.5 32.78125 
Q 61.53125 27.828125 61.53125 20.40625 
Q 61.53125 10.640625 54.890625 5.3125 
Q 48.25 0 35.984375 0 
L 9.8125 0 
z
" id="DejaVuSans-66"/>
      </defs>
      <use xlink:href="#DejaVuSans-109"/>
      <use x="97.412109" xlink:href="#DejaVuSans-97"/>
      <use x="158.691406" xlink:href="#DejaVuSans-103"/>
      <use x="222.167969" xlink:href="#DejaVuSans-110"/>
      <use x="285.546875" xlink:href="#DejaVuSans-105"/>
      <use x="313.330078" xlink:href="#DejaVuSans-116"/>
      <use x="352.539062" xlink:href="#DejaVuSans-117"/>
      <use x="415.917969" xlink:href="#DejaVuSans-100"/>
      <use x="479.394531" xlink:href="#DejaVuSans-101"/>
      <use x="540.917969" xlink:href="#DejaVuSans-32"/>
      <use x="572.705078" xlink:href="#DejaVuSans-91"/>
      <use x="611.71875" xlink:href="#DejaVuSans-100"/>
      <use x="675.195312" xlink:href="#DejaVuSans-66"/>
      <use x="743.798828" xlink:href="#DejaVuSans-93"/>
     </g>
    </g>
   </g>
   <g id="line2d_47">
    <path clip-path="url(#pdefa8d67ea)" d="M 79.738636 39.609091 
L 83.716139 39.609091 
L 87.693641 39.609092 
L 91.671143 39.609093 
L 95.648646 39.609093 
L 99.626148 39.609094 
L 103.60365 39.609095 
L 107.581152 39.609096 
L 111.558655 39.609097 
L 115.536157 39.609098 
L 119.513659 39.609099 
L 123.491162 39.6091 
L 127.468664 39.609102 
L 131.446166 39.609103 
L 135.423669 39.609105 
L 139.401171 39.609106 
L 143.378673 39.609108 
L 147.356175 39.60911 
L 151.333678 39.609112 
L 155.31118 39.609115 
L 159.288682 39.609117 
L 163.266185 39.60912 
L 167.243687 39.609123 
L 171.221189 39.609126 
L 175.198691 39.60913 
L 179.176194 39.609133 
L 183.153696 39.609137 
L 187.131198 39.609142 
L 191.108701 39.609147 
L 195.086203 39.609152 
L 199.063705 39.609157 
L 203.041208 39.609163 
L 207.01871 39.60917 
L 210.996212 39.609177 
L 214.973714 39.609184 
L 218.951217 39.609193 
L 222.928719 39.609202 
L 226.906221 39.609211 
L 230.883724 39.609222 
L 234.861226 39.609233 
L 238.838728 39.609245 
L 242.81623 39.609259 
L 246.793733 39.609273 
L 250.771235 39.609288 
L 254.748737 39.609305 
L 258.72624 39.609323 
L 262.703742 39.609343 
L 266.681244 39.609364 
L 270.658747 39.609387 
L 274.636249 39.609412 
L 278.613751 39.609439 
L 282.591253 39.609469 
L 286.568756 39.6095 
L 290.546258 39.609534 
L 294.52376 39.609571 
L 298.501263 39.609612 
L 302.478765 39.609655 
L 306.456267 39.609702 
L 310.43377 39.609753 
L 314.411272 39.609808 
L 318.388774 39.609867 
L 322.366276 39.609932 
L 326.343779 39.610001 
L 330.321281 39.610077 
L 334.298783 39.610158 
L 338.276286 39.610247 
L 342.253788 39.610342 
L 346.23129 39.610446 
L 350.208792 39.610558 
L 354.186295 39.610679 
L 358.163797 39.61081 
L 362.141299 39.610952 
L 366.118802 39.611106 
L 370.096304 39.611272 
L 374.073806 39.611452 
L 378.051309 39.611647 
L 382.028811 39.611858 
L 386.006313 39.612086 
L 389.983815 39.612334 
L 393.961318 39.612601 
L 397.93882 39.61289 
L 401.916322 39.613204 
L 405.893825 39.613543 
L 409.871327 39.61391 
L 413.848829 39.614307 
L 417.826331 39.614737 
L 421.803834 39.615202 
L 425.781336 39.615706 
L 429.758838 39.616251 
L 433.736341 39.616841 
L 437.713843 39.61748 
L 441.691345 39.618171 
L 445.668848 39.61892 
L 449.64635 39.61973 
L 453.623852 39.620608 
L 457.601354 39.621557 
L 461.578857 39.622585 
L 465.556359 39.623698 
L 469.533861 39.624904 
L 473.511364 39.626208 
" style="fill:none;stroke:#ff0000;stroke-linecap:square;stroke-width:2;"/>
   </g>
   <g id="line2d_48">
    <path clip-path="url(#pdefa8d67ea)" d="M 79.738636 39.609105 
L 83.716139 39.609107 
L 87.693641 39.609108 
L 91.671143 39.60911 
L 95.648646 39.609113 
L 99.626148 39.609115 
L 103.60365 39.609118 
L 107.581152 39.60912 
L 111.558655 39.609123 
L 115.536157 39.609127 
L 119.513659 39.60913 
L 123.491162 39.609134 
L 127.468664 39.609138 
L 131.446166 39.609142 
L 135.423669 39.609147 
L 139.401171 39.609152 
L 143.378673 39.609158 
L 147.356175 39.609164 
L 151.333678 39.609171 
L 155.31118 39.609178 
L 159.288682 39.609185 
L 163.266185 39.609194 
L 167.243687 39.609203 
L 171.221189 39.609212 
L 175.198691 39.609223 
L 179.176194 39.609234 
L 183.153696 39.609247 
L 187.131198 39.60926 
L 191.108701 39.609275 
L 195.086203 39.60929 
L 199.063705 39.609307 
L 203.041208 39.609326 
L 207.01871 39.609345 
L 210.996212 39.609367 
L 214.973714 39.60939 
L 218.951217 39.609415 
L 222.928719 39.609443 
L 226.906221 39.609472 
L 230.883724 39.609504 
L 234.861226 39.609538 
L 238.838728 39.609576 
L 242.81623 39.609616 
L 246.793733 39.60966 
L 250.771235 39.609707 
L 254.748737 39.609759 
L 258.72624 39.609814 
L 262.703742 39.609874 
L 266.681244 39.609939 
L 270.658747 39.61001 
L 274.636249 39.610086 
L 278.613751 39.610168 
L 282.591253 39.610257 
L 286.568756 39.610354 
L 290.546258 39.610458 
L 294.52376 39.610571 
L 298.501263 39.610693 
L 302.478765 39.610826 
L 306.456267 39.610969 
L 310.43377 39.611124 
L 314.411272 39.611292 
L 318.388774 39.611473 
L 322.366276 39.61167 
L 326.343779 39.611882 
L 330.321281 39.612112 
L 334.298783 39.612361 
L 338.276286 39.612631 
L 342.253788 39.612923 
L 346.23129 39.613238 
L 350.208792 39.61358 
L 354.186295 39.61395 
L 358.163797 39.61435 
L 362.141299 39.614783 
L 366.118802 39.615252 
L 370.096304 39.615759 
L 374.073806 39.616308 
L 378.051309 39.616902 
L 382.028811 39.617545 
L 386.006313 39.618241 
L 389.983815 39.618994 
L 393.961318 39.619809 
L 397.93882 39.620691 
L 401.916322 39.621646 
L 405.893825 39.622679 
L 409.871327 39.623797 
L 413.848829 39.625008 
L 417.826331 39.626317 
L 421.803834 39.627735 
L 425.781336 39.629269 
L 429.758838 39.63093 
L 433.736341 39.632727 
L 437.713843 39.634672 
L 441.691345 39.636777 
L 445.668848 39.639055 
L 449.64635 39.64152 
L 453.623852 39.644189 
L 457.601354 39.647077 
L 461.578857 39.650203 
L 465.556359 39.653587 
L 469.533861 39.657249 
L 473.511364 39.661212 
" style="fill:none;stroke:#0000ff;stroke-linecap:square;stroke-width:2;"/>
   </g>
   <g id="line2d_49">
    <path clip-path="url(#pdefa8d67ea)" d="M 79.738636 39.609138 
L 83.716139 39.609142 
L 87.693641 39.609147 
L 91.671143 39.609152 
L 95.648646 39.609158 
L 99.626148 39.609164 
L 103.60365 39.60917 
L 107.581152 39.609177 
L 111.558655 39.609185 
L 115.536157 39.609193 
L 119.513659 39.609202 
L 123.491162 39.609212 
L 127.468664 39.609222 
L 131.446166 39.609234 
L 135.423669 39.609246 
L 139.401171 39.609259 
L 143.378673 39.609274 
L 147.356175 39.609289 
L 151.333678 39.609306 
L 155.31118 39.609324 
L 159.288682 39.609344 
L 163.266185 39.609366 
L 167.243687 39.609389 
L 171.221189 39.609414 
L 175.198691 39.609441 
L 179.176194 39.60947 
L 183.153696 39.609502 
L 187.131198 39.609536 
L 191.108701 39.609574 
L 195.086203 39.609614 
L 199.063705 39.609657 
L 203.041208 39.609705 
L 207.01871 39.609756 
L 210.996212 39.609811 
L 214.973714 39.609871 
L 218.951217 39.609935 
L 222.928719 39.610005 
L 226.906221 39.610081 
L 230.883724 39.610163 
L 234.861226 39.610252 
L 238.838728 39.610348 
L 242.81623 39.610452 
L 246.793733 39.610564 
L 250.771235 39.610686 
L 254.748737 39.610818 
L 258.72624 39.61096 
L 262.703742 39.611114 
L 266.681244 39.611281 
L 270.658747 39.611462 
L 274.636249 39.611658 
L 278.613751 39.611869 
L 282.591253 39.612098 
L 286.568756 39.612346 
L 290.546258 39.612615 
L 294.52376 39.612905 
L 298.501263 39.613219 
L 302.478765 39.613559 
L 306.456267 39.613927 
L 310.43377 39.614325 
L 314.411272 39.614756 
L 318.388774 39.615223 
L 322.366276 39.615728 
L 326.343779 39.616274 
L 330.321281 39.616865 
L 334.298783 39.617505 
L 338.276286 39.618198 
L 342.253788 39.618947 
L 346.23129 39.619758 
L 350.208792 39.620636 
L 354.186295 39.621586 
L 358.163797 39.622614 
L 362.141299 39.623727 
L 366.118802 39.624931 
L 370.096304 39.626234 
L 374.073806 39.627645 
L 378.051309 39.629171 
L 382.028811 39.630823 
L 386.006313 39.63261 
L 389.983815 39.634545 
L 393.961318 39.636639 
L 397.93882 39.638905 
L 401.916322 39.641357 
L 405.893825 39.644011 
L 409.871327 39.646883 
L 413.848829 39.649991 
L 417.826331 39.653355 
L 421.803834 39.656996 
L 425.781336 39.660935 
L 429.758838 39.665199 
L 433.736341 39.669814 
L 437.713843 39.674807 
L 441.691345 39.680211 
L 445.668848 39.68606 
L 449.64635 39.692389 
L 453.623852 39.699239 
L 457.601354 39.706652 
L 461.578857 39.714675 
L 465.556359 39.723356 
L 469.533861 39.732752 
L 473.511364 39.74292 
" style="fill:none;stroke:#008000;stroke-linecap:square;stroke-width:2;"/>
   </g>
   <g id="line2d_50">
    <path clip-path="url(#pdefa8d67ea)" d="M 79.738636 39.609222 
L 83.716139 39.609233 
L 87.693641 39.609245 
L 91.671143 39.609259 
L 95.648646 39.609273 
L 99.626148 39.609289 
L 103.60365 39.609305 
L 107.581152 39.609324 
L 111.558655 39.609343 
L 115.536157 39.609365 
L 119.513659 39.609388 
L 123.491162 39.609413 
L 127.468664 39.60944 
L 131.446166 39.609469 
L 135.423669 39.6095 
L 139.401171 39.609535 
L 143.378673 39.609572 
L 147.356175 39.609612 
L 151.333678 39.609655 
L 155.31118 39.609702 
L 159.288682 39.609753 
L 163.266185 39.609808 
L 167.243687 39.609868 
L 171.221189 39.609932 
L 175.198691 39.610002 
L 179.176194 39.610077 
L 183.153696 39.610159 
L 187.131198 39.610247 
L 191.108701 39.610343 
L 195.086203 39.610446 
L 199.063705 39.610558 
L 203.041208 39.61068 
L 207.01871 39.610811 
L 210.996212 39.610953 
L 214.973714 39.611107 
L 218.951217 39.611273 
L 222.928719 39.611453 
L 226.906221 39.611648 
L 230.883724 39.611858 
L 234.861226 39.612087 
L 238.838728 39.612334 
L 242.81623 39.612601 
L 246.793733 39.61289 
L 250.771235 39.613203 
L 254.748737 39.613542 
L 258.72624 39.613908 
L 262.703742 39.614305 
L 266.681244 39.614734 
L 270.658747 39.615199 
L 274.636249 39.615702 
L 278.613751 39.616246 
L 282.591253 39.616835 
L 286.568756 39.617472 
L 290.546258 39.618162 
L 294.52376 39.618909 
L 298.501263 39.619717 
L 302.478765 39.620591 
L 306.456267 39.621537 
L 310.43377 39.622562 
L 314.411272 39.62367 
L 318.388774 39.624869 
L 322.366276 39.626167 
L 326.343779 39.627572 
L 330.321281 39.629093 
L 334.298783 39.630738 
L 338.276286 39.632518 
L 342.253788 39.634446 
L 346.23129 39.636531 
L 350.208792 39.638788 
L 354.186295 39.64123 
L 358.163797 39.643874 
L 362.141299 39.646735 
L 366.118802 39.64983 
L 370.096304 39.653181 
L 374.073806 39.656807 
L 378.051309 39.660731 
L 382.028811 39.664977 
L 386.006313 39.669573 
L 389.983815 39.674546 
L 393.961318 39.679929 
L 397.93882 39.685754 
L 401.916322 39.692057 
L 405.893825 39.698879 
L 409.871327 39.706261 
L 413.848829 39.71425 
L 417.826331 39.722896 
L 421.803834 39.732252 
L 425.781336 39.742377 
L 429.758838 39.753333 
L 433.736341 39.76519 
L 437.713843 39.778022 
L 441.691345 39.791907 
L 445.668848 39.806933 
L 449.64635 39.823193 
L 453.623852 39.840788 
L 457.601354 39.859828 
L 461.578857 39.880432 
L 465.556359 39.902727 
L 469.533861 39.926852 
L 473.511364 39.952957 
" style="fill:none;stroke:#00bfbf;stroke-linecap:square;stroke-width:2;"/>
   </g>
   <g id="line2d_51">
    <path clip-path="url(#pdefa8d67ea)" d="M 79.738636 39.609465 
L 83.716139 39.609497 
L 87.693641 39.60953 
L 91.671143 39.609567 
L 95.648646 39.609607 
L 99.626148 39.60965 
L 103.60365 39.609696 
L 107.581152 39.609747 
L 111.558655 39.609801 
L 115.536157 39.60986 
L 119.513659 39.609924 
L 123.491162 39.609993 
L 127.468664 39.610068 
L 131.446166 39.610149 
L 135.423669 39.610236 
L 139.401171 39.610331 
L 143.378673 39.610434 
L 147.356175 39.610545 
L 151.333678 39.610665 
L 155.31118 39.610795 
L 159.288682 39.610936 
L 163.266185 39.611088 
L 167.243687 39.611253 
L 171.221189 39.611431 
L 175.198691 39.611624 
L 179.176194 39.611833 
L 183.153696 39.612059 
L 187.131198 39.612303 
L 191.108701 39.612568 
L 195.086203 39.612855 
L 199.063705 39.613165 
L 203.041208 39.6135 
L 207.01871 39.613864 
L 210.996212 39.614257 
L 214.973714 39.614682 
L 218.951217 39.615142 
L 222.928719 39.615641 
L 226.906221 39.61618 
L 230.883724 39.616763 
L 234.861226 39.617395 
L 238.838728 39.618078 
L 242.81623 39.618818 
L 246.793733 39.619618 
L 250.771235 39.620485 
L 254.748737 39.621422 
L 258.72624 39.622437 
L 262.703742 39.623535 
L 266.681244 39.624723 
L 270.658747 39.626009 
L 274.636249 39.627401 
L 278.613751 39.628907 
L 282.591253 39.630537 
L 286.568756 39.632302 
L 290.546258 39.634211 
L 294.52376 39.636277 
L 298.501263 39.638513 
L 302.478765 39.640933 
L 306.456267 39.643552 
L 310.43377 39.646386 
L 314.411272 39.649453 
L 318.388774 39.652773 
L 322.366276 39.656365 
L 326.343779 39.660253 
L 330.321281 39.66446 
L 334.298783 39.669013 
L 338.276286 39.673941 
L 342.253788 39.679274 
L 346.23129 39.685045 
L 350.208792 39.69129 
L 354.186295 39.698048 
L 358.163797 39.705363 
L 362.141299 39.713278 
L 366.118802 39.721844 
L 370.096304 39.731114 
L 374.073806 39.741145 
L 378.051309 39.752001 
L 382.028811 39.763749 
L 386.006313 39.776462 
L 389.983815 39.790219 
L 393.961318 39.805107 
L 397.93882 39.821218 
L 401.916322 39.838651 
L 405.893825 39.857517 
L 409.871327 39.877931 
L 413.848829 39.900022 
L 417.826331 39.923926 
L 421.803834 39.949792 
L 425.781336 39.977781 
L 429.758838 40.008066 
L 433.736341 40.040836 
L 437.713843 40.076294 
L 441.691345 40.11466 
L 445.668848 40.156171 
L 449.64635 40.201085 
L 453.623852 40.249679 
L 457.601354 40.302253 
L 461.578857 40.359134 
L 465.556359 40.42067 
L 469.533861 40.487242 
L 473.511364 40.55926 
" style="fill:none;stroke:#bf00bf;stroke-linecap:square;stroke-width:2;"/>
   </g>
   <g id="line2d_52">
    <path clip-path="url(#pdefa8d67ea)" d="M 79.738636 39.610254 
L 83.716139 39.61035 
L 87.693641 39.610455 
L 91.671143 39.610567 
L 95.648646 39.610689 
L 99.626148 39.610821 
L 103.60365 39.610964 
L 107.581152 39.611119 
L 111.558655 39.611286 
L 115.536157 39.611467 
L 119.513659 39.611663 
L 123.491162 39.611875 
L 127.468664 39.612105 
L 131.446166 39.612353 
L 135.423669 39.612622 
L 139.401171 39.612913 
L 143.378673 39.613228 
L 147.356175 39.613569 
L 151.333678 39.613937 
L 155.31118 39.614337 
L 159.288682 39.614769 
L 163.266185 39.615236 
L 167.243687 39.615742 
L 171.221189 39.616289 
L 175.198691 39.616882 
L 179.176194 39.617523 
L 183.153696 39.618217 
L 187.131198 39.618968 
L 191.108701 39.619781 
L 195.086203 39.620661 
L 199.063705 39.621613 
L 203.041208 39.622643 
L 207.01871 39.623758 
L 210.996212 39.624965 
L 214.973714 39.626271 
L 218.951217 39.627684 
L 222.928719 39.629214 
L 226.906221 39.630869 
L 230.883724 39.63266 
L 234.861226 39.634599 
L 238.838728 39.636697 
L 242.81623 39.638968 
L 246.793733 39.641425 
L 250.771235 39.644085 
L 254.748737 39.646963 
L 258.72624 39.650078 
L 262.703742 39.653448 
L 266.681244 39.657096 
L 270.658747 39.661044 
L 274.636249 39.665317 
L 278.613751 39.66994 
L 282.591253 39.674944 
L 286.568756 39.680359 
L 290.546258 39.686219 
L 294.52376 39.692561 
L 298.501263 39.699425 
L 302.478765 39.706852 
L 306.456267 39.71489 
L 310.43377 39.723588 
L 314.411272 39.733002 
L 318.388774 39.743189 
L 322.366276 39.754213 
L 326.343779 39.766142 
L 330.321281 39.779053 
L 334.298783 39.793023 
L 338.276286 39.808142 
L 342.253788 39.824502 
L 346.23129 39.842206 
L 350.208792 39.861364 
L 354.186295 39.882096 
L 358.163797 39.90453 
L 362.141299 39.928805 
L 366.118802 39.955073 
L 370.096304 39.983497 
L 374.073806 40.014254 
L 378.051309 40.047534 
L 382.028811 40.083544 
L 386.006313 40.122508 
L 389.983815 40.164667 
L 393.961318 40.210281 
L 397.93882 40.259634 
L 401.916322 40.313031 
L 405.893825 40.370801 
L 409.871327 40.433301 
L 413.848829 40.500917 
L 417.826331 40.574066 
L 421.803834 40.653197 
L 425.781336 40.738797 
L 429.758838 40.831391 
L 433.736341 40.931547 
L 437.713843 41.039877 
L 441.691345 41.157044 
L 445.668848 41.283762 
L 449.64635 41.420801 
L 453.623852 41.568994 
L 457.601354 41.729239 
L 461.578857 41.902503 
L 465.556359 42.089831 
L 469.533861 42.292348 
L 473.511364 42.511265 
" style="fill:none;stroke:#bfbf00;stroke-linecap:square;stroke-width:2;"/>
   </g>
   <g id="line2d_53">
    <path clip-path="url(#pdefa8d67ea)" d="M 79.738636 39.613049 
L 83.716139 39.613375 
L 87.693641 39.613728 
L 91.671143 39.61411 
L 95.648646 39.614523 
L 99.626148 39.61497 
L 103.60365 39.615455 
L 107.581152 39.615978 
L 111.558655 39.616545 
L 115.536157 39.617159 
L 119.513659 39.617823 
L 123.491162 39.618542 
L 127.468664 39.619319 
L 131.446166 39.620161 
L 135.423669 39.621072 
L 139.401171 39.622058 
L 143.378673 39.623125 
L 147.356175 39.624279 
L 151.333678 39.625529 
L 155.31118 39.626881 
L 159.288682 39.628345 
L 163.266185 39.629929 
L 167.243687 39.631643 
L 171.221189 39.633498 
L 175.198691 39.635505 
L 179.176194 39.637678 
L 183.153696 39.640029 
L 187.131198 39.642574 
L 191.108701 39.645328 
L 195.086203 39.648308 
L 199.063705 39.651533 
L 203.041208 39.655024 
L 207.01871 39.658801 
L 210.996212 39.662889 
L 214.973714 39.667314 
L 218.951217 39.672101 
L 222.928719 39.677283 
L 226.906221 39.68289 
L 230.883724 39.688959 
L 234.861226 39.695526 
L 238.838728 39.702633 
L 242.81623 39.710324 
L 246.793733 39.718647 
L 250.771235 39.727655 
L 254.748737 39.737402 
L 258.72624 39.747951 
L 262.703742 39.759366 
L 266.681244 39.77172 
L 270.658747 39.785088 
L 274.636249 39.799555 
L 278.613751 39.81521 
L 282.591253 39.832152 
L 286.568756 39.850485 
L 290.546258 39.870323 
L 294.52376 39.89179 
L 298.501263 39.915021 
L 302.478765 39.940158 
L 306.456267 39.967359 
L 310.43377 39.996792 
L 314.411272 40.02864 
L 318.388774 40.063102 
L 322.366276 40.100391 
L 326.343779 40.140737 
L 330.321281 40.184392 
L 334.298783 40.231626 
L 338.276286 40.282731 
L 342.253788 40.338022 
L 346.23129 40.397843 
L 350.208792 40.462561 
L 354.186295 40.532577 
L 358.163797 40.608321 
L 362.141299 40.690259 
L 366.118802 40.778896 
L 370.096304 40.874775 
L 374.073806 40.978484 
L 378.051309 41.090657 
L 382.028811 41.211979 
L 386.006313 41.34319 
L 389.983815 41.485089 
L 393.961318 41.638536 
L 397.93882 41.804461 
L 401.916322 41.983866 
L 405.893825 42.177833 
L 409.871327 42.387524 
L 413.848829 42.614197 
L 417.826331 42.859203 
L 421.803834 43.123998 
L 425.781336 43.410149 
L 429.758838 43.719341 
L 433.736341 44.053387 
L 437.713843 44.414236 
L 441.691345 44.803981 
L 445.668848 45.224867 
L 449.64635 45.679304 
L 453.623852 46.169877 
L 457.601354 46.699353 
L 461.578857 47.270693 
L 465.556359 47.887064 
L 469.533861 48.551852 
L 473.511364 49.268665 
" style="fill:none;stroke:#000000;stroke-linecap:square;stroke-width:2;"/>
   </g>
   <g id="line2d_54">
    <path clip-path="url(#pdefa8d67ea)" d="M 79.738636 39.623541 
L 83.716139 39.624729 
L 87.693641 39.626016 
L 91.671143 39.627408 
L 95.648646 39.628915 
L 99.626148 39.630546 
L 103.60365 39.632311 
L 107.581152 39.634221 
L 111.558655 39.636288 
L 115.536157 39.638525 
L 119.513659 39.640946 
L 123.491162 39.643566 
L 127.468664 39.646401 
L 131.446166 39.64947 
L 135.423669 39.652791 
L 139.401171 39.656385 
L 143.378673 39.660274 
L 147.356175 39.664483 
L 151.333678 39.669038 
L 155.31118 39.673968 
L 159.288682 39.679303 
L 163.266185 39.685076 
L 167.243687 39.691324 
L 171.221189 39.698086 
L 175.198691 39.705404 
L 179.176194 39.713323 
L 183.153696 39.721892 
L 187.131198 39.731166 
L 191.108701 39.741203 
L 195.086203 39.752064 
L 199.063705 39.763817 
L 203.041208 39.776536 
L 207.01871 39.790301 
L 210.996212 39.805196 
L 214.973714 39.821315 
L 218.951217 39.838757 
L 222.928719 39.857633 
L 226.906221 39.878058 
L 230.883724 39.900161 
L 234.861226 39.924079 
L 238.838728 39.94996 
L 242.81623 39.977966 
L 246.793733 40.00827 
L 250.771235 40.04106 
L 254.748737 40.076541 
L 258.72624 40.114933 
L 262.703742 40.156473 
L 266.681244 40.201418 
L 270.658747 40.250048 
L 274.636249 40.302663 
L 278.613751 40.359589 
L 282.591253 40.421177 
L 286.568756 40.487807 
L 290.546258 40.55989 
L 294.52376 40.63787 
L 298.501263 40.722227 
L 302.478765 40.81348 
L 306.456267 40.912187 
L 310.43377 41.018953 
L 314.411272 41.134433 
L 318.388774 41.259329 
L 322.366276 41.394405 
L 326.343779 41.54048 
L 330.321281 41.698442 
L 334.298783 41.869246 
L 338.276286 42.053923 
L 342.253788 42.253586 
L 346.23129 42.469431 
L 350.208792 42.702751 
L 354.186295 42.954935 
L 358.163797 43.227481 
L 362.141299 43.522 
L 366.118802 43.840225 
L 370.096304 44.18402 
L 374.073806 44.555386 
L 378.051309 44.956475 
L 382.028811 45.389595 
L 386.006313 45.857222 
L 389.983815 46.36201 
L 393.961318 46.9068 
L 397.93882 47.494635 
L 401.916322 48.128766 
L 405.893825 48.812664 
L 409.871327 49.550037 
L 413.848829 50.344832 
L 417.826331 51.201252 
L 421.803834 52.123764 
L 425.781336 53.117111 
L 429.758838 54.186316 
L 433.736341 55.336697 
L 437.713843 56.573869 
L 441.691345 57.903748 
L 445.668848 59.33256 
L 449.64635 60.866837 
L 453.623852 62.513417 
L 457.601354 64.279439 
L 461.578857 66.172337 
L 465.556359 68.199825 
L 469.533861 70.369886 
L 473.511364 72.690746 
" style="fill:none;stroke:#ff0000;stroke-linecap:square;stroke-width:2;"/>
   </g>
   <g id="line2d_55">
    <path clip-path="url(#pdefa8d67ea)" d="M 79.738636 39.664277 
L 83.716139 39.668815 
L 87.693641 39.673726 
L 91.671143 39.679041 
L 95.648646 39.684793 
L 99.626148 39.691018 
L 103.60365 39.697755 
L 107.581152 39.705045 
L 111.558655 39.712934 
L 115.536157 39.721472 
L 119.513659 39.730712 
L 123.491162 39.740711 
L 127.468664 39.751531 
L 131.446166 39.763241 
L 135.423669 39.775913 
L 139.401171 39.789626 
L 143.378673 39.804466 
L 147.356175 39.820524 
L 151.333678 39.837902 
L 155.31118 39.856708 
L 159.288682 39.877057 
L 163.266185 39.899078 
L 167.243687 39.922907 
L 171.221189 39.948692 
L 175.198691 39.976593 
L 179.176194 40.006785 
L 183.153696 40.039454 
L 187.131198 40.074803 
L 191.108701 40.113052 
L 195.086203 40.154438 
L 199.063705 40.199217 
L 203.041208 40.247666 
L 207.01871 40.300087 
L 210.996212 40.356802 
L 214.973714 40.418162 
L 218.951217 40.484545 
L 222.928719 40.556362 
L 226.906221 40.634055 
L 230.883724 40.7181 
L 234.861226 40.809016 
L 238.838728 40.90736 
L 242.81623 41.013734 
L 246.793733 41.128789 
L 250.771235 41.253227 
L 254.748737 41.387807 
L 258.72624 41.533348 
L 262.703742 41.690732 
L 266.681244 41.860912 
L 270.658747 42.044916 
L 274.636249 42.243853 
L 278.613751 42.458914 
L 282.591253 42.691389 
L 286.568756 42.942662 
L 290.546258 43.214226 
L 294.52376 43.507686 
L 298.501263 43.82477 
L 302.478765 44.167337 
L 306.456267 44.537381 
L 310.43377 44.937048 
L 314.411272 45.368638 
L 318.388774 45.83462 
L 322.366276 46.337641 
L 326.343779 46.880535 
L 330.321281 47.466335 
L 334.298783 48.098284 
L 338.276286 48.779845 
L 342.253788 49.514715 
L 346.23129 50.306834 
L 350.208792 51.160394 
L 354.186295 52.079855 
L 358.163797 53.069947 
L 362.141299 54.135688 
L 366.118802 55.282384 
L 370.096304 56.515643 
L 374.073806 57.841374 
L 378.051309 59.265796 
L 382.028811 60.795434 
L 386.006313 62.437123 
L 389.983815 64.198 
L 393.961318 66.085498 
L 397.93882 68.107334 
L 401.916322 70.271494 
L 405.893825 72.586213 
L 409.871327 75.059951 
L 413.848829 77.701363 
L 417.826331 80.519261 
L 421.803834 83.522577 
L 425.781336 86.720317 
L 429.758838 90.121504 
L 433.736341 93.735126 
L 437.713843 97.570075 
L 441.691345 101.635074 
L 445.668848 105.938615 
L 449.64635 110.488882 
L 453.623852 115.293677 
L 457.601354 120.360347 
L 461.578857 125.695707 
L 465.556359 131.305971 
L 469.533861 137.196683 
L 473.511364 143.372655 
" style="fill:none;stroke:#0000ff;stroke-linecap:square;stroke-width:2;"/>
   </g>
   <g id="line2d_56">
    <path clip-path="url(#pdefa8d67ea)" d="M 79.738636 39.825301 
L 83.716139 39.843071 
L 87.693641 39.8623 
L 91.671143 39.883109 
L 95.648646 39.905627 
L 99.626148 39.929993 
L 103.60365 39.95636 
L 107.581152 39.984891 
L 111.558655 40.015764 
L 115.536157 40.04917 
L 119.513659 40.085316 
L 123.491162 40.124427 
L 127.468664 40.166746 
L 131.446166 40.212534 
L 135.423669 40.262075 
L 139.401171 40.315676 
L 143.378673 40.373668 
L 147.356175 40.436409 
L 151.333678 40.504287 
L 155.31118 40.577719 
L 159.288682 40.657158 
L 163.266185 40.743093 
L 167.243687 40.836052 
L 171.221189 40.936603 
L 175.198691 41.045365 
L 179.176194 41.163 
L 183.153696 41.290228 
L 187.131198 41.427823 
L 191.108701 41.576622 
L 195.086203 41.737526 
L 199.063705 41.91151 
L 203.041208 42.099623 
L 207.01871 42.302996 
L 210.996212 42.52285 
L 214.973714 42.760499 
L 218.951217 43.017357 
L 222.928719 43.294949 
L 226.906221 43.594914 
L 230.883724 43.919016 
L 234.861226 44.269151 
L 238.838728 44.647356 
L 242.81623 45.055819 
L 246.793733 45.496888 
L 250.771235 45.973081 
L 254.748737 46.487097 
L 258.72624 47.041825 
L 262.703742 47.640356 
L 266.681244 48.285997 
L 270.658747 48.982275 
L 274.636249 49.732956 
L 278.613751 50.54205 
L 282.591253 51.413825 
L 286.568756 52.352817 
L 290.546258 53.363839 
L 294.52376 54.451989 
L 298.501263 55.62266 
L 302.478765 56.881547 
L 306.456267 58.234647 
L 310.43377 59.688269 
L 314.411272 61.249029 
L 318.388774 62.923849 
L 322.366276 64.719954 
L 326.343779 66.644863 
L 330.321281 68.706376 
L 334.298783 70.912555 
L 338.276286 73.271707 
L 342.253788 75.792358 
L 346.23129 78.483215 
L 350.208792 81.35314 
L 354.186295 84.411096 
L 358.163797 87.666111 
L 362.141299 91.127214 
L 366.118802 94.803385 
L 370.096304 98.703487 
L 374.073806 102.836201 
L 378.051309 107.209955 
L 382.028811 111.832849 
L 386.006313 116.712585 
L 389.983815 121.856386 
L 393.961318 127.27093 
L 397.93882 132.962272 
L 401.916322 138.935782 
L 405.893825 145.196082 
L 409.871327 151.746994 
L 413.848829 158.591492 
L 417.826331 165.731667 
L 421.803834 173.168698 
L 425.781336 180.902845 
L 429.758838 188.933436 
L 433.736341 197.258881 
L 437.713843 205.87669 
L 441.691345 214.783503 
L 445.668848 223.97513 
L 449.64635 233.4466 
L 453.623852 243.192218 
L 457.601354 253.205629 
L 461.578857 263.479887 
L 465.556359 274.007524 
L 469.533861 284.780627 
L 473.511364 295.790909 
" style="fill:none;stroke:#008000;stroke-linecap:square;stroke-width:2;"/>
   </g>
   <g id="patch_3">
    <path d="M 60.05 308.6 
L 60.05 26.8 
" style="fill:none;stroke:#000000;stroke-linecap:square;stroke-linejoin:miter;stroke-width:0.8;"/>
   </g>
   <g id="patch_4">
    <path d="M 493.2 308.6 
L 493.2 26.8 
" style="fill:none;stroke:#000000;stroke-linecap:square;stroke-linejoin:miter;stroke-width:0.8;"/>
   </g>
   <g id="patch_5">
    <path d="M 60.05 308.6 
L 493.2 308.6 
" style="fill:none;stroke:#000000;stroke-linecap:square;stroke-linejoin:miter;stroke-width:0.8;"/>
   </g>
   <g id="patch_6">
    <path d="M 60.05 26.8 
L 493.2 26.8 
" style="fill:none;stroke:#000000;stroke-linecap:square;stroke-linejoin:miter;stroke-width:0.8;"/>
   </g>
   <g id="text_12">
    <!-- Bandwidth limited amplifier - zoomed -->
    <g transform="translate(163.75375 20.8)scale(0.12 -0.12)">
     <defs>
      <path d="M 4.203125 54.6875 
L 13.1875 54.6875 
L 24.421875 12.015625 
L 35.59375 54.6875 
L 46.1875 54.6875 
L 57.421875 12.015625 
L 68.609375 54.6875 
L 77.59375 54.6875 
L 63.28125 0 
L 52.6875 0 
L 40.921875 44.828125 
L 29.109375 0 
L 18.5 0 
z
" id="DejaVuSans-119"/>
      <path d="M 54.890625 33.015625 
L 54.890625 0 
L 45.90625 0 
L 45.90625 32.71875 
Q 45.90625 40.484375 42.875 44.328125 
Q 39.84375 48.1875 33.796875 48.1875 
Q 26.515625 48.1875 22.3125 43.546875 
Q 18.109375 38.921875 18.109375 30.90625 
L 18.109375 0 
L 9.078125 0 
L 9.078125 75.984375 
L 18.109375 75.984375 
L 18.109375 46.1875 
Q 21.34375 51.125 25.703125 53.5625 
Q 30.078125 56 35.796875 56 
Q 45.21875 56 50.046875 50.171875 
Q 54.890625 44.34375 54.890625 33.015625 
z
" id="DejaVuSans-104"/>
      <path d="M 9.421875 75.984375 
L 18.40625 75.984375 
L 18.40625 0 
L 9.421875 0 
z
" id="DejaVuSans-108"/>
      <path d="M 18.109375 8.203125 
L 18.109375 -20.796875 
L 9.078125 -20.796875 
L 9.078125 54.6875 
L 18.109375 54.6875 
L 18.109375 46.390625 
Q 20.953125 51.265625 25.265625 53.625 
Q 29.59375 56 35.59375 56 
Q 45.5625 56 51.78125 48.09375 
Q 58.015625 40.1875 58.015625 27.296875 
Q 58.015625 14.40625 51.78125 6.484375 
Q 45.5625 -1.421875 35.59375 -1.421875 
Q 29.59375 -1.421875 25.265625 0.953125 
Q 20.953125 3.328125 18.109375 8.203125 
z
M 48.6875 27.296875 
Q 48.6875 37.203125 44.609375 42.84375 
Q 40.53125 48.484375 33.40625 48.484375 
Q 26.265625 48.484375 22.1875 42.84375 
Q 18.109375 37.203125 18.109375 27.296875 
Q 18.109375 17.390625 22.1875 11.75 
Q 26.265625 6.109375 33.40625 6.109375 
Q 40.53125 6.109375 44.609375 11.75 
Q 48.6875 17.390625 48.6875 27.296875 
z
" id="DejaVuSans-112"/>
      <path d="M 4.890625 31.390625 
L 31.203125 31.390625 
L 31.203125 23.390625 
L 4.890625 23.390625 
z
" id="DejaVuSans-45"/>
      <path d="M 30.609375 48.390625 
Q 23.390625 48.390625 19.1875 42.75 
Q 14.984375 37.109375 14.984375 27.296875 
Q 14.984375 17.484375 19.15625 11.84375 
Q 23.34375 6.203125 30.609375 6.203125 
Q 37.796875 6.203125 41.984375 11.859375 
Q 46.1875 17.53125 46.1875 27.296875 
Q 46.1875 37.015625 41.984375 42.703125 
Q 37.796875 48.390625 30.609375 48.390625 
z
M 30.609375 56 
Q 42.328125 56 49.015625 48.375 
Q 55.71875 40.765625 55.71875 27.296875 
Q 55.71875 13.875 49.015625 6.21875 
Q 42.328125 -1.421875 30.609375 -1.421875 
Q 18.84375 -1.421875 12.171875 6.21875 
Q 5.515625 13.875 5.515625 27.296875 
Q 5.515625 40.765625 12.171875 48.375 
Q 18.84375 56 30.609375 56 
z
" id="DejaVuSans-111"/>
     </defs>
     <use xlink:href="#DejaVuSans-66"/>
     <use x="68.603516" xlink:href="#DejaVuSans-97"/>
     <use x="129.882812" xlink:href="#DejaVuSans-110"/>
     <use x="193.261719" xlink:href="#DejaVuSans-100"/>
     <use x="256.738281" xlink:href="#DejaVuSans-119"/>
     <use x="338.525391" xlink:href="#DejaVuSans-105"/>
     <use x="366.308594" xlink:href="#DejaVuSans-100"/>
     <use x="429.785156" xlink:href="#DejaVuSans-116"/>
     <use x="468.994141" xlink:href="#DejaVuSans-104"/>
     <use x="532.373047" xlink:href="#DejaVuSans-32"/>
     <use x="564.160156" xlink:href="#DejaVuSans-108"/>
     <use x="591.943359" xlink:href="#DejaVuSans-105"/>
     <use x="619.726562" xlink:href="#DejaVuSans-109"/>
     <use x="717.138672" xlink:href="#DejaVuSans-105"/>
     <use x="744.921875" xlink:href="#DejaVuSans-116"/>
     <use x="784.130859" xlink:href="#DejaVuSans-101"/>
     <use x="845.654297" xlink:href="#DejaVuSans-100"/>
     <use x="909.130859" xlink:href="#DejaVuSans-32"/>
     <use x="940.917969" xlink:href="#DejaVuSans-97"/>
     <use x="1002.197266" xlink:href="#DejaVuSans-109"/>
     <use x="1099.609375" xlink:href="#DejaVuSans-112"/>
     <use x="1163.085938" xlink:href="#DejaVuSans-108"/>
     <use x="1190.869141" xlink:href="#DejaVuSans-105"/>
     <use x="1218.652344" xlink:href="#DejaVuSans-102"/>
     <use x="1253.857422" xlink:href="#DejaVuSans-105"/>
     <use x="1281.640625" xlink:href="#DejaVuSans-101"/>
     <use x="1343.164062" xlink:href="#DejaVuSans-114"/>
     <use x="1384.277344" xlink:href="#DejaVuSans-32"/>
     <use x="1416.064453" xlink:href="#DejaVuSans-45"/>
     <use x="1452.148438" xlink:href="#DejaVuSans-32"/>
     <use x="1483.935547" xlink:href="#DejaVuSans-122"/>
     <use x="1536.425781" xlink:href="#DejaVuSans-111"/>
     <use x="1597.607422" xlink:href="#DejaVuSans-111"/>
     <use x="1658.789062" xlink:href="#DejaVuSans-109"/>
     <use x="1756.201172" xlink:href="#DejaVuSans-101"/>
     <use x="1817.724609" xlink:href="#DejaVuSans-100"/>
    </g>
   </g>
   <g id="legend_1">
    <g id="patch_7">
     <path d="M 67.05 303.6 
L 215.7375 303.6 
Q 217.7375 303.6 217.7375 301.6 
L 217.7375 185.4625 
Q 217.7375 183.4625 215.7375 183.4625 
L 67.05 183.4625 
Q 65.05 183.4625 65.05 185.4625 
L 65.05 301.6 
Q 65.05 303.6 67.05 303.6 
z
" style="fill:#ffffff;opacity:0.8;stroke:#cccccc;stroke-linejoin:miter;"/>
    </g>
    <g id="line2d_57">
     <path d="M 67.05 191.080625 
L 77.05 191.080625 
" style="fill:none;stroke:#ff0000;stroke-linecap:square;stroke-width:2;"/>
    </g>
    <g id="line2d_58"/>
    <g id="text_13">
     <!-- gain, Rphz =  1.0e+00 -->
     <g transform="translate(79.05 194.580625)scale(0.12 -0.12)">
      <defs>
       <path d="M 11.71875 12.40625 
L 22.015625 12.40625 
L 22.015625 4 
L 14.015625 -11.625 
L 7.71875 -11.625 
L 11.71875 4 
z
" id="DejaVuSans-44"/>
       <path d="M 44.390625 34.1875 
Q 47.5625 33.109375 50.5625 29.59375 
Q 53.5625 26.078125 56.59375 19.921875 
L 66.609375 0 
L 56 0 
L 46.6875 18.703125 
Q 43.0625 26.03125 39.671875 28.421875 
Q 36.28125 30.8125 30.421875 30.8125 
L 19.671875 30.8125 
L 19.671875 0 
L 9.8125 0 
L 9.8125 72.90625 
L 32.078125 72.90625 
Q 44.578125 72.90625 50.734375 67.671875 
Q 56.890625 62.453125 56.890625 51.90625 
Q 56.890625 45.015625 53.6875 40.46875 
Q 50.484375 35.9375 44.390625 34.1875 
z
M 19.671875 64.796875 
L 19.671875 38.921875 
L 32.078125 38.921875 
Q 39.203125 38.921875 42.84375 42.21875 
Q 46.484375 45.515625 46.484375 51.90625 
Q 46.484375 58.296875 42.84375 61.546875 
Q 39.203125 64.796875 32.078125 64.796875 
z
" id="DejaVuSans-82"/>
       <path d="M 10.59375 45.40625 
L 73.1875 45.40625 
L 73.1875 37.203125 
L 10.59375 37.203125 
z
M 10.59375 25.484375 
L 73.1875 25.484375 
L 73.1875 17.1875 
L 10.59375 17.1875 
z
" id="DejaVuSans-61"/>
       <path d="M 10.6875 12.40625 
L 21 12.40625 
L 21 0 
L 10.6875 0 
z
" id="DejaVuSans-46"/>
       <path d="M 46 62.703125 
L 46 35.5 
L 73.1875 35.5 
L 73.1875 27.203125 
L 46 27.203125 
L 46 0 
L 37.796875 0 
L 37.796875 27.203125 
L 10.59375 27.203125 
L 10.59375 35.5 
L 37.796875 35.5 
L 37.796875 62.703125 
z
" id="DejaVuSans-43"/>
      </defs>
      <use xlink:href="#DejaVuSans-103"/>
      <use x="63.476562" xlink:href="#DejaVuSans-97"/>
      <use x="124.755859" xlink:href="#DejaVuSans-105"/>
      <use x="152.539062" xlink:href="#DejaVuSans-110"/>
      <use x="215.917969" xlink:href="#DejaVuSans-44"/>
      <use x="247.705078" xlink:href="#DejaVuSans-32"/>
      <use x="279.492188" xlink:href="#DejaVuSans-82"/>
      <use x="348.974609" xlink:href="#DejaVuSans-112"/>
      <use x="412.451172" xlink:href="#DejaVuSans-104"/>
      <use x="475.830078" xlink:href="#DejaVuSans-122"/>
      <use x="528.320312" xlink:href="#DejaVuSans-32"/>
      <use x="560.107422" xlink:href="#DejaVuSans-61"/>
      <use x="643.896484" xlink:href="#DejaVuSans-32"/>
      <use x="675.683594" xlink:href="#DejaVuSans-32"/>
      <use x="707.470703" xlink:href="#DejaVuSans-49"/>
      <use x="771.09375" xlink:href="#DejaVuSans-46"/>
      <use x="802.880859" xlink:href="#DejaVuSans-48"/>
      <use x="866.503906" xlink:href="#DejaVuSans-101"/>
      <use x="928.027344" xlink:href="#DejaVuSans-43"/>
      <use x="1011.816406" xlink:href="#DejaVuSans-48"/>
      <use x="1075.439453" xlink:href="#DejaVuSans-48"/>
     </g>
    </g>
    <g id="line2d_59">
     <path d="M 67.05 202.694375 
L 77.05 202.694375 
" style="fill:none;stroke:#0000ff;stroke-linecap:square;stroke-width:2;"/>
    </g>
    <g id="line2d_60"/>
    <g id="text_14">
     <!-- gain, Rphz =  2.0e+00 -->
     <g transform="translate(79.05 206.194375)scale(0.12 -0.12)">
      <use xlink:href="#DejaVuSans-103"/>
      <use x="63.476562" xlink:href="#DejaVuSans-97"/>
      <use x="124.755859" xlink:href="#DejaVuSans-105"/>
      <use x="152.539062" xlink:href="#DejaVuSans-110"/>
      <use x="215.917969" xlink:href="#DejaVuSans-44"/>
      <use x="247.705078" xlink:href="#DejaVuSans-32"/>
      <use x="279.492188" xlink:href="#DejaVuSans-82"/>
      <use x="348.974609" xlink:href="#DejaVuSans-112"/>
      <use x="412.451172" xlink:href="#DejaVuSans-104"/>
      <use x="475.830078" xlink:href="#DejaVuSans-122"/>
      <use x="528.320312" xlink:href="#DejaVuSans-32"/>
      <use x="560.107422" xlink:href="#DejaVuSans-61"/>
      <use x="643.896484" xlink:href="#DejaVuSans-32"/>
      <use x="675.683594" xlink:href="#DejaVuSans-32"/>
      <use x="707.470703" xlink:href="#DejaVuSans-50"/>
      <use x="771.09375" xlink:href="#DejaVuSans-46"/>
      <use x="802.880859" xlink:href="#DejaVuSans-48"/>
      <use x="866.503906" xlink:href="#DejaVuSans-101"/>
      <use x="928.027344" xlink:href="#DejaVuSans-43"/>
      <use x="1011.816406" xlink:href="#DejaVuSans-48"/>
      <use x="1075.439453" xlink:href="#DejaVuSans-48"/>
     </g>
    </g>
    <g id="line2d_61">
     <path d="M 67.05 214.308125 
L 77.05 214.308125 
" style="fill:none;stroke:#008000;stroke-linecap:square;stroke-width:2;"/>
    </g>
    <g id="line2d_62"/>
    <g id="text_15">
     <!-- gain, Rphz =  4.0e+00 -->
     <g transform="translate(79.05 217.808125)scale(0.12 -0.12)">
      <defs>
       <path d="M 37.796875 64.3125 
L 12.890625 25.390625 
L 37.796875 25.390625 
z
M 35.203125 72.90625 
L 47.609375 72.90625 
L 47.609375 25.390625 
L 58.015625 25.390625 
L 58.015625 17.1875 
L 47.609375 17.1875 
L 47.609375 0 
L 37.796875 0 
L 37.796875 17.1875 
L 4.890625 17.1875 
L 4.890625 26.703125 
z
" id="DejaVuSans-52"/>
      </defs>
      <use xlink:href="#DejaVuSans-103"/>
      <use x="63.476562" xlink:href="#DejaVuSans-97"/>
      <use x="124.755859" xlink:href="#DejaVuSans-105"/>
      <use x="152.539062" xlink:href="#DejaVuSans-110"/>
      <use x="215.917969" xlink:href="#DejaVuSans-44"/>
      <use x="247.705078" xlink:href="#DejaVuSans-32"/>
      <use x="279.492188" xlink:href="#DejaVuSans-82"/>
      <use x="348.974609" xlink:href="#DejaVuSans-112"/>
      <use x="412.451172" xlink:href="#DejaVuSans-104"/>
      <use x="475.830078" xlink:href="#DejaVuSans-122"/>
      <use x="528.320312" xlink:href="#DejaVuSans-32"/>
      <use x="560.107422" xlink:href="#DejaVuSans-61"/>
      <use x="643.896484" xlink:href="#DejaVuSans-32"/>
      <use x="675.683594" xlink:href="#DejaVuSans-32"/>
      <use x="707.470703" xlink:href="#DejaVuSans-52"/>
      <use x="771.09375" xlink:href="#DejaVuSans-46"/>
      <use x="802.880859" xlink:href="#DejaVuSans-48"/>
      <use x="866.503906" xlink:href="#DejaVuSans-101"/>
      <use x="928.027344" xlink:href="#DejaVuSans-43"/>
      <use x="1011.816406" xlink:href="#DejaVuSans-48"/>
      <use x="1075.439453" xlink:href="#DejaVuSans-48"/>
     </g>
    </g>
    <g id="line2d_63">
     <path d="M 67.05 225.921875 
L 77.05 225.921875 
" style="fill:none;stroke:#00bfbf;stroke-linecap:square;stroke-width:2;"/>
    </g>
    <g id="line2d_64"/>
    <g id="text_16">
     <!-- gain, Rphz =  8.1e+00 -->
     <g transform="translate(79.05 229.421875)scale(0.12 -0.12)">
      <use xlink:href="#DejaVuSans-103"/>
      <use x="63.476562" xlink:href="#DejaVuSans-97"/>
      <use x="124.755859" xlink:href="#DejaVuSans-105"/>
      <use x="152.539062" xlink:href="#DejaVuSans-110"/>
      <use x="215.917969" xlink:href="#DejaVuSans-44"/>
      <use x="247.705078" xlink:href="#DejaVuSans-32"/>
      <use x="279.492188" xlink:href="#DejaVuSans-82"/>
      <use x="348.974609" xlink:href="#DejaVuSans-112"/>
      <use x="412.451172" xlink:href="#DejaVuSans-104"/>
      <use x="475.830078" xlink:href="#DejaVuSans-122"/>
      <use x="528.320312" xlink:href="#DejaVuSans-32"/>
      <use x="560.107422" xlink:href="#DejaVuSans-61"/>
      <use x="643.896484" xlink:href="#DejaVuSans-32"/>
      <use x="675.683594" xlink:href="#DejaVuSans-32"/>
      <use x="707.470703" xlink:href="#DejaVuSans-56"/>
      <use x="771.09375" xlink:href="#DejaVuSans-46"/>
      <use x="802.880859" xlink:href="#DejaVuSans-49"/>
      <use x="866.503906" xlink:href="#DejaVuSans-101"/>
      <use x="928.027344" xlink:href="#DejaVuSans-43"/>
      <use x="1011.816406" xlink:href="#DejaVuSans-48"/>
      <use x="1075.439453" xlink:href="#DejaVuSans-48"/>
     </g>
    </g>
    <g id="line2d_65">
     <path d="M 67.05 237.535625 
L 77.05 237.535625 
" style="fill:none;stroke:#bf00bf;stroke-linecap:square;stroke-width:2;"/>
    </g>
    <g id="line2d_66"/>
    <g id="text_17">
     <!-- gain, Rphz =  1.6e+01 -->
     <g transform="translate(79.05 241.035625)scale(0.12 -0.12)">
      <use xlink:href="#DejaVuSans-103"/>
      <use x="63.476562" xlink:href="#DejaVuSans-97"/>
      <use x="124.755859" xlink:href="#DejaVuSans-105"/>
      <use x="152.539062" xlink:href="#DejaVuSans-110"/>
      <use x="215.917969" xlink:href="#DejaVuSans-44"/>
      <use x="247.705078" xlink:href="#DejaVuSans-32"/>
      <use x="279.492188" xlink:href="#DejaVuSans-82"/>
      <use x="348.974609" xlink:href="#DejaVuSans-112"/>
      <use x="412.451172" xlink:href="#DejaVuSans-104"/>
      <use x="475.830078" xlink:href="#DejaVuSans-122"/>
      <use x="528.320312" xlink:href="#DejaVuSans-32"/>
      <use x="560.107422" xlink:href="#DejaVuSans-61"/>
      <use x="643.896484" xlink:href="#DejaVuSans-32"/>
      <use x="675.683594" xlink:href="#DejaVuSans-32"/>
      <use x="707.470703" xlink:href="#DejaVuSans-49"/>
      <use x="771.09375" xlink:href="#DejaVuSans-46"/>
      <use x="802.880859" xlink:href="#DejaVuSans-54"/>
      <use x="866.503906" xlink:href="#DejaVuSans-101"/>
      <use x="928.027344" xlink:href="#DejaVuSans-43"/>
      <use x="1011.816406" xlink:href="#DejaVuSans-48"/>
      <use x="1075.439453" xlink:href="#DejaVuSans-49"/>
     </g>
    </g>
    <g id="line2d_67">
     <path d="M 67.05 249.149375 
L 77.05 249.149375 
" style="fill:none;stroke:#bfbf00;stroke-linecap:square;stroke-width:2;"/>
    </g>
    <g id="line2d_68"/>
    <g id="text_18">
     <!-- gain, Rphz =  3.3e+01 -->
     <g transform="translate(79.05 252.649375)scale(0.12 -0.12)">
      <defs>
       <path d="M 40.578125 39.3125 
Q 47.65625 37.796875 51.625 33 
Q 55.609375 28.21875 55.609375 21.1875 
Q 55.609375 10.40625 48.1875 4.484375 
Q 40.765625 -1.421875 27.09375 -1.421875 
Q 22.515625 -1.421875 17.65625 -0.515625 
Q 12.796875 0.390625 7.625 2.203125 
L 7.625 11.71875 
Q 11.71875 9.328125 16.59375 8.109375 
Q 21.484375 6.890625 26.8125 6.890625 
Q 36.078125 6.890625 40.9375 10.546875 
Q 45.796875 14.203125 45.796875 21.1875 
Q 45.796875 27.640625 41.28125 31.265625 
Q 36.765625 34.90625 28.71875 34.90625 
L 20.21875 34.90625 
L 20.21875 43.015625 
L 29.109375 43.015625 
Q 36.375 43.015625 40.234375 45.921875 
Q 44.09375 48.828125 44.09375 54.296875 
Q 44.09375 59.90625 40.109375 62.90625 
Q 36.140625 65.921875 28.71875 65.921875 
Q 24.65625 65.921875 20.015625 65.03125 
Q 15.375 64.15625 9.8125 62.3125 
L 9.8125 71.09375 
Q 15.4375 72.65625 20.34375 73.4375 
Q 25.25 74.21875 29.59375 74.21875 
Q 40.828125 74.21875 47.359375 69.109375 
Q 53.90625 64.015625 53.90625 55.328125 
Q 53.90625 49.265625 50.4375 45.09375 
Q 46.96875 40.921875 40.578125 39.3125 
z
" id="DejaVuSans-51"/>
      </defs>
      <use xlink:href="#DejaVuSans-103"/>
      <use x="63.476562" xlink:href="#DejaVuSans-97"/>
      <use x="124.755859" xlink:href="#DejaVuSans-105"/>
      <use x="152.539062" xlink:href="#DejaVuSans-110"/>
      <use x="215.917969" xlink:href="#DejaVuSans-44"/>
      <use x="247.705078" xlink:href="#DejaVuSans-32"/>
      <use x="279.492188" xlink:href="#DejaVuSans-82"/>
      <use x="348.974609" xlink:href="#DejaVuSans-112"/>
      <use x="412.451172" xlink:href="#DejaVuSans-104"/>
      <use x="475.830078" xlink:href="#DejaVuSans-122"/>
      <use x="528.320312" xlink:href="#DejaVuSans-32"/>
      <use x="560.107422" xlink:href="#DejaVuSans-61"/>
      <use x="643.896484" xlink:href="#DejaVuSans-32"/>
      <use x="675.683594" xlink:href="#DejaVuSans-32"/>
      <use x="707.470703" xlink:href="#DejaVuSans-51"/>
      <use x="771.09375" xlink:href="#DejaVuSans-46"/>
      <use x="802.880859" xlink:href="#DejaVuSans-51"/>
      <use x="866.503906" xlink:href="#DejaVuSans-101"/>
      <use x="928.027344" xlink:href="#DejaVuSans-43"/>
      <use x="1011.816406" xlink:href="#DejaVuSans-48"/>
      <use x="1075.439453" xlink:href="#DejaVuSans-49"/>
     </g>
    </g>
    <g id="line2d_69">
     <path d="M 67.05 260.763125 
L 77.05 260.763125 
" style="fill:none;stroke:#000000;stroke-linecap:square;stroke-width:2;"/>
    </g>
    <g id="line2d_70"/>
    <g id="text_19">
     <!-- gain, Rphz =  6.6e+01 -->
     <g transform="translate(79.05 264.263125)scale(0.12 -0.12)">
      <use xlink:href="#DejaVuSans-103"/>
      <use x="63.476562" xlink:href="#DejaVuSans-97"/>
      <use x="124.755859" xlink:href="#DejaVuSans-105"/>
      <use x="152.539062" xlink:href="#DejaVuSans-110"/>
      <use x="215.917969" xlink:href="#DejaVuSans-44"/>
      <use x="247.705078" xlink:href="#DejaVuSans-32"/>
      <use x="279.492188" xlink:href="#DejaVuSans-82"/>
      <use x="348.974609" xlink:href="#DejaVuSans-112"/>
      <use x="412.451172" xlink:href="#DejaVuSans-104"/>
      <use x="475.830078" xlink:href="#DejaVuSans-122"/>
      <use x="528.320312" xlink:href="#DejaVuSans-32"/>
      <use x="560.107422" xlink:href="#DejaVuSans-61"/>
      <use x="643.896484" xlink:href="#DejaVuSans-32"/>
      <use x="675.683594" xlink:href="#DejaVuSans-32"/>
      <use x="707.470703" xlink:href="#DejaVuSans-54"/>
      <use x="771.09375" xlink:href="#DejaVuSans-46"/>
      <use x="802.880859" xlink:href="#DejaVuSans-54"/>
      <use x="866.503906" xlink:href="#DejaVuSans-101"/>
      <use x="928.027344" xlink:href="#DejaVuSans-43"/>
      <use x="1011.816406" xlink:href="#DejaVuSans-48"/>
      <use x="1075.439453" xlink:href="#DejaVuSans-49"/>
     </g>
    </g>
    <g id="line2d_71">
     <path d="M 67.05 272.376875 
L 77.05 272.376875 
" style="fill:none;stroke:#ff0000;stroke-linecap:square;stroke-width:2;"/>
    </g>
    <g id="line2d_72"/>
    <g id="text_20">
     <!-- gain, Rphz =  1.3e+02 -->
     <g transform="translate(79.05 275.876875)scale(0.12 -0.12)">
      <use xlink:href="#DejaVuSans-103"/>
      <use x="63.476562" xlink:href="#DejaVuSans-97"/>
      <use x="124.755859" xlink:href="#DejaVuSans-105"/>
      <use x="152.539062" xlink:href="#DejaVuSans-110"/>
      <use x="215.917969" xlink:href="#DejaVuSans-44"/>
      <use x="247.705078" xlink:href="#DejaVuSans-32"/>
      <use x="279.492188" xlink:href="#DejaVuSans-82"/>
      <use x="348.974609" xlink:href="#DejaVuSans-112"/>
      <use x="412.451172" xlink:href="#DejaVuSans-104"/>
      <use x="475.830078" xlink:href="#DejaVuSans-122"/>
      <use x="528.320312" xlink:href="#DejaVuSans-32"/>
      <use x="560.107422" xlink:href="#DejaVuSans-61"/>
      <use x="643.896484" xlink:href="#DejaVuSans-32"/>
      <use x="675.683594" xlink:href="#DejaVuSans-32"/>
      <use x="707.470703" xlink:href="#DejaVuSans-49"/>
      <use x="771.09375" xlink:href="#DejaVuSans-46"/>
      <use x="802.880859" xlink:href="#DejaVuSans-51"/>
      <use x="866.503906" xlink:href="#DejaVuSans-101"/>
      <use x="928.027344" xlink:href="#DejaVuSans-43"/>
      <use x="1011.816406" xlink:href="#DejaVuSans-48"/>
      <use x="1075.439453" xlink:href="#DejaVuSans-50"/>
     </g>
    </g>
    <g id="line2d_73">
     <path d="M 67.05 283.990625 
L 77.05 283.990625 
" style="fill:none;stroke:#0000ff;stroke-linecap:square;stroke-width:2;"/>
    </g>
    <g id="line2d_74"/>
    <g id="text_21">
     <!-- gain, Rphz =  2.6e+02 -->
     <g transform="translate(79.05 287.490625)scale(0.12 -0.12)">
      <use xlink:href="#DejaVuSans-103"/>
      <use x="63.476562" xlink:href="#DejaVuSans-97"/>
      <use x="124.755859" xlink:href="#DejaVuSans-105"/>
      <use x="152.539062" xlink:href="#DejaVuSans-110"/>
      <use x="215.917969" xlink:href="#DejaVuSans-44"/>
      <use x="247.705078" xlink:href="#DejaVuSans-32"/>
      <use x="279.492188" xlink:href="#DejaVuSans-82"/>
      <use x="348.974609" xlink:href="#DejaVuSans-112"/>
      <use x="412.451172" xlink:href="#DejaVuSans-104"/>
      <use x="475.830078" xlink:href="#DejaVuSans-122"/>
      <use x="528.320312" xlink:href="#DejaVuSans-32"/>
      <use x="560.107422" xlink:href="#DejaVuSans-61"/>
      <use x="643.896484" xlink:href="#DejaVuSans-32"/>
      <use x="675.683594" xlink:href="#DejaVuSans-32"/>
      <use x="707.470703" xlink:href="#DejaVuSans-50"/>
      <use x="771.09375" xlink:href="#DejaVuSans-46"/>
      <use x="802.880859" xlink:href="#DejaVuSans-54"/>
      <use x="866.503906" xlink:href="#DejaVuSans-101"/>
      <use x="928.027344" xlink:href="#DejaVuSans-43"/>
      <use x="1011.816406" xlink:href="#DejaVuSans-48"/>
      <use x="1075.439453" xlink:href="#DejaVuSans-50"/>
     </g>
    </g>
    <g id="line2d_75">
     <path d="M 67.05 295.604375 
L 77.05 295.604375 
" style="fill:none;stroke:#008000;stroke-linecap:square;stroke-width:2;"/>
    </g>
    <g id="line2d_76"/>
    <g id="text_22">
     <!-- gain, Rphz =  5.3e+02 -->
     <g transform="translate(79.05 299.104375)scale(0.12 -0.12)">
      <defs>
       <path d="M 10.796875 72.90625 
L 49.515625 72.90625 
L 49.515625 64.59375 
L 19.828125 64.59375 
L 19.828125 46.734375 
Q 21.96875 47.46875 24.109375 47.828125 
Q 26.265625 48.1875 28.421875 48.1875 
Q 40.625 48.1875 47.75 41.5 
Q 54.890625 34.8125 54.890625 23.390625 
Q 54.890625 11.625 47.5625 5.09375 
Q 40.234375 -1.421875 26.90625 -1.421875 
Q 22.3125 -1.421875 17.546875 -0.640625 
Q 12.796875 0.140625 7.71875 1.703125 
L 7.71875 11.625 
Q 12.109375 9.234375 16.796875 8.0625 
Q 21.484375 6.890625 26.703125 6.890625 
Q 35.15625 6.890625 40.078125 11.328125 
Q 45.015625 15.765625 45.015625 23.390625 
Q 45.015625 31 40.078125 35.4375 
Q 35.15625 39.890625 26.703125 39.890625 
Q 22.75 39.890625 18.8125 39.015625 
Q 14.890625 38.140625 10.796875 36.28125 
z
" id="DejaVuSans-53"/>
      </defs>
      <use xlink:href="#DejaVuSans-103"/>
      <use x="63.476562" xlink:href="#DejaVuSans-97"/>
      <use x="124.755859" xlink:href="#DejaVuSans-105"/>
      <use x="152.539062" xlink:href="#DejaVuSans-110"/>
      <use x="215.917969" xlink:href="#DejaVuSans-44"/>
      <use x="247.705078" xlink:href="#DejaVuSans-32"/>
      <use x="279.492188" xlink:href="#DejaVuSans-82"/>
      <use x="348.974609" xlink:href="#DejaVuSans-112"/>
      <use x="412.451172" xlink:href="#DejaVuSans-104"/>
      <use x="475.830078" xlink:href="#DejaVuSans-122"/>
      <use x="528.320312" xlink:href="#DejaVuSans-32"/>
      <use x="560.107422" xlink:href="#DejaVuSans-61"/>
      <use x="643.896484" xlink:href="#DejaVuSans-32"/>
      <use x="675.683594" xlink:href="#DejaVuSans-32"/>
      <use x="707.470703" xlink:href="#DejaVuSans-53"/>
      <use x="771.09375" xlink:href="#DejaVuSans-46"/>
      <use x="802.880859" xlink:href="#DejaVuSans-51"/>
      <use x="866.503906" xlink:href="#DejaVuSans-101"/>
      <use x="928.027344" xlink:href="#DejaVuSans-43"/>
      <use x="1011.816406" xlink:href="#DejaVuSans-48"/>
      <use x="1075.439453" xlink:href="#DejaVuSans-50"/>
     </g>
    </g>
   </g>
  </g>
 </g>
 <defs>
  <clipPath id="pdefa8d67ea">
   <rect height="281.8" width="433.15" x="60.05" y="26.8"/>
  </clipPath>
 </defs>
</svg>
