<?xml version="1.0" encoding="utf-8" standalone="no"?>
<!DOCTYPE svg PUBLIC "-//W3C//DTD SVG 1.1//EN"
  "http://www.w3.org/Graphics/SVG/1.1/DTD/svg11.dtd">
<!-- Created with matplotlib (https://matplotlib.org/) -->
<svg height="360pt" version="1.1" viewBox="0 0 504 360" width="504pt" xmlns="http://www.w3.org/2000/svg" xmlns:xlink="http://www.w3.org/1999/xlink">
 <metadata>
  <rdf:RDF xmlns:cc="http://creativecommons.org/ns#" xmlns:dc="http://purl.org/dc/elements/1.1/" xmlns:rdf="http://www.w3.org/1999/02/22-rdf-syntax-ns#">
   <cc:Work>
    <dc:type rdf:resource="http://purl.org/dc/dcmitype/StillImage"/>
    <dc:date>2022-01-10T14:39:25.477600</dc:date>
    <dc:format>image/svg+xml</dc:format>
    <dc:creator>
     <cc:Agent>
      <dc:title>Matplotlib v3.3.4, https://matplotlib.org/</dc:title>
     </cc:Agent>
    </dc:creator>
   </cc:Work>
  </rdf:RDF>
 </metadata>
 <defs>
  <style type="text/css">*{stroke-linecap:butt;stroke-linejoin:round;}</style>
 </defs>
 <g id="figure_1">
  <g id="patch_1">
   <path d="M 0 360 
L 504 360 
L 504 0 
L 0 0 
z
" style="fill:#ffffff;"/>
  </g>
  <g id="axes_1">
   <g id="patch_2">
    <path d="M 60.05 308.6 
L 493.2 308.6 
L 493.2 26.8 
L 60.05 26.8 
z
" style="fill:#ffffff;"/>
   </g>
   <g id="matplotlib.axis_1">
    <g id="xtick_1">
     <g id="line2d_1">
      <path clip-path="url(#p272acf1ce4)" d="M 79.738636 308.6 
L 79.738636 26.8 
" style="fill:none;stroke:#808080;stroke-linecap:square;stroke-width:0.8;"/>
     </g>
     <g id="line2d_2">
      <defs>
       <path d="M 0 0 
L 0 3.5 
" id="mc86d9ce71b" style="stroke:#000000;stroke-width:0.8;"/>
      </defs>
      <g>
       <use style="stroke:#000000;stroke-width:0.8;" x="79.738636" xlink:href="#mc86d9ce71b" y="308.6"/>
      </g>
     </g>
     <g id="text_1">
      <!-- $\mathdefault{10^{0}}$ -->
      <g transform="translate(69.178636 324.718125)scale(0.12 -0.12)">
       <defs>
        <path d="M 12.40625 8.296875 
L 28.515625 8.296875 
L 28.515625 63.921875 
L 10.984375 60.40625 
L 10.984375 69.390625 
L 28.421875 72.90625 
L 38.28125 72.90625 
L 38.28125 8.296875 
L 54.390625 8.296875 
L 54.390625 0 
L 12.40625 0 
z
" id="DejaVuSans-49"/>
        <path d="M 31.78125 66.40625 
Q 24.171875 66.40625 20.328125 58.90625 
Q 16.5 51.421875 16.5 36.375 
Q 16.5 21.390625 20.328125 13.890625 
Q 24.171875 6.390625 31.78125 6.390625 
Q 39.453125 6.390625 43.28125 13.890625 
Q 47.125 21.390625 47.125 36.375 
Q 47.125 51.421875 43.28125 58.90625 
Q 39.453125 66.40625 31.78125 66.40625 
z
M 31.78125 74.21875 
Q 44.046875 74.21875 50.515625 64.515625 
Q 56.984375 54.828125 56.984375 36.375 
Q 56.984375 17.96875 50.515625 8.265625 
Q 44.046875 -1.421875 31.78125 -1.421875 
Q 19.53125 -1.421875 13.0625 8.265625 
Q 6.59375 17.96875 6.59375 36.375 
Q 6.59375 54.828125 13.0625 64.515625 
Q 19.53125 74.21875 31.78125 74.21875 
z
" id="DejaVuSans-48"/>
       </defs>
       <use transform="translate(0 0.765625)" xlink:href="#DejaVuSans-49"/>
       <use transform="translate(63.623047 0.765625)" xlink:href="#DejaVuSans-48"/>
       <use transform="translate(128.203125 39.046875)scale(0.7)" xlink:href="#DejaVuSans-48"/>
      </g>
     </g>
    </g>
    <g id="xtick_2">
     <g id="line2d_3">
      <path clip-path="url(#p272acf1ce4)" d="M 311.510078 308.6 
L 311.510078 26.8 
" style="fill:none;stroke:#808080;stroke-linecap:square;stroke-width:0.8;"/>
     </g>
     <g id="line2d_4">
      <g>
       <use style="stroke:#000000;stroke-width:0.8;" x="311.510078" xlink:href="#mc86d9ce71b" y="308.6"/>
      </g>
     </g>
     <g id="text_2">
      <!-- $\mathdefault{10^{1}}$ -->
      <g transform="translate(300.950078 324.718125)scale(0.12 -0.12)">
       <use transform="translate(0 0.684375)" xlink:href="#DejaVuSans-49"/>
       <use transform="translate(63.623047 0.684375)" xlink:href="#DejaVuSans-48"/>
       <use transform="translate(128.203125 38.965625)scale(0.7)" xlink:href="#DejaVuSans-49"/>
      </g>
     </g>
    </g>
    <g id="xtick_3">
     <g id="line2d_5">
      <path clip-path="url(#p272acf1ce4)" d="M 69.133357 308.6 
L 69.133357 26.8 
" style="fill:none;stroke:#808080;stroke-dasharray:0.8,1.32;stroke-dashoffset:0;stroke-width:0.8;"/>
     </g>
     <g id="line2d_6">
      <defs>
       <path d="M 0 0 
L 0 2 
" id="me2ac796b1d" style="stroke:#000000;stroke-width:0.6;"/>
      </defs>
      <g>
       <use style="stroke:#000000;stroke-width:0.6;" x="69.133357" xlink:href="#me2ac796b1d" y="308.6"/>
      </g>
     </g>
    </g>
    <g id="xtick_4">
     <g id="line2d_7">
      <path clip-path="url(#p272acf1ce4)" d="M 149.508792 308.6 
L 149.508792 26.8 
" style="fill:none;stroke:#808080;stroke-dasharray:0.8,1.32;stroke-dashoffset:0;stroke-width:0.8;"/>
     </g>
     <g id="line2d_8">
      <g>
       <use style="stroke:#000000;stroke-width:0.6;" x="149.508792" xlink:href="#me2ac796b1d" y="308.6"/>
      </g>
     </g>
    </g>
    <g id="xtick_5">
     <g id="line2d_9">
      <path clip-path="url(#p272acf1ce4)" d="M 190.321717 308.6 
L 190.321717 26.8 
" style="fill:none;stroke:#808080;stroke-dasharray:0.8,1.32;stroke-dashoffset:0;stroke-width:0.8;"/>
     </g>
     <g id="line2d_10">
      <g>
       <use style="stroke:#000000;stroke-width:0.6;" x="190.321717" xlink:href="#me2ac796b1d" y="308.6"/>
      </g>
     </g>
    </g>
    <g id="xtick_6">
     <g id="line2d_11">
      <path clip-path="url(#p272acf1ce4)" d="M 219.278949 308.6 
L 219.278949 26.8 
" style="fill:none;stroke:#808080;stroke-dasharray:0.8,1.32;stroke-dashoffset:0;stroke-width:0.8;"/>
     </g>
     <g id="line2d_12">
      <g>
       <use style="stroke:#000000;stroke-width:0.6;" x="219.278949" xlink:href="#me2ac796b1d" y="308.6"/>
      </g>
     </g>
    </g>
    <g id="xtick_7">
     <g id="line2d_13">
      <path clip-path="url(#p272acf1ce4)" d="M 241.739922 308.6 
L 241.739922 26.8 
" style="fill:none;stroke:#808080;stroke-dasharray:0.8,1.32;stroke-dashoffset:0;stroke-width:0.8;"/>
     </g>
     <g id="line2d_14">
      <g>
       <use style="stroke:#000000;stroke-width:0.6;" x="241.739922" xlink:href="#me2ac796b1d" y="308.6"/>
      </g>
     </g>
    </g>
    <g id="xtick_8">
     <g id="line2d_15">
      <path clip-path="url(#p272acf1ce4)" d="M 260.091874 308.6 
L 260.091874 26.8 
" style="fill:none;stroke:#808080;stroke-dasharray:0.8,1.32;stroke-dashoffset:0;stroke-width:0.8;"/>
     </g>
     <g id="line2d_16">
      <g>
       <use style="stroke:#000000;stroke-width:0.6;" x="260.091874" xlink:href="#me2ac796b1d" y="308.6"/>
      </g>
     </g>
    </g>
    <g id="xtick_9">
     <g id="line2d_17">
      <path clip-path="url(#p272acf1ce4)" d="M 275.608227 308.6 
L 275.608227 26.8 
" style="fill:none;stroke:#808080;stroke-dasharray:0.8,1.32;stroke-dashoffset:0;stroke-width:0.8;"/>
     </g>
     <g id="line2d_18">
      <g>
       <use style="stroke:#000000;stroke-width:0.6;" x="275.608227" xlink:href="#me2ac796b1d" y="308.6"/>
      </g>
     </g>
    </g>
    <g id="xtick_10">
     <g id="line2d_19">
      <path clip-path="url(#p272acf1ce4)" d="M 289.049105 308.6 
L 289.049105 26.8 
" style="fill:none;stroke:#808080;stroke-dasharray:0.8,1.32;stroke-dashoffset:0;stroke-width:0.8;"/>
     </g>
     <g id="line2d_20">
      <g>
       <use style="stroke:#000000;stroke-width:0.6;" x="289.049105" xlink:href="#me2ac796b1d" y="308.6"/>
      </g>
     </g>
    </g>
    <g id="xtick_11">
     <g id="line2d_21">
      <path clip-path="url(#p272acf1ce4)" d="M 300.904798 308.6 
L 300.904798 26.8 
" style="fill:none;stroke:#808080;stroke-dasharray:0.8,1.32;stroke-dashoffset:0;stroke-width:0.8;"/>
     </g>
     <g id="line2d_22">
      <g>
       <use style="stroke:#000000;stroke-width:0.6;" x="300.904798" xlink:href="#me2ac796b1d" y="308.6"/>
      </g>
     </g>
    </g>
    <g id="xtick_12">
     <g id="line2d_23">
      <path clip-path="url(#p272acf1ce4)" d="M 381.280234 308.6 
L 381.280234 26.8 
" style="fill:none;stroke:#808080;stroke-dasharray:0.8,1.32;stroke-dashoffset:0;stroke-width:0.8;"/>
     </g>
     <g id="line2d_24">
      <g>
       <use style="stroke:#000000;stroke-width:0.6;" x="381.280234" xlink:href="#me2ac796b1d" y="308.6"/>
      </g>
     </g>
    </g>
    <g id="xtick_13">
     <g id="line2d_25">
      <path clip-path="url(#p272acf1ce4)" d="M 422.093159 308.6 
L 422.093159 26.8 
" style="fill:none;stroke:#808080;stroke-dasharray:0.8,1.32;stroke-dashoffset:0;stroke-width:0.8;"/>
     </g>
     <g id="line2d_26">
      <g>
       <use style="stroke:#000000;stroke-width:0.6;" x="422.093159" xlink:href="#me2ac796b1d" y="308.6"/>
      </g>
     </g>
    </g>
    <g id="xtick_14">
     <g id="line2d_27">
      <path clip-path="url(#p272acf1ce4)" d="M 451.05039 308.6 
L 451.05039 26.8 
" style="fill:none;stroke:#808080;stroke-dasharray:0.8,1.32;stroke-dashoffset:0;stroke-width:0.8;"/>
     </g>
     <g id="line2d_28">
      <g>
       <use style="stroke:#000000;stroke-width:0.6;" x="451.05039" xlink:href="#me2ac796b1d" y="308.6"/>
      </g>
     </g>
    </g>
    <g id="xtick_15">
     <g id="line2d_29">
      <path clip-path="url(#p272acf1ce4)" d="M 473.511364 308.6 
L 473.511364 26.8 
" style="fill:none;stroke:#808080;stroke-dasharray:0.8,1.32;stroke-dashoffset:0;stroke-width:0.8;"/>
     </g>
     <g id="line2d_30">
      <g>
       <use style="stroke:#000000;stroke-width:0.6;" x="473.511364" xlink:href="#me2ac796b1d" y="308.6"/>
      </g>
     </g>
    </g>
    <g id="xtick_16">
     <g id="line2d_31">
      <path clip-path="url(#p272acf1ce4)" d="M 491.863315 308.6 
L 491.863315 26.8 
" style="fill:none;stroke:#808080;stroke-dasharray:0.8,1.32;stroke-dashoffset:0;stroke-width:0.8;"/>
     </g>
     <g id="line2d_32">
      <g>
       <use style="stroke:#000000;stroke-width:0.6;" x="491.863315" xlink:href="#me2ac796b1d" y="308.6"/>
      </g>
     </g>
    </g>
    <g id="text_3">
     <!-- frequency [MHz] -->
     <g transform="translate(227.10625 340.331875)scale(0.12 -0.12)">
      <defs>
       <path d="M 37.109375 75.984375 
L 37.109375 68.5 
L 28.515625 68.5 
Q 23.6875 68.5 21.796875 66.546875 
Q 19.921875 64.59375 19.921875 59.515625 
L 19.921875 54.6875 
L 34.71875 54.6875 
L 34.71875 47.703125 
L 19.921875 47.703125 
L 19.921875 0 
L 10.890625 0 
L 10.890625 47.703125 
L 2.296875 47.703125 
L 2.296875 54.6875 
L 10.890625 54.6875 
L 10.890625 58.5 
Q 10.890625 67.625 15.140625 71.796875 
Q 19.390625 75.984375 28.609375 75.984375 
z
" id="DejaVuSans-102"/>
       <path d="M 41.109375 46.296875 
Q 39.59375 47.171875 37.8125 47.578125 
Q 36.03125 48 33.890625 48 
Q 26.265625 48 22.1875 43.046875 
Q 18.109375 38.09375 18.109375 28.8125 
L 18.109375 0 
L 9.078125 0 
L 9.078125 54.6875 
L 18.109375 54.6875 
L 18.109375 46.1875 
Q 20.953125 51.171875 25.484375 53.578125 
Q 30.03125 56 36.53125 56 
Q 37.453125 56 38.578125 55.875 
Q 39.703125 55.765625 41.0625 55.515625 
z
" id="DejaVuSans-114"/>
       <path d="M 56.203125 29.59375 
L 56.203125 25.203125 
L 14.890625 25.203125 
Q 15.484375 15.921875 20.484375 11.0625 
Q 25.484375 6.203125 34.421875 6.203125 
Q 39.59375 6.203125 44.453125 7.46875 
Q 49.3125 8.734375 54.109375 11.28125 
L 54.109375 2.78125 
Q 49.265625 0.734375 44.1875 -0.34375 
Q 39.109375 -1.421875 33.890625 -1.421875 
Q 20.796875 -1.421875 13.15625 6.1875 
Q 5.515625 13.8125 5.515625 26.8125 
Q 5.515625 40.234375 12.765625 48.109375 
Q 20.015625 56 32.328125 56 
Q 43.359375 56 49.78125 48.890625 
Q 56.203125 41.796875 56.203125 29.59375 
z
M 47.21875 32.234375 
Q 47.125 39.59375 43.09375 43.984375 
Q 39.0625 48.390625 32.421875 48.390625 
Q 24.90625 48.390625 20.390625 44.140625 
Q 15.875 39.890625 15.1875 32.171875 
z
" id="DejaVuSans-101"/>
       <path d="M 14.796875 27.296875 
Q 14.796875 17.390625 18.875 11.75 
Q 22.953125 6.109375 30.078125 6.109375 
Q 37.203125 6.109375 41.296875 11.75 
Q 45.40625 17.390625 45.40625 27.296875 
Q 45.40625 37.203125 41.296875 42.84375 
Q 37.203125 48.484375 30.078125 48.484375 
Q 22.953125 48.484375 18.875 42.84375 
Q 14.796875 37.203125 14.796875 27.296875 
z
M 45.40625 8.203125 
Q 42.578125 3.328125 38.25 0.953125 
Q 33.9375 -1.421875 27.875 -1.421875 
Q 17.96875 -1.421875 11.734375 6.484375 
Q 5.515625 14.40625 5.515625 27.296875 
Q 5.515625 40.1875 11.734375 48.09375 
Q 17.96875 56 27.875 56 
Q 33.9375 56 38.25 53.625 
Q 42.578125 51.265625 45.40625 46.390625 
L 45.40625 54.6875 
L 54.390625 54.6875 
L 54.390625 -20.796875 
L 45.40625 -20.796875 
z
" id="DejaVuSans-113"/>
       <path d="M 8.5 21.578125 
L 8.5 54.6875 
L 17.484375 54.6875 
L 17.484375 21.921875 
Q 17.484375 14.15625 20.5 10.265625 
Q 23.53125 6.390625 29.59375 6.390625 
Q 36.859375 6.390625 41.078125 11.03125 
Q 45.3125 15.671875 45.3125 23.6875 
L 45.3125 54.6875 
L 54.296875 54.6875 
L 54.296875 0 
L 45.3125 0 
L 45.3125 8.40625 
Q 42.046875 3.421875 37.71875 1 
Q 33.40625 -1.421875 27.6875 -1.421875 
Q 18.265625 -1.421875 13.375 4.4375 
Q 8.5 10.296875 8.5 21.578125 
z
M 31.109375 56 
z
" id="DejaVuSans-117"/>
       <path d="M 54.890625 33.015625 
L 54.890625 0 
L 45.90625 0 
L 45.90625 32.71875 
Q 45.90625 40.484375 42.875 44.328125 
Q 39.84375 48.1875 33.796875 48.1875 
Q 26.515625 48.1875 22.3125 43.546875 
Q 18.109375 38.921875 18.109375 30.90625 
L 18.109375 0 
L 9.078125 0 
L 9.078125 54.6875 
L 18.109375 54.6875 
L 18.109375 46.1875 
Q 21.34375 51.125 25.703125 53.5625 
Q 30.078125 56 35.796875 56 
Q 45.21875 56 50.046875 50.171875 
Q 54.890625 44.34375 54.890625 33.015625 
z
" id="DejaVuSans-110"/>
       <path d="M 48.78125 52.59375 
L 48.78125 44.1875 
Q 44.96875 46.296875 41.140625 47.34375 
Q 37.3125 48.390625 33.40625 48.390625 
Q 24.65625 48.390625 19.8125 42.84375 
Q 14.984375 37.3125 14.984375 27.296875 
Q 14.984375 17.28125 19.8125 11.734375 
Q 24.65625 6.203125 33.40625 6.203125 
Q 37.3125 6.203125 41.140625 7.25 
Q 44.96875 8.296875 48.78125 10.40625 
L 48.78125 2.09375 
Q 45.015625 0.34375 40.984375 -0.53125 
Q 36.96875 -1.421875 32.421875 -1.421875 
Q 20.0625 -1.421875 12.78125 6.34375 
Q 5.515625 14.109375 5.515625 27.296875 
Q 5.515625 40.671875 12.859375 48.328125 
Q 20.21875 56 33.015625 56 
Q 37.15625 56 41.109375 55.140625 
Q 45.0625 54.296875 48.78125 52.59375 
z
" id="DejaVuSans-99"/>
       <path d="M 32.171875 -5.078125 
Q 28.375 -14.84375 24.75 -17.8125 
Q 21.140625 -20.796875 15.09375 -20.796875 
L 7.90625 -20.796875 
L 7.90625 -13.28125 
L 13.1875 -13.28125 
Q 16.890625 -13.28125 18.9375 -11.515625 
Q 21 -9.765625 23.484375 -3.21875 
L 25.09375 0.875 
L 2.984375 54.6875 
L 12.5 54.6875 
L 29.59375 11.921875 
L 46.6875 54.6875 
L 56.203125 54.6875 
z
" id="DejaVuSans-121"/>
       <path id="DejaVuSans-32"/>
       <path d="M 8.59375 75.984375 
L 29.296875 75.984375 
L 29.296875 69 
L 17.578125 69 
L 17.578125 -6.203125 
L 29.296875 -6.203125 
L 29.296875 -13.1875 
L 8.59375 -13.1875 
z
" id="DejaVuSans-91"/>
       <path d="M 9.8125 72.90625 
L 24.515625 72.90625 
L 43.109375 23.296875 
L 61.8125 72.90625 
L 76.515625 72.90625 
L 76.515625 0 
L 66.890625 0 
L 66.890625 64.015625 
L 48.09375 14.015625 
L 38.1875 14.015625 
L 19.390625 64.015625 
L 19.390625 0 
L 9.8125 0 
z
" id="DejaVuSans-77"/>
       <path d="M 9.8125 72.90625 
L 19.671875 72.90625 
L 19.671875 43.015625 
L 55.515625 43.015625 
L 55.515625 72.90625 
L 65.375 72.90625 
L 65.375 0 
L 55.515625 0 
L 55.515625 34.71875 
L 19.671875 34.71875 
L 19.671875 0 
L 9.8125 0 
z
" id="DejaVuSans-72"/>
       <path d="M 5.515625 54.6875 
L 48.1875 54.6875 
L 48.1875 46.484375 
L 14.40625 7.171875 
L 48.1875 7.171875 
L 48.1875 0 
L 4.296875 0 
L 4.296875 8.203125 
L 38.09375 47.515625 
L 5.515625 47.515625 
z
" id="DejaVuSans-122"/>
       <path d="M 30.421875 75.984375 
L 30.421875 -13.1875 
L 9.71875 -13.1875 
L 9.71875 -6.203125 
L 21.390625 -6.203125 
L 21.390625 69 
L 9.71875 69 
L 9.71875 75.984375 
z
" id="DejaVuSans-93"/>
      </defs>
      <use xlink:href="#DejaVuSans-102"/>
      <use x="35.205078" xlink:href="#DejaVuSans-114"/>
      <use x="74.068359" xlink:href="#DejaVuSans-101"/>
      <use x="135.591797" xlink:href="#DejaVuSans-113"/>
      <use x="199.068359" xlink:href="#DejaVuSans-117"/>
      <use x="262.447266" xlink:href="#DejaVuSans-101"/>
      <use x="323.970703" xlink:href="#DejaVuSans-110"/>
      <use x="387.349609" xlink:href="#DejaVuSans-99"/>
      <use x="442.330078" xlink:href="#DejaVuSans-121"/>
      <use x="501.509766" xlink:href="#DejaVuSans-32"/>
      <use x="533.296875" xlink:href="#DejaVuSans-91"/>
      <use x="572.310547" xlink:href="#DejaVuSans-77"/>
      <use x="658.589844" xlink:href="#DejaVuSans-72"/>
      <use x="733.785156" xlink:href="#DejaVuSans-122"/>
      <use x="786.275391" xlink:href="#DejaVuSans-93"/>
     </g>
    </g>
   </g>
   <g id="matplotlib.axis_2">
    <g id="ytick_1">
     <g id="line2d_33">
      <path clip-path="url(#p272acf1ce4)" d="M 60.05 302.947615 
L 493.2 302.947615 
" style="fill:none;stroke:#808080;stroke-linecap:square;stroke-width:0.8;"/>
     </g>
     <g id="line2d_34">
      <defs>
       <path d="M 0 0 
L -3.5 0 
" id="mcffa247eed" style="stroke:#000000;stroke-width:0.8;"/>
      </defs>
      <g>
       <use style="stroke:#000000;stroke-width:0.8;" x="60.05" xlink:href="#mcffa247eed" y="302.947615"/>
      </g>
     </g>
     <g id="text_4">
      <!-- −12 -->
      <g transform="translate(27.724375 307.506677)scale(0.12 -0.12)">
       <defs>
        <path d="M 10.59375 35.5 
L 73.1875 35.5 
L 73.1875 27.203125 
L 10.59375 27.203125 
z
" id="DejaVuSans-8722"/>
        <path d="M 19.1875 8.296875 
L 53.609375 8.296875 
L 53.609375 0 
L 7.328125 0 
L 7.328125 8.296875 
Q 12.9375 14.109375 22.625 23.890625 
Q 32.328125 33.6875 34.8125 36.53125 
Q 39.546875 41.84375 41.421875 45.53125 
Q 43.3125 49.21875 43.3125 52.78125 
Q 43.3125 58.59375 39.234375 62.25 
Q 35.15625 65.921875 28.609375 65.921875 
Q 23.96875 65.921875 18.8125 64.3125 
Q 13.671875 62.703125 7.8125 59.421875 
L 7.8125 69.390625 
Q 13.765625 71.78125 18.9375 73 
Q 24.125 74.21875 28.421875 74.21875 
Q 39.75 74.21875 46.484375 68.546875 
Q 53.21875 62.890625 53.21875 53.421875 
Q 53.21875 48.921875 51.53125 44.890625 
Q 49.859375 40.875 45.40625 35.40625 
Q 44.1875 33.984375 37.640625 27.21875 
Q 31.109375 20.453125 19.1875 8.296875 
z
" id="DejaVuSans-50"/>
       </defs>
       <use xlink:href="#DejaVuSans-8722"/>
       <use x="83.789062" xlink:href="#DejaVuSans-49"/>
       <use x="147.412109" xlink:href="#DejaVuSans-50"/>
      </g>
     </g>
    </g>
    <g id="ytick_2">
     <g id="line2d_35">
      <path clip-path="url(#p272acf1ce4)" d="M 60.05 258.803483 
L 493.2 258.803483 
" style="fill:none;stroke:#808080;stroke-linecap:square;stroke-width:0.8;"/>
     </g>
     <g id="line2d_36">
      <g>
       <use style="stroke:#000000;stroke-width:0.8;" x="60.05" xlink:href="#mcffa247eed" y="258.803483"/>
      </g>
     </g>
     <g id="text_5">
      <!-- −11 -->
      <g transform="translate(27.724375 263.362545)scale(0.12 -0.12)">
       <use xlink:href="#DejaVuSans-8722"/>
       <use x="83.789062" xlink:href="#DejaVuSans-49"/>
       <use x="147.412109" xlink:href="#DejaVuSans-49"/>
      </g>
     </g>
    </g>
    <g id="ytick_3">
     <g id="line2d_37">
      <path clip-path="url(#p272acf1ce4)" d="M 60.05 214.659351 
L 493.2 214.659351 
" style="fill:none;stroke:#808080;stroke-linecap:square;stroke-width:0.8;"/>
     </g>
     <g id="line2d_38">
      <g>
       <use style="stroke:#000000;stroke-width:0.8;" x="60.05" xlink:href="#mcffa247eed" y="214.659351"/>
      </g>
     </g>
     <g id="text_6">
      <!-- −10 -->
      <g transform="translate(27.724375 219.218414)scale(0.12 -0.12)">
       <use xlink:href="#DejaVuSans-8722"/>
       <use x="83.789062" xlink:href="#DejaVuSans-49"/>
       <use x="147.412109" xlink:href="#DejaVuSans-48"/>
      </g>
     </g>
    </g>
    <g id="ytick_4">
     <g id="line2d_39">
      <path clip-path="url(#p272acf1ce4)" d="M 60.05 170.51522 
L 493.2 170.51522 
" style="fill:none;stroke:#808080;stroke-linecap:square;stroke-width:0.8;"/>
     </g>
     <g id="line2d_40">
      <g>
       <use style="stroke:#000000;stroke-width:0.8;" x="60.05" xlink:href="#mcffa247eed" y="170.51522"/>
      </g>
     </g>
     <g id="text_7">
      <!-- −9 -->
      <g transform="translate(35.359375 175.074282)scale(0.12 -0.12)">
       <defs>
        <path d="M 10.984375 1.515625 
L 10.984375 10.5 
Q 14.703125 8.734375 18.5 7.8125 
Q 22.3125 6.890625 25.984375 6.890625 
Q 35.75 6.890625 40.890625 13.453125 
Q 46.046875 20.015625 46.78125 33.40625 
Q 43.953125 29.203125 39.59375 26.953125 
Q 35.25 24.703125 29.984375 24.703125 
Q 19.046875 24.703125 12.671875 31.3125 
Q 6.296875 37.9375 6.296875 49.421875 
Q 6.296875 60.640625 12.9375 67.421875 
Q 19.578125 74.21875 30.609375 74.21875 
Q 43.265625 74.21875 49.921875 64.515625 
Q 56.59375 54.828125 56.59375 36.375 
Q 56.59375 19.140625 48.40625 8.859375 
Q 40.234375 -1.421875 26.421875 -1.421875 
Q 22.703125 -1.421875 18.890625 -0.6875 
Q 15.09375 0.046875 10.984375 1.515625 
z
M 30.609375 32.421875 
Q 37.25 32.421875 41.125 36.953125 
Q 45.015625 41.5 45.015625 49.421875 
Q 45.015625 57.28125 41.125 61.84375 
Q 37.25 66.40625 30.609375 66.40625 
Q 23.96875 66.40625 20.09375 61.84375 
Q 16.21875 57.28125 16.21875 49.421875 
Q 16.21875 41.5 20.09375 36.953125 
Q 23.96875 32.421875 30.609375 32.421875 
z
" id="DejaVuSans-57"/>
       </defs>
       <use xlink:href="#DejaVuSans-8722"/>
       <use x="83.789062" xlink:href="#DejaVuSans-57"/>
      </g>
     </g>
    </g>
    <g id="ytick_5">
     <g id="line2d_41">
      <path clip-path="url(#p272acf1ce4)" d="M 60.05 126.371088 
L 493.2 126.371088 
" style="fill:none;stroke:#808080;stroke-linecap:square;stroke-width:0.8;"/>
     </g>
     <g id="line2d_42">
      <g>
       <use style="stroke:#000000;stroke-width:0.8;" x="60.05" xlink:href="#mcffa247eed" y="126.371088"/>
      </g>
     </g>
     <g id="text_8">
      <!-- −8 -->
      <g transform="translate(35.359375 130.93015)scale(0.12 -0.12)">
       <defs>
        <path d="M 31.78125 34.625 
Q 24.75 34.625 20.71875 30.859375 
Q 16.703125 27.09375 16.703125 20.515625 
Q 16.703125 13.921875 20.71875 10.15625 
Q 24.75 6.390625 31.78125 6.390625 
Q 38.8125 6.390625 42.859375 10.171875 
Q 46.921875 13.96875 46.921875 20.515625 
Q 46.921875 27.09375 42.890625 30.859375 
Q 38.875 34.625 31.78125 34.625 
z
M 21.921875 38.8125 
Q 15.578125 40.375 12.03125 44.71875 
Q 8.5 49.078125 8.5 55.328125 
Q 8.5 64.0625 14.71875 69.140625 
Q 20.953125 74.21875 31.78125 74.21875 
Q 42.671875 74.21875 48.875 69.140625 
Q 55.078125 64.0625 55.078125 55.328125 
Q 55.078125 49.078125 51.53125 44.71875 
Q 48 40.375 41.703125 38.8125 
Q 48.828125 37.15625 52.796875 32.3125 
Q 56.78125 27.484375 56.78125 20.515625 
Q 56.78125 9.90625 50.3125 4.234375 
Q 43.84375 -1.421875 31.78125 -1.421875 
Q 19.734375 -1.421875 13.25 4.234375 
Q 6.78125 9.90625 6.78125 20.515625 
Q 6.78125 27.484375 10.78125 32.3125 
Q 14.796875 37.15625 21.921875 38.8125 
z
M 18.3125 54.390625 
Q 18.3125 48.734375 21.84375 45.5625 
Q 25.390625 42.390625 31.78125 42.390625 
Q 38.140625 42.390625 41.71875 45.5625 
Q 45.3125 48.734375 45.3125 54.390625 
Q 45.3125 60.0625 41.71875 63.234375 
Q 38.140625 66.40625 31.78125 66.40625 
Q 25.390625 66.40625 21.84375 63.234375 
Q 18.3125 60.0625 18.3125 54.390625 
z
" id="DejaVuSans-56"/>
       </defs>
       <use xlink:href="#DejaVuSans-8722"/>
       <use x="83.789062" xlink:href="#DejaVuSans-56"/>
      </g>
     </g>
    </g>
    <g id="ytick_6">
     <g id="line2d_43">
      <path clip-path="url(#p272acf1ce4)" d="M 60.05 82.226956 
L 493.2 82.226956 
" style="fill:none;stroke:#808080;stroke-linecap:square;stroke-width:0.8;"/>
     </g>
     <g id="line2d_44">
      <g>
       <use style="stroke:#000000;stroke-width:0.8;" x="60.05" xlink:href="#mcffa247eed" y="82.226956"/>
      </g>
     </g>
     <g id="text_9">
      <!-- −7 -->
      <g transform="translate(35.359375 86.786019)scale(0.12 -0.12)">
       <defs>
        <path d="M 8.203125 72.90625 
L 55.078125 72.90625 
L 55.078125 68.703125 
L 28.609375 0 
L 18.3125 0 
L 43.21875 64.59375 
L 8.203125 64.59375 
z
" id="DejaVuSans-55"/>
       </defs>
       <use xlink:href="#DejaVuSans-8722"/>
       <use x="83.789062" xlink:href="#DejaVuSans-55"/>
      </g>
     </g>
    </g>
    <g id="ytick_7">
     <g id="line2d_45">
      <path clip-path="url(#p272acf1ce4)" d="M 60.05 38.082825 
L 493.2 38.082825 
" style="fill:none;stroke:#808080;stroke-linecap:square;stroke-width:0.8;"/>
     </g>
     <g id="line2d_46">
      <g>
       <use style="stroke:#000000;stroke-width:0.8;" x="60.05" xlink:href="#mcffa247eed" y="38.082825"/>
      </g>
     </g>
     <g id="text_10">
      <!-- −6 -->
      <g transform="translate(35.359375 42.641887)scale(0.12 -0.12)">
       <defs>
        <path d="M 33.015625 40.375 
Q 26.375 40.375 22.484375 35.828125 
Q 18.609375 31.296875 18.609375 23.390625 
Q 18.609375 15.53125 22.484375 10.953125 
Q 26.375 6.390625 33.015625 6.390625 
Q 39.65625 6.390625 43.53125 10.953125 
Q 47.40625 15.53125 47.40625 23.390625 
Q 47.40625 31.296875 43.53125 35.828125 
Q 39.65625 40.375 33.015625 40.375 
z
M 52.59375 71.296875 
L 52.59375 62.3125 
Q 48.875 64.0625 45.09375 64.984375 
Q 41.3125 65.921875 37.59375 65.921875 
Q 27.828125 65.921875 22.671875 59.328125 
Q 17.53125 52.734375 16.796875 39.40625 
Q 19.671875 43.65625 24.015625 45.921875 
Q 28.375 48.1875 33.59375 48.1875 
Q 44.578125 48.1875 50.953125 41.515625 
Q 57.328125 34.859375 57.328125 23.390625 
Q 57.328125 12.15625 50.6875 5.359375 
Q 44.046875 -1.421875 33.015625 -1.421875 
Q 20.359375 -1.421875 13.671875 8.265625 
Q 6.984375 17.96875 6.984375 36.375 
Q 6.984375 53.65625 15.1875 63.9375 
Q 23.390625 74.21875 37.203125 74.21875 
Q 40.921875 74.21875 44.703125 73.484375 
Q 48.484375 72.75 52.59375 71.296875 
z
" id="DejaVuSans-54"/>
       </defs>
       <use xlink:href="#DejaVuSans-8722"/>
       <use x="83.789062" xlink:href="#DejaVuSans-54"/>
      </g>
     </g>
    </g>
    <g id="text_11">
     <!-- magnitude [dB] -->
     <g transform="translate(21.22875 214.669687)rotate(-90)scale(0.12 -0.12)">
      <defs>
       <path d="M 52 44.1875 
Q 55.375 50.25 60.0625 53.125 
Q 64.75 56 71.09375 56 
Q 79.640625 56 84.28125 50.015625 
Q 88.921875 44.046875 88.921875 33.015625 
L 88.921875 0 
L 79.890625 0 
L 79.890625 32.71875 
Q 79.890625 40.578125 77.09375 44.375 
Q 74.3125 48.1875 68.609375 48.1875 
Q 61.625 48.1875 57.5625 43.546875 
Q 53.515625 38.921875 53.515625 30.90625 
L 53.515625 0 
L 44.484375 0 
L 44.484375 32.71875 
Q 44.484375 40.625 41.703125 44.40625 
Q 38.921875 48.1875 33.109375 48.1875 
Q 26.21875 48.1875 22.15625 43.53125 
Q 18.109375 38.875 18.109375 30.90625 
L 18.109375 0 
L 9.078125 0 
L 9.078125 54.6875 
L 18.109375 54.6875 
L 18.109375 46.1875 
Q 21.1875 51.21875 25.484375 53.609375 
Q 29.78125 56 35.6875 56 
Q 41.65625 56 45.828125 52.96875 
Q 50 49.953125 52 44.1875 
z
" id="DejaVuSans-109"/>
       <path d="M 34.28125 27.484375 
Q 23.390625 27.484375 19.1875 25 
Q 14.984375 22.515625 14.984375 16.5 
Q 14.984375 11.71875 18.140625 8.90625 
Q 21.296875 6.109375 26.703125 6.109375 
Q 34.1875 6.109375 38.703125 11.40625 
Q 43.21875 16.703125 43.21875 25.484375 
L 43.21875 27.484375 
z
M 52.203125 31.203125 
L 52.203125 0 
L 43.21875 0 
L 43.21875 8.296875 
Q 40.140625 3.328125 35.546875 0.953125 
Q 30.953125 -1.421875 24.3125 -1.421875 
Q 15.921875 -1.421875 10.953125 3.296875 
Q 6 8.015625 6 15.921875 
Q 6 25.140625 12.171875 29.828125 
Q 18.359375 34.515625 30.609375 34.515625 
L 43.21875 34.515625 
L 43.21875 35.40625 
Q 43.21875 41.609375 39.140625 45 
Q 35.0625 48.390625 27.6875 48.390625 
Q 23 48.390625 18.546875 47.265625 
Q 14.109375 46.140625 10.015625 43.890625 
L 10.015625 52.203125 
Q 14.9375 54.109375 19.578125 55.046875 
Q 24.21875 56 28.609375 56 
Q 40.484375 56 46.34375 49.84375 
Q 52.203125 43.703125 52.203125 31.203125 
z
" id="DejaVuSans-97"/>
       <path d="M 45.40625 27.984375 
Q 45.40625 37.75 41.375 43.109375 
Q 37.359375 48.484375 30.078125 48.484375 
Q 22.859375 48.484375 18.828125 43.109375 
Q 14.796875 37.75 14.796875 27.984375 
Q 14.796875 18.265625 18.828125 12.890625 
Q 22.859375 7.515625 30.078125 7.515625 
Q 37.359375 7.515625 41.375 12.890625 
Q 45.40625 18.265625 45.40625 27.984375 
z
M 54.390625 6.78125 
Q 54.390625 -7.171875 48.1875 -13.984375 
Q 42 -20.796875 29.203125 -20.796875 
Q 24.46875 -20.796875 20.265625 -20.09375 
Q 16.0625 -19.390625 12.109375 -17.921875 
L 12.109375 -9.1875 
Q 16.0625 -11.328125 19.921875 -12.34375 
Q 23.78125 -13.375 27.78125 -13.375 
Q 36.625 -13.375 41.015625 -8.765625 
Q 45.40625 -4.15625 45.40625 5.171875 
L 45.40625 9.625 
Q 42.625 4.78125 38.28125 2.390625 
Q 33.9375 0 27.875 0 
Q 17.828125 0 11.671875 7.65625 
Q 5.515625 15.328125 5.515625 27.984375 
Q 5.515625 40.671875 11.671875 48.328125 
Q 17.828125 56 27.875 56 
Q 33.9375 56 38.28125 53.609375 
Q 42.625 51.21875 45.40625 46.390625 
L 45.40625 54.6875 
L 54.390625 54.6875 
z
" id="DejaVuSans-103"/>
       <path d="M 9.421875 54.6875 
L 18.40625 54.6875 
L 18.40625 0 
L 9.421875 0 
z
M 9.421875 75.984375 
L 18.40625 75.984375 
L 18.40625 64.59375 
L 9.421875 64.59375 
z
" id="DejaVuSans-105"/>
       <path d="M 18.3125 70.21875 
L 18.3125 54.6875 
L 36.8125 54.6875 
L 36.8125 47.703125 
L 18.3125 47.703125 
L 18.3125 18.015625 
Q 18.3125 11.328125 20.140625 9.421875 
Q 21.96875 7.515625 27.59375 7.515625 
L 36.8125 7.515625 
L 36.8125 0 
L 27.59375 0 
Q 17.1875 0 13.234375 3.875 
Q 9.28125 7.765625 9.28125 18.015625 
L 9.28125 47.703125 
L 2.6875 47.703125 
L 2.6875 54.6875 
L 9.28125 54.6875 
L 9.28125 70.21875 
z
" id="DejaVuSans-116"/>
       <path d="M 45.40625 46.390625 
L 45.40625 75.984375 
L 54.390625 75.984375 
L 54.390625 0 
L 45.40625 0 
L 45.40625 8.203125 
Q 42.578125 3.328125 38.25 0.953125 
Q 33.9375 -1.421875 27.875 -1.421875 
Q 17.96875 -1.421875 11.734375 6.484375 
Q 5.515625 14.40625 5.515625 27.296875 
Q 5.515625 40.1875 11.734375 48.09375 
Q 17.96875 56 27.875 56 
Q 33.9375 56 38.25 53.625 
Q 42.578125 51.265625 45.40625 46.390625 
z
M 14.796875 27.296875 
Q 14.796875 17.390625 18.875 11.75 
Q 22.953125 6.109375 30.078125 6.109375 
Q 37.203125 6.109375 41.296875 11.75 
Q 45.40625 17.390625 45.40625 27.296875 
Q 45.40625 37.203125 41.296875 42.84375 
Q 37.203125 48.484375 30.078125 48.484375 
Q 22.953125 48.484375 18.875 42.84375 
Q 14.796875 37.203125 14.796875 27.296875 
z
" id="DejaVuSans-100"/>
       <path d="M 19.671875 34.8125 
L 19.671875 8.109375 
L 35.5 8.109375 
Q 43.453125 8.109375 47.28125 11.40625 
Q 51.125 14.703125 51.125 21.484375 
Q 51.125 28.328125 47.28125 31.5625 
Q 43.453125 34.8125 35.5 34.8125 
z
M 19.671875 64.796875 
L 19.671875 42.828125 
L 34.28125 42.828125 
Q 41.5 42.828125 45.03125 45.53125 
Q 48.578125 48.25 48.578125 53.8125 
Q 48.578125 59.328125 45.03125 62.0625 
Q 41.5 64.796875 34.28125 64.796875 
z
M 9.8125 72.90625 
L 35.015625 72.90625 
Q 46.296875 72.90625 52.390625 68.21875 
Q 58.5 63.53125 58.5 54.890625 
Q 58.5 48.1875 55.375 44.234375 
Q 52.25 40.28125 46.1875 39.3125 
Q 53.46875 37.75 57.5 32.78125 
Q 61.53125 27.828125 61.53125 20.40625 
Q 61.53125 10.640625 54.890625 5.3125 
Q 48.25 0 35.984375 0 
L 9.8125 0 
z
" id="DejaVuSans-66"/>
      </defs>
      <use xlink:href="#DejaVuSans-109"/>
      <use x="97.412109" xlink:href="#DejaVuSans-97"/>
      <use x="158.691406" xlink:href="#DejaVuSans-103"/>
      <use x="222.167969" xlink:href="#DejaVuSans-110"/>
      <use x="285.546875" xlink:href="#DejaVuSans-105"/>
      <use x="313.330078" xlink:href="#DejaVuSans-116"/>
      <use x="352.539062" xlink:href="#DejaVuSans-117"/>
      <use x="415.917969" xlink:href="#DejaVuSans-100"/>
      <use x="479.394531" xlink:href="#DejaVuSans-101"/>
      <use x="540.917969" xlink:href="#DejaVuSans-32"/>
      <use x="572.705078" xlink:href="#DejaVuSans-91"/>
      <use x="611.71875" xlink:href="#DejaVuSans-100"/>
      <use x="675.195312" xlink:href="#DejaVuSans-66"/>
      <use x="743.798828" xlink:href="#DejaVuSans-93"/>
     </g>
    </g>
   </g>
   <g id="line2d_47">
    <path clip-path="url(#p272acf1ce4)" d="M 79.738636 39.832856 
L 83.716139 39.832849 
L 87.693641 39.832841 
L 91.671143 39.832832 
L 95.648646 39.832823 
L 99.626148 39.832812 
L 103.60365 39.832801 
L 107.581152 39.83279 
L 111.558655 39.832777 
L 115.536157 39.832763 
L 119.513659 39.832748 
L 123.491162 39.832732 
L 127.468664 39.832714 
L 131.446166 39.832695 
L 135.423669 39.832674 
L 139.401171 39.832652 
L 143.378673 39.832628 
L 147.356175 39.832602 
L 151.333678 39.832573 
L 155.31118 39.832543 
L 159.288682 39.83251 
L 163.266185 39.832474 
L 167.243687 39.832435 
L 171.221189 39.832393 
L 175.198691 39.832348 
L 179.176194 39.832298 
L 183.153696 39.832245 
L 187.131198 39.832188 
L 191.108701 39.832125 
L 195.086203 39.832058 
L 199.063705 39.831985 
L 203.041208 39.831906 
L 207.01871 39.83182 
L 210.996212 39.831728 
L 214.973714 39.831628 
L 218.951217 39.831519 
L 222.928719 39.831402 
L 226.906221 39.831275 
L 230.883724 39.831138 
L 234.861226 39.830989 
L 238.838728 39.830828 
L 242.81623 39.830654 
L 246.793733 39.830465 
L 250.771235 39.830261 
L 254.748737 39.830041 
L 258.72624 39.829802 
L 262.703742 39.829543 
L 266.681244 39.829263 
L 270.658747 39.828961 
L 274.636249 39.828633 
L 278.613751 39.828278 
L 282.591253 39.827894 
L 286.568756 39.827479 
L 290.546258 39.827029 
L 294.52376 39.826543 
L 298.501263 39.826016 
L 302.478765 39.825447 
L 306.456267 39.82483 
L 310.43377 39.824163 
L 314.411272 39.82344 
L 318.388774 39.822659 
L 322.366276 39.821813 
L 326.343779 39.820898 
L 330.321281 39.819907 
L 334.298783 39.818835 
L 338.276286 39.817674 
L 342.253788 39.816419 
L 346.23129 39.81506 
L 350.208792 39.813589 
L 354.186295 39.811998 
L 358.163797 39.810276 
L 362.141299 39.808412 
L 366.118802 39.806394 
L 370.096304 39.804212 
L 374.073806 39.801849 
L 378.051309 39.799293 
L 382.028811 39.796526 
L 386.006313 39.793532 
L 389.983815 39.790292 
L 393.961318 39.786786 
L 397.93882 39.782992 
L 401.916322 39.778886 
L 405.893825 39.774443 
L 409.871327 39.769635 
L 413.848829 39.764432 
L 417.826331 39.758801 
L 421.803834 39.752709 
L 425.781336 39.746116 
L 429.758838 39.738981 
L 433.736341 39.731261 
L 437.713843 39.722908 
L 441.691345 39.713869 
L 445.668848 39.704089 
L 449.64635 39.693506 
L 453.623852 39.682056 
L 457.601354 39.669667 
L 461.578857 39.656262 
L 465.556359 39.641759 
L 469.533861 39.626067 
L 473.511364 39.609091 
" style="fill:none;stroke:#ff0000;stroke-linecap:square;stroke-width:2;"/>
   </g>
   <g id="line2d_48">
    <path clip-path="url(#p272acf1ce4)" d="M 79.738636 39.833074 
L 83.716139 39.833085 
L 87.693641 39.833096 
L 91.671143 39.833109 
L 95.648646 39.833122 
L 99.626148 39.833137 
L 103.60365 39.833153 
L 107.581152 39.83317 
L 111.558655 39.833188 
L 115.536157 39.833208 
L 119.513659 39.833229 
L 123.491162 39.833253 
L 127.468664 39.833278 
L 131.446166 39.833305 
L 135.423669 39.833335 
L 139.401171 39.833367 
L 143.378673 39.833402 
L 147.356175 39.833439 
L 151.333678 39.83348 
L 155.31118 39.833524 
L 159.288682 39.833571 
L 163.266185 39.833623 
L 167.243687 39.833678 
L 171.221189 39.833739 
L 175.198691 39.833804 
L 179.176194 39.833874 
L 183.153696 39.833951 
L 187.131198 39.834033 
L 191.108701 39.834123 
L 195.086203 39.83422 
L 199.063705 39.834324 
L 203.041208 39.834438 
L 207.01871 39.83456 
L 210.996212 39.834693 
L 214.973714 39.834837 
L 218.951217 39.834993 
L 222.928719 39.835161 
L 226.906221 39.835343 
L 230.883724 39.83554 
L 234.861226 39.835754 
L 238.838728 39.835984 
L 242.81623 39.836234 
L 246.793733 39.836505 
L 250.771235 39.836798 
L 254.748737 39.837114 
L 258.72624 39.837457 
L 262.703742 39.837828 
L 266.681244 39.83823 
L 270.658747 39.838664 
L 274.636249 39.839134 
L 278.613751 39.839643 
L 282.591253 39.840194 
L 286.568756 39.84079 
L 290.546258 39.841435 
L 294.52376 39.842133 
L 298.501263 39.842889 
L 302.478765 39.843707 
L 306.456267 39.844591 
L 310.43377 39.845549 
L 314.411272 39.846586 
L 318.388774 39.847707 
L 322.366276 39.848921 
L 326.343779 39.850235 
L 330.321281 39.851656 
L 334.298783 39.853195 
L 338.276286 39.85486 
L 342.253788 39.856662 
L 346.23129 39.858612 
L 350.208792 39.860723 
L 354.186295 39.863007 
L 358.163797 39.865478 
L 362.141299 39.868153 
L 366.118802 39.871048 
L 370.096304 39.874181 
L 374.073806 39.877572 
L 378.051309 39.881241 
L 382.028811 39.885211 
L 386.006313 39.889509 
L 389.983815 39.894159 
L 393.961318 39.899191 
L 397.93882 39.904637 
L 401.916322 39.910531 
L 405.893825 39.916909 
L 409.871327 39.923811 
L 413.848829 39.93128 
L 417.826331 39.939363 
L 421.803834 39.94811 
L 425.781336 39.957575 
L 429.758838 39.967818 
L 433.736341 39.978902 
L 437.713843 39.990896 
L 441.691345 40.003875 
L 445.668848 40.01792 
L 449.64635 40.033118 
L 453.623852 40.049563 
L 457.601354 40.067358 
L 461.578857 40.086612 
L 465.556359 40.107447 
L 469.533861 40.12999 
L 473.511364 40.154382 
" style="fill:none;stroke:#0000ff;stroke-linecap:square;stroke-width:2;"/>
   </g>
   <g id="line2d_49">
    <path clip-path="url(#p272acf1ce4)" d="M 79.738636 39.833537 
L 83.716139 39.833586 
L 87.693641 39.833638 
L 91.671143 39.833695 
L 95.648646 39.833757 
L 99.626148 39.833824 
L 103.60365 39.833896 
L 107.581152 39.833974 
L 111.558655 39.834059 
L 115.536157 39.83415 
L 119.513659 39.834249 
L 123.491162 39.834356 
L 127.468664 39.834472 
L 131.446166 39.834598 
L 135.423669 39.834734 
L 139.401171 39.834881 
L 143.378673 39.83504 
L 147.356175 39.835212 
L 151.333678 39.835398 
L 155.31118 39.8356 
L 159.288682 39.835818 
L 163.266185 39.836055 
L 167.243687 39.83631 
L 171.221189 39.836587 
L 175.198691 39.836887 
L 179.176194 39.837211 
L 183.153696 39.837561 
L 187.131198 39.837941 
L 191.108701 39.838352 
L 195.086203 39.838796 
L 199.063705 39.839278 
L 203.041208 39.839798 
L 207.01871 39.840362 
L 210.996212 39.840972 
L 214.973714 39.841632 
L 218.951217 39.842346 
L 222.928719 39.843119 
L 226.906221 39.843956 
L 230.883724 39.844861 
L 234.861226 39.845841 
L 238.838728 39.846901 
L 242.81623 39.848049 
L 246.793733 39.849291 
L 250.771235 39.850635 
L 254.748737 39.852089 
L 258.72624 39.853664 
L 262.703742 39.855367 
L 266.681244 39.857211 
L 270.658747 39.859206 
L 274.636249 39.861366 
L 278.613751 39.863703 
L 282.591253 39.866232 
L 286.568756 39.868969 
L 290.546258 39.871931 
L 294.52376 39.875137 
L 298.501263 39.878606 
L 302.478765 39.88236 
L 306.456267 39.886423 
L 310.43377 39.89082 
L 314.411272 39.895578 
L 318.388774 39.900728 
L 322.366276 39.906301 
L 326.343779 39.912331 
L 330.321281 39.918858 
L 334.298783 39.925921 
L 338.276286 39.933564 
L 342.253788 39.941836 
L 346.23129 39.950787 
L 350.208792 39.960473 
L 354.186295 39.970956 
L 358.163797 39.982299 
L 362.141299 39.994575 
L 366.118802 40.007859 
L 370.096304 40.022234 
L 374.073806 40.037789 
L 378.051309 40.054621 
L 382.028811 40.072836 
L 386.006313 40.092546 
L 389.983815 40.113874 
L 393.961318 40.136952 
L 397.93882 40.161924 
L 401.916322 40.188944 
L 405.893825 40.218181 
L 409.871327 40.249815 
L 413.848829 40.284043 
L 417.826331 40.321076 
L 421.803834 40.361144 
L 425.781336 40.404494 
L 429.758838 40.451395 
L 433.736341 40.502134 
L 437.713843 40.557026 
L 441.691345 40.616409 
L 445.668848 40.680646 
L 449.64635 40.750134 
L 453.623852 40.825297 
L 457.601354 40.906597 
L 461.578857 40.99453 
L 465.556359 41.089633 
L 469.533861 41.192485 
L 473.511364 41.303712 
" style="fill:none;stroke:#008000;stroke-linecap:square;stroke-width:2;"/>
   </g>
   <g id="line2d_50">
    <path clip-path="url(#p272acf1ce4)" d="M 79.738636 39.834534 
L 83.716139 39.834665 
L 87.693641 39.834806 
L 91.671143 39.834959 
L 95.648646 39.835125 
L 99.626148 39.835304 
L 103.60365 39.835498 
L 107.581152 39.835708 
L 111.558655 39.835935 
L 115.536157 39.836181 
L 119.513659 39.836447 
L 123.491162 39.836735 
L 127.468664 39.837047 
L 131.446166 39.837384 
L 135.423669 39.837749 
L 139.401171 39.838144 
L 143.378673 39.838571 
L 147.356175 39.839034 
L 151.333678 39.839535 
L 155.31118 39.840077 
L 159.288682 39.840663 
L 163.266185 39.841298 
L 167.243687 39.841985 
L 171.221189 39.842728 
L 175.198691 39.843532 
L 179.176194 39.844403 
L 183.153696 39.845345 
L 187.131198 39.846365 
L 191.108701 39.847468 
L 195.086203 39.848662 
L 199.063705 39.849955 
L 203.041208 39.851354 
L 207.01871 39.852867 
L 210.996212 39.854506 
L 214.973714 39.856279 
L 218.951217 39.858197 
L 222.928719 39.860274 
L 226.906221 39.862521 
L 230.883724 39.864953 
L 234.861226 39.867585 
L 238.838728 39.870433 
L 242.81623 39.873516 
L 246.793733 39.876852 
L 250.771235 39.880462 
L 254.748737 39.884369 
L 258.72624 39.888597 
L 262.703742 39.893173 
L 266.681244 39.898125 
L 270.658747 39.903484 
L 274.636249 39.909283 
L 278.613751 39.91556 
L 282.591253 39.922352 
L 286.568756 39.929702 
L 290.546258 39.937657 
L 294.52376 39.946265 
L 298.501263 39.955581 
L 302.478765 39.965662 
L 306.456267 39.976572 
L 310.43377 39.988378 
L 314.411272 40.001153 
L 318.388774 40.014979 
L 322.366276 40.02994 
L 326.343779 40.04613 
L 330.321281 40.06365 
L 334.298783 40.082608 
L 338.276286 40.103123 
L 342.253788 40.125323 
L 346.23129 40.149344 
L 350.208792 40.175338 
L 354.186295 40.203464 
L 358.163797 40.233898 
L 362.141299 40.266829 
L 366.118802 40.30246 
L 370.096304 40.341014 
L 374.073806 40.382727 
L 378.051309 40.42786 
L 382.028811 40.47669 
L 386.006313 40.52952 
L 389.983815 40.586676 
L 393.961318 40.64851 
L 397.93882 40.715404 
L 401.916322 40.787768 
L 405.893825 40.866049 
L 409.871327 40.950725 
L 413.848829 41.042317 
L 417.826331 41.141385 
L 421.803834 41.248534 
L 425.781336 41.364417 
L 429.758838 41.48974 
L 433.736341 41.625264 
L 437.713843 41.771808 
L 441.691345 41.93026 
L 445.668848 42.101573 
L 449.64635 42.286777 
L 453.623852 42.486981 
L 457.601354 42.703379 
L 461.578857 42.937258 
L 465.556359 43.190002 
L 469.533861 43.4631 
L 473.511364 43.758155 
" style="fill:none;stroke:#00bfbf;stroke-linecap:square;stroke-width:2;"/>
   </g>
   <g id="line2d_51">
    <path clip-path="url(#p272acf1ce4)" d="M 79.738636 39.836713 
L 83.716139 39.837022 
L 87.693641 39.837358 
L 91.671143 39.837721 
L 95.648646 39.838113 
L 99.626148 39.838538 
L 103.60365 39.838998 
L 107.581152 39.839496 
L 111.558655 39.840034 
L 115.536157 39.840617 
L 119.513659 39.841248 
L 123.491162 39.841931 
L 127.468664 39.84267 
L 131.446166 39.84347 
L 135.423669 39.844335 
L 139.401171 39.845272 
L 143.378673 39.846285 
L 147.356175 39.847382 
L 151.333678 39.84857 
L 155.31118 39.849854 
L 159.288682 39.851245 
L 163.266185 39.85275 
L 167.243687 39.854378 
L 171.221189 39.856141 
L 175.198691 39.858048 
L 179.176194 39.860112 
L 183.153696 39.862346 
L 187.131198 39.864764 
L 191.108701 39.86738 
L 195.086203 39.870212 
L 199.063705 39.873276 
L 203.041208 39.876592 
L 207.01871 39.880181 
L 210.996212 39.884065 
L 214.973714 39.888269 
L 218.951217 39.892817 
L 222.928719 39.89774 
L 226.906221 39.903068 
L 230.883724 39.908833 
L 234.861226 39.915073 
L 238.838728 39.921825 
L 242.81623 39.929132 
L 246.793733 39.93704 
L 250.771235 39.945598 
L 254.748737 39.954859 
L 258.72624 39.964881 
L 262.703742 39.975727 
L 266.681244 39.987464 
L 270.658747 40.000165 
L 274.636249 40.01391 
L 278.613751 40.028784 
L 282.591253 40.04488 
L 286.568756 40.062298 
L 290.546258 40.081146 
L 294.52376 40.101542 
L 298.501263 40.123613 
L 302.478765 40.147496 
L 306.456267 40.17334 
L 310.43377 40.201304 
L 314.411272 40.231564 
L 318.388774 40.264306 
L 322.366276 40.299734 
L 326.343779 40.338068 
L 330.321281 40.379545 
L 334.298783 40.424422 
L 338.276286 40.472978 
L 342.253788 40.525511 
L 346.23129 40.582348 
L 350.208792 40.643839 
L 354.186295 40.710362 
L 358.163797 40.782329 
L 362.141299 40.860182 
L 366.118802 40.9444 
L 370.096304 41.035499 
L 374.073806 41.134037 
L 378.051309 41.240619 
L 382.028811 41.355895 
L 386.006313 41.480568 
L 389.983815 41.615396 
L 393.961318 41.761199 
L 397.93882 41.918859 
L 401.916322 42.089329 
L 405.893825 42.273637 
L 409.871327 42.47289 
L 413.848829 42.68828 
L 417.826331 42.921094 
L 421.803834 43.172715 
L 425.781336 43.444633 
L 429.758838 43.738451 
L 433.736341 44.055893 
L 437.713843 44.39881 
L 441.691345 44.769193 
L 445.668848 45.169178 
L 449.64635 45.601057 
L 453.623852 46.067288 
L 457.601354 46.570502 
L 461.578857 47.113517 
L 465.556359 47.699346 
L 469.533861 48.331209 
L 473.511364 49.01254 
" style="fill:none;stroke:#bf00bf;stroke-linecap:square;stroke-width:2;"/>
   </g>
   <g id="line2d_52">
    <path clip-path="url(#p272acf1ce4)" d="M 79.738636 39.841515 
L 83.716139 39.84222 
L 87.693641 39.842983 
L 91.671143 39.843808 
L 95.648646 39.844702 
L 99.626148 39.845668 
L 103.60365 39.846715 
L 107.581152 39.847847 
L 111.558655 39.849072 
L 115.536157 39.850398 
L 119.513659 39.851834 
L 123.491162 39.853387 
L 127.468664 39.855068 
L 131.446166 39.856887 
L 135.423669 39.858856 
L 139.401171 39.860986 
L 143.378673 39.863292 
L 147.356175 39.865788 
L 151.333678 39.868488 
L 155.31118 39.871411 
L 159.288682 39.874574 
L 163.266185 39.877997 
L 167.243687 39.881701 
L 171.221189 39.88571 
L 175.198691 39.890049 
L 179.176194 39.894744 
L 183.153696 39.899825 
L 187.131198 39.905324 
L 191.108701 39.911275 
L 195.086203 39.917715 
L 199.063705 39.924685 
L 203.041208 39.932227 
L 207.01871 39.940389 
L 210.996212 39.949222 
L 214.973714 39.958781 
L 218.951217 39.969126 
L 222.928719 39.980321 
L 226.906221 39.992435 
L 230.883724 40.005545 
L 234.861226 40.019732 
L 238.838728 40.035085 
L 242.81623 40.051699 
L 246.793733 40.069677 
L 250.771235 40.089132 
L 254.748737 40.110184 
L 258.72624 40.132966 
L 262.703742 40.157617 
L 266.681244 40.184292 
L 270.658747 40.213156 
L 274.636249 40.24439 
L 278.613751 40.278185 
L 282.591253 40.314754 
L 286.568756 40.354321 
L 290.546258 40.397133 
L 294.52376 40.443454 
L 298.501263 40.493572 
L 302.478765 40.547796 
L 306.456267 40.606462 
L 310.43377 40.669932 
L 314.411272 40.738596 
L 318.388774 40.81288 
L 322.366276 40.893238 
L 326.343779 40.980166 
L 330.321281 41.074197 
L 334.298783 41.175908 
L 338.276286 41.285921 
L 342.253788 41.404907 
L 346.23129 41.533593 
L 350.208792 41.672762 
L 354.186295 41.823259 
L 358.163797 41.985996 
L 362.141299 42.161955 
L 366.118802 42.352198 
L 370.096304 42.557868 
L 374.073806 42.780195 
L 378.051309 43.020508 
L 382.028811 43.280235 
L 386.006313 43.560914 
L 389.983815 43.864199 
L 393.961318 44.19187 
L 397.93882 44.54584 
L 401.916322 44.928163 
L 405.893825 45.341044 
L 409.871327 45.786851 
L 413.848829 46.268121 
L 417.826331 46.787571 
L 421.803834 47.348112 
L 425.781336 47.952854 
L 429.758838 48.605123 
L 433.736341 49.308466 
L 437.713843 50.066668 
L 441.691345 50.883756 
L 445.668848 51.764016 
L 449.64635 52.711996 
L 453.623852 53.732521 
L 457.601354 54.830698 
L 461.578857 56.011924 
L 465.556359 57.28189 
L 469.533861 58.646588 
L 473.511364 60.11231 
" style="fill:none;stroke:#bfbf00;stroke-linecap:square;stroke-width:2;"/>
   </g>
   <g id="line2d_53">
    <path clip-path="url(#p272acf1ce4)" d="M 79.738636 39.852173 
L 83.716139 39.853754 
L 87.693641 39.855465 
L 91.671143 39.857317 
L 95.648646 39.859321 
L 99.626148 39.86149 
L 103.60365 39.863838 
L 107.581152 39.866378 
L 111.558655 39.869127 
L 115.536157 39.872102 
L 119.513659 39.875322 
L 123.491162 39.878806 
L 127.468664 39.882577 
L 131.446166 39.886658 
L 135.423669 39.891075 
L 139.401171 39.895854 
L 143.378673 39.901027 
L 147.356175 39.906625 
L 151.333678 39.912683 
L 155.31118 39.919238 
L 159.288682 39.926333 
L 163.266185 39.934011 
L 167.243687 39.94232 
L 171.221189 39.951312 
L 175.198691 39.961043 
L 179.176194 39.971573 
L 183.153696 39.982969 
L 187.131198 39.995302 
L 191.108701 40.008647 
L 195.086203 40.023089 
L 199.063705 40.038718 
L 203.041208 40.05563 
L 207.01871 40.073931 
L 210.996212 40.093736 
L 214.973714 40.115167 
L 218.951217 40.138357 
L 222.928719 40.163451 
L 226.906221 40.190606 
L 230.883724 40.219989 
L 234.861226 40.251783 
L 238.838728 40.286186 
L 242.81623 40.323411 
L 246.793733 40.36369 
L 250.771235 40.40727 
L 254.748737 40.454424 
L 258.72624 40.505442 
L 262.703742 40.560641 
L 266.681244 40.62036 
L 270.658747 40.68497 
L 274.636249 40.754868 
L 278.613751 40.830485 
L 282.591253 40.912287 
L 286.568756 41.000776 
L 290.546258 41.096496 
L 294.52376 41.200032 
L 298.501263 41.31202 
L 302.478765 41.433143 
L 306.456267 41.564139 
L 310.43377 41.705806 
L 314.411272 41.859004 
L 318.388774 42.024661 
L 322.366276 42.203778 
L 326.343779 42.397435 
L 330.321281 42.606794 
L 334.298783 42.833109 
L 338.276286 43.077732 
L 342.253788 43.342116 
L 346.23129 43.627827 
L 350.208792 43.936548 
L 354.186295 44.270092 
L 358.163797 44.630404 
L 362.141299 45.019575 
L 366.118802 45.439852 
L 370.096304 45.893641 
L 374.073806 46.383525 
L 378.051309 46.912271 
L 382.028811 47.48284 
L 386.006313 48.098398 
L 389.983815 48.762328 
L 393.961318 49.478243 
L 397.93882 50.249991 
L 401.916322 51.081673 
L 405.893825 51.977649 
L 409.871327 52.942548 
L 413.848829 53.981281 
L 417.826331 55.099043 
L 421.803834 56.301328 
L 425.781336 57.593928 
L 429.758838 58.98294 
L 433.736341 60.474769 
L 437.713843 62.076122 
L 441.691345 63.794013 
L 445.668848 65.635746 
L 449.64635 67.608914 
L 453.623852 69.721378 
L 457.601354 71.981252 
L 461.578857 74.396877 
L 465.556359 76.976793 
L 469.533861 79.729705 
L 473.511364 82.664442 
" style="fill:none;stroke:#000000;stroke-linecap:square;stroke-width:2;"/>
   </g>
   <g id="line2d_54">
    <path clip-path="url(#p272acf1ce4)" d="M 79.738636 39.875927 
L 83.716139 39.879461 
L 87.693641 39.883286 
L 91.671143 39.887425 
L 95.648646 39.891905 
L 99.626148 39.896753 
L 103.60365 39.901999 
L 107.581152 39.907677 
L 111.558655 39.913821 
L 115.536157 39.920471 
L 119.513659 39.927667 
L 123.491162 39.935455 
L 127.468664 39.943882 
L 131.446166 39.953003 
L 135.423669 39.962872 
L 139.401171 39.973553 
L 143.378673 39.985112 
L 147.356175 39.99762 
L 151.333678 40.011156 
L 155.31118 40.025805 
L 159.288682 40.041656 
L 163.266185 40.05881 
L 167.243687 40.077373 
L 171.221189 40.09746 
L 175.198691 40.119196 
L 179.176194 40.142718 
L 183.153696 40.16817 
L 187.131198 40.195712 
L 191.108701 40.225515 
L 195.086203 40.257763 
L 199.063705 40.292656 
L 203.041208 40.330413 
L 207.01871 40.371265 
L 210.996212 40.415468 
L 214.973714 40.463294 
L 218.951217 40.51504 
L 222.928719 40.571025 
L 226.906221 40.631596 
L 230.883724 40.697126 
L 234.861226 40.768021 
L 238.838728 40.844715 
L 242.81623 40.927682 
L 246.793733 41.017432 
L 250.771235 41.114514 
L 254.748737 41.219525 
L 258.72624 41.333106 
L 262.703742 41.455952 
L 266.681244 41.588811 
L 270.658747 41.732492 
L 274.636249 41.887867 
L 278.613751 42.055877 
L 282.591253 42.237537 
L 286.568756 42.433941 
L 290.546258 42.64627 
L 294.52376 42.875793 
L 298.501263 43.123881 
L 302.478765 43.392008 
L 306.456267 43.681761 
L 310.43377 43.994846 
L 314.411272 44.333101 
L 318.388774 44.698497 
L 322.366276 45.093155 
L 326.343779 45.51935 
L 330.321281 45.979523 
L 334.298783 46.47629 
L 338.276286 47.012456 
L 342.253788 47.591019 
L 346.23129 48.215189 
L 350.208792 48.888394 
L 354.186295 49.614292 
L 358.163797 50.396782 
L 362.141299 51.240017 
L 366.118802 52.148413 
L 370.096304 53.126657 
L 374.073806 54.179721 
L 378.051309 55.312867 
L 382.028811 56.531652 
L 386.006313 57.841941 
L 389.983815 59.249902 
L 393.961318 60.762016 
L 397.93882 62.38507 
L 401.916322 64.126154 
L 405.893825 65.992658 
L 409.871327 67.992257 
L 413.848829 70.132899 
L 417.826331 72.422785 
L 421.803834 74.870343 
L 425.781336 77.484202 
L 429.758838 80.273155 
L 433.736341 83.246121 
L 437.713843 86.412098 
L 441.691345 89.780111 
L 445.668848 93.359157 
L 449.64635 97.158143 
L 453.623852 101.185819 
L 457.601354 105.450709 
L 461.578857 109.961038 
L 465.556359 114.724655 
L 469.533861 119.748958 
L 473.511364 125.040821 
" style="fill:none;stroke:#ff0000;stroke-linecap:square;stroke-width:2;"/>
   </g>
   <g id="line2d_55">
    <path clip-path="url(#p272acf1ce4)" d="M 79.738636 39.929025 
L 83.716139 39.936924 
L 87.693641 39.945472 
L 91.671143 39.954723 
L 95.648646 39.964735 
L 99.626148 39.975569 
L 103.60365 39.987293 
L 107.581152 39.99998 
L 111.558655 40.01371 
L 115.536157 40.028568 
L 119.513659 40.044647 
L 123.491162 40.062046 
L 127.468664 40.080875 
L 131.446166 40.10125 
L 135.423669 40.123298 
L 139.401171 40.147156 
L 143.378673 40.172973 
L 147.356175 40.200909 
L 151.333678 40.231138 
L 155.31118 40.263848 
L 159.288682 40.299241 
L 163.266185 40.337537 
L 167.243687 40.378974 
L 171.221189 40.423809 
L 175.198691 40.472319 
L 179.176194 40.524805 
L 183.153696 40.58159 
L 187.131198 40.643027 
L 191.108701 40.709494 
L 195.086203 40.7814 
L 199.063705 40.85919 
L 203.041208 40.943341 
L 207.01871 41.034371 
L 210.996212 41.132839 
L 214.973714 41.239346 
L 218.951217 41.354547 
L 222.928719 41.479142 
L 226.906221 41.613893 
L 230.883724 41.759618 
L 234.861226 41.917203 
L 238.838728 42.0876 
L 242.81623 42.27184 
L 246.793733 42.471031 
L 250.771235 42.68637 
L 254.748737 42.919145 
L 258.72624 43.170744 
L 262.703742 43.442661 
L 266.681244 43.736505 
L 270.658747 44.054006 
L 274.636249 44.397024 
L 278.613751 44.76756 
L 282.591253 45.16776 
L 286.568756 45.59993 
L 290.546258 46.066542 
L 294.52376 46.570248 
L 298.501263 47.113886 
L 302.478765 47.700495 
L 306.456267 48.333324 
L 310.43377 49.015844 
L 314.411272 49.751757 
L 318.388774 50.545011 
L 322.366276 51.399809 
L 326.343779 52.320617 
L 330.321281 53.312178 
L 334.298783 54.379519 
L 338.276286 55.527961 
L 342.253788 56.763124 
L 346.23129 58.090932 
L 350.208792 59.51762 
L 354.186295 61.049731 
L 358.163797 62.69412 
L 362.141299 64.457943 
L 366.118802 66.348657 
L 370.096304 68.374003 
L 374.073806 70.541994 
L 378.051309 72.860894 
L 382.028811 75.339193 
L 386.006313 77.985578 
L 389.983815 80.808898 
L 393.961318 83.818121 
L 397.93882 87.022291 
L 401.916322 90.430474 
L 405.893825 94.0517 
L 409.871327 97.894902 
L 413.848829 101.968853 
L 417.826331 106.282087 
L 421.803834 110.842834 
L 425.781336 115.658943 
L 429.758838 120.737804 
L 433.736341 126.086274 
L 437.713843 131.710607 
L 441.691345 137.616383 
L 445.668848 143.808443 
L 449.64635 150.290834 
L 453.623852 157.066757 
L 457.601354 164.13853 
L 461.578857 171.507554 
L 465.556359 179.174297 
L 469.533861 187.138284 
L 473.511364 195.3981 
" style="fill:none;stroke:#0000ff;stroke-linecap:square;stroke-width:2;"/>
   </g>
   <g id="line2d_56">
    <path clip-path="url(#p272acf1ce4)" d="M 79.738636 40.047928 
L 83.716139 40.065597 
L 87.693641 40.084717 
L 91.671143 40.105407 
L 95.648646 40.127796 
L 99.626148 40.152024 
L 103.60365 40.178241 
L 107.581152 40.206609 
L 111.558655 40.237306 
L 115.536157 40.270522 
L 119.513659 40.306462 
L 123.491162 40.345351 
L 127.468664 40.387429 
L 131.446166 40.432957 
L 135.423669 40.482217 
L 139.401171 40.535514 
L 143.378673 40.593177 
L 147.356175 40.655562 
L 151.333678 40.723055 
L 155.31118 40.796072 
L 159.288682 40.875062 
L 163.266185 40.960511 
L 167.243687 41.052945 
L 171.221189 41.15293 
L 175.198691 41.261078 
L 179.176194 41.378052 
L 183.153696 41.504565 
L 187.131198 41.641388 
L 191.108701 41.789352 
L 195.086203 41.949357 
L 199.063705 42.122369 
L 203.041208 42.309433 
L 207.01871 42.511675 
L 210.996212 42.730309 
L 214.973714 42.966642 
L 218.951217 43.222082 
L 222.928719 43.498145 
L 226.906221 43.796464 
L 230.883724 44.118792 
L 234.861226 44.467018 
L 238.838728 44.843169 
L 242.81623 45.249423 
L 246.793733 45.688117 
L 250.771235 46.161759 
L 254.748737 46.673036 
L 258.72624 47.224824 
L 262.703742 47.820204 
L 266.681244 48.462468 
L 270.658747 49.155131 
L 274.636249 49.901945 
L 278.613751 50.706907 
L 282.591253 51.57427 
L 286.568756 52.508558 
L 290.546258 53.514569 
L 294.52376 54.597389 
L 298.501263 55.762398 
L 302.478765 57.01528 
L 306.456267 58.362021 
L 310.43377 59.80892 
L 314.411272 61.362587 
L 318.388774 63.029938 
L 322.366276 64.818196 
L 326.343779 66.734881 
L 330.321281 68.787795 
L 334.298783 70.98501 
L 338.276286 73.334845 
L 342.253788 75.845843 
L 346.23129 78.526737 
L 350.208792 81.386415 
L 354.186295 84.433879 
L 358.163797 87.678199 
L 362.141299 91.128457 
L 366.118802 94.79369 
L 370.096304 98.682829 
L 374.073806 102.80463 
L 378.051309 107.167603 
L 382.028811 111.779942 
L 386.006313 116.649444 
L 389.983815 121.783439 
L 393.961318 127.188714 
L 397.93882 132.871439 
L 401.916322 138.837102 
L 405.893825 145.090448 
L 409.871327 151.635416 
L 413.848829 158.4751 
L 417.826331 165.611705 
L 421.803834 173.046522 
L 425.781336 180.779908 
L 429.758838 188.811287 
L 433.736341 197.139146 
L 437.713843 205.761064 
L 441.691345 214.673731 
L 445.668848 223.872992 
L 449.64635 233.353892 
L 453.623852 243.110734 
L 457.601354 253.137141 
L 461.578857 263.42612 
L 465.556359 273.97014 
L 469.533861 284.761201 
L 473.511364 295.790909 
" style="fill:none;stroke:#008000;stroke-linecap:square;stroke-width:2;"/>
   </g>
   <g id="patch_3">
    <path d="M 60.05 308.6 
L 60.05 26.8 
" style="fill:none;stroke:#000000;stroke-linecap:square;stroke-linejoin:miter;stroke-width:0.8;"/>
   </g>
   <g id="patch_4">
    <path d="M 493.2 308.6 
L 493.2 26.8 
" style="fill:none;stroke:#000000;stroke-linecap:square;stroke-linejoin:miter;stroke-width:0.8;"/>
   </g>
   <g id="patch_5">
    <path d="M 60.05 308.6 
L 493.2 308.6 
" style="fill:none;stroke:#000000;stroke-linecap:square;stroke-linejoin:miter;stroke-width:0.8;"/>
   </g>
   <g id="patch_6">
    <path d="M 60.05 26.8 
L 493.2 26.8 
" style="fill:none;stroke:#000000;stroke-linecap:square;stroke-linejoin:miter;stroke-width:0.8;"/>
   </g>
   <g id="text_12">
    <!-- Bandwidth limited amplifier - zoomed -->
    <g transform="translate(163.75375 20.8)scale(0.12 -0.12)">
     <defs>
      <path d="M 4.203125 54.6875 
L 13.1875 54.6875 
L 24.421875 12.015625 
L 35.59375 54.6875 
L 46.1875 54.6875 
L 57.421875 12.015625 
L 68.609375 54.6875 
L 77.59375 54.6875 
L 63.28125 0 
L 52.6875 0 
L 40.921875 44.828125 
L 29.109375 0 
L 18.5 0 
z
" id="DejaVuSans-119"/>
      <path d="M 54.890625 33.015625 
L 54.890625 0 
L 45.90625 0 
L 45.90625 32.71875 
Q 45.90625 40.484375 42.875 44.328125 
Q 39.84375 48.1875 33.796875 48.1875 
Q 26.515625 48.1875 22.3125 43.546875 
Q 18.109375 38.921875 18.109375 30.90625 
L 18.109375 0 
L 9.078125 0 
L 9.078125 75.984375 
L 18.109375 75.984375 
L 18.109375 46.1875 
Q 21.34375 51.125 25.703125 53.5625 
Q 30.078125 56 35.796875 56 
Q 45.21875 56 50.046875 50.171875 
Q 54.890625 44.34375 54.890625 33.015625 
z
" id="DejaVuSans-104"/>
      <path d="M 9.421875 75.984375 
L 18.40625 75.984375 
L 18.40625 0 
L 9.421875 0 
z
" id="DejaVuSans-108"/>
      <path d="M 18.109375 8.203125 
L 18.109375 -20.796875 
L 9.078125 -20.796875 
L 9.078125 54.6875 
L 18.109375 54.6875 
L 18.109375 46.390625 
Q 20.953125 51.265625 25.265625 53.625 
Q 29.59375 56 35.59375 56 
Q 45.5625 56 51.78125 48.09375 
Q 58.015625 40.1875 58.015625 27.296875 
Q 58.015625 14.40625 51.78125 6.484375 
Q 45.5625 -1.421875 35.59375 -1.421875 
Q 29.59375 -1.421875 25.265625 0.953125 
Q 20.953125 3.328125 18.109375 8.203125 
z
M 48.6875 27.296875 
Q 48.6875 37.203125 44.609375 42.84375 
Q 40.53125 48.484375 33.40625 48.484375 
Q 26.265625 48.484375 22.1875 42.84375 
Q 18.109375 37.203125 18.109375 27.296875 
Q 18.109375 17.390625 22.1875 11.75 
Q 26.265625 6.109375 33.40625 6.109375 
Q 40.53125 6.109375 44.609375 11.75 
Q 48.6875 17.390625 48.6875 27.296875 
z
" id="DejaVuSans-112"/>
      <path d="M 4.890625 31.390625 
L 31.203125 31.390625 
L 31.203125 23.390625 
L 4.890625 23.390625 
z
" id="DejaVuSans-45"/>
      <path d="M 30.609375 48.390625 
Q 23.390625 48.390625 19.1875 42.75 
Q 14.984375 37.109375 14.984375 27.296875 
Q 14.984375 17.484375 19.15625 11.84375 
Q 23.34375 6.203125 30.609375 6.203125 
Q 37.796875 6.203125 41.984375 11.859375 
Q 46.1875 17.53125 46.1875 27.296875 
Q 46.1875 37.015625 41.984375 42.703125 
Q 37.796875 48.390625 30.609375 48.390625 
z
M 30.609375 56 
Q 42.328125 56 49.015625 48.375 
Q 55.71875 40.765625 55.71875 27.296875 
Q 55.71875 13.875 49.015625 6.21875 
Q 42.328125 -1.421875 30.609375 -1.421875 
Q 18.84375 -1.421875 12.171875 6.21875 
Q 5.515625 13.875 5.515625 27.296875 
Q 5.515625 40.765625 12.171875 48.375 
Q 18.84375 56 30.609375 56 
z
" id="DejaVuSans-111"/>
     </defs>
     <use xlink:href="#DejaVuSans-66"/>
     <use x="68.603516" xlink:href="#DejaVuSans-97"/>
     <use x="129.882812" xlink:href="#DejaVuSans-110"/>
     <use x="193.261719" xlink:href="#DejaVuSans-100"/>
     <use x="256.738281" xlink:href="#DejaVuSans-119"/>
     <use x="338.525391" xlink:href="#DejaVuSans-105"/>
     <use x="366.308594" xlink:href="#DejaVuSans-100"/>
     <use x="429.785156" xlink:href="#DejaVuSans-116"/>
     <use x="468.994141" xlink:href="#DejaVuSans-104"/>
     <use x="532.373047" xlink:href="#DejaVuSans-32"/>
     <use x="564.160156" xlink:href="#DejaVuSans-108"/>
     <use x="591.943359" xlink:href="#DejaVuSans-105"/>
     <use x="619.726562" xlink:href="#DejaVuSans-109"/>
     <use x="717.138672" xlink:href="#DejaVuSans-105"/>
     <use x="744.921875" xlink:href="#DejaVuSans-116"/>
     <use x="784.130859" xlink:href="#DejaVuSans-101"/>
     <use x="845.654297" xlink:href="#DejaVuSans-100"/>
     <use x="909.130859" xlink:href="#DejaVuSans-32"/>
     <use x="940.917969" xlink:href="#DejaVuSans-97"/>
     <use x="1002.197266" xlink:href="#DejaVuSans-109"/>
     <use x="1099.609375" xlink:href="#DejaVuSans-112"/>
     <use x="1163.085938" xlink:href="#DejaVuSans-108"/>
     <use x="1190.869141" xlink:href="#DejaVuSans-105"/>
     <use x="1218.652344" xlink:href="#DejaVuSans-102"/>
     <use x="1253.857422" xlink:href="#DejaVuSans-105"/>
     <use x="1281.640625" xlink:href="#DejaVuSans-101"/>
     <use x="1343.164062" xlink:href="#DejaVuSans-114"/>
     <use x="1384.277344" xlink:href="#DejaVuSans-32"/>
     <use x="1416.064453" xlink:href="#DejaVuSans-45"/>
     <use x="1452.148438" xlink:href="#DejaVuSans-32"/>
     <use x="1483.935547" xlink:href="#DejaVuSans-122"/>
     <use x="1536.425781" xlink:href="#DejaVuSans-111"/>
     <use x="1597.607422" xlink:href="#DejaVuSans-111"/>
     <use x="1658.789062" xlink:href="#DejaVuSans-109"/>
     <use x="1756.201172" xlink:href="#DejaVuSans-101"/>
     <use x="1817.724609" xlink:href="#DejaVuSans-100"/>
    </g>
   </g>
   <g id="legend_1">
    <g id="patch_7">
     <path d="M 67.05 303.6 
L 215.7375 303.6 
Q 217.7375 303.6 217.7375 301.6 
L 217.7375 185.4625 
Q 217.7375 183.4625 215.7375 183.4625 
L 67.05 183.4625 
Q 65.05 183.4625 65.05 185.4625 
L 65.05 301.6 
Q 65.05 303.6 67.05 303.6 
z
" style="fill:#ffffff;opacity:0.8;stroke:#cccccc;stroke-linejoin:miter;"/>
    </g>
    <g id="line2d_57">
     <path d="M 67.05 191.080625 
L 77.05 191.080625 
" style="fill:none;stroke:#ff0000;stroke-linecap:square;stroke-width:2;"/>
    </g>
    <g id="line2d_58"/>
    <g id="text_13">
     <!-- gain, Rphz =  1.4e+01 -->
     <g transform="translate(79.05 194.580625)scale(0.12 -0.12)">
      <defs>
       <path d="M 11.71875 12.40625 
L 22.015625 12.40625 
L 22.015625 4 
L 14.015625 -11.625 
L 7.71875 -11.625 
L 11.71875 4 
z
" id="DejaVuSans-44"/>
       <path d="M 44.390625 34.1875 
Q 47.5625 33.109375 50.5625 29.59375 
Q 53.5625 26.078125 56.59375 19.921875 
L 66.609375 0 
L 56 0 
L 46.6875 18.703125 
Q 43.0625 26.03125 39.671875 28.421875 
Q 36.28125 30.8125 30.421875 30.8125 
L 19.671875 30.8125 
L 19.671875 0 
L 9.8125 0 
L 9.8125 72.90625 
L 32.078125 72.90625 
Q 44.578125 72.90625 50.734375 67.671875 
Q 56.890625 62.453125 56.890625 51.90625 
Q 56.890625 45.015625 53.6875 40.46875 
Q 50.484375 35.9375 44.390625 34.1875 
z
M 19.671875 64.796875 
L 19.671875 38.921875 
L 32.078125 38.921875 
Q 39.203125 38.921875 42.84375 42.21875 
Q 46.484375 45.515625 46.484375 51.90625 
Q 46.484375 58.296875 42.84375 61.546875 
Q 39.203125 64.796875 32.078125 64.796875 
z
" id="DejaVuSans-82"/>
       <path d="M 10.59375 45.40625 
L 73.1875 45.40625 
L 73.1875 37.203125 
L 10.59375 37.203125 
z
M 10.59375 25.484375 
L 73.1875 25.484375 
L 73.1875 17.1875 
L 10.59375 17.1875 
z
" id="DejaVuSans-61"/>
       <path d="M 10.6875 12.40625 
L 21 12.40625 
L 21 0 
L 10.6875 0 
z
" id="DejaVuSans-46"/>
       <path d="M 37.796875 64.3125 
L 12.890625 25.390625 
L 37.796875 25.390625 
z
M 35.203125 72.90625 
L 47.609375 72.90625 
L 47.609375 25.390625 
L 58.015625 25.390625 
L 58.015625 17.1875 
L 47.609375 17.1875 
L 47.609375 0 
L 37.796875 0 
L 37.796875 17.1875 
L 4.890625 17.1875 
L 4.890625 26.703125 
z
" id="DejaVuSans-52"/>
       <path d="M 46 62.703125 
L 46 35.5 
L 73.1875 35.5 
L 73.1875 27.203125 
L 46 27.203125 
L 46 0 
L 37.796875 0 
L 37.796875 27.203125 
L 10.59375 27.203125 
L 10.59375 35.5 
L 37.796875 35.5 
L 37.796875 62.703125 
z
" id="DejaVuSans-43"/>
      </defs>
      <use xlink:href="#DejaVuSans-103"/>
      <use x="63.476562" xlink:href="#DejaVuSans-97"/>
      <use x="124.755859" xlink:href="#DejaVuSans-105"/>
      <use x="152.539062" xlink:href="#DejaVuSans-110"/>
      <use x="215.917969" xlink:href="#DejaVuSans-44"/>
      <use x="247.705078" xlink:href="#DejaVuSans-32"/>
      <use x="279.492188" xlink:href="#DejaVuSans-82"/>
      <use x="348.974609" xlink:href="#DejaVuSans-112"/>
      <use x="412.451172" xlink:href="#DejaVuSans-104"/>
      <use x="475.830078" xlink:href="#DejaVuSans-122"/>
      <use x="528.320312" xlink:href="#DejaVuSans-32"/>
      <use x="560.107422" xlink:href="#DejaVuSans-61"/>
      <use x="643.896484" xlink:href="#DejaVuSans-32"/>
      <use x="675.683594" xlink:href="#DejaVuSans-32"/>
      <use x="707.470703" xlink:href="#DejaVuSans-49"/>
      <use x="771.09375" xlink:href="#DejaVuSans-46"/>
      <use x="802.880859" xlink:href="#DejaVuSans-52"/>
      <use x="866.503906" xlink:href="#DejaVuSans-101"/>
      <use x="928.027344" xlink:href="#DejaVuSans-43"/>
      <use x="1011.816406" xlink:href="#DejaVuSans-48"/>
      <use x="1075.439453" xlink:href="#DejaVuSans-49"/>
     </g>
    </g>
    <g id="line2d_59">
     <path d="M 67.05 202.694375 
L 77.05 202.694375 
" style="fill:none;stroke:#0000ff;stroke-linecap:square;stroke-width:2;"/>
    </g>
    <g id="line2d_60"/>
    <g id="text_14">
     <!-- gain, Rphz =  2.1e+01 -->
     <g transform="translate(79.05 206.194375)scale(0.12 -0.12)">
      <use xlink:href="#DejaVuSans-103"/>
      <use x="63.476562" xlink:href="#DejaVuSans-97"/>
      <use x="124.755859" xlink:href="#DejaVuSans-105"/>
      <use x="152.539062" xlink:href="#DejaVuSans-110"/>
      <use x="215.917969" xlink:href="#DejaVuSans-44"/>
      <use x="247.705078" xlink:href="#DejaVuSans-32"/>
      <use x="279.492188" xlink:href="#DejaVuSans-82"/>
      <use x="348.974609" xlink:href="#DejaVuSans-112"/>
      <use x="412.451172" xlink:href="#DejaVuSans-104"/>
      <use x="475.830078" xlink:href="#DejaVuSans-122"/>
      <use x="528.320312" xlink:href="#DejaVuSans-32"/>
      <use x="560.107422" xlink:href="#DejaVuSans-61"/>
      <use x="643.896484" xlink:href="#DejaVuSans-32"/>
      <use x="675.683594" xlink:href="#DejaVuSans-32"/>
      <use x="707.470703" xlink:href="#DejaVuSans-50"/>
      <use x="771.09375" xlink:href="#DejaVuSans-46"/>
      <use x="802.880859" xlink:href="#DejaVuSans-49"/>
      <use x="866.503906" xlink:href="#DejaVuSans-101"/>
      <use x="928.027344" xlink:href="#DejaVuSans-43"/>
      <use x="1011.816406" xlink:href="#DejaVuSans-48"/>
      <use x="1075.439453" xlink:href="#DejaVuSans-49"/>
     </g>
    </g>
    <g id="line2d_61">
     <path d="M 67.05 214.308125 
L 77.05 214.308125 
" style="fill:none;stroke:#008000;stroke-linecap:square;stroke-width:2;"/>
    </g>
    <g id="line2d_62"/>
    <g id="text_15">
     <!-- gain, Rphz =  3.1e+01 -->
     <g transform="translate(79.05 217.808125)scale(0.12 -0.12)">
      <defs>
       <path d="M 40.578125 39.3125 
Q 47.65625 37.796875 51.625 33 
Q 55.609375 28.21875 55.609375 21.1875 
Q 55.609375 10.40625 48.1875 4.484375 
Q 40.765625 -1.421875 27.09375 -1.421875 
Q 22.515625 -1.421875 17.65625 -0.515625 
Q 12.796875 0.390625 7.625 2.203125 
L 7.625 11.71875 
Q 11.71875 9.328125 16.59375 8.109375 
Q 21.484375 6.890625 26.8125 6.890625 
Q 36.078125 6.890625 40.9375 10.546875 
Q 45.796875 14.203125 45.796875 21.1875 
Q 45.796875 27.640625 41.28125 31.265625 
Q 36.765625 34.90625 28.71875 34.90625 
L 20.21875 34.90625 
L 20.21875 43.015625 
L 29.109375 43.015625 
Q 36.375 43.015625 40.234375 45.921875 
Q 44.09375 48.828125 44.09375 54.296875 
Q 44.09375 59.90625 40.109375 62.90625 
Q 36.140625 65.921875 28.71875 65.921875 
Q 24.65625 65.921875 20.015625 65.03125 
Q 15.375 64.15625 9.8125 62.3125 
L 9.8125 71.09375 
Q 15.4375 72.65625 20.34375 73.4375 
Q 25.25 74.21875 29.59375 74.21875 
Q 40.828125 74.21875 47.359375 69.109375 
Q 53.90625 64.015625 53.90625 55.328125 
Q 53.90625 49.265625 50.4375 45.09375 
Q 46.96875 40.921875 40.578125 39.3125 
z
" id="DejaVuSans-51"/>
      </defs>
      <use xlink:href="#DejaVuSans-103"/>
      <use x="63.476562" xlink:href="#DejaVuSans-97"/>
      <use x="124.755859" xlink:href="#DejaVuSans-105"/>
      <use x="152.539062" xlink:href="#DejaVuSans-110"/>
      <use x="215.917969" xlink:href="#DejaVuSans-44"/>
      <use x="247.705078" xlink:href="#DejaVuSans-32"/>
      <use x="279.492188" xlink:href="#DejaVuSans-82"/>
      <use x="348.974609" xlink:href="#DejaVuSans-112"/>
      <use x="412.451172" xlink:href="#DejaVuSans-104"/>
      <use x="475.830078" xlink:href="#DejaVuSans-122"/>
      <use x="528.320312" xlink:href="#DejaVuSans-32"/>
      <use x="560.107422" xlink:href="#DejaVuSans-61"/>
      <use x="643.896484" xlink:href="#DejaVuSans-32"/>
      <use x="675.683594" xlink:href="#DejaVuSans-32"/>
      <use x="707.470703" xlink:href="#DejaVuSans-51"/>
      <use x="771.09375" xlink:href="#DejaVuSans-46"/>
      <use x="802.880859" xlink:href="#DejaVuSans-49"/>
      <use x="866.503906" xlink:href="#DejaVuSans-101"/>
      <use x="928.027344" xlink:href="#DejaVuSans-43"/>
      <use x="1011.816406" xlink:href="#DejaVuSans-48"/>
      <use x="1075.439453" xlink:href="#DejaVuSans-49"/>
     </g>
    </g>
    <g id="line2d_63">
     <path d="M 67.05 225.921875 
L 77.05 225.921875 
" style="fill:none;stroke:#00bfbf;stroke-linecap:square;stroke-width:2;"/>
    </g>
    <g id="line2d_64"/>
    <g id="text_16">
     <!-- gain, Rphz =  4.7e+01 -->
     <g transform="translate(79.05 229.421875)scale(0.12 -0.12)">
      <use xlink:href="#DejaVuSans-103"/>
      <use x="63.476562" xlink:href="#DejaVuSans-97"/>
      <use x="124.755859" xlink:href="#DejaVuSans-105"/>
      <use x="152.539062" xlink:href="#DejaVuSans-110"/>
      <use x="215.917969" xlink:href="#DejaVuSans-44"/>
      <use x="247.705078" xlink:href="#DejaVuSans-32"/>
      <use x="279.492188" xlink:href="#DejaVuSans-82"/>
      <use x="348.974609" xlink:href="#DejaVuSans-112"/>
      <use x="412.451172" xlink:href="#DejaVuSans-104"/>
      <use x="475.830078" xlink:href="#DejaVuSans-122"/>
      <use x="528.320312" xlink:href="#DejaVuSans-32"/>
      <use x="560.107422" xlink:href="#DejaVuSans-61"/>
      <use x="643.896484" xlink:href="#DejaVuSans-32"/>
      <use x="675.683594" xlink:href="#DejaVuSans-32"/>
      <use x="707.470703" xlink:href="#DejaVuSans-52"/>
      <use x="771.09375" xlink:href="#DejaVuSans-46"/>
      <use x="802.880859" xlink:href="#DejaVuSans-55"/>
      <use x="866.503906" xlink:href="#DejaVuSans-101"/>
      <use x="928.027344" xlink:href="#DejaVuSans-43"/>
      <use x="1011.816406" xlink:href="#DejaVuSans-48"/>
      <use x="1075.439453" xlink:href="#DejaVuSans-49"/>
     </g>
    </g>
    <g id="line2d_65">
     <path d="M 67.05 237.535625 
L 77.05 237.535625 
" style="fill:none;stroke:#bf00bf;stroke-linecap:square;stroke-width:2;"/>
    </g>
    <g id="line2d_66"/>
    <g id="text_17">
     <!-- gain, Rphz =  7.0e+01 -->
     <g transform="translate(79.05 241.035625)scale(0.12 -0.12)">
      <use xlink:href="#DejaVuSans-103"/>
      <use x="63.476562" xlink:href="#DejaVuSans-97"/>
      <use x="124.755859" xlink:href="#DejaVuSans-105"/>
      <use x="152.539062" xlink:href="#DejaVuSans-110"/>
      <use x="215.917969" xlink:href="#DejaVuSans-44"/>
      <use x="247.705078" xlink:href="#DejaVuSans-32"/>
      <use x="279.492188" xlink:href="#DejaVuSans-82"/>
      <use x="348.974609" xlink:href="#DejaVuSans-112"/>
      <use x="412.451172" xlink:href="#DejaVuSans-104"/>
      <use x="475.830078" xlink:href="#DejaVuSans-122"/>
      <use x="528.320312" xlink:href="#DejaVuSans-32"/>
      <use x="560.107422" xlink:href="#DejaVuSans-61"/>
      <use x="643.896484" xlink:href="#DejaVuSans-32"/>
      <use x="675.683594" xlink:href="#DejaVuSans-32"/>
      <use x="707.470703" xlink:href="#DejaVuSans-55"/>
      <use x="771.09375" xlink:href="#DejaVuSans-46"/>
      <use x="802.880859" xlink:href="#DejaVuSans-48"/>
      <use x="866.503906" xlink:href="#DejaVuSans-101"/>
      <use x="928.027344" xlink:href="#DejaVuSans-43"/>
      <use x="1011.816406" xlink:href="#DejaVuSans-48"/>
      <use x="1075.439453" xlink:href="#DejaVuSans-49"/>
     </g>
    </g>
    <g id="line2d_67">
     <path d="M 67.05 249.149375 
L 77.05 249.149375 
" style="fill:none;stroke:#bfbf00;stroke-linecap:square;stroke-width:2;"/>
    </g>
    <g id="line2d_68"/>
    <g id="text_18">
     <!-- gain, Rphz =  1.0e+02 -->
     <g transform="translate(79.05 252.649375)scale(0.12 -0.12)">
      <use xlink:href="#DejaVuSans-103"/>
      <use x="63.476562" xlink:href="#DejaVuSans-97"/>
      <use x="124.755859" xlink:href="#DejaVuSans-105"/>
      <use x="152.539062" xlink:href="#DejaVuSans-110"/>
      <use x="215.917969" xlink:href="#DejaVuSans-44"/>
      <use x="247.705078" xlink:href="#DejaVuSans-32"/>
      <use x="279.492188" xlink:href="#DejaVuSans-82"/>
      <use x="348.974609" xlink:href="#DejaVuSans-112"/>
      <use x="412.451172" xlink:href="#DejaVuSans-104"/>
      <use x="475.830078" xlink:href="#DejaVuSans-122"/>
      <use x="528.320312" xlink:href="#DejaVuSans-32"/>
      <use x="560.107422" xlink:href="#DejaVuSans-61"/>
      <use x="643.896484" xlink:href="#DejaVuSans-32"/>
      <use x="675.683594" xlink:href="#DejaVuSans-32"/>
      <use x="707.470703" xlink:href="#DejaVuSans-49"/>
      <use x="771.09375" xlink:href="#DejaVuSans-46"/>
      <use x="802.880859" xlink:href="#DejaVuSans-48"/>
      <use x="866.503906" xlink:href="#DejaVuSans-101"/>
      <use x="928.027344" xlink:href="#DejaVuSans-43"/>
      <use x="1011.816406" xlink:href="#DejaVuSans-48"/>
      <use x="1075.439453" xlink:href="#DejaVuSans-50"/>
     </g>
    </g>
    <g id="line2d_69">
     <path d="M 67.05 260.763125 
L 77.05 260.763125 
" style="fill:none;stroke:#000000;stroke-linecap:square;stroke-width:2;"/>
    </g>
    <g id="line2d_70"/>
    <g id="text_19">
     <!-- gain, Rphz =  1.6e+02 -->
     <g transform="translate(79.05 264.263125)scale(0.12 -0.12)">
      <use xlink:href="#DejaVuSans-103"/>
      <use x="63.476562" xlink:href="#DejaVuSans-97"/>
      <use x="124.755859" xlink:href="#DejaVuSans-105"/>
      <use x="152.539062" xlink:href="#DejaVuSans-110"/>
      <use x="215.917969" xlink:href="#DejaVuSans-44"/>
      <use x="247.705078" xlink:href="#DejaVuSans-32"/>
      <use x="279.492188" xlink:href="#DejaVuSans-82"/>
      <use x="348.974609" xlink:href="#DejaVuSans-112"/>
      <use x="412.451172" xlink:href="#DejaVuSans-104"/>
      <use x="475.830078" xlink:href="#DejaVuSans-122"/>
      <use x="528.320312" xlink:href="#DejaVuSans-32"/>
      <use x="560.107422" xlink:href="#DejaVuSans-61"/>
      <use x="643.896484" xlink:href="#DejaVuSans-32"/>
      <use x="675.683594" xlink:href="#DejaVuSans-32"/>
      <use x="707.470703" xlink:href="#DejaVuSans-49"/>
      <use x="771.09375" xlink:href="#DejaVuSans-46"/>
      <use x="802.880859" xlink:href="#DejaVuSans-54"/>
      <use x="866.503906" xlink:href="#DejaVuSans-101"/>
      <use x="928.027344" xlink:href="#DejaVuSans-43"/>
      <use x="1011.816406" xlink:href="#DejaVuSans-48"/>
      <use x="1075.439453" xlink:href="#DejaVuSans-50"/>
     </g>
    </g>
    <g id="line2d_71">
     <path d="M 67.05 272.376875 
L 77.05 272.376875 
" style="fill:none;stroke:#ff0000;stroke-linecap:square;stroke-width:2;"/>
    </g>
    <g id="line2d_72"/>
    <g id="text_20">
     <!-- gain, Rphz =  2.4e+02 -->
     <g transform="translate(79.05 275.876875)scale(0.12 -0.12)">
      <use xlink:href="#DejaVuSans-103"/>
      <use x="63.476562" xlink:href="#DejaVuSans-97"/>
      <use x="124.755859" xlink:href="#DejaVuSans-105"/>
      <use x="152.539062" xlink:href="#DejaVuSans-110"/>
      <use x="215.917969" xlink:href="#DejaVuSans-44"/>
      <use x="247.705078" xlink:href="#DejaVuSans-32"/>
      <use x="279.492188" xlink:href="#DejaVuSans-82"/>
      <use x="348.974609" xlink:href="#DejaVuSans-112"/>
      <use x="412.451172" xlink:href="#DejaVuSans-104"/>
      <use x="475.830078" xlink:href="#DejaVuSans-122"/>
      <use x="528.320312" xlink:href="#DejaVuSans-32"/>
      <use x="560.107422" xlink:href="#DejaVuSans-61"/>
      <use x="643.896484" xlink:href="#DejaVuSans-32"/>
      <use x="675.683594" xlink:href="#DejaVuSans-32"/>
      <use x="707.470703" xlink:href="#DejaVuSans-50"/>
      <use x="771.09375" xlink:href="#DejaVuSans-46"/>
      <use x="802.880859" xlink:href="#DejaVuSans-52"/>
      <use x="866.503906" xlink:href="#DejaVuSans-101"/>
      <use x="928.027344" xlink:href="#DejaVuSans-43"/>
      <use x="1011.816406" xlink:href="#DejaVuSans-48"/>
      <use x="1075.439453" xlink:href="#DejaVuSans-50"/>
     </g>
    </g>
    <g id="line2d_73">
     <path d="M 67.05 283.990625 
L 77.05 283.990625 
" style="fill:none;stroke:#0000ff;stroke-linecap:square;stroke-width:2;"/>
    </g>
    <g id="line2d_74"/>
    <g id="text_21">
     <!-- gain, Rphz =  3.5e+02 -->
     <g transform="translate(79.05 287.490625)scale(0.12 -0.12)">
      <defs>
       <path d="M 10.796875 72.90625 
L 49.515625 72.90625 
L 49.515625 64.59375 
L 19.828125 64.59375 
L 19.828125 46.734375 
Q 21.96875 47.46875 24.109375 47.828125 
Q 26.265625 48.1875 28.421875 48.1875 
Q 40.625 48.1875 47.75 41.5 
Q 54.890625 34.8125 54.890625 23.390625 
Q 54.890625 11.625 47.5625 5.09375 
Q 40.234375 -1.421875 26.90625 -1.421875 
Q 22.3125 -1.421875 17.546875 -0.640625 
Q 12.796875 0.140625 7.71875 1.703125 
L 7.71875 11.625 
Q 12.109375 9.234375 16.796875 8.0625 
Q 21.484375 6.890625 26.703125 6.890625 
Q 35.15625 6.890625 40.078125 11.328125 
Q 45.015625 15.765625 45.015625 23.390625 
Q 45.015625 31 40.078125 35.4375 
Q 35.15625 39.890625 26.703125 39.890625 
Q 22.75 39.890625 18.8125 39.015625 
Q 14.890625 38.140625 10.796875 36.28125 
z
" id="DejaVuSans-53"/>
      </defs>
      <use xlink:href="#DejaVuSans-103"/>
      <use x="63.476562" xlink:href="#DejaVuSans-97"/>
      <use x="124.755859" xlink:href="#DejaVuSans-105"/>
      <use x="152.539062" xlink:href="#DejaVuSans-110"/>
      <use x="215.917969" xlink:href="#DejaVuSans-44"/>
      <use x="247.705078" xlink:href="#DejaVuSans-32"/>
      <use x="279.492188" xlink:href="#DejaVuSans-82"/>
      <use x="348.974609" xlink:href="#DejaVuSans-112"/>
      <use x="412.451172" xlink:href="#DejaVuSans-104"/>
      <use x="475.830078" xlink:href="#DejaVuSans-122"/>
      <use x="528.320312" xlink:href="#DejaVuSans-32"/>
      <use x="560.107422" xlink:href="#DejaVuSans-61"/>
      <use x="643.896484" xlink:href="#DejaVuSans-32"/>
      <use x="675.683594" xlink:href="#DejaVuSans-32"/>
      <use x="707.470703" xlink:href="#DejaVuSans-51"/>
      <use x="771.09375" xlink:href="#DejaVuSans-46"/>
      <use x="802.880859" xlink:href="#DejaVuSans-53"/>
      <use x="866.503906" xlink:href="#DejaVuSans-101"/>
      <use x="928.027344" xlink:href="#DejaVuSans-43"/>
      <use x="1011.816406" xlink:href="#DejaVuSans-48"/>
      <use x="1075.439453" xlink:href="#DejaVuSans-50"/>
     </g>
    </g>
    <g id="line2d_75">
     <path d="M 67.05 295.604375 
L 77.05 295.604375 
" style="fill:none;stroke:#008000;stroke-linecap:square;stroke-width:2;"/>
    </g>
    <g id="line2d_76"/>
    <g id="text_22">
     <!-- gain, Rphz =  5.3e+02 -->
     <g transform="translate(79.05 299.104375)scale(0.12 -0.12)">
      <use xlink:href="#DejaVuSans-103"/>
      <use x="63.476562" xlink:href="#DejaVuSans-97"/>
      <use x="124.755859" xlink:href="#DejaVuSans-105"/>
      <use x="152.539062" xlink:href="#DejaVuSans-110"/>
      <use x="215.917969" xlink:href="#DejaVuSans-44"/>
      <use x="247.705078" xlink:href="#DejaVuSans-32"/>
      <use x="279.492188" xlink:href="#DejaVuSans-82"/>
      <use x="348.974609" xlink:href="#DejaVuSans-112"/>
      <use x="412.451172" xlink:href="#DejaVuSans-104"/>
      <use x="475.830078" xlink:href="#DejaVuSans-122"/>
      <use x="528.320312" xlink:href="#DejaVuSans-32"/>
      <use x="560.107422" xlink:href="#DejaVuSans-61"/>
      <use x="643.896484" xlink:href="#DejaVuSans-32"/>
      <use x="675.683594" xlink:href="#DejaVuSans-32"/>
      <use x="707.470703" xlink:href="#DejaVuSans-53"/>
      <use x="771.09375" xlink:href="#DejaVuSans-46"/>
      <use x="802.880859" xlink:href="#DejaVuSans-51"/>
      <use x="866.503906" xlink:href="#DejaVuSans-101"/>
      <use x="928.027344" xlink:href="#DejaVuSans-43"/>
      <use x="1011.816406" xlink:href="#DejaVuSans-48"/>
      <use x="1075.439453" xlink:href="#DejaVuSans-50"/>
     </g>
    </g>
   </g>
  </g>
 </g>
 <defs>
  <clipPath id="p272acf1ce4">
   <rect height="281.8" width="433.15" x="60.05" y="26.8"/>
  </clipPath>
 </defs>
</svg>
