<?xml version="1.0" encoding="utf-8" standalone="no"?>
<!DOCTYPE svg PUBLIC "-//W3C//DTD SVG 1.1//EN"
  "http://www.w3.org/Graphics/SVG/1.1/DTD/svg11.dtd">
<!-- Created with matplotlib (https://matplotlib.org/) -->
<svg height="360pt" version="1.1" viewBox="0 0 504 360" width="504pt" xmlns="http://www.w3.org/2000/svg" xmlns:xlink="http://www.w3.org/1999/xlink">
 <metadata>
  <rdf:RDF xmlns:cc="http://creativecommons.org/ns#" xmlns:dc="http://purl.org/dc/elements/1.1/" xmlns:rdf="http://www.w3.org/1999/02/22-rdf-syntax-ns#">
   <cc:Work>
    <dc:type rdf:resource="http://purl.org/dc/dcmitype/StillImage"/>
    <dc:date>2021-12-24T00:00:19.742336</dc:date>
    <dc:format>image/svg+xml</dc:format>
    <dc:creator>
     <cc:Agent>
      <dc:title>Matplotlib v3.3.4, https://matplotlib.org/</dc:title>
     </cc:Agent>
    </dc:creator>
   </cc:Work>
  </rdf:RDF>
 </metadata>
 <defs>
  <style type="text/css">*{stroke-linecap:butt;stroke-linejoin:round;}</style>
 </defs>
 <g id="figure_1">
  <g id="patch_1">
   <path d="M 0 360 
L 504 360 
L 504 0 
L 0 0 
z
" style="fill:#ffffff;"/>
  </g>
  <g id="axes_1">
   <g id="patch_2">
    <path d="M 60.05 308.6 
L 493.2 308.6 
L 493.2 26.8 
L 60.05 26.8 
z
" style="fill:#ffffff;"/>
   </g>
   <g id="matplotlib.axis_1">
    <g id="xtick_1">
     <g id="line2d_1">
      <path clip-path="url(#p6870ca6a9e)" d="M 79.738636 308.6 
L 79.738636 26.8 
" style="fill:none;stroke:#808080;stroke-linecap:square;stroke-width:0.8;"/>
     </g>
     <g id="line2d_2">
      <defs>
       <path d="M 0 0 
L 0 3.5 
" id="me5f744f6fe" style="stroke:#000000;stroke-width:0.8;"/>
      </defs>
      <g>
       <use style="stroke:#000000;stroke-width:0.8;" x="79.738636" xlink:href="#me5f744f6fe" y="308.6"/>
      </g>
     </g>
     <g id="text_1">
      <!-- $\mathdefault{10^{1}}$ -->
      <g transform="translate(69.178636 324.718125)scale(0.12 -0.12)">
       <defs>
        <path d="M 12.40625 8.296875 
L 28.515625 8.296875 
L 28.515625 63.921875 
L 10.984375 60.40625 
L 10.984375 69.390625 
L 28.421875 72.90625 
L 38.28125 72.90625 
L 38.28125 8.296875 
L 54.390625 8.296875 
L 54.390625 0 
L 12.40625 0 
z
" id="DejaVuSans-49"/>
        <path d="M 31.78125 66.40625 
Q 24.171875 66.40625 20.328125 58.90625 
Q 16.5 51.421875 16.5 36.375 
Q 16.5 21.390625 20.328125 13.890625 
Q 24.171875 6.390625 31.78125 6.390625 
Q 39.453125 6.390625 43.28125 13.890625 
Q 47.125 21.390625 47.125 36.375 
Q 47.125 51.421875 43.28125 58.90625 
Q 39.453125 66.40625 31.78125 66.40625 
z
M 31.78125 74.21875 
Q 44.046875 74.21875 50.515625 64.515625 
Q 56.984375 54.828125 56.984375 36.375 
Q 56.984375 17.96875 50.515625 8.265625 
Q 44.046875 -1.421875 31.78125 -1.421875 
Q 19.53125 -1.421875 13.0625 8.265625 
Q 6.59375 17.96875 6.59375 36.375 
Q 6.59375 54.828125 13.0625 64.515625 
Q 19.53125 74.21875 31.78125 74.21875 
z
" id="DejaVuSans-48"/>
       </defs>
       <use transform="translate(0 0.684375)" xlink:href="#DejaVuSans-49"/>
       <use transform="translate(63.623047 0.684375)" xlink:href="#DejaVuSans-48"/>
       <use transform="translate(128.203125 38.965625)scale(0.7)" xlink:href="#DejaVuSans-49"/>
      </g>
     </g>
    </g>
    <g id="xtick_2">
     <g id="line2d_3">
      <path clip-path="url(#p6870ca6a9e)" d="M 178.181818 308.6 
L 178.181818 26.8 
" style="fill:none;stroke:#808080;stroke-linecap:square;stroke-width:0.8;"/>
     </g>
     <g id="line2d_4">
      <g>
       <use style="stroke:#000000;stroke-width:0.8;" x="178.181818" xlink:href="#me5f744f6fe" y="308.6"/>
      </g>
     </g>
     <g id="text_2">
      <!-- $\mathdefault{10^{2}}$ -->
      <g transform="translate(167.621818 324.718125)scale(0.12 -0.12)">
       <defs>
        <path d="M 19.1875 8.296875 
L 53.609375 8.296875 
L 53.609375 0 
L 7.328125 0 
L 7.328125 8.296875 
Q 12.9375 14.109375 22.625 23.890625 
Q 32.328125 33.6875 34.8125 36.53125 
Q 39.546875 41.84375 41.421875 45.53125 
Q 43.3125 49.21875 43.3125 52.78125 
Q 43.3125 58.59375 39.234375 62.25 
Q 35.15625 65.921875 28.609375 65.921875 
Q 23.96875 65.921875 18.8125 64.3125 
Q 13.671875 62.703125 7.8125 59.421875 
L 7.8125 69.390625 
Q 13.765625 71.78125 18.9375 73 
Q 24.125 74.21875 28.421875 74.21875 
Q 39.75 74.21875 46.484375 68.546875 
Q 53.21875 62.890625 53.21875 53.421875 
Q 53.21875 48.921875 51.53125 44.890625 
Q 49.859375 40.875 45.40625 35.40625 
Q 44.1875 33.984375 37.640625 27.21875 
Q 31.109375 20.453125 19.1875 8.296875 
z
" id="DejaVuSans-50"/>
       </defs>
       <use transform="translate(0 0.765625)" xlink:href="#DejaVuSans-49"/>
       <use transform="translate(63.623047 0.765625)" xlink:href="#DejaVuSans-48"/>
       <use transform="translate(128.203125 39.046875)scale(0.7)" xlink:href="#DejaVuSans-50"/>
      </g>
     </g>
    </g>
    <g id="xtick_3">
     <g id="line2d_5">
      <path clip-path="url(#p6870ca6a9e)" d="M 276.625 308.6 
L 276.625 26.8 
" style="fill:none;stroke:#808080;stroke-linecap:square;stroke-width:0.8;"/>
     </g>
     <g id="line2d_6">
      <g>
       <use style="stroke:#000000;stroke-width:0.8;" x="276.625" xlink:href="#me5f744f6fe" y="308.6"/>
      </g>
     </g>
     <g id="text_3">
      <!-- $\mathdefault{10^{3}}$ -->
      <g transform="translate(266.065 324.718125)scale(0.12 -0.12)">
       <defs>
        <path d="M 40.578125 39.3125 
Q 47.65625 37.796875 51.625 33 
Q 55.609375 28.21875 55.609375 21.1875 
Q 55.609375 10.40625 48.1875 4.484375 
Q 40.765625 -1.421875 27.09375 -1.421875 
Q 22.515625 -1.421875 17.65625 -0.515625 
Q 12.796875 0.390625 7.625 2.203125 
L 7.625 11.71875 
Q 11.71875 9.328125 16.59375 8.109375 
Q 21.484375 6.890625 26.8125 6.890625 
Q 36.078125 6.890625 40.9375 10.546875 
Q 45.796875 14.203125 45.796875 21.1875 
Q 45.796875 27.640625 41.28125 31.265625 
Q 36.765625 34.90625 28.71875 34.90625 
L 20.21875 34.90625 
L 20.21875 43.015625 
L 29.109375 43.015625 
Q 36.375 43.015625 40.234375 45.921875 
Q 44.09375 48.828125 44.09375 54.296875 
Q 44.09375 59.90625 40.109375 62.90625 
Q 36.140625 65.921875 28.71875 65.921875 
Q 24.65625 65.921875 20.015625 65.03125 
Q 15.375 64.15625 9.8125 62.3125 
L 9.8125 71.09375 
Q 15.4375 72.65625 20.34375 73.4375 
Q 25.25 74.21875 29.59375 74.21875 
Q 40.828125 74.21875 47.359375 69.109375 
Q 53.90625 64.015625 53.90625 55.328125 
Q 53.90625 49.265625 50.4375 45.09375 
Q 46.96875 40.921875 40.578125 39.3125 
z
" id="DejaVuSans-51"/>
       </defs>
       <use transform="translate(0 0.765625)" xlink:href="#DejaVuSans-49"/>
       <use transform="translate(63.623047 0.765625)" xlink:href="#DejaVuSans-48"/>
       <use transform="translate(128.203125 39.046875)scale(0.7)" xlink:href="#DejaVuSans-51"/>
      </g>
     </g>
    </g>
    <g id="xtick_4">
     <g id="line2d_7">
      <path clip-path="url(#p6870ca6a9e)" d="M 375.068182 308.6 
L 375.068182 26.8 
" style="fill:none;stroke:#808080;stroke-linecap:square;stroke-width:0.8;"/>
     </g>
     <g id="line2d_8">
      <g>
       <use style="stroke:#000000;stroke-width:0.8;" x="375.068182" xlink:href="#me5f744f6fe" y="308.6"/>
      </g>
     </g>
     <g id="text_4">
      <!-- $\mathdefault{10^{4}}$ -->
      <g transform="translate(364.508182 324.718125)scale(0.12 -0.12)">
       <defs>
        <path d="M 37.796875 64.3125 
L 12.890625 25.390625 
L 37.796875 25.390625 
z
M 35.203125 72.90625 
L 47.609375 72.90625 
L 47.609375 25.390625 
L 58.015625 25.390625 
L 58.015625 17.1875 
L 47.609375 17.1875 
L 47.609375 0 
L 37.796875 0 
L 37.796875 17.1875 
L 4.890625 17.1875 
L 4.890625 26.703125 
z
" id="DejaVuSans-52"/>
       </defs>
       <use transform="translate(0 0.684375)" xlink:href="#DejaVuSans-49"/>
       <use transform="translate(63.623047 0.684375)" xlink:href="#DejaVuSans-48"/>
       <use transform="translate(128.203125 38.965625)scale(0.7)" xlink:href="#DejaVuSans-52"/>
      </g>
     </g>
    </g>
    <g id="xtick_5">
     <g id="line2d_9">
      <path clip-path="url(#p6870ca6a9e)" d="M 473.511364 308.6 
L 473.511364 26.8 
" style="fill:none;stroke:#808080;stroke-linecap:square;stroke-width:0.8;"/>
     </g>
     <g id="line2d_10">
      <g>
       <use style="stroke:#000000;stroke-width:0.8;" x="473.511364" xlink:href="#me5f744f6fe" y="308.6"/>
      </g>
     </g>
     <g id="text_5">
      <!-- $\mathdefault{10^{5}}$ -->
      <g transform="translate(462.951364 324.718125)scale(0.12 -0.12)">
       <defs>
        <path d="M 10.796875 72.90625 
L 49.515625 72.90625 
L 49.515625 64.59375 
L 19.828125 64.59375 
L 19.828125 46.734375 
Q 21.96875 47.46875 24.109375 47.828125 
Q 26.265625 48.1875 28.421875 48.1875 
Q 40.625 48.1875 47.75 41.5 
Q 54.890625 34.8125 54.890625 23.390625 
Q 54.890625 11.625 47.5625 5.09375 
Q 40.234375 -1.421875 26.90625 -1.421875 
Q 22.3125 -1.421875 17.546875 -0.640625 
Q 12.796875 0.140625 7.71875 1.703125 
L 7.71875 11.625 
Q 12.109375 9.234375 16.796875 8.0625 
Q 21.484375 6.890625 26.703125 6.890625 
Q 35.15625 6.890625 40.078125 11.328125 
Q 45.015625 15.765625 45.015625 23.390625 
Q 45.015625 31 40.078125 35.4375 
Q 35.15625 39.890625 26.703125 39.890625 
Q 22.75 39.890625 18.8125 39.015625 
Q 14.890625 38.140625 10.796875 36.28125 
z
" id="DejaVuSans-53"/>
       </defs>
       <use transform="translate(0 0.684375)" xlink:href="#DejaVuSans-49"/>
       <use transform="translate(63.623047 0.684375)" xlink:href="#DejaVuSans-48"/>
       <use transform="translate(128.203125 38.965625)scale(0.7)" xlink:href="#DejaVuSans-53"/>
      </g>
     </g>
    </g>
    <g id="xtick_6">
     <g id="line2d_11">
      <path clip-path="url(#p6870ca6a9e)" d="M 64.489595 308.6 
L 64.489595 26.8 
" style="fill:none;stroke:#808080;stroke-dasharray:0.8,1.32;stroke-dashoffset:0;stroke-width:0.8;"/>
     </g>
     <g id="line2d_12">
      <defs>
       <path d="M 0 0 
L 0 2 
" id="m617f2238a3" style="stroke:#000000;stroke-width:0.6;"/>
      </defs>
      <g>
       <use style="stroke:#000000;stroke-width:0.6;" x="64.489595" xlink:href="#m617f2238a3" y="308.6"/>
      </g>
     </g>
    </g>
    <g id="xtick_7">
     <g id="line2d_13">
      <path clip-path="url(#p6870ca6a9e)" d="M 70.198506 308.6 
L 70.198506 26.8 
" style="fill:none;stroke:#808080;stroke-dasharray:0.8,1.32;stroke-dashoffset:0;stroke-width:0.8;"/>
     </g>
     <g id="line2d_14">
      <g>
       <use style="stroke:#000000;stroke-width:0.6;" x="70.198506" xlink:href="#m617f2238a3" y="308.6"/>
      </g>
     </g>
    </g>
    <g id="xtick_8">
     <g id="line2d_15">
      <path clip-path="url(#p6870ca6a9e)" d="M 75.234123 308.6 
L 75.234123 26.8 
" style="fill:none;stroke:#808080;stroke-dasharray:0.8,1.32;stroke-dashoffset:0;stroke-width:0.8;"/>
     </g>
     <g id="line2d_16">
      <g>
       <use style="stroke:#000000;stroke-width:0.6;" x="75.234123" xlink:href="#m617f2238a3" y="308.6"/>
      </g>
     </g>
    </g>
    <g id="xtick_9">
     <g id="line2d_17">
      <path clip-path="url(#p6870ca6a9e)" d="M 109.372987 308.6 
L 109.372987 26.8 
" style="fill:none;stroke:#808080;stroke-dasharray:0.8,1.32;stroke-dashoffset:0;stroke-width:0.8;"/>
     </g>
     <g id="line2d_18">
      <g>
       <use style="stroke:#000000;stroke-width:0.6;" x="109.372987" xlink:href="#m617f2238a3" y="308.6"/>
      </g>
     </g>
    </g>
    <g id="xtick_10">
     <g id="line2d_19">
      <path clip-path="url(#p6870ca6a9e)" d="M 126.707971 308.6 
L 126.707971 26.8 
" style="fill:none;stroke:#808080;stroke-dasharray:0.8,1.32;stroke-dashoffset:0;stroke-width:0.8;"/>
     </g>
     <g id="line2d_20">
      <g>
       <use style="stroke:#000000;stroke-width:0.6;" x="126.707971" xlink:href="#m617f2238a3" y="308.6"/>
      </g>
     </g>
    </g>
    <g id="xtick_11">
     <g id="line2d_21">
      <path clip-path="url(#p6870ca6a9e)" d="M 139.007338 308.6 
L 139.007338 26.8 
" style="fill:none;stroke:#808080;stroke-dasharray:0.8,1.32;stroke-dashoffset:0;stroke-width:0.8;"/>
     </g>
     <g id="line2d_22">
      <g>
       <use style="stroke:#000000;stroke-width:0.6;" x="139.007338" xlink:href="#m617f2238a3" y="308.6"/>
      </g>
     </g>
    </g>
    <g id="xtick_12">
     <g id="line2d_23">
      <path clip-path="url(#p6870ca6a9e)" d="M 148.547468 308.6 
L 148.547468 26.8 
" style="fill:none;stroke:#808080;stroke-dasharray:0.8,1.32;stroke-dashoffset:0;stroke-width:0.8;"/>
     </g>
     <g id="line2d_24">
      <g>
       <use style="stroke:#000000;stroke-width:0.6;" x="148.547468" xlink:href="#m617f2238a3" y="308.6"/>
      </g>
     </g>
    </g>
    <g id="xtick_13">
     <g id="line2d_25">
      <path clip-path="url(#p6870ca6a9e)" d="M 156.342321 308.6 
L 156.342321 26.8 
" style="fill:none;stroke:#808080;stroke-dasharray:0.8,1.32;stroke-dashoffset:0;stroke-width:0.8;"/>
     </g>
     <g id="line2d_26">
      <g>
       <use style="stroke:#000000;stroke-width:0.6;" x="156.342321" xlink:href="#m617f2238a3" y="308.6"/>
      </g>
     </g>
    </g>
    <g id="xtick_14">
     <g id="line2d_27">
      <path clip-path="url(#p6870ca6a9e)" d="M 162.932776 308.6 
L 162.932776 26.8 
" style="fill:none;stroke:#808080;stroke-dasharray:0.8,1.32;stroke-dashoffset:0;stroke-width:0.8;"/>
     </g>
     <g id="line2d_28">
      <g>
       <use style="stroke:#000000;stroke-width:0.6;" x="162.932776" xlink:href="#m617f2238a3" y="308.6"/>
      </g>
     </g>
    </g>
    <g id="xtick_15">
     <g id="line2d_29">
      <path clip-path="url(#p6870ca6a9e)" d="M 168.641688 308.6 
L 168.641688 26.8 
" style="fill:none;stroke:#808080;stroke-dasharray:0.8,1.32;stroke-dashoffset:0;stroke-width:0.8;"/>
     </g>
     <g id="line2d_30">
      <g>
       <use style="stroke:#000000;stroke-width:0.6;" x="168.641688" xlink:href="#m617f2238a3" y="308.6"/>
      </g>
     </g>
    </g>
    <g id="xtick_16">
     <g id="line2d_31">
      <path clip-path="url(#p6870ca6a9e)" d="M 173.677305 308.6 
L 173.677305 26.8 
" style="fill:none;stroke:#808080;stroke-dasharray:0.8,1.32;stroke-dashoffset:0;stroke-width:0.8;"/>
     </g>
     <g id="line2d_32">
      <g>
       <use style="stroke:#000000;stroke-width:0.6;" x="173.677305" xlink:href="#m617f2238a3" y="308.6"/>
      </g>
     </g>
    </g>
    <g id="xtick_17">
     <g id="line2d_33">
      <path clip-path="url(#p6870ca6a9e)" d="M 207.816169 308.6 
L 207.816169 26.8 
" style="fill:none;stroke:#808080;stroke-dasharray:0.8,1.32;stroke-dashoffset:0;stroke-width:0.8;"/>
     </g>
     <g id="line2d_34">
      <g>
       <use style="stroke:#000000;stroke-width:0.6;" x="207.816169" xlink:href="#m617f2238a3" y="308.6"/>
      </g>
     </g>
    </g>
    <g id="xtick_18">
     <g id="line2d_35">
      <path clip-path="url(#p6870ca6a9e)" d="M 225.151153 308.6 
L 225.151153 26.8 
" style="fill:none;stroke:#808080;stroke-dasharray:0.8,1.32;stroke-dashoffset:0;stroke-width:0.8;"/>
     </g>
     <g id="line2d_36">
      <g>
       <use style="stroke:#000000;stroke-width:0.6;" x="225.151153" xlink:href="#m617f2238a3" y="308.6"/>
      </g>
     </g>
    </g>
    <g id="xtick_19">
     <g id="line2d_37">
      <path clip-path="url(#p6870ca6a9e)" d="M 237.450519 308.6 
L 237.450519 26.8 
" style="fill:none;stroke:#808080;stroke-dasharray:0.8,1.32;stroke-dashoffset:0;stroke-width:0.8;"/>
     </g>
     <g id="line2d_38">
      <g>
       <use style="stroke:#000000;stroke-width:0.6;" x="237.450519" xlink:href="#m617f2238a3" y="308.6"/>
      </g>
     </g>
    </g>
    <g id="xtick_20">
     <g id="line2d_39">
      <path clip-path="url(#p6870ca6a9e)" d="M 246.990649 308.6 
L 246.990649 26.8 
" style="fill:none;stroke:#808080;stroke-dasharray:0.8,1.32;stroke-dashoffset:0;stroke-width:0.8;"/>
     </g>
     <g id="line2d_40">
      <g>
       <use style="stroke:#000000;stroke-width:0.6;" x="246.990649" xlink:href="#m617f2238a3" y="308.6"/>
      </g>
     </g>
    </g>
    <g id="xtick_21">
     <g id="line2d_41">
      <path clip-path="url(#p6870ca6a9e)" d="M 254.785503 308.6 
L 254.785503 26.8 
" style="fill:none;stroke:#808080;stroke-dasharray:0.8,1.32;stroke-dashoffset:0;stroke-width:0.8;"/>
     </g>
     <g id="line2d_42">
      <g>
       <use style="stroke:#000000;stroke-width:0.6;" x="254.785503" xlink:href="#m617f2238a3" y="308.6"/>
      </g>
     </g>
    </g>
    <g id="xtick_22">
     <g id="line2d_43">
      <path clip-path="url(#p6870ca6a9e)" d="M 261.375958 308.6 
L 261.375958 26.8 
" style="fill:none;stroke:#808080;stroke-dasharray:0.8,1.32;stroke-dashoffset:0;stroke-width:0.8;"/>
     </g>
     <g id="line2d_44">
      <g>
       <use style="stroke:#000000;stroke-width:0.6;" x="261.375958" xlink:href="#m617f2238a3" y="308.6"/>
      </g>
     </g>
    </g>
    <g id="xtick_23">
     <g id="line2d_45">
      <path clip-path="url(#p6870ca6a9e)" d="M 267.08487 308.6 
L 267.08487 26.8 
" style="fill:none;stroke:#808080;stroke-dasharray:0.8,1.32;stroke-dashoffset:0;stroke-width:0.8;"/>
     </g>
     <g id="line2d_46">
      <g>
       <use style="stroke:#000000;stroke-width:0.6;" x="267.08487" xlink:href="#m617f2238a3" y="308.6"/>
      </g>
     </g>
    </g>
    <g id="xtick_24">
     <g id="line2d_47">
      <path clip-path="url(#p6870ca6a9e)" d="M 272.120487 308.6 
L 272.120487 26.8 
" style="fill:none;stroke:#808080;stroke-dasharray:0.8,1.32;stroke-dashoffset:0;stroke-width:0.8;"/>
     </g>
     <g id="line2d_48">
      <g>
       <use style="stroke:#000000;stroke-width:0.6;" x="272.120487" xlink:href="#m617f2238a3" y="308.6"/>
      </g>
     </g>
    </g>
    <g id="xtick_25">
     <g id="line2d_49">
      <path clip-path="url(#p6870ca6a9e)" d="M 306.259351 308.6 
L 306.259351 26.8 
" style="fill:none;stroke:#808080;stroke-dasharray:0.8,1.32;stroke-dashoffset:0;stroke-width:0.8;"/>
     </g>
     <g id="line2d_50">
      <g>
       <use style="stroke:#000000;stroke-width:0.6;" x="306.259351" xlink:href="#m617f2238a3" y="308.6"/>
      </g>
     </g>
    </g>
    <g id="xtick_26">
     <g id="line2d_51">
      <path clip-path="url(#p6870ca6a9e)" d="M 323.594334 308.6 
L 323.594334 26.8 
" style="fill:none;stroke:#808080;stroke-dasharray:0.8,1.32;stroke-dashoffset:0;stroke-width:0.8;"/>
     </g>
     <g id="line2d_52">
      <g>
       <use style="stroke:#000000;stroke-width:0.6;" x="323.594334" xlink:href="#m617f2238a3" y="308.6"/>
      </g>
     </g>
    </g>
    <g id="xtick_27">
     <g id="line2d_53">
      <path clip-path="url(#p6870ca6a9e)" d="M 335.893701 308.6 
L 335.893701 26.8 
" style="fill:none;stroke:#808080;stroke-dasharray:0.8,1.32;stroke-dashoffset:0;stroke-width:0.8;"/>
     </g>
     <g id="line2d_54">
      <g>
       <use style="stroke:#000000;stroke-width:0.6;" x="335.893701" xlink:href="#m617f2238a3" y="308.6"/>
      </g>
     </g>
    </g>
    <g id="xtick_28">
     <g id="line2d_55">
      <path clip-path="url(#p6870ca6a9e)" d="M 345.433831 308.6 
L 345.433831 26.8 
" style="fill:none;stroke:#808080;stroke-dasharray:0.8,1.32;stroke-dashoffset:0;stroke-width:0.8;"/>
     </g>
     <g id="line2d_56">
      <g>
       <use style="stroke:#000000;stroke-width:0.6;" x="345.433831" xlink:href="#m617f2238a3" y="308.6"/>
      </g>
     </g>
    </g>
    <g id="xtick_29">
     <g id="line2d_57">
      <path clip-path="url(#p6870ca6a9e)" d="M 353.228685 308.6 
L 353.228685 26.8 
" style="fill:none;stroke:#808080;stroke-dasharray:0.8,1.32;stroke-dashoffset:0;stroke-width:0.8;"/>
     </g>
     <g id="line2d_58">
      <g>
       <use style="stroke:#000000;stroke-width:0.6;" x="353.228685" xlink:href="#m617f2238a3" y="308.6"/>
      </g>
     </g>
    </g>
    <g id="xtick_30">
     <g id="line2d_59">
      <path clip-path="url(#p6870ca6a9e)" d="M 359.81914 308.6 
L 359.81914 26.8 
" style="fill:none;stroke:#808080;stroke-dasharray:0.8,1.32;stroke-dashoffset:0;stroke-width:0.8;"/>
     </g>
     <g id="line2d_60">
      <g>
       <use style="stroke:#000000;stroke-width:0.6;" x="359.81914" xlink:href="#m617f2238a3" y="308.6"/>
      </g>
     </g>
    </g>
    <g id="xtick_31">
     <g id="line2d_61">
      <path clip-path="url(#p6870ca6a9e)" d="M 365.528052 308.6 
L 365.528052 26.8 
" style="fill:none;stroke:#808080;stroke-dasharray:0.8,1.32;stroke-dashoffset:0;stroke-width:0.8;"/>
     </g>
     <g id="line2d_62">
      <g>
       <use style="stroke:#000000;stroke-width:0.6;" x="365.528052" xlink:href="#m617f2238a3" y="308.6"/>
      </g>
     </g>
    </g>
    <g id="xtick_32">
     <g id="line2d_63">
      <path clip-path="url(#p6870ca6a9e)" d="M 370.563669 308.6 
L 370.563669 26.8 
" style="fill:none;stroke:#808080;stroke-dasharray:0.8,1.32;stroke-dashoffset:0;stroke-width:0.8;"/>
     </g>
     <g id="line2d_64">
      <g>
       <use style="stroke:#000000;stroke-width:0.6;" x="370.563669" xlink:href="#m617f2238a3" y="308.6"/>
      </g>
     </g>
    </g>
    <g id="xtick_33">
     <g id="line2d_65">
      <path clip-path="url(#p6870ca6a9e)" d="M 404.702532 308.6 
L 404.702532 26.8 
" style="fill:none;stroke:#808080;stroke-dasharray:0.8,1.32;stroke-dashoffset:0;stroke-width:0.8;"/>
     </g>
     <g id="line2d_66">
      <g>
       <use style="stroke:#000000;stroke-width:0.6;" x="404.702532" xlink:href="#m617f2238a3" y="308.6"/>
      </g>
     </g>
    </g>
    <g id="xtick_34">
     <g id="line2d_67">
      <path clip-path="url(#p6870ca6a9e)" d="M 422.037516 308.6 
L 422.037516 26.8 
" style="fill:none;stroke:#808080;stroke-dasharray:0.8,1.32;stroke-dashoffset:0;stroke-width:0.8;"/>
     </g>
     <g id="line2d_68">
      <g>
       <use style="stroke:#000000;stroke-width:0.6;" x="422.037516" xlink:href="#m617f2238a3" y="308.6"/>
      </g>
     </g>
    </g>
    <g id="xtick_35">
     <g id="line2d_69">
      <path clip-path="url(#p6870ca6a9e)" d="M 434.336883 308.6 
L 434.336883 26.8 
" style="fill:none;stroke:#808080;stroke-dasharray:0.8,1.32;stroke-dashoffset:0;stroke-width:0.8;"/>
     </g>
     <g id="line2d_70">
      <g>
       <use style="stroke:#000000;stroke-width:0.6;" x="434.336883" xlink:href="#m617f2238a3" y="308.6"/>
      </g>
     </g>
    </g>
    <g id="xtick_36">
     <g id="line2d_71">
      <path clip-path="url(#p6870ca6a9e)" d="M 443.877013 308.6 
L 443.877013 26.8 
" style="fill:none;stroke:#808080;stroke-dasharray:0.8,1.32;stroke-dashoffset:0;stroke-width:0.8;"/>
     </g>
     <g id="line2d_72">
      <g>
       <use style="stroke:#000000;stroke-width:0.6;" x="443.877013" xlink:href="#m617f2238a3" y="308.6"/>
      </g>
     </g>
    </g>
    <g id="xtick_37">
     <g id="line2d_73">
      <path clip-path="url(#p6870ca6a9e)" d="M 451.671867 308.6 
L 451.671867 26.8 
" style="fill:none;stroke:#808080;stroke-dasharray:0.8,1.32;stroke-dashoffset:0;stroke-width:0.8;"/>
     </g>
     <g id="line2d_74">
      <g>
       <use style="stroke:#000000;stroke-width:0.6;" x="451.671867" xlink:href="#m617f2238a3" y="308.6"/>
      </g>
     </g>
    </g>
    <g id="xtick_38">
     <g id="line2d_75">
      <path clip-path="url(#p6870ca6a9e)" d="M 458.262322 308.6 
L 458.262322 26.8 
" style="fill:none;stroke:#808080;stroke-dasharray:0.8,1.32;stroke-dashoffset:0;stroke-width:0.8;"/>
     </g>
     <g id="line2d_76">
      <g>
       <use style="stroke:#000000;stroke-width:0.6;" x="458.262322" xlink:href="#m617f2238a3" y="308.6"/>
      </g>
     </g>
    </g>
    <g id="xtick_39">
     <g id="line2d_77">
      <path clip-path="url(#p6870ca6a9e)" d="M 463.971234 308.6 
L 463.971234 26.8 
" style="fill:none;stroke:#808080;stroke-dasharray:0.8,1.32;stroke-dashoffset:0;stroke-width:0.8;"/>
     </g>
     <g id="line2d_78">
      <g>
       <use style="stroke:#000000;stroke-width:0.6;" x="463.971234" xlink:href="#m617f2238a3" y="308.6"/>
      </g>
     </g>
    </g>
    <g id="xtick_40">
     <g id="line2d_79">
      <path clip-path="url(#p6870ca6a9e)" d="M 469.006851 308.6 
L 469.006851 26.8 
" style="fill:none;stroke:#808080;stroke-dasharray:0.8,1.32;stroke-dashoffset:0;stroke-width:0.8;"/>
     </g>
     <g id="line2d_80">
      <g>
       <use style="stroke:#000000;stroke-width:0.6;" x="469.006851" xlink:href="#m617f2238a3" y="308.6"/>
      </g>
     </g>
    </g>
    <g id="text_6">
     <!-- frequency [MHz] -->
     <g transform="translate(227.10625 340.331875)scale(0.12 -0.12)">
      <defs>
       <path d="M 37.109375 75.984375 
L 37.109375 68.5 
L 28.515625 68.5 
Q 23.6875 68.5 21.796875 66.546875 
Q 19.921875 64.59375 19.921875 59.515625 
L 19.921875 54.6875 
L 34.71875 54.6875 
L 34.71875 47.703125 
L 19.921875 47.703125 
L 19.921875 0 
L 10.890625 0 
L 10.890625 47.703125 
L 2.296875 47.703125 
L 2.296875 54.6875 
L 10.890625 54.6875 
L 10.890625 58.5 
Q 10.890625 67.625 15.140625 71.796875 
Q 19.390625 75.984375 28.609375 75.984375 
z
" id="DejaVuSans-102"/>
       <path d="M 41.109375 46.296875 
Q 39.59375 47.171875 37.8125 47.578125 
Q 36.03125 48 33.890625 48 
Q 26.265625 48 22.1875 43.046875 
Q 18.109375 38.09375 18.109375 28.8125 
L 18.109375 0 
L 9.078125 0 
L 9.078125 54.6875 
L 18.109375 54.6875 
L 18.109375 46.1875 
Q 20.953125 51.171875 25.484375 53.578125 
Q 30.03125 56 36.53125 56 
Q 37.453125 56 38.578125 55.875 
Q 39.703125 55.765625 41.0625 55.515625 
z
" id="DejaVuSans-114"/>
       <path d="M 56.203125 29.59375 
L 56.203125 25.203125 
L 14.890625 25.203125 
Q 15.484375 15.921875 20.484375 11.0625 
Q 25.484375 6.203125 34.421875 6.203125 
Q 39.59375 6.203125 44.453125 7.46875 
Q 49.3125 8.734375 54.109375 11.28125 
L 54.109375 2.78125 
Q 49.265625 0.734375 44.1875 -0.34375 
Q 39.109375 -1.421875 33.890625 -1.421875 
Q 20.796875 -1.421875 13.15625 6.1875 
Q 5.515625 13.8125 5.515625 26.8125 
Q 5.515625 40.234375 12.765625 48.109375 
Q 20.015625 56 32.328125 56 
Q 43.359375 56 49.78125 48.890625 
Q 56.203125 41.796875 56.203125 29.59375 
z
M 47.21875 32.234375 
Q 47.125 39.59375 43.09375 43.984375 
Q 39.0625 48.390625 32.421875 48.390625 
Q 24.90625 48.390625 20.390625 44.140625 
Q 15.875 39.890625 15.1875 32.171875 
z
" id="DejaVuSans-101"/>
       <path d="M 14.796875 27.296875 
Q 14.796875 17.390625 18.875 11.75 
Q 22.953125 6.109375 30.078125 6.109375 
Q 37.203125 6.109375 41.296875 11.75 
Q 45.40625 17.390625 45.40625 27.296875 
Q 45.40625 37.203125 41.296875 42.84375 
Q 37.203125 48.484375 30.078125 48.484375 
Q 22.953125 48.484375 18.875 42.84375 
Q 14.796875 37.203125 14.796875 27.296875 
z
M 45.40625 8.203125 
Q 42.578125 3.328125 38.25 0.953125 
Q 33.9375 -1.421875 27.875 -1.421875 
Q 17.96875 -1.421875 11.734375 6.484375 
Q 5.515625 14.40625 5.515625 27.296875 
Q 5.515625 40.1875 11.734375 48.09375 
Q 17.96875 56 27.875 56 
Q 33.9375 56 38.25 53.625 
Q 42.578125 51.265625 45.40625 46.390625 
L 45.40625 54.6875 
L 54.390625 54.6875 
L 54.390625 -20.796875 
L 45.40625 -20.796875 
z
" id="DejaVuSans-113"/>
       <path d="M 8.5 21.578125 
L 8.5 54.6875 
L 17.484375 54.6875 
L 17.484375 21.921875 
Q 17.484375 14.15625 20.5 10.265625 
Q 23.53125 6.390625 29.59375 6.390625 
Q 36.859375 6.390625 41.078125 11.03125 
Q 45.3125 15.671875 45.3125 23.6875 
L 45.3125 54.6875 
L 54.296875 54.6875 
L 54.296875 0 
L 45.3125 0 
L 45.3125 8.40625 
Q 42.046875 3.421875 37.71875 1 
Q 33.40625 -1.421875 27.6875 -1.421875 
Q 18.265625 -1.421875 13.375 4.4375 
Q 8.5 10.296875 8.5 21.578125 
z
M 31.109375 56 
z
" id="DejaVuSans-117"/>
       <path d="M 54.890625 33.015625 
L 54.890625 0 
L 45.90625 0 
L 45.90625 32.71875 
Q 45.90625 40.484375 42.875 44.328125 
Q 39.84375 48.1875 33.796875 48.1875 
Q 26.515625 48.1875 22.3125 43.546875 
Q 18.109375 38.921875 18.109375 30.90625 
L 18.109375 0 
L 9.078125 0 
L 9.078125 54.6875 
L 18.109375 54.6875 
L 18.109375 46.1875 
Q 21.34375 51.125 25.703125 53.5625 
Q 30.078125 56 35.796875 56 
Q 45.21875 56 50.046875 50.171875 
Q 54.890625 44.34375 54.890625 33.015625 
z
" id="DejaVuSans-110"/>
       <path d="M 48.78125 52.59375 
L 48.78125 44.1875 
Q 44.96875 46.296875 41.140625 47.34375 
Q 37.3125 48.390625 33.40625 48.390625 
Q 24.65625 48.390625 19.8125 42.84375 
Q 14.984375 37.3125 14.984375 27.296875 
Q 14.984375 17.28125 19.8125 11.734375 
Q 24.65625 6.203125 33.40625 6.203125 
Q 37.3125 6.203125 41.140625 7.25 
Q 44.96875 8.296875 48.78125 10.40625 
L 48.78125 2.09375 
Q 45.015625 0.34375 40.984375 -0.53125 
Q 36.96875 -1.421875 32.421875 -1.421875 
Q 20.0625 -1.421875 12.78125 6.34375 
Q 5.515625 14.109375 5.515625 27.296875 
Q 5.515625 40.671875 12.859375 48.328125 
Q 20.21875 56 33.015625 56 
Q 37.15625 56 41.109375 55.140625 
Q 45.0625 54.296875 48.78125 52.59375 
z
" id="DejaVuSans-99"/>
       <path d="M 32.171875 -5.078125 
Q 28.375 -14.84375 24.75 -17.8125 
Q 21.140625 -20.796875 15.09375 -20.796875 
L 7.90625 -20.796875 
L 7.90625 -13.28125 
L 13.1875 -13.28125 
Q 16.890625 -13.28125 18.9375 -11.515625 
Q 21 -9.765625 23.484375 -3.21875 
L 25.09375 0.875 
L 2.984375 54.6875 
L 12.5 54.6875 
L 29.59375 11.921875 
L 46.6875 54.6875 
L 56.203125 54.6875 
z
" id="DejaVuSans-121"/>
       <path id="DejaVuSans-32"/>
       <path d="M 8.59375 75.984375 
L 29.296875 75.984375 
L 29.296875 69 
L 17.578125 69 
L 17.578125 -6.203125 
L 29.296875 -6.203125 
L 29.296875 -13.1875 
L 8.59375 -13.1875 
z
" id="DejaVuSans-91"/>
       <path d="M 9.8125 72.90625 
L 24.515625 72.90625 
L 43.109375 23.296875 
L 61.8125 72.90625 
L 76.515625 72.90625 
L 76.515625 0 
L 66.890625 0 
L 66.890625 64.015625 
L 48.09375 14.015625 
L 38.1875 14.015625 
L 19.390625 64.015625 
L 19.390625 0 
L 9.8125 0 
z
" id="DejaVuSans-77"/>
       <path d="M 9.8125 72.90625 
L 19.671875 72.90625 
L 19.671875 43.015625 
L 55.515625 43.015625 
L 55.515625 72.90625 
L 65.375 72.90625 
L 65.375 0 
L 55.515625 0 
L 55.515625 34.71875 
L 19.671875 34.71875 
L 19.671875 0 
L 9.8125 0 
z
" id="DejaVuSans-72"/>
       <path d="M 5.515625 54.6875 
L 48.1875 54.6875 
L 48.1875 46.484375 
L 14.40625 7.171875 
L 48.1875 7.171875 
L 48.1875 0 
L 4.296875 0 
L 4.296875 8.203125 
L 38.09375 47.515625 
L 5.515625 47.515625 
z
" id="DejaVuSans-122"/>
       <path d="M 30.421875 75.984375 
L 30.421875 -13.1875 
L 9.71875 -13.1875 
L 9.71875 -6.203125 
L 21.390625 -6.203125 
L 21.390625 69 
L 9.71875 69 
L 9.71875 75.984375 
z
" id="DejaVuSans-93"/>
      </defs>
      <use xlink:href="#DejaVuSans-102"/>
      <use x="35.205078" xlink:href="#DejaVuSans-114"/>
      <use x="74.068359" xlink:href="#DejaVuSans-101"/>
      <use x="135.591797" xlink:href="#DejaVuSans-113"/>
      <use x="199.068359" xlink:href="#DejaVuSans-117"/>
      <use x="262.447266" xlink:href="#DejaVuSans-101"/>
      <use x="323.970703" xlink:href="#DejaVuSans-110"/>
      <use x="387.349609" xlink:href="#DejaVuSans-99"/>
      <use x="442.330078" xlink:href="#DejaVuSans-121"/>
      <use x="501.509766" xlink:href="#DejaVuSans-32"/>
      <use x="533.296875" xlink:href="#DejaVuSans-91"/>
      <use x="572.310547" xlink:href="#DejaVuSans-77"/>
      <use x="658.589844" xlink:href="#DejaVuSans-72"/>
      <use x="733.785156" xlink:href="#DejaVuSans-122"/>
      <use x="786.275391" xlink:href="#DejaVuSans-93"/>
     </g>
    </g>
   </g>
   <g id="matplotlib.axis_2">
    <g id="ytick_1">
     <g id="line2d_81">
      <path clip-path="url(#p6870ca6a9e)" d="M 60.05 275.922868 
L 493.2 275.922868 
" style="fill:none;stroke:#808080;stroke-linecap:square;stroke-width:0.8;"/>
     </g>
     <g id="line2d_82">
      <defs>
       <path d="M 0 0 
L -3.5 0 
" id="mb39808edf1" style="stroke:#000000;stroke-width:0.8;"/>
      </defs>
      <g>
       <use style="stroke:#000000;stroke-width:0.8;" x="60.05" xlink:href="#mb39808edf1" y="275.922868"/>
      </g>
     </g>
     <g id="text_7">
      <!-- −60 -->
      <g transform="translate(27.724375 280.48193)scale(0.12 -0.12)">
       <defs>
        <path d="M 10.59375 35.5 
L 73.1875 35.5 
L 73.1875 27.203125 
L 10.59375 27.203125 
z
" id="DejaVuSans-8722"/>
        <path d="M 33.015625 40.375 
Q 26.375 40.375 22.484375 35.828125 
Q 18.609375 31.296875 18.609375 23.390625 
Q 18.609375 15.53125 22.484375 10.953125 
Q 26.375 6.390625 33.015625 6.390625 
Q 39.65625 6.390625 43.53125 10.953125 
Q 47.40625 15.53125 47.40625 23.390625 
Q 47.40625 31.296875 43.53125 35.828125 
Q 39.65625 40.375 33.015625 40.375 
z
M 52.59375 71.296875 
L 52.59375 62.3125 
Q 48.875 64.0625 45.09375 64.984375 
Q 41.3125 65.921875 37.59375 65.921875 
Q 27.828125 65.921875 22.671875 59.328125 
Q 17.53125 52.734375 16.796875 39.40625 
Q 19.671875 43.65625 24.015625 45.921875 
Q 28.375 48.1875 33.59375 48.1875 
Q 44.578125 48.1875 50.953125 41.515625 
Q 57.328125 34.859375 57.328125 23.390625 
Q 57.328125 12.15625 50.6875 5.359375 
Q 44.046875 -1.421875 33.015625 -1.421875 
Q 20.359375 -1.421875 13.671875 8.265625 
Q 6.984375 17.96875 6.984375 36.375 
Q 6.984375 53.65625 15.1875 63.9375 
Q 23.390625 74.21875 37.203125 74.21875 
Q 40.921875 74.21875 44.703125 73.484375 
Q 48.484375 72.75 52.59375 71.296875 
z
" id="DejaVuSans-54"/>
       </defs>
       <use xlink:href="#DejaVuSans-8722"/>
       <use x="83.789062" xlink:href="#DejaVuSans-54"/>
       <use x="147.412109" xlink:href="#DejaVuSans-48"/>
      </g>
     </g>
    </g>
    <g id="ytick_2">
     <g id="line2d_83">
      <path clip-path="url(#p6870ca6a9e)" d="M 60.05 218.471647 
L 493.2 218.471647 
" style="fill:none;stroke:#808080;stroke-linecap:square;stroke-width:0.8;"/>
     </g>
     <g id="line2d_84">
      <g>
       <use style="stroke:#000000;stroke-width:0.8;" x="60.05" xlink:href="#mb39808edf1" y="218.471647"/>
      </g>
     </g>
     <g id="text_8">
      <!-- −40 -->
      <g transform="translate(27.724375 223.03071)scale(0.12 -0.12)">
       <use xlink:href="#DejaVuSans-8722"/>
       <use x="83.789062" xlink:href="#DejaVuSans-52"/>
       <use x="147.412109" xlink:href="#DejaVuSans-48"/>
      </g>
     </g>
    </g>
    <g id="ytick_3">
     <g id="line2d_85">
      <path clip-path="url(#p6870ca6a9e)" d="M 60.05 161.020427 
L 493.2 161.020427 
" style="fill:none;stroke:#808080;stroke-linecap:square;stroke-width:0.8;"/>
     </g>
     <g id="line2d_86">
      <g>
       <use style="stroke:#000000;stroke-width:0.8;" x="60.05" xlink:href="#mb39808edf1" y="161.020427"/>
      </g>
     </g>
     <g id="text_9">
      <!-- −20 -->
      <g transform="translate(27.724375 165.579489)scale(0.12 -0.12)">
       <use xlink:href="#DejaVuSans-8722"/>
       <use x="83.789062" xlink:href="#DejaVuSans-50"/>
       <use x="147.412109" xlink:href="#DejaVuSans-48"/>
      </g>
     </g>
    </g>
    <g id="ytick_4">
     <g id="line2d_87">
      <path clip-path="url(#p6870ca6a9e)" d="M 60.05 103.569206 
L 493.2 103.569206 
" style="fill:none;stroke:#808080;stroke-linecap:square;stroke-width:0.8;"/>
     </g>
     <g id="line2d_88">
      <g>
       <use style="stroke:#000000;stroke-width:0.8;" x="60.05" xlink:href="#mb39808edf1" y="103.569206"/>
      </g>
     </g>
     <g id="text_10">
      <!-- 0 -->
      <g transform="translate(45.415 108.128269)scale(0.12 -0.12)">
       <use xlink:href="#DejaVuSans-48"/>
      </g>
     </g>
    </g>
    <g id="ytick_5">
     <g id="line2d_89">
      <path clip-path="url(#p6870ca6a9e)" d="M 60.05 46.117986 
L 493.2 46.117986 
" style="fill:none;stroke:#808080;stroke-linecap:square;stroke-width:0.8;"/>
     </g>
     <g id="line2d_90">
      <g>
       <use style="stroke:#000000;stroke-width:0.8;" x="60.05" xlink:href="#mb39808edf1" y="46.117986"/>
      </g>
     </g>
     <g id="text_11">
      <!-- 20 -->
      <g transform="translate(37.78 50.677048)scale(0.12 -0.12)">
       <use xlink:href="#DejaVuSans-50"/>
       <use x="63.623047" xlink:href="#DejaVuSans-48"/>
      </g>
     </g>
    </g>
    <g id="text_12">
     <!-- magnitude [dB] -->
     <g transform="translate(21.22875 214.669687)rotate(-90)scale(0.12 -0.12)">
      <defs>
       <path d="M 52 44.1875 
Q 55.375 50.25 60.0625 53.125 
Q 64.75 56 71.09375 56 
Q 79.640625 56 84.28125 50.015625 
Q 88.921875 44.046875 88.921875 33.015625 
L 88.921875 0 
L 79.890625 0 
L 79.890625 32.71875 
Q 79.890625 40.578125 77.09375 44.375 
Q 74.3125 48.1875 68.609375 48.1875 
Q 61.625 48.1875 57.5625 43.546875 
Q 53.515625 38.921875 53.515625 30.90625 
L 53.515625 0 
L 44.484375 0 
L 44.484375 32.71875 
Q 44.484375 40.625 41.703125 44.40625 
Q 38.921875 48.1875 33.109375 48.1875 
Q 26.21875 48.1875 22.15625 43.53125 
Q 18.109375 38.875 18.109375 30.90625 
L 18.109375 0 
L 9.078125 0 
L 9.078125 54.6875 
L 18.109375 54.6875 
L 18.109375 46.1875 
Q 21.1875 51.21875 25.484375 53.609375 
Q 29.78125 56 35.6875 56 
Q 41.65625 56 45.828125 52.96875 
Q 50 49.953125 52 44.1875 
z
" id="DejaVuSans-109"/>
       <path d="M 34.28125 27.484375 
Q 23.390625 27.484375 19.1875 25 
Q 14.984375 22.515625 14.984375 16.5 
Q 14.984375 11.71875 18.140625 8.90625 
Q 21.296875 6.109375 26.703125 6.109375 
Q 34.1875 6.109375 38.703125 11.40625 
Q 43.21875 16.703125 43.21875 25.484375 
L 43.21875 27.484375 
z
M 52.203125 31.203125 
L 52.203125 0 
L 43.21875 0 
L 43.21875 8.296875 
Q 40.140625 3.328125 35.546875 0.953125 
Q 30.953125 -1.421875 24.3125 -1.421875 
Q 15.921875 -1.421875 10.953125 3.296875 
Q 6 8.015625 6 15.921875 
Q 6 25.140625 12.171875 29.828125 
Q 18.359375 34.515625 30.609375 34.515625 
L 43.21875 34.515625 
L 43.21875 35.40625 
Q 43.21875 41.609375 39.140625 45 
Q 35.0625 48.390625 27.6875 48.390625 
Q 23 48.390625 18.546875 47.265625 
Q 14.109375 46.140625 10.015625 43.890625 
L 10.015625 52.203125 
Q 14.9375 54.109375 19.578125 55.046875 
Q 24.21875 56 28.609375 56 
Q 40.484375 56 46.34375 49.84375 
Q 52.203125 43.703125 52.203125 31.203125 
z
" id="DejaVuSans-97"/>
       <path d="M 45.40625 27.984375 
Q 45.40625 37.75 41.375 43.109375 
Q 37.359375 48.484375 30.078125 48.484375 
Q 22.859375 48.484375 18.828125 43.109375 
Q 14.796875 37.75 14.796875 27.984375 
Q 14.796875 18.265625 18.828125 12.890625 
Q 22.859375 7.515625 30.078125 7.515625 
Q 37.359375 7.515625 41.375 12.890625 
Q 45.40625 18.265625 45.40625 27.984375 
z
M 54.390625 6.78125 
Q 54.390625 -7.171875 48.1875 -13.984375 
Q 42 -20.796875 29.203125 -20.796875 
Q 24.46875 -20.796875 20.265625 -20.09375 
Q 16.0625 -19.390625 12.109375 -17.921875 
L 12.109375 -9.1875 
Q 16.0625 -11.328125 19.921875 -12.34375 
Q 23.78125 -13.375 27.78125 -13.375 
Q 36.625 -13.375 41.015625 -8.765625 
Q 45.40625 -4.15625 45.40625 5.171875 
L 45.40625 9.625 
Q 42.625 4.78125 38.28125 2.390625 
Q 33.9375 0 27.875 0 
Q 17.828125 0 11.671875 7.65625 
Q 5.515625 15.328125 5.515625 27.984375 
Q 5.515625 40.671875 11.671875 48.328125 
Q 17.828125 56 27.875 56 
Q 33.9375 56 38.28125 53.609375 
Q 42.625 51.21875 45.40625 46.390625 
L 45.40625 54.6875 
L 54.390625 54.6875 
z
" id="DejaVuSans-103"/>
       <path d="M 9.421875 54.6875 
L 18.40625 54.6875 
L 18.40625 0 
L 9.421875 0 
z
M 9.421875 75.984375 
L 18.40625 75.984375 
L 18.40625 64.59375 
L 9.421875 64.59375 
z
" id="DejaVuSans-105"/>
       <path d="M 18.3125 70.21875 
L 18.3125 54.6875 
L 36.8125 54.6875 
L 36.8125 47.703125 
L 18.3125 47.703125 
L 18.3125 18.015625 
Q 18.3125 11.328125 20.140625 9.421875 
Q 21.96875 7.515625 27.59375 7.515625 
L 36.8125 7.515625 
L 36.8125 0 
L 27.59375 0 
Q 17.1875 0 13.234375 3.875 
Q 9.28125 7.765625 9.28125 18.015625 
L 9.28125 47.703125 
L 2.6875 47.703125 
L 2.6875 54.6875 
L 9.28125 54.6875 
L 9.28125 70.21875 
z
" id="DejaVuSans-116"/>
       <path d="M 45.40625 46.390625 
L 45.40625 75.984375 
L 54.390625 75.984375 
L 54.390625 0 
L 45.40625 0 
L 45.40625 8.203125 
Q 42.578125 3.328125 38.25 0.953125 
Q 33.9375 -1.421875 27.875 -1.421875 
Q 17.96875 -1.421875 11.734375 6.484375 
Q 5.515625 14.40625 5.515625 27.296875 
Q 5.515625 40.1875 11.734375 48.09375 
Q 17.96875 56 27.875 56 
Q 33.9375 56 38.25 53.625 
Q 42.578125 51.265625 45.40625 46.390625 
z
M 14.796875 27.296875 
Q 14.796875 17.390625 18.875 11.75 
Q 22.953125 6.109375 30.078125 6.109375 
Q 37.203125 6.109375 41.296875 11.75 
Q 45.40625 17.390625 45.40625 27.296875 
Q 45.40625 37.203125 41.296875 42.84375 
Q 37.203125 48.484375 30.078125 48.484375 
Q 22.953125 48.484375 18.875 42.84375 
Q 14.796875 37.203125 14.796875 27.296875 
z
" id="DejaVuSans-100"/>
       <path d="M 19.671875 34.8125 
L 19.671875 8.109375 
L 35.5 8.109375 
Q 43.453125 8.109375 47.28125 11.40625 
Q 51.125 14.703125 51.125 21.484375 
Q 51.125 28.328125 47.28125 31.5625 
Q 43.453125 34.8125 35.5 34.8125 
z
M 19.671875 64.796875 
L 19.671875 42.828125 
L 34.28125 42.828125 
Q 41.5 42.828125 45.03125 45.53125 
Q 48.578125 48.25 48.578125 53.8125 
Q 48.578125 59.328125 45.03125 62.0625 
Q 41.5 64.796875 34.28125 64.796875 
z
M 9.8125 72.90625 
L 35.015625 72.90625 
Q 46.296875 72.90625 52.390625 68.21875 
Q 58.5 63.53125 58.5 54.890625 
Q 58.5 48.1875 55.375 44.234375 
Q 52.25 40.28125 46.1875 39.3125 
Q 53.46875 37.75 57.5 32.78125 
Q 61.53125 27.828125 61.53125 20.40625 
Q 61.53125 10.640625 54.890625 5.3125 
Q 48.25 0 35.984375 0 
L 9.8125 0 
z
" id="DejaVuSans-66"/>
      </defs>
      <use xlink:href="#DejaVuSans-109"/>
      <use x="97.412109" xlink:href="#DejaVuSans-97"/>
      <use x="158.691406" xlink:href="#DejaVuSans-103"/>
      <use x="222.167969" xlink:href="#DejaVuSans-110"/>
      <use x="285.546875" xlink:href="#DejaVuSans-105"/>
      <use x="313.330078" xlink:href="#DejaVuSans-116"/>
      <use x="352.539062" xlink:href="#DejaVuSans-117"/>
      <use x="415.917969" xlink:href="#DejaVuSans-100"/>
      <use x="479.394531" xlink:href="#DejaVuSans-101"/>
      <use x="540.917969" xlink:href="#DejaVuSans-32"/>
      <use x="572.705078" xlink:href="#DejaVuSans-91"/>
      <use x="611.71875" xlink:href="#DejaVuSans-100"/>
      <use x="675.195312" xlink:href="#DejaVuSans-66"/>
      <use x="743.798828" xlink:href="#DejaVuSans-93"/>
     </g>
    </g>
   </g>
   <g id="line2d_91">
    <path clip-path="url(#p6870ca6a9e)" d="M 79.738636 120.863747 
L 83.716139 120.863747 
L 87.693641 120.863747 
L 91.671143 120.863747 
L 95.648646 120.863747 
L 99.626148 120.863747 
L 103.60365 120.863747 
L 107.581152 120.863747 
L 111.558655 120.863747 
L 115.536157 120.863747 
L 119.513659 120.863747 
L 123.491162 120.863747 
L 127.468664 120.863747 
L 131.446166 120.863747 
L 135.423669 120.863747 
L 139.401171 120.863747 
L 143.378673 120.863747 
L 147.356175 120.863747 
L 151.333678 120.863747 
L 155.31118 120.863747 
L 159.288682 120.863747 
L 163.266185 120.863747 
L 167.243687 120.863747 
L 171.221189 120.863747 
L 175.198691 120.863747 
L 179.176194 120.863747 
L 183.153696 120.863747 
L 187.131198 120.863747 
L 191.108701 120.863747 
L 195.086203 120.863747 
L 199.063705 120.863747 
L 203.041208 120.863747 
L 207.01871 120.863747 
L 210.996212 120.863747 
L 214.973714 120.863747 
L 218.951217 120.863747 
L 222.928719 120.863747 
L 226.906221 120.863747 
L 230.883724 120.863747 
L 234.861226 120.863747 
L 238.838728 120.863747 
L 242.81623 120.863747 
L 246.793733 120.863747 
L 250.771235 120.863747 
L 254.748737 120.863747 
L 258.72624 120.863747 
L 262.703742 120.863747 
L 266.681244 120.863747 
L 270.658747 120.863747 
L 274.636249 120.863747 
L 278.613751 120.863747 
L 282.591253 120.863747 
L 286.568756 120.863747 
L 290.546258 120.863747 
L 294.52376 120.863747 
L 298.501263 120.863747 
L 302.478765 120.863747 
L 306.456267 120.863747 
L 310.43377 120.863747 
L 314.411272 120.863747 
L 318.388774 120.863747 
L 322.366276 120.863747 
L 326.343779 120.863747 
L 330.321281 120.863747 
L 334.298783 120.863747 
L 338.276286 120.863747 
L 342.253788 120.863747 
L 346.23129 120.863747 
L 350.208792 120.863747 
L 354.186295 120.863747 
L 358.163797 120.863747 
L 362.141299 120.863747 
L 366.118802 120.863747 
L 370.096304 120.863747 
L 374.073806 120.863747 
L 378.051309 120.863747 
L 382.028811 120.863747 
L 386.006313 120.863747 
L 389.983815 120.863747 
L 393.961318 120.863747 
L 397.93882 120.863747 
L 401.916322 120.863747 
L 405.893825 120.863747 
L 409.871327 120.863747 
L 413.848829 120.863747 
L 417.826331 120.863747 
L 421.803834 120.863747 
L 425.781336 120.863747 
L 429.758838 120.863747 
L 433.736341 120.863747 
L 437.713843 120.863747 
L 441.691345 120.863747 
L 445.668848 120.863747 
L 449.64635 120.863747 
L 453.623852 120.863747 
L 457.601354 120.863747 
L 461.578857 120.863747 
L 465.556359 120.863747 
L 469.533861 120.863747 
L 473.511364 120.863747 
" style="fill:none;stroke:#ff0000;stroke-linecap:square;stroke-width:2;"/>
   </g>
   <g id="line2d_92">
    <path clip-path="url(#p6870ca6a9e)" d="M 79.738636 122.551827 
L 83.716139 122.553685 
L 87.693641 122.555921 
L 91.671143 122.558615 
L 95.648646 122.561858 
L 99.626148 122.565764 
L 103.60365 122.570466 
L 107.581152 122.576128 
L 111.558655 122.582943 
L 115.536157 122.591146 
L 119.513659 122.601018 
L 123.491162 122.612897 
L 127.468664 122.627188 
L 131.446166 122.644375 
L 135.423669 122.665041 
L 139.401171 122.689881 
L 143.378673 122.719723 
L 147.356175 122.755558 
L 151.333678 122.798562 
L 155.31118 122.850131 
L 159.288682 122.911916 
L 163.266185 122.985862 
L 167.243687 123.074253 
L 171.221189 123.179751 
L 175.198691 123.305445 
L 179.176194 123.454887 
L 183.153696 123.632125 
L 187.131198 123.84172 
L 191.108701 124.088744 
L 195.086203 124.378737 
L 199.063705 124.717637 
L 203.041208 125.11164 
L 207.01871 125.567014 
L 210.996212 126.089839 
L 214.973714 126.68568 
L 218.951217 127.359217 
L 222.928719 128.113832 
L 226.906221 128.951201 
L 230.883724 129.870922 
L 234.861226 130.870213 
L 238.838728 131.943717 
L 242.81623 133.083429 
L 246.793733 134.27876 
L 250.771235 135.516711 
L 254.748737 136.78215 
L 258.72624 138.058173 
L 262.703742 139.32652 
L 266.681244 140.568042 
L 270.658747 141.76322 
L 274.636249 142.892738 
L 278.613751 143.938119 
L 282.591253 144.882409 
L 286.568756 145.710903 
L 290.546258 146.411869 
L 294.52376 146.977201 
L 298.501263 147.402948 
L 302.478765 147.689622 
L 306.456267 147.842241 
L 310.43377 147.870066 
L 314.411272 147.786041 
L 318.388774 147.605971 
L 322.366276 147.347535 
L 326.343779 147.029212 
L 330.321281 146.669238 
L 334.298783 146.284691 
L 338.276286 145.890761 
L 342.253788 145.500264 
L 346.23129 145.123404 
L 350.208792 144.767758 
L 354.186295 144.438444 
L 358.163797 144.138426 
L 362.141299 143.868882 
L 366.118802 143.629601 
L 370.096304 143.419359 
L 374.073806 143.236252 
L 378.051309 143.077974 
L 382.028811 142.942032 
L 386.006313 142.825907 
L 389.983815 142.727168 
L 393.961318 142.643537 
L 397.93882 142.572935 
L 401.916322 142.513495 
L 405.893825 142.46357 
L 409.871327 142.421716 
L 413.848829 142.386685 
L 417.826331 142.357406 
L 421.803834 142.332961 
L 425.781336 142.312572 
L 429.758838 142.295578 
L 433.736341 142.281425 
L 437.713843 142.269642 
L 441.691345 142.259839 
L 445.668848 142.251684 
L 449.64635 142.244904 
L 453.623852 142.239268 
L 457.601354 142.234583 
L 461.578857 142.230691 
L 465.556359 142.227457 
L 469.533861 142.224771 
L 473.511364 142.222539 
" style="fill:none;stroke:#0000ff;stroke-linecap:square;stroke-width:2;"/>
   </g>
   <g id="line2d_93">
    <path clip-path="url(#p6870ca6a9e)" d="M 79.738636 39.609091 
L 83.716139 40.068903 
L 87.693641 40.60115 
L 91.671143 41.213485 
L 95.648646 41.913242 
L 99.626148 42.707099 
L 103.60365 43.600736 
L 107.581152 44.598498 
L 111.558655 45.703131 
L 115.536157 46.915596 
L 119.513659 48.235009 
L 123.491162 49.658697 
L 127.468664 51.182375 
L 131.446166 52.80042 
L 135.423669 54.506188 
L 139.401171 56.292374 
L 143.378673 58.151337 
L 147.356175 60.075404 
L 151.333678 62.05711 
L 155.31118 64.089382 
L 159.288682 66.165662 
L 163.266185 68.279982 
L 167.243687 70.426994 
L 171.221189 72.601965 
L 175.198691 74.800759 
L 179.176194 77.01979 
L 183.153696 79.255981 
L 187.131198 81.506709 
L 191.108701 83.769759 
L 195.086203 86.043272 
L 199.063705 88.325702 
L 203.041208 90.615782 
L 207.01871 92.912481 
L 210.996212 95.214985 
L 214.973714 97.522666 
L 218.951217 99.835071 
L 222.928719 102.151901 
L 226.906221 104.473007 
L 230.883724 106.798383 
L 234.861226 109.128168 
L 238.838728 111.462647 
L 242.81623 113.802263 
L 246.793733 116.147628 
L 250.771235 118.499541 
L 254.748737 120.859011 
L 258.72624 123.227285 
L 262.703742 125.60588 
L 266.681244 127.996623 
L 270.658747 130.401691 
L 274.636249 132.823656 
L 278.613751 135.265537 
L 282.591253 137.730847 
L 286.568756 140.223633 
L 290.546258 142.748515 
L 294.52376 145.310704 
L 298.501263 147.915998 
L 302.478765 150.570742 
L 306.456267 153.281747 
L 310.43377 156.056151 
L 314.411272 158.901227 
L 318.388774 161.824123 
L 322.366276 164.831544 
L 326.343779 167.929404 
L 330.321281 171.122448 
L 334.298783 174.413909 
L 338.276286 177.805209 
L 342.253788 181.295752 
L 346.23129 184.882837 
L 350.208792 188.561676 
L 354.186295 192.325539 
L 358.163797 196.165976 
L 362.141299 200.073094 
L 366.118802 204.035853 
L 370.096304 208.042353 
L 374.073806 212.080085 
L 378.051309 216.136151 
L 382.028811 220.19744 
L 386.006313 224.25078 
L 389.983815 228.283092 
L 393.961318 232.281542 
L 397.93882 236.23373 
L 401.916322 240.127912 
L 405.893825 243.953263 
L 409.871327 247.700164 
L 413.848829 251.360503 
L 417.826331 254.927936 
L 421.803834 258.398104 
L 425.781336 261.768744 
L 429.758838 265.039694 
L 433.736341 268.212773 
L 437.713843 271.291558 
L 441.691345 274.281071 
L 445.668848 277.187425 
L 449.64635 280.01745 
L 453.623852 282.778352 
L 457.601354 285.477403 
L 461.578857 288.121697 
L 465.556359 290.717972 
L 469.533861 293.272477 
L 473.511364 295.790909 
" style="fill:none;stroke:#000000;stroke-linecap:square;stroke-width:2;"/>
   </g>
   <g id="line2d_94">
    <path clip-path="url(#p6870ca6a9e)" d="M 79.738636 105.258119 
L 83.716139 105.260147 
L 87.693641 105.262589 
L 91.671143 105.26553 
L 95.648646 105.269071 
L 99.626148 105.273335 
L 103.60365 105.278469 
L 107.581152 105.284651 
L 111.558655 105.292092 
L 115.536157 105.30105 
L 119.513659 105.311831 
L 123.491162 105.324804 
L 127.468664 105.340413 
L 131.446166 105.359189 
L 135.423669 105.381768 
L 139.401171 105.408911 
L 143.378673 105.441527 
L 147.356175 105.480703 
L 151.333678 105.527731 
L 155.31118 105.584146 
L 159.288682 105.651766 
L 163.266185 105.73274 
L 167.243687 105.829593 
L 171.221189 105.94528 
L 175.198691 106.08324 
L 179.176194 106.247448 
L 183.153696 106.442461 
L 187.131198 106.673449 
L 191.108701 106.946216 
L 195.086203 107.267182 
L 199.063705 107.643337 
L 203.041208 108.08214 
L 207.01871 108.591368 
L 210.996212 109.178905 
L 214.973714 109.852468 
L 218.951217 110.619297 
L 222.928719 111.485819 
L 226.906221 112.457312 
L 230.883724 113.537626 
L 234.861226 114.728978 
L 238.838728 116.031858 
L 242.81623 117.445062 
L 246.793733 118.965852 
L 250.771235 120.59022 
L 254.748737 122.313231 
L 258.72624 124.129402 
L 262.703742 126.03309 
L 266.681244 128.018848 
L 270.658747 130.08174 
L 274.636249 132.217595 
L 278.613751 134.423206 
L 282.591253 136.696464 
L 286.568756 139.036438 
L 290.546258 141.44341 
L 294.52376 143.918846 
L 298.501263 146.465329 
L 302.478765 149.086431 
L 306.456267 151.786524 
L 310.43377 154.570535 
L 314.411272 157.443637 
L 318.388774 160.410889 
L 322.366276 163.476842 
L 326.343779 166.64513 
L 330.321281 169.91809 
L 334.298783 173.296447 
L 338.276286 176.779078 
L 342.253788 180.362912 
L 346.23129 184.04294 
L 350.208792 187.812342 
L 354.186295 191.662701 
L 358.163797 195.584276 
L 362.141299 199.566283 
L 366.118802 203.597169 
L 370.096304 207.664852 
L 374.073806 211.756913 
L 378.051309 215.860743 
L 382.028811 219.963662 
L 386.006313 224.053018 
L 389.983815 228.116287 
L 393.961318 232.141202 
L 397.93882 236.115907 
L 401.916322 240.029172 
L 405.893825 243.870642 
L 409.871327 247.63112 
L 413.848829 251.302867 
L 417.826331 254.879867 
L 421.803834 258.358044 
L 425.781336 261.73538 
L 429.758838 265.011921 
L 433.736341 268.189665 
L 437.713843 271.272339 
L 441.691345 274.265091 
L 445.668848 277.174141 
L 449.64635 280.00641 
L 453.623852 282.769178 
L 457.601354 285.469781 
L 461.578857 288.115366 
L 465.556359 290.712713 
L 469.533861 293.268109 
L 473.511364 295.787281 
" style="fill:none;stroke:#bf00bf;stroke-linecap:square;stroke-width:2;"/>
   </g>
   <g id="line2d_95">
    <path clip-path="url(#p6870ca6a9e)" d="M 79.738636 292.289283 
L 83.716139 289.991599 
L 87.693641 287.69662 
L 91.671143 285.404306 
L 95.648646 283.114509 
L 99.626148 280.826962 
L 103.60365 278.541276 
L 107.581152 276.25695 
L 111.558655 273.973398 
L 115.536157 271.689985 
L 119.513659 269.406064 
L 123.491162 267.121026 
L 127.468664 264.834337 
L 131.446166 262.545565 
L 135.423669 260.254396 
L 139.401171 257.960644 
L 143.378673 255.664233 
L 147.356175 253.36519 
L 151.333678 251.063622 
L 155.31118 248.759694 
L 159.288682 246.45361 
L 163.266185 244.145599 
L 167.243687 241.835899 
L 171.221189 239.524747 
L 175.198691 237.212376 
L 179.176194 234.899009 
L 183.153696 232.584857 
L 187.131198 230.270125 
L 191.108701 227.955007 
L 195.086203 225.639696 
L 199.063705 223.324382 
L 203.041208 221.00926 
L 207.01871 218.694536 
L 210.996212 216.38043 
L 214.973714 214.067185 
L 218.951217 211.755076 
L 222.928719 209.444416 
L 226.906221 207.135567 
L 230.883724 204.828953 
L 234.861226 202.525074 
L 238.838728 200.224519 
L 242.81623 197.927988 
L 246.793733 195.636315 
L 250.771235 193.350486 
L 254.748737 191.071676 
L 258.72624 188.80128 
L 262.703742 186.540948 
L 266.681244 184.29263 
L 270.658747 182.058623 
L 274.636249 179.84162 
L 278.613751 177.644763 
L 282.591253 175.471694 
L 286.568756 173.326606 
L 290.546258 171.214278 
L 294.52376 169.140106 
L 298.501263 167.110098 
L 302.478765 165.13085 
L 306.456267 163.209464 
L 310.43377 161.353428 
L 314.411272 159.570427 
L 318.388774 157.8681 
L 322.366276 156.253741 
L 326.343779 154.733964 
L 330.321281 153.314352 
L 334.298783 151.999134 
L 338.276286 150.790918 
L 342.253788 149.690521 
L 346.23129 148.69691 
L 350.208792 147.807277 
L 354.186295 147.017218 
L 358.163797 146.321013 
L 362.141299 145.71195 
L 366.118802 145.182678 
L 370.096304 144.725538 
L 374.073806 144.332858 
L 378.051309 143.997187 
L 382.028811 143.711477 
L 386.006313 143.469202 
L 389.983815 143.264423 
L 393.961318 143.09182 
L 397.93882 142.946686 
L 401.916322 142.824896 
L 405.893825 142.722873 
L 409.871327 142.637534 
L 413.848829 142.566237 
L 417.826331 142.506734 
L 421.803834 142.457117 
L 425.781336 142.415774 
L 429.758838 142.381345 
L 433.736341 142.35269 
L 437.713843 142.32885 
L 441.691345 142.309022 
L 445.668848 142.292537 
L 449.64635 142.278835 
L 453.623852 142.267447 
L 457.601354 142.257985 
L 461.578857 142.250124 
L 465.556359 142.243594 
L 469.533861 142.23817 
L 473.511364 142.233665 
" style="fill:none;stroke:#008000;stroke-linecap:square;stroke-width:2;"/>
   </g>
   <g id="patch_3">
    <path d="M 60.05 308.6 
L 60.05 26.8 
" style="fill:none;stroke:#000000;stroke-linecap:square;stroke-linejoin:miter;stroke-width:0.8;"/>
   </g>
   <g id="patch_4">
    <path d="M 493.2 308.6 
L 493.2 26.8 
" style="fill:none;stroke:#000000;stroke-linecap:square;stroke-linejoin:miter;stroke-width:0.8;"/>
   </g>
   <g id="patch_5">
    <path d="M 60.05 308.6 
L 493.2 308.6 
" style="fill:none;stroke:#000000;stroke-linecap:square;stroke-linejoin:miter;stroke-width:0.8;"/>
   </g>
   <g id="patch_6">
    <path d="M 60.05 26.8 
L 493.2 26.8 
" style="fill:none;stroke:#000000;stroke-linecap:square;stroke-linejoin:miter;stroke-width:0.8;"/>
   </g>
   <g id="text_13">
    <!-- dB magnitude -->
    <g transform="translate(234.337187 20.8)scale(0.12 -0.12)">
     <use xlink:href="#DejaVuSans-100"/>
     <use x="63.476562" xlink:href="#DejaVuSans-66"/>
     <use x="132.080078" xlink:href="#DejaVuSans-32"/>
     <use x="163.867188" xlink:href="#DejaVuSans-109"/>
     <use x="261.279297" xlink:href="#DejaVuSans-97"/>
     <use x="322.558594" xlink:href="#DejaVuSans-103"/>
     <use x="386.035156" xlink:href="#DejaVuSans-110"/>
     <use x="449.414062" xlink:href="#DejaVuSans-105"/>
     <use x="477.197266" xlink:href="#DejaVuSans-116"/>
     <use x="516.40625" xlink:href="#DejaVuSans-117"/>
     <use x="579.785156" xlink:href="#DejaVuSans-100"/>
     <use x="643.261719" xlink:href="#DejaVuSans-101"/>
    </g>
   </g>
   <g id="legend_1">
    <g id="patch_7">
     <path d="M 407.5025 93.86875 
L 486.2 93.86875 
Q 488.2 93.86875 488.2 91.86875 
L 488.2 33.8 
Q 488.2 31.8 486.2 31.8 
L 407.5025 31.8 
Q 405.5025 31.8 405.5025 33.8 
L 405.5025 91.86875 
Q 405.5025 93.86875 407.5025 93.86875 
z
" style="fill:#ffffff;opacity:0.8;stroke:#cccccc;stroke-linejoin:miter;"/>
    </g>
    <g id="line2d_96">
     <path d="M 407.5025 39.418125 
L 417.5025 39.418125 
" style="fill:none;stroke:#ff0000;stroke-linecap:square;stroke-width:2;"/>
    </g>
    <g id="line2d_97"/>
    <g id="text_14">
     <!-- asymptotic -->
     <g transform="translate(419.5025 42.918125)scale(0.12 -0.12)">
      <defs>
       <path d="M 44.28125 53.078125 
L 44.28125 44.578125 
Q 40.484375 46.53125 36.375 47.5 
Q 32.28125 48.484375 27.875 48.484375 
Q 21.1875 48.484375 17.84375 46.4375 
Q 14.5 44.390625 14.5 40.28125 
Q 14.5 37.15625 16.890625 35.375 
Q 19.28125 33.59375 26.515625 31.984375 
L 29.59375 31.296875 
Q 39.15625 29.25 43.1875 25.515625 
Q 47.21875 21.78125 47.21875 15.09375 
Q 47.21875 7.46875 41.1875 3.015625 
Q 35.15625 -1.421875 24.609375 -1.421875 
Q 20.21875 -1.421875 15.453125 -0.5625 
Q 10.6875 0.296875 5.421875 2 
L 5.421875 11.28125 
Q 10.40625 8.6875 15.234375 7.390625 
Q 20.0625 6.109375 24.8125 6.109375 
Q 31.15625 6.109375 34.5625 8.28125 
Q 37.984375 10.453125 37.984375 14.40625 
Q 37.984375 18.0625 35.515625 20.015625 
Q 33.0625 21.96875 24.703125 23.78125 
L 21.578125 24.515625 
Q 13.234375 26.265625 9.515625 29.90625 
Q 5.8125 33.546875 5.8125 39.890625 
Q 5.8125 47.609375 11.28125 51.796875 
Q 16.75 56 26.8125 56 
Q 31.78125 56 36.171875 55.265625 
Q 40.578125 54.546875 44.28125 53.078125 
z
" id="DejaVuSans-115"/>
       <path d="M 18.109375 8.203125 
L 18.109375 -20.796875 
L 9.078125 -20.796875 
L 9.078125 54.6875 
L 18.109375 54.6875 
L 18.109375 46.390625 
Q 20.953125 51.265625 25.265625 53.625 
Q 29.59375 56 35.59375 56 
Q 45.5625 56 51.78125 48.09375 
Q 58.015625 40.1875 58.015625 27.296875 
Q 58.015625 14.40625 51.78125 6.484375 
Q 45.5625 -1.421875 35.59375 -1.421875 
Q 29.59375 -1.421875 25.265625 0.953125 
Q 20.953125 3.328125 18.109375 8.203125 
z
M 48.6875 27.296875 
Q 48.6875 37.203125 44.609375 42.84375 
Q 40.53125 48.484375 33.40625 48.484375 
Q 26.265625 48.484375 22.1875 42.84375 
Q 18.109375 37.203125 18.109375 27.296875 
Q 18.109375 17.390625 22.1875 11.75 
Q 26.265625 6.109375 33.40625 6.109375 
Q 40.53125 6.109375 44.609375 11.75 
Q 48.6875 17.390625 48.6875 27.296875 
z
" id="DejaVuSans-112"/>
       <path d="M 30.609375 48.390625 
Q 23.390625 48.390625 19.1875 42.75 
Q 14.984375 37.109375 14.984375 27.296875 
Q 14.984375 17.484375 19.15625 11.84375 
Q 23.34375 6.203125 30.609375 6.203125 
Q 37.796875 6.203125 41.984375 11.859375 
Q 46.1875 17.53125 46.1875 27.296875 
Q 46.1875 37.015625 41.984375 42.703125 
Q 37.796875 48.390625 30.609375 48.390625 
z
M 30.609375 56 
Q 42.328125 56 49.015625 48.375 
Q 55.71875 40.765625 55.71875 27.296875 
Q 55.71875 13.875 49.015625 6.21875 
Q 42.328125 -1.421875 30.609375 -1.421875 
Q 18.84375 -1.421875 12.171875 6.21875 
Q 5.515625 13.875 5.515625 27.296875 
Q 5.515625 40.765625 12.171875 48.375 
Q 18.84375 56 30.609375 56 
z
" id="DejaVuSans-111"/>
      </defs>
      <use xlink:href="#DejaVuSans-97"/>
      <use x="61.279297" xlink:href="#DejaVuSans-115"/>
      <use x="113.378906" xlink:href="#DejaVuSans-121"/>
      <use x="172.558594" xlink:href="#DejaVuSans-109"/>
      <use x="269.970703" xlink:href="#DejaVuSans-112"/>
      <use x="333.447266" xlink:href="#DejaVuSans-116"/>
      <use x="372.65625" xlink:href="#DejaVuSans-111"/>
      <use x="433.837891" xlink:href="#DejaVuSans-116"/>
      <use x="473.046875" xlink:href="#DejaVuSans-105"/>
      <use x="500.830078" xlink:href="#DejaVuSans-99"/>
     </g>
    </g>
    <g id="line2d_98">
     <path d="M 407.5025 51.031875 
L 417.5025 51.031875 
" style="fill:none;stroke:#0000ff;stroke-linecap:square;stroke-width:2;"/>
    </g>
    <g id="line2d_99"/>
    <g id="text_15">
     <!-- gain -->
     <g transform="translate(419.5025 54.531875)scale(0.12 -0.12)">
      <use xlink:href="#DejaVuSans-103"/>
      <use x="63.476562" xlink:href="#DejaVuSans-97"/>
      <use x="124.755859" xlink:href="#DejaVuSans-105"/>
      <use x="152.539062" xlink:href="#DejaVuSans-110"/>
     </g>
    </g>
    <g id="line2d_100">
     <path d="M 407.5025 62.645625 
L 417.5025 62.645625 
" style="fill:none;stroke:#000000;stroke-linecap:square;stroke-width:2;"/>
    </g>
    <g id="line2d_101"/>
    <g id="text_16">
     <!-- loopgain -->
     <g transform="translate(419.5025 66.145625)scale(0.12 -0.12)">
      <defs>
       <path d="M 9.421875 75.984375 
L 18.40625 75.984375 
L 18.40625 0 
L 9.421875 0 
z
" id="DejaVuSans-108"/>
      </defs>
      <use xlink:href="#DejaVuSans-108"/>
      <use x="27.783203" xlink:href="#DejaVuSans-111"/>
      <use x="88.964844" xlink:href="#DejaVuSans-111"/>
      <use x="150.146484" xlink:href="#DejaVuSans-112"/>
      <use x="213.623047" xlink:href="#DejaVuSans-103"/>
      <use x="277.099609" xlink:href="#DejaVuSans-97"/>
      <use x="338.378906" xlink:href="#DejaVuSans-105"/>
      <use x="366.162109" xlink:href="#DejaVuSans-110"/>
     </g>
    </g>
    <g id="line2d_102">
     <path d="M 407.5025 74.259375 
L 417.5025 74.259375 
" style="fill:none;stroke:#bf00bf;stroke-linecap:square;stroke-width:2;"/>
    </g>
    <g id="line2d_103"/>
    <g id="text_17">
     <!-- servo -->
     <g transform="translate(419.5025 77.759375)scale(0.12 -0.12)">
      <defs>
       <path d="M 2.984375 54.6875 
L 12.5 54.6875 
L 29.59375 8.796875 
L 46.6875 54.6875 
L 56.203125 54.6875 
L 35.6875 0 
L 23.484375 0 
z
" id="DejaVuSans-118"/>
      </defs>
      <use xlink:href="#DejaVuSans-115"/>
      <use x="52.099609" xlink:href="#DejaVuSans-101"/>
      <use x="113.623047" xlink:href="#DejaVuSans-114"/>
      <use x="154.736328" xlink:href="#DejaVuSans-118"/>
      <use x="213.916016" xlink:href="#DejaVuSans-111"/>
     </g>
    </g>
    <g id="line2d_104">
     <path d="M 407.5025 85.873125 
L 417.5025 85.873125 
" style="fill:none;stroke:#008000;stroke-linecap:square;stroke-width:2;"/>
    </g>
    <g id="line2d_105"/>
    <g id="text_18">
     <!-- direct -->
     <g transform="translate(419.5025 89.373125)scale(0.12 -0.12)">
      <use xlink:href="#DejaVuSans-100"/>
      <use x="63.476562" xlink:href="#DejaVuSans-105"/>
      <use x="91.259766" xlink:href="#DejaVuSans-114"/>
      <use x="130.123047" xlink:href="#DejaVuSans-101"/>
      <use x="191.646484" xlink:href="#DejaVuSans-99"/>
      <use x="246.626953" xlink:href="#DejaVuSans-116"/>
     </g>
    </g>
   </g>
  </g>
 </g>
 <defs>
  <clipPath id="p6870ca6a9e">
   <rect height="281.8" width="433.15" x="60.05" y="26.8"/>
  </clipPath>
 </defs>
</svg>
