<?xml version="1.0" encoding="utf-8" standalone="no"?>
<!DOCTYPE svg PUBLIC "-//W3C//DTD SVG 1.1//EN"
  "http://www.w3.org/Graphics/SVG/1.1/DTD/svg11.dtd">
<!-- Created with matplotlib (https://matplotlib.org/) -->
<svg height="360pt" version="1.1" viewBox="0 0 504 360" width="504pt" xmlns="http://www.w3.org/2000/svg" xmlns:xlink="http://www.w3.org/1999/xlink">
 <metadata>
  <rdf:RDF xmlns:cc="http://creativecommons.org/ns#" xmlns:dc="http://purl.org/dc/elements/1.1/" xmlns:rdf="http://www.w3.org/1999/02/22-rdf-syntax-ns#">
   <cc:Work>
    <dc:type rdf:resource="http://purl.org/dc/dcmitype/StillImage"/>
    <dc:date>2021-12-24T00:00:22.095287</dc:date>
    <dc:format>image/svg+xml</dc:format>
    <dc:creator>
     <cc:Agent>
      <dc:title>Matplotlib v3.3.4, https://matplotlib.org/</dc:title>
     </cc:Agent>
    </dc:creator>
   </cc:Work>
  </rdf:RDF>
 </metadata>
 <defs>
  <style type="text/css">*{stroke-linecap:butt;stroke-linejoin:round;}</style>
 </defs>
 <g id="figure_1">
  <g id="patch_1">
   <path d="M 0 360 
L 504 360 
L 504 0 
L 0 0 
z
" style="fill:#ffffff;"/>
  </g>
  <g id="axes_1">
   <g id="patch_2">
    <path d="M 67.675 308.6 
L 493.2 308.6 
L 493.2 26.8 
L 67.675 26.8 
z
" style="fill:#ffffff;"/>
   </g>
   <g id="matplotlib.axis_1">
    <g id="xtick_1">
     <g id="line2d_1">
      <path clip-path="url(#p16f62ff7d3)" d="M 87.017045 308.6 
L 87.017045 26.8 
" style="fill:none;stroke:#808080;stroke-linecap:square;stroke-width:0.8;"/>
     </g>
     <g id="line2d_2">
      <defs>
       <path d="M 0 0 
L 0 3.5 
" id="mc712bb2a05" style="stroke:#000000;stroke-width:0.8;"/>
      </defs>
      <g>
       <use style="stroke:#000000;stroke-width:0.8;" x="87.017045" xlink:href="#mc712bb2a05" y="308.6"/>
      </g>
     </g>
     <g id="text_1">
      <!-- $\mathdefault{10^{1}}$ -->
      <g transform="translate(76.457045 324.718125)scale(0.12 -0.12)">
       <defs>
        <path d="M 12.40625 8.296875 
L 28.515625 8.296875 
L 28.515625 63.921875 
L 10.984375 60.40625 
L 10.984375 69.390625 
L 28.421875 72.90625 
L 38.28125 72.90625 
L 38.28125 8.296875 
L 54.390625 8.296875 
L 54.390625 0 
L 12.40625 0 
z
" id="DejaVuSans-49"/>
        <path d="M 31.78125 66.40625 
Q 24.171875 66.40625 20.328125 58.90625 
Q 16.5 51.421875 16.5 36.375 
Q 16.5 21.390625 20.328125 13.890625 
Q 24.171875 6.390625 31.78125 6.390625 
Q 39.453125 6.390625 43.28125 13.890625 
Q 47.125 21.390625 47.125 36.375 
Q 47.125 51.421875 43.28125 58.90625 
Q 39.453125 66.40625 31.78125 66.40625 
z
M 31.78125 74.21875 
Q 44.046875 74.21875 50.515625 64.515625 
Q 56.984375 54.828125 56.984375 36.375 
Q 56.984375 17.96875 50.515625 8.265625 
Q 44.046875 -1.421875 31.78125 -1.421875 
Q 19.53125 -1.421875 13.0625 8.265625 
Q 6.59375 17.96875 6.59375 36.375 
Q 6.59375 54.828125 13.0625 64.515625 
Q 19.53125 74.21875 31.78125 74.21875 
z
" id="DejaVuSans-48"/>
       </defs>
       <use transform="translate(0 0.684375)" xlink:href="#DejaVuSans-49"/>
       <use transform="translate(63.623047 0.684375)" xlink:href="#DejaVuSans-48"/>
       <use transform="translate(128.203125 38.965625)scale(0.7)" xlink:href="#DejaVuSans-49"/>
      </g>
     </g>
    </g>
    <g id="xtick_2">
     <g id="line2d_3">
      <path clip-path="url(#p16f62ff7d3)" d="M 183.727273 308.6 
L 183.727273 26.8 
" style="fill:none;stroke:#808080;stroke-linecap:square;stroke-width:0.8;"/>
     </g>
     <g id="line2d_4">
      <g>
       <use style="stroke:#000000;stroke-width:0.8;" x="183.727273" xlink:href="#mc712bb2a05" y="308.6"/>
      </g>
     </g>
     <g id="text_2">
      <!-- $\mathdefault{10^{2}}$ -->
      <g transform="translate(173.167273 324.718125)scale(0.12 -0.12)">
       <defs>
        <path d="M 19.1875 8.296875 
L 53.609375 8.296875 
L 53.609375 0 
L 7.328125 0 
L 7.328125 8.296875 
Q 12.9375 14.109375 22.625 23.890625 
Q 32.328125 33.6875 34.8125 36.53125 
Q 39.546875 41.84375 41.421875 45.53125 
Q 43.3125 49.21875 43.3125 52.78125 
Q 43.3125 58.59375 39.234375 62.25 
Q 35.15625 65.921875 28.609375 65.921875 
Q 23.96875 65.921875 18.8125 64.3125 
Q 13.671875 62.703125 7.8125 59.421875 
L 7.8125 69.390625 
Q 13.765625 71.78125 18.9375 73 
Q 24.125 74.21875 28.421875 74.21875 
Q 39.75 74.21875 46.484375 68.546875 
Q 53.21875 62.890625 53.21875 53.421875 
Q 53.21875 48.921875 51.53125 44.890625 
Q 49.859375 40.875 45.40625 35.40625 
Q 44.1875 33.984375 37.640625 27.21875 
Q 31.109375 20.453125 19.1875 8.296875 
z
" id="DejaVuSans-50"/>
       </defs>
       <use transform="translate(0 0.765625)" xlink:href="#DejaVuSans-49"/>
       <use transform="translate(63.623047 0.765625)" xlink:href="#DejaVuSans-48"/>
       <use transform="translate(128.203125 39.046875)scale(0.7)" xlink:href="#DejaVuSans-50"/>
      </g>
     </g>
    </g>
    <g id="xtick_3">
     <g id="line2d_5">
      <path clip-path="url(#p16f62ff7d3)" d="M 280.4375 308.6 
L 280.4375 26.8 
" style="fill:none;stroke:#808080;stroke-linecap:square;stroke-width:0.8;"/>
     </g>
     <g id="line2d_6">
      <g>
       <use style="stroke:#000000;stroke-width:0.8;" x="280.4375" xlink:href="#mc712bb2a05" y="308.6"/>
      </g>
     </g>
     <g id="text_3">
      <!-- $\mathdefault{10^{3}}$ -->
      <g transform="translate(269.8775 324.718125)scale(0.12 -0.12)">
       <defs>
        <path d="M 40.578125 39.3125 
Q 47.65625 37.796875 51.625 33 
Q 55.609375 28.21875 55.609375 21.1875 
Q 55.609375 10.40625 48.1875 4.484375 
Q 40.765625 -1.421875 27.09375 -1.421875 
Q 22.515625 -1.421875 17.65625 -0.515625 
Q 12.796875 0.390625 7.625 2.203125 
L 7.625 11.71875 
Q 11.71875 9.328125 16.59375 8.109375 
Q 21.484375 6.890625 26.8125 6.890625 
Q 36.078125 6.890625 40.9375 10.546875 
Q 45.796875 14.203125 45.796875 21.1875 
Q 45.796875 27.640625 41.28125 31.265625 
Q 36.765625 34.90625 28.71875 34.90625 
L 20.21875 34.90625 
L 20.21875 43.015625 
L 29.109375 43.015625 
Q 36.375 43.015625 40.234375 45.921875 
Q 44.09375 48.828125 44.09375 54.296875 
Q 44.09375 59.90625 40.109375 62.90625 
Q 36.140625 65.921875 28.71875 65.921875 
Q 24.65625 65.921875 20.015625 65.03125 
Q 15.375 64.15625 9.8125 62.3125 
L 9.8125 71.09375 
Q 15.4375 72.65625 20.34375 73.4375 
Q 25.25 74.21875 29.59375 74.21875 
Q 40.828125 74.21875 47.359375 69.109375 
Q 53.90625 64.015625 53.90625 55.328125 
Q 53.90625 49.265625 50.4375 45.09375 
Q 46.96875 40.921875 40.578125 39.3125 
z
" id="DejaVuSans-51"/>
       </defs>
       <use transform="translate(0 0.765625)" xlink:href="#DejaVuSans-49"/>
       <use transform="translate(63.623047 0.765625)" xlink:href="#DejaVuSans-48"/>
       <use transform="translate(128.203125 39.046875)scale(0.7)" xlink:href="#DejaVuSans-51"/>
      </g>
     </g>
    </g>
    <g id="xtick_4">
     <g id="line2d_7">
      <path clip-path="url(#p16f62ff7d3)" d="M 377.147727 308.6 
L 377.147727 26.8 
" style="fill:none;stroke:#808080;stroke-linecap:square;stroke-width:0.8;"/>
     </g>
     <g id="line2d_8">
      <g>
       <use style="stroke:#000000;stroke-width:0.8;" x="377.147727" xlink:href="#mc712bb2a05" y="308.6"/>
      </g>
     </g>
     <g id="text_4">
      <!-- $\mathdefault{10^{4}}$ -->
      <g transform="translate(366.587727 324.718125)scale(0.12 -0.12)">
       <defs>
        <path d="M 37.796875 64.3125 
L 12.890625 25.390625 
L 37.796875 25.390625 
z
M 35.203125 72.90625 
L 47.609375 72.90625 
L 47.609375 25.390625 
L 58.015625 25.390625 
L 58.015625 17.1875 
L 47.609375 17.1875 
L 47.609375 0 
L 37.796875 0 
L 37.796875 17.1875 
L 4.890625 17.1875 
L 4.890625 26.703125 
z
" id="DejaVuSans-52"/>
       </defs>
       <use transform="translate(0 0.684375)" xlink:href="#DejaVuSans-49"/>
       <use transform="translate(63.623047 0.684375)" xlink:href="#DejaVuSans-48"/>
       <use transform="translate(128.203125 38.965625)scale(0.7)" xlink:href="#DejaVuSans-52"/>
      </g>
     </g>
    </g>
    <g id="xtick_5">
     <g id="line2d_9">
      <path clip-path="url(#p16f62ff7d3)" d="M 473.857955 308.6 
L 473.857955 26.8 
" style="fill:none;stroke:#808080;stroke-linecap:square;stroke-width:0.8;"/>
     </g>
     <g id="line2d_10">
      <g>
       <use style="stroke:#000000;stroke-width:0.8;" x="473.857955" xlink:href="#mc712bb2a05" y="308.6"/>
      </g>
     </g>
     <g id="text_5">
      <!-- $\mathdefault{10^{5}}$ -->
      <g transform="translate(463.297955 324.718125)scale(0.12 -0.12)">
       <defs>
        <path d="M 10.796875 72.90625 
L 49.515625 72.90625 
L 49.515625 64.59375 
L 19.828125 64.59375 
L 19.828125 46.734375 
Q 21.96875 47.46875 24.109375 47.828125 
Q 26.265625 48.1875 28.421875 48.1875 
Q 40.625 48.1875 47.75 41.5 
Q 54.890625 34.8125 54.890625 23.390625 
Q 54.890625 11.625 47.5625 5.09375 
Q 40.234375 -1.421875 26.90625 -1.421875 
Q 22.3125 -1.421875 17.546875 -0.640625 
Q 12.796875 0.140625 7.71875 1.703125 
L 7.71875 11.625 
Q 12.109375 9.234375 16.796875 8.0625 
Q 21.484375 6.890625 26.703125 6.890625 
Q 35.15625 6.890625 40.078125 11.328125 
Q 45.015625 15.765625 45.015625 23.390625 
Q 45.015625 31 40.078125 35.4375 
Q 35.15625 39.890625 26.703125 39.890625 
Q 22.75 39.890625 18.8125 39.015625 
Q 14.890625 38.140625 10.796875 36.28125 
z
" id="DejaVuSans-53"/>
       </defs>
       <use transform="translate(0 0.684375)" xlink:href="#DejaVuSans-49"/>
       <use transform="translate(63.623047 0.684375)" xlink:href="#DejaVuSans-48"/>
       <use transform="translate(128.203125 38.965625)scale(0.7)" xlink:href="#DejaVuSans-53"/>
      </g>
     </g>
    </g>
    <g id="xtick_6">
     <g id="line2d_11">
      <path clip-path="url(#p16f62ff7d3)" d="M 72.036442 308.6 
L 72.036442 26.8 
" style="fill:none;stroke:#808080;stroke-dasharray:0.8,1.32;stroke-dashoffset:0;stroke-width:0.8;"/>
     </g>
     <g id="line2d_12">
      <defs>
       <path d="M 0 0 
L 0 2 
" id="m9f3378c6ce" style="stroke:#000000;stroke-width:0.6;"/>
      </defs>
      <g>
       <use style="stroke:#000000;stroke-width:0.6;" x="72.036442" xlink:href="#m9f3378c6ce" y="308.6"/>
      </g>
     </g>
    </g>
    <g id="xtick_7">
     <g id="line2d_13">
      <path clip-path="url(#p16f62ff7d3)" d="M 77.644856 308.6 
L 77.644856 26.8 
" style="fill:none;stroke:#808080;stroke-dasharray:0.8,1.32;stroke-dashoffset:0;stroke-width:0.8;"/>
     </g>
     <g id="line2d_14">
      <g>
       <use style="stroke:#000000;stroke-width:0.6;" x="77.644856" xlink:href="#m9f3378c6ce" y="308.6"/>
      </g>
     </g>
    </g>
    <g id="xtick_8">
     <g id="line2d_15">
      <path clip-path="url(#p16f62ff7d3)" d="M 82.591828 308.6 
L 82.591828 26.8 
" style="fill:none;stroke:#808080;stroke-dasharray:0.8,1.32;stroke-dashoffset:0;stroke-width:0.8;"/>
     </g>
     <g id="line2d_16">
      <g>
       <use style="stroke:#000000;stroke-width:0.6;" x="82.591828" xlink:href="#m9f3378c6ce" y="308.6"/>
      </g>
     </g>
    </g>
    <g id="xtick_9">
     <g id="line2d_17">
      <path clip-path="url(#p16f62ff7d3)" d="M 116.129725 308.6 
L 116.129725 26.8 
" style="fill:none;stroke:#808080;stroke-dasharray:0.8,1.32;stroke-dashoffset:0;stroke-width:0.8;"/>
     </g>
     <g id="line2d_18">
      <g>
       <use style="stroke:#000000;stroke-width:0.6;" x="116.129725" xlink:href="#m9f3378c6ce" y="308.6"/>
      </g>
     </g>
    </g>
    <g id="xtick_10">
     <g id="line2d_19">
      <path clip-path="url(#p16f62ff7d3)" d="M 133.15955 308.6 
L 133.15955 26.8 
" style="fill:none;stroke:#808080;stroke-dasharray:0.8,1.32;stroke-dashoffset:0;stroke-width:0.8;"/>
     </g>
     <g id="line2d_20">
      <g>
       <use style="stroke:#000000;stroke-width:0.6;" x="133.15955" xlink:href="#m9f3378c6ce" y="308.6"/>
      </g>
     </g>
    </g>
    <g id="xtick_11">
     <g id="line2d_21">
      <path clip-path="url(#p16f62ff7d3)" d="M 145.242404 308.6 
L 145.242404 26.8 
" style="fill:none;stroke:#808080;stroke-dasharray:0.8,1.32;stroke-dashoffset:0;stroke-width:0.8;"/>
     </g>
     <g id="line2d_22">
      <g>
       <use style="stroke:#000000;stroke-width:0.6;" x="145.242404" xlink:href="#m9f3378c6ce" y="308.6"/>
      </g>
     </g>
    </g>
    <g id="xtick_12">
     <g id="line2d_23">
      <path clip-path="url(#p16f62ff7d3)" d="M 154.614593 308.6 
L 154.614593 26.8 
" style="fill:none;stroke:#808080;stroke-dasharray:0.8,1.32;stroke-dashoffset:0;stroke-width:0.8;"/>
     </g>
     <g id="line2d_24">
      <g>
       <use style="stroke:#000000;stroke-width:0.6;" x="154.614593" xlink:href="#m9f3378c6ce" y="308.6"/>
      </g>
     </g>
    </g>
    <g id="xtick_13">
     <g id="line2d_25">
      <path clip-path="url(#p16f62ff7d3)" d="M 162.27223 308.6 
L 162.27223 26.8 
" style="fill:none;stroke:#808080;stroke-dasharray:0.8,1.32;stroke-dashoffset:0;stroke-width:0.8;"/>
     </g>
     <g id="line2d_26">
      <g>
       <use style="stroke:#000000;stroke-width:0.6;" x="162.27223" xlink:href="#m9f3378c6ce" y="308.6"/>
      </g>
     </g>
    </g>
    <g id="xtick_14">
     <g id="line2d_27">
      <path clip-path="url(#p16f62ff7d3)" d="M 168.746669 308.6 
L 168.746669 26.8 
" style="fill:none;stroke:#808080;stroke-dasharray:0.8,1.32;stroke-dashoffset:0;stroke-width:0.8;"/>
     </g>
     <g id="line2d_28">
      <g>
       <use style="stroke:#000000;stroke-width:0.6;" x="168.746669" xlink:href="#m9f3378c6ce" y="308.6"/>
      </g>
     </g>
    </g>
    <g id="xtick_15">
     <g id="line2d_29">
      <path clip-path="url(#p16f62ff7d3)" d="M 174.355083 308.6 
L 174.355083 26.8 
" style="fill:none;stroke:#808080;stroke-dasharray:0.8,1.32;stroke-dashoffset:0;stroke-width:0.8;"/>
     </g>
     <g id="line2d_30">
      <g>
       <use style="stroke:#000000;stroke-width:0.6;" x="174.355083" xlink:href="#m9f3378c6ce" y="308.6"/>
      </g>
     </g>
    </g>
    <g id="xtick_16">
     <g id="line2d_31">
      <path clip-path="url(#p16f62ff7d3)" d="M 179.302055 308.6 
L 179.302055 26.8 
" style="fill:none;stroke:#808080;stroke-dasharray:0.8,1.32;stroke-dashoffset:0;stroke-width:0.8;"/>
     </g>
     <g id="line2d_32">
      <g>
       <use style="stroke:#000000;stroke-width:0.6;" x="179.302055" xlink:href="#m9f3378c6ce" y="308.6"/>
      </g>
     </g>
    </g>
    <g id="xtick_17">
     <g id="line2d_33">
      <path clip-path="url(#p16f62ff7d3)" d="M 212.839952 308.6 
L 212.839952 26.8 
" style="fill:none;stroke:#808080;stroke-dasharray:0.8,1.32;stroke-dashoffset:0;stroke-width:0.8;"/>
     </g>
     <g id="line2d_34">
      <g>
       <use style="stroke:#000000;stroke-width:0.6;" x="212.839952" xlink:href="#m9f3378c6ce" y="308.6"/>
      </g>
     </g>
    </g>
    <g id="xtick_18">
     <g id="line2d_35">
      <path clip-path="url(#p16f62ff7d3)" d="M 229.869778 308.6 
L 229.869778 26.8 
" style="fill:none;stroke:#808080;stroke-dasharray:0.8,1.32;stroke-dashoffset:0;stroke-width:0.8;"/>
     </g>
     <g id="line2d_36">
      <g>
       <use style="stroke:#000000;stroke-width:0.6;" x="229.869778" xlink:href="#m9f3378c6ce" y="308.6"/>
      </g>
     </g>
    </g>
    <g id="xtick_19">
     <g id="line2d_37">
      <path clip-path="url(#p16f62ff7d3)" d="M 241.952631 308.6 
L 241.952631 26.8 
" style="fill:none;stroke:#808080;stroke-dasharray:0.8,1.32;stroke-dashoffset:0;stroke-width:0.8;"/>
     </g>
     <g id="line2d_38">
      <g>
       <use style="stroke:#000000;stroke-width:0.6;" x="241.952631" xlink:href="#m9f3378c6ce" y="308.6"/>
      </g>
     </g>
    </g>
    <g id="xtick_20">
     <g id="line2d_39">
      <path clip-path="url(#p16f62ff7d3)" d="M 251.324821 308.6 
L 251.324821 26.8 
" style="fill:none;stroke:#808080;stroke-dasharray:0.8,1.32;stroke-dashoffset:0;stroke-width:0.8;"/>
     </g>
     <g id="line2d_40">
      <g>
       <use style="stroke:#000000;stroke-width:0.6;" x="251.324821" xlink:href="#m9f3378c6ce" y="308.6"/>
      </g>
     </g>
    </g>
    <g id="xtick_21">
     <g id="line2d_41">
      <path clip-path="url(#p16f62ff7d3)" d="M 258.982457 308.6 
L 258.982457 26.8 
" style="fill:none;stroke:#808080;stroke-dasharray:0.8,1.32;stroke-dashoffset:0;stroke-width:0.8;"/>
     </g>
     <g id="line2d_42">
      <g>
       <use style="stroke:#000000;stroke-width:0.6;" x="258.982457" xlink:href="#m9f3378c6ce" y="308.6"/>
      </g>
     </g>
    </g>
    <g id="xtick_22">
     <g id="line2d_43">
      <path clip-path="url(#p16f62ff7d3)" d="M 265.456896 308.6 
L 265.456896 26.8 
" style="fill:none;stroke:#808080;stroke-dasharray:0.8,1.32;stroke-dashoffset:0;stroke-width:0.8;"/>
     </g>
     <g id="line2d_44">
      <g>
       <use style="stroke:#000000;stroke-width:0.6;" x="265.456896" xlink:href="#m9f3378c6ce" y="308.6"/>
      </g>
     </g>
    </g>
    <g id="xtick_23">
     <g id="line2d_45">
      <path clip-path="url(#p16f62ff7d3)" d="M 271.065311 308.6 
L 271.065311 26.8 
" style="fill:none;stroke:#808080;stroke-dasharray:0.8,1.32;stroke-dashoffset:0;stroke-width:0.8;"/>
     </g>
     <g id="line2d_46">
      <g>
       <use style="stroke:#000000;stroke-width:0.6;" x="271.065311" xlink:href="#m9f3378c6ce" y="308.6"/>
      </g>
     </g>
    </g>
    <g id="xtick_24">
     <g id="line2d_47">
      <path clip-path="url(#p16f62ff7d3)" d="M 276.012283 308.6 
L 276.012283 26.8 
" style="fill:none;stroke:#808080;stroke-dasharray:0.8,1.32;stroke-dashoffset:0;stroke-width:0.8;"/>
     </g>
     <g id="line2d_48">
      <g>
       <use style="stroke:#000000;stroke-width:0.6;" x="276.012283" xlink:href="#m9f3378c6ce" y="308.6"/>
      </g>
     </g>
    </g>
    <g id="xtick_25">
     <g id="line2d_49">
      <path clip-path="url(#p16f62ff7d3)" d="M 309.550179 308.6 
L 309.550179 26.8 
" style="fill:none;stroke:#808080;stroke-dasharray:0.8,1.32;stroke-dashoffset:0;stroke-width:0.8;"/>
     </g>
     <g id="line2d_50">
      <g>
       <use style="stroke:#000000;stroke-width:0.6;" x="309.550179" xlink:href="#m9f3378c6ce" y="308.6"/>
      </g>
     </g>
    </g>
    <g id="xtick_26">
     <g id="line2d_51">
      <path clip-path="url(#p16f62ff7d3)" d="M 326.580005 308.6 
L 326.580005 26.8 
" style="fill:none;stroke:#808080;stroke-dasharray:0.8,1.32;stroke-dashoffset:0;stroke-width:0.8;"/>
     </g>
     <g id="line2d_52">
      <g>
       <use style="stroke:#000000;stroke-width:0.6;" x="326.580005" xlink:href="#m9f3378c6ce" y="308.6"/>
      </g>
     </g>
    </g>
    <g id="xtick_27">
     <g id="line2d_53">
      <path clip-path="url(#p16f62ff7d3)" d="M 338.662859 308.6 
L 338.662859 26.8 
" style="fill:none;stroke:#808080;stroke-dasharray:0.8,1.32;stroke-dashoffset:0;stroke-width:0.8;"/>
     </g>
     <g id="line2d_54">
      <g>
       <use style="stroke:#000000;stroke-width:0.6;" x="338.662859" xlink:href="#m9f3378c6ce" y="308.6"/>
      </g>
     </g>
    </g>
    <g id="xtick_28">
     <g id="line2d_55">
      <path clip-path="url(#p16f62ff7d3)" d="M 348.035048 308.6 
L 348.035048 26.8 
" style="fill:none;stroke:#808080;stroke-dasharray:0.8,1.32;stroke-dashoffset:0;stroke-width:0.8;"/>
     </g>
     <g id="line2d_56">
      <g>
       <use style="stroke:#000000;stroke-width:0.6;" x="348.035048" xlink:href="#m9f3378c6ce" y="308.6"/>
      </g>
     </g>
    </g>
    <g id="xtick_29">
     <g id="line2d_57">
      <path clip-path="url(#p16f62ff7d3)" d="M 355.692684 308.6 
L 355.692684 26.8 
" style="fill:none;stroke:#808080;stroke-dasharray:0.8,1.32;stroke-dashoffset:0;stroke-width:0.8;"/>
     </g>
     <g id="line2d_58">
      <g>
       <use style="stroke:#000000;stroke-width:0.6;" x="355.692684" xlink:href="#m9f3378c6ce" y="308.6"/>
      </g>
     </g>
    </g>
    <g id="xtick_30">
     <g id="line2d_59">
      <path clip-path="url(#p16f62ff7d3)" d="M 362.167124 308.6 
L 362.167124 26.8 
" style="fill:none;stroke:#808080;stroke-dasharray:0.8,1.32;stroke-dashoffset:0;stroke-width:0.8;"/>
     </g>
     <g id="line2d_60">
      <g>
       <use style="stroke:#000000;stroke-width:0.6;" x="362.167124" xlink:href="#m9f3378c6ce" y="308.6"/>
      </g>
     </g>
    </g>
    <g id="xtick_31">
     <g id="line2d_61">
      <path clip-path="url(#p16f62ff7d3)" d="M 367.775538 308.6 
L 367.775538 26.8 
" style="fill:none;stroke:#808080;stroke-dasharray:0.8,1.32;stroke-dashoffset:0;stroke-width:0.8;"/>
     </g>
     <g id="line2d_62">
      <g>
       <use style="stroke:#000000;stroke-width:0.6;" x="367.775538" xlink:href="#m9f3378c6ce" y="308.6"/>
      </g>
     </g>
    </g>
    <g id="xtick_32">
     <g id="line2d_63">
      <path clip-path="url(#p16f62ff7d3)" d="M 372.72251 308.6 
L 372.72251 26.8 
" style="fill:none;stroke:#808080;stroke-dasharray:0.8,1.32;stroke-dashoffset:0;stroke-width:0.8;"/>
     </g>
     <g id="line2d_64">
      <g>
       <use style="stroke:#000000;stroke-width:0.6;" x="372.72251" xlink:href="#m9f3378c6ce" y="308.6"/>
      </g>
     </g>
    </g>
    <g id="xtick_33">
     <g id="line2d_65">
      <path clip-path="url(#p16f62ff7d3)" d="M 406.260407 308.6 
L 406.260407 26.8 
" style="fill:none;stroke:#808080;stroke-dasharray:0.8,1.32;stroke-dashoffset:0;stroke-width:0.8;"/>
     </g>
     <g id="line2d_66">
      <g>
       <use style="stroke:#000000;stroke-width:0.6;" x="406.260407" xlink:href="#m9f3378c6ce" y="308.6"/>
      </g>
     </g>
    </g>
    <g id="xtick_34">
     <g id="line2d_67">
      <path clip-path="url(#p16f62ff7d3)" d="M 423.290232 308.6 
L 423.290232 26.8 
" style="fill:none;stroke:#808080;stroke-dasharray:0.8,1.32;stroke-dashoffset:0;stroke-width:0.8;"/>
     </g>
     <g id="line2d_68">
      <g>
       <use style="stroke:#000000;stroke-width:0.6;" x="423.290232" xlink:href="#m9f3378c6ce" y="308.6"/>
      </g>
     </g>
    </g>
    <g id="xtick_35">
     <g id="line2d_69">
      <path clip-path="url(#p16f62ff7d3)" d="M 435.373086 308.6 
L 435.373086 26.8 
" style="fill:none;stroke:#808080;stroke-dasharray:0.8,1.32;stroke-dashoffset:0;stroke-width:0.8;"/>
     </g>
     <g id="line2d_70">
      <g>
       <use style="stroke:#000000;stroke-width:0.6;" x="435.373086" xlink:href="#m9f3378c6ce" y="308.6"/>
      </g>
     </g>
    </g>
    <g id="xtick_36">
     <g id="line2d_71">
      <path clip-path="url(#p16f62ff7d3)" d="M 444.745275 308.6 
L 444.745275 26.8 
" style="fill:none;stroke:#808080;stroke-dasharray:0.8,1.32;stroke-dashoffset:0;stroke-width:0.8;"/>
     </g>
     <g id="line2d_72">
      <g>
       <use style="stroke:#000000;stroke-width:0.6;" x="444.745275" xlink:href="#m9f3378c6ce" y="308.6"/>
      </g>
     </g>
    </g>
    <g id="xtick_37">
     <g id="line2d_73">
      <path clip-path="url(#p16f62ff7d3)" d="M 452.402912 308.6 
L 452.402912 26.8 
" style="fill:none;stroke:#808080;stroke-dasharray:0.8,1.32;stroke-dashoffset:0;stroke-width:0.8;"/>
     </g>
     <g id="line2d_74">
      <g>
       <use style="stroke:#000000;stroke-width:0.6;" x="452.402912" xlink:href="#m9f3378c6ce" y="308.6"/>
      </g>
     </g>
    </g>
    <g id="xtick_38">
     <g id="line2d_75">
      <path clip-path="url(#p16f62ff7d3)" d="M 458.877351 308.6 
L 458.877351 26.8 
" style="fill:none;stroke:#808080;stroke-dasharray:0.8,1.32;stroke-dashoffset:0;stroke-width:0.8;"/>
     </g>
     <g id="line2d_76">
      <g>
       <use style="stroke:#000000;stroke-width:0.6;" x="458.877351" xlink:href="#m9f3378c6ce" y="308.6"/>
      </g>
     </g>
    </g>
    <g id="xtick_39">
     <g id="line2d_77">
      <path clip-path="url(#p16f62ff7d3)" d="M 464.485765 308.6 
L 464.485765 26.8 
" style="fill:none;stroke:#808080;stroke-dasharray:0.8,1.32;stroke-dashoffset:0;stroke-width:0.8;"/>
     </g>
     <g id="line2d_78">
      <g>
       <use style="stroke:#000000;stroke-width:0.6;" x="464.485765" xlink:href="#m9f3378c6ce" y="308.6"/>
      </g>
     </g>
    </g>
    <g id="xtick_40">
     <g id="line2d_79">
      <path clip-path="url(#p16f62ff7d3)" d="M 469.432737 308.6 
L 469.432737 26.8 
" style="fill:none;stroke:#808080;stroke-dasharray:0.8,1.32;stroke-dashoffset:0;stroke-width:0.8;"/>
     </g>
     <g id="line2d_80">
      <g>
       <use style="stroke:#000000;stroke-width:0.6;" x="469.432737" xlink:href="#m9f3378c6ce" y="308.6"/>
      </g>
     </g>
    </g>
    <g id="text_6">
     <!-- frequency [MHz] -->
     <g transform="translate(230.91875 340.331875)scale(0.12 -0.12)">
      <defs>
       <path d="M 37.109375 75.984375 
L 37.109375 68.5 
L 28.515625 68.5 
Q 23.6875 68.5 21.796875 66.546875 
Q 19.921875 64.59375 19.921875 59.515625 
L 19.921875 54.6875 
L 34.71875 54.6875 
L 34.71875 47.703125 
L 19.921875 47.703125 
L 19.921875 0 
L 10.890625 0 
L 10.890625 47.703125 
L 2.296875 47.703125 
L 2.296875 54.6875 
L 10.890625 54.6875 
L 10.890625 58.5 
Q 10.890625 67.625 15.140625 71.796875 
Q 19.390625 75.984375 28.609375 75.984375 
z
" id="DejaVuSans-102"/>
       <path d="M 41.109375 46.296875 
Q 39.59375 47.171875 37.8125 47.578125 
Q 36.03125 48 33.890625 48 
Q 26.265625 48 22.1875 43.046875 
Q 18.109375 38.09375 18.109375 28.8125 
L 18.109375 0 
L 9.078125 0 
L 9.078125 54.6875 
L 18.109375 54.6875 
L 18.109375 46.1875 
Q 20.953125 51.171875 25.484375 53.578125 
Q 30.03125 56 36.53125 56 
Q 37.453125 56 38.578125 55.875 
Q 39.703125 55.765625 41.0625 55.515625 
z
" id="DejaVuSans-114"/>
       <path d="M 56.203125 29.59375 
L 56.203125 25.203125 
L 14.890625 25.203125 
Q 15.484375 15.921875 20.484375 11.0625 
Q 25.484375 6.203125 34.421875 6.203125 
Q 39.59375 6.203125 44.453125 7.46875 
Q 49.3125 8.734375 54.109375 11.28125 
L 54.109375 2.78125 
Q 49.265625 0.734375 44.1875 -0.34375 
Q 39.109375 -1.421875 33.890625 -1.421875 
Q 20.796875 -1.421875 13.15625 6.1875 
Q 5.515625 13.8125 5.515625 26.8125 
Q 5.515625 40.234375 12.765625 48.109375 
Q 20.015625 56 32.328125 56 
Q 43.359375 56 49.78125 48.890625 
Q 56.203125 41.796875 56.203125 29.59375 
z
M 47.21875 32.234375 
Q 47.125 39.59375 43.09375 43.984375 
Q 39.0625 48.390625 32.421875 48.390625 
Q 24.90625 48.390625 20.390625 44.140625 
Q 15.875 39.890625 15.1875 32.171875 
z
" id="DejaVuSans-101"/>
       <path d="M 14.796875 27.296875 
Q 14.796875 17.390625 18.875 11.75 
Q 22.953125 6.109375 30.078125 6.109375 
Q 37.203125 6.109375 41.296875 11.75 
Q 45.40625 17.390625 45.40625 27.296875 
Q 45.40625 37.203125 41.296875 42.84375 
Q 37.203125 48.484375 30.078125 48.484375 
Q 22.953125 48.484375 18.875 42.84375 
Q 14.796875 37.203125 14.796875 27.296875 
z
M 45.40625 8.203125 
Q 42.578125 3.328125 38.25 0.953125 
Q 33.9375 -1.421875 27.875 -1.421875 
Q 17.96875 -1.421875 11.734375 6.484375 
Q 5.515625 14.40625 5.515625 27.296875 
Q 5.515625 40.1875 11.734375 48.09375 
Q 17.96875 56 27.875 56 
Q 33.9375 56 38.25 53.625 
Q 42.578125 51.265625 45.40625 46.390625 
L 45.40625 54.6875 
L 54.390625 54.6875 
L 54.390625 -20.796875 
L 45.40625 -20.796875 
z
" id="DejaVuSans-113"/>
       <path d="M 8.5 21.578125 
L 8.5 54.6875 
L 17.484375 54.6875 
L 17.484375 21.921875 
Q 17.484375 14.15625 20.5 10.265625 
Q 23.53125 6.390625 29.59375 6.390625 
Q 36.859375 6.390625 41.078125 11.03125 
Q 45.3125 15.671875 45.3125 23.6875 
L 45.3125 54.6875 
L 54.296875 54.6875 
L 54.296875 0 
L 45.3125 0 
L 45.3125 8.40625 
Q 42.046875 3.421875 37.71875 1 
Q 33.40625 -1.421875 27.6875 -1.421875 
Q 18.265625 -1.421875 13.375 4.4375 
Q 8.5 10.296875 8.5 21.578125 
z
M 31.109375 56 
z
" id="DejaVuSans-117"/>
       <path d="M 54.890625 33.015625 
L 54.890625 0 
L 45.90625 0 
L 45.90625 32.71875 
Q 45.90625 40.484375 42.875 44.328125 
Q 39.84375 48.1875 33.796875 48.1875 
Q 26.515625 48.1875 22.3125 43.546875 
Q 18.109375 38.921875 18.109375 30.90625 
L 18.109375 0 
L 9.078125 0 
L 9.078125 54.6875 
L 18.109375 54.6875 
L 18.109375 46.1875 
Q 21.34375 51.125 25.703125 53.5625 
Q 30.078125 56 35.796875 56 
Q 45.21875 56 50.046875 50.171875 
Q 54.890625 44.34375 54.890625 33.015625 
z
" id="DejaVuSans-110"/>
       <path d="M 48.78125 52.59375 
L 48.78125 44.1875 
Q 44.96875 46.296875 41.140625 47.34375 
Q 37.3125 48.390625 33.40625 48.390625 
Q 24.65625 48.390625 19.8125 42.84375 
Q 14.984375 37.3125 14.984375 27.296875 
Q 14.984375 17.28125 19.8125 11.734375 
Q 24.65625 6.203125 33.40625 6.203125 
Q 37.3125 6.203125 41.140625 7.25 
Q 44.96875 8.296875 48.78125 10.40625 
L 48.78125 2.09375 
Q 45.015625 0.34375 40.984375 -0.53125 
Q 36.96875 -1.421875 32.421875 -1.421875 
Q 20.0625 -1.421875 12.78125 6.34375 
Q 5.515625 14.109375 5.515625 27.296875 
Q 5.515625 40.671875 12.859375 48.328125 
Q 20.21875 56 33.015625 56 
Q 37.15625 56 41.109375 55.140625 
Q 45.0625 54.296875 48.78125 52.59375 
z
" id="DejaVuSans-99"/>
       <path d="M 32.171875 -5.078125 
Q 28.375 -14.84375 24.75 -17.8125 
Q 21.140625 -20.796875 15.09375 -20.796875 
L 7.90625 -20.796875 
L 7.90625 -13.28125 
L 13.1875 -13.28125 
Q 16.890625 -13.28125 18.9375 -11.515625 
Q 21 -9.765625 23.484375 -3.21875 
L 25.09375 0.875 
L 2.984375 54.6875 
L 12.5 54.6875 
L 29.59375 11.921875 
L 46.6875 54.6875 
L 56.203125 54.6875 
z
" id="DejaVuSans-121"/>
       <path id="DejaVuSans-32"/>
       <path d="M 8.59375 75.984375 
L 29.296875 75.984375 
L 29.296875 69 
L 17.578125 69 
L 17.578125 -6.203125 
L 29.296875 -6.203125 
L 29.296875 -13.1875 
L 8.59375 -13.1875 
z
" id="DejaVuSans-91"/>
       <path d="M 9.8125 72.90625 
L 24.515625 72.90625 
L 43.109375 23.296875 
L 61.8125 72.90625 
L 76.515625 72.90625 
L 76.515625 0 
L 66.890625 0 
L 66.890625 64.015625 
L 48.09375 14.015625 
L 38.1875 14.015625 
L 19.390625 64.015625 
L 19.390625 0 
L 9.8125 0 
z
" id="DejaVuSans-77"/>
       <path d="M 9.8125 72.90625 
L 19.671875 72.90625 
L 19.671875 43.015625 
L 55.515625 43.015625 
L 55.515625 72.90625 
L 65.375 72.90625 
L 65.375 0 
L 55.515625 0 
L 55.515625 34.71875 
L 19.671875 34.71875 
L 19.671875 0 
L 9.8125 0 
z
" id="DejaVuSans-72"/>
       <path d="M 5.515625 54.6875 
L 48.1875 54.6875 
L 48.1875 46.484375 
L 14.40625 7.171875 
L 48.1875 7.171875 
L 48.1875 0 
L 4.296875 0 
L 4.296875 8.203125 
L 38.09375 47.515625 
L 5.515625 47.515625 
z
" id="DejaVuSans-122"/>
       <path d="M 30.421875 75.984375 
L 30.421875 -13.1875 
L 9.71875 -13.1875 
L 9.71875 -6.203125 
L 21.390625 -6.203125 
L 21.390625 69 
L 9.71875 69 
L 9.71875 75.984375 
z
" id="DejaVuSans-93"/>
      </defs>
      <use xlink:href="#DejaVuSans-102"/>
      <use x="35.205078" xlink:href="#DejaVuSans-114"/>
      <use x="74.068359" xlink:href="#DejaVuSans-101"/>
      <use x="135.591797" xlink:href="#DejaVuSans-113"/>
      <use x="199.068359" xlink:href="#DejaVuSans-117"/>
      <use x="262.447266" xlink:href="#DejaVuSans-101"/>
      <use x="323.970703" xlink:href="#DejaVuSans-110"/>
      <use x="387.349609" xlink:href="#DejaVuSans-99"/>
      <use x="442.330078" xlink:href="#DejaVuSans-121"/>
      <use x="501.509766" xlink:href="#DejaVuSans-32"/>
      <use x="533.296875" xlink:href="#DejaVuSans-91"/>
      <use x="572.310547" xlink:href="#DejaVuSans-77"/>
      <use x="658.589844" xlink:href="#DejaVuSans-72"/>
      <use x="733.785156" xlink:href="#DejaVuSans-122"/>
      <use x="786.275391" xlink:href="#DejaVuSans-93"/>
     </g>
    </g>
   </g>
   <g id="matplotlib.axis_2">
    <g id="ytick_1">
     <g id="line2d_81">
      <path clip-path="url(#p16f62ff7d3)" d="M 67.675 265.368912 
L 493.2 265.368912 
" style="fill:none;stroke:#808080;stroke-linecap:square;stroke-width:0.8;"/>
     </g>
     <g id="line2d_82">
      <defs>
       <path d="M 0 0 
L -3.5 0 
" id="m48940ab511" style="stroke:#000000;stroke-width:0.8;"/>
      </defs>
      <g>
       <use style="stroke:#000000;stroke-width:0.8;" x="67.675" xlink:href="#m48940ab511" y="265.368912"/>
      </g>
     </g>
     <g id="text_7">
      <!-- −200 -->
      <g transform="translate(27.714375 269.927974)scale(0.12 -0.12)">
       <defs>
        <path d="M 10.59375 35.5 
L 73.1875 35.5 
L 73.1875 27.203125 
L 10.59375 27.203125 
z
" id="DejaVuSans-8722"/>
       </defs>
       <use xlink:href="#DejaVuSans-8722"/>
       <use x="83.789062" xlink:href="#DejaVuSans-50"/>
       <use x="147.412109" xlink:href="#DejaVuSans-48"/>
       <use x="211.035156" xlink:href="#DejaVuSans-48"/>
      </g>
     </g>
    </g>
    <g id="ytick_2">
     <g id="line2d_83">
      <path clip-path="url(#p16f62ff7d3)" d="M 67.675 205.958433 
L 493.2 205.958433 
" style="fill:none;stroke:#808080;stroke-linecap:square;stroke-width:0.8;"/>
     </g>
     <g id="line2d_84">
      <g>
       <use style="stroke:#000000;stroke-width:0.8;" x="67.675" xlink:href="#m48940ab511" y="205.958433"/>
      </g>
     </g>
     <g id="text_8">
      <!-- −100 -->
      <g transform="translate(27.714375 210.517495)scale(0.12 -0.12)">
       <use xlink:href="#DejaVuSans-8722"/>
       <use x="83.789062" xlink:href="#DejaVuSans-49"/>
       <use x="147.412109" xlink:href="#DejaVuSans-48"/>
       <use x="211.035156" xlink:href="#DejaVuSans-48"/>
      </g>
     </g>
    </g>
    <g id="ytick_3">
     <g id="line2d_85">
      <path clip-path="url(#p16f62ff7d3)" d="M 67.675 146.547953 
L 493.2 146.547953 
" style="fill:none;stroke:#808080;stroke-linecap:square;stroke-width:0.8;"/>
     </g>
     <g id="line2d_86">
      <g>
       <use style="stroke:#000000;stroke-width:0.8;" x="67.675" xlink:href="#m48940ab511" y="146.547953"/>
      </g>
     </g>
     <g id="text_9">
      <!-- 0 -->
      <g transform="translate(53.04 151.107016)scale(0.12 -0.12)">
       <use xlink:href="#DejaVuSans-48"/>
      </g>
     </g>
    </g>
    <g id="ytick_4">
     <g id="line2d_87">
      <path clip-path="url(#p16f62ff7d3)" d="M 67.675 87.137474 
L 493.2 87.137474 
" style="fill:none;stroke:#808080;stroke-linecap:square;stroke-width:0.8;"/>
     </g>
     <g id="line2d_88">
      <g>
       <use style="stroke:#000000;stroke-width:0.8;" x="67.675" xlink:href="#m48940ab511" y="87.137474"/>
      </g>
     </g>
     <g id="text_10">
      <!-- 100 -->
      <g transform="translate(37.77 91.696537)scale(0.12 -0.12)">
       <use xlink:href="#DejaVuSans-49"/>
       <use x="63.623047" xlink:href="#DejaVuSans-48"/>
       <use x="127.246094" xlink:href="#DejaVuSans-48"/>
      </g>
     </g>
    </g>
    <g id="ytick_5">
     <g id="line2d_89">
      <path clip-path="url(#p16f62ff7d3)" d="M 67.675 27.726995 
L 493.2 27.726995 
" style="fill:none;stroke:#808080;stroke-linecap:square;stroke-width:0.8;"/>
     </g>
     <g id="line2d_90">
      <g>
       <use style="stroke:#000000;stroke-width:0.8;" x="67.675" xlink:href="#m48940ab511" y="27.726995"/>
      </g>
     </g>
     <g id="text_11">
      <!-- 200 -->
      <g transform="translate(37.77 32.286058)scale(0.12 -0.12)">
       <use xlink:href="#DejaVuSans-50"/>
       <use x="63.623047" xlink:href="#DejaVuSans-48"/>
       <use x="127.246094" xlink:href="#DejaVuSans-48"/>
      </g>
     </g>
    </g>
    <g id="text_12">
     <!-- phase [deg] -->
     <g transform="translate(21.21875 203.704687)rotate(-90)scale(0.12 -0.12)">
      <defs>
       <path d="M 18.109375 8.203125 
L 18.109375 -20.796875 
L 9.078125 -20.796875 
L 9.078125 54.6875 
L 18.109375 54.6875 
L 18.109375 46.390625 
Q 20.953125 51.265625 25.265625 53.625 
Q 29.59375 56 35.59375 56 
Q 45.5625 56 51.78125 48.09375 
Q 58.015625 40.1875 58.015625 27.296875 
Q 58.015625 14.40625 51.78125 6.484375 
Q 45.5625 -1.421875 35.59375 -1.421875 
Q 29.59375 -1.421875 25.265625 0.953125 
Q 20.953125 3.328125 18.109375 8.203125 
z
M 48.6875 27.296875 
Q 48.6875 37.203125 44.609375 42.84375 
Q 40.53125 48.484375 33.40625 48.484375 
Q 26.265625 48.484375 22.1875 42.84375 
Q 18.109375 37.203125 18.109375 27.296875 
Q 18.109375 17.390625 22.1875 11.75 
Q 26.265625 6.109375 33.40625 6.109375 
Q 40.53125 6.109375 44.609375 11.75 
Q 48.6875 17.390625 48.6875 27.296875 
z
" id="DejaVuSans-112"/>
       <path d="M 54.890625 33.015625 
L 54.890625 0 
L 45.90625 0 
L 45.90625 32.71875 
Q 45.90625 40.484375 42.875 44.328125 
Q 39.84375 48.1875 33.796875 48.1875 
Q 26.515625 48.1875 22.3125 43.546875 
Q 18.109375 38.921875 18.109375 30.90625 
L 18.109375 0 
L 9.078125 0 
L 9.078125 75.984375 
L 18.109375 75.984375 
L 18.109375 46.1875 
Q 21.34375 51.125 25.703125 53.5625 
Q 30.078125 56 35.796875 56 
Q 45.21875 56 50.046875 50.171875 
Q 54.890625 44.34375 54.890625 33.015625 
z
" id="DejaVuSans-104"/>
       <path d="M 34.28125 27.484375 
Q 23.390625 27.484375 19.1875 25 
Q 14.984375 22.515625 14.984375 16.5 
Q 14.984375 11.71875 18.140625 8.90625 
Q 21.296875 6.109375 26.703125 6.109375 
Q 34.1875 6.109375 38.703125 11.40625 
Q 43.21875 16.703125 43.21875 25.484375 
L 43.21875 27.484375 
z
M 52.203125 31.203125 
L 52.203125 0 
L 43.21875 0 
L 43.21875 8.296875 
Q 40.140625 3.328125 35.546875 0.953125 
Q 30.953125 -1.421875 24.3125 -1.421875 
Q 15.921875 -1.421875 10.953125 3.296875 
Q 6 8.015625 6 15.921875 
Q 6 25.140625 12.171875 29.828125 
Q 18.359375 34.515625 30.609375 34.515625 
L 43.21875 34.515625 
L 43.21875 35.40625 
Q 43.21875 41.609375 39.140625 45 
Q 35.0625 48.390625 27.6875 48.390625 
Q 23 48.390625 18.546875 47.265625 
Q 14.109375 46.140625 10.015625 43.890625 
L 10.015625 52.203125 
Q 14.9375 54.109375 19.578125 55.046875 
Q 24.21875 56 28.609375 56 
Q 40.484375 56 46.34375 49.84375 
Q 52.203125 43.703125 52.203125 31.203125 
z
" id="DejaVuSans-97"/>
       <path d="M 44.28125 53.078125 
L 44.28125 44.578125 
Q 40.484375 46.53125 36.375 47.5 
Q 32.28125 48.484375 27.875 48.484375 
Q 21.1875 48.484375 17.84375 46.4375 
Q 14.5 44.390625 14.5 40.28125 
Q 14.5 37.15625 16.890625 35.375 
Q 19.28125 33.59375 26.515625 31.984375 
L 29.59375 31.296875 
Q 39.15625 29.25 43.1875 25.515625 
Q 47.21875 21.78125 47.21875 15.09375 
Q 47.21875 7.46875 41.1875 3.015625 
Q 35.15625 -1.421875 24.609375 -1.421875 
Q 20.21875 -1.421875 15.453125 -0.5625 
Q 10.6875 0.296875 5.421875 2 
L 5.421875 11.28125 
Q 10.40625 8.6875 15.234375 7.390625 
Q 20.0625 6.109375 24.8125 6.109375 
Q 31.15625 6.109375 34.5625 8.28125 
Q 37.984375 10.453125 37.984375 14.40625 
Q 37.984375 18.0625 35.515625 20.015625 
Q 33.0625 21.96875 24.703125 23.78125 
L 21.578125 24.515625 
Q 13.234375 26.265625 9.515625 29.90625 
Q 5.8125 33.546875 5.8125 39.890625 
Q 5.8125 47.609375 11.28125 51.796875 
Q 16.75 56 26.8125 56 
Q 31.78125 56 36.171875 55.265625 
Q 40.578125 54.546875 44.28125 53.078125 
z
" id="DejaVuSans-115"/>
       <path d="M 45.40625 46.390625 
L 45.40625 75.984375 
L 54.390625 75.984375 
L 54.390625 0 
L 45.40625 0 
L 45.40625 8.203125 
Q 42.578125 3.328125 38.25 0.953125 
Q 33.9375 -1.421875 27.875 -1.421875 
Q 17.96875 -1.421875 11.734375 6.484375 
Q 5.515625 14.40625 5.515625 27.296875 
Q 5.515625 40.1875 11.734375 48.09375 
Q 17.96875 56 27.875 56 
Q 33.9375 56 38.25 53.625 
Q 42.578125 51.265625 45.40625 46.390625 
z
M 14.796875 27.296875 
Q 14.796875 17.390625 18.875 11.75 
Q 22.953125 6.109375 30.078125 6.109375 
Q 37.203125 6.109375 41.296875 11.75 
Q 45.40625 17.390625 45.40625 27.296875 
Q 45.40625 37.203125 41.296875 42.84375 
Q 37.203125 48.484375 30.078125 48.484375 
Q 22.953125 48.484375 18.875 42.84375 
Q 14.796875 37.203125 14.796875 27.296875 
z
" id="DejaVuSans-100"/>
       <path d="M 45.40625 27.984375 
Q 45.40625 37.75 41.375 43.109375 
Q 37.359375 48.484375 30.078125 48.484375 
Q 22.859375 48.484375 18.828125 43.109375 
Q 14.796875 37.75 14.796875 27.984375 
Q 14.796875 18.265625 18.828125 12.890625 
Q 22.859375 7.515625 30.078125 7.515625 
Q 37.359375 7.515625 41.375 12.890625 
Q 45.40625 18.265625 45.40625 27.984375 
z
M 54.390625 6.78125 
Q 54.390625 -7.171875 48.1875 -13.984375 
Q 42 -20.796875 29.203125 -20.796875 
Q 24.46875 -20.796875 20.265625 -20.09375 
Q 16.0625 -19.390625 12.109375 -17.921875 
L 12.109375 -9.1875 
Q 16.0625 -11.328125 19.921875 -12.34375 
Q 23.78125 -13.375 27.78125 -13.375 
Q 36.625 -13.375 41.015625 -8.765625 
Q 45.40625 -4.15625 45.40625 5.171875 
L 45.40625 9.625 
Q 42.625 4.78125 38.28125 2.390625 
Q 33.9375 0 27.875 0 
Q 17.828125 0 11.671875 7.65625 
Q 5.515625 15.328125 5.515625 27.984375 
Q 5.515625 40.671875 11.671875 48.328125 
Q 17.828125 56 27.875 56 
Q 33.9375 56 38.28125 53.609375 
Q 42.625 51.21875 45.40625 46.390625 
L 45.40625 54.6875 
L 54.390625 54.6875 
z
" id="DejaVuSans-103"/>
      </defs>
      <use xlink:href="#DejaVuSans-112"/>
      <use x="63.476562" xlink:href="#DejaVuSans-104"/>
      <use x="126.855469" xlink:href="#DejaVuSans-97"/>
      <use x="188.134766" xlink:href="#DejaVuSans-115"/>
      <use x="240.234375" xlink:href="#DejaVuSans-101"/>
      <use x="301.757812" xlink:href="#DejaVuSans-32"/>
      <use x="333.544922" xlink:href="#DejaVuSans-91"/>
      <use x="372.558594" xlink:href="#DejaVuSans-100"/>
      <use x="436.035156" xlink:href="#DejaVuSans-101"/>
      <use x="497.558594" xlink:href="#DejaVuSans-103"/>
      <use x="561.035156" xlink:href="#DejaVuSans-93"/>
     </g>
    </g>
   </g>
   <g id="line2d_91">
    <path clip-path="url(#p16f62ff7d3)" d="M 87.017045 39.609091 
L 90.924529 39.609091 
L 94.832013 39.609091 
L 98.739497 39.609091 
L 102.646981 39.609091 
L 106.554465 39.609091 
L 110.461949 39.609091 
L 114.369433 39.609091 
L 118.276917 39.609091 
L 122.184401 39.609091 
L 126.091885 39.609091 
L 129.999369 39.609091 
L 133.906853 39.609091 
L 137.814337 39.609091 
L 141.72182 39.609091 
L 145.629304 39.609091 
L 149.536788 39.609091 
L 153.444272 39.609091 
L 157.351756 39.609091 
L 161.25924 39.609091 
L 165.166724 39.609091 
L 169.074208 39.609091 
L 172.981692 39.609091 
L 176.889176 39.609091 
L 180.79666 39.609091 
L 184.704144 39.609091 
L 188.611628 39.609091 
L 192.519112 39.609091 
L 196.426596 39.609091 
L 200.334079 39.609091 
L 204.241563 39.609091 
L 208.149047 39.609091 
L 212.056531 39.609091 
L 215.964015 39.609091 
L 219.871499 39.609091 
L 223.778983 39.609091 
L 227.686467 39.609091 
L 231.593951 39.609091 
L 235.501435 39.609091 
L 239.408919 39.609091 
L 243.316403 39.609091 
L 247.223887 39.609091 
L 251.131371 39.609091 
L 255.038854 39.609091 
L 258.946338 39.609091 
L 262.853822 39.609091 
L 266.761306 39.609091 
L 270.66879 39.609091 
L 274.576274 39.609091 
L 278.483758 39.609091 
L 282.391242 39.609091 
L 286.298726 39.609091 
L 290.20621 39.609091 
L 294.113694 39.609091 
L 298.021178 39.609091 
L 301.928662 39.609091 
L 305.836146 39.609091 
L 309.743629 39.609091 
L 313.651113 39.609091 
L 317.558597 39.609091 
L 321.466081 39.609091 
L 325.373565 39.609091 
L 329.281049 39.609091 
L 333.188533 39.609091 
L 337.096017 39.609091 
L 341.003501 39.609091 
L 344.910985 39.609091 
L 348.818469 39.609091 
L 352.725953 39.609091 
L 356.633437 39.609091 
L 360.540921 39.609091 
L 364.448404 39.609091 
L 368.355888 39.609091 
L 372.263372 39.609091 
L 376.170856 39.609091 
L 380.07834 39.609091 
L 383.985824 39.609091 
L 387.893308 39.609091 
L 391.800792 39.609091 
L 395.708276 39.609091 
L 399.61576 39.609091 
L 403.523244 39.609091 
L 407.430728 39.609091 
L 411.338212 39.609091 
L 415.245696 39.609091 
L 419.15318 39.609091 
L 423.060663 39.609091 
L 426.968147 39.609091 
L 430.875631 39.609091 
L 434.783115 39.609091 
L 438.690599 39.609091 
L 442.598083 39.609091 
L 446.505567 39.609091 
L 450.413051 39.609091 
L 454.320535 39.609091 
L 458.228019 39.609091 
L 462.135503 39.609091 
L 466.042987 39.609091 
L 469.950471 39.609091 
L 473.857955 39.609091 
" style="fill:none;stroke:#ff0000;stroke-linecap:square;stroke-width:2;"/>
   </g>
   <g id="line2d_92">
    <path clip-path="url(#p16f62ff7d3)" d="M 87.017045 40.667807 
L 90.924529 40.770974 
L 94.832013 40.884181 
L 98.739497 41.008402 
L 102.646981 41.144703 
L 106.554465 41.294251 
L 110.461949 41.458324 
L 114.369433 41.638321 
L 118.276917 41.835771 
L 122.184401 42.052345 
L 126.091885 42.289865 
L 129.999369 42.550322 
L 133.906853 42.835879 
L 137.814337 43.148892 
L 141.72182 43.491913 
L 145.629304 43.867707 
L 149.536788 44.279258 
L 153.444272 44.729772 
L 157.351756 45.222685 
L 161.25924 45.761655 
L 165.166724 46.35055 
L 169.074208 46.993432 
L 172.981692 47.694518 
L 176.889176 48.458133 
L 180.79666 49.288639 
L 184.704144 50.190341 
L 188.611628 51.167369 
L 192.519112 52.223523 
L 196.426596 53.362096 
L 200.334079 54.585661 
L 204.241563 55.895846 
L 208.149047 57.293083 
L 212.056531 58.776385 
L 215.964015 60.343143 
L 219.871499 61.988994 
L 223.778983 63.70778 
L 227.686467 65.491633 
L 231.593951 67.331197 
L 235.501435 69.215988 
L 239.408919 71.134869 
L 243.316403 73.076601 
L 247.223887 75.030416 
L 251.131371 76.986544 
L 255.038854 78.936647 
L 258.946338 80.87413 
L 262.853822 82.794288 
L 266.761306 84.69433 
L 270.66879 86.573259 
L 274.576274 88.431676 
L 278.483758 90.271513 
L 282.391242 92.095747 
L 286.298726 93.908098 
L 290.20621 95.712743 
L 294.113694 97.514034 
L 298.021178 99.316224 
L 301.928662 101.123196 
L 305.836146 102.93817 
L 309.743629 104.763405 
L 313.651113 106.599897 
L 317.558597 108.447101 
L 321.466081 110.302713 
L 325.373565 112.162552 
L 329.281049 114.020584 
L 333.188533 115.869098 
L 337.096017 117.699049 
L 341.003501 119.500522 
L 344.910985 121.263284 
L 348.818469 122.977347 
L 352.725953 124.633494 
L 356.633437 126.223702 
L 360.540921 127.741441 
L 364.448404 129.181829 
L 368.355888 130.541663 
L 372.263372 131.819331 
L 376.170856 133.014658 
L 380.07834 134.128697 
L 383.985824 135.163505 
L 387.893308 136.121917 
L 391.800792 137.007337 
L 395.708276 137.823552 
L 399.61576 138.574581 
L 403.523244 139.264541 
L 407.430728 139.897554 
L 411.338212 140.477667 
L 415.245696 141.008795 
L 419.15318 141.494689 
L 423.060663 141.938905 
L 426.968147 142.344789 
L 430.875631 142.715477 
L 434.783115 143.053889 
L 438.690599 143.362734 
L 442.598083 143.64452 
L 446.505567 143.901559 
L 450.413051 144.13598 
L 454.320535 144.34974 
L 458.228019 144.544635 
L 462.135503 144.72231 
L 466.042987 144.884273 
L 469.950471 145.031901 
L 473.857955 145.166456 
" style="fill:none;stroke:#0000ff;stroke-linecap:square;stroke-width:2;"/>
   </g>
   <g id="line2d_93">
    <path clip-path="url(#p16f62ff7d3)" d="M 87.017045 54.774311 
L 90.924529 56.04503 
L 94.832013 57.385701 
L 98.739497 58.791637 
L 102.646981 60.256251 
L 106.554465 61.771058 
L 110.461949 63.325804 
L 114.369433 64.908742 
L 118.276917 66.507041 
L 122.184401 68.107296 
L 126.091885 69.69611 
L 129.999369 71.26066 
L 133.906853 72.789221 
L 137.814337 74.271577 
L 141.72182 75.699304 
L 145.629304 77.065906 
L 149.536788 78.366822 
L 153.444272 79.599326 
L 157.351756 80.762345 
L 161.25924 81.856236 
L 165.166724 82.88254 
L 169.074208 83.843742 
L 172.981692 84.743048 
L 176.889176 85.584193 
L 180.79666 86.371269 
L 184.704144 87.108598 
L 188.611628 87.800625 
L 192.519112 88.451838 
L 196.426596 89.066714 
L 200.334079 89.649684 
L 204.241563 90.205106 
L 208.149047 90.737256 
L 212.056531 91.250332 
L 215.964015 91.748453 
L 219.871499 92.235677 
L 223.778983 92.716014 
L 227.686467 93.193445 
L 231.593951 93.671946 
L 235.501435 94.155505 
L 239.408919 94.648149 
L 243.316403 95.153966 
L 247.223887 95.677125 
L 251.131371 96.221897 
L 255.038854 96.792674 
L 258.946338 97.393979 
L 262.853822 98.030483 
L 266.761306 98.706996 
L 270.66879 99.428472 
L 274.576274 100.199979 
L 278.483758 101.026677 
L 282.391242 101.913756 
L 286.298726 102.866373 
L 290.20621 103.889545 
L 294.113694 104.988024 
L 298.021178 106.166142 
L 301.928662 107.427617 
L 305.836146 108.775343 
L 309.743629 110.211155 
L 313.651113 111.735599 
L 317.558597 113.347712 
L 321.466081 115.04486 
L 325.373565 116.822648 
L 329.281049 118.674937 
L 333.188533 120.593998 
L 337.096017 122.570799 
L 341.003501 124.595427 
L 344.910985 126.657607 
L 348.818469 128.747261 
L 352.725953 130.855067 
L 356.633437 132.972932 
L 360.540921 135.094355 
L 364.448404 137.214626 
L 368.355888 139.330865 
L 372.263372 141.441907 
L 376.170856 143.548043 
L 380.07834 145.650668 
L 383.985824 147.751839 
L 387.893308 149.853803 
L 391.800792 151.958508 
L 395.708276 154.06713 
L 399.61576 156.179658 
L 403.523244 158.294545 
L 407.430728 160.408486 
L 411.338212 162.516329 
L 415.245696 164.611146 
L 419.15318 166.68447 
L 423.060663 168.726679 
L 426.968147 170.727497 
L 430.875631 172.676549 
L 434.783115 174.563921 
L 438.690599 176.380662 
L 442.598083 178.119173 
L 446.505567 179.773471 
L 450.413051 181.339306 
L 454.320535 182.814156 
L 458.228019 184.197119 
L 462.135503 185.488726 
L 466.042987 186.690723 
L 469.950471 187.805831 
L 473.857955 188.837513 
" style="fill:none;stroke:#000000;stroke-linecap:square;stroke-width:2;"/>
   </g>
   <g id="line2d_94">
    <path clip-path="url(#p16f62ff7d3)" d="M 87.017045 147.604196 
L 90.924529 147.707122 
L 94.832013 147.820065 
L 98.739497 147.943996 
L 102.646981 148.079978 
L 106.554465 148.229177 
L 110.461949 148.392867 
L 114.369433 148.572443 
L 118.276917 148.769431 
L 122.184401 148.985499 
L 126.091885 149.222464 
L 129.999369 149.482312 
L 133.906853 149.767201 
L 137.814337 150.079481 
L 141.72182 150.4217 
L 145.629304 150.796615 
L 149.536788 151.207201 
L 153.444272 151.65666 
L 157.351756 152.148418 
L 161.25924 152.686123 
L 165.166724 153.273636 
L 169.074208 153.915008 
L 172.981692 154.614445 
L 176.889176 155.376262 
L 180.79666 156.204811 
L 184.704144 157.104386 
L 188.611628 158.079106 
L 192.519112 159.132763 
L 196.426596 160.268643 
L 200.334079 161.489315 
L 204.241563 162.796405 
L 208.149047 164.190354 
L 212.056531 165.67019 
L 215.964015 167.233328 
L 219.871499 168.87545 
L 223.778983 170.590461 
L 227.686467 172.370587 
L 231.593951 174.206601 
L 235.501435 176.088197 
L 239.408919 178.004479 
L 243.316403 179.944529 
L 247.223887 181.897996 
L 251.131371 183.855648 
L 255.038854 185.809838 
L 258.946338 187.754829 
L 262.853822 189.686983 
L 266.761306 191.604799 
L 270.66879 193.508816 
L 274.576274 195.401421 
L 278.483758 197.286576 
L 282.391242 199.169495 
L 286.298726 201.056292 
L 290.20621 202.953613 
L 294.113694 204.868264 
L 298.021178 206.806835 
L 301.928662 208.77533 
L 305.836146 210.778813 
L 309.743629 212.821076 
L 313.651113 214.904355 
L 317.558597 217.029105 
L 321.466081 219.193881 
L 325.373565 221.395332 
L 329.281049 223.628341 
L 333.188533 225.886316 
L 337.096017 228.161608 
L 341.003501 230.446039 
L 344.910985 232.73148 
L 348.818469 235.01042 
L 352.725953 237.276462 
L 356.633437 239.524702 
L 360.540921 241.751963 
L 364.448404 243.956858 
L 368.355888 246.139707 
L 372.263372 248.302325 
L 376.170856 250.447694 
L 380.07834 252.579569 
L 383.985824 254.70204 
L 387.893308 256.819056 
L 391.800792 258.933975 
L 395.708276 261.049115 
L 399.61576 263.165378 
L 403.523244 265.281939 
L 407.430728 267.396058 
L 411.338212 269.503017 
L 415.245696 271.59622 
L 419.15318 273.667451 
L 423.060663 275.707276 
L 426.968147 277.705555 
L 430.875631 279.652014 
L 434.783115 281.536811 
L 438.690599 283.351042 
L 442.598083 285.087142 
L 446.505567 286.739149 
L 450.413051 288.302826 
L 454.320535 289.775656 
L 458.228019 291.156736 
L 462.135503 292.446597 
L 466.042987 293.646979 
L 469.950471 294.760598 
L 473.857955 295.790909 
" style="fill:none;stroke:#bf00bf;stroke-linecap:square;stroke-width:2;"/>
   </g>
   <g id="line2d_95">
    <path clip-path="url(#p16f62ff7d3)" d="M 87.017045 93.58471 
L 90.924529 93.6176 
L 94.832013 93.650021 
L 98.739497 93.6814 
L 102.646981 93.711144 
L 106.554465 93.738683 
L 110.461949 93.763516 
L 114.369433 93.785264 
L 118.276917 93.803717 
L 122.184401 93.818865 
L 126.091885 93.830912 
L 129.999369 93.840278 
L 133.906853 93.847566 
L 137.814337 93.853528 
L 141.72182 93.859015 
L 145.629304 93.864932 
L 149.536788 93.872191 
L 153.444272 93.881685 
L 157.351756 93.894259 
L 161.25924 93.910708 
L 165.166724 93.931769 
L 169.074208 93.958132 
L 172.981692 93.990448 
L 176.889176 94.029345 
L 180.79666 94.07544 
L 184.704144 94.129356 
L 188.611628 94.191739 
L 192.519112 94.263267 
L 196.426596 94.344664 
L 200.334079 94.436716 
L 204.241563 94.540278 
L 208.149047 94.656289 
L 212.056531 94.785777 
L 215.964015 94.929875 
L 219.871499 95.089829 
L 223.778983 95.267008 
L 227.686467 95.462915 
L 231.593951 95.679198 
L 235.501435 95.917661 
L 239.408919 96.180273 
L 243.316403 96.469177 
L 247.223887 96.786701 
L 251.131371 97.135365 
L 255.038854 97.517883 
L 258.946338 97.937166 
L 262.853822 98.396321 
L 266.761306 98.898634 
L 270.66879 99.44756 
L 274.576274 100.046681 
L 278.483758 100.699673 
L 282.391242 101.410233 
L 286.298726 102.181997 
L 290.20621 103.018429 
L 294.113694 103.922682 
L 298.021178 104.897425 
L 301.928662 105.944643 
L 305.836146 107.065408 
L 309.743629 108.259637 
L 313.651113 109.525843 
L 317.558597 110.860907 
L 321.466081 112.259902 
L 325.373565 113.715986 
L 329.281049 115.220419 
L 333.188533 116.762698 
L 337.096017 118.330841 
L 341.003501 119.911811 
L 344.910985 121.492028 
L 348.818469 123.057948 
L 352.725953 124.596631 
L 356.633437 126.096255 
L 360.540921 127.546514 
L 364.448404 128.938889 
L 368.355888 130.266772 
L 372.263372 131.525458 
L 376.170856 132.712039 
L 380.07834 133.825214 
L 383.985824 134.865055 
L 387.893308 135.832767 
L 391.800792 136.730437 
L 395.708276 137.560814 
L 399.61576 138.327109 
L 403.523244 139.032832 
L 407.430728 139.681647 
L 411.338212 140.277275 
L 415.245696 140.823403 
L 419.15318 141.323626 
L 423.060663 141.781407 
L 426.968147 142.200041 
L 430.875631 142.582644 
L 434.783115 142.932138 
L 438.690599 143.251255 
L 442.598083 143.542531 
L 446.505567 143.808316 
L 450.413051 144.050783 
L 454.320535 144.271932 
L 458.228019 144.473603 
L 462.135503 144.657485 
L 466.042987 144.825128 
L 469.950471 144.977952 
L 473.857955 145.117254 
" style="fill:none;stroke:#008000;stroke-linecap:square;stroke-width:2;"/>
   </g>
   <g id="patch_3">
    <path d="M 67.675 308.6 
L 67.675 26.8 
" style="fill:none;stroke:#000000;stroke-linecap:square;stroke-linejoin:miter;stroke-width:0.8;"/>
   </g>
   <g id="patch_4">
    <path d="M 493.2 308.6 
L 493.2 26.8 
" style="fill:none;stroke:#000000;stroke-linecap:square;stroke-linejoin:miter;stroke-width:0.8;"/>
   </g>
   <g id="patch_5">
    <path d="M 67.675 308.6 
L 493.2 308.6 
" style="fill:none;stroke:#000000;stroke-linecap:square;stroke-linejoin:miter;stroke-width:0.8;"/>
   </g>
   <g id="patch_6">
    <path d="M 67.675 26.8 
L 493.2 26.8 
" style="fill:none;stroke:#000000;stroke-linecap:square;stroke-linejoin:miter;stroke-width:0.8;"/>
   </g>
   <g id="text_13">
    <!-- Phase -->
    <g transform="translate(262.522812 20.8)scale(0.12 -0.12)">
     <defs>
      <path d="M 19.671875 64.796875 
L 19.671875 37.40625 
L 32.078125 37.40625 
Q 38.96875 37.40625 42.71875 40.96875 
Q 46.484375 44.53125 46.484375 51.125 
Q 46.484375 57.671875 42.71875 61.234375 
Q 38.96875 64.796875 32.078125 64.796875 
z
M 9.8125 72.90625 
L 32.078125 72.90625 
Q 44.34375 72.90625 50.609375 67.359375 
Q 56.890625 61.8125 56.890625 51.125 
Q 56.890625 40.328125 50.609375 34.8125 
Q 44.34375 29.296875 32.078125 29.296875 
L 19.671875 29.296875 
L 19.671875 0 
L 9.8125 0 
z
" id="DejaVuSans-80"/>
     </defs>
     <use xlink:href="#DejaVuSans-80"/>
     <use x="60.302734" xlink:href="#DejaVuSans-104"/>
     <use x="123.681641" xlink:href="#DejaVuSans-97"/>
     <use x="184.960938" xlink:href="#DejaVuSans-115"/>
     <use x="237.060547" xlink:href="#DejaVuSans-101"/>
    </g>
   </g>
   <g id="legend_1">
    <g id="patch_7">
     <path d="M 74.675 303.6 
L 153.3725 303.6 
Q 155.3725 303.6 155.3725 301.6 
L 155.3725 243.53125 
Q 155.3725 241.53125 153.3725 241.53125 
L 74.675 241.53125 
Q 72.675 241.53125 72.675 243.53125 
L 72.675 301.6 
Q 72.675 303.6 74.675 303.6 
z
" style="fill:#ffffff;opacity:0.8;stroke:#cccccc;stroke-linejoin:miter;"/>
    </g>
    <g id="line2d_96">
     <path d="M 74.675 249.149375 
L 84.675 249.149375 
" style="fill:none;stroke:#ff0000;stroke-linecap:square;stroke-width:2;"/>
    </g>
    <g id="line2d_97"/>
    <g id="text_14">
     <!-- asymptotic -->
     <g transform="translate(86.675 252.649375)scale(0.12 -0.12)">
      <defs>
       <path d="M 52 44.1875 
Q 55.375 50.25 60.0625 53.125 
Q 64.75 56 71.09375 56 
Q 79.640625 56 84.28125 50.015625 
Q 88.921875 44.046875 88.921875 33.015625 
L 88.921875 0 
L 79.890625 0 
L 79.890625 32.71875 
Q 79.890625 40.578125 77.09375 44.375 
Q 74.3125 48.1875 68.609375 48.1875 
Q 61.625 48.1875 57.5625 43.546875 
Q 53.515625 38.921875 53.515625 30.90625 
L 53.515625 0 
L 44.484375 0 
L 44.484375 32.71875 
Q 44.484375 40.625 41.703125 44.40625 
Q 38.921875 48.1875 33.109375 48.1875 
Q 26.21875 48.1875 22.15625 43.53125 
Q 18.109375 38.875 18.109375 30.90625 
L 18.109375 0 
L 9.078125 0 
L 9.078125 54.6875 
L 18.109375 54.6875 
L 18.109375 46.1875 
Q 21.1875 51.21875 25.484375 53.609375 
Q 29.78125 56 35.6875 56 
Q 41.65625 56 45.828125 52.96875 
Q 50 49.953125 52 44.1875 
z
" id="DejaVuSans-109"/>
       <path d="M 18.3125 70.21875 
L 18.3125 54.6875 
L 36.8125 54.6875 
L 36.8125 47.703125 
L 18.3125 47.703125 
L 18.3125 18.015625 
Q 18.3125 11.328125 20.140625 9.421875 
Q 21.96875 7.515625 27.59375 7.515625 
L 36.8125 7.515625 
L 36.8125 0 
L 27.59375 0 
Q 17.1875 0 13.234375 3.875 
Q 9.28125 7.765625 9.28125 18.015625 
L 9.28125 47.703125 
L 2.6875 47.703125 
L 2.6875 54.6875 
L 9.28125 54.6875 
L 9.28125 70.21875 
z
" id="DejaVuSans-116"/>
       <path d="M 30.609375 48.390625 
Q 23.390625 48.390625 19.1875 42.75 
Q 14.984375 37.109375 14.984375 27.296875 
Q 14.984375 17.484375 19.15625 11.84375 
Q 23.34375 6.203125 30.609375 6.203125 
Q 37.796875 6.203125 41.984375 11.859375 
Q 46.1875 17.53125 46.1875 27.296875 
Q 46.1875 37.015625 41.984375 42.703125 
Q 37.796875 48.390625 30.609375 48.390625 
z
M 30.609375 56 
Q 42.328125 56 49.015625 48.375 
Q 55.71875 40.765625 55.71875 27.296875 
Q 55.71875 13.875 49.015625 6.21875 
Q 42.328125 -1.421875 30.609375 -1.421875 
Q 18.84375 -1.421875 12.171875 6.21875 
Q 5.515625 13.875 5.515625 27.296875 
Q 5.515625 40.765625 12.171875 48.375 
Q 18.84375 56 30.609375 56 
z
" id="DejaVuSans-111"/>
       <path d="M 9.421875 54.6875 
L 18.40625 54.6875 
L 18.40625 0 
L 9.421875 0 
z
M 9.421875 75.984375 
L 18.40625 75.984375 
L 18.40625 64.59375 
L 9.421875 64.59375 
z
" id="DejaVuSans-105"/>
      </defs>
      <use xlink:href="#DejaVuSans-97"/>
      <use x="61.279297" xlink:href="#DejaVuSans-115"/>
      <use x="113.378906" xlink:href="#DejaVuSans-121"/>
      <use x="172.558594" xlink:href="#DejaVuSans-109"/>
      <use x="269.970703" xlink:href="#DejaVuSans-112"/>
      <use x="333.447266" xlink:href="#DejaVuSans-116"/>
      <use x="372.65625" xlink:href="#DejaVuSans-111"/>
      <use x="433.837891" xlink:href="#DejaVuSans-116"/>
      <use x="473.046875" xlink:href="#DejaVuSans-105"/>
      <use x="500.830078" xlink:href="#DejaVuSans-99"/>
     </g>
    </g>
    <g id="line2d_98">
     <path d="M 74.675 260.763125 
L 84.675 260.763125 
" style="fill:none;stroke:#0000ff;stroke-linecap:square;stroke-width:2;"/>
    </g>
    <g id="line2d_99"/>
    <g id="text_15">
     <!-- gain -->
     <g transform="translate(86.675 264.263125)scale(0.12 -0.12)">
      <use xlink:href="#DejaVuSans-103"/>
      <use x="63.476562" xlink:href="#DejaVuSans-97"/>
      <use x="124.755859" xlink:href="#DejaVuSans-105"/>
      <use x="152.539062" xlink:href="#DejaVuSans-110"/>
     </g>
    </g>
    <g id="line2d_100">
     <path d="M 74.675 272.376875 
L 84.675 272.376875 
" style="fill:none;stroke:#000000;stroke-linecap:square;stroke-width:2;"/>
    </g>
    <g id="line2d_101"/>
    <g id="text_16">
     <!-- loopgain -->
     <g transform="translate(86.675 275.876875)scale(0.12 -0.12)">
      <defs>
       <path d="M 9.421875 75.984375 
L 18.40625 75.984375 
L 18.40625 0 
L 9.421875 0 
z
" id="DejaVuSans-108"/>
      </defs>
      <use xlink:href="#DejaVuSans-108"/>
      <use x="27.783203" xlink:href="#DejaVuSans-111"/>
      <use x="88.964844" xlink:href="#DejaVuSans-111"/>
      <use x="150.146484" xlink:href="#DejaVuSans-112"/>
      <use x="213.623047" xlink:href="#DejaVuSans-103"/>
      <use x="277.099609" xlink:href="#DejaVuSans-97"/>
      <use x="338.378906" xlink:href="#DejaVuSans-105"/>
      <use x="366.162109" xlink:href="#DejaVuSans-110"/>
     </g>
    </g>
    <g id="line2d_102">
     <path d="M 74.675 283.990625 
L 84.675 283.990625 
" style="fill:none;stroke:#bf00bf;stroke-linecap:square;stroke-width:2;"/>
    </g>
    <g id="line2d_103"/>
    <g id="text_17">
     <!-- servo -->
     <g transform="translate(86.675 287.490625)scale(0.12 -0.12)">
      <defs>
       <path d="M 2.984375 54.6875 
L 12.5 54.6875 
L 29.59375 8.796875 
L 46.6875 54.6875 
L 56.203125 54.6875 
L 35.6875 0 
L 23.484375 0 
z
" id="DejaVuSans-118"/>
      </defs>
      <use xlink:href="#DejaVuSans-115"/>
      <use x="52.099609" xlink:href="#DejaVuSans-101"/>
      <use x="113.623047" xlink:href="#DejaVuSans-114"/>
      <use x="154.736328" xlink:href="#DejaVuSans-118"/>
      <use x="213.916016" xlink:href="#DejaVuSans-111"/>
     </g>
    </g>
    <g id="line2d_104">
     <path d="M 74.675 295.604375 
L 84.675 295.604375 
" style="fill:none;stroke:#008000;stroke-linecap:square;stroke-width:2;"/>
    </g>
    <g id="line2d_105"/>
    <g id="text_18">
     <!-- direct -->
     <g transform="translate(86.675 299.104375)scale(0.12 -0.12)">
      <use xlink:href="#DejaVuSans-100"/>
      <use x="63.476562" xlink:href="#DejaVuSans-105"/>
      <use x="91.259766" xlink:href="#DejaVuSans-114"/>
      <use x="130.123047" xlink:href="#DejaVuSans-101"/>
      <use x="191.646484" xlink:href="#DejaVuSans-99"/>
      <use x="246.626953" xlink:href="#DejaVuSans-116"/>
     </g>
    </g>
   </g>
  </g>
 </g>
 <defs>
  <clipPath id="p16f62ff7d3">
   <rect height="281.8" width="425.525" x="67.675" y="26.8"/>
  </clipPath>
 </defs>
</svg>
