<?xml version="1.0" encoding="UTF-8" standalone="no"?>
<svg
   xmlns:osb="http://www.openswatchbook.org/uri/2009/osb"
   xmlns:dc="http://purl.org/dc/elements/1.1/"
   xmlns:cc="http://creativecommons.org/ns#"
   xmlns:rdf="http://www.w3.org/1999/02/22-rdf-syntax-ns#"
   xmlns:svg="http://www.w3.org/2000/svg"
   xmlns="http://www.w3.org/2000/svg"
   xmlns:xlink="http://www.w3.org/1999/xlink"
   xmlns:sodipodi="http://sodipodi.sourceforge.net/DTD/sodipodi-0.dtd"
   xmlns:inkscape="http://www.inkscape.org/namespaces/inkscape"
   width="150mm"
   height="100mm"
   viewBox="0 0 150 100"
   version="1.1"
   id="svg14052"
   inkscape:version="1.0.2-2 (e86c870879, 2021-01-15)"
   sodipodi:docname="signalPath.svg">
  <defs
     id="defs14046">
    <linearGradient
       id="linearGradient16175"
       osb:paint="solid">
      <stop
         style="stop-color:#ff00ff;stop-opacity:1;"
         offset="0"
         id="stop16173" />
    </linearGradient>
    <linearGradient
       id="linearGradient16165"
       osb:paint="solid">
      <stop
         style="stop-color:#00ff00;stop-opacity:1;"
         offset="0"
         id="stop16163" />
    </linearGradient>
    <linearGradient
       inkscape:collect="always"
       xlink:href="#linearGradient16165"
       id="linearGradient16167"
       x1="47.829978"
       y1="81.58515"
       x2="68.237015"
       y2="81.58515"
       gradientUnits="userSpaceOnUse" />
  </defs>
  <sodipodi:namedview
     id="base"
     pagecolor="#ffffff"
     bordercolor="#666666"
     borderopacity="1.0"
     inkscape:pageopacity="0.0"
     inkscape:pageshadow="2"
     inkscape:zoom="1.4"
     inkscape:cx="328.34264"
     inkscape:cy="92.406237"
     inkscape:document-units="mm"
     inkscape:current-layer="layer1"
     inkscape:document-rotation="0"
     showgrid="false"
     height="1500mm"
     inkscape:window-width="1920"
     inkscape:window-height="1009"
     inkscape:window-x="-8"
     inkscape:window-y="-8"
     inkscape:window-maximized="1" />
  <metadata
     id="metadata14049">
    <rdf:RDF>
      <cc:Work
         rdf:about="">
        <dc:format>image/svg+xml</dc:format>
        <dc:type
           rdf:resource="http://purl.org/dc/dcmitype/StillImage" />
        <dc:title></dc:title>
      </cc:Work>
    </rdf:RDF>
  </metadata>
  <g
     inkscape:label="Laag 1"
     inkscape:groupmode="layer"
     id="layer1">
    <g
       id="g5208"
       transform="matrix(1.2931267,0,0,1.2931267,-453.91998,-785.64529)">
      <path
         d="m 425.625,624.391 v 3.75 h -3.75 v 1.875"
         style="fill:none;stroke:#000000;stroke-width:0.375;stroke-linecap:round;stroke-linejoin:miter;stroke-miterlimit:4;stroke-dasharray:none;stroke-opacity:1"
         id="path5210" />
    </g>
    <g
       id="g5212"
       transform="matrix(1.2931267,0,0,1.2931267,-453.91998,-785.64529)">
      <path
         d="m 425.625,639.391 v -3.75 h -3.75 v -1.875"
         style="fill:none;stroke:#000000;stroke-width:0.375;stroke-linecap:round;stroke-linejoin:miter;stroke-miterlimit:4;stroke-dasharray:none;stroke-opacity:1"
         id="path5214" />
    </g>
    <g
       id="g5216"
       transform="matrix(1.2931267,0,0,1.2931267,-453.91998,-785.64529)">
      <path
         d="m 421.875,631.141 v 1.5"
         style="fill:none;stroke:#000000;stroke-width:0.375;stroke-linecap:round;stroke-linejoin:miter;stroke-miterlimit:4;stroke-dasharray:none;stroke-opacity:1"
         id="path5218" />
    </g>
    <g
       id="g5220"
       transform="matrix(1.2931267,0,0,1.2931267,-453.91998,-785.64529)">
      <path
         d="m 421.875,631.891 h 3.75"
         style="fill:none;stroke:#000000;stroke-width:0.375;stroke-linecap:round;stroke-linejoin:miter;stroke-miterlimit:4;stroke-dasharray:none;stroke-opacity:1"
         id="path5222" />
    </g>
    <g
       id="g5224"
       transform="matrix(1.2931267,0,0,1.2931267,-453.91998,-785.64529)">
      <path
         d="m 423,631.891 h 1.875"
         style="fill:none;stroke:#000000;stroke-width:0.375;stroke-linecap:butt;stroke-linejoin:miter;stroke-miterlimit:4;stroke-dasharray:none;stroke-opacity:1"
         id="path5226" />
    </g>
    <path
       d="m 92.961383,30.291805 3.1772,1.172868 -3.1772,1.166399 c 0.5056,-0.686651 0.5056,-1.631924 0,-2.339267 z"
       style="fill:#000000;fill-opacity:1;fill-rule:evenodd;stroke:none;stroke-width:1.29313"
       id="path5228" />
    <g
       id="g5230"
       transform="matrix(1.2931267,0,0,-1.2931267,-453.91998,-785.64529)">
      <path
         d="m 420,-635.641 v 7.5"
         style="fill:none;stroke:#000000;stroke-width:0.75;stroke-linecap:butt;stroke-linejoin:miter;stroke-miterlimit:4;stroke-dasharray:none;stroke-opacity:1"
         id="path5232" />
    </g>
    <g
       id="g5234"
       transform="matrix(1.2931267,0,0,-1.2931267,-453.91998,-785.64529)">
      <path
         d="m 418.125,-628.141 h 2.063"
         style="fill:none;stroke:#000000;stroke-width:0.375;stroke-linecap:round;stroke-linejoin:miter;stroke-miterlimit:4;stroke-dasharray:none;stroke-opacity:1"
         id="path5236" />
    </g>
    <g
       id="g5238"
       transform="matrix(1.2931267,0,0,1.2931267,-453.91998,-785.64529)">
      <path
         d="m 425.625,639.391 v 3.75 h -3.75 v 1.875"
         style="fill:none;stroke:#000000;stroke-width:0.375;stroke-linecap:round;stroke-linejoin:miter;stroke-miterlimit:4;stroke-dasharray:none;stroke-opacity:1"
         id="path5240" />
    </g>
    <g
       id="g5242"
       transform="matrix(1.2931267,0,0,1.2931267,-453.91998,-785.64529)">
      <path
         d="m 425.625,654.391 v -3.75 h -3.75 v -1.875"
         style="fill:none;stroke:#000000;stroke-width:0.375;stroke-linecap:round;stroke-linejoin:miter;stroke-miterlimit:4;stroke-dasharray:none;stroke-opacity:1"
         id="path5244" />
    </g>
    <g
       id="g5246"
       transform="matrix(1.2931267,0,0,1.2931267,-453.91998,-785.64529)">
      <path
         d="m 421.875,646.141 v 1.5"
         style="fill:none;stroke:#000000;stroke-width:0.375;stroke-linecap:round;stroke-linejoin:miter;stroke-miterlimit:4;stroke-dasharray:none;stroke-opacity:1"
         id="path5248" />
    </g>
    <g
       id="g5250"
       transform="matrix(1.2931267,0,0,1.2931267,-453.91998,-785.64529)">
      <path
         d="m 420,643.141 v 7.5"
         style="fill:none;stroke:#000000;stroke-width:0.75;stroke-linecap:butt;stroke-linejoin:miter;stroke-miterlimit:4;stroke-dasharray:none;stroke-opacity:1"
         id="path5252" />
    </g>
    <g
       id="g5254"
       transform="matrix(1.2931267,0,0,1.2931267,-453.91998,-785.64529)">
      <path
         d="m 418.125,650.641 h 2.063"
         style="fill:none;stroke:#000000;stroke-width:0.375;stroke-linecap:round;stroke-linejoin:miter;stroke-miterlimit:4;stroke-dasharray:none;stroke-opacity:1"
         id="path5256" />
    </g>
    <g
       id="g5258"
       transform="matrix(1.2931267,0,0,1.2931267,-453.91998,-785.64529)">
      <path
         d="m 421.875,646.891 h 3.75"
         style="fill:none;stroke:#000000;stroke-width:0.375;stroke-linecap:round;stroke-linejoin:miter;stroke-miterlimit:4;stroke-dasharray:none;stroke-opacity:1"
         id="path5260" />
    </g>
    <g
       id="g5262"
       transform="matrix(1.2931267,0,0,1.2931267,-453.91998,-785.64529)">
      <path
         d="M 424.875,646.891 H 423"
         style="fill:none;stroke:#000000;stroke-width:0.375;stroke-linecap:butt;stroke-linejoin:miter;stroke-miterlimit:4;stroke-dasharray:none;stroke-opacity:1"
         id="path5264" />
    </g>
    <path
       d="m 95.608393,52.038318 -3.17719,-1.166398 3.17719,-1.172868 c -0.50559,0.691822 -0.50559,1.637099 0,2.339266 z"
       style="fill:#000000;fill-opacity:1;fill-rule:evenodd;stroke:none;stroke-width:1.29313"
       id="path5266" />
    <g
       id="g5268"
       transform="matrix(1.2931267,0,0,1.2931267,-453.91998,-785.64529)">
      <path
         d="m 393.75,635.641 v 3.75 H 390 v 1.875"
         style="fill:none;stroke:#000000;stroke-width:0.375;stroke-linecap:round;stroke-linejoin:miter;stroke-miterlimit:4;stroke-dasharray:none;stroke-opacity:1"
         id="path5270" />
    </g>
    <g
       id="g5272"
       transform="matrix(1.2931267,0,0,1.2931267,-453.91998,-785.64529)">
      <path
         d="m 393.75,650.641 v -3.75 H 390 v -1.875"
         style="fill:none;stroke:#000000;stroke-width:0.375;stroke-linecap:round;stroke-linejoin:miter;stroke-miterlimit:4;stroke-dasharray:none;stroke-opacity:1"
         id="path5274" />
    </g>
    <g
       id="g5276"
       transform="matrix(1.2931267,0,0,1.2931267,-453.91998,-785.64529)">
      <path
         d="m 390,642.391 v 1.5"
         style="fill:none;stroke:#000000;stroke-width:0.375;stroke-linecap:round;stroke-linejoin:miter;stroke-miterlimit:4;stroke-dasharray:none;stroke-opacity:1"
         id="path5278" />
    </g>
    <g
       id="g5280"
       transform="matrix(1.2931267,0,0,1.2931267,-453.91998,-785.64529)">
      <path
         d="m 388.125,639.391 v 7.5"
         style="fill:none;stroke:#000000;stroke-width:0.75;stroke-linecap:butt;stroke-linejoin:miter;stroke-miterlimit:4;stroke-dasharray:none;stroke-opacity:1"
         id="path5282" />
    </g>
    <g
       id="g5284"
       transform="matrix(1.2931267,0,0,1.2931267,-453.91998,-785.64529)">
      <path
         d="m 386.25,646.891 h 2.062"
         style="fill:none;stroke:#000000;stroke-width:0.375;stroke-linecap:round;stroke-linejoin:miter;stroke-miterlimit:4;stroke-dasharray:none;stroke-opacity:1"
         id="path5286" />
    </g>
    <g
       id="g5288"
       transform="matrix(1.2931267,0,0,1.2931267,-453.91998,-785.64529)">
      <path
         d="m 390,643.141 h 3.75"
         style="fill:none;stroke:#000000;stroke-width:0.375;stroke-linecap:round;stroke-linejoin:miter;stroke-miterlimit:4;stroke-dasharray:none;stroke-opacity:1"
         id="path5290" />
    </g>
    <g
       id="g5292"
       transform="matrix(1.2931267,0,0,1.2931267,-453.91998,-785.64529)">
      <path
         d="m 393,643.141 h -1.875"
         style="fill:none;stroke:#000000;stroke-width:0.375;stroke-linecap:butt;stroke-linejoin:miter;stroke-miterlimit:4;stroke-dasharray:none;stroke-opacity:1"
         id="path5294" />
    </g>
    <path
       d="m 54.389983,47.189091 -3.17719,-1.166398 3.17719,-1.172868 c -0.50559,0.691826 -0.50559,1.6371 0,2.339266 z"
       style="fill:#000000;fill-opacity:1;fill-rule:evenodd;stroke:none;stroke-width:1.29313"
       id="path5296" />
    <g
       id="g5298"
       transform="matrix(-1.2931267,0,0,1.2931267,-453.91998,-785.64529)">
      <path
         d="m -401.25,635.641 v 3.75 H -405 v 1.875"
         style="fill:none;stroke:#000000;stroke-width:0.375;stroke-linecap:round;stroke-linejoin:miter;stroke-miterlimit:4;stroke-dasharray:none;stroke-opacity:1"
         id="path5300" />
    </g>
    <g
       id="g5302"
       transform="matrix(-1.2931267,0,0,1.2931267,-453.91998,-785.64529)">
      <path
         d="m -401.25,650.641 v -3.75 H -405 v -1.875"
         style="fill:none;stroke:#000000;stroke-width:0.375;stroke-linecap:round;stroke-linejoin:miter;stroke-miterlimit:4;stroke-dasharray:none;stroke-opacity:1"
         id="path5304" />
    </g>
    <g
       id="g5306"
       transform="matrix(-1.2931267,0,0,1.2931267,-453.91998,-785.64529)">
      <path
         d="m -405,642.391 v 1.5"
         style="fill:none;stroke:#000000;stroke-width:0.375;stroke-linecap:round;stroke-linejoin:miter;stroke-miterlimit:4;stroke-dasharray:none;stroke-opacity:1"
         id="path5308" />
    </g>
    <g
       id="g5310"
       transform="matrix(-1.2931267,0,0,1.2931267,-453.91998,-785.64529)">
      <path
         d="m -406.875,639.391 v 7.5"
         style="fill:none;stroke:#000000;stroke-width:0.75;stroke-linecap:butt;stroke-linejoin:miter;stroke-miterlimit:4;stroke-dasharray:none;stroke-opacity:1"
         id="path5312" />
    </g>
    <g
       id="g5314"
       transform="matrix(-1.2931267,0,0,1.2931267,-453.91998,-785.64529)">
      <path
         d="m -408.75,646.891 h 2.062"
         style="fill:none;stroke:#000000;stroke-width:0.375;stroke-linecap:round;stroke-linejoin:miter;stroke-miterlimit:4;stroke-dasharray:none;stroke-opacity:1"
         id="path5316" />
    </g>
    <g
       id="g5318"
       transform="matrix(-1.2931267,0,0,1.2931267,-453.91998,-785.64529)">
      <path
         d="m -405,643.141 h 3.75"
         style="fill:none;stroke:#000000;stroke-width:0.375;stroke-linecap:round;stroke-linejoin:miter;stroke-miterlimit:4;stroke-dasharray:none;stroke-opacity:1"
         id="path5320" />
    </g>
    <g
       id="g5322"
       transform="matrix(-1.2931267,0,0,1.2931267,-453.91998,-785.64529)">
      <path
         d="m -402,643.141 h -1.875"
         style="fill:none;stroke:#000000;stroke-width:0.375;stroke-linecap:butt;stroke-linejoin:miter;stroke-miterlimit:4;stroke-dasharray:none;stroke-opacity:1"
         id="path5324" />
    </g>
    <path
       d="m 65.805703,47.189091 3.17723,-1.166398 -3.17723,-1.172868 c 0.50563,0.691826 0.50563,1.6371 0,2.339266 z"
       style="fill:#000000;fill-opacity:1;fill-rule:evenodd;stroke:none;stroke-width:1.29313"
       id="path5326" />
    <g
       id="g5328"
       transform="matrix(1.2931267,0,0,1.2931267,-453.91998,-785.64529)">
      <path
         d="m 418.125,650.641 h -1.875 v -22.5"
         style="fill:none;stroke:#000000;stroke-width:0.375;stroke-linecap:butt;stroke-linejoin:miter;stroke-miterlimit:4;stroke-dasharray:none;stroke-opacity:1"
         id="path5330" />
    </g>
    <g
       id="g5332"
       transform="matrix(1.2931267,0,0,1.2931267,-453.91998,-785.64529)">
      <path
         d="m 406.875,650.641 h 3.75"
         style="fill:none;stroke:#000000;stroke-width:0.75;stroke-linecap:butt;stroke-linejoin:miter;stroke-miterlimit:4;stroke-dasharray:none;stroke-opacity:1"
         id="path5334" />
    </g>
    <g
       id="g5336"
       transform="matrix(1.2931267,0,0,1.2931267,-453.91998,-785.64529)">
      <path
         d="m 408.75,646.891 v 3.75"
         style="fill:none;stroke:#000000;stroke-width:0.375;stroke-linecap:round;stroke-linejoin:miter;stroke-miterlimit:4;stroke-dasharray:none;stroke-opacity:1"
         id="path5338" />
    </g>
    <g
       id="g5340"
       transform="matrix(1.2931267,0,0,1.2931267,-453.91998,-785.64529)">
      <path
         d="m 423.75,658.141 h 3.75"
         style="fill:none;stroke:#000000;stroke-width:0.75;stroke-linecap:butt;stroke-linejoin:miter;stroke-miterlimit:4;stroke-dasharray:none;stroke-opacity:1"
         id="path5342" />
    </g>
    <g
       id="g5344"
       transform="matrix(1.2931267,0,0,1.2931267,-453.91998,-785.64529)">
      <path
         d="m 425.625,654.391 v 3.75"
         style="fill:none;stroke:#000000;stroke-width:0.375;stroke-linecap:round;stroke-linejoin:miter;stroke-miterlimit:4;stroke-dasharray:none;stroke-opacity:1"
         id="path5346" />
    </g>
    <g
       id="g5348"
       transform="matrix(-1.2931267,0,0,-1.2931267,-453.91998,-785.64529)">
      <path
         d="m -427.5,-620.641 h 3.75"
         style="fill:none;stroke:#000000;stroke-width:0.75;stroke-linecap:butt;stroke-linejoin:miter;stroke-miterlimit:4;stroke-dasharray:none;stroke-opacity:1"
         id="path5350" />
    </g>
    <g
       id="g5352"
       transform="matrix(-1.2931267,0,0,-1.2931267,-453.91998,-785.64529)">
      <path
         d="m -425.625,-624.391 v 3.75"
         style="fill:none;stroke:#000000;stroke-width:0.375;stroke-linecap:round;stroke-linejoin:miter;stroke-miterlimit:4;stroke-dasharray:none;stroke-opacity:1"
         id="path5354" />
    </g>
    <g
       id="g5356"
       transform="matrix(1.2931267,0,0,1.2931267,-453.91998,-785.64529)">
      <path
         d="m 425.625,639.391 h 5.625 v 22.5 h -31.875"
         style="fill:none;stroke:#000000;stroke-width:0.375;stroke-linecap:butt;stroke-linejoin:miter;stroke-miterlimit:4;stroke-dasharray:none;stroke-opacity:1"
         id="path5358" />
    </g>
    <g
       id="g5360"
       transform="matrix(0,-1.2931267,1.2931267,0,-453.91998,-785.64529)">
      <path
         d="m -661.891,392.625 v 6.75"
         style="fill:none;stroke:#000000;stroke-width:0.375;stroke-linecap:round;stroke-linejoin:miter;stroke-miterlimit:4;stroke-dasharray:none;stroke-opacity:1"
         id="path5362" />
    </g>
    <g
       id="g5364"
       transform="matrix(0,-1.2931267,1.2931267,0,-453.91998,-785.64529)">
      <path
         d="m -661.891,384.375 v 6.75"
         style="fill:none;stroke:#000000;stroke-width:0.375;stroke-linecap:round;stroke-linejoin:miter;stroke-miterlimit:4;stroke-dasharray:none;stroke-opacity:1"
         id="path5366" />
    </g>
    <g
       id="g5368"
       transform="matrix(0,-1.2931267,1.2931267,0,-453.91998,-785.64529)">
      <path
         d="m -659.266,391.125 h -5.25"
         style="fill:none;stroke:#000000;stroke-width:0.75;stroke-linecap:butt;stroke-linejoin:miter;stroke-miterlimit:4;stroke-dasharray:none;stroke-opacity:1"
         id="path5370" />
    </g>
    <g
       id="g5372"
       transform="matrix(0,-1.2931267,1.2931267,0,-453.91998,-785.64529)">
      <path
         d="m -659.266,392.625 h -5.25"
         style="fill:none;stroke:#000000;stroke-width:0.75;stroke-linecap:butt;stroke-linejoin:miter;stroke-miterlimit:4;stroke-dasharray:none;stroke-opacity:1"
         id="path5374" />
    </g>
    <g
       id="g5376"
       transform="matrix(0,-1.2931267,1.2931267,0,-453.91998,-785.64529)">
      <path
         d="m -661.891,377.625 v 6.75"
         style="fill:none;stroke:#000000;stroke-width:0.375;stroke-linecap:round;stroke-linejoin:miter;stroke-miterlimit:4;stroke-dasharray:none;stroke-opacity:1"
         id="path5378" />
    </g>
    <g
       id="g5380"
       transform="matrix(0,-1.2931267,1.2931267,0,-453.91998,-785.64529)">
      <path
         d="m -661.891,369.375 v 6.75"
         style="fill:none;stroke:#000000;stroke-width:0.375;stroke-linecap:round;stroke-linejoin:miter;stroke-miterlimit:4;stroke-dasharray:none;stroke-opacity:1"
         id="path5382" />
    </g>
    <g
       id="g5384"
       transform="matrix(0,-1.2931267,1.2931267,0,-453.91998,-785.64529)">
      <path
         d="m -659.266,376.125 h -5.25"
         style="fill:none;stroke:#000000;stroke-width:0.75;stroke-linecap:butt;stroke-linejoin:miter;stroke-miterlimit:4;stroke-dasharray:none;stroke-opacity:1"
         id="path5386" />
    </g>
    <g
       id="g5388"
       transform="matrix(0,-1.2931267,1.2931267,0,-453.91998,-785.64529)">
      <path
         d="m -659.266,377.625 h -5.25"
         style="fill:none;stroke:#000000;stroke-width:0.75;stroke-linecap:butt;stroke-linejoin:miter;stroke-miterlimit:4;stroke-dasharray:none;stroke-opacity:1"
         id="path5390" />
    </g>
    <g
       id="g5392"
       transform="matrix(1.2931267,0,0,1.2931267,-453.91998,-785.64529)">
      <path
         d="m 401.25,650.641 h -7.5"
         style="fill:none;stroke:#000000;stroke-width:0.375;stroke-linecap:butt;stroke-linejoin:miter;stroke-miterlimit:4;stroke-dasharray:none;stroke-opacity:1"
         id="path5394" />
    </g>
    <g
       id="g5396"
       transform="matrix(1.2931267,0,0,1.2931267,-453.91998,-785.64529)">
      <path
         d="m 386.25,646.891 h -1.875 v 15"
         style="fill:none;stroke:#000000;stroke-width:0.375;stroke-linecap:butt;stroke-linejoin:miter;stroke-miterlimit:4;stroke-dasharray:none;stroke-opacity:1"
         id="path5398" />
    </g>
    <g
       id="g5400"
       transform="matrix(1.2931267,0,0,1.2931267,-453.91998,-785.64529)">
      <path
         d="m 401.25,635.641 v -7.5 h 16.875"
         style="fill:none;stroke:#000000;stroke-width:0.375;stroke-linecap:butt;stroke-linejoin:miter;stroke-miterlimit:4;stroke-dasharray:none;stroke-opacity:1"
         id="path5402" />
    </g>
    <g
       id="g5404"
       transform="matrix(-1.2931267,0,0,-1.2931267,-453.91998,-785.64529)">
      <path
         d="m -395.625,-631.891 h 3.75"
         style="fill:none;stroke:#000000;stroke-width:0.75;stroke-linecap:butt;stroke-linejoin:miter;stroke-miterlimit:4;stroke-dasharray:none;stroke-opacity:1"
         id="path5406" />
    </g>
    <g
       id="g5408"
       transform="matrix(-1.2931267,0,0,-1.2931267,-453.91998,-785.64529)">
      <path
         d="m -393.75,-635.641 v 3.75"
         style="fill:none;stroke:#000000;stroke-width:0.375;stroke-linecap:round;stroke-linejoin:miter;stroke-miterlimit:4;stroke-dasharray:none;stroke-opacity:1"
         id="path5410" />
    </g>
    <g
       id="g5412"
       transform="matrix(0,-1.2931267,1.2931267,0,-453.91998,-785.64529)">
      <path
         d="m -641.266,435 h 3.75 v 7.5 h -3.75 z"
         style="fill:none;stroke:#000000;stroke-width:0.375;stroke-linecap:round;stroke-linejoin:round;stroke-miterlimit:4;stroke-dasharray:none;stroke-opacity:1"
         id="path5414" />
    </g>
    <g
       id="g5416"
       transform="matrix(0,-1.2931267,1.2931267,0,-453.91998,-785.64529)">
      <path
         d="M -639.391,431.25 V 435"
         style="fill:none;stroke:#000000;stroke-width:0.374705;stroke-linecap:round;stroke-linejoin:miter;stroke-miterlimit:4;stroke-dasharray:none;stroke-opacity:1"
         id="path5418" />
    </g>
    <g
       id="g5420"
       transform="matrix(0,-1.2931267,1.2931267,0,-453.91998,-785.64529)">
      <path
         d="m -639.391,442.5 v 3.75"
         style="fill:none;stroke:#000000;stroke-width:0.374705;stroke-linecap:round;stroke-linejoin:miter;stroke-miterlimit:4;stroke-dasharray:none;stroke-opacity:1"
         id="path5422" />
    </g>
    <g
       id="g5424"
       transform="matrix(1.2931267,0,0,1.2931267,-453.91998,-785.64529)">
      <path
         d="m 444.375,643.141 h 3.75 v 7.5 h -3.75 z"
         style="fill:none;stroke:#000000;stroke-width:0.375;stroke-linecap:round;stroke-linejoin:round;stroke-miterlimit:4;stroke-dasharray:none;stroke-opacity:1"
         id="path5426" />
    </g>
    <g
       id="g5428"
       transform="matrix(1.2931267,0,0,1.2931267,-453.91998,-785.64529)">
      <path
         d="m 446.25,639.391 v 3.75"
         style="fill:none;stroke:#000000;stroke-width:0.374705;stroke-linecap:round;stroke-linejoin:miter;stroke-miterlimit:4;stroke-dasharray:none;stroke-opacity:1"
         id="path5430" />
    </g>
    <g
       id="g5432"
       transform="matrix(1.2931267,0,0,1.2931267,-453.91998,-785.64529)">
      <path
         d="m 446.25,650.641 v 3.75"
         style="fill:none;stroke:#000000;stroke-width:0.374705;stroke-linecap:round;stroke-linejoin:miter;stroke-miterlimit:4;stroke-dasharray:none;stroke-opacity:1"
         id="path5434" />
    </g>
    <g
       id="g5436"
       transform="matrix(1.2931267,0,0,1.2931267,-453.91998,-785.64529)">
      <path
         d="m 444.375,658.141 h 3.75"
         style="fill:none;stroke:#000000;stroke-width:0.75;stroke-linecap:butt;stroke-linejoin:miter;stroke-miterlimit:4;stroke-dasharray:none;stroke-opacity:1"
         id="path5438" />
    </g>
    <g
       id="g5440"
       transform="matrix(1.2931267,0,0,1.2931267,-453.91998,-785.64529)">
      <path
         d="m 446.25,654.391 v 3.75"
         style="fill:none;stroke:#000000;stroke-width:0.375;stroke-linecap:round;stroke-linejoin:miter;stroke-miterlimit:4;stroke-dasharray:none;stroke-opacity:1"
         id="path5442" />
    </g>
    <g
       id="g5444"
       transform="matrix(1.2931267,0,0,1.2931267,-453.91998,-785.64529)">
      <path
         d="m 373.125,669.391 c 0,2.07 -1.68,3.75 -3.75,3.75 -2.07,0 -3.75,-1.68 -3.75,-3.75 0,-2.071 1.68,-3.75 3.75,-3.75 2.07,0 3.75,1.679 3.75,3.75 z"
         style="fill:none;stroke:#000000;stroke-width:0.375;stroke-linecap:butt;stroke-linejoin:round;stroke-miterlimit:4;stroke-dasharray:none;stroke-opacity:1"
         id="path5446" />
    </g>
    <g
       id="g5448"
       transform="matrix(1.2931267,0,0,1.2931267,-453.91998,-785.64529)">
      <path
         d="m 369.375,673.141 v 3.75"
         style="fill:none;stroke:#000000;stroke-width:0.375;stroke-linecap:round;stroke-linejoin:miter;stroke-miterlimit:4;stroke-dasharray:none;stroke-opacity:1"
         id="path5450" />
    </g>
    <g
       id="g5452"
       transform="matrix(1.2931267,0,0,1.2931267,-453.91998,-785.64529)">
      <path
         d="m 369.375,661.891 v 3.75"
         style="fill:none;stroke:#000000;stroke-width:0.375;stroke-linecap:round;stroke-linejoin:miter;stroke-miterlimit:4;stroke-dasharray:none;stroke-opacity:1"
         id="path5454" />
    </g>
    <g
       id="g5456"
       transform="matrix(1.2931267,0,0,1.2931267,-453.91998,-785.64529)">
      <path
         d="m 369.375,673.324 v -7.5"
         style="fill:none;stroke:#000000;stroke-width:0.375;stroke-linecap:round;stroke-linejoin:miter;stroke-miterlimit:4;stroke-dasharray:none;stroke-opacity:1"
         id="path5458" />
    </g>
    <text
       transform="scale(0.99120719,1.0088708)"
       style="font-variant:normal;font-weight:normal;font-size:4.5215px;font-family:'Bitstream Vera Sans';-inkscape-font-specification:BitstreamVeraSans-Roman;writing-mode:lr-tb;fill:#000000;fill-opacity:1;fill-rule:nonzero;stroke:none;stroke-width:1.28176"
       id="text5462"
       x="19.046892"
       y="74.450874"><tspan
         x="19.046892"
         y="74.450874"
         id="tspan5460"
         style="stroke-width:1.28176">+</tspan></text>
    <text
       transform="scale(1.4316841,0.69847811)"
       style="font-variant:normal;font-weight:normal;font-size:7.44269px;font-family:'Bitstream Vera Sans';-inkscape-font-specification:BitstreamVeraSans-Roman;writing-mode:lr-tb;fill:#000000;fill-opacity:1;fill-rule:nonzero;stroke:none;stroke-width:0.903222"
       id="text5466"
       x="13.186842"
       y="124.89201"><tspan
         x="13.186842"
         y="124.89201"
         id="tspan5464"
         style="stroke-width:0.903222">-</tspan></text>
    <g
       id="g5468"
       transform="matrix(1.2931267,0,0,1.2931267,-453.91998,-785.64529)">
      <path
         d="m 367.5,680.641 h 3.75"
         style="fill:none;stroke:#000000;stroke-width:0.75;stroke-linecap:butt;stroke-linejoin:miter;stroke-miterlimit:4;stroke-dasharray:none;stroke-opacity:1"
         id="path5470" />
    </g>
    <g
       id="g5472"
       transform="matrix(1.2931267,0,0,1.2931267,-453.91998,-785.64529)">
      <path
         d="m 369.375,676.891 v 3.75"
         style="fill:none;stroke:#000000;stroke-width:0.375;stroke-linecap:round;stroke-linejoin:miter;stroke-miterlimit:4;stroke-dasharray:none;stroke-opacity:1"
         id="path5474" />
    </g>
    <path
       d="m 35.396543,62.226863 c 0,-0.01026 -0.007,-0.04527 -0.0506,-0.04527 -0.0147,0 -0.0256,0.0051 -0.0751,0.05561 l -0.31304,0.347861 c -0.0414,-0.06077 -0.25329,-0.403457 -0.75778,-0.403457 -1.02544,0 -2.05088,1.004759 -2.05088,2.065123 0,0.752601 0.54053,1.253041 1.2427,1.253041 0.39309,0 0.74224,-0.177156 0.98406,-0.394406 0.42542,-0.368539 0.50045,-0.787512 0.50045,-0.803032 0,-0.04527 -0.0451,-0.04527 -0.0557,-0.04527 -0.0293,0 -0.0506,0.01026 -0.0557,0.04527 -0.0451,0.131887 -0.15139,0.460354 -0.46424,0.728031 -0.31817,0.246985 -0.6013,0.32847 -0.83923,0.32847 -0.40864,0 -0.89355,-0.237931 -0.89355,-0.945277 0,-0.267695 0.0905,-1.004758 0.55086,-1.540113 0.27821,-0.323265 0.70734,-0.55087 1.11597,-0.55087 0.46425,0 0.73707,0.349144 0.73707,0.879326 0,0.18621 -0.0147,0.18621 -0.0147,0.236649 0,0.04527 0.0506,0.04527 0.0645,0.04527 0.0557,0 0.0557,-0.0092 0.0865,-0.09571 z"
       style="fill:#000000;fill-opacity:1;fill-rule:nonzero;stroke:none;stroke-width:1.29313"
       id="path5476" />
    <path
       d="m 35.841393,65.696323 c -0.11107,0.182325 -0.21223,0.258605 -0.3983,0.272864 -0.0367,0 -0.0814,0 -0.0814,0.06594 0,0.03482 0.0293,0.05044 0.0506,0.05044 0.0814,0 0.18768,-0.01539 0.27272,-0.01539 0.1008,0 0.23789,0.01539 0.32843,0.01539 0.0147,0 0.066,0 0.066,-0.07111 0,-0.04527 -0.0399,-0.04527 -0.0557,-0.04527 -0.022,-0.0051 -0.1371,-0.0051 -0.1371,-0.0905 0,-0.04527 0.0293,-0.09571 0.0414,-0.12155 l 0.25733,-0.403453 h 0.91939 l 0.0696,0.530183 c -0.004,0.03482 -0.0293,0.08533 -0.21224,0.08533 -0.0451,0 -0.0854,0 -0.0854,0.07111 0,0.0154 0.004,0.04527 0.0451,0.04527 0.0957,0 0.3233,-0.01539 0.41897,-0.01539 0.0557,0 0.12683,0.0051 0.18731,0.0051 0.0557,0 0.1217,0.01026 0.17705,0.01026 0.0399,0 0.0645,-0.02969 0.0645,-0.06594 0,-0.05044 -0.0367,-0.05044 -0.0854,-0.05044 -0.18768,0 -0.19648,-0.02456 -0.20161,-0.100876 l -0.28848,-1.974602 c -0.004,-0.06594 -0.0147,-0.08665 -0.0711,-0.08665 -0.0645,0 -0.0751,0.03116 -0.10594,0.07111 z m 0.42414,-0.453888 0.66724,-1.046138 0.15139,1.046138 z"
       style="fill:#000000;fill-opacity:1;fill-rule:nonzero;stroke:none;stroke-width:1.29313"
       id="path5478" />
    <path
       d="m 58.738763,62.722131 c 0,-0.08665 0,-0.08665 -0.0905,-0.08665 -0.20673,0.201716 -0.49525,0.201716 -0.62585,0.201716 v 0.116381 c 0.0751,0 0.28701,0 0.45904,-0.08533 v 1.62158 c 0,0.111213 0,0.151277 -0.31304,0.151277 h -0.1217 v 0.116382 c 0.0557,0 0.44998,-0.0154 0.56637,-0.0154 0.0957,0 0.49917,0.0154 0.57028,0.0154 v -0.116382 h -0.12169 c -0.32331,0 -0.32331,-0.0401 -0.32331,-0.151277 z"
       style="fill:#000000;fill-opacity:1;fill-rule:nonzero;stroke:none;stroke-width:1.29313"
       id="path5480" />
    <g
       id="g5482"
       transform="matrix(1.2931267,0,0,-1.2931267,-453.91998,-785.64529)">
      <path
         d="m 395.625,-658.141 h 1.406"
         style="fill:none;stroke:#000000;stroke-width:0.141024;stroke-linecap:butt;stroke-linejoin:miter;stroke-miterlimit:10;stroke-dasharray:none;stroke-opacity:1"
         id="path5484" />
    </g>
    <path
       d="m 59.284493,67.550665 h -0.10593 c -0.011,0.07111 -0.0451,0.257322 -0.0854,0.283201 -0.0257,0.02456 -0.26759,0.02456 -0.31817,0.02456 h -0.58708 c 0.3387,-0.297423 0.45002,-0.38923 0.63752,-0.540526 0.23679,-0.18621 0.45907,-0.384059 0.45907,-0.68665 0,-0.384059 -0.3387,-0.6207 -0.74744,-0.6207 -0.39442,0 -0.66207,0.276713 -0.66207,0.570269 0,0.156482 0.13709,0.182325 0.17191,0.182325 0.0711,0 0.16165,-0.06077 0.16165,-0.171988 0,-0.06077 -0.022,-0.171988 -0.18621,-0.171988 0.1008,-0.222426 0.31817,-0.293538 0.46421,-0.293538 0.3233,0 0.49012,0.248268 0.49012,0.505612 0,0.278033 -0.20161,0.495268 -0.30388,0.61165 l -0.76163,0.762945 c -0.0367,0.02969 -0.0367,0.03482 -0.0367,0.120267 h 1.31381 z"
       style="fill:#000000;fill-opacity:1;fill-rule:nonzero;stroke:none;stroke-width:1.29313"
       id="path5486" />
    <path
       d="m 63.513003,63.382917 c 0,-0.0143 -0.011,-0.05044 -0.0506,-0.05044 -0.0147,0 -0.022,0.0051 -0.0711,0.05561 l -0.31817,0.354312 c -0.04,-0.06594 -0.24816,-0.409923 -0.75778,-0.409923 -1.02027,0 -2.04575,1.009934 -2.04575,2.071589 0,0.747429 0.53535,1.253041 1.23753,1.253041 0.39441,0 0.74227,-0.182324 0.98926,-0.394402 0.42025,-0.373715 0.50042,-0.787516 0.50042,-0.803032 0,-0.05044 -0.0506,-0.05044 -0.0557,-0.05044 -0.0293,0 -0.0506,0.0143 -0.0608,0.05044 -0.04,0.125435 -0.15139,0.459059 -0.46425,0.721565 -0.31304,0.253436 -0.60129,0.32847 -0.83794,0.32847 -0.40992,0 -0.89484,-0.23148 -0.89484,-0.943983 0,-0.262491 0.0905,-1.00088 0.5509,-1.541407 0.27785,-0.318097 0.71251,-0.549577 1.11594,-0.549577 0.46553,0 0.73711,0.35303 0.73711,0.883205 0,0.187493 -0.0147,0.187493 -0.0147,0.232763 0,0.04527 0.0506,0.04527 0.066,0.04527 0.0594,0 0.0594,-0.0051 0.0854,-0.0905 z"
       style="fill:#000000;fill-opacity:1;fill-rule:nonzero;stroke:none;stroke-width:1.29313"
       id="path5488" />
    <path
       d="m 63.961703,66.853671 c -0.11656,0.177156 -0.21736,0.257322 -0.40343,0.272864 -0.0367,0 -0.0762,0 -0.0762,0.06077 0,0.03482 0.0293,0.05044 0.0506,0.05044 0.0762,0 0.18731,-0.0154 0.27272,-0.0154 0.0957,0 0.23276,0.0154 0.32844,0.0154 0.0147,0 0.066,0 0.066,-0.07111 0,-0.0401 -0.0451,-0.0401 -0.0608,-0.0401 -0.022,-0.01026 -0.13563,-0.01026 -0.13563,-0.09571 0,-0.04138 0.0293,-0.09182 0.0451,-0.12155 l 0.25732,-0.399575 h 0.91426 l 0.0711,0.530183 c -0.004,0.03629 -0.0257,0.08665 -0.21224,0.08665 -0.0466,0 -0.0865,0 -0.0865,0.07111 0,0.0143 0.004,0.0401 0.0506,0.0401 0.0916,0 0.3233,-0.0154 0.41508,-0.0154 0.0557,0 0.1305,0.01026 0.18621,0.01026 0.0557,0 0.1217,0.0051 0.17705,0.0051 0.0451,0 0.066,-0.02603 0.066,-0.06077 0,-0.05044 -0.0366,-0.05044 -0.0865,-0.05044 -0.18621,0 -0.19134,-0.03116 -0.2016,-0.100876 l -0.28335,-1.975896 c -0.011,-0.06466 -0.0147,-0.08533 -0.0711,-0.08533 -0.0645,0 -0.0803,0.02456 -0.10997,0.07111 z m 0.41898,-0.460354 0.66728,-1.044844 0.15138,1.044844 z"
       style="fill:#000000;fill-opacity:1;fill-rule:nonzero;stroke:none;stroke-width:1.29313"
       id="path5490" />
    <path
       d="m 112.69191,33.576349 c 0.0293,-0.106045 0.0451,-0.152597 0.13049,-0.16682 0.0414,-0.0051 0.18218,-0.0051 0.27822,-0.0051 0.3233,0 0.82889,0 0.82889,0.448715 0,0.156483 -0.0711,0.475873 -0.24706,0.651736 -0.12169,0.116381 -0.35959,0.267695 -0.77328,0.267695 h -0.5108 z m 0.6569,1.251747 c 0.46942,-0.100876 1.00477,-0.424145 1.00477,-0.878033 0,-0.394406 -0.40864,-0.687944 -1.00993,-0.687944 h -1.29831 c -0.0905,0 -0.13196,0 -0.13196,0.09182 0,0.05044 0.0414,0.05044 0.12683,0.05044 0.004,0 0.0905,0 0.17192,0.0051 0.0854,0.0143 0.12169,0.0143 0.12169,0.08017 0,0.0154 0,0.03116 -0.0147,0.08665 l -0.61684,2.449181 c -0.0399,0.177156 -0.0502,0.212089 -0.4138,0.212089 -0.0763,0 -0.1217,0 -0.1217,0.09571 0,0.04655 0.0557,0.04655 0.066,0.04655 0.12683,0 0.44998,-0.01026 0.57025,-0.01026 0.13196,0 0.46036,0.01026 0.58708,0.01026 0.04,0 0.0854,0 0.0854,-0.09182 0,-0.05044 -0.0366,-0.05044 -0.12683,-0.05044 -0.16678,0 -0.29214,0 -0.29214,-0.075 0,-0.03116 0.004,-0.05172 0.0147,-0.08149 l 0.29874,-1.211657 h 0.5457 c 0.4138,0 0.49525,0.257322 0.49525,0.418973 0,0.06078 -0.0367,0.206884 -0.066,0.312928 -0.0293,0.126719 -0.0711,0.292255 -0.0711,0.389231 0,0.490096 0.55086,0.490096 0.60646,0.490096 0.38925,0 0.55086,-0.455182 0.55086,-0.521132 0,-0.05561 -0.0502,-0.05561 -0.0557,-0.05561 -0.0414,0 -0.0506,0.02603 -0.0557,0.06077 -0.1162,0.338808 -0.31817,0.415095 -0.41512,0.415095 -0.15139,0 -0.18621,-0.09699 -0.18621,-0.278032 0,-0.142261 0.0257,-0.373715 0.0506,-0.521132 0.004,-0.06466 0.011,-0.151315 0.011,-0.217258 0,-0.347861 -0.30901,-0.493974 -0.42931,-0.535354 z"
       style="fill:#000000;fill-opacity:1;fill-rule:nonzero;stroke:none;stroke-width:1.29313"
       id="path5492" />
    <path
       d="m 116.14197,36.213035 c 0,-0.349145 -0.26246,-0.556047 -0.57542,-0.556047 -0.4759,0 -0.91943,0.444837 -0.91943,0.879327 0,0.323265 0.23166,0.559924 0.58062,0.559924 0.45904,0 0.91423,-0.418973 0.91423,-0.883204 z m -0.91423,0.797859 c -0.15652,0 -0.31304,-0.100876 -0.31304,-0.359481 0,-0.130604 0.0557,-0.443539 0.18108,-0.625872 0.13709,-0.196547 0.3233,-0.278032 0.4707,-0.278032 0.17081,0 0.31303,0.116381 0.31303,0.354313 0,0.075 -0.0367,0.393109 -0.17704,0.615527 -0.12683,0.192662 -0.30791,0.293538 -0.47458,0.293538 z"
       style="fill:#000000;fill-opacity:1;fill-rule:nonzero;stroke:none;stroke-width:1.29313"
       id="path5494" />
    <path
       d="m 115.87431,49.810261 c 0.0293,-0.106045 0.0451,-0.146109 0.13049,-0.161651 0.0414,-0.01026 0.18731,-0.01026 0.27785,-0.01026 0.3233,0 0.83406,0 0.83406,0.455178 0,0.156483 -0.0762,0.469408 -0.25329,0.651736 -0.12023,0.111213 -0.35812,0.26249 -0.772,0.26249 h -0.51076 z m 0.66207,1.253041 c 0.46424,-0.09571 0.9996,-0.418973 0.9996,-0.879327 0,-0.393112 -0.40864,-0.68665 -1.00993,-0.68665 h -1.29314 c -0.0971,0 -0.13709,0 -0.13709,0.0905 0,0.05044 0.04,0.05044 0.12683,0.05044 0.011,0 0.0957,0 0.17191,0.01026 0.0854,0.0154 0.12023,0.0154 0.12023,0.07628 0,0.0154 0,0.02969 -0.007,0.08533 l -0.61684,2.450475 c -0.0451,0.181042 -0.0506,0.217258 -0.4138,0.217258 -0.0814,0 -0.12683,0 -0.12683,0.0905 0,0.05044 0.0609,0.05044 0.066,0.05044 0.13049,0 0.45002,-0.01539 0.57545,-0.01539 0.12683,0 0.45519,0.01539 0.5858,0.01539 0.0366,0 0.0865,0 0.0865,-0.0905 0,-0.05044 -0.0366,-0.05044 -0.13196,-0.05044 -0.16165,0 -0.29214,0 -0.29214,-0.08149 0,-0.02969 0.007,-0.05044 0.0147,-0.08017 l 0.30388,-1.207779 h 0.54055 c 0.41377,0 0.49526,0.257322 0.49526,0.413801 0,0.06594 -0.0367,0.208204 -0.066,0.319417 -0.0257,0.125435 -0.0711,0.292254 -0.0711,0.382764 0,0.495268 0.55089,0.495268 0.61167,0.495268 0.38404,0 0.54957,-0.459059 0.54957,-0.52501 0,-0.05561 -0.0506,-0.05561 -0.0594,-0.05561 -0.0414,0 -0.0506,0.02969 -0.0557,0.06594 -0.1162,0.333639 -0.31414,0.413801 -0.41509,0.413801 -0.15139,0 -0.18621,-0.100876 -0.18621,-0.278033 0,-0.146109 0.0293,-0.373714 0.0506,-0.52501 0.004,-0.06077 0.0147,-0.151314 0.0147,-0.212089 0,-0.35303 -0.30901,-0.495268 -0.42931,-0.540527 z"
       style="fill:#000000;fill-opacity:1;fill-rule:nonzero;stroke:none;stroke-width:1.29313"
       id="path5496" />
    <path
       d="m 118.01056,52.867214 c 0.0367,0.206884 0.13709,0.474576 0.40992,0.474576 0.1008,0 0.21223,-0.03629 0.33246,-0.116382 0.0506,-0.03116 0.21737,-0.151277 0.21737,-0.187493 0,-0.01943 -0.0183,-0.05561 -0.0506,-0.05561 -0.0147,0 -0.0183,0 -0.0696,0.04138 -0.13709,0.120267 -0.28335,0.23148 -0.42546,0.23148 -0.22103,0 -0.22103,-0.373715 -0.22103,-0.439662 0,-0.0401 0,-0.0401 0.007,-0.106044 0.004,-0.02969 0.004,-0.03482 0.0414,-0.06983 0.17081,-0.16682 0.78234,-0.752601 0.78234,-1.303472 0,-0.05044 0,-0.283201 -0.21737,-0.283201 -0.26245,0 -0.47975,0.418973 -0.53018,0.510788 -0.13563,0.272864 -0.21224,0.530182 -0.24303,0.696995 -0.0506,0.212089 -0.0506,0.318096 -0.0506,0.479748 -0.0183,0.01943 -0.20673,0.181041 -0.23679,0.206883 -0.0502,0.05044 -0.0557,0.05044 -0.0557,0.07111 0,0.01943 0.0293,0.05561 0.0557,0.05561 0.0257,0 0.11107,-0.07628 0.13049,-0.100876 z m 0.22763,-0.36465 c 0.0608,-0.323265 0.30791,-1.353902 0.58062,-1.353902 0.0711,0 0.1162,0.05044 0.1162,0.166819 0,0.03629 0,0.318097 -0.28335,0.712515 -0.16165,0.232763 -0.33356,0.404747 -0.4138,0.474576 z"
       style="fill:#000000;fill-opacity:1;fill-rule:nonzero;stroke:none;stroke-width:1.29313"
       id="path5498" />
    <path
       d="m 130.72458,49.957679 c 0.2225,-0.354313 0.41508,-0.369837 0.58058,-0.378887 0.0557,-0.0051 0.066,-0.07628 0.066,-0.08665 0,-0.03482 -0.0293,-0.05561 -0.066,-0.05561 -0.11509,0 -0.25219,0.01539 -0.3737,0.01539 -0.14625,0 -0.30791,-0.01539 -0.4487,-0.01539 -0.0293,0 -0.0865,0 -0.0865,0.08665 0,0.05044 0.0367,0.05561 0.0711,0.05561 0.1217,0.0092 0.20674,0.05949 0.20674,0.151278 0,0.06983 -0.0609,0.171987 -0.0609,0.171987 l -1.40434,2.231939 -0.31817,-2.419443 c 0,-0.07628 0.11106,-0.135772 0.31817,-0.135772 0.066,0 0.11106,0 0.11106,-0.09182 0,-0.03482 -0.0366,-0.05044 -0.0557,-0.05044 -0.18621,0 -0.37888,0.0154 -0.57025,0.0154 -0.0814,0 -0.16679,0 -0.25219,0 -0.0763,0 -0.16166,-0.0154 -0.24303,-0.0154 -0.0367,0 -0.0854,0 -0.0854,0.08665 0,0.05561 0.0367,0.05561 0.1162,0.05561 0.24706,0 0.25732,0.04527 0.26759,0.156483 l 0.35812,2.812552 c 0.0147,0.09699 0.0367,0.111213 0.0957,0.111213 0.0711,0 0.0905,-0.02456 0.12683,-0.08017 z"
       style="fill:#000000;fill-opacity:1;fill-rule:nonzero;stroke:none;stroke-width:1.29313"
       id="path5500" />
    <path
       d="m 130.89656,52.806435 c 0.0367,0.206921 0.13563,0.469404 0.4086,0.469404 0.10227,0 0.21737,-0.03482 0.3387,-0.111213 0.0506,-0.02969 0.21224,-0.151277 0.21224,-0.187493 0,-0.01943 -0.0183,-0.05561 -0.0506,-0.05561 -0.0147,0 -0.0183,0 -0.0711,0.04138 -0.13599,0.120267 -0.27675,0.227595 -0.42414,0.227595 -0.2225,0 -0.2225,-0.369833 -0.2225,-0.43449 0,-0.04138 0,-0.04138 0.011,-0.106044 0.004,-0.03116 0.004,-0.03629 0.0414,-0.07111 0.17081,-0.166819 0.78234,-0.752597 0.78234,-1.303472 0,-0.05044 0,-0.2832 -0.21737,-0.2832 -0.26245,0 -0.47975,0.418973 -0.53019,0.510784 -0.13196,0.272864 -0.21223,0.530182 -0.24302,0.691822 -0.0506,0.217258 -0.0506,0.323266 -0.0506,0.479752 -0.0183,0.02602 -0.20673,0.187493 -0.23129,0.212089 -0.0506,0.04527 -0.0608,0.04527 -0.0608,0.07111 0,0.01943 0.0293,0.05561 0.0608,0.05561 0.0183,0 0.10593,-0.08149 0.12536,-0.100876 z m 0.23277,-0.364649 c 0.0557,-0.323266 0.3079,-1.353906 0.57542,-1.353906 0.0762,0 0.11656,0.05172 0.11656,0.162934 0,0.03482 0,0.323265 -0.27785,0.716392 -0.16678,0.227595 -0.3387,0.399579 -0.4138,0.47458 z"
       style="fill:#000000;fill-opacity:1;fill-rule:nonzero;stroke:none;stroke-width:1.29313"
       id="path5502" />
    <text
       transform="scale(0.99120719,1.0088708)"
       style="font-variant:normal;font-weight:normal;font-size:4.5215px;font-family:'Bitstream Vera Sans';-inkscape-font-specification:BitstreamVeraSans-Roman;writing-mode:lr-tb;fill:#000000;fill-opacity:1;fill-rule:nonzero;stroke:none;stroke-width:1.28176"
       id="text5506"
       x="129.12228"
       y="45.611298"><tspan
         x="129.12228"
         y="45.611298"
         id="tspan5504"
         style="stroke-width:1.28176">+</tspan></text>
    <text
       transform="scale(1.4316841,0.69847811)"
       style="font-variant:normal;font-weight:normal;font-size:7.44269px;font-family:'Bitstream Vera Sans';-inkscape-font-specification:BitstreamVeraSans-Roman;writing-mode:lr-tb;fill:#000000;fill-opacity:1;fill-rule:nonzero;stroke:none;stroke-width:0.903222"
       id="text5510"
       x="89.396126"
       y="83.236526"><tspan
         x="89.396126"
         y="83.236526"
         id="tspan5508"
         style="stroke-width:0.903222">-</tspan></text>
    <path
       d="m 14.702646,77.521968 c 0.221033,-0.358199 0.418974,-0.373715 0.580625,-0.378887 0.05572,-0.0051 0.06598,-0.08149 0.06598,-0.08533 0,-0.03629 -0.02933,-0.05561 -0.06598,-0.05561 -0.116565,0 -0.248159,0.0143 -0.373741,0.0143 -0.147355,0 -0.309006,-0.0143 -0.449983,-0.0143 -0.02933,0 -0.08541,0 -0.08541,0.08534 0,0.05044 0.03666,0.05561 0.07001,0.05561 0.121697,0.0051 0.206738,0.05561 0.206738,0.151278 0,0.07111 -0.05938,0.171987 -0.05938,0.171987 l -1.404348,2.233229 -0.31817,-2.420733 c 0,-0.08016 0.109966,-0.135772 0.31817,-0.135772 0.06451,0 0.115098,0 0.115098,-0.0905 0,-0.03629 -0.03995,-0.05044 -0.05938,-0.05044 -0.187676,0 -0.378871,0.0143 -0.571533,0.0143 -0.08028,0 -0.166783,0 -0.25219,0 -0.07624,0 -0.161651,-0.0143 -0.243027,-0.0143 -0.03665,0 -0.08541,0 -0.08541,0.08534 0,0.05561 0.03666,0.05561 0.116564,0.05561 0.247059,0 0.257323,0.04527 0.272718,0.156483 l 0.352993,2.813842 c 0.01466,0.09571 0.03665,0.106044 0.09567,0.106044 0.07111,0 0.09201,-0.02053 0.126828,-0.07628 z"
       style="fill:#000000;fill-opacity:1;fill-rule:nonzero;stroke:none;stroke-width:1.29313"
       id="path5512" />
    <path
       d="m 15.156552,80.421155 c -0.116564,0.177156 -0.217367,0.257322 -0.403468,0.267695 -0.03665,0 -0.07624,0 -0.07624,0.06594 0,0.03482 0.02566,0.05044 0.05058,0.05044 0.07624,0 0.182178,-0.0154 0.267585,-0.0154 0.100803,0 0.237895,0.0154 0.333566,0.0154 0.011,0 0.06085,0 0.06085,-0.07111 0,-0.04527 -0.03996,-0.04527 -0.05572,-0.04527 -0.02199,-0.0051 -0.137092,-0.0051 -0.137092,-0.0905 0,-0.0401 0.02932,-0.09182 0.04509,-0.12155 l 0.258422,-0.399579 h 0.914263 l 0.06964,0.526305 c -0.0037,0.0401 -0.02566,0.08533 -0.212235,0.08533 -0.04509,0 -0.08541,0 -0.08541,0.07628 0,0.01026 0.0037,0.0401 0.05058,0.0401 0.09054,0 0.31817,-0.01539 0.413805,-0.01539 0.05572,0 0.126828,0.01026 0.187309,0.01026 0.05572,0 0.121697,0.0051 0.177047,0.0051 0.04509,0 0.06451,-0.02969 0.06451,-0.06594 0,-0.05044 -0.03666,-0.05044 -0.08541,-0.05044 -0.187676,0 -0.191342,-0.02456 -0.201605,-0.09571 l -0.28848,-1.979778 c -0.0037,-0.06077 -0.011,-0.08665 -0.07111,-0.08665 -0.05938,0 -0.07514,0.03116 -0.105935,0.07628 z m 0.418973,-0.45906 0.667241,-1.046138 0.151388,1.046138 z"
       style="fill:#000000;fill-opacity:1;fill-rule:nonzero;stroke:none;stroke-width:1.29313"
       id="path5514" />
    <rect
       style="fill:none;fill-rule:evenodd;stroke:#0000ff;stroke-width:0.272135;stroke-miterlimit:4;stroke-dasharray:1.08854, 0.272135;stroke-dashoffset:0;stroke-opacity:1"
       id="rect15240"
       width="34.63678"
       height="57.009624"
       x="41.173424"
       y="2.3586097" />
    <rect
       style="fill:none;stroke:#ff0000;stroke-width:0.305885;stroke-miterlimit:4;stroke-dasharray:1.22354, 0.305885;stroke-dashoffset:0;stroke-opacity:1"
       id="rect16065"
       width="28.726208"
       height="65.606071"
       x="77.278839"
       y="2.3859782" />
    <text
       xml:space="preserve"
       style="font-style:normal;font-weight:normal;font-size:3.52778px;line-height:1.25;font-family:sans-serif;fill:#000000;fill-opacity:1;stroke:none;stroke-width:0.264583"
       x="59.940102"
       y="6.8980656"
       id="text16089"><tspan
         sodipodi:role="line"
         id="tspan16087"
         x="59.940102"
         y="6.8980656"
         style="font-size:3.52778px;text-align:center;text-anchor:middle;stroke-width:0.264583">Input stage</tspan><tspan
         sodipodi:role="line"
         x="59.940102"
         y="11.307791"
         style="font-size:3.52778px;text-align:center;text-anchor:middle;stroke-width:0.264583"
         id="tspan16091">Differential pair</tspan></text>
    <text
       xml:space="preserve"
       style="font-style:normal;font-weight:normal;font-size:3.52778px;line-height:1.25;font-family:sans-serif;fill:#000000;fill-opacity:1;stroke:none;stroke-width:0.264583"
       x="91.669067"
       y="6.6602302"
       id="text16089-2"><tspan
         sodipodi:role="line"
         x="91.669067"
         y="6.6602302"
         style="font-size:3.52778px;text-align:center;text-anchor:middle;stroke-width:0.264583"
         id="tspan16091-7">Output stage</tspan><tspan
         sodipodi:role="line"
         x="91.669067"
         y="11.069955"
         style="font-size:3.52778px;text-align:center;text-anchor:middle;stroke-width:0.264583"
         id="tspan16123">Push-pull stage</tspan></text>
    <rect
       style="fill:none;stroke:#00ff00;stroke-width:0.350065;stroke-miterlimit:4;stroke-dasharray:1.40026, 0.350065;stroke-dashoffset:0;stroke-opacity:1"
       id="rect16125"
       width="26.562256"
       height="25.806303"
       x="45.021702"
       y="60.896698" />
    <text
       xml:space="preserve"
       style="font-style:normal;font-weight:normal;font-size:10.5833px;line-height:1.25;font-family:sans-serif;fill:#000000;fill-opacity:1;stroke:none;stroke-width:0.264583"
       x="57.452377"
       y="82.965775"
       id="text16129"><tspan
         sodipodi:role="line"
         id="tspan16127"
         x="57.452377"
         y="82.965775"
         style="stroke-width:0.264583"></tspan></text>
    <text
       xml:space="preserve"
       style="font-style:normal;font-weight:normal;font-size:3.52778px;line-height:1.25;font-family:sans-serif;fill:#000000;fill-opacity:1;stroke:none;stroke-width:0.264583;"
       x="58.02919"
       y="80.365585"
       id="text16089-6"><tspan
         sodipodi:role="line"
         x="58.02919"
         y="80.365585"
         style="font-size:3.52778px;text-align:center;text-anchor:middle;stroke-width:0.264583;stroke:none;"
         id="tspan16091-0">Feedback</tspan><tspan
         sodipodi:role="line"
         x="58.02919"
         y="84.775307"
         style="font-size:3.52778px;text-align:center;text-anchor:middle;stroke-width:0.264583;stroke:none;"
         id="tspan16161">capacitance</tspan></text>
    <rect
       style="fill:none;stroke:none;stroke-width:0.264999;stroke-miterlimit:4;stroke-dasharray:1.06, 0.264999;stroke-dashoffset:0;stroke-opacity:1"
       id="rect16169"
       width="34.017857"
       height="36.663689"
       x="9.0714283"
       y="59.53125" />
  </g>
</svg>
