<?xml version="1.0" encoding="UTF-8" standalone="no"?>
<svg
   xmlns:dc="http://purl.org/dc/elements/1.1/"
   xmlns:cc="http://creativecommons.org/ns#"
   xmlns:rdf="http://www.w3.org/1999/02/22-rdf-syntax-ns#"
   xmlns:svg="http://www.w3.org/2000/svg"
   xmlns="http://www.w3.org/2000/svg"
   xmlns:sodipodi="http://sodipodi.sourceforge.net/DTD/sodipodi-0.dtd"
   xmlns:inkscape="http://www.inkscape.org/namespaces/inkscape"
   width="297mm"
   height="100mm"
   viewBox="0 0 297 100"
   version="1.1"
   id="svg14052"
   inkscape:version="1.0.2-2 (e86c870879, 2021-01-15)"
   sodipodi:docname="topology.svg">
  <defs
     id="defs14046" />
  <sodipodi:namedview
     id="base"
     pagecolor="#ffffff"
     bordercolor="#666666"
     borderopacity="1.0"
     inkscape:pageopacity="0.0"
     inkscape:pageshadow="2"
     inkscape:zoom="0.7"
     inkscape:cx="359.33823"
     inkscape:cy="531.52656"
     inkscape:document-units="mm"
     inkscape:current-layer="layer1"
     inkscape:document-rotation="0"
     showgrid="false"
     height="1500mm"
     inkscape:window-width="1920"
     inkscape:window-height="1009"
     inkscape:window-x="-8"
     inkscape:window-y="-8"
     inkscape:window-maximized="1" />
  <metadata
     id="metadata14049">
    <rdf:RDF>
      <cc:Work
         rdf:about="">
        <dc:format>image/svg+xml</dc:format>
        <dc:type
           rdf:resource="http://purl.org/dc/dcmitype/StillImage" />
        <dc:title></dc:title>
      </cc:Work>
    </rdf:RDF>
  </metadata>
  <g
     inkscape:label="Laag 1"
     inkscape:groupmode="layer"
     id="layer1">
    <g
       id="g1088"
       transform="matrix(1.9547718,0,0,1.9547718,-55.86746,-926.19295)">
      <path
         d="m 88.348,499.66 c 0,1.242 -1.008,2.25 -2.254,2.25 -1.246,0 -2.254,-1.008 -2.254,-2.25 0,-1.246 1.008,-2.254 2.254,-2.254 1.246,0 2.254,1.008 2.254,2.254 z"
         style="fill:none;stroke:#000000;stroke-width:0.45;stroke-linecap:butt;stroke-linejoin:round;stroke-miterlimit:4;stroke-dasharray:none;stroke-opacity:1"
         id="path1090" />
    </g>
    <g
       id="g1092"
       transform="matrix(1.9547718,0,0,1.9547718,-55.86746,-926.19295)">
      <path
         d="m 88.348,504.164 c 0,1.246 -1.012,2.254 -2.254,2.254 -1.246,0 -2.254,-1.008 -2.254,-2.254 0,-1.242 1.008,-2.25 2.254,-2.25 1.242,0 2.254,1.008 2.254,2.25 z"
         style="fill:none;stroke:#000000;stroke-width:0.45;stroke-linecap:butt;stroke-linejoin:round;stroke-miterlimit:4;stroke-dasharray:none;stroke-opacity:1"
         id="path1094" />
    </g>
    <g
       id="g1096"
       transform="matrix(1.9547718,0,0,1.9547718,-55.86746,-926.19295)">
      <path
         d="m 79.344,501.934 c 0,-2.496 -1.004,-4.516 -2.242,-4.516 -1.235,0 -2.239,2.02 -2.239,4.516 0,2.492 1.004,4.511 2.239,4.511 1.238,0 2.242,-2.019 2.242,-4.511 z"
         style="fill:none;stroke:#000000;stroke-width:0.45;stroke-linecap:butt;stroke-linejoin:round;stroke-miterlimit:4;stroke-dasharray:none;stroke-opacity:1"
         id="path1098" />
    </g>
    <g
       id="g1100"
       transform="matrix(1.9547718,0,0,1.9547718,-55.86746,-926.19295)">
      <path
         d="m 77.094,492.914 v 4.5"
         style="fill:none;stroke:#000000;stroke-width:0.45;stroke-linecap:round;stroke-linejoin:miter;stroke-miterlimit:4;stroke-dasharray:none;stroke-opacity:1"
         id="path1102" />
    </g>
    <g
       id="g1104"
       transform="matrix(1.9547718,0,0,1.9547718,-55.86746,-926.19295)">
      <path
         d="m 77.094,506.414 v 4.5"
         style="fill:none;stroke:#000000;stroke-width:0.45;stroke-linecap:round;stroke-linejoin:miter;stroke-miterlimit:4;stroke-dasharray:none;stroke-opacity:1"
         id="path1106" />
    </g>
    <g
       id="g1108"
       transform="matrix(1.9547718,0,0,1.9547718,-55.86746,-926.19295)">
      <path
         d="m 86.098,506.414 v 4.5"
         style="fill:none;stroke:#000000;stroke-width:0.45;stroke-linecap:round;stroke-linejoin:miter;stroke-miterlimit:4;stroke-dasharray:none;stroke-opacity:1"
         id="path1110" />
    </g>
    <g
       id="g1112"
       transform="matrix(1.9547718,0,0,1.9547718,-55.86746,-926.19295)">
      <path
         d="m 86.098,492.914 v 4.5"
         style="fill:none;stroke:#000000;stroke-width:0.45;stroke-linecap:round;stroke-linejoin:miter;stroke-miterlimit:4;stroke-dasharray:none;stroke-opacity:1"
         id="path1114" />
    </g>
    <g
       id="g1116"
       transform="matrix(1.9547718,0,0,1.9547718,-55.86746,-926.19295)">
      <path
         d="M 77.094,492.914 H 72.59"
         style="fill:none;stroke:#000000;stroke-width:0.45;stroke-linecap:round;stroke-linejoin:miter;stroke-miterlimit:4;stroke-dasharray:none;stroke-opacity:1"
         id="path1118" />
    </g>
    <g
       id="g1120"
       transform="matrix(1.9547718,0,0,1.9547718,-55.86746,-926.19295)">
      <path
         d="m 90.598,492.914 h -4.5"
         style="fill:none;stroke:#000000;stroke-width:0.45;stroke-linecap:round;stroke-linejoin:miter;stroke-miterlimit:4;stroke-dasharray:none;stroke-opacity:1"
         id="path1122" />
    </g>
    <g
       id="g1124"
       transform="matrix(1.9547718,0,0,1.9547718,-55.86746,-926.19295)">
      <path
         d="M 77.094,510.914 H 72.59"
         style="fill:none;stroke:#000000;stroke-width:0.45;stroke-linecap:round;stroke-linejoin:miter;stroke-miterlimit:4;stroke-dasharray:none;stroke-opacity:1"
         id="path1126" />
    </g>
    <g
       id="g1128"
       transform="matrix(1.9547718,0,0,1.9547718,-55.86746,-926.19295)">
      <path
         d="m 90.598,510.914 h -4.5"
         style="fill:none;stroke:#000000;stroke-width:0.45;stroke-linecap:round;stroke-linejoin:miter;stroke-miterlimit:4;stroke-dasharray:none;stroke-opacity:1"
         id="path1130" />
    </g>
    <g
       id="g1132"
       transform="matrix(0,1.9547718,-1.9547718,0,-55.86746,-926.19295)">
      <path
         d="m 492.914,-53.695 v 8.097"
         style="fill:none;stroke:#000000;stroke-width:0.45;stroke-linecap:round;stroke-linejoin:miter;stroke-miterlimit:4;stroke-dasharray:none;stroke-opacity:1"
         id="path1134" />
    </g>
    <g
       id="g1136"
       transform="matrix(0,1.9547718,-1.9547718,0,-55.86746,-926.19295)">
      <path
         d="m 492.914,-63.598 v 8.102"
         style="fill:none;stroke:#000000;stroke-width:0.45;stroke-linecap:round;stroke-linejoin:miter;stroke-miterlimit:4;stroke-dasharray:none;stroke-opacity:1"
         id="path1138" />
    </g>
    <g
       id="g1140"
       transform="matrix(0,1.9547718,-1.9547718,0,-55.86746,-926.19295)">
      <path
         d="m 496.066,-55.496 h -6.3"
         style="fill:none;stroke:#000000;stroke-width:0.9;stroke-linecap:butt;stroke-linejoin:miter;stroke-miterlimit:4;stroke-dasharray:none;stroke-opacity:1"
         id="path1142" />
    </g>
    <g
       id="g1144"
       transform="matrix(0,1.9547718,-1.9547718,0,-55.86746,-926.19295)">
      <path
         d="m 496.066,-53.695 h -6.3"
         style="fill:none;stroke:#000000;stroke-width:0.9;stroke-linecap:butt;stroke-linejoin:miter;stroke-miterlimit:4;stroke-dasharray:none;stroke-opacity:1"
         id="path1146" />
    </g>
    <g
       id="g1148"
       transform="matrix(0,1.9547718,-1.9547718,0,-55.86746,-926.19295)">
      <path
         d="m 490.664,-104.098 h 4.5 v -9 h -4.5 z"
         style="fill:none;stroke:#000000;stroke-width:0.45;stroke-linecap:round;stroke-linejoin:round;stroke-miterlimit:4;stroke-dasharray:none;stroke-opacity:1"
         id="path1150" />
    </g>
    <g
       id="g1152"
       transform="matrix(0,1.9547718,-1.9547718,0,-55.86746,-926.19295)">
      <path
         d="m 492.914,-117.598 v 4.5"
         style="fill:none;stroke:#000000;stroke-width:0.449646;stroke-linecap:round;stroke-linejoin:miter;stroke-miterlimit:4;stroke-dasharray:none;stroke-opacity:1"
         id="path1154" />
    </g>
    <g
       id="g1156"
       transform="matrix(0,1.9547718,-1.9547718,0,-55.86746,-926.19295)">
      <path
         d="m 492.914,-104.098 v 4.5"
         style="fill:none;stroke:#000000;stroke-width:0.449646;stroke-linecap:round;stroke-linejoin:miter;stroke-miterlimit:4;stroke-dasharray:none;stroke-opacity:1"
         id="path1158" />
    </g>
    <g
       id="g1160"
       transform="matrix(1.9547718,0,0,1.9547718,-55.86746,-926.19295)">
      <path
         d="m 50.098,501.914 c 0,2.488 -2.016,4.5 -4.5,4.5 -2.489,0 -4.5,-2.012 -4.5,-4.5 0,-2.484 2.011,-4.5 4.5,-4.5 2.484,0 4.5,2.016 4.5,4.5 z"
         style="fill:none;stroke:#000000;stroke-width:0.45;stroke-linecap:butt;stroke-linejoin:round;stroke-miterlimit:4;stroke-dasharray:none;stroke-opacity:1"
         id="path1162" />
    </g>
    <g
       id="g1164"
       transform="matrix(1.9547718,0,0,1.9547718,-55.86746,-926.19295)">
      <path
         d="m 45.598,506.414 v 4.5"
         style="fill:none;stroke:#000000;stroke-width:0.45;stroke-linecap:round;stroke-linejoin:miter;stroke-miterlimit:4;stroke-dasharray:none;stroke-opacity:1"
         id="path1166" />
    </g>
    <g
       id="g1168"
       transform="matrix(1.9547718,0,0,1.9547718,-55.86746,-926.19295)">
      <path
         d="m 45.598,492.914 v 4.5"
         style="fill:none;stroke:#000000;stroke-width:0.45;stroke-linecap:round;stroke-linejoin:miter;stroke-miterlimit:4;stroke-dasharray:none;stroke-opacity:1"
         id="path1170" />
    </g>
    <g
       id="g1172"
       transform="matrix(1.9547718,0,0,1.9547718,-55.86746,-926.19295)">
      <path
         d="m 45.598,506.637 v -9"
         style="fill:none;stroke:#000000;stroke-width:0.45;stroke-linecap:round;stroke-linejoin:miter;stroke-miterlimit:4;stroke-dasharray:none;stroke-opacity:1"
         id="path1174" />
    </g>
    <text
       transform="scale(0.99120711,1.0088709)"
       style="font-variant:normal;font-weight:normal;font-size:8.20197px;font-family:'Bitstream Vera Sans';-inkscape-font-specification:BitstreamVeraSans-Roman;writing-mode:lr-tb;fill:#000000;fill-opacity:1;fill-rule:nonzero;stroke:none;stroke-width:1.93758"
       id="text1178"
       x="24.683857"
       y="45.734894"><tspan
         x="24.683857"
         y="45.734894"
         id="tspan1176"
         style="stroke-width:1.93758">+</tspan></text>
    <text
       transform="scale(1.4316841,0.69847811)"
       style="font-variant:normal;font-weight:normal;font-size:13.501px;font-family:'Bitstream Vera Sans';-inkscape-font-specification:BitstreamVeraSans-Roman;writing-mode:lr-tb;fill:#000000;fill-opacity:1;fill-rule:nonzero;stroke:none;stroke-width:1.36537"
       id="text1182"
       x="17.089506"
       y="97.543053"><tspan
         x="17.089506"
         y="97.543053"
         id="tspan1180"
         style="stroke-width:1.36537">-</tspan></text>
    <g
       id="g1184"
       transform="matrix(1.9547718,0,0,1.9547718,-55.86746,-926.19295)">
      <path
         d="m 131.098,492.914 h -4.5"
         style="fill:none;stroke:#000000;stroke-width:0.45;stroke-linecap:butt;stroke-linejoin:miter;stroke-miterlimit:4;stroke-dasharray:none;stroke-opacity:1"
         id="path1186" />
    </g>
    <g
       id="g1188"
       transform="matrix(1.9547718,0,0,1.9547718,-55.86746,-926.19295)">
      <path
         d="m 131.098,488.414 h 22.5"
         style="fill:none;stroke:#000000;stroke-width:0.45;stroke-linecap:butt;stroke-linejoin:miter;stroke-miterlimit:4;stroke-dasharray:none;stroke-opacity:1"
         id="path1190" />
    </g>
    <g
       id="g1192"
       transform="matrix(1.9547718,0,0,1.9547718,-55.86746,-926.19295)">
      <path
         d="m 131.098,497.414 h 22.5"
         style="fill:none;stroke:#000000;stroke-width:0.45;stroke-linecap:butt;stroke-linejoin:miter;stroke-miterlimit:4;stroke-dasharray:none;stroke-opacity:1"
         id="path1194" />
    </g>
    <g
       id="g1196"
       transform="matrix(1.9547718,0,0,1.9547718,-55.86746,-926.19295)">
      <path
         d="m 133.348,492.914 c 0,6 -4.5,6 -4.5,0 0,-6 4.5,-6 4.5,0 z"
         style="fill:none;stroke:#000000;stroke-width:0.45;stroke-linecap:round;stroke-linejoin:miter;stroke-miterlimit:4;stroke-dasharray:none;stroke-opacity:1"
         id="path1198" />
    </g>
    <g
       id="g1200"
       transform="matrix(1.9547718,0,0,1.9547718,-55.86746,-926.19295)">
      <path
         d="m 158.098,492.914 h -2.25"
         style="fill:none;stroke:#000000;stroke-width:0.45;stroke-linecap:butt;stroke-linejoin:miter;stroke-miterlimit:4;stroke-dasharray:none;stroke-opacity:1"
         id="path1202" />
    </g>
    <g
       id="g1204"
       transform="matrix(1.9547718,0,0,1.9547718,-55.86746,-926.19295)">
      <path
         d="m 153.598,488.414 c 1.242,0 2.25,2.016 2.25,4.5 0,2.484 -1.008,4.5 -2.25,4.5"
         style="fill:none;stroke:#000000;stroke-width:0.429058;stroke-linecap:butt;stroke-linejoin:round;stroke-miterlimit:4;stroke-dasharray:none;stroke-opacity:1"
         id="path1206" />
    </g>
    <g
       id="g1208"
       transform="matrix(0,1.9547718,-1.9547718,0,-55.86746,-926.19295)">
      <path
         d="m 483.914,-80.695 v 8.097"
         style="fill:none;stroke:#000000;stroke-width:0.45;stroke-linecap:round;stroke-linejoin:miter;stroke-miterlimit:4;stroke-dasharray:none;stroke-opacity:1"
         id="path1210" />
    </g>
    <g
       id="g1212"
       transform="matrix(0,1.9547718,-1.9547718,0,-55.86746,-926.19295)">
      <path
         d="m 483.914,-90.598 v 8.102"
         style="fill:none;stroke:#000000;stroke-width:0.45;stroke-linecap:round;stroke-linejoin:miter;stroke-miterlimit:4;stroke-dasharray:none;stroke-opacity:1"
         id="path1214" />
    </g>
    <g
       id="g1216"
       transform="matrix(0,1.9547718,-1.9547718,0,-55.86746,-926.19295)">
      <path
         d="m 487.066,-82.496 h -6.3"
         style="fill:none;stroke:#000000;stroke-width:0.9;stroke-linecap:butt;stroke-linejoin:miter;stroke-miterlimit:4;stroke-dasharray:none;stroke-opacity:1"
         id="path1218" />
    </g>
    <g
       id="g1220"
       transform="matrix(0,1.9547718,-1.9547718,0,-55.86746,-926.19295)">
      <path
         d="m 487.066,-80.695 h -6.3"
         style="fill:none;stroke:#000000;stroke-width:0.9;stroke-linecap:butt;stroke-linejoin:miter;stroke-miterlimit:4;stroke-dasharray:none;stroke-opacity:1"
         id="path1222" />
    </g>
    <g
       id="g1224"
       transform="matrix(1.9547718,0,0,1.9547718,-55.86746,-926.19295)">
      <path
         d="m 43.348,515.414 h 4.5"
         style="fill:none;stroke:#000000;stroke-width:0.9;stroke-linecap:butt;stroke-linejoin:miter;stroke-miterlimit:4;stroke-dasharray:none;stroke-opacity:1"
         id="path1226" />
    </g>
    <g
       id="g1228"
       transform="matrix(1.9547718,0,0,1.9547718,-55.86746,-926.19295)">
      <path
         d="m 45.598,510.914 v 4.5"
         style="fill:none;stroke:#000000;stroke-width:0.45;stroke-linecap:round;stroke-linejoin:miter;stroke-miterlimit:4;stroke-dasharray:none;stroke-opacity:1"
         id="path1230" />
    </g>
    <g
       id="g1232"
       transform="matrix(1.9547718,0,0,1.9547718,-55.86746,-926.19295)">
      <path
         d="m 70.348,515.414 h 4.5"
         style="fill:none;stroke:#000000;stroke-width:0.9;stroke-linecap:butt;stroke-linejoin:miter;stroke-miterlimit:4;stroke-dasharray:none;stroke-opacity:1"
         id="path1234" />
    </g>
    <g
       id="g1236"
       transform="matrix(1.9547718,0,0,1.9547718,-55.86746,-926.19295)">
      <path
         d="m 72.598,510.914 v 4.5"
         style="fill:none;stroke:#000000;stroke-width:0.45;stroke-linecap:round;stroke-linejoin:miter;stroke-miterlimit:4;stroke-dasharray:none;stroke-opacity:1"
         id="path1238" />
    </g>
    <g
       id="g1240"
       transform="matrix(1.9547718,0,0,1.9547718,-55.86746,-926.19295)">
      <path
         d="m 88.348,515.414 h 4.5"
         style="fill:none;stroke:#000000;stroke-width:0.9;stroke-linecap:butt;stroke-linejoin:miter;stroke-miterlimit:4;stroke-dasharray:none;stroke-opacity:1"
         id="path1242" />
    </g>
    <g
       id="g1244"
       transform="matrix(1.9547718,0,0,1.9547718,-55.86746,-926.19295)">
      <path
         d="m 90.598,510.914 v 4.5"
         style="fill:none;stroke:#000000;stroke-width:0.45;stroke-linecap:round;stroke-linejoin:miter;stroke-miterlimit:4;stroke-dasharray:none;stroke-opacity:1"
         id="path1246" />
    </g>
    <g
       id="g1248"
       transform="matrix(1.9547718,0,0,1.9547718,-55.86746,-926.19295)">
      <path
         d="m 128.848,501.914 h 4.5"
         style="fill:none;stroke:#000000;stroke-width:0.9;stroke-linecap:butt;stroke-linejoin:miter;stroke-miterlimit:4;stroke-dasharray:none;stroke-opacity:1"
         id="path1250" />
    </g>
    <g
       id="g1252"
       transform="matrix(1.9547718,0,0,1.9547718,-55.86746,-926.19295)">
      <path
         d="m 131.098,497.414 v 4.5"
         style="fill:none;stroke:#000000;stroke-width:0.45;stroke-linecap:round;stroke-linejoin:miter;stroke-miterlimit:4;stroke-dasharray:none;stroke-opacity:1"
         id="path1254" />
    </g>
    <g
       id="g1256"
       transform="matrix(1.9547718,0,0,1.9547718,-55.86746,-926.19295)">
      <path
         d="m 151.348,501.914 h 4.5"
         style="fill:none;stroke:#000000;stroke-width:0.9;stroke-linecap:butt;stroke-linejoin:miter;stroke-miterlimit:4;stroke-dasharray:none;stroke-opacity:1"
         id="path1258" />
    </g>
    <g
       id="g1260"
       transform="matrix(1.9547718,0,0,1.9547718,-55.86746,-926.19295)">
      <path
         d="m 153.598,497.414 v 4.5"
         style="fill:none;stroke:#000000;stroke-width:0.45;stroke-linecap:round;stroke-linejoin:miter;stroke-miterlimit:4;stroke-dasharray:none;stroke-opacity:1"
         id="path1262" />
    </g>
    <g
       id="g1264"
       transform="matrix(-1.9547718,0,0,-1.9547718,-55.86746,-926.19295)">
      <path
         d="m -164.848,-497.414 h -4.5 v -9 h 4.5 z"
         style="fill:none;stroke:#000000;stroke-width:0.45;stroke-linecap:round;stroke-linejoin:round;stroke-miterlimit:4;stroke-dasharray:none;stroke-opacity:1"
         id="path1266" />
    </g>
    <g
       id="g1268"
       transform="matrix(-1.9547718,0,0,-1.9547718,-55.86746,-926.19295)">
      <path
         d="m -167.098,-510.914 v 4.5"
         style="fill:none;stroke:#000000;stroke-width:0.449646;stroke-linecap:round;stroke-linejoin:miter;stroke-miterlimit:4;stroke-dasharray:none;stroke-opacity:1"
         id="path1270" />
    </g>
    <g
       id="g1272"
       transform="matrix(-1.9547718,0,0,-1.9547718,-55.86746,-926.19295)">
      <path
         d="m -167.098,-497.414 v 4.5"
         style="fill:none;stroke:#000000;stroke-width:0.449646;stroke-linecap:round;stroke-linejoin:miter;stroke-miterlimit:4;stroke-dasharray:none;stroke-opacity:1"
         id="path1274" />
    </g>
    <g
       id="g1276"
       transform="matrix(1.9547718,0,0,1.9547718,-55.86746,-926.19295)">
      <path
         d="m 164.848,515.414 h 4.5"
         style="fill:none;stroke:#000000;stroke-width:0.9;stroke-linecap:butt;stroke-linejoin:miter;stroke-miterlimit:4;stroke-dasharray:none;stroke-opacity:1"
         id="path1278" />
    </g>
    <g
       id="g1280"
       transform="matrix(1.9547718,0,0,1.9547718,-55.86746,-926.19295)">
      <path
         d="m 167.098,510.914 v 4.5"
         style="fill:none;stroke:#000000;stroke-width:0.45;stroke-linecap:round;stroke-linejoin:miter;stroke-miterlimit:4;stroke-dasharray:none;stroke-opacity:1"
         id="path1282" />
    </g>
    <g
       id="g1284"
       transform="matrix(1.9547718,0,0,1.9547718,-55.86746,-926.19295)">
      <path
         d="m 167.098,492.914 h -9"
         style="fill:none;stroke:#000000;stroke-width:0.45;stroke-linecap:butt;stroke-linejoin:miter;stroke-miterlimit:4;stroke-dasharray:none;stroke-opacity:1"
         id="path1286" />
    </g>
    <g
       id="g1288"
       transform="matrix(1.9547718,0,0,1.9547718,-55.86746,-926.19295)">
      <path
         d="m 126.598,492.914 h -9"
         style="fill:none;stroke:#000000;stroke-width:0.45;stroke-linecap:butt;stroke-linejoin:miter;stroke-miterlimit:4;stroke-dasharray:none;stroke-opacity:1"
         id="path1290" />
    </g>
    <g
       id="g1292"
       transform="matrix(1.9547718,0,0,1.9547718,-55.86746,-926.19295)">
      <path
         d="m 72.598,492.914 h -9"
         style="fill:none;stroke:#000000;stroke-width:0.45;stroke-linecap:butt;stroke-linejoin:miter;stroke-miterlimit:4;stroke-dasharray:none;stroke-opacity:1"
         id="path1294" />
    </g>
    <g
       id="g1296"
       transform="matrix(1.9547718,0,0,1.9547718,-55.86746,-926.19295)">
      <path
         d="m 72.594,483.914 v 9"
         style="fill:none;stroke:#000000;stroke-width:0.45;stroke-linecap:butt;stroke-linejoin:miter;stroke-miterlimit:4;stroke-dasharray:none;stroke-opacity:1"
         id="path1298" />
    </g>
    <g
       id="g1300"
       transform="matrix(1.9547718,0,0,1.9547718,-55.86746,-926.19295)">
      <path
         d="m 90.594,483.914 v 9 h 9"
         style="fill:none;stroke:#000000;stroke-width:0.45;stroke-linecap:butt;stroke-linejoin:miter;stroke-miterlimit:4;stroke-dasharray:none;stroke-opacity:1"
         id="path1302" />
    </g>
    <text
       transform="scale(0.99120711,1.0088709)"
       style="font-variant:normal;font-weight:normal;font-size:8.20197px;font-family:'Bitstream Vera Sans';-inkscape-font-specification:BitstreamVeraSans-Roman;writing-mode:lr-tb;fill:#000000;fill-opacity:1;fill-rule:nonzero;stroke:none;stroke-width:1.93758"
       id="text1758"
       x="282.04471"
       y="48.641144"><tspan
         x="282.04471"
         y="48.641144"
         id="tspan1756"
         style="stroke-width:1.93758">+</tspan></text>
    <text
       transform="scale(1.4316841,0.69847811)"
       style="font-variant:normal;font-weight:normal;font-size:13.501px;font-family:'Bitstream Vera Sans';-inkscape-font-specification:BitstreamVeraSans-Roman;writing-mode:lr-tb;fill:#000000;fill-opacity:1;fill-rule:nonzero;stroke:none;stroke-width:1.36537"
       id="text1762"
       x="195.26981"
       y="101.74072"><tspan
         x="195.26981"
         y="101.74072"
         id="tspan1760"
         style="stroke-width:1.36537">-</tspan></text>
    <path
       d="m 285.09558,53.972643 c 0.54136,-0.86402 1.0067,-0.90115 1.40544,-0.91678 0.13686,-0.0222 0.16013,-0.19172 0.16013,-0.21333 0,-0.0842 -0.0704,-0.13852 -0.16013,-0.13852 -0.2754,0 -0.60404,0.0388 -0.90115,0.0388 -0.35962,0 -0.74084,-0.0388 -1.0927,-0.0388 -0.0682,0 -0.20502,0 -0.20502,0.21499 0,0.11359 0.0898,0.13686 0.17399,0.13686 0.29146,0.0166 0.50424,0.13687 0.50424,0.35962 0,0.17565 -0.16014,0.42001 -0.16014,0.42001 l -3.38954,5.39713 -0.76434,-5.84867 c 0,-0.19172 0.25988,-0.32858 0.76434,-0.32858 0.15238,0 0.27373,0 0.27373,-0.22885 0,-0.0842 -0.0842,-0.12301 -0.13686,-0.12301 -0.44939,0 -0.91678,0.0388 -1.38982,0.0388 -0.18396,0 -0.39674,0 -0.60209,0 -0.19172,0 -0.39896,-0.0388 -0.58841,-0.0388 -0.0842,0 -0.20724,0 -0.20724,0.21499 0,0.13687 0.0842,0.13687 0.27539,0.13687 0.60404,0 0.62554,0.0997 0.65685,0.38122 l 0.86983,6.80457 c 0.0333,0.22109 0.0842,0.25987 0.22109,0.25987 0.17621,0 0.23051,-0.0554 0.31474,-0.19172 z"
       style="fill:#000000;fill-opacity:1;fill-rule:nonzero;stroke:none;stroke-width:1.95477"
       id="path1764" />
    <path
       d="m 285.51581,60.859323 c 0.0842,0.49648 0.32859,1.13764 0.98521,1.13764 0.24436,0 0.51809,-0.0842 0.81515,-0.27373 0.12301,-0.0682 0.51975,-0.36737 0.51975,-0.4516 0,-0.0554 -0.0554,-0.13686 -0.12135,-0.13686 -0.0388,0 -0.0554,0 -0.17565,0.0997 -0.32859,0.297 -0.67247,0.5571 -1.02433,0.5571 -0.5336,0 -0.5336,-0.90115 -0.5336,-1.05364 0,-0.1075 0,-0.1075 0.0166,-0.25988 0.0222,-0.0682 0.0222,-0.092 0.10528,-0.17565 0.41226,-0.39674 1.88635,-1.81792 1.88635,-3.15304 0,-0.12302 0,-0.67241 -0.51809,-0.67241 -0.6431,0 -1.16113,1.00083 -1.28426,1.22951 -0.32858,0.65684 -0.51809,1.28237 -0.58647,1.67917 -0.12301,0.51975 -0.12301,0.77996 -0.12301,1.16113 -0.0554,0.0554 -0.49648,0.4516 -0.57278,0.50424 -0.11359,0.11526 -0.13686,0.11526 -0.13686,0.1679 0,0.0554 0.0682,0.13686 0.13686,0.13686 0.0554,0 0.25988,-0.1895 0.31252,-0.2366 z m 0.54912,-0.88552 c 0.14463,-0.77803 0.74871,-3.27622 1.4055,-3.27622 0.17399,0 0.27373,0.12301 0.27373,0.39895 0,0.0898 0,0.78579 -0.67047,1.73193 -0.39896,0.5571 -0.81709,0.96958 -1.0087,1.1455 z"
       style="fill:#000000;fill-opacity:1;fill-rule:nonzero;stroke:none;stroke-width:1.95477"
       id="path1766" />
    <path
       d="m 56.271929,17.985282 c 0,-0.03325 -0.0155,-0.123012 -0.12118,-0.123012 -0.031,0 -0.0471,0.02216 -0.16812,0.144622 l -0.76431,0.848396 c -0.1075,-0.160137 -0.60207,-0.993018 -1.83163,-0.993018 -2.48255,0 -4.95729,2.443452 -4.95729,5.010028 0,1.816035 1.29992,3.029921 2.9947,3.029921 0.95393,0 1.80231,-0.433867 2.38874,-0.953953 1.02429,-0.901147 1.21391,-1.907852 1.21391,-1.939103 0,-0.12135 -0.12118,-0.12135 -0.13681,-0.12135 -0.0684,0 -0.12118,0.03879 -0.13681,0.12135 -0.10749,0.312517 -0.36748,1.106388 -1.12986,1.749542 -0.7565,0.602039 -1.45044,0.793594 -2.02319,0.793594 -0.9852,0 -2.16197,-0.572726 -2.16197,-2.283149 0,-0.641159 0.22086,-2.427826 1.32924,-3.725826 0.67831,-0.779907 1.71825,-1.329195 2.70345,-1.329195 1.12204,0 1.78667,0.846401 1.78667,2.130658 0,0.449382 -0.0393,0.449382 -0.0393,0.572782 0,0.09752 0.12318,0.09752 0.15249,0.09752 0.14468,0 0.14468,-0.01108 0.215,-0.221089 z"
       style="fill:#000000;fill-opacity:1;fill-rule:nonzero;stroke:none;stroke-width:1.95477"
       id="path1912" />
    <path
       d="m 57.364649,26.377145 c -0.28343,0.433867 -0.51997,0.625478 -0.96957,0.656785 -0.0919,0 -0.19155,0 -0.19155,0.160138 0,0.08422 0.0684,0.121349 0.12312,0.121349 0.1818,0 0.44179,-0.03879 0.65485,-0.03879 0.23849,0 0.57275,0.03879 0.79559,0.03879 0.0371,0 0.15249,0 0.15249,-0.175652 0,-0.105281 -0.0997,-0.105281 -0.13686,-0.105281 -0.0549,-0.01662 -0.32842,-0.01662 -0.32842,-0.222751 0,-0.105281 0.0684,-0.228847 0.10555,-0.297003 l 0.61966,-0.969579 h 2.22063 l 0.16811,1.282318 c -0.0155,0.09198 -0.0684,0.207237 -0.51803,0.207237 -0.0997,0 -0.20718,0 -0.20718,0.17399 0,0.03879 0.0155,0.107497 0.12312,0.107497 0.22087,0 0.778,-0.03879 1.00671,-0.03879 0.1388,0 0.30692,0.01108 0.44373,0.01108 0.14468,0 0.29711,0.02216 0.43592,0.02216 0.10555,0 0.1603,-0.06816 0.1603,-0.160137 0,-0.12135 -0.0919,-0.12135 -0.21505,-0.12135 -0.4496,0 -0.46523,-0.07037 -0.48085,-0.236605 l -0.69395,-4.781347 c -0.0155,-0.160137 -0.031,-0.20502 -0.16811,-0.20502 -0.16031,0 -0.19156,0.06815 -0.26781,0.167895 z m 1.01453,-1.108383 1.61268,-2.527511 0.36555,2.527511 z"
       style="fill:#000000;fill-opacity:1;fill-rule:nonzero;stroke:none;stroke-width:1.95477"
       id="path1914" />
    <path
       d="m 14.817087,51.628873 c 0.535601,-0.87184 1.000842,-0.90115 1.40548,-0.92464 0.136864,-0.0166 0.15249,-0.18397 0.15249,-0.20502 0,-0.0842 -0.06843,-0.13853 -0.15249,-0.13853 -0.283427,0 -0.611841,0.0388 -0.901147,0.0388 -0.367485,0 -0.748678,-0.0388 -1.092719,-0.0388 -0.06843,0 -0.205242,0 -0.205242,0.20724 0,0.12135 0.08406,0.13686 0.168117,0.13686 0.297113,0.0222 0.50435,0.14462 0.50435,0.36738 0,0.17399 -0.152491,0.41835 -0.152491,0.41835 l -3.399345,5.39907 -0.762365,-5.84868 c 0,-0.19172 0.258048,-0.33634 0.762365,-0.33634 0.160303,0 0.275613,0 0.275613,-0.22109 0,-0.0842 -0.08406,-0.12301 -0.136809,-0.12301 -0.451543,0 -0.916789,0.0388 -1.3820235,0.0388 -0.191556,0 -0.398792,0 -0.604023,0 -0.191555,0 -0.404665,-0.0388 -0.596204,-0.0388 -0.08406,0 -0.205242,0 -0.205242,0.20724 0,0.13686 0.09187,0.13686 0.281487,0.13686 0.604023,0 0.61966,0.1075 0.656802,0.38123 l 0.8640095,6.81237 c 0.03712,0.22109 0.08406,0.25822 0.228681,0.25822 0.168116,0 0.220867,-0.0554 0.304926,-0.18951 z"
       style="fill:#000000;fill-opacity:1;fill-rule:nonzero;stroke:none;stroke-width:1.95477"
       id="path1924" />
    <path
       d="m 15.909806,58.630863 c -0.283427,0.43387 -0.519976,0.62553 -0.969568,0.65679 -0.09187,0 -0.191556,0 -0.191556,0.16013 0,0.0842 0.06843,0.12135 0.123123,0.12135 0.189616,0 0.449604,-0.0388 0.654846,-0.0388 0.244362,0 0.572748,0.0388 0.795594,0.0388 0.03713,0 0.160304,0 0.160304,-0.17565 0,-0.10528 -0.107497,-0.10528 -0.144678,-0.10528 -0.0471,-0.0166 -0.32842,-0.0166 -0.32842,-0.22275 0,-0.10584 0.06843,-0.22885 0.105558,-0.297 l 0.627478,-0.96953 h 2.212805 l 0.175929,1.28232 c -0.02327,0.092 -0.07625,0.20724 -0.518036,0.20724 -0.107497,0 -0.21505,0 -0.21505,0.17399 0,0.0388 0.02327,0.10749 0.123123,0.10749 0.228681,0 0.778002,-0.0388 1.00671,-0.0388 0.138804,0 0.312739,0.0111 0.451543,0.0111 0.13681,0 0.2893,0.0222 0.428105,0.0222 0.105557,0 0.160303,-0.0682 0.160303,-0.16013 0,-0.12135 -0.09187,-0.12135 -0.207181,-0.12135 -0.449604,0 -0.473042,-0.0704 -0.488668,-0.23661 l -0.693944,-4.7814 c -0.01552,-0.16014 -0.03103,-0.20502 -0.168116,-0.20502 -0.160304,0 -0.191556,0.0682 -0.259988,0.16789 z m 1.022347,-1.10838 1.602908,-2.52751 0.367485,2.52751 z"
       style="fill:#000000;fill-opacity:1;fill-rule:nonzero;stroke:none;stroke-width:1.95477"
       id="path1926" />
    <path
       d="m 260.44589,53.360793 c 0.0166,-0.0554 0.0388,-0.10528 0.0388,-0.17399 0,-0.0997 -0.0554,-0.0997 -0.28371,-0.0997 h -4.65628 c -0.25988,0 -0.27539,0.0166 -0.3441,0.22109 l -0.60398,1.9939 c -0.0222,0.0554 -0.0388,0.13687 -0.0388,0.15238 0,0 0,0.12135 0.13687,0.12135 0.10749,0 0.12301,-0.0842 0.13686,-0.12135 0.43609,-1.29794 1.0087,-2.02316 2.71912,-2.02316 h 1.8023 l -6.16341,6.91012 c 0,0 -0.0554,0.15238 -0.0554,0.18951 0,0.0997 0.0682,0.0997 0.27595,0.0997 h 4.80284 c 0.27373,0 0.27373,-0.0166 0.34411,-0.22109 l 0.79365,-2.44351 c 0,-0.0332 0.0388,-0.12301 0.0388,-0.15238 0,-0.0681 -0.0388,-0.12301 -0.13686,-0.12301 -0.1075,0 -0.12135,0.0332 -0.19172,0.27539 -0.48873,1.48956 -1.02233,2.29102 -2.89306,2.29102 h -1.88635 z"
       style="fill:#000000;fill-opacity:1;fill-rule:nonzero;stroke:none;stroke-width:1.95477"
       id="path1944" />
    <path
       d="m 260.95018,61.234623 c 0.092,0.50424 0.33635,1.14551 0.99308,1.14551 0.2366,0 0.51975,-0.092 0.80927,-0.28371 0.12302,-0.0682 0.51976,-0.3574 0.51976,-0.44938 0,-0.0443 -0.0554,-0.13853 -0.12301,-0.13853 -0.0277,0 -0.0443,0 -0.1679,0.1075 -0.32859,0.28924 -0.67828,0.54912 -1.02233,0.54912 -0.53582,0 -0.53582,-0.90114 -0.53582,-1.05364 0,-0.10528 0,-0.10528 0.0166,-0.25987 0.0166,-0.0682 0.0166,-0.0842 0.1075,-0.17399 0.41225,-0.39896 1.88635,-1.81798 1.88635,-3.14723 0,-0.12135 0,-0.67828 -0.51975,-0.67828 -0.64116,0 -1.16114,1.0067 -1.28232,1.22762 -0.32859,0.65679 -0.51976,1.28426 -0.58841,1.68106 -0.12135,0.51809 -0.12135,0.77802 -0.12135,1.16113 -0.0554,0.0554 -0.50424,0.44939 -0.57273,0.50258 -0.12301,0.12301 -0.13852,0.12301 -0.13852,0.17621 0,0.0443 0.0682,0.13852 0.13852,0.13852 0.0554,0 0.25822,-0.19172 0.31252,-0.24436 z m 0.55716,-0.88552 c 0.13853,-0.77997 0.74084,-3.26836 1.40544,-3.26836 0.1679,0 0.27539,0.12135 0.27539,0.39674 0,0.0842 0,0.77803 -0.67241,1.73387 -0.4045,0.54912 -0.81709,0.96957 -1.00864,1.13769 z"
       style="fill:#000000;fill-opacity:1;fill-rule:nonzero;stroke:none;stroke-width:1.95477"
       id="path1946" />
  </g>
</svg>
