<?xml version="1.0" encoding="utf-8" standalone="no"?>
<!DOCTYPE svg PUBLIC "-//W3C//DTD SVG 1.1//EN"
  "http://www.w3.org/Graphics/SVG/1.1/DTD/svg11.dtd">
<!-- Created with matplotlib (https://matplotlib.org/) -->
<svg height="360pt" version="1.1" viewBox="0 0 504 360" width="504pt" xmlns="http://www.w3.org/2000/svg" xmlns:xlink="http://www.w3.org/1999/xlink">
 <metadata>
  <rdf:RDF xmlns:cc="http://creativecommons.org/ns#" xmlns:dc="http://purl.org/dc/elements/1.1/" xmlns:rdf="http://www.w3.org/1999/02/22-rdf-syntax-ns#">
   <cc:Work>
    <dc:type rdf:resource="http://purl.org/dc/dcmitype/StillImage"/>
    <dc:date>2022-01-07T17:08:31.487942</dc:date>
    <dc:format>image/svg+xml</dc:format>
    <dc:creator>
     <cc:Agent>
      <dc:title>Matplotlib v3.3.4, https://matplotlib.org/</dc:title>
     </cc:Agent>
    </dc:creator>
   </cc:Work>
  </rdf:RDF>
 </metadata>
 <defs>
  <style type="text/css">*{stroke-linecap:butt;stroke-linejoin:round;}</style>
 </defs>
 <g id="figure_1">
  <g id="patch_1">
   <path d="M 0 360 
L 504 360 
L 504 0 
L 0 0 
z
" style="fill:#ffffff;"/>
  </g>
  <g id="axes_1">
   <g id="patch_2">
    <path d="M 60.05 308.6 
L 493.2 308.6 
L 493.2 26.8 
L 60.05 26.8 
z
" style="fill:#ffffff;"/>
   </g>
   <g id="matplotlib.axis_1">
    <g id="xtick_1">
     <g id="line2d_1">
      <path clip-path="url(#pbd1eeabc3a)" d="M 79.738636 308.6 
L 79.738636 26.8 
" style="fill:none;stroke:#808080;stroke-linecap:square;stroke-width:0.8;"/>
     </g>
     <g id="line2d_2">
      <defs>
       <path d="M 0 0 
L 0 3.5 
" id="m67fee7fe1d" style="stroke:#000000;stroke-width:0.8;"/>
      </defs>
      <g>
       <use style="stroke:#000000;stroke-width:0.8;" x="79.738636" xlink:href="#m67fee7fe1d" y="308.6"/>
      </g>
     </g>
     <g id="text_1">
      <!-- $\mathdefault{10^{0}}$ -->
      <g transform="translate(69.178636 324.718125)scale(0.12 -0.12)">
       <defs>
        <path d="M 12.40625 8.296875 
L 28.515625 8.296875 
L 28.515625 63.921875 
L 10.984375 60.40625 
L 10.984375 69.390625 
L 28.421875 72.90625 
L 38.28125 72.90625 
L 38.28125 8.296875 
L 54.390625 8.296875 
L 54.390625 0 
L 12.40625 0 
z
" id="DejaVuSans-49"/>
        <path d="M 31.78125 66.40625 
Q 24.171875 66.40625 20.328125 58.90625 
Q 16.5 51.421875 16.5 36.375 
Q 16.5 21.390625 20.328125 13.890625 
Q 24.171875 6.390625 31.78125 6.390625 
Q 39.453125 6.390625 43.28125 13.890625 
Q 47.125 21.390625 47.125 36.375 
Q 47.125 51.421875 43.28125 58.90625 
Q 39.453125 66.40625 31.78125 66.40625 
z
M 31.78125 74.21875 
Q 44.046875 74.21875 50.515625 64.515625 
Q 56.984375 54.828125 56.984375 36.375 
Q 56.984375 17.96875 50.515625 8.265625 
Q 44.046875 -1.421875 31.78125 -1.421875 
Q 19.53125 -1.421875 13.0625 8.265625 
Q 6.59375 17.96875 6.59375 36.375 
Q 6.59375 54.828125 13.0625 64.515625 
Q 19.53125 74.21875 31.78125 74.21875 
z
" id="DejaVuSans-48"/>
       </defs>
       <use transform="translate(0 0.765625)" xlink:href="#DejaVuSans-49"/>
       <use transform="translate(63.623047 0.765625)" xlink:href="#DejaVuSans-48"/>
       <use transform="translate(128.203125 39.046875)scale(0.7)" xlink:href="#DejaVuSans-48"/>
      </g>
     </g>
    </g>
    <g id="xtick_2">
     <g id="line2d_3">
      <path clip-path="url(#pbd1eeabc3a)" d="M 158.493182 308.6 
L 158.493182 26.8 
" style="fill:none;stroke:#808080;stroke-linecap:square;stroke-width:0.8;"/>
     </g>
     <g id="line2d_4">
      <g>
       <use style="stroke:#000000;stroke-width:0.8;" x="158.493182" xlink:href="#m67fee7fe1d" y="308.6"/>
      </g>
     </g>
     <g id="text_2">
      <!-- $\mathdefault{10^{1}}$ -->
      <g transform="translate(147.933182 324.718125)scale(0.12 -0.12)">
       <use transform="translate(0 0.684375)" xlink:href="#DejaVuSans-49"/>
       <use transform="translate(63.623047 0.684375)" xlink:href="#DejaVuSans-48"/>
       <use transform="translate(128.203125 38.965625)scale(0.7)" xlink:href="#DejaVuSans-49"/>
      </g>
     </g>
    </g>
    <g id="xtick_3">
     <g id="line2d_5">
      <path clip-path="url(#pbd1eeabc3a)" d="M 237.247727 308.6 
L 237.247727 26.8 
" style="fill:none;stroke:#808080;stroke-linecap:square;stroke-width:0.8;"/>
     </g>
     <g id="line2d_6">
      <g>
       <use style="stroke:#000000;stroke-width:0.8;" x="237.247727" xlink:href="#m67fee7fe1d" y="308.6"/>
      </g>
     </g>
     <g id="text_3">
      <!-- $\mathdefault{10^{2}}$ -->
      <g transform="translate(226.687727 324.718125)scale(0.12 -0.12)">
       <defs>
        <path d="M 19.1875 8.296875 
L 53.609375 8.296875 
L 53.609375 0 
L 7.328125 0 
L 7.328125 8.296875 
Q 12.9375 14.109375 22.625 23.890625 
Q 32.328125 33.6875 34.8125 36.53125 
Q 39.546875 41.84375 41.421875 45.53125 
Q 43.3125 49.21875 43.3125 52.78125 
Q 43.3125 58.59375 39.234375 62.25 
Q 35.15625 65.921875 28.609375 65.921875 
Q 23.96875 65.921875 18.8125 64.3125 
Q 13.671875 62.703125 7.8125 59.421875 
L 7.8125 69.390625 
Q 13.765625 71.78125 18.9375 73 
Q 24.125 74.21875 28.421875 74.21875 
Q 39.75 74.21875 46.484375 68.546875 
Q 53.21875 62.890625 53.21875 53.421875 
Q 53.21875 48.921875 51.53125 44.890625 
Q 49.859375 40.875 45.40625 35.40625 
Q 44.1875 33.984375 37.640625 27.21875 
Q 31.109375 20.453125 19.1875 8.296875 
z
" id="DejaVuSans-50"/>
       </defs>
       <use transform="translate(0 0.765625)" xlink:href="#DejaVuSans-49"/>
       <use transform="translate(63.623047 0.765625)" xlink:href="#DejaVuSans-48"/>
       <use transform="translate(128.203125 39.046875)scale(0.7)" xlink:href="#DejaVuSans-50"/>
      </g>
     </g>
    </g>
    <g id="xtick_4">
     <g id="line2d_7">
      <path clip-path="url(#pbd1eeabc3a)" d="M 316.002273 308.6 
L 316.002273 26.8 
" style="fill:none;stroke:#808080;stroke-linecap:square;stroke-width:0.8;"/>
     </g>
     <g id="line2d_8">
      <g>
       <use style="stroke:#000000;stroke-width:0.8;" x="316.002273" xlink:href="#m67fee7fe1d" y="308.6"/>
      </g>
     </g>
     <g id="text_4">
      <!-- $\mathdefault{10^{3}}$ -->
      <g transform="translate(305.442273 324.718125)scale(0.12 -0.12)">
       <defs>
        <path d="M 40.578125 39.3125 
Q 47.65625 37.796875 51.625 33 
Q 55.609375 28.21875 55.609375 21.1875 
Q 55.609375 10.40625 48.1875 4.484375 
Q 40.765625 -1.421875 27.09375 -1.421875 
Q 22.515625 -1.421875 17.65625 -0.515625 
Q 12.796875 0.390625 7.625 2.203125 
L 7.625 11.71875 
Q 11.71875 9.328125 16.59375 8.109375 
Q 21.484375 6.890625 26.8125 6.890625 
Q 36.078125 6.890625 40.9375 10.546875 
Q 45.796875 14.203125 45.796875 21.1875 
Q 45.796875 27.640625 41.28125 31.265625 
Q 36.765625 34.90625 28.71875 34.90625 
L 20.21875 34.90625 
L 20.21875 43.015625 
L 29.109375 43.015625 
Q 36.375 43.015625 40.234375 45.921875 
Q 44.09375 48.828125 44.09375 54.296875 
Q 44.09375 59.90625 40.109375 62.90625 
Q 36.140625 65.921875 28.71875 65.921875 
Q 24.65625 65.921875 20.015625 65.03125 
Q 15.375 64.15625 9.8125 62.3125 
L 9.8125 71.09375 
Q 15.4375 72.65625 20.34375 73.4375 
Q 25.25 74.21875 29.59375 74.21875 
Q 40.828125 74.21875 47.359375 69.109375 
Q 53.90625 64.015625 53.90625 55.328125 
Q 53.90625 49.265625 50.4375 45.09375 
Q 46.96875 40.921875 40.578125 39.3125 
z
" id="DejaVuSans-51"/>
       </defs>
       <use transform="translate(0 0.765625)" xlink:href="#DejaVuSans-49"/>
       <use transform="translate(63.623047 0.765625)" xlink:href="#DejaVuSans-48"/>
       <use transform="translate(128.203125 39.046875)scale(0.7)" xlink:href="#DejaVuSans-51"/>
      </g>
     </g>
    </g>
    <g id="xtick_5">
     <g id="line2d_9">
      <path clip-path="url(#pbd1eeabc3a)" d="M 394.756818 308.6 
L 394.756818 26.8 
" style="fill:none;stroke:#808080;stroke-linecap:square;stroke-width:0.8;"/>
     </g>
     <g id="line2d_10">
      <g>
       <use style="stroke:#000000;stroke-width:0.8;" x="394.756818" xlink:href="#m67fee7fe1d" y="308.6"/>
      </g>
     </g>
     <g id="text_5">
      <!-- $\mathdefault{10^{4}}$ -->
      <g transform="translate(384.196818 324.718125)scale(0.12 -0.12)">
       <defs>
        <path d="M 37.796875 64.3125 
L 12.890625 25.390625 
L 37.796875 25.390625 
z
M 35.203125 72.90625 
L 47.609375 72.90625 
L 47.609375 25.390625 
L 58.015625 25.390625 
L 58.015625 17.1875 
L 47.609375 17.1875 
L 47.609375 0 
L 37.796875 0 
L 37.796875 17.1875 
L 4.890625 17.1875 
L 4.890625 26.703125 
z
" id="DejaVuSans-52"/>
       </defs>
       <use transform="translate(0 0.684375)" xlink:href="#DejaVuSans-49"/>
       <use transform="translate(63.623047 0.684375)" xlink:href="#DejaVuSans-48"/>
       <use transform="translate(128.203125 38.965625)scale(0.7)" xlink:href="#DejaVuSans-52"/>
      </g>
     </g>
    </g>
    <g id="xtick_6">
     <g id="line2d_11">
      <path clip-path="url(#pbd1eeabc3a)" d="M 473.511364 308.6 
L 473.511364 26.8 
" style="fill:none;stroke:#808080;stroke-linecap:square;stroke-width:0.8;"/>
     </g>
     <g id="line2d_12">
      <g>
       <use style="stroke:#000000;stroke-width:0.8;" x="473.511364" xlink:href="#m67fee7fe1d" y="308.6"/>
      </g>
     </g>
     <g id="text_6">
      <!-- $\mathdefault{10^{5}}$ -->
      <g transform="translate(462.951364 324.718125)scale(0.12 -0.12)">
       <defs>
        <path d="M 10.796875 72.90625 
L 49.515625 72.90625 
L 49.515625 64.59375 
L 19.828125 64.59375 
L 19.828125 46.734375 
Q 21.96875 47.46875 24.109375 47.828125 
Q 26.265625 48.1875 28.421875 48.1875 
Q 40.625 48.1875 47.75 41.5 
Q 54.890625 34.8125 54.890625 23.390625 
Q 54.890625 11.625 47.5625 5.09375 
Q 40.234375 -1.421875 26.90625 -1.421875 
Q 22.3125 -1.421875 17.546875 -0.640625 
Q 12.796875 0.140625 7.71875 1.703125 
L 7.71875 11.625 
Q 12.109375 9.234375 16.796875 8.0625 
Q 21.484375 6.890625 26.703125 6.890625 
Q 35.15625 6.890625 40.078125 11.328125 
Q 45.015625 15.765625 45.015625 23.390625 
Q 45.015625 31 40.078125 35.4375 
Q 35.15625 39.890625 26.703125 39.890625 
Q 22.75 39.890625 18.8125 39.015625 
Q 14.890625 38.140625 10.796875 36.28125 
z
" id="DejaVuSans-53"/>
       </defs>
       <use transform="translate(0 0.684375)" xlink:href="#DejaVuSans-49"/>
       <use transform="translate(63.623047 0.684375)" xlink:href="#DejaVuSans-48"/>
       <use transform="translate(128.203125 38.965625)scale(0.7)" xlink:href="#DejaVuSans-53"/>
      </g>
     </g>
    </g>
    <g id="xtick_7">
     <g id="line2d_13">
      <path clip-path="url(#pbd1eeabc3a)" d="M 62.267039 308.6 
L 62.267039 26.8 
" style="fill:none;stroke:#808080;stroke-dasharray:0.8,1.32;stroke-dashoffset:0;stroke-width:0.8;"/>
     </g>
     <g id="line2d_14">
      <defs>
       <path d="M 0 0 
L 0 2 
" id="m19fce7422a" style="stroke:#000000;stroke-width:0.6;"/>
      </defs>
      <g>
       <use style="stroke:#000000;stroke-width:0.6;" x="62.267039" xlink:href="#m19fce7422a" y="308.6"/>
      </g>
     </g>
    </g>
    <g id="xtick_8">
     <g id="line2d_15">
      <path clip-path="url(#pbd1eeabc3a)" d="M 67.539403 308.6 
L 67.539403 26.8 
" style="fill:none;stroke:#808080;stroke-dasharray:0.8,1.32;stroke-dashoffset:0;stroke-width:0.8;"/>
     </g>
     <g id="line2d_16">
      <g>
       <use style="stroke:#000000;stroke-width:0.6;" x="67.539403" xlink:href="#m19fce7422a" y="308.6"/>
      </g>
     </g>
    </g>
    <g id="xtick_9">
     <g id="line2d_17">
      <path clip-path="url(#pbd1eeabc3a)" d="M 72.106532 308.6 
L 72.106532 26.8 
" style="fill:none;stroke:#808080;stroke-dasharray:0.8,1.32;stroke-dashoffset:0;stroke-width:0.8;"/>
     </g>
     <g id="line2d_18">
      <g>
       <use style="stroke:#000000;stroke-width:0.6;" x="72.106532" xlink:href="#m19fce7422a" y="308.6"/>
      </g>
     </g>
    </g>
    <g id="xtick_10">
     <g id="line2d_19">
      <path clip-path="url(#pbd1eeabc3a)" d="M 76.135026 308.6 
L 76.135026 26.8 
" style="fill:none;stroke:#808080;stroke-dasharray:0.8,1.32;stroke-dashoffset:0;stroke-width:0.8;"/>
     </g>
     <g id="line2d_20">
      <g>
       <use style="stroke:#000000;stroke-width:0.6;" x="76.135026" xlink:href="#m19fce7422a" y="308.6"/>
      </g>
     </g>
    </g>
    <g id="xtick_11">
     <g id="line2d_21">
      <path clip-path="url(#pbd1eeabc3a)" d="M 103.446117 308.6 
L 103.446117 26.8 
" style="fill:none;stroke:#808080;stroke-dasharray:0.8,1.32;stroke-dashoffset:0;stroke-width:0.8;"/>
     </g>
     <g id="line2d_22">
      <g>
       <use style="stroke:#000000;stroke-width:0.6;" x="103.446117" xlink:href="#m19fce7422a" y="308.6"/>
      </g>
     </g>
    </g>
    <g id="xtick_12">
     <g id="line2d_23">
      <path clip-path="url(#pbd1eeabc3a)" d="M 117.314104 308.6 
L 117.314104 26.8 
" style="fill:none;stroke:#808080;stroke-dasharray:0.8,1.32;stroke-dashoffset:0;stroke-width:0.8;"/>
     </g>
     <g id="line2d_24">
      <g>
       <use style="stroke:#000000;stroke-width:0.6;" x="117.314104" xlink:href="#m19fce7422a" y="308.6"/>
      </g>
     </g>
    </g>
    <g id="xtick_13">
     <g id="line2d_25">
      <path clip-path="url(#pbd1eeabc3a)" d="M 127.153597 308.6 
L 127.153597 26.8 
" style="fill:none;stroke:#808080;stroke-dasharray:0.8,1.32;stroke-dashoffset:0;stroke-width:0.8;"/>
     </g>
     <g id="line2d_26">
      <g>
       <use style="stroke:#000000;stroke-width:0.6;" x="127.153597" xlink:href="#m19fce7422a" y="308.6"/>
      </g>
     </g>
    </g>
    <g id="xtick_14">
     <g id="line2d_27">
      <path clip-path="url(#pbd1eeabc3a)" d="M 134.785701 308.6 
L 134.785701 26.8 
" style="fill:none;stroke:#808080;stroke-dasharray:0.8,1.32;stroke-dashoffset:0;stroke-width:0.8;"/>
     </g>
     <g id="line2d_28">
      <g>
       <use style="stroke:#000000;stroke-width:0.6;" x="134.785701" xlink:href="#m19fce7422a" y="308.6"/>
      </g>
     </g>
    </g>
    <g id="xtick_15">
     <g id="line2d_29">
      <path clip-path="url(#pbd1eeabc3a)" d="M 141.021584 308.6 
L 141.021584 26.8 
" style="fill:none;stroke:#808080;stroke-dasharray:0.8,1.32;stroke-dashoffset:0;stroke-width:0.8;"/>
     </g>
     <g id="line2d_30">
      <g>
       <use style="stroke:#000000;stroke-width:0.6;" x="141.021584" xlink:href="#m19fce7422a" y="308.6"/>
      </g>
     </g>
    </g>
    <g id="xtick_16">
     <g id="line2d_31">
      <path clip-path="url(#pbd1eeabc3a)" d="M 146.293948 308.6 
L 146.293948 26.8 
" style="fill:none;stroke:#808080;stroke-dasharray:0.8,1.32;stroke-dashoffset:0;stroke-width:0.8;"/>
     </g>
     <g id="line2d_32">
      <g>
       <use style="stroke:#000000;stroke-width:0.6;" x="146.293948" xlink:href="#m19fce7422a" y="308.6"/>
      </g>
     </g>
    </g>
    <g id="xtick_17">
     <g id="line2d_33">
      <path clip-path="url(#pbd1eeabc3a)" d="M 150.861078 308.6 
L 150.861078 26.8 
" style="fill:none;stroke:#808080;stroke-dasharray:0.8,1.32;stroke-dashoffset:0;stroke-width:0.8;"/>
     </g>
     <g id="line2d_34">
      <g>
       <use style="stroke:#000000;stroke-width:0.6;" x="150.861078" xlink:href="#m19fce7422a" y="308.6"/>
      </g>
     </g>
    </g>
    <g id="xtick_18">
     <g id="line2d_35">
      <path clip-path="url(#pbd1eeabc3a)" d="M 154.889571 308.6 
L 154.889571 26.8 
" style="fill:none;stroke:#808080;stroke-dasharray:0.8,1.32;stroke-dashoffset:0;stroke-width:0.8;"/>
     </g>
     <g id="line2d_36">
      <g>
       <use style="stroke:#000000;stroke-width:0.6;" x="154.889571" xlink:href="#m19fce7422a" y="308.6"/>
      </g>
     </g>
    </g>
    <g id="xtick_19">
     <g id="line2d_37">
      <path clip-path="url(#pbd1eeabc3a)" d="M 182.200662 308.6 
L 182.200662 26.8 
" style="fill:none;stroke:#808080;stroke-dasharray:0.8,1.32;stroke-dashoffset:0;stroke-width:0.8;"/>
     </g>
     <g id="line2d_38">
      <g>
       <use style="stroke:#000000;stroke-width:0.6;" x="182.200662" xlink:href="#m19fce7422a" y="308.6"/>
      </g>
     </g>
    </g>
    <g id="xtick_20">
     <g id="line2d_39">
      <path clip-path="url(#pbd1eeabc3a)" d="M 196.068649 308.6 
L 196.068649 26.8 
" style="fill:none;stroke:#808080;stroke-dasharray:0.8,1.32;stroke-dashoffset:0;stroke-width:0.8;"/>
     </g>
     <g id="line2d_40">
      <g>
       <use style="stroke:#000000;stroke-width:0.6;" x="196.068649" xlink:href="#m19fce7422a" y="308.6"/>
      </g>
     </g>
    </g>
    <g id="xtick_21">
     <g id="line2d_41">
      <path clip-path="url(#pbd1eeabc3a)" d="M 205.908143 308.6 
L 205.908143 26.8 
" style="fill:none;stroke:#808080;stroke-dasharray:0.8,1.32;stroke-dashoffset:0;stroke-width:0.8;"/>
     </g>
     <g id="line2d_42">
      <g>
       <use style="stroke:#000000;stroke-width:0.6;" x="205.908143" xlink:href="#m19fce7422a" y="308.6"/>
      </g>
     </g>
    </g>
    <g id="xtick_22">
     <g id="line2d_43">
      <path clip-path="url(#pbd1eeabc3a)" d="M 213.540247 308.6 
L 213.540247 26.8 
" style="fill:none;stroke:#808080;stroke-dasharray:0.8,1.32;stroke-dashoffset:0;stroke-width:0.8;"/>
     </g>
     <g id="line2d_44">
      <g>
       <use style="stroke:#000000;stroke-width:0.6;" x="213.540247" xlink:href="#m19fce7422a" y="308.6"/>
      </g>
     </g>
    </g>
    <g id="xtick_23">
     <g id="line2d_45">
      <path clip-path="url(#pbd1eeabc3a)" d="M 219.77613 308.6 
L 219.77613 26.8 
" style="fill:none;stroke:#808080;stroke-dasharray:0.8,1.32;stroke-dashoffset:0;stroke-width:0.8;"/>
     </g>
     <g id="line2d_46">
      <g>
       <use style="stroke:#000000;stroke-width:0.6;" x="219.77613" xlink:href="#m19fce7422a" y="308.6"/>
      </g>
     </g>
    </g>
    <g id="xtick_24">
     <g id="line2d_47">
      <path clip-path="url(#pbd1eeabc3a)" d="M 225.048494 308.6 
L 225.048494 26.8 
" style="fill:none;stroke:#808080;stroke-dasharray:0.8,1.32;stroke-dashoffset:0;stroke-width:0.8;"/>
     </g>
     <g id="line2d_48">
      <g>
       <use style="stroke:#000000;stroke-width:0.6;" x="225.048494" xlink:href="#m19fce7422a" y="308.6"/>
      </g>
     </g>
    </g>
    <g id="xtick_25">
     <g id="line2d_49">
      <path clip-path="url(#pbd1eeabc3a)" d="M 229.615623 308.6 
L 229.615623 26.8 
" style="fill:none;stroke:#808080;stroke-dasharray:0.8,1.32;stroke-dashoffset:0;stroke-width:0.8;"/>
     </g>
     <g id="line2d_50">
      <g>
       <use style="stroke:#000000;stroke-width:0.6;" x="229.615623" xlink:href="#m19fce7422a" y="308.6"/>
      </g>
     </g>
    </g>
    <g id="xtick_26">
     <g id="line2d_51">
      <path clip-path="url(#pbd1eeabc3a)" d="M 233.644117 308.6 
L 233.644117 26.8 
" style="fill:none;stroke:#808080;stroke-dasharray:0.8,1.32;stroke-dashoffset:0;stroke-width:0.8;"/>
     </g>
     <g id="line2d_52">
      <g>
       <use style="stroke:#000000;stroke-width:0.6;" x="233.644117" xlink:href="#m19fce7422a" y="308.6"/>
      </g>
     </g>
    </g>
    <g id="xtick_27">
     <g id="line2d_53">
      <path clip-path="url(#pbd1eeabc3a)" d="M 260.955208 308.6 
L 260.955208 26.8 
" style="fill:none;stroke:#808080;stroke-dasharray:0.8,1.32;stroke-dashoffset:0;stroke-width:0.8;"/>
     </g>
     <g id="line2d_54">
      <g>
       <use style="stroke:#000000;stroke-width:0.6;" x="260.955208" xlink:href="#m19fce7422a" y="308.6"/>
      </g>
     </g>
    </g>
    <g id="xtick_28">
     <g id="line2d_55">
      <path clip-path="url(#pbd1eeabc3a)" d="M 274.823195 308.6 
L 274.823195 26.8 
" style="fill:none;stroke:#808080;stroke-dasharray:0.8,1.32;stroke-dashoffset:0;stroke-width:0.8;"/>
     </g>
     <g id="line2d_56">
      <g>
       <use style="stroke:#000000;stroke-width:0.6;" x="274.823195" xlink:href="#m19fce7422a" y="308.6"/>
      </g>
     </g>
    </g>
    <g id="xtick_29">
     <g id="line2d_57">
      <path clip-path="url(#pbd1eeabc3a)" d="M 284.662688 308.6 
L 284.662688 26.8 
" style="fill:none;stroke:#808080;stroke-dasharray:0.8,1.32;stroke-dashoffset:0;stroke-width:0.8;"/>
     </g>
     <g id="line2d_58">
      <g>
       <use style="stroke:#000000;stroke-width:0.6;" x="284.662688" xlink:href="#m19fce7422a" y="308.6"/>
      </g>
     </g>
    </g>
    <g id="xtick_30">
     <g id="line2d_59">
      <path clip-path="url(#pbd1eeabc3a)" d="M 292.294792 308.6 
L 292.294792 26.8 
" style="fill:none;stroke:#808080;stroke-dasharray:0.8,1.32;stroke-dashoffset:0;stroke-width:0.8;"/>
     </g>
     <g id="line2d_60">
      <g>
       <use style="stroke:#000000;stroke-width:0.6;" x="292.294792" xlink:href="#m19fce7422a" y="308.6"/>
      </g>
     </g>
    </g>
    <g id="xtick_31">
     <g id="line2d_61">
      <path clip-path="url(#pbd1eeabc3a)" d="M 298.530675 308.6 
L 298.530675 26.8 
" style="fill:none;stroke:#808080;stroke-dasharray:0.8,1.32;stroke-dashoffset:0;stroke-width:0.8;"/>
     </g>
     <g id="line2d_62">
      <g>
       <use style="stroke:#000000;stroke-width:0.6;" x="298.530675" xlink:href="#m19fce7422a" y="308.6"/>
      </g>
     </g>
    </g>
    <g id="xtick_32">
     <g id="line2d_63">
      <path clip-path="url(#pbd1eeabc3a)" d="M 303.803039 308.6 
L 303.803039 26.8 
" style="fill:none;stroke:#808080;stroke-dasharray:0.8,1.32;stroke-dashoffset:0;stroke-width:0.8;"/>
     </g>
     <g id="line2d_64">
      <g>
       <use style="stroke:#000000;stroke-width:0.6;" x="303.803039" xlink:href="#m19fce7422a" y="308.6"/>
      </g>
     </g>
    </g>
    <g id="xtick_33">
     <g id="line2d_65">
      <path clip-path="url(#pbd1eeabc3a)" d="M 308.370169 308.6 
L 308.370169 26.8 
" style="fill:none;stroke:#808080;stroke-dasharray:0.8,1.32;stroke-dashoffset:0;stroke-width:0.8;"/>
     </g>
     <g id="line2d_66">
      <g>
       <use style="stroke:#000000;stroke-width:0.6;" x="308.370169" xlink:href="#m19fce7422a" y="308.6"/>
      </g>
     </g>
    </g>
    <g id="xtick_34">
     <g id="line2d_67">
      <path clip-path="url(#pbd1eeabc3a)" d="M 312.398662 308.6 
L 312.398662 26.8 
" style="fill:none;stroke:#808080;stroke-dasharray:0.8,1.32;stroke-dashoffset:0;stroke-width:0.8;"/>
     </g>
     <g id="line2d_68">
      <g>
       <use style="stroke:#000000;stroke-width:0.6;" x="312.398662" xlink:href="#m19fce7422a" y="308.6"/>
      </g>
     </g>
    </g>
    <g id="xtick_35">
     <g id="line2d_69">
      <path clip-path="url(#pbd1eeabc3a)" d="M 339.709753 308.6 
L 339.709753 26.8 
" style="fill:none;stroke:#808080;stroke-dasharray:0.8,1.32;stroke-dashoffset:0;stroke-width:0.8;"/>
     </g>
     <g id="line2d_70">
      <g>
       <use style="stroke:#000000;stroke-width:0.6;" x="339.709753" xlink:href="#m19fce7422a" y="308.6"/>
      </g>
     </g>
    </g>
    <g id="xtick_36">
     <g id="line2d_71">
      <path clip-path="url(#pbd1eeabc3a)" d="M 353.57774 308.6 
L 353.57774 26.8 
" style="fill:none;stroke:#808080;stroke-dasharray:0.8,1.32;stroke-dashoffset:0;stroke-width:0.8;"/>
     </g>
     <g id="line2d_72">
      <g>
       <use style="stroke:#000000;stroke-width:0.6;" x="353.57774" xlink:href="#m19fce7422a" y="308.6"/>
      </g>
     </g>
    </g>
    <g id="xtick_37">
     <g id="line2d_73">
      <path clip-path="url(#pbd1eeabc3a)" d="M 363.417234 308.6 
L 363.417234 26.8 
" style="fill:none;stroke:#808080;stroke-dasharray:0.8,1.32;stroke-dashoffset:0;stroke-width:0.8;"/>
     </g>
     <g id="line2d_74">
      <g>
       <use style="stroke:#000000;stroke-width:0.6;" x="363.417234" xlink:href="#m19fce7422a" y="308.6"/>
      </g>
     </g>
    </g>
    <g id="xtick_38">
     <g id="line2d_75">
      <path clip-path="url(#pbd1eeabc3a)" d="M 371.049338 308.6 
L 371.049338 26.8 
" style="fill:none;stroke:#808080;stroke-dasharray:0.8,1.32;stroke-dashoffset:0;stroke-width:0.8;"/>
     </g>
     <g id="line2d_76">
      <g>
       <use style="stroke:#000000;stroke-width:0.6;" x="371.049338" xlink:href="#m19fce7422a" y="308.6"/>
      </g>
     </g>
    </g>
    <g id="xtick_39">
     <g id="line2d_77">
      <path clip-path="url(#pbd1eeabc3a)" d="M 377.285221 308.6 
L 377.285221 26.8 
" style="fill:none;stroke:#808080;stroke-dasharray:0.8,1.32;stroke-dashoffset:0;stroke-width:0.8;"/>
     </g>
     <g id="line2d_78">
      <g>
       <use style="stroke:#000000;stroke-width:0.6;" x="377.285221" xlink:href="#m19fce7422a" y="308.6"/>
      </g>
     </g>
    </g>
    <g id="xtick_40">
     <g id="line2d_79">
      <path clip-path="url(#pbd1eeabc3a)" d="M 382.557585 308.6 
L 382.557585 26.8 
" style="fill:none;stroke:#808080;stroke-dasharray:0.8,1.32;stroke-dashoffset:0;stroke-width:0.8;"/>
     </g>
     <g id="line2d_80">
      <g>
       <use style="stroke:#000000;stroke-width:0.6;" x="382.557585" xlink:href="#m19fce7422a" y="308.6"/>
      </g>
     </g>
    </g>
    <g id="xtick_41">
     <g id="line2d_81">
      <path clip-path="url(#pbd1eeabc3a)" d="M 387.124714 308.6 
L 387.124714 26.8 
" style="fill:none;stroke:#808080;stroke-dasharray:0.8,1.32;stroke-dashoffset:0;stroke-width:0.8;"/>
     </g>
     <g id="line2d_82">
      <g>
       <use style="stroke:#000000;stroke-width:0.6;" x="387.124714" xlink:href="#m19fce7422a" y="308.6"/>
      </g>
     </g>
    </g>
    <g id="xtick_42">
     <g id="line2d_83">
      <path clip-path="url(#pbd1eeabc3a)" d="M 391.153208 308.6 
L 391.153208 26.8 
" style="fill:none;stroke:#808080;stroke-dasharray:0.8,1.32;stroke-dashoffset:0;stroke-width:0.8;"/>
     </g>
     <g id="line2d_84">
      <g>
       <use style="stroke:#000000;stroke-width:0.6;" x="391.153208" xlink:href="#m19fce7422a" y="308.6"/>
      </g>
     </g>
    </g>
    <g id="xtick_43">
     <g id="line2d_85">
      <path clip-path="url(#pbd1eeabc3a)" d="M 418.464299 308.6 
L 418.464299 26.8 
" style="fill:none;stroke:#808080;stroke-dasharray:0.8,1.32;stroke-dashoffset:0;stroke-width:0.8;"/>
     </g>
     <g id="line2d_86">
      <g>
       <use style="stroke:#000000;stroke-width:0.6;" x="418.464299" xlink:href="#m19fce7422a" y="308.6"/>
      </g>
     </g>
    </g>
    <g id="xtick_44">
     <g id="line2d_87">
      <path clip-path="url(#pbd1eeabc3a)" d="M 432.332286 308.6 
L 432.332286 26.8 
" style="fill:none;stroke:#808080;stroke-dasharray:0.8,1.32;stroke-dashoffset:0;stroke-width:0.8;"/>
     </g>
     <g id="line2d_88">
      <g>
       <use style="stroke:#000000;stroke-width:0.6;" x="432.332286" xlink:href="#m19fce7422a" y="308.6"/>
      </g>
     </g>
    </g>
    <g id="xtick_45">
     <g id="line2d_89">
      <path clip-path="url(#pbd1eeabc3a)" d="M 442.171779 308.6 
L 442.171779 26.8 
" style="fill:none;stroke:#808080;stroke-dasharray:0.8,1.32;stroke-dashoffset:0;stroke-width:0.8;"/>
     </g>
     <g id="line2d_90">
      <g>
       <use style="stroke:#000000;stroke-width:0.6;" x="442.171779" xlink:href="#m19fce7422a" y="308.6"/>
      </g>
     </g>
    </g>
    <g id="xtick_46">
     <g id="line2d_91">
      <path clip-path="url(#pbd1eeabc3a)" d="M 449.803883 308.6 
L 449.803883 26.8 
" style="fill:none;stroke:#808080;stroke-dasharray:0.8,1.32;stroke-dashoffset:0;stroke-width:0.8;"/>
     </g>
     <g id="line2d_92">
      <g>
       <use style="stroke:#000000;stroke-width:0.6;" x="449.803883" xlink:href="#m19fce7422a" y="308.6"/>
      </g>
     </g>
    </g>
    <g id="xtick_47">
     <g id="line2d_93">
      <path clip-path="url(#pbd1eeabc3a)" d="M 456.039766 308.6 
L 456.039766 26.8 
" style="fill:none;stroke:#808080;stroke-dasharray:0.8,1.32;stroke-dashoffset:0;stroke-width:0.8;"/>
     </g>
     <g id="line2d_94">
      <g>
       <use style="stroke:#000000;stroke-width:0.6;" x="456.039766" xlink:href="#m19fce7422a" y="308.6"/>
      </g>
     </g>
    </g>
    <g id="xtick_48">
     <g id="line2d_95">
      <path clip-path="url(#pbd1eeabc3a)" d="M 461.31213 308.6 
L 461.31213 26.8 
" style="fill:none;stroke:#808080;stroke-dasharray:0.8,1.32;stroke-dashoffset:0;stroke-width:0.8;"/>
     </g>
     <g id="line2d_96">
      <g>
       <use style="stroke:#000000;stroke-width:0.6;" x="461.31213" xlink:href="#m19fce7422a" y="308.6"/>
      </g>
     </g>
    </g>
    <g id="xtick_49">
     <g id="line2d_97">
      <path clip-path="url(#pbd1eeabc3a)" d="M 465.87926 308.6 
L 465.87926 26.8 
" style="fill:none;stroke:#808080;stroke-dasharray:0.8,1.32;stroke-dashoffset:0;stroke-width:0.8;"/>
     </g>
     <g id="line2d_98">
      <g>
       <use style="stroke:#000000;stroke-width:0.6;" x="465.87926" xlink:href="#m19fce7422a" y="308.6"/>
      </g>
     </g>
    </g>
    <g id="xtick_50">
     <g id="line2d_99">
      <path clip-path="url(#pbd1eeabc3a)" d="M 469.907753 308.6 
L 469.907753 26.8 
" style="fill:none;stroke:#808080;stroke-dasharray:0.8,1.32;stroke-dashoffset:0;stroke-width:0.8;"/>
     </g>
     <g id="line2d_100">
      <g>
       <use style="stroke:#000000;stroke-width:0.6;" x="469.907753" xlink:href="#m19fce7422a" y="308.6"/>
      </g>
     </g>
    </g>
    <g id="text_7">
     <!-- frequency [MHz] -->
     <g transform="translate(227.10625 340.331875)scale(0.12 -0.12)">
      <defs>
       <path d="M 37.109375 75.984375 
L 37.109375 68.5 
L 28.515625 68.5 
Q 23.6875 68.5 21.796875 66.546875 
Q 19.921875 64.59375 19.921875 59.515625 
L 19.921875 54.6875 
L 34.71875 54.6875 
L 34.71875 47.703125 
L 19.921875 47.703125 
L 19.921875 0 
L 10.890625 0 
L 10.890625 47.703125 
L 2.296875 47.703125 
L 2.296875 54.6875 
L 10.890625 54.6875 
L 10.890625 58.5 
Q 10.890625 67.625 15.140625 71.796875 
Q 19.390625 75.984375 28.609375 75.984375 
z
" id="DejaVuSans-102"/>
       <path d="M 41.109375 46.296875 
Q 39.59375 47.171875 37.8125 47.578125 
Q 36.03125 48 33.890625 48 
Q 26.265625 48 22.1875 43.046875 
Q 18.109375 38.09375 18.109375 28.8125 
L 18.109375 0 
L 9.078125 0 
L 9.078125 54.6875 
L 18.109375 54.6875 
L 18.109375 46.1875 
Q 20.953125 51.171875 25.484375 53.578125 
Q 30.03125 56 36.53125 56 
Q 37.453125 56 38.578125 55.875 
Q 39.703125 55.765625 41.0625 55.515625 
z
" id="DejaVuSans-114"/>
       <path d="M 56.203125 29.59375 
L 56.203125 25.203125 
L 14.890625 25.203125 
Q 15.484375 15.921875 20.484375 11.0625 
Q 25.484375 6.203125 34.421875 6.203125 
Q 39.59375 6.203125 44.453125 7.46875 
Q 49.3125 8.734375 54.109375 11.28125 
L 54.109375 2.78125 
Q 49.265625 0.734375 44.1875 -0.34375 
Q 39.109375 -1.421875 33.890625 -1.421875 
Q 20.796875 -1.421875 13.15625 6.1875 
Q 5.515625 13.8125 5.515625 26.8125 
Q 5.515625 40.234375 12.765625 48.109375 
Q 20.015625 56 32.328125 56 
Q 43.359375 56 49.78125 48.890625 
Q 56.203125 41.796875 56.203125 29.59375 
z
M 47.21875 32.234375 
Q 47.125 39.59375 43.09375 43.984375 
Q 39.0625 48.390625 32.421875 48.390625 
Q 24.90625 48.390625 20.390625 44.140625 
Q 15.875 39.890625 15.1875 32.171875 
z
" id="DejaVuSans-101"/>
       <path d="M 14.796875 27.296875 
Q 14.796875 17.390625 18.875 11.75 
Q 22.953125 6.109375 30.078125 6.109375 
Q 37.203125 6.109375 41.296875 11.75 
Q 45.40625 17.390625 45.40625 27.296875 
Q 45.40625 37.203125 41.296875 42.84375 
Q 37.203125 48.484375 30.078125 48.484375 
Q 22.953125 48.484375 18.875 42.84375 
Q 14.796875 37.203125 14.796875 27.296875 
z
M 45.40625 8.203125 
Q 42.578125 3.328125 38.25 0.953125 
Q 33.9375 -1.421875 27.875 -1.421875 
Q 17.96875 -1.421875 11.734375 6.484375 
Q 5.515625 14.40625 5.515625 27.296875 
Q 5.515625 40.1875 11.734375 48.09375 
Q 17.96875 56 27.875 56 
Q 33.9375 56 38.25 53.625 
Q 42.578125 51.265625 45.40625 46.390625 
L 45.40625 54.6875 
L 54.390625 54.6875 
L 54.390625 -20.796875 
L 45.40625 -20.796875 
z
" id="DejaVuSans-113"/>
       <path d="M 8.5 21.578125 
L 8.5 54.6875 
L 17.484375 54.6875 
L 17.484375 21.921875 
Q 17.484375 14.15625 20.5 10.265625 
Q 23.53125 6.390625 29.59375 6.390625 
Q 36.859375 6.390625 41.078125 11.03125 
Q 45.3125 15.671875 45.3125 23.6875 
L 45.3125 54.6875 
L 54.296875 54.6875 
L 54.296875 0 
L 45.3125 0 
L 45.3125 8.40625 
Q 42.046875 3.421875 37.71875 1 
Q 33.40625 -1.421875 27.6875 -1.421875 
Q 18.265625 -1.421875 13.375 4.4375 
Q 8.5 10.296875 8.5 21.578125 
z
M 31.109375 56 
z
" id="DejaVuSans-117"/>
       <path d="M 54.890625 33.015625 
L 54.890625 0 
L 45.90625 0 
L 45.90625 32.71875 
Q 45.90625 40.484375 42.875 44.328125 
Q 39.84375 48.1875 33.796875 48.1875 
Q 26.515625 48.1875 22.3125 43.546875 
Q 18.109375 38.921875 18.109375 30.90625 
L 18.109375 0 
L 9.078125 0 
L 9.078125 54.6875 
L 18.109375 54.6875 
L 18.109375 46.1875 
Q 21.34375 51.125 25.703125 53.5625 
Q 30.078125 56 35.796875 56 
Q 45.21875 56 50.046875 50.171875 
Q 54.890625 44.34375 54.890625 33.015625 
z
" id="DejaVuSans-110"/>
       <path d="M 48.78125 52.59375 
L 48.78125 44.1875 
Q 44.96875 46.296875 41.140625 47.34375 
Q 37.3125 48.390625 33.40625 48.390625 
Q 24.65625 48.390625 19.8125 42.84375 
Q 14.984375 37.3125 14.984375 27.296875 
Q 14.984375 17.28125 19.8125 11.734375 
Q 24.65625 6.203125 33.40625 6.203125 
Q 37.3125 6.203125 41.140625 7.25 
Q 44.96875 8.296875 48.78125 10.40625 
L 48.78125 2.09375 
Q 45.015625 0.34375 40.984375 -0.53125 
Q 36.96875 -1.421875 32.421875 -1.421875 
Q 20.0625 -1.421875 12.78125 6.34375 
Q 5.515625 14.109375 5.515625 27.296875 
Q 5.515625 40.671875 12.859375 48.328125 
Q 20.21875 56 33.015625 56 
Q 37.15625 56 41.109375 55.140625 
Q 45.0625 54.296875 48.78125 52.59375 
z
" id="DejaVuSans-99"/>
       <path d="M 32.171875 -5.078125 
Q 28.375 -14.84375 24.75 -17.8125 
Q 21.140625 -20.796875 15.09375 -20.796875 
L 7.90625 -20.796875 
L 7.90625 -13.28125 
L 13.1875 -13.28125 
Q 16.890625 -13.28125 18.9375 -11.515625 
Q 21 -9.765625 23.484375 -3.21875 
L 25.09375 0.875 
L 2.984375 54.6875 
L 12.5 54.6875 
L 29.59375 11.921875 
L 46.6875 54.6875 
L 56.203125 54.6875 
z
" id="DejaVuSans-121"/>
       <path id="DejaVuSans-32"/>
       <path d="M 8.59375 75.984375 
L 29.296875 75.984375 
L 29.296875 69 
L 17.578125 69 
L 17.578125 -6.203125 
L 29.296875 -6.203125 
L 29.296875 -13.1875 
L 8.59375 -13.1875 
z
" id="DejaVuSans-91"/>
       <path d="M 9.8125 72.90625 
L 24.515625 72.90625 
L 43.109375 23.296875 
L 61.8125 72.90625 
L 76.515625 72.90625 
L 76.515625 0 
L 66.890625 0 
L 66.890625 64.015625 
L 48.09375 14.015625 
L 38.1875 14.015625 
L 19.390625 64.015625 
L 19.390625 0 
L 9.8125 0 
z
" id="DejaVuSans-77"/>
       <path d="M 9.8125 72.90625 
L 19.671875 72.90625 
L 19.671875 43.015625 
L 55.515625 43.015625 
L 55.515625 72.90625 
L 65.375 72.90625 
L 65.375 0 
L 55.515625 0 
L 55.515625 34.71875 
L 19.671875 34.71875 
L 19.671875 0 
L 9.8125 0 
z
" id="DejaVuSans-72"/>
       <path d="M 5.515625 54.6875 
L 48.1875 54.6875 
L 48.1875 46.484375 
L 14.40625 7.171875 
L 48.1875 7.171875 
L 48.1875 0 
L 4.296875 0 
L 4.296875 8.203125 
L 38.09375 47.515625 
L 5.515625 47.515625 
z
" id="DejaVuSans-122"/>
       <path d="M 30.421875 75.984375 
L 30.421875 -13.1875 
L 9.71875 -13.1875 
L 9.71875 -6.203125 
L 21.390625 -6.203125 
L 21.390625 69 
L 9.71875 69 
L 9.71875 75.984375 
z
" id="DejaVuSans-93"/>
      </defs>
      <use xlink:href="#DejaVuSans-102"/>
      <use x="35.205078" xlink:href="#DejaVuSans-114"/>
      <use x="74.068359" xlink:href="#DejaVuSans-101"/>
      <use x="135.591797" xlink:href="#DejaVuSans-113"/>
      <use x="199.068359" xlink:href="#DejaVuSans-117"/>
      <use x="262.447266" xlink:href="#DejaVuSans-101"/>
      <use x="323.970703" xlink:href="#DejaVuSans-110"/>
      <use x="387.349609" xlink:href="#DejaVuSans-99"/>
      <use x="442.330078" xlink:href="#DejaVuSans-121"/>
      <use x="501.509766" xlink:href="#DejaVuSans-32"/>
      <use x="533.296875" xlink:href="#DejaVuSans-91"/>
      <use x="572.310547" xlink:href="#DejaVuSans-77"/>
      <use x="658.589844" xlink:href="#DejaVuSans-72"/>
      <use x="733.785156" xlink:href="#DejaVuSans-122"/>
      <use x="786.275391" xlink:href="#DejaVuSans-93"/>
     </g>
    </g>
   </g>
   <g id="matplotlib.axis_2">
    <g id="ytick_1">
     <g id="line2d_101">
      <path clip-path="url(#pbd1eeabc3a)" d="M 60.05 267.454974 
L 493.2 267.454974 
" style="fill:none;stroke:#808080;stroke-linecap:square;stroke-width:0.8;"/>
     </g>
     <g id="line2d_102">
      <defs>
       <path d="M 0 0 
L -3.5 0 
" id="m1414d54710" style="stroke:#000000;stroke-width:0.8;"/>
      </defs>
      <g>
       <use style="stroke:#000000;stroke-width:0.8;" x="60.05" xlink:href="#m1414d54710" y="267.454974"/>
      </g>
     </g>
     <g id="text_8">
      <!-- −60 -->
      <g transform="translate(27.724375 272.014037)scale(0.12 -0.12)">
       <defs>
        <path d="M 10.59375 35.5 
L 73.1875 35.5 
L 73.1875 27.203125 
L 10.59375 27.203125 
z
" id="DejaVuSans-8722"/>
        <path d="M 33.015625 40.375 
Q 26.375 40.375 22.484375 35.828125 
Q 18.609375 31.296875 18.609375 23.390625 
Q 18.609375 15.53125 22.484375 10.953125 
Q 26.375 6.390625 33.015625 6.390625 
Q 39.65625 6.390625 43.53125 10.953125 
Q 47.40625 15.53125 47.40625 23.390625 
Q 47.40625 31.296875 43.53125 35.828125 
Q 39.65625 40.375 33.015625 40.375 
z
M 52.59375 71.296875 
L 52.59375 62.3125 
Q 48.875 64.0625 45.09375 64.984375 
Q 41.3125 65.921875 37.59375 65.921875 
Q 27.828125 65.921875 22.671875 59.328125 
Q 17.53125 52.734375 16.796875 39.40625 
Q 19.671875 43.65625 24.015625 45.921875 
Q 28.375 48.1875 33.59375 48.1875 
Q 44.578125 48.1875 50.953125 41.515625 
Q 57.328125 34.859375 57.328125 23.390625 
Q 57.328125 12.15625 50.6875 5.359375 
Q 44.046875 -1.421875 33.015625 -1.421875 
Q 20.359375 -1.421875 13.671875 8.265625 
Q 6.984375 17.96875 6.984375 36.375 
Q 6.984375 53.65625 15.1875 63.9375 
Q 23.390625 74.21875 37.203125 74.21875 
Q 40.921875 74.21875 44.703125 73.484375 
Q 48.484375 72.75 52.59375 71.296875 
z
" id="DejaVuSans-54"/>
       </defs>
       <use xlink:href="#DejaVuSans-8722"/>
       <use x="83.789062" xlink:href="#DejaVuSans-54"/>
       <use x="147.412109" xlink:href="#DejaVuSans-48"/>
      </g>
     </g>
    </g>
    <g id="ytick_2">
     <g id="line2d_103">
      <path clip-path="url(#pbd1eeabc3a)" d="M 60.05 225.206925 
L 493.2 225.206925 
" style="fill:none;stroke:#808080;stroke-linecap:square;stroke-width:0.8;"/>
     </g>
     <g id="line2d_104">
      <g>
       <use style="stroke:#000000;stroke-width:0.8;" x="60.05" xlink:href="#m1414d54710" y="225.206925"/>
      </g>
     </g>
     <g id="text_9">
      <!-- −50 -->
      <g transform="translate(27.724375 229.765987)scale(0.12 -0.12)">
       <use xlink:href="#DejaVuSans-8722"/>
       <use x="83.789062" xlink:href="#DejaVuSans-53"/>
       <use x="147.412109" xlink:href="#DejaVuSans-48"/>
      </g>
     </g>
    </g>
    <g id="ytick_3">
     <g id="line2d_105">
      <path clip-path="url(#pbd1eeabc3a)" d="M 60.05 182.958875 
L 493.2 182.958875 
" style="fill:none;stroke:#808080;stroke-linecap:square;stroke-width:0.8;"/>
     </g>
     <g id="line2d_106">
      <g>
       <use style="stroke:#000000;stroke-width:0.8;" x="60.05" xlink:href="#m1414d54710" y="182.958875"/>
      </g>
     </g>
     <g id="text_10">
      <!-- −40 -->
      <g transform="translate(27.724375 187.517938)scale(0.12 -0.12)">
       <use xlink:href="#DejaVuSans-8722"/>
       <use x="83.789062" xlink:href="#DejaVuSans-52"/>
       <use x="147.412109" xlink:href="#DejaVuSans-48"/>
      </g>
     </g>
    </g>
    <g id="ytick_4">
     <g id="line2d_107">
      <path clip-path="url(#pbd1eeabc3a)" d="M 60.05 140.710826 
L 493.2 140.710826 
" style="fill:none;stroke:#808080;stroke-linecap:square;stroke-width:0.8;"/>
     </g>
     <g id="line2d_108">
      <g>
       <use style="stroke:#000000;stroke-width:0.8;" x="60.05" xlink:href="#m1414d54710" y="140.710826"/>
      </g>
     </g>
     <g id="text_11">
      <!-- −30 -->
      <g transform="translate(27.724375 145.269888)scale(0.12 -0.12)">
       <use xlink:href="#DejaVuSans-8722"/>
       <use x="83.789062" xlink:href="#DejaVuSans-51"/>
       <use x="147.412109" xlink:href="#DejaVuSans-48"/>
      </g>
     </g>
    </g>
    <g id="ytick_5">
     <g id="line2d_109">
      <path clip-path="url(#pbd1eeabc3a)" d="M 60.05 98.462776 
L 493.2 98.462776 
" style="fill:none;stroke:#808080;stroke-linecap:square;stroke-width:0.8;"/>
     </g>
     <g id="line2d_110">
      <g>
       <use style="stroke:#000000;stroke-width:0.8;" x="60.05" xlink:href="#m1414d54710" y="98.462776"/>
      </g>
     </g>
     <g id="text_12">
      <!-- −20 -->
      <g transform="translate(27.724375 103.021839)scale(0.12 -0.12)">
       <use xlink:href="#DejaVuSans-8722"/>
       <use x="83.789062" xlink:href="#DejaVuSans-50"/>
       <use x="147.412109" xlink:href="#DejaVuSans-48"/>
      </g>
     </g>
    </g>
    <g id="ytick_6">
     <g id="line2d_111">
      <path clip-path="url(#pbd1eeabc3a)" d="M 60.05 56.214727 
L 493.2 56.214727 
" style="fill:none;stroke:#808080;stroke-linecap:square;stroke-width:0.8;"/>
     </g>
     <g id="line2d_112">
      <g>
       <use style="stroke:#000000;stroke-width:0.8;" x="60.05" xlink:href="#m1414d54710" y="56.214727"/>
      </g>
     </g>
     <g id="text_13">
      <!-- −10 -->
      <g transform="translate(27.724375 60.773789)scale(0.12 -0.12)">
       <use xlink:href="#DejaVuSans-8722"/>
       <use x="83.789062" xlink:href="#DejaVuSans-49"/>
       <use x="147.412109" xlink:href="#DejaVuSans-48"/>
      </g>
     </g>
    </g>
    <g id="text_14">
     <!-- magnitude [dB] -->
     <g transform="translate(21.22875 214.669687)rotate(-90)scale(0.12 -0.12)">
      <defs>
       <path d="M 52 44.1875 
Q 55.375 50.25 60.0625 53.125 
Q 64.75 56 71.09375 56 
Q 79.640625 56 84.28125 50.015625 
Q 88.921875 44.046875 88.921875 33.015625 
L 88.921875 0 
L 79.890625 0 
L 79.890625 32.71875 
Q 79.890625 40.578125 77.09375 44.375 
Q 74.3125 48.1875 68.609375 48.1875 
Q 61.625 48.1875 57.5625 43.546875 
Q 53.515625 38.921875 53.515625 30.90625 
L 53.515625 0 
L 44.484375 0 
L 44.484375 32.71875 
Q 44.484375 40.625 41.703125 44.40625 
Q 38.921875 48.1875 33.109375 48.1875 
Q 26.21875 48.1875 22.15625 43.53125 
Q 18.109375 38.875 18.109375 30.90625 
L 18.109375 0 
L 9.078125 0 
L 9.078125 54.6875 
L 18.109375 54.6875 
L 18.109375 46.1875 
Q 21.1875 51.21875 25.484375 53.609375 
Q 29.78125 56 35.6875 56 
Q 41.65625 56 45.828125 52.96875 
Q 50 49.953125 52 44.1875 
z
" id="DejaVuSans-109"/>
       <path d="M 34.28125 27.484375 
Q 23.390625 27.484375 19.1875 25 
Q 14.984375 22.515625 14.984375 16.5 
Q 14.984375 11.71875 18.140625 8.90625 
Q 21.296875 6.109375 26.703125 6.109375 
Q 34.1875 6.109375 38.703125 11.40625 
Q 43.21875 16.703125 43.21875 25.484375 
L 43.21875 27.484375 
z
M 52.203125 31.203125 
L 52.203125 0 
L 43.21875 0 
L 43.21875 8.296875 
Q 40.140625 3.328125 35.546875 0.953125 
Q 30.953125 -1.421875 24.3125 -1.421875 
Q 15.921875 -1.421875 10.953125 3.296875 
Q 6 8.015625 6 15.921875 
Q 6 25.140625 12.171875 29.828125 
Q 18.359375 34.515625 30.609375 34.515625 
L 43.21875 34.515625 
L 43.21875 35.40625 
Q 43.21875 41.609375 39.140625 45 
Q 35.0625 48.390625 27.6875 48.390625 
Q 23 48.390625 18.546875 47.265625 
Q 14.109375 46.140625 10.015625 43.890625 
L 10.015625 52.203125 
Q 14.9375 54.109375 19.578125 55.046875 
Q 24.21875 56 28.609375 56 
Q 40.484375 56 46.34375 49.84375 
Q 52.203125 43.703125 52.203125 31.203125 
z
" id="DejaVuSans-97"/>
       <path d="M 45.40625 27.984375 
Q 45.40625 37.75 41.375 43.109375 
Q 37.359375 48.484375 30.078125 48.484375 
Q 22.859375 48.484375 18.828125 43.109375 
Q 14.796875 37.75 14.796875 27.984375 
Q 14.796875 18.265625 18.828125 12.890625 
Q 22.859375 7.515625 30.078125 7.515625 
Q 37.359375 7.515625 41.375 12.890625 
Q 45.40625 18.265625 45.40625 27.984375 
z
M 54.390625 6.78125 
Q 54.390625 -7.171875 48.1875 -13.984375 
Q 42 -20.796875 29.203125 -20.796875 
Q 24.46875 -20.796875 20.265625 -20.09375 
Q 16.0625 -19.390625 12.109375 -17.921875 
L 12.109375 -9.1875 
Q 16.0625 -11.328125 19.921875 -12.34375 
Q 23.78125 -13.375 27.78125 -13.375 
Q 36.625 -13.375 41.015625 -8.765625 
Q 45.40625 -4.15625 45.40625 5.171875 
L 45.40625 9.625 
Q 42.625 4.78125 38.28125 2.390625 
Q 33.9375 0 27.875 0 
Q 17.828125 0 11.671875 7.65625 
Q 5.515625 15.328125 5.515625 27.984375 
Q 5.515625 40.671875 11.671875 48.328125 
Q 17.828125 56 27.875 56 
Q 33.9375 56 38.28125 53.609375 
Q 42.625 51.21875 45.40625 46.390625 
L 45.40625 54.6875 
L 54.390625 54.6875 
z
" id="DejaVuSans-103"/>
       <path d="M 9.421875 54.6875 
L 18.40625 54.6875 
L 18.40625 0 
L 9.421875 0 
z
M 9.421875 75.984375 
L 18.40625 75.984375 
L 18.40625 64.59375 
L 9.421875 64.59375 
z
" id="DejaVuSans-105"/>
       <path d="M 18.3125 70.21875 
L 18.3125 54.6875 
L 36.8125 54.6875 
L 36.8125 47.703125 
L 18.3125 47.703125 
L 18.3125 18.015625 
Q 18.3125 11.328125 20.140625 9.421875 
Q 21.96875 7.515625 27.59375 7.515625 
L 36.8125 7.515625 
L 36.8125 0 
L 27.59375 0 
Q 17.1875 0 13.234375 3.875 
Q 9.28125 7.765625 9.28125 18.015625 
L 9.28125 47.703125 
L 2.6875 47.703125 
L 2.6875 54.6875 
L 9.28125 54.6875 
L 9.28125 70.21875 
z
" id="DejaVuSans-116"/>
       <path d="M 45.40625 46.390625 
L 45.40625 75.984375 
L 54.390625 75.984375 
L 54.390625 0 
L 45.40625 0 
L 45.40625 8.203125 
Q 42.578125 3.328125 38.25 0.953125 
Q 33.9375 -1.421875 27.875 -1.421875 
Q 17.96875 -1.421875 11.734375 6.484375 
Q 5.515625 14.40625 5.515625 27.296875 
Q 5.515625 40.1875 11.734375 48.09375 
Q 17.96875 56 27.875 56 
Q 33.9375 56 38.25 53.625 
Q 42.578125 51.265625 45.40625 46.390625 
z
M 14.796875 27.296875 
Q 14.796875 17.390625 18.875 11.75 
Q 22.953125 6.109375 30.078125 6.109375 
Q 37.203125 6.109375 41.296875 11.75 
Q 45.40625 17.390625 45.40625 27.296875 
Q 45.40625 37.203125 41.296875 42.84375 
Q 37.203125 48.484375 30.078125 48.484375 
Q 22.953125 48.484375 18.875 42.84375 
Q 14.796875 37.203125 14.796875 27.296875 
z
" id="DejaVuSans-100"/>
       <path d="M 19.671875 34.8125 
L 19.671875 8.109375 
L 35.5 8.109375 
Q 43.453125 8.109375 47.28125 11.40625 
Q 51.125 14.703125 51.125 21.484375 
Q 51.125 28.328125 47.28125 31.5625 
Q 43.453125 34.8125 35.5 34.8125 
z
M 19.671875 64.796875 
L 19.671875 42.828125 
L 34.28125 42.828125 
Q 41.5 42.828125 45.03125 45.53125 
Q 48.578125 48.25 48.578125 53.8125 
Q 48.578125 59.328125 45.03125 62.0625 
Q 41.5 64.796875 34.28125 64.796875 
z
M 9.8125 72.90625 
L 35.015625 72.90625 
Q 46.296875 72.90625 52.390625 68.21875 
Q 58.5 63.53125 58.5 54.890625 
Q 58.5 48.1875 55.375 44.234375 
Q 52.25 40.28125 46.1875 39.3125 
Q 53.46875 37.75 57.5 32.78125 
Q 61.53125 27.828125 61.53125 20.40625 
Q 61.53125 10.640625 54.890625 5.3125 
Q 48.25 0 35.984375 0 
L 9.8125 0 
z
" id="DejaVuSans-66"/>
      </defs>
      <use xlink:href="#DejaVuSans-109"/>
      <use x="97.412109" xlink:href="#DejaVuSans-97"/>
      <use x="158.691406" xlink:href="#DejaVuSans-103"/>
      <use x="222.167969" xlink:href="#DejaVuSans-110"/>
      <use x="285.546875" xlink:href="#DejaVuSans-105"/>
      <use x="313.330078" xlink:href="#DejaVuSans-116"/>
      <use x="352.539062" xlink:href="#DejaVuSans-117"/>
      <use x="415.917969" xlink:href="#DejaVuSans-100"/>
      <use x="479.394531" xlink:href="#DejaVuSans-101"/>
      <use x="540.917969" xlink:href="#DejaVuSans-32"/>
      <use x="572.705078" xlink:href="#DejaVuSans-91"/>
      <use x="611.71875" xlink:href="#DejaVuSans-100"/>
      <use x="675.195312" xlink:href="#DejaVuSans-66"/>
      <use x="743.798828" xlink:href="#DejaVuSans-93"/>
     </g>
    </g>
   </g>
   <g id="line2d_113">
    <path clip-path="url(#pbd1eeabc3a)" d="M 79.738636 39.609091 
L 83.716139 39.609091 
L 87.693641 39.609091 
L 91.671143 39.609092 
L 95.648646 39.609092 
L 99.626148 39.609092 
L 103.60365 39.609093 
L 107.581152 39.609094 
L 111.558655 39.609094 
L 115.536157 39.609096 
L 119.513659 39.609097 
L 123.491162 39.609099 
L 127.468664 39.609101 
L 131.446166 39.609104 
L 135.423669 39.609107 
L 139.401171 39.609112 
L 143.378673 39.609117 
L 147.356175 39.609125 
L 151.333678 39.609134 
L 155.31118 39.609145 
L 159.288682 39.609159 
L 163.266185 39.609177 
L 167.243687 39.6092 
L 171.221189 39.609229 
L 175.198691 39.609265 
L 179.176194 39.609311 
L 183.153696 39.609369 
L 187.131198 39.609442 
L 191.108701 39.609534 
L 195.086203 39.60965 
L 199.063705 39.609797 
L 203.041208 39.609982 
L 207.01871 39.610216 
L 210.996212 39.610511 
L 214.973714 39.610885 
L 218.951217 39.611356 
L 222.928719 39.611953 
L 226.906221 39.612707 
L 230.883724 39.613662 
L 234.861226 39.614871 
L 238.838728 39.616404 
L 242.81623 39.618349 
L 246.793733 39.620822 
L 250.771235 39.623971 
L 254.748737 39.627989 
L 258.72624 39.633131 
L 262.703742 39.639733 
L 266.681244 39.648243 
L 270.658747 39.659265 
L 274.636249 39.673618 
L 278.613751 39.692429 
L 282.591253 39.71726 
L 286.568756 39.750297 
L 290.546258 39.79462 
L 294.52376 39.854592 
L 298.501263 39.936402 
L 302.478765 40.048813 
L 306.456267 40.204135 
L 310.43377 40.419409 
L 314.411272 40.717679 
L 318.388774 41.129023 
L 322.366276 41.690706 
L 326.343779 42.44551 
L 330.321281 43.437172 
L 334.298783 44.702405 
L 338.276286 46.260496 
L 342.253788 48.103516 
L 346.23129 50.191423 
L 350.208792 52.455123 
L 354.186295 54.807073 
L 358.163797 57.155609 
L 362.141299 59.41819 
L 366.118802 61.53024 
L 370.096304 63.448744 
L 374.073806 65.151532 
L 378.051309 66.633905 
L 382.028811 67.904174 
L 386.006313 68.979229 
L 389.983815 69.880772 
L 393.961318 70.632465 
L 397.93882 71.25797 
L 401.916322 71.779779 
L 405.893825 72.21862 
L 409.871327 72.593306 
L 413.848829 72.920852 
L 417.826331 73.216775 
L 421.803834 73.495499 
L 425.781336 73.770804 
L 429.758838 74.056301 
L 433.736341 74.365905 
L 437.713843 74.71428 
L 441.691345 75.117243 
L 445.668848 75.592077 
L 449.64635 76.157732 
L 453.623852 76.834824 
L 457.601354 77.645393 
L 461.578857 78.612351 
L 465.556359 79.758581 
L 469.533861 81.10571 
L 473.511364 82.672656 
" style="fill:none;stroke:#ff0000;stroke-linecap:square;stroke-width:2;"/>
   </g>
   <g id="line2d_114">
    <path clip-path="url(#pbd1eeabc3a)" d="M 79.738636 39.609092 
L 83.716139 39.609093 
L 87.693641 39.609093 
L 91.671143 39.609094 
L 95.648646 39.609095 
L 99.626148 39.609097 
L 103.60365 39.609098 
L 107.581152 39.6091 
L 111.558655 39.609103 
L 115.536157 39.609107 
L 119.513659 39.609111 
L 123.491162 39.609116 
L 127.468664 39.609123 
L 131.446166 39.609132 
L 135.423669 39.609142 
L 139.401171 39.609156 
L 143.378673 39.609173 
L 147.356175 39.609195 
L 151.333678 39.609222 
L 155.31118 39.609257 
L 159.288682 39.609301 
L 163.266185 39.609356 
L 167.243687 39.609425 
L 171.221189 39.609513 
L 175.198691 39.609624 
L 179.176194 39.609763 
L 183.153696 39.609939 
L 187.131198 39.610162 
L 191.108701 39.610442 
L 195.086203 39.610797 
L 199.063705 39.611243 
L 203.041208 39.611807 
L 207.01871 39.612519 
L 210.996212 39.613418 
L 214.973714 39.614552 
L 218.951217 39.615983 
L 222.928719 39.61779 
L 226.906221 39.620071 
L 230.883724 39.622952 
L 234.861226 39.62659 
L 238.838728 39.631185 
L 242.81623 39.636991 
L 246.793733 39.64433 
L 250.771235 39.653609 
L 254.748737 39.665349 
L 258.72624 39.68021 
L 262.703742 39.699038 
L 266.681244 39.722916 
L 270.658747 39.753233 
L 274.636249 39.791782 
L 278.613751 39.840879 
L 282.591253 39.903536 
L 286.568756 39.98368 
L 290.546258 40.08645 
L 294.52376 40.218586 
L 298.501263 40.388931 
L 302.478765 40.609057 
L 306.456267 40.893983 
L 310.43377 41.262936 
L 314.411272 41.739937 
L 318.388774 42.3539 
L 322.366276 43.137699 
L 326.343779 44.125572 
L 330.321281 45.348351 
L 334.298783 46.826682 
L 338.276286 48.563471 
L 342.253788 50.538008 
L 346.23129 52.704423 
L 350.208792 54.995924 
L 354.186295 57.333926 
L 358.163797 59.639255 
L 362.141299 61.842196 
L 366.118802 63.889198 
L 370.096304 65.745587 
L 374.073806 67.394935 
L 378.051309 68.836242 
L 382.028811 70.080169 
L 386.006313 71.145243 
L 389.983815 72.054605 
L 393.961318 72.83354 
L 397.93882 73.507824 
L 401.916322 74.102766 
L 405.893825 74.642815 
L 409.871327 75.151549 
L 413.848829 75.651929 
L 417.826331 76.166675 
L 421.803834 76.718686 
L 425.781336 77.331408 
L 429.758838 78.029051 
L 433.736341 78.836603 
L 437.713843 79.779533 
L 441.691345 80.883154 
L 445.668848 82.171623 
L 449.64635 83.666652 
L 453.623852 85.386064 
L 457.601354 87.342424 
L 461.578857 89.542007 
L 465.556359 91.98431 
L 469.533861 94.662235 
L 473.511364 97.562916 
" style="fill:none;stroke:#0000ff;stroke-linecap:square;stroke-width:2;"/>
   </g>
   <g id="line2d_115">
    <path clip-path="url(#pbd1eeabc3a)" d="M 79.738636 39.609095 
L 83.716139 39.609097 
L 87.693641 39.609098 
L 91.671143 39.609101 
L 95.648646 39.609103 
L 99.626148 39.609107 
L 103.60365 39.609111 
L 107.581152 39.609117 
L 111.558655 39.609123 
L 115.536157 39.609132 
L 119.513659 39.609143 
L 123.491162 39.609157 
L 127.468664 39.609174 
L 131.446166 39.609196 
L 135.423669 39.609224 
L 139.401171 39.609259 
L 143.378673 39.609303 
L 147.356175 39.609359 
L 151.333678 39.60943 
L 155.31118 39.609519 
L 159.288682 39.609631 
L 163.266185 39.609772 
L 167.243687 39.609951 
L 171.221189 39.610176 
L 175.198691 39.61046 
L 179.176194 39.610819 
L 183.153696 39.611272 
L 187.131198 39.611843 
L 191.108701 39.612564 
L 195.086203 39.613473 
L 199.063705 39.614621 
L 203.041208 39.616069 
L 207.01871 39.617896 
L 210.996212 39.620202 
L 214.973714 39.623111 
L 218.951217 39.626781 
L 222.928719 39.631412 
L 226.906221 39.637254 
L 230.883724 39.644624 
L 234.861226 39.653922 
L 238.838728 39.66565 
L 242.81623 39.680442 
L 246.793733 39.699096 
L 250.771235 39.722617 
L 254.748737 39.752269 
L 258.72624 39.789641 
L 262.703742 39.836728 
L 266.681244 39.89603 
L 270.658747 39.97068 
L 274.636249 40.064587 
L 278.613751 40.182621 
L 282.591253 40.330823 
L 286.568756 40.516651 
L 290.546258 40.749252 
L 294.52376 41.039748 
L 298.501263 41.401506 
L 302.478765 41.850344 
L 306.456267 42.404582 
L 310.43377 43.08482 
L 314.411272 43.913268 
L 318.388774 44.912433 
L 322.366276 46.102996 
L 326.343779 47.500826 
L 330.321281 49.113351 
L 334.298783 50.935868 
L 338.276286 52.94872 
L 342.253788 55.116401 
L 346.23129 57.389334 
L 350.208792 59.708361 
L 354.186295 62.011126 
L 358.163797 64.238962 
L 362.141299 66.342821 
L 366.118802 68.287193 
L 370.096304 70.051665 
L 374.073806 71.630357 
L 378.051309 73.029887 
L 382.028811 74.266623 
L 386.006313 75.363872 
L 389.983815 76.349443 
L 393.961318 77.253791 
L 397.93882 78.108762 
L 401.916322 78.946851 
L 405.893825 79.800796 
L 409.871327 80.703338 
L 413.848829 81.68697 
L 417.826331 82.783519 
L 421.803834 84.023464 
L 425.781336 85.434944 
L 429.758838 87.042527 
L 433.736341 88.865877 
L 437.713843 90.918547 
L 441.691345 93.20716 
L 445.668848 95.731154 
L 449.64635 98.48321 
L 453.623852 101.450262 
L 457.601354 104.614936 
L 461.578857 107.957147 
L 465.556359 111.455629 
L 469.533861 115.089233 
L 473.511364 118.837887 
" style="fill:none;stroke:#008000;stroke-linecap:square;stroke-width:2;"/>
   </g>
   <g id="line2d_116">
    <path clip-path="url(#pbd1eeabc3a)" d="M 79.738636 39.609104 
L 83.716139 39.609107 
L 87.693641 39.609111 
L 91.671143 39.609117 
L 95.648646 39.609124 
L 99.626148 39.609133 
L 103.60365 39.609144 
L 107.581152 39.609158 
L 111.558655 39.609176 
L 115.536157 39.609198 
L 119.513659 39.609226 
L 123.491162 39.609262 
L 127.468664 39.609306 
L 131.446166 39.609363 
L 135.423669 39.609434 
L 139.401171 39.609525 
L 143.378673 39.609638 
L 147.356175 39.609782 
L 151.333678 39.609963 
L 155.31118 39.610192 
L 159.288682 39.61048 
L 163.266185 39.610844 
L 167.243687 39.611303 
L 171.221189 39.611882 
L 175.198691 39.612613 
L 179.176194 39.613536 
L 183.153696 39.614699 
L 187.131198 39.616168 
L 191.108701 39.618021 
L 195.086203 39.620359 
L 199.063705 39.623308 
L 203.041208 39.627029 
L 207.01871 39.631723 
L 210.996212 39.637644 
L 214.973714 39.645112 
L 218.951217 39.654531 
L 222.928719 39.666408 
L 226.906221 39.681383 
L 230.883724 39.700259 
L 234.861226 39.724045 
L 238.838728 39.754009 
L 242.81623 39.791738 
L 246.793733 39.839218 
L 250.771235 39.898927 
L 254.748737 39.973949 
L 258.72624 40.068108 
L 262.703742 40.186123 
L 266.681244 40.333786 
L 270.658747 40.51815 
L 274.636249 40.747733 
L 278.613751 41.032695 
L 282.591253 41.384987 
L 286.568756 41.818404 
L 290.546258 42.348505 
L 294.52376 42.992317 
L 298.501263 43.767753 
L 302.478765 44.692692 
L 306.456267 45.78369 
L 310.43377 47.05437 
L 314.411272 48.51362 
L 318.388774 50.163822 
L 322.366276 51.999382 
L 326.343779 54.005828 
L 330.321281 56.159688 
L 334.298783 58.42923 
L 338.276286 60.776031 
L 342.253788 63.157267 
L 346.23129 65.528532 
L 350.208792 67.846967 
L 354.186295 70.074418 
L 358.163797 72.180271 
L 362.141299 74.143643 
L 366.118802 75.954619 
L 370.096304 77.614453 
L 374.073806 79.134796 
L 378.051309 80.536233 
L 382.028811 81.846452 
L 386.006313 83.098351 
L 389.983815 84.328267 
L 393.961318 85.574403 
L 397.93882 86.875412 
L 401.916322 88.26902 
L 405.893825 89.790632 
L 409.871327 91.471867 
L 413.848829 93.339099 
L 417.826331 95.412162 
L 421.803834 97.703432 
L 425.781336 100.21747 
L 429.758838 102.951336 
L 433.736341 105.895543 
L 437.713843 109.03547 
L 441.691345 112.353014 
L 445.668848 115.828221 
L 449.64635 119.440703 
L 453.623852 123.170741 
L 457.601354 127.000041 
L 461.578857 130.912173 
L 465.556359 134.892748 
L 469.533861 138.929424 
L 473.511364 143.011778 
" style="fill:none;stroke:#00bfbf;stroke-linecap:square;stroke-width:2;"/>
   </g>
   <g id="line2d_117">
    <path clip-path="url(#pbd1eeabc3a)" d="M 79.738636 39.609127 
L 83.716139 39.609137 
L 87.693641 39.609149 
L 91.671143 39.609164 
L 95.648646 39.609183 
L 99.626148 39.609208 
L 103.60365 39.609238 
L 107.581152 39.609277 
L 111.558655 39.609326 
L 115.536157 39.609388 
L 119.513659 39.609466 
L 123.491162 39.609564 
L 127.468664 39.609689 
L 131.446166 39.609845 
L 135.423669 39.610043 
L 139.401171 39.610293 
L 143.378673 39.610607 
L 147.356175 39.611005 
L 151.333678 39.611506 
L 155.31118 39.612138 
L 159.288682 39.612936 
L 163.266185 39.613943 
L 167.243687 39.615214 
L 171.221189 39.616817 
L 175.198691 39.61884 
L 179.176194 39.621392 
L 183.153696 39.624612 
L 187.131198 39.628674 
L 191.108701 39.633798 
L 195.086203 39.640262 
L 199.063705 39.648414 
L 203.041208 39.658696 
L 207.01871 39.671661 
L 210.996212 39.688007 
L 214.973714 39.70861 
L 218.951217 39.734571 
L 222.928719 39.767272 
L 226.906221 39.808443 
L 230.883724 39.86025 
L 234.861226 39.925392 
L 238.838728 40.007226 
L 242.81623 40.109912 
L 246.793733 40.238581 
L 250.771235 40.399522 
L 254.748737 40.600384 
L 258.72624 40.850388 
L 262.703742 41.160517 
L 266.681244 41.543654 
L 270.658747 42.014635 
L 274.636249 42.590143 
L 278.613751 43.288376 
L 282.591253 44.128421 
L 286.568756 45.129295 
L 290.546258 46.30862 
L 294.52376 47.681025 
L 298.501263 49.256422 
L 302.478765 51.03837 
L 306.456267 53.02281 
L 310.43377 55.19738 
L 314.411272 57.541448 
L 318.388774 60.026839 
L 322.366276 62.619159 
L 326.343779 65.279518 
L 330.321281 67.966504 
L 334.298783 70.638286 
L 338.276286 73.254809 
L 342.253788 75.780026 
L 346.23129 78.1841 
L 350.208792 80.445415 
L 354.186295 82.552189 
L 358.163797 84.503415 
L 362.141299 86.308982 
L 366.118802 87.988913 
L 370.096304 89.571868 
L 374.073806 91.093146 
L 378.051309 92.592454 
L 382.028811 94.111641 
L 386.006313 95.69252 
L 389.983815 97.3748 
L 393.961318 99.194156 
L 397.93882 101.180498 
L 401.916322 103.356571 
L 405.893825 105.73705 
L 409.871327 108.328281 
L 413.848829 111.128729 
L 417.826331 114.130055 
L 421.803834 117.318644 
L 425.781336 120.67732 
L 429.758838 124.187008 
L 433.736341 127.828165 
L 437.713843 131.581874 
L 441.691345 135.430582 
L 445.668848 139.358532 
L 449.64635 143.351935 
L 453.623852 147.398969 
L 457.601354 151.489658 
L 461.578857 155.615694 
L 465.556359 159.770225 
L 469.533861 163.947651 
L 473.511364 168.143419 
" style="fill:none;stroke:#bf00bf;stroke-linecap:square;stroke-width:2;"/>
   </g>
   <g id="line2d_118">
    <path clip-path="url(#pbd1eeabc3a)" d="M 79.738636 39.609203 
L 83.716139 39.609233 
L 87.693641 39.60927 
L 91.671143 39.609317 
L 95.648646 39.609376 
L 99.626148 39.609451 
L 103.60365 39.609545 
L 107.581152 39.609665 
L 111.558655 39.609815 
L 115.536157 39.610005 
L 119.513659 39.610244 
L 123.491162 39.610546 
L 127.468664 39.610927 
L 131.446166 39.611408 
L 135.423669 39.612015 
L 139.401171 39.612781 
L 143.378673 39.613748 
L 147.356175 39.614967 
L 151.333678 39.616506 
L 155.31118 39.618447 
L 159.288682 39.620896 
L 163.266185 39.623987 
L 167.243687 39.627885 
L 171.221189 39.632803 
L 175.198691 39.639008 
L 179.176194 39.646833 
L 183.153696 39.656703 
L 187.131198 39.66915 
L 191.108701 39.684843 
L 195.086203 39.704625 
L 199.063705 39.729556 
L 203.041208 39.760965 
L 207.01871 39.800518 
L 210.996212 39.850302 
L 214.973714 39.912921 
L 218.951217 39.991621 
L 222.928719 40.090427 
L 226.906221 40.214318 
L 230.883724 40.369412 
L 234.861226 40.563181 
L 238.838728 40.804673 
L 242.81623 41.104726 
L 246.793733 41.476153 
L 250.771235 41.933857 
L 254.748737 42.494806 
L 258.72624 43.177826 
L 262.703742 44.003126 
L 266.681244 44.991494 
L 270.658747 46.16316 
L 274.636249 47.536341 
L 278.613751 49.125619 
L 282.591253 50.940335 
L 286.568756 52.983252 
L 290.546258 55.249725 
L 294.52376 57.727511 
L 298.501263 60.39721 
L 302.478765 63.233225 
L 306.456267 66.204998 
L 310.43377 69.278307 
L 314.411272 72.416444 
L 318.388774 75.581219 
L 322.366276 78.733799 
L 326.343779 81.835532 
L 330.321281 84.848896 
L 334.298783 87.738772 
L 338.276286 90.474151 
L 342.253788 93.03031 
L 346.23129 95.391313 
L 350.208792 97.552509 
L 354.186295 99.522539 
L 358.163797 101.324293 
L 362.141299 102.994356 
L 366.118802 104.580758 
L 370.096304 106.139194 
L 374.073806 107.728267 
L 378.051309 109.404483 
L 382.028811 111.217764 
L 386.006313 113.208069 
L 389.983815 115.403456 
L 393.961318 117.819625 
L 397.93882 120.460759 
L 401.916322 123.321317 
L 405.893825 126.388342 
L 409.871327 129.64391 
L 413.848829 133.067377 
L 417.826331 136.637236 
L 421.803834 140.332508 
L 425.781336 144.133655 
L 429.758838 148.023111 
L 433.736341 151.985494 
L 437.713843 156.007617 
L 441.691345 160.078357 
L 445.668848 164.188452 
L 449.64635 168.330267 
L 453.623852 172.497563 
L 457.601354 176.68527 
L 461.578857 180.889291 
L 465.556359 185.106329 
L 469.533861 189.33374 
L 473.511364 193.569405 
" style="fill:none;stroke:#bfbf00;stroke-linecap:square;stroke-width:2;"/>
   </g>
   <g id="line2d_119">
    <path clip-path="url(#pbd1eeabc3a)" d="M 79.738636 39.609472 
L 83.716139 39.609572 
L 87.693641 39.609698 
L 91.671143 39.609858 
L 95.648646 39.610059 
L 99.626148 39.610312 
L 103.60365 39.610632 
L 107.581152 39.611036 
L 111.558655 39.611546 
L 115.536157 39.612188 
L 119.513659 39.613 
L 123.491162 39.614023 
L 127.468664 39.615315 
L 131.446166 39.616944 
L 135.423669 39.619 
L 139.401171 39.621594 
L 143.378673 39.624867 
L 147.356175 39.628996 
L 151.333678 39.634205 
L 155.31118 39.640775 
L 159.288682 39.649063 
L 163.266185 39.659516 
L 167.243687 39.672697 
L 171.221189 39.689316 
L 175.198691 39.710265 
L 179.176194 39.736665 
L 183.153696 39.769923 
L 187.131198 39.811804 
L 191.108701 39.864512 
L 195.086203 39.930804 
L 199.063705 40.01411 
L 203.041208 40.118686 
L 207.01871 40.249788 
L 210.996212 40.413875 
L 214.973714 40.618825 
L 218.951217 40.874171 
L 222.928719 41.191315 
L 226.906221 41.583719 
L 230.883724 42.067012 
L 234.861226 42.658953 
L 238.838728 43.379206 
L 242.81623 44.248832 
L 246.793733 45.289461 
L 250.771235 46.522131 
L 254.748737 47.965846 
L 258.72624 49.635997 
L 262.703742 51.542867 
L 266.681244 53.690455 
L 270.658747 56.07586 
L 274.636249 58.689325 
L 278.613751 61.514907 
L 282.591253 64.531619 
L 286.568756 67.714795 
L 290.546258 71.037427 
L 294.52376 74.47127 
L 298.501263 77.987633 
L 302.478765 81.557794 
L 306.456267 85.153115 
L 310.43377 88.74492 
L 314.411272 92.304262 
L 318.388774 95.801689 
L 322.366276 99.207174 
L 326.343779 102.49034 
L 330.321281 105.621164 
L 334.298783 108.571294 
L 338.276286 111.316099 
L 342.253788 113.837436 
L 346.23129 116.126958 
L 350.208792 118.189555 
L 354.186295 120.046249 
L 358.163797 121.735716 
L 362.141299 123.31359 
L 366.118802 124.848972 
L 370.096304 126.418186 
L 374.073806 128.096584 
L 378.051309 129.95001 
L 382.028811 132.027884 
L 386.006313 134.359485 
L 389.983815 136.954008 
L 393.961318 139.803765 
L 397.93882 142.889101 
L 401.916322 146.183531 
L 405.893825 149.658058 
L 409.871327 153.284224 
L 413.848829 157.03593 
L 417.826331 160.890294 
L 421.803834 164.827857 
L 425.781336 168.832419 
L 429.758838 172.890691 
L 433.736341 176.991881 
L 437.713843 181.127286 
L 441.691345 185.289926 
L 445.668848 189.474219 
L 449.64635 193.675712 
L 453.623852 197.890861 
L 457.601354 202.116847 
L 461.578857 206.35143 
L 465.556359 210.59283 
L 469.533861 214.839637 
L 473.511364 219.090731 
" style="fill:none;stroke:#000000;stroke-linecap:square;stroke-width:2;"/>
   </g>
   <g id="line2d_120">
    <path clip-path="url(#pbd1eeabc3a)" d="M 79.738636 39.610483 
L 83.716139 39.610848 
L 87.693641 39.611308 
L 91.671143 39.611888 
L 95.648646 39.612621 
L 99.626148 39.613546 
L 103.60365 39.614712 
L 107.581152 39.616184 
L 111.558655 39.618041 
L 115.536157 39.620384 
L 119.513659 39.62334 
L 123.491162 39.62707 
L 127.468664 39.631775 
L 131.446166 39.637711 
L 135.423669 39.645198 
L 139.401171 39.654641 
L 143.378673 39.66655 
L 147.356175 39.681567 
L 151.333678 39.700498 
L 155.31118 39.724358 
L 159.288682 39.754422 
L 163.266185 39.792288 
L 167.243687 39.839957 
L 171.221189 39.899933 
L 175.198691 39.975333 
L 179.176194 40.070036 
L 183.153696 40.18884 
L 187.131198 40.337661 
L 191.108701 40.523738 
L 195.086203 40.755867 
L 199.063705 41.044634 
L 203.041208 41.40262 
L 207.01871 41.844559 
L 210.996212 42.387381 
L 214.973714 43.050093 
L 218.951217 43.853409 
L 222.928719 44.819095 
L 226.906221 45.968967 
L 230.883724 47.323587 
L 234.861226 48.900747 
L 238.838728 50.713928 
L 242.81623 52.770988 
L 246.793733 55.073309 
L 250.771235 57.615579 
L 254.748737 60.386261 
L 258.72624 63.368618 
L 262.703742 66.542105 
L 266.681244 69.883855 
L 270.658747 73.370037 
L 274.636249 76.976939 
L 278.613751 80.681696 
L 282.591253 84.462678 
L 286.568756 88.299574 
L 290.546258 92.173233 
L 294.52376 96.065346 
L 298.501263 99.958001 
L 302.478765 103.833182 
L 306.456267 107.67225 
L 310.43377 111.455443 
L 314.411272 115.161464 
L 318.388774 118.767213 
L 322.366276 122.247785 
L 326.343779 125.576831 
L 330.321281 128.727469 
L 334.298783 131.673865 
L 338.276286 134.393634 
L 342.253788 136.871062 
L 346.23129 139.100981 
L 350.208792 141.092868 
L 354.186295 142.874418 
L 358.163797 144.493538 
L 362.141299 146.017615 
L 366.118802 147.529112 
L 370.096304 149.117313 
L 374.073806 150.867273 
L 378.051309 152.848483 
L 382.028811 155.106416 
L 386.006313 157.6594 
L 389.983815 160.50123 
L 393.961318 163.607775 
L 397.93882 166.944853 
L 401.916322 170.475101 
L 405.893825 174.16272 
L 409.871327 177.976058 
L 413.848829 181.888551 
L 417.826331 185.878651 
L 421.803834 189.929252 
L 425.781336 194.026952 
L 429.758838 198.161329 
L 433.736341 202.324303 
L 437.713843 206.509609 
L 441.691345 210.712392 
L 445.668848 214.928876 
L 449.64635 219.156119 
L 453.623852 223.391826 
L 457.601354 227.634199 
L 461.578857 231.881828 
L 465.556359 236.133606 
L 469.533861 240.38866 
L 473.511364 244.646305 
" style="fill:none;stroke:#ff0000;stroke-linecap:square;stroke-width:2;"/>
   </g>
   <g id="line2d_121">
    <path clip-path="url(#pbd1eeabc3a)" d="M 79.738636 39.614407 
L 83.716139 39.6158 
L 87.693641 39.617556 
L 91.671143 39.619772 
L 95.648646 39.622568 
L 99.626148 39.626096 
L 103.60365 39.630547 
L 107.581152 39.636161 
L 111.558655 39.643243 
L 115.536157 39.652176 
L 119.513659 39.663441 
L 123.491162 39.677647 
L 127.468664 39.695556 
L 131.446166 39.718131 
L 135.423669 39.746577 
L 139.401171 39.782409 
L 143.378673 39.827524 
L 147.356175 39.884295 
L 151.333678 39.955682 
L 155.31118 40.045367 
L 159.288682 40.157914 
L 163.266185 40.298952 
L 167.243687 40.475388 
L 171.221189 40.695627 
L 175.198691 40.969814 
L 179.176194 41.310044 
L 183.153696 41.730544 
L 187.131198 42.247746 
L 191.108701 42.880215 
L 195.086203 43.648356 
L 199.063705 44.573832 
L 203.041208 45.678655 
L 207.01871 46.983951 
L 210.996212 48.508493 
L 214.973714 50.267152 
L 218.951217 52.269514 
L 222.928719 54.518908 
L 226.906221 57.012038 
L 230.883724 59.73931 
L 234.861226 62.68576 
L 238.838728 65.832414 
L 242.81623 69.157809 
L 246.793733 72.639454 
L 250.771235 76.255044 
L 254.748737 79.983359 
L 258.72624 83.804814 
L 262.703742 87.701719 
L 266.681244 91.6583 
L 270.658747 95.660553 
L 274.636249 99.695979 
L 278.613751 103.753257 
L 282.591253 107.821871 
L 286.568756 111.891725 
L 290.546258 115.952729 
L 294.52376 119.994392 
L 298.501263 124.005399 
L 302.478765 127.973191 
L 306.456267 131.883558 
L 310.43377 135.720262 
L 314.411272 139.464747 
L 318.388774 143.095992 
L 322.366276 146.590608 
L 326.343779 149.923321 
L 330.321281 153.067983 
L 334.298783 155.999303 
L 338.276286 158.695418 
L 342.253788 161.141347 
L 346.23129 163.333176 
L 350.208792 165.28253 
L 354.186295 167.020541 
L 358.163797 168.60014 
L 362.141299 170.09531 
L 366.118802 171.596099 
L 370.096304 173.199042 
L 374.073806 174.994263 
L 378.051309 177.052388 
L 382.028811 179.415329 
L 386.006313 182.093887 
L 389.983815 185.072289 
L 393.961318 188.316997 
L 397.93882 191.786213 
L 401.916322 195.437445 
L 405.893825 199.232172 
L 409.871327 203.137918 
L 413.848829 207.128582 
L 417.826331 211.183822 
L 421.803834 215.288089 
L 425.781336 219.429616 
L 429.758838 223.599547 
L 433.736341 227.791213 
L 437.713843 231.999585 
L 441.691345 236.220851 
L 445.668848 240.452111 
L 449.64635 244.691146 
L 453.623852 248.936248 
L 457.601354 253.186098 
L 461.578857 257.439673 
L 465.556359 261.696175 
L 469.533861 265.954982 
L 473.511364 270.215605 
" style="fill:none;stroke:#0000ff;stroke-linecap:square;stroke-width:2;"/>
   </g>
   <g id="line2d_122">
    <path clip-path="url(#pbd1eeabc3a)" d="M 79.738636 39.62992 
L 83.716139 39.635371 
L 87.693641 39.642247 
L 91.671143 39.650919 
L 95.648646 39.661856 
L 99.626148 39.675649 
L 103.60365 39.693038 
L 107.581152 39.714956 
L 111.558655 39.742577 
L 115.536157 39.777372 
L 119.513659 39.821184 
L 123.491162 39.876319 
L 127.468664 39.945657 
L 131.446166 40.032778 
L 135.423669 40.142126 
L 139.401171 40.279183 
L 143.378673 40.45068 
L 147.356175 40.664823 
L 151.333678 40.93152 
L 155.31118 41.262612 
L 159.288682 41.672052 
L 163.266185 42.175995 
L 167.243687 42.792757 
L 171.221189 43.542547 
L 175.198691 44.446929 
L 179.176194 45.527958 
L 183.153696 46.806986 
L 187.131198 48.303219 
L 191.108701 50.032166 
L 195.086203 52.004227 
L 199.063705 54.223654 
L 203.041208 56.688109 
L 207.01871 59.388898 
L 210.996212 62.311846 
L 214.973714 65.438619 
L 218.951217 68.748248 
L 222.928719 72.21863 
L 226.906221 75.827791 
L 230.883724 79.554852 
L 234.861226 83.38065 
L 238.838728 87.288067 
L 242.81623 91.26212 
L 246.793733 95.28988 
L 250.771235 99.360293 
L 254.748737 103.463929 
L 258.72624 107.592713 
L 262.703742 111.739647 
L 266.681244 115.898537 
L 270.658747 120.063728 
L 274.636249 124.229853 
L 278.613751 128.391573 
L 282.591253 132.543331 
L 286.568756 136.679087 
L 290.546258 140.792043 
L 294.52376 144.874347 
L 298.501263 148.916783 
L 302.478765 152.908435 
L 306.456267 156.836361 
L 310.43377 160.685277 
L 314.411272 164.437321 
L 318.388774 168.071945 
L 322.366276 171.566056 
L 326.343779 174.894531 
L 330.321281 178.031281 
L 334.298783 180.951029 
L 338.276286 183.631967 
L 342.253788 186.059323 
L 346.23129 188.229697 
L 350.208792 190.155738 
L 354.186295 191.870315 
L 358.163797 193.428986 
L 362.141299 194.909232 
L 366.118802 196.405141 
L 370.096304 198.017073 
L 374.073806 199.837704 
L 378.051309 201.937967 
L 382.028811 204.357482 
L 386.006313 207.102687 
L 389.983815 210.152531 
L 393.961318 213.468514 
L 397.93882 217.005014 
L 401.916322 220.717126 
L 405.893825 224.565189 
L 409.871327 228.516539 
L 413.848829 232.545488 
L 417.826331 236.63243 
L 421.803834 240.762677 
L 425.781336 244.925331 
L 429.758838 249.11234 
L 433.736341 253.317751 
L 437.713843 257.537146 
L 441.691345 261.76723 
L 445.668848 266.00553 
L 449.64635 270.250175 
L 453.623852 274.499743 
L 457.601354 278.753146 
L 461.578857 283.009543 
L 465.556359 287.268287 
L 469.533861 291.528874 
L 473.511364 295.790909 
" style="fill:none;stroke:#008000;stroke-linecap:square;stroke-width:2;"/>
   </g>
   <g id="patch_3">
    <path d="M 60.05 308.6 
L 60.05 26.8 
" style="fill:none;stroke:#000000;stroke-linecap:square;stroke-linejoin:miter;stroke-width:0.8;"/>
   </g>
   <g id="patch_4">
    <path d="M 493.2 308.6 
L 493.2 26.8 
" style="fill:none;stroke:#000000;stroke-linecap:square;stroke-linejoin:miter;stroke-width:0.8;"/>
   </g>
   <g id="patch_5">
    <path d="M 60.05 308.6 
L 493.2 308.6 
" style="fill:none;stroke:#000000;stroke-linecap:square;stroke-linejoin:miter;stroke-width:0.8;"/>
   </g>
   <g id="patch_6">
    <path d="M 60.05 26.8 
L 493.2 26.8 
" style="fill:none;stroke:#000000;stroke-linecap:square;stroke-linejoin:miter;stroke-width:0.8;"/>
   </g>
   <g id="text_15">
    <!-- Bandwidth limited amplifier -->
    <g transform="translate(193.569063 20.8)scale(0.12 -0.12)">
     <defs>
      <path d="M 4.203125 54.6875 
L 13.1875 54.6875 
L 24.421875 12.015625 
L 35.59375 54.6875 
L 46.1875 54.6875 
L 57.421875 12.015625 
L 68.609375 54.6875 
L 77.59375 54.6875 
L 63.28125 0 
L 52.6875 0 
L 40.921875 44.828125 
L 29.109375 0 
L 18.5 0 
z
" id="DejaVuSans-119"/>
      <path d="M 54.890625 33.015625 
L 54.890625 0 
L 45.90625 0 
L 45.90625 32.71875 
Q 45.90625 40.484375 42.875 44.328125 
Q 39.84375 48.1875 33.796875 48.1875 
Q 26.515625 48.1875 22.3125 43.546875 
Q 18.109375 38.921875 18.109375 30.90625 
L 18.109375 0 
L 9.078125 0 
L 9.078125 75.984375 
L 18.109375 75.984375 
L 18.109375 46.1875 
Q 21.34375 51.125 25.703125 53.5625 
Q 30.078125 56 35.796875 56 
Q 45.21875 56 50.046875 50.171875 
Q 54.890625 44.34375 54.890625 33.015625 
z
" id="DejaVuSans-104"/>
      <path d="M 9.421875 75.984375 
L 18.40625 75.984375 
L 18.40625 0 
L 9.421875 0 
z
" id="DejaVuSans-108"/>
      <path d="M 18.109375 8.203125 
L 18.109375 -20.796875 
L 9.078125 -20.796875 
L 9.078125 54.6875 
L 18.109375 54.6875 
L 18.109375 46.390625 
Q 20.953125 51.265625 25.265625 53.625 
Q 29.59375 56 35.59375 56 
Q 45.5625 56 51.78125 48.09375 
Q 58.015625 40.1875 58.015625 27.296875 
Q 58.015625 14.40625 51.78125 6.484375 
Q 45.5625 -1.421875 35.59375 -1.421875 
Q 29.59375 -1.421875 25.265625 0.953125 
Q 20.953125 3.328125 18.109375 8.203125 
z
M 48.6875 27.296875 
Q 48.6875 37.203125 44.609375 42.84375 
Q 40.53125 48.484375 33.40625 48.484375 
Q 26.265625 48.484375 22.1875 42.84375 
Q 18.109375 37.203125 18.109375 27.296875 
Q 18.109375 17.390625 22.1875 11.75 
Q 26.265625 6.109375 33.40625 6.109375 
Q 40.53125 6.109375 44.609375 11.75 
Q 48.6875 17.390625 48.6875 27.296875 
z
" id="DejaVuSans-112"/>
     </defs>
     <use xlink:href="#DejaVuSans-66"/>
     <use x="68.603516" xlink:href="#DejaVuSans-97"/>
     <use x="129.882812" xlink:href="#DejaVuSans-110"/>
     <use x="193.261719" xlink:href="#DejaVuSans-100"/>
     <use x="256.738281" xlink:href="#DejaVuSans-119"/>
     <use x="338.525391" xlink:href="#DejaVuSans-105"/>
     <use x="366.308594" xlink:href="#DejaVuSans-100"/>
     <use x="429.785156" xlink:href="#DejaVuSans-116"/>
     <use x="468.994141" xlink:href="#DejaVuSans-104"/>
     <use x="532.373047" xlink:href="#DejaVuSans-32"/>
     <use x="564.160156" xlink:href="#DejaVuSans-108"/>
     <use x="591.943359" xlink:href="#DejaVuSans-105"/>
     <use x="619.726562" xlink:href="#DejaVuSans-109"/>
     <use x="717.138672" xlink:href="#DejaVuSans-105"/>
     <use x="744.921875" xlink:href="#DejaVuSans-116"/>
     <use x="784.130859" xlink:href="#DejaVuSans-101"/>
     <use x="845.654297" xlink:href="#DejaVuSans-100"/>
     <use x="909.130859" xlink:href="#DejaVuSans-32"/>
     <use x="940.917969" xlink:href="#DejaVuSans-97"/>
     <use x="1002.197266" xlink:href="#DejaVuSans-109"/>
     <use x="1099.609375" xlink:href="#DejaVuSans-112"/>
     <use x="1163.085938" xlink:href="#DejaVuSans-108"/>
     <use x="1190.869141" xlink:href="#DejaVuSans-105"/>
     <use x="1218.652344" xlink:href="#DejaVuSans-102"/>
     <use x="1253.857422" xlink:href="#DejaVuSans-105"/>
     <use x="1281.640625" xlink:href="#DejaVuSans-101"/>
     <use x="1343.164062" xlink:href="#DejaVuSans-114"/>
    </g>
   </g>
   <g id="legend_1">
    <g id="patch_7">
     <path d="M 67.05 303.6 
L 215.7375 303.6 
Q 217.7375 303.6 217.7375 301.6 
L 217.7375 185.4625 
Q 217.7375 183.4625 215.7375 183.4625 
L 67.05 183.4625 
Q 65.05 183.4625 65.05 185.4625 
L 65.05 301.6 
Q 65.05 303.6 67.05 303.6 
z
" style="fill:#ffffff;opacity:0.8;stroke:#cccccc;stroke-linejoin:miter;"/>
    </g>
    <g id="line2d_123">
     <path d="M 67.05 191.080625 
L 77.05 191.080625 
" style="fill:none;stroke:#ff0000;stroke-linecap:square;stroke-width:2;"/>
    </g>
    <g id="line2d_124"/>
    <g id="text_16">
     <!-- gain, Rphz =  1.0e+00 -->
     <g transform="translate(79.05 194.580625)scale(0.12 -0.12)">
      <defs>
       <path d="M 11.71875 12.40625 
L 22.015625 12.40625 
L 22.015625 4 
L 14.015625 -11.625 
L 7.71875 -11.625 
L 11.71875 4 
z
" id="DejaVuSans-44"/>
       <path d="M 44.390625 34.1875 
Q 47.5625 33.109375 50.5625 29.59375 
Q 53.5625 26.078125 56.59375 19.921875 
L 66.609375 0 
L 56 0 
L 46.6875 18.703125 
Q 43.0625 26.03125 39.671875 28.421875 
Q 36.28125 30.8125 30.421875 30.8125 
L 19.671875 30.8125 
L 19.671875 0 
L 9.8125 0 
L 9.8125 72.90625 
L 32.078125 72.90625 
Q 44.578125 72.90625 50.734375 67.671875 
Q 56.890625 62.453125 56.890625 51.90625 
Q 56.890625 45.015625 53.6875 40.46875 
Q 50.484375 35.9375 44.390625 34.1875 
z
M 19.671875 64.796875 
L 19.671875 38.921875 
L 32.078125 38.921875 
Q 39.203125 38.921875 42.84375 42.21875 
Q 46.484375 45.515625 46.484375 51.90625 
Q 46.484375 58.296875 42.84375 61.546875 
Q 39.203125 64.796875 32.078125 64.796875 
z
" id="DejaVuSans-82"/>
       <path d="M 10.59375 45.40625 
L 73.1875 45.40625 
L 73.1875 37.203125 
L 10.59375 37.203125 
z
M 10.59375 25.484375 
L 73.1875 25.484375 
L 73.1875 17.1875 
L 10.59375 17.1875 
z
" id="DejaVuSans-61"/>
       <path d="M 10.6875 12.40625 
L 21 12.40625 
L 21 0 
L 10.6875 0 
z
" id="DejaVuSans-46"/>
       <path d="M 46 62.703125 
L 46 35.5 
L 73.1875 35.5 
L 73.1875 27.203125 
L 46 27.203125 
L 46 0 
L 37.796875 0 
L 37.796875 27.203125 
L 10.59375 27.203125 
L 10.59375 35.5 
L 37.796875 35.5 
L 37.796875 62.703125 
z
" id="DejaVuSans-43"/>
      </defs>
      <use xlink:href="#DejaVuSans-103"/>
      <use x="63.476562" xlink:href="#DejaVuSans-97"/>
      <use x="124.755859" xlink:href="#DejaVuSans-105"/>
      <use x="152.539062" xlink:href="#DejaVuSans-110"/>
      <use x="215.917969" xlink:href="#DejaVuSans-44"/>
      <use x="247.705078" xlink:href="#DejaVuSans-32"/>
      <use x="279.492188" xlink:href="#DejaVuSans-82"/>
      <use x="348.974609" xlink:href="#DejaVuSans-112"/>
      <use x="412.451172" xlink:href="#DejaVuSans-104"/>
      <use x="475.830078" xlink:href="#DejaVuSans-122"/>
      <use x="528.320312" xlink:href="#DejaVuSans-32"/>
      <use x="560.107422" xlink:href="#DejaVuSans-61"/>
      <use x="643.896484" xlink:href="#DejaVuSans-32"/>
      <use x="675.683594" xlink:href="#DejaVuSans-32"/>
      <use x="707.470703" xlink:href="#DejaVuSans-49"/>
      <use x="771.09375" xlink:href="#DejaVuSans-46"/>
      <use x="802.880859" xlink:href="#DejaVuSans-48"/>
      <use x="866.503906" xlink:href="#DejaVuSans-101"/>
      <use x="928.027344" xlink:href="#DejaVuSans-43"/>
      <use x="1011.816406" xlink:href="#DejaVuSans-48"/>
      <use x="1075.439453" xlink:href="#DejaVuSans-48"/>
     </g>
    </g>
    <g id="line2d_125">
     <path d="M 67.05 202.694375 
L 77.05 202.694375 
" style="fill:none;stroke:#0000ff;stroke-linecap:square;stroke-width:2;"/>
    </g>
    <g id="line2d_126"/>
    <g id="text_17">
     <!-- gain, Rphz =  2.0e+00 -->
     <g transform="translate(79.05 206.194375)scale(0.12 -0.12)">
      <use xlink:href="#DejaVuSans-103"/>
      <use x="63.476562" xlink:href="#DejaVuSans-97"/>
      <use x="124.755859" xlink:href="#DejaVuSans-105"/>
      <use x="152.539062" xlink:href="#DejaVuSans-110"/>
      <use x="215.917969" xlink:href="#DejaVuSans-44"/>
      <use x="247.705078" xlink:href="#DejaVuSans-32"/>
      <use x="279.492188" xlink:href="#DejaVuSans-82"/>
      <use x="348.974609" xlink:href="#DejaVuSans-112"/>
      <use x="412.451172" xlink:href="#DejaVuSans-104"/>
      <use x="475.830078" xlink:href="#DejaVuSans-122"/>
      <use x="528.320312" xlink:href="#DejaVuSans-32"/>
      <use x="560.107422" xlink:href="#DejaVuSans-61"/>
      <use x="643.896484" xlink:href="#DejaVuSans-32"/>
      <use x="675.683594" xlink:href="#DejaVuSans-32"/>
      <use x="707.470703" xlink:href="#DejaVuSans-50"/>
      <use x="771.09375" xlink:href="#DejaVuSans-46"/>
      <use x="802.880859" xlink:href="#DejaVuSans-48"/>
      <use x="866.503906" xlink:href="#DejaVuSans-101"/>
      <use x="928.027344" xlink:href="#DejaVuSans-43"/>
      <use x="1011.816406" xlink:href="#DejaVuSans-48"/>
      <use x="1075.439453" xlink:href="#DejaVuSans-48"/>
     </g>
    </g>
    <g id="line2d_127">
     <path d="M 67.05 214.308125 
L 77.05 214.308125 
" style="fill:none;stroke:#008000;stroke-linecap:square;stroke-width:2;"/>
    </g>
    <g id="line2d_128"/>
    <g id="text_18">
     <!-- gain, Rphz =  4.0e+00 -->
     <g transform="translate(79.05 217.808125)scale(0.12 -0.12)">
      <use xlink:href="#DejaVuSans-103"/>
      <use x="63.476562" xlink:href="#DejaVuSans-97"/>
      <use x="124.755859" xlink:href="#DejaVuSans-105"/>
      <use x="152.539062" xlink:href="#DejaVuSans-110"/>
      <use x="215.917969" xlink:href="#DejaVuSans-44"/>
      <use x="247.705078" xlink:href="#DejaVuSans-32"/>
      <use x="279.492188" xlink:href="#DejaVuSans-82"/>
      <use x="348.974609" xlink:href="#DejaVuSans-112"/>
      <use x="412.451172" xlink:href="#DejaVuSans-104"/>
      <use x="475.830078" xlink:href="#DejaVuSans-122"/>
      <use x="528.320312" xlink:href="#DejaVuSans-32"/>
      <use x="560.107422" xlink:href="#DejaVuSans-61"/>
      <use x="643.896484" xlink:href="#DejaVuSans-32"/>
      <use x="675.683594" xlink:href="#DejaVuSans-32"/>
      <use x="707.470703" xlink:href="#DejaVuSans-52"/>
      <use x="771.09375" xlink:href="#DejaVuSans-46"/>
      <use x="802.880859" xlink:href="#DejaVuSans-48"/>
      <use x="866.503906" xlink:href="#DejaVuSans-101"/>
      <use x="928.027344" xlink:href="#DejaVuSans-43"/>
      <use x="1011.816406" xlink:href="#DejaVuSans-48"/>
      <use x="1075.439453" xlink:href="#DejaVuSans-48"/>
     </g>
    </g>
    <g id="line2d_129">
     <path d="M 67.05 225.921875 
L 77.05 225.921875 
" style="fill:none;stroke:#00bfbf;stroke-linecap:square;stroke-width:2;"/>
    </g>
    <g id="line2d_130"/>
    <g id="text_19">
     <!-- gain, Rphz =  8.1e+00 -->
     <g transform="translate(79.05 229.421875)scale(0.12 -0.12)">
      <defs>
       <path d="M 31.78125 34.625 
Q 24.75 34.625 20.71875 30.859375 
Q 16.703125 27.09375 16.703125 20.515625 
Q 16.703125 13.921875 20.71875 10.15625 
Q 24.75 6.390625 31.78125 6.390625 
Q 38.8125 6.390625 42.859375 10.171875 
Q 46.921875 13.96875 46.921875 20.515625 
Q 46.921875 27.09375 42.890625 30.859375 
Q 38.875 34.625 31.78125 34.625 
z
M 21.921875 38.8125 
Q 15.578125 40.375 12.03125 44.71875 
Q 8.5 49.078125 8.5 55.328125 
Q 8.5 64.0625 14.71875 69.140625 
Q 20.953125 74.21875 31.78125 74.21875 
Q 42.671875 74.21875 48.875 69.140625 
Q 55.078125 64.0625 55.078125 55.328125 
Q 55.078125 49.078125 51.53125 44.71875 
Q 48 40.375 41.703125 38.8125 
Q 48.828125 37.15625 52.796875 32.3125 
Q 56.78125 27.484375 56.78125 20.515625 
Q 56.78125 9.90625 50.3125 4.234375 
Q 43.84375 -1.421875 31.78125 -1.421875 
Q 19.734375 -1.421875 13.25 4.234375 
Q 6.78125 9.90625 6.78125 20.515625 
Q 6.78125 27.484375 10.78125 32.3125 
Q 14.796875 37.15625 21.921875 38.8125 
z
M 18.3125 54.390625 
Q 18.3125 48.734375 21.84375 45.5625 
Q 25.390625 42.390625 31.78125 42.390625 
Q 38.140625 42.390625 41.71875 45.5625 
Q 45.3125 48.734375 45.3125 54.390625 
Q 45.3125 60.0625 41.71875 63.234375 
Q 38.140625 66.40625 31.78125 66.40625 
Q 25.390625 66.40625 21.84375 63.234375 
Q 18.3125 60.0625 18.3125 54.390625 
z
" id="DejaVuSans-56"/>
      </defs>
      <use xlink:href="#DejaVuSans-103"/>
      <use x="63.476562" xlink:href="#DejaVuSans-97"/>
      <use x="124.755859" xlink:href="#DejaVuSans-105"/>
      <use x="152.539062" xlink:href="#DejaVuSans-110"/>
      <use x="215.917969" xlink:href="#DejaVuSans-44"/>
      <use x="247.705078" xlink:href="#DejaVuSans-32"/>
      <use x="279.492188" xlink:href="#DejaVuSans-82"/>
      <use x="348.974609" xlink:href="#DejaVuSans-112"/>
      <use x="412.451172" xlink:href="#DejaVuSans-104"/>
      <use x="475.830078" xlink:href="#DejaVuSans-122"/>
      <use x="528.320312" xlink:href="#DejaVuSans-32"/>
      <use x="560.107422" xlink:href="#DejaVuSans-61"/>
      <use x="643.896484" xlink:href="#DejaVuSans-32"/>
      <use x="675.683594" xlink:href="#DejaVuSans-32"/>
      <use x="707.470703" xlink:href="#DejaVuSans-56"/>
      <use x="771.09375" xlink:href="#DejaVuSans-46"/>
      <use x="802.880859" xlink:href="#DejaVuSans-49"/>
      <use x="866.503906" xlink:href="#DejaVuSans-101"/>
      <use x="928.027344" xlink:href="#DejaVuSans-43"/>
      <use x="1011.816406" xlink:href="#DejaVuSans-48"/>
      <use x="1075.439453" xlink:href="#DejaVuSans-48"/>
     </g>
    </g>
    <g id="line2d_131">
     <path d="M 67.05 237.535625 
L 77.05 237.535625 
" style="fill:none;stroke:#bf00bf;stroke-linecap:square;stroke-width:2;"/>
    </g>
    <g id="line2d_132"/>
    <g id="text_20">
     <!-- gain, Rphz =  1.6e+01 -->
     <g transform="translate(79.05 241.035625)scale(0.12 -0.12)">
      <use xlink:href="#DejaVuSans-103"/>
      <use x="63.476562" xlink:href="#DejaVuSans-97"/>
      <use x="124.755859" xlink:href="#DejaVuSans-105"/>
      <use x="152.539062" xlink:href="#DejaVuSans-110"/>
      <use x="215.917969" xlink:href="#DejaVuSans-44"/>
      <use x="247.705078" xlink:href="#DejaVuSans-32"/>
      <use x="279.492188" xlink:href="#DejaVuSans-82"/>
      <use x="348.974609" xlink:href="#DejaVuSans-112"/>
      <use x="412.451172" xlink:href="#DejaVuSans-104"/>
      <use x="475.830078" xlink:href="#DejaVuSans-122"/>
      <use x="528.320312" xlink:href="#DejaVuSans-32"/>
      <use x="560.107422" xlink:href="#DejaVuSans-61"/>
      <use x="643.896484" xlink:href="#DejaVuSans-32"/>
      <use x="675.683594" xlink:href="#DejaVuSans-32"/>
      <use x="707.470703" xlink:href="#DejaVuSans-49"/>
      <use x="771.09375" xlink:href="#DejaVuSans-46"/>
      <use x="802.880859" xlink:href="#DejaVuSans-54"/>
      <use x="866.503906" xlink:href="#DejaVuSans-101"/>
      <use x="928.027344" xlink:href="#DejaVuSans-43"/>
      <use x="1011.816406" xlink:href="#DejaVuSans-48"/>
      <use x="1075.439453" xlink:href="#DejaVuSans-49"/>
     </g>
    </g>
    <g id="line2d_133">
     <path d="M 67.05 249.149375 
L 77.05 249.149375 
" style="fill:none;stroke:#bfbf00;stroke-linecap:square;stroke-width:2;"/>
    </g>
    <g id="line2d_134"/>
    <g id="text_21">
     <!-- gain, Rphz =  3.3e+01 -->
     <g transform="translate(79.05 252.649375)scale(0.12 -0.12)">
      <use xlink:href="#DejaVuSans-103"/>
      <use x="63.476562" xlink:href="#DejaVuSans-97"/>
      <use x="124.755859" xlink:href="#DejaVuSans-105"/>
      <use x="152.539062" xlink:href="#DejaVuSans-110"/>
      <use x="215.917969" xlink:href="#DejaVuSans-44"/>
      <use x="247.705078" xlink:href="#DejaVuSans-32"/>
      <use x="279.492188" xlink:href="#DejaVuSans-82"/>
      <use x="348.974609" xlink:href="#DejaVuSans-112"/>
      <use x="412.451172" xlink:href="#DejaVuSans-104"/>
      <use x="475.830078" xlink:href="#DejaVuSans-122"/>
      <use x="528.320312" xlink:href="#DejaVuSans-32"/>
      <use x="560.107422" xlink:href="#DejaVuSans-61"/>
      <use x="643.896484" xlink:href="#DejaVuSans-32"/>
      <use x="675.683594" xlink:href="#DejaVuSans-32"/>
      <use x="707.470703" xlink:href="#DejaVuSans-51"/>
      <use x="771.09375" xlink:href="#DejaVuSans-46"/>
      <use x="802.880859" xlink:href="#DejaVuSans-51"/>
      <use x="866.503906" xlink:href="#DejaVuSans-101"/>
      <use x="928.027344" xlink:href="#DejaVuSans-43"/>
      <use x="1011.816406" xlink:href="#DejaVuSans-48"/>
      <use x="1075.439453" xlink:href="#DejaVuSans-49"/>
     </g>
    </g>
    <g id="line2d_135">
     <path d="M 67.05 260.763125 
L 77.05 260.763125 
" style="fill:none;stroke:#000000;stroke-linecap:square;stroke-width:2;"/>
    </g>
    <g id="line2d_136"/>
    <g id="text_22">
     <!-- gain, Rphz =  6.6e+01 -->
     <g transform="translate(79.05 264.263125)scale(0.12 -0.12)">
      <use xlink:href="#DejaVuSans-103"/>
      <use x="63.476562" xlink:href="#DejaVuSans-97"/>
      <use x="124.755859" xlink:href="#DejaVuSans-105"/>
      <use x="152.539062" xlink:href="#DejaVuSans-110"/>
      <use x="215.917969" xlink:href="#DejaVuSans-44"/>
      <use x="247.705078" xlink:href="#DejaVuSans-32"/>
      <use x="279.492188" xlink:href="#DejaVuSans-82"/>
      <use x="348.974609" xlink:href="#DejaVuSans-112"/>
      <use x="412.451172" xlink:href="#DejaVuSans-104"/>
      <use x="475.830078" xlink:href="#DejaVuSans-122"/>
      <use x="528.320312" xlink:href="#DejaVuSans-32"/>
      <use x="560.107422" xlink:href="#DejaVuSans-61"/>
      <use x="643.896484" xlink:href="#DejaVuSans-32"/>
      <use x="675.683594" xlink:href="#DejaVuSans-32"/>
      <use x="707.470703" xlink:href="#DejaVuSans-54"/>
      <use x="771.09375" xlink:href="#DejaVuSans-46"/>
      <use x="802.880859" xlink:href="#DejaVuSans-54"/>
      <use x="866.503906" xlink:href="#DejaVuSans-101"/>
      <use x="928.027344" xlink:href="#DejaVuSans-43"/>
      <use x="1011.816406" xlink:href="#DejaVuSans-48"/>
      <use x="1075.439453" xlink:href="#DejaVuSans-49"/>
     </g>
    </g>
    <g id="line2d_137">
     <path d="M 67.05 272.376875 
L 77.05 272.376875 
" style="fill:none;stroke:#ff0000;stroke-linecap:square;stroke-width:2;"/>
    </g>
    <g id="line2d_138"/>
    <g id="text_23">
     <!-- gain, Rphz =  1.3e+02 -->
     <g transform="translate(79.05 275.876875)scale(0.12 -0.12)">
      <use xlink:href="#DejaVuSans-103"/>
      <use x="63.476562" xlink:href="#DejaVuSans-97"/>
      <use x="124.755859" xlink:href="#DejaVuSans-105"/>
      <use x="152.539062" xlink:href="#DejaVuSans-110"/>
      <use x="215.917969" xlink:href="#DejaVuSans-44"/>
      <use x="247.705078" xlink:href="#DejaVuSans-32"/>
      <use x="279.492188" xlink:href="#DejaVuSans-82"/>
      <use x="348.974609" xlink:href="#DejaVuSans-112"/>
      <use x="412.451172" xlink:href="#DejaVuSans-104"/>
      <use x="475.830078" xlink:href="#DejaVuSans-122"/>
      <use x="528.320312" xlink:href="#DejaVuSans-32"/>
      <use x="560.107422" xlink:href="#DejaVuSans-61"/>
      <use x="643.896484" xlink:href="#DejaVuSans-32"/>
      <use x="675.683594" xlink:href="#DejaVuSans-32"/>
      <use x="707.470703" xlink:href="#DejaVuSans-49"/>
      <use x="771.09375" xlink:href="#DejaVuSans-46"/>
      <use x="802.880859" xlink:href="#DejaVuSans-51"/>
      <use x="866.503906" xlink:href="#DejaVuSans-101"/>
      <use x="928.027344" xlink:href="#DejaVuSans-43"/>
      <use x="1011.816406" xlink:href="#DejaVuSans-48"/>
      <use x="1075.439453" xlink:href="#DejaVuSans-50"/>
     </g>
    </g>
    <g id="line2d_139">
     <path d="M 67.05 283.990625 
L 77.05 283.990625 
" style="fill:none;stroke:#0000ff;stroke-linecap:square;stroke-width:2;"/>
    </g>
    <g id="line2d_140"/>
    <g id="text_24">
     <!-- gain, Rphz =  2.6e+02 -->
     <g transform="translate(79.05 287.490625)scale(0.12 -0.12)">
      <use xlink:href="#DejaVuSans-103"/>
      <use x="63.476562" xlink:href="#DejaVuSans-97"/>
      <use x="124.755859" xlink:href="#DejaVuSans-105"/>
      <use x="152.539062" xlink:href="#DejaVuSans-110"/>
      <use x="215.917969" xlink:href="#DejaVuSans-44"/>
      <use x="247.705078" xlink:href="#DejaVuSans-32"/>
      <use x="279.492188" xlink:href="#DejaVuSans-82"/>
      <use x="348.974609" xlink:href="#DejaVuSans-112"/>
      <use x="412.451172" xlink:href="#DejaVuSans-104"/>
      <use x="475.830078" xlink:href="#DejaVuSans-122"/>
      <use x="528.320312" xlink:href="#DejaVuSans-32"/>
      <use x="560.107422" xlink:href="#DejaVuSans-61"/>
      <use x="643.896484" xlink:href="#DejaVuSans-32"/>
      <use x="675.683594" xlink:href="#DejaVuSans-32"/>
      <use x="707.470703" xlink:href="#DejaVuSans-50"/>
      <use x="771.09375" xlink:href="#DejaVuSans-46"/>
      <use x="802.880859" xlink:href="#DejaVuSans-54"/>
      <use x="866.503906" xlink:href="#DejaVuSans-101"/>
      <use x="928.027344" xlink:href="#DejaVuSans-43"/>
      <use x="1011.816406" xlink:href="#DejaVuSans-48"/>
      <use x="1075.439453" xlink:href="#DejaVuSans-50"/>
     </g>
    </g>
    <g id="line2d_141">
     <path d="M 67.05 295.604375 
L 77.05 295.604375 
" style="fill:none;stroke:#008000;stroke-linecap:square;stroke-width:2;"/>
    </g>
    <g id="line2d_142"/>
    <g id="text_25">
     <!-- gain, Rphz =  5.3e+02 -->
     <g transform="translate(79.05 299.104375)scale(0.12 -0.12)">
      <use xlink:href="#DejaVuSans-103"/>
      <use x="63.476562" xlink:href="#DejaVuSans-97"/>
      <use x="124.755859" xlink:href="#DejaVuSans-105"/>
      <use x="152.539062" xlink:href="#DejaVuSans-110"/>
      <use x="215.917969" xlink:href="#DejaVuSans-44"/>
      <use x="247.705078" xlink:href="#DejaVuSans-32"/>
      <use x="279.492188" xlink:href="#DejaVuSans-82"/>
      <use x="348.974609" xlink:href="#DejaVuSans-112"/>
      <use x="412.451172" xlink:href="#DejaVuSans-104"/>
      <use x="475.830078" xlink:href="#DejaVuSans-122"/>
      <use x="528.320312" xlink:href="#DejaVuSans-32"/>
      <use x="560.107422" xlink:href="#DejaVuSans-61"/>
      <use x="643.896484" xlink:href="#DejaVuSans-32"/>
      <use x="675.683594" xlink:href="#DejaVuSans-32"/>
      <use x="707.470703" xlink:href="#DejaVuSans-53"/>
      <use x="771.09375" xlink:href="#DejaVuSans-46"/>
      <use x="802.880859" xlink:href="#DejaVuSans-51"/>
      <use x="866.503906" xlink:href="#DejaVuSans-101"/>
      <use x="928.027344" xlink:href="#DejaVuSans-43"/>
      <use x="1011.816406" xlink:href="#DejaVuSans-48"/>
      <use x="1075.439453" xlink:href="#DejaVuSans-50"/>
     </g>
    </g>
   </g>
  </g>
 </g>
 <defs>
  <clipPath id="pbd1eeabc3a">
   <rect height="281.8" width="433.15" x="60.05" y="26.8"/>
  </clipPath>
 </defs>
</svg>
