<?xml version="1.0" encoding="utf-8" standalone="no"?>
<!DOCTYPE svg PUBLIC "-//W3C//DTD SVG 1.1//EN"
  "http://www.w3.org/Graphics/SVG/1.1/DTD/svg11.dtd">
<!-- Created with matplotlib (https://matplotlib.org/) -->
<svg height="360pt" version="1.1" viewBox="0 0 504 360" width="504pt" xmlns="http://www.w3.org/2000/svg" xmlns:xlink="http://www.w3.org/1999/xlink">
 <metadata>
  <rdf:RDF xmlns:cc="http://creativecommons.org/ns#" xmlns:dc="http://purl.org/dc/elements/1.1/" xmlns:rdf="http://www.w3.org/1999/02/22-rdf-syntax-ns#">
   <cc:Work>
    <dc:type rdf:resource="http://purl.org/dc/dcmitype/StillImage"/>
    <dc:date>2022-01-10T23:18:18.188521</dc:date>
    <dc:format>image/svg+xml</dc:format>
    <dc:creator>
     <cc:Agent>
      <dc:title>Matplotlib v3.3.4, https://matplotlib.org/</dc:title>
     </cc:Agent>
    </dc:creator>
   </cc:Work>
  </rdf:RDF>
 </metadata>
 <defs>
  <style type="text/css">*{stroke-linecap:butt;stroke-linejoin:round;}</style>
 </defs>
 <g id="figure_1">
  <g id="patch_1">
   <path d="M 0 360 
L 504 360 
L 504 0 
L 0 0 
z
" style="fill:#ffffff;"/>
  </g>
  <g id="axes_1">
   <g id="patch_2">
    <path d="M 60.05 308.6 
L 493.2 308.6 
L 493.2 26.8 
L 60.05 26.8 
z
" style="fill:#ffffff;"/>
   </g>
   <g id="matplotlib.axis_1">
    <g id="xtick_1">
     <g id="line2d_1">
      <path clip-path="url(#pf55a7a6db7)" d="M 79.738636 308.6 
L 79.738636 26.8 
" style="fill:none;stroke:#808080;stroke-linecap:square;stroke-width:0.8;"/>
     </g>
     <g id="line2d_2">
      <defs>
       <path d="M 0 0 
L 0 3.5 
" id="mdbee49a98e" style="stroke:#000000;stroke-width:0.8;"/>
      </defs>
      <g>
       <use style="stroke:#000000;stroke-width:0.8;" x="79.738636" xlink:href="#mdbee49a98e" y="308.6"/>
      </g>
     </g>
     <g id="text_1">
      <!-- $\mathdefault{10^{0}}$ -->
      <g transform="translate(69.178636 324.718125)scale(0.12 -0.12)">
       <defs>
        <path d="M 12.40625 8.296875 
L 28.515625 8.296875 
L 28.515625 63.921875 
L 10.984375 60.40625 
L 10.984375 69.390625 
L 28.421875 72.90625 
L 38.28125 72.90625 
L 38.28125 8.296875 
L 54.390625 8.296875 
L 54.390625 0 
L 12.40625 0 
z
" id="DejaVuSans-49"/>
        <path d="M 31.78125 66.40625 
Q 24.171875 66.40625 20.328125 58.90625 
Q 16.5 51.421875 16.5 36.375 
Q 16.5 21.390625 20.328125 13.890625 
Q 24.171875 6.390625 31.78125 6.390625 
Q 39.453125 6.390625 43.28125 13.890625 
Q 47.125 21.390625 47.125 36.375 
Q 47.125 51.421875 43.28125 58.90625 
Q 39.453125 66.40625 31.78125 66.40625 
z
M 31.78125 74.21875 
Q 44.046875 74.21875 50.515625 64.515625 
Q 56.984375 54.828125 56.984375 36.375 
Q 56.984375 17.96875 50.515625 8.265625 
Q 44.046875 -1.421875 31.78125 -1.421875 
Q 19.53125 -1.421875 13.0625 8.265625 
Q 6.59375 17.96875 6.59375 36.375 
Q 6.59375 54.828125 13.0625 64.515625 
Q 19.53125 74.21875 31.78125 74.21875 
z
" id="DejaVuSans-48"/>
       </defs>
       <use transform="translate(0 0.765625)" xlink:href="#DejaVuSans-49"/>
       <use transform="translate(63.623047 0.765625)" xlink:href="#DejaVuSans-48"/>
       <use transform="translate(128.203125 39.046875)scale(0.7)" xlink:href="#DejaVuSans-48"/>
      </g>
     </g>
    </g>
    <g id="xtick_2">
     <g id="line2d_3">
      <path clip-path="url(#pf55a7a6db7)" d="M 158.493182 308.6 
L 158.493182 26.8 
" style="fill:none;stroke:#808080;stroke-linecap:square;stroke-width:0.8;"/>
     </g>
     <g id="line2d_4">
      <g>
       <use style="stroke:#000000;stroke-width:0.8;" x="158.493182" xlink:href="#mdbee49a98e" y="308.6"/>
      </g>
     </g>
     <g id="text_2">
      <!-- $\mathdefault{10^{1}}$ -->
      <g transform="translate(147.933182 324.718125)scale(0.12 -0.12)">
       <use transform="translate(0 0.684375)" xlink:href="#DejaVuSans-49"/>
       <use transform="translate(63.623047 0.684375)" xlink:href="#DejaVuSans-48"/>
       <use transform="translate(128.203125 38.965625)scale(0.7)" xlink:href="#DejaVuSans-49"/>
      </g>
     </g>
    </g>
    <g id="xtick_3">
     <g id="line2d_5">
      <path clip-path="url(#pf55a7a6db7)" d="M 237.247727 308.6 
L 237.247727 26.8 
" style="fill:none;stroke:#808080;stroke-linecap:square;stroke-width:0.8;"/>
     </g>
     <g id="line2d_6">
      <g>
       <use style="stroke:#000000;stroke-width:0.8;" x="237.247727" xlink:href="#mdbee49a98e" y="308.6"/>
      </g>
     </g>
     <g id="text_3">
      <!-- $\mathdefault{10^{2}}$ -->
      <g transform="translate(226.687727 324.718125)scale(0.12 -0.12)">
       <defs>
        <path d="M 19.1875 8.296875 
L 53.609375 8.296875 
L 53.609375 0 
L 7.328125 0 
L 7.328125 8.296875 
Q 12.9375 14.109375 22.625 23.890625 
Q 32.328125 33.6875 34.8125 36.53125 
Q 39.546875 41.84375 41.421875 45.53125 
Q 43.3125 49.21875 43.3125 52.78125 
Q 43.3125 58.59375 39.234375 62.25 
Q 35.15625 65.921875 28.609375 65.921875 
Q 23.96875 65.921875 18.8125 64.3125 
Q 13.671875 62.703125 7.8125 59.421875 
L 7.8125 69.390625 
Q 13.765625 71.78125 18.9375 73 
Q 24.125 74.21875 28.421875 74.21875 
Q 39.75 74.21875 46.484375 68.546875 
Q 53.21875 62.890625 53.21875 53.421875 
Q 53.21875 48.921875 51.53125 44.890625 
Q 49.859375 40.875 45.40625 35.40625 
Q 44.1875 33.984375 37.640625 27.21875 
Q 31.109375 20.453125 19.1875 8.296875 
z
" id="DejaVuSans-50"/>
       </defs>
       <use transform="translate(0 0.765625)" xlink:href="#DejaVuSans-49"/>
       <use transform="translate(63.623047 0.765625)" xlink:href="#DejaVuSans-48"/>
       <use transform="translate(128.203125 39.046875)scale(0.7)" xlink:href="#DejaVuSans-50"/>
      </g>
     </g>
    </g>
    <g id="xtick_4">
     <g id="line2d_7">
      <path clip-path="url(#pf55a7a6db7)" d="M 316.002273 308.6 
L 316.002273 26.8 
" style="fill:none;stroke:#808080;stroke-linecap:square;stroke-width:0.8;"/>
     </g>
     <g id="line2d_8">
      <g>
       <use style="stroke:#000000;stroke-width:0.8;" x="316.002273" xlink:href="#mdbee49a98e" y="308.6"/>
      </g>
     </g>
     <g id="text_4">
      <!-- $\mathdefault{10^{3}}$ -->
      <g transform="translate(305.442273 324.718125)scale(0.12 -0.12)">
       <defs>
        <path d="M 40.578125 39.3125 
Q 47.65625 37.796875 51.625 33 
Q 55.609375 28.21875 55.609375 21.1875 
Q 55.609375 10.40625 48.1875 4.484375 
Q 40.765625 -1.421875 27.09375 -1.421875 
Q 22.515625 -1.421875 17.65625 -0.515625 
Q 12.796875 0.390625 7.625 2.203125 
L 7.625 11.71875 
Q 11.71875 9.328125 16.59375 8.109375 
Q 21.484375 6.890625 26.8125 6.890625 
Q 36.078125 6.890625 40.9375 10.546875 
Q 45.796875 14.203125 45.796875 21.1875 
Q 45.796875 27.640625 41.28125 31.265625 
Q 36.765625 34.90625 28.71875 34.90625 
L 20.21875 34.90625 
L 20.21875 43.015625 
L 29.109375 43.015625 
Q 36.375 43.015625 40.234375 45.921875 
Q 44.09375 48.828125 44.09375 54.296875 
Q 44.09375 59.90625 40.109375 62.90625 
Q 36.140625 65.921875 28.71875 65.921875 
Q 24.65625 65.921875 20.015625 65.03125 
Q 15.375 64.15625 9.8125 62.3125 
L 9.8125 71.09375 
Q 15.4375 72.65625 20.34375 73.4375 
Q 25.25 74.21875 29.59375 74.21875 
Q 40.828125 74.21875 47.359375 69.109375 
Q 53.90625 64.015625 53.90625 55.328125 
Q 53.90625 49.265625 50.4375 45.09375 
Q 46.96875 40.921875 40.578125 39.3125 
z
" id="DejaVuSans-51"/>
       </defs>
       <use transform="translate(0 0.765625)" xlink:href="#DejaVuSans-49"/>
       <use transform="translate(63.623047 0.765625)" xlink:href="#DejaVuSans-48"/>
       <use transform="translate(128.203125 39.046875)scale(0.7)" xlink:href="#DejaVuSans-51"/>
      </g>
     </g>
    </g>
    <g id="xtick_5">
     <g id="line2d_9">
      <path clip-path="url(#pf55a7a6db7)" d="M 394.756818 308.6 
L 394.756818 26.8 
" style="fill:none;stroke:#808080;stroke-linecap:square;stroke-width:0.8;"/>
     </g>
     <g id="line2d_10">
      <g>
       <use style="stroke:#000000;stroke-width:0.8;" x="394.756818" xlink:href="#mdbee49a98e" y="308.6"/>
      </g>
     </g>
     <g id="text_5">
      <!-- $\mathdefault{10^{4}}$ -->
      <g transform="translate(384.196818 324.718125)scale(0.12 -0.12)">
       <defs>
        <path d="M 37.796875 64.3125 
L 12.890625 25.390625 
L 37.796875 25.390625 
z
M 35.203125 72.90625 
L 47.609375 72.90625 
L 47.609375 25.390625 
L 58.015625 25.390625 
L 58.015625 17.1875 
L 47.609375 17.1875 
L 47.609375 0 
L 37.796875 0 
L 37.796875 17.1875 
L 4.890625 17.1875 
L 4.890625 26.703125 
z
" id="DejaVuSans-52"/>
       </defs>
       <use transform="translate(0 0.684375)" xlink:href="#DejaVuSans-49"/>
       <use transform="translate(63.623047 0.684375)" xlink:href="#DejaVuSans-48"/>
       <use transform="translate(128.203125 38.965625)scale(0.7)" xlink:href="#DejaVuSans-52"/>
      </g>
     </g>
    </g>
    <g id="xtick_6">
     <g id="line2d_11">
      <path clip-path="url(#pf55a7a6db7)" d="M 473.511364 308.6 
L 473.511364 26.8 
" style="fill:none;stroke:#808080;stroke-linecap:square;stroke-width:0.8;"/>
     </g>
     <g id="line2d_12">
      <g>
       <use style="stroke:#000000;stroke-width:0.8;" x="473.511364" xlink:href="#mdbee49a98e" y="308.6"/>
      </g>
     </g>
     <g id="text_6">
      <!-- $\mathdefault{10^{5}}$ -->
      <g transform="translate(462.951364 324.718125)scale(0.12 -0.12)">
       <defs>
        <path d="M 10.796875 72.90625 
L 49.515625 72.90625 
L 49.515625 64.59375 
L 19.828125 64.59375 
L 19.828125 46.734375 
Q 21.96875 47.46875 24.109375 47.828125 
Q 26.265625 48.1875 28.421875 48.1875 
Q 40.625 48.1875 47.75 41.5 
Q 54.890625 34.8125 54.890625 23.390625 
Q 54.890625 11.625 47.5625 5.09375 
Q 40.234375 -1.421875 26.90625 -1.421875 
Q 22.3125 -1.421875 17.546875 -0.640625 
Q 12.796875 0.140625 7.71875 1.703125 
L 7.71875 11.625 
Q 12.109375 9.234375 16.796875 8.0625 
Q 21.484375 6.890625 26.703125 6.890625 
Q 35.15625 6.890625 40.078125 11.328125 
Q 45.015625 15.765625 45.015625 23.390625 
Q 45.015625 31 40.078125 35.4375 
Q 35.15625 39.890625 26.703125 39.890625 
Q 22.75 39.890625 18.8125 39.015625 
Q 14.890625 38.140625 10.796875 36.28125 
z
" id="DejaVuSans-53"/>
       </defs>
       <use transform="translate(0 0.684375)" xlink:href="#DejaVuSans-49"/>
       <use transform="translate(63.623047 0.684375)" xlink:href="#DejaVuSans-48"/>
       <use transform="translate(128.203125 38.965625)scale(0.7)" xlink:href="#DejaVuSans-53"/>
      </g>
     </g>
    </g>
    <g id="xtick_7">
     <g id="line2d_13">
      <path clip-path="url(#pf55a7a6db7)" d="M 62.267039 308.6 
L 62.267039 26.8 
" style="fill:none;stroke:#808080;stroke-dasharray:0.8,1.32;stroke-dashoffset:0;stroke-width:0.8;"/>
     </g>
     <g id="line2d_14">
      <defs>
       <path d="M 0 0 
L 0 2 
" id="mc4b9f23dd3" style="stroke:#000000;stroke-width:0.6;"/>
      </defs>
      <g>
       <use style="stroke:#000000;stroke-width:0.6;" x="62.267039" xlink:href="#mc4b9f23dd3" y="308.6"/>
      </g>
     </g>
    </g>
    <g id="xtick_8">
     <g id="line2d_15">
      <path clip-path="url(#pf55a7a6db7)" d="M 67.539403 308.6 
L 67.539403 26.8 
" style="fill:none;stroke:#808080;stroke-dasharray:0.8,1.32;stroke-dashoffset:0;stroke-width:0.8;"/>
     </g>
     <g id="line2d_16">
      <g>
       <use style="stroke:#000000;stroke-width:0.6;" x="67.539403" xlink:href="#mc4b9f23dd3" y="308.6"/>
      </g>
     </g>
    </g>
    <g id="xtick_9">
     <g id="line2d_17">
      <path clip-path="url(#pf55a7a6db7)" d="M 72.106532 308.6 
L 72.106532 26.8 
" style="fill:none;stroke:#808080;stroke-dasharray:0.8,1.32;stroke-dashoffset:0;stroke-width:0.8;"/>
     </g>
     <g id="line2d_18">
      <g>
       <use style="stroke:#000000;stroke-width:0.6;" x="72.106532" xlink:href="#mc4b9f23dd3" y="308.6"/>
      </g>
     </g>
    </g>
    <g id="xtick_10">
     <g id="line2d_19">
      <path clip-path="url(#pf55a7a6db7)" d="M 76.135026 308.6 
L 76.135026 26.8 
" style="fill:none;stroke:#808080;stroke-dasharray:0.8,1.32;stroke-dashoffset:0;stroke-width:0.8;"/>
     </g>
     <g id="line2d_20">
      <g>
       <use style="stroke:#000000;stroke-width:0.6;" x="76.135026" xlink:href="#mc4b9f23dd3" y="308.6"/>
      </g>
     </g>
    </g>
    <g id="xtick_11">
     <g id="line2d_21">
      <path clip-path="url(#pf55a7a6db7)" d="M 103.446117 308.6 
L 103.446117 26.8 
" style="fill:none;stroke:#808080;stroke-dasharray:0.8,1.32;stroke-dashoffset:0;stroke-width:0.8;"/>
     </g>
     <g id="line2d_22">
      <g>
       <use style="stroke:#000000;stroke-width:0.6;" x="103.446117" xlink:href="#mc4b9f23dd3" y="308.6"/>
      </g>
     </g>
    </g>
    <g id="xtick_12">
     <g id="line2d_23">
      <path clip-path="url(#pf55a7a6db7)" d="M 117.314104 308.6 
L 117.314104 26.8 
" style="fill:none;stroke:#808080;stroke-dasharray:0.8,1.32;stroke-dashoffset:0;stroke-width:0.8;"/>
     </g>
     <g id="line2d_24">
      <g>
       <use style="stroke:#000000;stroke-width:0.6;" x="117.314104" xlink:href="#mc4b9f23dd3" y="308.6"/>
      </g>
     </g>
    </g>
    <g id="xtick_13">
     <g id="line2d_25">
      <path clip-path="url(#pf55a7a6db7)" d="M 127.153597 308.6 
L 127.153597 26.8 
" style="fill:none;stroke:#808080;stroke-dasharray:0.8,1.32;stroke-dashoffset:0;stroke-width:0.8;"/>
     </g>
     <g id="line2d_26">
      <g>
       <use style="stroke:#000000;stroke-width:0.6;" x="127.153597" xlink:href="#mc4b9f23dd3" y="308.6"/>
      </g>
     </g>
    </g>
    <g id="xtick_14">
     <g id="line2d_27">
      <path clip-path="url(#pf55a7a6db7)" d="M 134.785701 308.6 
L 134.785701 26.8 
" style="fill:none;stroke:#808080;stroke-dasharray:0.8,1.32;stroke-dashoffset:0;stroke-width:0.8;"/>
     </g>
     <g id="line2d_28">
      <g>
       <use style="stroke:#000000;stroke-width:0.6;" x="134.785701" xlink:href="#mc4b9f23dd3" y="308.6"/>
      </g>
     </g>
    </g>
    <g id="xtick_15">
     <g id="line2d_29">
      <path clip-path="url(#pf55a7a6db7)" d="M 141.021584 308.6 
L 141.021584 26.8 
" style="fill:none;stroke:#808080;stroke-dasharray:0.8,1.32;stroke-dashoffset:0;stroke-width:0.8;"/>
     </g>
     <g id="line2d_30">
      <g>
       <use style="stroke:#000000;stroke-width:0.6;" x="141.021584" xlink:href="#mc4b9f23dd3" y="308.6"/>
      </g>
     </g>
    </g>
    <g id="xtick_16">
     <g id="line2d_31">
      <path clip-path="url(#pf55a7a6db7)" d="M 146.293948 308.6 
L 146.293948 26.8 
" style="fill:none;stroke:#808080;stroke-dasharray:0.8,1.32;stroke-dashoffset:0;stroke-width:0.8;"/>
     </g>
     <g id="line2d_32">
      <g>
       <use style="stroke:#000000;stroke-width:0.6;" x="146.293948" xlink:href="#mc4b9f23dd3" y="308.6"/>
      </g>
     </g>
    </g>
    <g id="xtick_17">
     <g id="line2d_33">
      <path clip-path="url(#pf55a7a6db7)" d="M 150.861078 308.6 
L 150.861078 26.8 
" style="fill:none;stroke:#808080;stroke-dasharray:0.8,1.32;stroke-dashoffset:0;stroke-width:0.8;"/>
     </g>
     <g id="line2d_34">
      <g>
       <use style="stroke:#000000;stroke-width:0.6;" x="150.861078" xlink:href="#mc4b9f23dd3" y="308.6"/>
      </g>
     </g>
    </g>
    <g id="xtick_18">
     <g id="line2d_35">
      <path clip-path="url(#pf55a7a6db7)" d="M 154.889571 308.6 
L 154.889571 26.8 
" style="fill:none;stroke:#808080;stroke-dasharray:0.8,1.32;stroke-dashoffset:0;stroke-width:0.8;"/>
     </g>
     <g id="line2d_36">
      <g>
       <use style="stroke:#000000;stroke-width:0.6;" x="154.889571" xlink:href="#mc4b9f23dd3" y="308.6"/>
      </g>
     </g>
    </g>
    <g id="xtick_19">
     <g id="line2d_37">
      <path clip-path="url(#pf55a7a6db7)" d="M 182.200662 308.6 
L 182.200662 26.8 
" style="fill:none;stroke:#808080;stroke-dasharray:0.8,1.32;stroke-dashoffset:0;stroke-width:0.8;"/>
     </g>
     <g id="line2d_38">
      <g>
       <use style="stroke:#000000;stroke-width:0.6;" x="182.200662" xlink:href="#mc4b9f23dd3" y="308.6"/>
      </g>
     </g>
    </g>
    <g id="xtick_20">
     <g id="line2d_39">
      <path clip-path="url(#pf55a7a6db7)" d="M 196.068649 308.6 
L 196.068649 26.8 
" style="fill:none;stroke:#808080;stroke-dasharray:0.8,1.32;stroke-dashoffset:0;stroke-width:0.8;"/>
     </g>
     <g id="line2d_40">
      <g>
       <use style="stroke:#000000;stroke-width:0.6;" x="196.068649" xlink:href="#mc4b9f23dd3" y="308.6"/>
      </g>
     </g>
    </g>
    <g id="xtick_21">
     <g id="line2d_41">
      <path clip-path="url(#pf55a7a6db7)" d="M 205.908143 308.6 
L 205.908143 26.8 
" style="fill:none;stroke:#808080;stroke-dasharray:0.8,1.32;stroke-dashoffset:0;stroke-width:0.8;"/>
     </g>
     <g id="line2d_42">
      <g>
       <use style="stroke:#000000;stroke-width:0.6;" x="205.908143" xlink:href="#mc4b9f23dd3" y="308.6"/>
      </g>
     </g>
    </g>
    <g id="xtick_22">
     <g id="line2d_43">
      <path clip-path="url(#pf55a7a6db7)" d="M 213.540247 308.6 
L 213.540247 26.8 
" style="fill:none;stroke:#808080;stroke-dasharray:0.8,1.32;stroke-dashoffset:0;stroke-width:0.8;"/>
     </g>
     <g id="line2d_44">
      <g>
       <use style="stroke:#000000;stroke-width:0.6;" x="213.540247" xlink:href="#mc4b9f23dd3" y="308.6"/>
      </g>
     </g>
    </g>
    <g id="xtick_23">
     <g id="line2d_45">
      <path clip-path="url(#pf55a7a6db7)" d="M 219.77613 308.6 
L 219.77613 26.8 
" style="fill:none;stroke:#808080;stroke-dasharray:0.8,1.32;stroke-dashoffset:0;stroke-width:0.8;"/>
     </g>
     <g id="line2d_46">
      <g>
       <use style="stroke:#000000;stroke-width:0.6;" x="219.77613" xlink:href="#mc4b9f23dd3" y="308.6"/>
      </g>
     </g>
    </g>
    <g id="xtick_24">
     <g id="line2d_47">
      <path clip-path="url(#pf55a7a6db7)" d="M 225.048494 308.6 
L 225.048494 26.8 
" style="fill:none;stroke:#808080;stroke-dasharray:0.8,1.32;stroke-dashoffset:0;stroke-width:0.8;"/>
     </g>
     <g id="line2d_48">
      <g>
       <use style="stroke:#000000;stroke-width:0.6;" x="225.048494" xlink:href="#mc4b9f23dd3" y="308.6"/>
      </g>
     </g>
    </g>
    <g id="xtick_25">
     <g id="line2d_49">
      <path clip-path="url(#pf55a7a6db7)" d="M 229.615623 308.6 
L 229.615623 26.8 
" style="fill:none;stroke:#808080;stroke-dasharray:0.8,1.32;stroke-dashoffset:0;stroke-width:0.8;"/>
     </g>
     <g id="line2d_50">
      <g>
       <use style="stroke:#000000;stroke-width:0.6;" x="229.615623" xlink:href="#mc4b9f23dd3" y="308.6"/>
      </g>
     </g>
    </g>
    <g id="xtick_26">
     <g id="line2d_51">
      <path clip-path="url(#pf55a7a6db7)" d="M 233.644117 308.6 
L 233.644117 26.8 
" style="fill:none;stroke:#808080;stroke-dasharray:0.8,1.32;stroke-dashoffset:0;stroke-width:0.8;"/>
     </g>
     <g id="line2d_52">
      <g>
       <use style="stroke:#000000;stroke-width:0.6;" x="233.644117" xlink:href="#mc4b9f23dd3" y="308.6"/>
      </g>
     </g>
    </g>
    <g id="xtick_27">
     <g id="line2d_53">
      <path clip-path="url(#pf55a7a6db7)" d="M 260.955208 308.6 
L 260.955208 26.8 
" style="fill:none;stroke:#808080;stroke-dasharray:0.8,1.32;stroke-dashoffset:0;stroke-width:0.8;"/>
     </g>
     <g id="line2d_54">
      <g>
       <use style="stroke:#000000;stroke-width:0.6;" x="260.955208" xlink:href="#mc4b9f23dd3" y="308.6"/>
      </g>
     </g>
    </g>
    <g id="xtick_28">
     <g id="line2d_55">
      <path clip-path="url(#pf55a7a6db7)" d="M 274.823195 308.6 
L 274.823195 26.8 
" style="fill:none;stroke:#808080;stroke-dasharray:0.8,1.32;stroke-dashoffset:0;stroke-width:0.8;"/>
     </g>
     <g id="line2d_56">
      <g>
       <use style="stroke:#000000;stroke-width:0.6;" x="274.823195" xlink:href="#mc4b9f23dd3" y="308.6"/>
      </g>
     </g>
    </g>
    <g id="xtick_29">
     <g id="line2d_57">
      <path clip-path="url(#pf55a7a6db7)" d="M 284.662688 308.6 
L 284.662688 26.8 
" style="fill:none;stroke:#808080;stroke-dasharray:0.8,1.32;stroke-dashoffset:0;stroke-width:0.8;"/>
     </g>
     <g id="line2d_58">
      <g>
       <use style="stroke:#000000;stroke-width:0.6;" x="284.662688" xlink:href="#mc4b9f23dd3" y="308.6"/>
      </g>
     </g>
    </g>
    <g id="xtick_30">
     <g id="line2d_59">
      <path clip-path="url(#pf55a7a6db7)" d="M 292.294792 308.6 
L 292.294792 26.8 
" style="fill:none;stroke:#808080;stroke-dasharray:0.8,1.32;stroke-dashoffset:0;stroke-width:0.8;"/>
     </g>
     <g id="line2d_60">
      <g>
       <use style="stroke:#000000;stroke-width:0.6;" x="292.294792" xlink:href="#mc4b9f23dd3" y="308.6"/>
      </g>
     </g>
    </g>
    <g id="xtick_31">
     <g id="line2d_61">
      <path clip-path="url(#pf55a7a6db7)" d="M 298.530675 308.6 
L 298.530675 26.8 
" style="fill:none;stroke:#808080;stroke-dasharray:0.8,1.32;stroke-dashoffset:0;stroke-width:0.8;"/>
     </g>
     <g id="line2d_62">
      <g>
       <use style="stroke:#000000;stroke-width:0.6;" x="298.530675" xlink:href="#mc4b9f23dd3" y="308.6"/>
      </g>
     </g>
    </g>
    <g id="xtick_32">
     <g id="line2d_63">
      <path clip-path="url(#pf55a7a6db7)" d="M 303.803039 308.6 
L 303.803039 26.8 
" style="fill:none;stroke:#808080;stroke-dasharray:0.8,1.32;stroke-dashoffset:0;stroke-width:0.8;"/>
     </g>
     <g id="line2d_64">
      <g>
       <use style="stroke:#000000;stroke-width:0.6;" x="303.803039" xlink:href="#mc4b9f23dd3" y="308.6"/>
      </g>
     </g>
    </g>
    <g id="xtick_33">
     <g id="line2d_65">
      <path clip-path="url(#pf55a7a6db7)" d="M 308.370169 308.6 
L 308.370169 26.8 
" style="fill:none;stroke:#808080;stroke-dasharray:0.8,1.32;stroke-dashoffset:0;stroke-width:0.8;"/>
     </g>
     <g id="line2d_66">
      <g>
       <use style="stroke:#000000;stroke-width:0.6;" x="308.370169" xlink:href="#mc4b9f23dd3" y="308.6"/>
      </g>
     </g>
    </g>
    <g id="xtick_34">
     <g id="line2d_67">
      <path clip-path="url(#pf55a7a6db7)" d="M 312.398662 308.6 
L 312.398662 26.8 
" style="fill:none;stroke:#808080;stroke-dasharray:0.8,1.32;stroke-dashoffset:0;stroke-width:0.8;"/>
     </g>
     <g id="line2d_68">
      <g>
       <use style="stroke:#000000;stroke-width:0.6;" x="312.398662" xlink:href="#mc4b9f23dd3" y="308.6"/>
      </g>
     </g>
    </g>
    <g id="xtick_35">
     <g id="line2d_69">
      <path clip-path="url(#pf55a7a6db7)" d="M 339.709753 308.6 
L 339.709753 26.8 
" style="fill:none;stroke:#808080;stroke-dasharray:0.8,1.32;stroke-dashoffset:0;stroke-width:0.8;"/>
     </g>
     <g id="line2d_70">
      <g>
       <use style="stroke:#000000;stroke-width:0.6;" x="339.709753" xlink:href="#mc4b9f23dd3" y="308.6"/>
      </g>
     </g>
    </g>
    <g id="xtick_36">
     <g id="line2d_71">
      <path clip-path="url(#pf55a7a6db7)" d="M 353.57774 308.6 
L 353.57774 26.8 
" style="fill:none;stroke:#808080;stroke-dasharray:0.8,1.32;stroke-dashoffset:0;stroke-width:0.8;"/>
     </g>
     <g id="line2d_72">
      <g>
       <use style="stroke:#000000;stroke-width:0.6;" x="353.57774" xlink:href="#mc4b9f23dd3" y="308.6"/>
      </g>
     </g>
    </g>
    <g id="xtick_37">
     <g id="line2d_73">
      <path clip-path="url(#pf55a7a6db7)" d="M 363.417234 308.6 
L 363.417234 26.8 
" style="fill:none;stroke:#808080;stroke-dasharray:0.8,1.32;stroke-dashoffset:0;stroke-width:0.8;"/>
     </g>
     <g id="line2d_74">
      <g>
       <use style="stroke:#000000;stroke-width:0.6;" x="363.417234" xlink:href="#mc4b9f23dd3" y="308.6"/>
      </g>
     </g>
    </g>
    <g id="xtick_38">
     <g id="line2d_75">
      <path clip-path="url(#pf55a7a6db7)" d="M 371.049338 308.6 
L 371.049338 26.8 
" style="fill:none;stroke:#808080;stroke-dasharray:0.8,1.32;stroke-dashoffset:0;stroke-width:0.8;"/>
     </g>
     <g id="line2d_76">
      <g>
       <use style="stroke:#000000;stroke-width:0.6;" x="371.049338" xlink:href="#mc4b9f23dd3" y="308.6"/>
      </g>
     </g>
    </g>
    <g id="xtick_39">
     <g id="line2d_77">
      <path clip-path="url(#pf55a7a6db7)" d="M 377.285221 308.6 
L 377.285221 26.8 
" style="fill:none;stroke:#808080;stroke-dasharray:0.8,1.32;stroke-dashoffset:0;stroke-width:0.8;"/>
     </g>
     <g id="line2d_78">
      <g>
       <use style="stroke:#000000;stroke-width:0.6;" x="377.285221" xlink:href="#mc4b9f23dd3" y="308.6"/>
      </g>
     </g>
    </g>
    <g id="xtick_40">
     <g id="line2d_79">
      <path clip-path="url(#pf55a7a6db7)" d="M 382.557585 308.6 
L 382.557585 26.8 
" style="fill:none;stroke:#808080;stroke-dasharray:0.8,1.32;stroke-dashoffset:0;stroke-width:0.8;"/>
     </g>
     <g id="line2d_80">
      <g>
       <use style="stroke:#000000;stroke-width:0.6;" x="382.557585" xlink:href="#mc4b9f23dd3" y="308.6"/>
      </g>
     </g>
    </g>
    <g id="xtick_41">
     <g id="line2d_81">
      <path clip-path="url(#pf55a7a6db7)" d="M 387.124714 308.6 
L 387.124714 26.8 
" style="fill:none;stroke:#808080;stroke-dasharray:0.8,1.32;stroke-dashoffset:0;stroke-width:0.8;"/>
     </g>
     <g id="line2d_82">
      <g>
       <use style="stroke:#000000;stroke-width:0.6;" x="387.124714" xlink:href="#mc4b9f23dd3" y="308.6"/>
      </g>
     </g>
    </g>
    <g id="xtick_42">
     <g id="line2d_83">
      <path clip-path="url(#pf55a7a6db7)" d="M 391.153208 308.6 
L 391.153208 26.8 
" style="fill:none;stroke:#808080;stroke-dasharray:0.8,1.32;stroke-dashoffset:0;stroke-width:0.8;"/>
     </g>
     <g id="line2d_84">
      <g>
       <use style="stroke:#000000;stroke-width:0.6;" x="391.153208" xlink:href="#mc4b9f23dd3" y="308.6"/>
      </g>
     </g>
    </g>
    <g id="xtick_43">
     <g id="line2d_85">
      <path clip-path="url(#pf55a7a6db7)" d="M 418.464299 308.6 
L 418.464299 26.8 
" style="fill:none;stroke:#808080;stroke-dasharray:0.8,1.32;stroke-dashoffset:0;stroke-width:0.8;"/>
     </g>
     <g id="line2d_86">
      <g>
       <use style="stroke:#000000;stroke-width:0.6;" x="418.464299" xlink:href="#mc4b9f23dd3" y="308.6"/>
      </g>
     </g>
    </g>
    <g id="xtick_44">
     <g id="line2d_87">
      <path clip-path="url(#pf55a7a6db7)" d="M 432.332286 308.6 
L 432.332286 26.8 
" style="fill:none;stroke:#808080;stroke-dasharray:0.8,1.32;stroke-dashoffset:0;stroke-width:0.8;"/>
     </g>
     <g id="line2d_88">
      <g>
       <use style="stroke:#000000;stroke-width:0.6;" x="432.332286" xlink:href="#mc4b9f23dd3" y="308.6"/>
      </g>
     </g>
    </g>
    <g id="xtick_45">
     <g id="line2d_89">
      <path clip-path="url(#pf55a7a6db7)" d="M 442.171779 308.6 
L 442.171779 26.8 
" style="fill:none;stroke:#808080;stroke-dasharray:0.8,1.32;stroke-dashoffset:0;stroke-width:0.8;"/>
     </g>
     <g id="line2d_90">
      <g>
       <use style="stroke:#000000;stroke-width:0.6;" x="442.171779" xlink:href="#mc4b9f23dd3" y="308.6"/>
      </g>
     </g>
    </g>
    <g id="xtick_46">
     <g id="line2d_91">
      <path clip-path="url(#pf55a7a6db7)" d="M 449.803883 308.6 
L 449.803883 26.8 
" style="fill:none;stroke:#808080;stroke-dasharray:0.8,1.32;stroke-dashoffset:0;stroke-width:0.8;"/>
     </g>
     <g id="line2d_92">
      <g>
       <use style="stroke:#000000;stroke-width:0.6;" x="449.803883" xlink:href="#mc4b9f23dd3" y="308.6"/>
      </g>
     </g>
    </g>
    <g id="xtick_47">
     <g id="line2d_93">
      <path clip-path="url(#pf55a7a6db7)" d="M 456.039766 308.6 
L 456.039766 26.8 
" style="fill:none;stroke:#808080;stroke-dasharray:0.8,1.32;stroke-dashoffset:0;stroke-width:0.8;"/>
     </g>
     <g id="line2d_94">
      <g>
       <use style="stroke:#000000;stroke-width:0.6;" x="456.039766" xlink:href="#mc4b9f23dd3" y="308.6"/>
      </g>
     </g>
    </g>
    <g id="xtick_48">
     <g id="line2d_95">
      <path clip-path="url(#pf55a7a6db7)" d="M 461.31213 308.6 
L 461.31213 26.8 
" style="fill:none;stroke:#808080;stroke-dasharray:0.8,1.32;stroke-dashoffset:0;stroke-width:0.8;"/>
     </g>
     <g id="line2d_96">
      <g>
       <use style="stroke:#000000;stroke-width:0.6;" x="461.31213" xlink:href="#mc4b9f23dd3" y="308.6"/>
      </g>
     </g>
    </g>
    <g id="xtick_49">
     <g id="line2d_97">
      <path clip-path="url(#pf55a7a6db7)" d="M 465.87926 308.6 
L 465.87926 26.8 
" style="fill:none;stroke:#808080;stroke-dasharray:0.8,1.32;stroke-dashoffset:0;stroke-width:0.8;"/>
     </g>
     <g id="line2d_98">
      <g>
       <use style="stroke:#000000;stroke-width:0.6;" x="465.87926" xlink:href="#mc4b9f23dd3" y="308.6"/>
      </g>
     </g>
    </g>
    <g id="xtick_50">
     <g id="line2d_99">
      <path clip-path="url(#pf55a7a6db7)" d="M 469.907753 308.6 
L 469.907753 26.8 
" style="fill:none;stroke:#808080;stroke-dasharray:0.8,1.32;stroke-dashoffset:0;stroke-width:0.8;"/>
     </g>
     <g id="line2d_100">
      <g>
       <use style="stroke:#000000;stroke-width:0.6;" x="469.907753" xlink:href="#mc4b9f23dd3" y="308.6"/>
      </g>
     </g>
    </g>
    <g id="text_7">
     <!-- frequency [MHz] -->
     <g transform="translate(227.10625 340.331875)scale(0.12 -0.12)">
      <defs>
       <path d="M 37.109375 75.984375 
L 37.109375 68.5 
L 28.515625 68.5 
Q 23.6875 68.5 21.796875 66.546875 
Q 19.921875 64.59375 19.921875 59.515625 
L 19.921875 54.6875 
L 34.71875 54.6875 
L 34.71875 47.703125 
L 19.921875 47.703125 
L 19.921875 0 
L 10.890625 0 
L 10.890625 47.703125 
L 2.296875 47.703125 
L 2.296875 54.6875 
L 10.890625 54.6875 
L 10.890625 58.5 
Q 10.890625 67.625 15.140625 71.796875 
Q 19.390625 75.984375 28.609375 75.984375 
z
" id="DejaVuSans-102"/>
       <path d="M 41.109375 46.296875 
Q 39.59375 47.171875 37.8125 47.578125 
Q 36.03125 48 33.890625 48 
Q 26.265625 48 22.1875 43.046875 
Q 18.109375 38.09375 18.109375 28.8125 
L 18.109375 0 
L 9.078125 0 
L 9.078125 54.6875 
L 18.109375 54.6875 
L 18.109375 46.1875 
Q 20.953125 51.171875 25.484375 53.578125 
Q 30.03125 56 36.53125 56 
Q 37.453125 56 38.578125 55.875 
Q 39.703125 55.765625 41.0625 55.515625 
z
" id="DejaVuSans-114"/>
       <path d="M 56.203125 29.59375 
L 56.203125 25.203125 
L 14.890625 25.203125 
Q 15.484375 15.921875 20.484375 11.0625 
Q 25.484375 6.203125 34.421875 6.203125 
Q 39.59375 6.203125 44.453125 7.46875 
Q 49.3125 8.734375 54.109375 11.28125 
L 54.109375 2.78125 
Q 49.265625 0.734375 44.1875 -0.34375 
Q 39.109375 -1.421875 33.890625 -1.421875 
Q 20.796875 -1.421875 13.15625 6.1875 
Q 5.515625 13.8125 5.515625 26.8125 
Q 5.515625 40.234375 12.765625 48.109375 
Q 20.015625 56 32.328125 56 
Q 43.359375 56 49.78125 48.890625 
Q 56.203125 41.796875 56.203125 29.59375 
z
M 47.21875 32.234375 
Q 47.125 39.59375 43.09375 43.984375 
Q 39.0625 48.390625 32.421875 48.390625 
Q 24.90625 48.390625 20.390625 44.140625 
Q 15.875 39.890625 15.1875 32.171875 
z
" id="DejaVuSans-101"/>
       <path d="M 14.796875 27.296875 
Q 14.796875 17.390625 18.875 11.75 
Q 22.953125 6.109375 30.078125 6.109375 
Q 37.203125 6.109375 41.296875 11.75 
Q 45.40625 17.390625 45.40625 27.296875 
Q 45.40625 37.203125 41.296875 42.84375 
Q 37.203125 48.484375 30.078125 48.484375 
Q 22.953125 48.484375 18.875 42.84375 
Q 14.796875 37.203125 14.796875 27.296875 
z
M 45.40625 8.203125 
Q 42.578125 3.328125 38.25 0.953125 
Q 33.9375 -1.421875 27.875 -1.421875 
Q 17.96875 -1.421875 11.734375 6.484375 
Q 5.515625 14.40625 5.515625 27.296875 
Q 5.515625 40.1875 11.734375 48.09375 
Q 17.96875 56 27.875 56 
Q 33.9375 56 38.25 53.625 
Q 42.578125 51.265625 45.40625 46.390625 
L 45.40625 54.6875 
L 54.390625 54.6875 
L 54.390625 -20.796875 
L 45.40625 -20.796875 
z
" id="DejaVuSans-113"/>
       <path d="M 8.5 21.578125 
L 8.5 54.6875 
L 17.484375 54.6875 
L 17.484375 21.921875 
Q 17.484375 14.15625 20.5 10.265625 
Q 23.53125 6.390625 29.59375 6.390625 
Q 36.859375 6.390625 41.078125 11.03125 
Q 45.3125 15.671875 45.3125 23.6875 
L 45.3125 54.6875 
L 54.296875 54.6875 
L 54.296875 0 
L 45.3125 0 
L 45.3125 8.40625 
Q 42.046875 3.421875 37.71875 1 
Q 33.40625 -1.421875 27.6875 -1.421875 
Q 18.265625 -1.421875 13.375 4.4375 
Q 8.5 10.296875 8.5 21.578125 
z
M 31.109375 56 
z
" id="DejaVuSans-117"/>
       <path d="M 54.890625 33.015625 
L 54.890625 0 
L 45.90625 0 
L 45.90625 32.71875 
Q 45.90625 40.484375 42.875 44.328125 
Q 39.84375 48.1875 33.796875 48.1875 
Q 26.515625 48.1875 22.3125 43.546875 
Q 18.109375 38.921875 18.109375 30.90625 
L 18.109375 0 
L 9.078125 0 
L 9.078125 54.6875 
L 18.109375 54.6875 
L 18.109375 46.1875 
Q 21.34375 51.125 25.703125 53.5625 
Q 30.078125 56 35.796875 56 
Q 45.21875 56 50.046875 50.171875 
Q 54.890625 44.34375 54.890625 33.015625 
z
" id="DejaVuSans-110"/>
       <path d="M 48.78125 52.59375 
L 48.78125 44.1875 
Q 44.96875 46.296875 41.140625 47.34375 
Q 37.3125 48.390625 33.40625 48.390625 
Q 24.65625 48.390625 19.8125 42.84375 
Q 14.984375 37.3125 14.984375 27.296875 
Q 14.984375 17.28125 19.8125 11.734375 
Q 24.65625 6.203125 33.40625 6.203125 
Q 37.3125 6.203125 41.140625 7.25 
Q 44.96875 8.296875 48.78125 10.40625 
L 48.78125 2.09375 
Q 45.015625 0.34375 40.984375 -0.53125 
Q 36.96875 -1.421875 32.421875 -1.421875 
Q 20.0625 -1.421875 12.78125 6.34375 
Q 5.515625 14.109375 5.515625 27.296875 
Q 5.515625 40.671875 12.859375 48.328125 
Q 20.21875 56 33.015625 56 
Q 37.15625 56 41.109375 55.140625 
Q 45.0625 54.296875 48.78125 52.59375 
z
" id="DejaVuSans-99"/>
       <path d="M 32.171875 -5.078125 
Q 28.375 -14.84375 24.75 -17.8125 
Q 21.140625 -20.796875 15.09375 -20.796875 
L 7.90625 -20.796875 
L 7.90625 -13.28125 
L 13.1875 -13.28125 
Q 16.890625 -13.28125 18.9375 -11.515625 
Q 21 -9.765625 23.484375 -3.21875 
L 25.09375 0.875 
L 2.984375 54.6875 
L 12.5 54.6875 
L 29.59375 11.921875 
L 46.6875 54.6875 
L 56.203125 54.6875 
z
" id="DejaVuSans-121"/>
       <path id="DejaVuSans-32"/>
       <path d="M 8.59375 75.984375 
L 29.296875 75.984375 
L 29.296875 69 
L 17.578125 69 
L 17.578125 -6.203125 
L 29.296875 -6.203125 
L 29.296875 -13.1875 
L 8.59375 -13.1875 
z
" id="DejaVuSans-91"/>
       <path d="M 9.8125 72.90625 
L 24.515625 72.90625 
L 43.109375 23.296875 
L 61.8125 72.90625 
L 76.515625 72.90625 
L 76.515625 0 
L 66.890625 0 
L 66.890625 64.015625 
L 48.09375 14.015625 
L 38.1875 14.015625 
L 19.390625 64.015625 
L 19.390625 0 
L 9.8125 0 
z
" id="DejaVuSans-77"/>
       <path d="M 9.8125 72.90625 
L 19.671875 72.90625 
L 19.671875 43.015625 
L 55.515625 43.015625 
L 55.515625 72.90625 
L 65.375 72.90625 
L 65.375 0 
L 55.515625 0 
L 55.515625 34.71875 
L 19.671875 34.71875 
L 19.671875 0 
L 9.8125 0 
z
" id="DejaVuSans-72"/>
       <path d="M 5.515625 54.6875 
L 48.1875 54.6875 
L 48.1875 46.484375 
L 14.40625 7.171875 
L 48.1875 7.171875 
L 48.1875 0 
L 4.296875 0 
L 4.296875 8.203125 
L 38.09375 47.515625 
L 5.515625 47.515625 
z
" id="DejaVuSans-122"/>
       <path d="M 30.421875 75.984375 
L 30.421875 -13.1875 
L 9.71875 -13.1875 
L 9.71875 -6.203125 
L 21.390625 -6.203125 
L 21.390625 69 
L 9.71875 69 
L 9.71875 75.984375 
z
" id="DejaVuSans-93"/>
      </defs>
      <use xlink:href="#DejaVuSans-102"/>
      <use x="35.205078" xlink:href="#DejaVuSans-114"/>
      <use x="74.068359" xlink:href="#DejaVuSans-101"/>
      <use x="135.591797" xlink:href="#DejaVuSans-113"/>
      <use x="199.068359" xlink:href="#DejaVuSans-117"/>
      <use x="262.447266" xlink:href="#DejaVuSans-101"/>
      <use x="323.970703" xlink:href="#DejaVuSans-110"/>
      <use x="387.349609" xlink:href="#DejaVuSans-99"/>
      <use x="442.330078" xlink:href="#DejaVuSans-121"/>
      <use x="501.509766" xlink:href="#DejaVuSans-32"/>
      <use x="533.296875" xlink:href="#DejaVuSans-91"/>
      <use x="572.310547" xlink:href="#DejaVuSans-77"/>
      <use x="658.589844" xlink:href="#DejaVuSans-72"/>
      <use x="733.785156" xlink:href="#DejaVuSans-122"/>
      <use x="786.275391" xlink:href="#DejaVuSans-93"/>
     </g>
    </g>
   </g>
   <g id="matplotlib.axis_2">
    <g id="ytick_1">
     <g id="line2d_101">
      <path clip-path="url(#pf55a7a6db7)" d="M 60.05 273.615218 
L 493.2 273.615218 
" style="fill:none;stroke:#808080;stroke-linecap:square;stroke-width:0.8;"/>
     </g>
     <g id="line2d_102">
      <defs>
       <path d="M 0 0 
L -3.5 0 
" id="m8a63b0787a" style="stroke:#000000;stroke-width:0.8;"/>
      </defs>
      <g>
       <use style="stroke:#000000;stroke-width:0.8;" x="60.05" xlink:href="#m8a63b0787a" y="273.615218"/>
      </g>
     </g>
     <g id="text_8">
      <!-- −40 -->
      <g transform="translate(27.724375 278.17428)scale(0.12 -0.12)">
       <defs>
        <path d="M 10.59375 35.5 
L 73.1875 35.5 
L 73.1875 27.203125 
L 10.59375 27.203125 
z
" id="DejaVuSans-8722"/>
       </defs>
       <use xlink:href="#DejaVuSans-8722"/>
       <use x="83.789062" xlink:href="#DejaVuSans-52"/>
       <use x="147.412109" xlink:href="#DejaVuSans-48"/>
      </g>
     </g>
    </g>
    <g id="ytick_2">
     <g id="line2d_103">
      <path clip-path="url(#pf55a7a6db7)" d="M 60.05 223.318099 
L 493.2 223.318099 
" style="fill:none;stroke:#808080;stroke-linecap:square;stroke-width:0.8;"/>
     </g>
     <g id="line2d_104">
      <g>
       <use style="stroke:#000000;stroke-width:0.8;" x="60.05" xlink:href="#m8a63b0787a" y="223.318099"/>
      </g>
     </g>
     <g id="text_9">
      <!-- −20 -->
      <g transform="translate(27.724375 227.877161)scale(0.12 -0.12)">
       <use xlink:href="#DejaVuSans-8722"/>
       <use x="83.789062" xlink:href="#DejaVuSans-50"/>
       <use x="147.412109" xlink:href="#DejaVuSans-48"/>
      </g>
     </g>
    </g>
    <g id="ytick_3">
     <g id="line2d_105">
      <path clip-path="url(#pf55a7a6db7)" d="M 60.05 173.020979 
L 493.2 173.020979 
" style="fill:none;stroke:#808080;stroke-linecap:square;stroke-width:0.8;"/>
     </g>
     <g id="line2d_106">
      <g>
       <use style="stroke:#000000;stroke-width:0.8;" x="60.05" xlink:href="#m8a63b0787a" y="173.020979"/>
      </g>
     </g>
     <g id="text_10">
      <!-- 0 -->
      <g transform="translate(45.415 177.580042)scale(0.12 -0.12)">
       <use xlink:href="#DejaVuSans-48"/>
      </g>
     </g>
    </g>
    <g id="ytick_4">
     <g id="line2d_107">
      <path clip-path="url(#pf55a7a6db7)" d="M 60.05 122.72386 
L 493.2 122.72386 
" style="fill:none;stroke:#808080;stroke-linecap:square;stroke-width:0.8;"/>
     </g>
     <g id="line2d_108">
      <g>
       <use style="stroke:#000000;stroke-width:0.8;" x="60.05" xlink:href="#m8a63b0787a" y="122.72386"/>
      </g>
     </g>
     <g id="text_11">
      <!-- 20 -->
      <g transform="translate(37.78 127.282922)scale(0.12 -0.12)">
       <use xlink:href="#DejaVuSans-50"/>
       <use x="63.623047" xlink:href="#DejaVuSans-48"/>
      </g>
     </g>
    </g>
    <g id="ytick_5">
     <g id="line2d_109">
      <path clip-path="url(#pf55a7a6db7)" d="M 60.05 72.42674 
L 493.2 72.42674 
" style="fill:none;stroke:#808080;stroke-linecap:square;stroke-width:0.8;"/>
     </g>
     <g id="line2d_110">
      <g>
       <use style="stroke:#000000;stroke-width:0.8;" x="60.05" xlink:href="#m8a63b0787a" y="72.42674"/>
      </g>
     </g>
     <g id="text_12">
      <!-- 40 -->
      <g transform="translate(37.78 76.985803)scale(0.12 -0.12)">
       <use xlink:href="#DejaVuSans-52"/>
       <use x="63.623047" xlink:href="#DejaVuSans-48"/>
      </g>
     </g>
    </g>
    <g id="text_13">
     <!-- magnitude [dB] -->
     <g transform="translate(21.22875 214.669687)rotate(-90)scale(0.12 -0.12)">
      <defs>
       <path d="M 52 44.1875 
Q 55.375 50.25 60.0625 53.125 
Q 64.75 56 71.09375 56 
Q 79.640625 56 84.28125 50.015625 
Q 88.921875 44.046875 88.921875 33.015625 
L 88.921875 0 
L 79.890625 0 
L 79.890625 32.71875 
Q 79.890625 40.578125 77.09375 44.375 
Q 74.3125 48.1875 68.609375 48.1875 
Q 61.625 48.1875 57.5625 43.546875 
Q 53.515625 38.921875 53.515625 30.90625 
L 53.515625 0 
L 44.484375 0 
L 44.484375 32.71875 
Q 44.484375 40.625 41.703125 44.40625 
Q 38.921875 48.1875 33.109375 48.1875 
Q 26.21875 48.1875 22.15625 43.53125 
Q 18.109375 38.875 18.109375 30.90625 
L 18.109375 0 
L 9.078125 0 
L 9.078125 54.6875 
L 18.109375 54.6875 
L 18.109375 46.1875 
Q 21.1875 51.21875 25.484375 53.609375 
Q 29.78125 56 35.6875 56 
Q 41.65625 56 45.828125 52.96875 
Q 50 49.953125 52 44.1875 
z
" id="DejaVuSans-109"/>
       <path d="M 34.28125 27.484375 
Q 23.390625 27.484375 19.1875 25 
Q 14.984375 22.515625 14.984375 16.5 
Q 14.984375 11.71875 18.140625 8.90625 
Q 21.296875 6.109375 26.703125 6.109375 
Q 34.1875 6.109375 38.703125 11.40625 
Q 43.21875 16.703125 43.21875 25.484375 
L 43.21875 27.484375 
z
M 52.203125 31.203125 
L 52.203125 0 
L 43.21875 0 
L 43.21875 8.296875 
Q 40.140625 3.328125 35.546875 0.953125 
Q 30.953125 -1.421875 24.3125 -1.421875 
Q 15.921875 -1.421875 10.953125 3.296875 
Q 6 8.015625 6 15.921875 
Q 6 25.140625 12.171875 29.828125 
Q 18.359375 34.515625 30.609375 34.515625 
L 43.21875 34.515625 
L 43.21875 35.40625 
Q 43.21875 41.609375 39.140625 45 
Q 35.0625 48.390625 27.6875 48.390625 
Q 23 48.390625 18.546875 47.265625 
Q 14.109375 46.140625 10.015625 43.890625 
L 10.015625 52.203125 
Q 14.9375 54.109375 19.578125 55.046875 
Q 24.21875 56 28.609375 56 
Q 40.484375 56 46.34375 49.84375 
Q 52.203125 43.703125 52.203125 31.203125 
z
" id="DejaVuSans-97"/>
       <path d="M 45.40625 27.984375 
Q 45.40625 37.75 41.375 43.109375 
Q 37.359375 48.484375 30.078125 48.484375 
Q 22.859375 48.484375 18.828125 43.109375 
Q 14.796875 37.75 14.796875 27.984375 
Q 14.796875 18.265625 18.828125 12.890625 
Q 22.859375 7.515625 30.078125 7.515625 
Q 37.359375 7.515625 41.375 12.890625 
Q 45.40625 18.265625 45.40625 27.984375 
z
M 54.390625 6.78125 
Q 54.390625 -7.171875 48.1875 -13.984375 
Q 42 -20.796875 29.203125 -20.796875 
Q 24.46875 -20.796875 20.265625 -20.09375 
Q 16.0625 -19.390625 12.109375 -17.921875 
L 12.109375 -9.1875 
Q 16.0625 -11.328125 19.921875 -12.34375 
Q 23.78125 -13.375 27.78125 -13.375 
Q 36.625 -13.375 41.015625 -8.765625 
Q 45.40625 -4.15625 45.40625 5.171875 
L 45.40625 9.625 
Q 42.625 4.78125 38.28125 2.390625 
Q 33.9375 0 27.875 0 
Q 17.828125 0 11.671875 7.65625 
Q 5.515625 15.328125 5.515625 27.984375 
Q 5.515625 40.671875 11.671875 48.328125 
Q 17.828125 56 27.875 56 
Q 33.9375 56 38.28125 53.609375 
Q 42.625 51.21875 45.40625 46.390625 
L 45.40625 54.6875 
L 54.390625 54.6875 
z
" id="DejaVuSans-103"/>
       <path d="M 9.421875 54.6875 
L 18.40625 54.6875 
L 18.40625 0 
L 9.421875 0 
z
M 9.421875 75.984375 
L 18.40625 75.984375 
L 18.40625 64.59375 
L 9.421875 64.59375 
z
" id="DejaVuSans-105"/>
       <path d="M 18.3125 70.21875 
L 18.3125 54.6875 
L 36.8125 54.6875 
L 36.8125 47.703125 
L 18.3125 47.703125 
L 18.3125 18.015625 
Q 18.3125 11.328125 20.140625 9.421875 
Q 21.96875 7.515625 27.59375 7.515625 
L 36.8125 7.515625 
L 36.8125 0 
L 27.59375 0 
Q 17.1875 0 13.234375 3.875 
Q 9.28125 7.765625 9.28125 18.015625 
L 9.28125 47.703125 
L 2.6875 47.703125 
L 2.6875 54.6875 
L 9.28125 54.6875 
L 9.28125 70.21875 
z
" id="DejaVuSans-116"/>
       <path d="M 45.40625 46.390625 
L 45.40625 75.984375 
L 54.390625 75.984375 
L 54.390625 0 
L 45.40625 0 
L 45.40625 8.203125 
Q 42.578125 3.328125 38.25 0.953125 
Q 33.9375 -1.421875 27.875 -1.421875 
Q 17.96875 -1.421875 11.734375 6.484375 
Q 5.515625 14.40625 5.515625 27.296875 
Q 5.515625 40.1875 11.734375 48.09375 
Q 17.96875 56 27.875 56 
Q 33.9375 56 38.25 53.625 
Q 42.578125 51.265625 45.40625 46.390625 
z
M 14.796875 27.296875 
Q 14.796875 17.390625 18.875 11.75 
Q 22.953125 6.109375 30.078125 6.109375 
Q 37.203125 6.109375 41.296875 11.75 
Q 45.40625 17.390625 45.40625 27.296875 
Q 45.40625 37.203125 41.296875 42.84375 
Q 37.203125 48.484375 30.078125 48.484375 
Q 22.953125 48.484375 18.875 42.84375 
Q 14.796875 37.203125 14.796875 27.296875 
z
" id="DejaVuSans-100"/>
       <path d="M 19.671875 34.8125 
L 19.671875 8.109375 
L 35.5 8.109375 
Q 43.453125 8.109375 47.28125 11.40625 
Q 51.125 14.703125 51.125 21.484375 
Q 51.125 28.328125 47.28125 31.5625 
Q 43.453125 34.8125 35.5 34.8125 
z
M 19.671875 64.796875 
L 19.671875 42.828125 
L 34.28125 42.828125 
Q 41.5 42.828125 45.03125 45.53125 
Q 48.578125 48.25 48.578125 53.8125 
Q 48.578125 59.328125 45.03125 62.0625 
Q 41.5 64.796875 34.28125 64.796875 
z
M 9.8125 72.90625 
L 35.015625 72.90625 
Q 46.296875 72.90625 52.390625 68.21875 
Q 58.5 63.53125 58.5 54.890625 
Q 58.5 48.1875 55.375 44.234375 
Q 52.25 40.28125 46.1875 39.3125 
Q 53.46875 37.75 57.5 32.78125 
Q 61.53125 27.828125 61.53125 20.40625 
Q 61.53125 10.640625 54.890625 5.3125 
Q 48.25 0 35.984375 0 
L 9.8125 0 
z
" id="DejaVuSans-66"/>
      </defs>
      <use xlink:href="#DejaVuSans-109"/>
      <use x="97.412109" xlink:href="#DejaVuSans-97"/>
      <use x="158.691406" xlink:href="#DejaVuSans-103"/>
      <use x="222.167969" xlink:href="#DejaVuSans-110"/>
      <use x="285.546875" xlink:href="#DejaVuSans-105"/>
      <use x="313.330078" xlink:href="#DejaVuSans-116"/>
      <use x="352.539062" xlink:href="#DejaVuSans-117"/>
      <use x="415.917969" xlink:href="#DejaVuSans-100"/>
      <use x="479.394531" xlink:href="#DejaVuSans-101"/>
      <use x="540.917969" xlink:href="#DejaVuSans-32"/>
      <use x="572.705078" xlink:href="#DejaVuSans-91"/>
      <use x="611.71875" xlink:href="#DejaVuSans-100"/>
      <use x="675.195312" xlink:href="#DejaVuSans-66"/>
      <use x="743.798828" xlink:href="#DejaVuSans-93"/>
     </g>
    </g>
   </g>
   <g id="line2d_111">
    <path clip-path="url(#pf55a7a6db7)" d="M 79.738636 39.618978 
L 83.716139 39.699975 
L 87.693641 39.801332 
L 91.671143 39.927901 
L 95.648646 40.08555 
L 99.626148 40.281286 
L 103.60365 40.523376 
L 107.581152 40.821397 
L 111.558655 41.186213 
L 115.536157 41.629827 
L 119.513659 42.165062 
L 123.491162 42.805056 
L 127.468664 43.562559 
L 131.446166 44.449071 
L 135.423669 45.473932 
L 139.401171 46.643467 
L 143.378673 47.960362 
L 147.356175 49.423392 
L 151.333678 51.027545 
L 155.31118 52.764536 
L 159.288682 54.623591 
L 163.266185 56.592356 
L 167.243687 58.657794 
L 171.221189 60.806956 
L 175.198691 63.027564 
L 179.176194 65.3084 
L 183.153696 67.639518 
L 187.131198 70.012318 
L 191.108701 72.419517 
L 195.086203 74.855073 
L 199.063705 77.314062 
L 203.041208 79.792558 
L 207.01871 82.287517 
L 210.996212 84.796665 
L 214.973714 87.318425 
L 218.951217 89.851844 
L 222.928719 92.396555 
L 226.906221 94.952762 
L 230.883724 97.521237 
L 234.861226 100.10335 
L 238.838728 102.701103 
L 242.81623 105.317187 
L 246.793733 107.955048 
L 250.771235 110.618945 
L 254.748737 113.31399 
L 258.72624 116.046159 
L 262.703742 118.822223 
L 266.681244 121.64958 
L 270.658747 124.53594 
L 274.636249 127.488836 
L 278.613751 130.514937 
L 282.591253 133.619189 
L 286.568756 136.803856 
L 290.546258 140.067598 
L 294.52376 143.40475 
L 298.501263 146.805015 
L 302.478765 150.253703 
L 306.456267 153.732583 
L 310.43377 157.22128 
L 314.411272 160.699038 
L 318.388774 164.146574 
L 322.366276 167.547745 
L 326.343779 170.890782 
L 330.321281 174.168954 
L 334.298783 177.380648 
L 338.276286 180.528961 
L 342.253788 183.620982 
L 346.23129 186.666939 
L 350.208792 189.679387 
L 354.186295 192.672502 
L 358.163797 195.661546 
L 362.141299 198.662448 
L 366.118802 201.691458 
L 370.096304 204.764786 
L 374.073806 207.89815 
L 378.051309 211.106171 
L 382.028811 214.401598 
L 386.006313 217.794392 
L 389.983815 221.290755 
L 393.961318 224.892258 
L 397.93882 228.595216 
L 401.916322 232.390441 
L 405.893825 236.263454 
L 409.871327 240.195152 
L 413.848829 244.162836 
L 417.826331 248.141521 
L 421.803834 252.105383 
L 425.781336 256.029257 
L 429.758838 259.890081 
L 433.736341 263.668177 
L 437.713843 267.348255 
L 441.691345 270.920037 
L 445.668848 274.378407 
L 449.64635 277.723114 
L 453.623852 280.958065 
L 457.601354 284.090371 
L 461.578857 287.129296 
L 465.556359 290.085259 
L 469.533861 292.968993 
L 473.511364 295.790909 
" style="fill:none;stroke:#ff0000;stroke-linecap:square;stroke-width:2;"/>
   </g>
   <g id="line2d_112">
    <path clip-path="url(#pf55a7a6db7)" d="M 79.738636 39.618975 
L 83.716139 39.699971 
L 87.693641 39.801326 
L 91.671143 39.927895 
L 95.648646 40.085541 
L 99.626148 40.281276 
L 103.60365 40.523362 
L 107.581152 40.821379 
L 111.558655 41.18619 
L 115.536157 41.629798 
L 119.513659 42.165025 
L 123.491162 42.805009 
L 127.468664 43.562497 
L 131.446166 44.448992 
L 135.423669 45.47383 
L 139.401171 46.643335 
L 143.378673 47.960192 
L 147.356175 49.423173 
L 151.333678 51.027263 
L 155.31118 52.764175 
L 159.288682 54.623128 
L 163.266185 56.591763 
L 167.243687 58.657037 
L 171.221189 60.805991 
L 175.198691 63.026335 
L 179.176194 65.306839 
L 183.153696 67.637536 
L 187.131198 70.009804 
L 191.108701 72.416332 
L 195.086203 74.851041 
L 199.063705 77.308959 
L 203.041208 79.786104 
L 207.01871 82.279355 
L 210.996212 84.786346 
L 214.973714 87.305379 
L 218.951217 89.83535 
L 222.928719 92.375701 
L 226.906221 94.92639 
L 230.883724 97.487878 
L 234.861226 100.061136 
L 238.838728 102.647657 
L 242.81623 105.249483 
L 246.793733 107.869224 
L 250.771235 110.510071 
L 254.748737 113.175774 
L 258.72624 115.870572 
L 262.703742 118.599046 
L 266.681244 121.365864 
L 270.658747 124.175403 
L 274.636249 127.031233 
L 278.613751 129.935496 
L 282.591253 132.888244 
L 286.568756 135.886859 
L 290.546258 138.925714 
L 294.52376 141.996206 
L 298.501263 145.087284 
L 302.478765 148.18643 
L 306.456267 151.280968 
L 310.43377 154.359453 
L 314.411272 157.412889 
L 318.388774 160.435558 
L 322.366276 163.425393 
L 326.343779 166.383914 
L 330.321281 169.315861 
L 334.298783 172.228677 
L 338.276286 175.131971 
L 342.253788 178.037053 
L 346.23129 180.95656 
L 350.208792 183.904167 
L 354.186295 186.894321 
L 358.163797 189.941934 
L 362.141299 193.061975 
L 366.118802 196.268894 
L 370.096304 199.575871 
L 374.073806 202.993919 
L 378.051309 206.530919 
L 382.028811 210.190734 
L 386.006313 213.972536 
L 389.983815 217.870472 
L 393.961318 221.873735 
L 397.93882 225.967007 
L 401.916322 230.131183 
L 405.893825 234.344264 
L 409.871327 238.582307 
L 413.848829 242.820366 
L 417.826331 247.033424 
L 421.803834 251.19731 
L 425.781336 255.289638 
L 429.758838 259.290746 
L 433.736341 263.184579 
L 437.713843 266.959407 
L 441.691345 270.608266 
L 445.668848 274.129015 
L 449.64635 277.523993 
L 453.623852 280.799322 
L 457.601354 283.96397 
L 461.578857 287.028746 
L 465.556359 290.005335 
L 469.533861 292.905503 
L 473.511364 295.740499 
" style="fill:none;stroke:#0000ff;stroke-linecap:square;stroke-width:2;"/>
   </g>
   <g id="line2d_113">
    <path clip-path="url(#pf55a7a6db7)" d="M 79.738636 39.618964 
L 83.716139 39.699956 
L 87.693641 39.801308 
L 91.671143 39.927871 
L 95.648646 40.085512 
L 99.626148 40.281238 
L 103.60365 40.523315 
L 107.581152 40.821319 
L 111.558655 41.186114 
L 115.536157 41.629701 
L 119.513659 42.164902 
L 123.491162 42.804852 
L 127.468664 43.562298 
L 131.446166 44.448739 
L 135.423669 45.473507 
L 139.401171 46.642923 
L 143.378673 47.959667 
L 147.356175 49.422503 
L 151.333678 51.02641 
L 155.31118 52.763089 
L 159.288682 54.621747 
L 163.266185 56.590008 
L 167.243687 58.654809 
L 171.221189 60.803166 
L 175.198691 63.022756 
L 179.176194 65.302306 
L 183.153696 67.6318 
L 187.131198 70.002549 
L 191.108701 72.407162 
L 195.086203 74.839453 
L 199.063705 77.294324 
L 203.041208 79.767626 
L 207.01871 82.256033 
L 210.996212 84.75692 
L 214.973714 87.268262 
L 218.951217 89.78855 
L 222.928719 92.316715 
L 226.906221 94.852079 
L 230.883724 97.394314 
L 234.861226 99.943409 
L 238.838728 102.499651 
L 242.81623 105.063605 
L 246.793733 107.636088 
L 250.771235 110.218142 
L 254.748737 112.810979 
L 258.72624 115.415903 
L 262.703742 118.0342 
L 266.681244 120.666977 
L 270.658747 123.314982 
L 274.636249 125.978405 
L 278.613751 128.656701 
L 282.591253 131.348503 
L 286.568756 134.051644 
L 290.546258 136.763359 
L 294.52376 139.480632 
L 298.501263 142.20065 
L 302.478765 144.921286 
L 306.456267 147.641507 
L 310.43377 150.361667 
L 314.411272 153.083653 
L 318.388774 155.810912 
L 322.366276 158.548406 
L 326.343779 161.302537 
L 330.321281 164.081081 
L 334.298783 166.893127 
L 338.276286 169.749018 
L 342.253788 172.660252 
L 346.23129 175.639297 
L 350.208792 178.69927 
L 354.186295 181.853448 
L 358.163797 185.114568 
L 362.141299 188.493977 
L 366.118802 192.00067 
L 370.096304 195.640361 
L 374.073806 199.41473 
L 378.051309 203.320976 
L 382.028811 207.351749 
L 386.006313 211.495466 
L 389.983815 215.736916 
L 393.961318 220.05802 
L 397.93882 224.438619 
L 401.916322 228.857176 
L 405.893825 233.291366 
L 409.871327 237.718553 
L 413.848829 242.116217 
L 417.826331 246.462408 
L 421.803834 250.736281 
L 425.781336 254.918751 
L 429.758838 258.993256 
L 433.736341 262.946531 
L 437.713843 266.769294 
L 441.691345 270.456671 
L 445.668848 274.008286 
L 449.64635 277.427942 
L 453.623852 280.722965 
L 457.601354 283.903309 
L 461.578857 286.980578 
L 465.556359 289.967103 
L 469.533861 292.875168 
L 473.511364 295.716435 
" style="fill:none;stroke:#008000;stroke-linecap:square;stroke-width:2;"/>
   </g>
   <g id="line2d_114">
    <path clip-path="url(#pf55a7a6db7)" d="M 79.738636 39.618932 
L 83.716139 39.699916 
L 87.693641 39.801257 
L 91.671143 39.927807 
L 95.648646 40.08543 
L 99.626148 40.281135 
L 103.60365 40.523185 
L 107.581152 40.821154 
L 111.558655 41.185906 
L 115.536157 41.629437 
L 119.513659 42.164567 
L 123.491162 42.804428 
L 127.468664 43.56176 
L 131.446166 44.448056 
L 135.423669 45.472641 
L 139.401171 46.641823 
L 143.378673 47.958271 
L 147.356175 49.420732 
L 151.333678 51.024163 
L 155.31118 52.760239 
L 159.288682 54.618135 
L 163.266185 56.585433 
L 167.243687 58.649017 
L 171.221189 60.795837 
L 175.198691 63.013488 
L 179.176194 65.290592 
L 183.153696 67.617001 
L 187.131198 69.983862 
L 191.108701 72.383576 
L 195.086203 74.809697 
L 199.063705 77.256802 
L 203.041208 79.720336 
L 207.01871 82.196466 
L 210.996212 84.681941 
L 214.973714 87.173962 
L 218.951217 89.670066 
L 222.928719 92.168024 
L 226.906221 94.665758 
L 230.883724 97.161263 
L 234.861226 99.652561 
L 238.838728 102.137668 
L 242.81623 104.614597 
L 246.793733 107.081397 
L 250.771235 109.53624 
L 254.748737 111.977573 
L 258.72624 114.404315 
L 262.703742 116.816105 
L 266.681244 119.213563 
L 270.658747 121.598503 
L 274.636249 123.974051 
L 278.613751 126.344601 
L 282.591253 128.71558 
L 286.568756 131.093064 
L 290.546258 133.48331 
L 294.52376 135.892323 
L 298.501263 138.325564 
L 302.478765 140.787851 
L 306.456267 143.283464 
L 310.43377 145.816419 
L 314.411272 148.390819 
L 318.388774 151.011256 
L 322.366276 153.683159 
L 326.343779 156.413085 
L 330.321281 159.208895 
L 334.298783 162.079796 
L 338.276286 165.036207 
L 342.253788 168.089429 
L 346.23129 171.251096 
L 350.208792 174.532423 
L 354.186295 177.943285 
L 358.163797 181.491245 
L 362.141299 185.180655 
L 366.118802 189.011992 
L 370.096304 192.98153 
L 374.073806 197.081419 
L 378.051309 201.30012 
L 382.028811 205.623087 
L 386.006313 210.033548 
L 389.983815 214.513248 
L 393.961318 219.043056 
L 397.93882 223.603393 
L 401.916322 228.174491 
L 405.893825 232.736537 
L 409.871327 237.269777 
L 413.848829 241.754648 
L 417.826331 246.172038 
L 421.803834 250.503702 
L 425.781336 254.732857 
L 429.758838 258.84493 
L 433.736341 262.828345 
L 437.713843 266.675227 
L 441.691345 270.381868 
L 445.668848 273.948843 
L 449.64635 277.380732 
L 453.623852 280.685488 
L 457.601354 283.873568 
L 461.578857 286.956983 
L 465.556359 289.948388 
L 469.533861 292.860326 
L 473.511364 295.704667 
" style="fill:none;stroke:#00bfbf;stroke-linecap:square;stroke-width:2;"/>
   </g>
   <g id="line2d_115">
    <path clip-path="url(#pf55a7a6db7)" d="M 79.738636 39.61885 
L 83.716139 39.699813 
L 87.693641 39.801127 
L 91.671143 39.927643 
L 95.648646 40.085224 
L 99.626148 40.280875 
L 103.60365 40.522856 
L 107.581152 40.820738 
L 111.558655 41.18538 
L 115.536157 41.628772 
L 119.513659 42.163726 
L 123.491162 42.803364 
L 127.468664 43.560414 
L 131.446166 44.446351 
L 135.423669 45.470482 
L 139.401171 46.63909 
L 143.378673 47.95481 
L 147.356175 49.41635 
L 151.333678 51.018617 
L 155.31118 52.753221 
L 159.288682 54.609258 
L 163.266185 56.574209 
L 167.243687 58.634832 
L 171.221189 60.777916 
L 175.198691 62.99086 
L 179.176194 65.262033 
L 183.153696 67.580977 
L 187.131198 69.938445 
L 191.108701 72.326353 
L 195.086203 74.737652 
L 199.063705 77.166171 
L 203.041208 79.606438 
L 207.01871 82.053503 
L 210.996212 84.502763 
L 214.973714 86.949802 
L 218.951217 89.390259 
L 222.928719 91.819716 
L 226.906221 94.233635 
L 230.883724 96.627352 
L 234.861226 98.996153 
L 238.838728 101.335452 
L 242.81623 103.641093 
L 246.793733 105.909782 
L 250.771235 108.139627 
L 254.748737 110.330726 
L 258.72624 112.485703 
L 262.703742 114.61005 
L 266.681244 116.712138 
L 270.658747 118.802814 
L 274.636249 120.894591 
L 278.613751 123.000555 
L 282.591253 125.133221 
L 286.568756 127.30357 
L 290.546258 129.520454 
L 294.52376 131.79045 
L 298.501263 134.118128 
L 302.478765 136.506606 
L 306.456267 138.95826 
L 310.43377 141.475441 
L 314.411272 144.061121 
L 318.388774 146.719385 
L 322.366276 149.455766 
L 326.343779 152.277373 
L 330.321281 155.192818 
L 334.298783 158.211911 
L 338.276286 161.345123 
L 342.253788 164.60283 
L 346.23129 167.994392 
L 350.208792 171.527158 
L 354.186295 175.20555 
L 358.163797 179.030364 
L 362.141299 182.99842 
L 366.118802 187.102612 
L 370.096304 191.33233 
L 374.073806 195.674149 
L 378.051309 200.11262 
L 382.028811 204.631043 
L 386.006313 209.212089 
L 389.983815 213.838236 
L 393.961318 218.491999 
L 397.93882 223.155999 
L 401.916322 227.812921 
L 405.893825 232.445431 
L 409.871327 237.036127 
L 413.848829 241.567587 
L 417.826331 246.022582 
L 421.803834 250.384486 
L 425.781336 254.637888 
L 429.758838 258.769357 
L 433.736341 262.768258 
L 437.713843 266.627484 
L 441.691345 270.343954 
L 445.668848 273.918747 
L 449.64635 277.356851 
L 453.623852 280.666542 
L 457.601354 283.858542 
L 461.578857 286.945067 
L 465.556359 289.93894 
L 469.533861 292.852836 
L 473.511364 295.698729 
" style="fill:none;stroke:#bf00bf;stroke-linecap:square;stroke-width:2;"/>
   </g>
   <g id="line2d_116">
    <path clip-path="url(#pf55a7a6db7)" d="M 79.738636 39.618654 
L 83.716139 39.699566 
L 87.693641 39.800815 
L 91.671143 39.927249 
L 95.648646 40.084726 
L 99.626148 40.280246 
L 103.60365 40.522062 
L 107.581152 40.819735 
L 111.558655 41.184113 
L 115.536157 41.627171 
L 119.513659 42.161703 
L 123.491162 42.800807 
L 127.468664 43.557181 
L 131.446166 44.442264 
L 135.423669 45.465315 
L 139.401171 46.632556 
L 143.378673 47.94655 
L 147.356175 49.405908 
L 151.333678 51.005419 
L 155.31118 52.736545 
L 159.288682 54.588195 
L 163.266185 56.547615 
L 167.243687 58.601271 
L 171.221189 60.735587 
L 175.198691 62.937501 
L 179.176194 65.194818 
L 183.153696 67.496375 
L 187.131198 69.832061 
L 191.108701 72.192731 
L 195.086203 74.570049 
L 199.063705 76.956301 
L 203.041208 79.344187 
L 207.01871 81.726629 
L 210.996212 84.096611 
L 214.973714 86.447068 
L 218.951217 88.770858 
L 222.928719 91.060842 
L 226.906221 93.310108 
L 230.883724 95.512358 
L 234.861226 97.662473 
L 238.838728 99.757222 
L 242.81623 101.796033 
L 246.793733 103.781709 
L 250.771235 105.720897 
L 254.748737 107.624148 
L 258.72624 109.505453 
L 262.703742 111.381239 
L 266.681244 113.268978 
L 270.658747 115.185635 
L 274.636249 117.14627 
L 278.613751 119.163037 
L 282.591253 121.244732 
L 286.568756 123.396892 
L 290.546258 125.622347 
L 294.52376 127.922043 
L 298.501263 130.295964 
L 302.478765 132.744017 
L 306.456267 135.266784 
L 310.43377 137.866099 
L 314.411272 140.545432 
L 318.388774 143.310075 
L 322.366276 146.167124 
L 326.343779 149.125253 
L 330.321281 152.194256 
L 334.298783 155.384376 
L 338.276286 158.70543 
L 342.253788 162.165831 
L 346.23129 165.771603 
L 350.208792 169.525547 
L 354.186295 173.426709 
L 358.163797 177.470226 
L 362.141299 181.647583 
L 366.118802 185.947192 
L 370.096304 190.355174 
L 374.073806 194.85617 
L 378.051309 199.434076 
L 382.028811 204.072596 
L 386.006313 208.755584 
L 389.983815 213.467191 
L 393.961318 218.191852 
L 397.93882 222.91416 
L 401.916322 227.618693 
L 405.893825 232.289852 
L 409.871327 236.911772 
L 413.848829 241.468361 
L 417.826331 245.943516 
L 421.803834 250.321555 
L 425.781336 254.587844 
L 429.758838 258.729589 
L 433.736341 262.736673 
L 437.713843 266.60241 
L 441.691345 270.324056 
L 445.668848 273.902961 
L 449.64635 277.344329 
L 453.623852 280.656612 
L 457.601354 283.850668 
L 461.578857 286.938825 
L 465.556359 289.933992 
L 469.533861 292.848913 
L 473.511364 295.69562 
" style="fill:none;stroke:#bfbf00;stroke-linecap:square;stroke-width:2;"/>
   </g>
   <g id="line2d_117">
    <path clip-path="url(#pf55a7a6db7)" d="M 79.738636 39.618193 
L 83.716139 39.698983 
L 87.693641 39.800079 
L 91.671143 39.926321 
L 95.648646 40.083554 
L 99.626148 40.278767 
L 103.60365 40.520194 
L 107.581152 40.817378 
L 111.558655 41.181136 
L 115.536157 41.623412 
L 119.513659 42.156956 
L 123.491162 42.794811 
L 127.468664 43.549608 
L 131.446166 44.432699 
L 135.423669 45.453233 
L 139.401171 46.617297 
L 143.378673 47.92728 
L 147.356175 49.381579 
L 151.333678 50.974712 
L 155.31118 52.697804 
L 159.288682 54.539341 
L 163.266185 56.486045 
L 167.243687 58.523731 
L 171.221189 60.638017 
L 175.198691 62.814857 
L 179.176194 65.040851 
L 183.153696 67.303381 
L 187.131198 69.590602 
L 191.108701 71.891332 
L 195.086203 74.194893 
L 199.063705 76.490953 
L 203.041208 78.769395 
L 207.01871 81.020284 
L 210.996212 83.233946 
L 214.973714 85.401227 
L 218.951217 87.513936 
L 222.928719 89.565487 
L 226.906221 91.551701 
L 230.883724 93.471658 
L 234.861226 95.328452 
L 238.838728 97.129665 
L 242.81623 98.887367 
L 246.793733 100.617548 
L 250.771235 102.338976 
L 254.748737 104.071635 
L 258.72624 105.834984 
L 262.703742 107.646355 
L 266.681244 109.519742 
L 270.658747 111.46516 
L 274.636249 113.488619 
L 278.613751 115.592599 
L 282.591253 117.776892 
L 286.568756 120.039598 
L 290.546258 122.378115 
L 294.52376 124.790031 
L 298.501263 127.27383 
L 302.478765 129.829434 
L 306.456267 132.458551 
L 310.43377 135.164882 
L 314.411272 137.954144 
L 318.388774 140.833952 
L 322.366276 143.813501 
L 326.343779 146.903057 
L 330.321281 150.113244 
L 334.298783 153.454149 
L 338.276286 156.934339 
L 342.253788 160.559889 
L 346.23129 164.333577 
L 350.208792 168.254397 
L 354.186295 172.317456 
L 358.163797 176.514276 
L 362.141299 180.833418 
L 366.118802 185.261282 
L 370.096304 189.782942 
L 374.073806 194.38288 
L 378.051309 199.045537 
L 382.028811 203.755659 
L 386.006313 208.498438 
L 389.983815 213.259487 
L 393.961318 218.0247 
L 397.93882 222.780047 
L 401.916322 227.511353 
L 405.893825 232.20411 
L 409.871327 236.843392 
L 413.848829 241.413897 
L 417.826331 245.90018 
L 421.803834 250.287102 
L 425.781336 254.560471 
L 429.758838 258.707853 
L 433.736341 262.71942 
L 437.713843 266.58872 
L 441.691345 270.313196 
L 445.668848 273.894348 
L 449.64635 277.337499 
L 453.623852 280.651197 
L 457.601354 283.846375 
L 461.578857 286.935422 
L 465.556359 289.931294 
L 469.533861 292.846775 
L 473.511364 295.693925 
" style="fill:none;stroke:#000000;stroke-linecap:square;stroke-width:2;"/>
   </g>
   <g id="line2d_118">
    <path clip-path="url(#pf55a7a6db7)" d="M 79.738636 39.617123 
L 83.716139 39.697634 
L 87.693641 39.798376 
L 91.671143 39.924171 
L 95.648646 40.080841 
L 99.626148 40.275343 
L 103.60365 40.515874 
L 107.581152 40.811925 
L 111.558655 41.174253 
L 115.536157 41.614725 
L 119.513659 42.145992 
L 123.491162 42.780972 
L 127.468664 43.532142 
L 131.446166 44.410657 
L 135.423669 45.425421 
L 139.401171 46.582213 
L 143.378673 47.883036 
L 147.356175 49.325808 
L 151.333678 50.904451 
L 155.31118 52.609351 
L 159.288682 54.428085 
L 163.266185 56.346263 
L 167.243687 58.348349 
L 171.221189 60.418339 
L 175.198691 62.540264 
L 179.176194 64.698486 
L 183.153696 66.877848 
L 187.131198 69.063709 
L 191.108701 71.241953 
L 195.086203 73.399033 
L 199.063705 75.522115 
L 203.041208 77.599388 
L 207.01871 79.620569 
L 210.996212 81.577602 
L 214.973714 83.465489 
L 218.951217 85.28315 
L 222.928719 87.034117 
L 226.906221 88.726901 
L 230.883724 90.374835 
L 234.861226 91.995329 
L 238.838728 93.60858 
L 242.81623 95.235871 
L 246.793733 96.897754 
L 250.771235 98.612374 
L 254.748737 100.394208 
L 258.72624 102.253384 
L 262.703742 104.195603 
L 266.681244 106.222605 
L 270.658747 108.333004 
L 274.636249 110.523295 
L 278.613751 112.788881 
L 282.591253 115.124991 
L 286.568756 117.527427 
L 290.546258 119.993139 
L 294.52376 122.520623 
L 298.501263 125.110203 
L 302.478765 127.764186 
L 306.456267 130.48693 
L 310.43377 133.284803 
L 314.411272 136.166041 
L 318.388774 139.140439 
L 322.366276 142.218884 
L 326.343779 145.412689 
L 330.321281 148.732749 
L 334.298783 152.188582 
L 338.276286 155.787354 
L 342.253788 159.533048 
L 346.23129 163.425899 
L 350.208792 167.462213 
L 354.186295 171.634602 
L 358.163797 175.932546 
L 362.141299 180.343189 
L 366.118802 184.852189 
L 370.096304 189.444498 
L 374.073806 194.104977 
L 378.051309 198.818803 
L 382.028811 203.571669 
L 386.006313 208.349802 
L 389.983815 213.139856 
L 393.961318 217.928707 
L 397.93882 222.703211 
L 401.916322 227.449973 
L 405.893825 232.155157 
L 409.871327 236.804399 
L 413.848829 241.38287 
L 417.826331 245.875513 
L 421.803834 250.267504 
L 425.781336 254.544908 
L 429.758838 258.695499 
L 433.736341 262.709618 
L 437.713843 266.580944 
L 441.691345 270.307028 
L 445.668848 273.889457 
L 449.64635 277.333621 
L 453.623852 280.648123 
L 457.601354 283.843938 
L 461.578857 286.93349 
L 465.556359 289.929763 
L 469.533861 292.845561 
L 473.511364 295.692963 
" style="fill:none;stroke:#ff0000;stroke-linecap:square;stroke-width:2;"/>
   </g>
   <g id="line2d_119">
    <path clip-path="url(#pf55a7a6db7)" d="M 79.738636 39.614672 
L 83.716139 39.69454 
L 87.693641 39.794473 
L 91.671143 39.919246 
L 95.648646 40.074627 
L 99.626148 40.267503 
L 103.60365 40.505981 
L 107.581152 40.799444 
L 111.558655 41.158508 
L 115.536157 41.594864 
L 119.513659 42.12094 
L 123.491162 42.749381 
L 127.468664 43.492312 
L 131.446166 44.360457 
L 135.423669 45.362176 
L 139.401171 46.502578 
L 143.378673 47.782837 
L 147.356175 49.19985 
L 151.333678 50.746296 
L 155.31118 52.41106 
L 159.288682 54.179925 
L 163.266185 56.036395 
L 167.243687 57.962503 
L 171.221189 59.939528 
L 175.198691 61.948566 
L 179.176194 63.970988 
L 183.153696 65.988839 
L 187.131198 67.985252 
L 191.108701 69.94495 
L 195.086203 71.854898 
L 199.063705 73.705074 
L 203.041208 75.489337 
L 207.01871 77.206219 
L 210.996212 78.859509 
L 214.973714 80.458408 
L 218.951217 82.017156 
L 222.928719 83.554054 
L 226.906221 85.089989 
L 230.883724 86.646634 
L 234.861226 88.244574 
L 238.838728 89.901653 
L 242.81623 91.631758 
L 246.793733 93.444191 
L 250.771235 95.343645 
L 254.748737 97.330701 
L 258.72624 99.402683 
L 262.703742 101.55467 
L 266.681244 103.780512 
L 270.658747 106.073723 
L 274.636249 108.428205 
L 278.613751 110.838776 
L 282.591253 113.30155 
L 286.568756 115.814186 
L 290.546258 118.37605 
L 294.52376 120.988321 
L 298.501263 123.654049 
L 302.478765 126.378185 
L 306.456267 129.167548 
L 310.43377 132.03072 
L 314.411272 134.977827 
L 318.388774 138.020169 
L 322.366276 141.169664 
L 326.343779 144.438111 
L 330.321281 147.836292 
L 334.298783 151.373012 
L 338.276286 155.054194 
L 342.253788 158.882188 
L 346.23129 162.855414 
L 350.208792 166.968413 
L 354.186295 171.212278 
L 358.163797 175.57537 
L 362.141299 180.044167 
L 366.118802 184.604107 
L 370.096304 189.240296 
L 374.073806 193.938029 
L 378.051309 198.683092 
L 382.028811 203.461877 
L 386.006313 208.261331 
L 389.983815 213.068797 
L 393.961318 217.871784 
L 397.93882 222.65771 
L 401.916322 227.413665 
L 405.893825 232.126225 
L 409.871327 236.781371 
L 413.848829 241.364557 
L 417.826331 245.86096 
L 421.803834 250.255945 
L 425.781336 254.535732 
L 429.758838 258.688217 
L 433.736341 262.70384 
L 437.713843 266.576362 
L 441.691345 270.303394 
L 445.668848 273.886576 
L 449.64635 277.331337 
L 453.623852 280.646312 
L 457.601354 283.842502 
L 461.578857 286.932352 
L 465.556359 289.928861 
L 469.533861 292.844846 
L 473.511364 295.692396 
" style="fill:none;stroke:#0000ff;stroke-linecap:square;stroke-width:2;"/>
   </g>
   <g id="line2d_120">
    <path clip-path="url(#pf55a7a6db7)" d="M 79.738636 39.609091 
L 83.716139 39.687499 
L 87.693641 39.785591 
L 91.671143 39.908041 
L 95.648646 40.060494 
L 99.626148 40.249677 
L 103.60365 40.483502 
L 107.581152 40.771101 
L 111.558655 41.122779 
L 115.536157 41.549838 
L 119.513659 42.064219 
L 123.491162 42.67796 
L 127.468664 43.402436 
L 131.446166 44.247444 
L 135.423669 45.220211 
L 139.401171 46.324467 
L 143.378673 47.559726 
L 147.356175 48.920921 
L 151.333678 50.39844 
L 155.31118 51.97856 
L 159.288682 53.644193 
L 163.266185 55.375812 
L 167.243687 57.152473 
L 171.221189 58.952831 
L 175.198691 60.756158 
L 179.176194 62.543363 
L 183.153696 64.298021 
L 187.131198 66.007425 
L 191.108701 67.663552 
L 195.086203 69.263854 
L 199.063705 70.811691 
L 203.041208 72.31627 
L 207.01871 73.791993 
L 210.996212 75.257242 
L 214.973714 76.732711 
L 218.951217 78.2395 
L 222.928719 79.797239 
L 226.906221 81.422489 
L 230.883724 83.127635 
L 234.861226 84.920376 
L 238.838728 86.803803 
L 242.81623 88.776981 
L 246.793733 90.835825 
L 250.771235 92.974122 
L 254.748737 95.184505 
L 258.72624 97.459304 
L 262.703742 99.791192 
L 266.681244 102.173659 
L 270.658747 104.601321 
L 274.636249 107.070101 
L 278.613751 109.577345 
L 282.591253 112.121882 
L 286.568756 114.704073 
L 290.546258 117.325849 
L 294.52376 119.990756 
L 298.501263 122.703991 
L 302.478765 125.472421 
L 306.456267 128.304546 
L 310.43377 131.210388 
L 314.411272 134.201244 
L 318.388774 137.289281 
L 322.366276 140.486938 
L 326.343779 143.806141 
L 330.321281 147.257394 
L 334.298783 150.84883 
L 338.276286 154.585385 
L 342.253788 158.468216 
L 346.23129 162.4945 
L 350.208792 166.657634 
L 354.186295 170.947786 
L 358.163797 175.352685 
L 362.141299 179.858493 
L 366.118802 184.450611 
L 370.096304 189.114338 
L 374.073806 193.835319 
L 378.051309 198.599783 
L 382.028811 203.394602 
L 386.006313 208.207202 
L 389.983815 213.025374 
L 393.961318 217.837034 
L 397.93882 222.629955 
L 401.916322 227.391532 
L 405.893825 232.108597 
L 409.871327 236.767346 
L 413.848829 241.353407 
L 417.826331 245.852102 
L 421.803834 250.248911 
L 425.781336 254.530149 
L 429.758838 258.683787 
L 433.736341 262.700326 
L 437.713843 266.573575 
L 441.691345 270.301184 
L 445.668848 273.884823 
L 449.64635 277.329948 
L 453.623852 280.64521 
L 457.601354 283.841629 
L 461.578857 286.93166 
L 465.556359 289.928312 
L 469.533861 292.844411 
L 473.511364 295.692051 
" style="fill:none;stroke:#008000;stroke-linecap:square;stroke-width:2;"/>
   </g>
   <g id="patch_3">
    <path d="M 60.05 308.6 
L 60.05 26.8 
" style="fill:none;stroke:#000000;stroke-linecap:square;stroke-linejoin:miter;stroke-width:0.8;"/>
   </g>
   <g id="patch_4">
    <path d="M 493.2 308.6 
L 493.2 26.8 
" style="fill:none;stroke:#000000;stroke-linecap:square;stroke-linejoin:miter;stroke-width:0.8;"/>
   </g>
   <g id="patch_5">
    <path d="M 60.05 308.6 
L 493.2 308.6 
" style="fill:none;stroke:#000000;stroke-linecap:square;stroke-linejoin:miter;stroke-width:0.8;"/>
   </g>
   <g id="patch_6">
    <path d="M 60.05 26.8 
L 493.2 26.8 
" style="fill:none;stroke:#000000;stroke-linecap:square;stroke-linejoin:miter;stroke-width:0.8;"/>
   </g>
   <g id="text_14">
    <!-- Loop gain bandwidth limited amplifier -->
    <g transform="translate(162.717813 20.8)scale(0.12 -0.12)">
     <defs>
      <path d="M 9.8125 72.90625 
L 19.671875 72.90625 
L 19.671875 8.296875 
L 55.171875 8.296875 
L 55.171875 0 
L 9.8125 0 
z
" id="DejaVuSans-76"/>
      <path d="M 30.609375 48.390625 
Q 23.390625 48.390625 19.1875 42.75 
Q 14.984375 37.109375 14.984375 27.296875 
Q 14.984375 17.484375 19.15625 11.84375 
Q 23.34375 6.203125 30.609375 6.203125 
Q 37.796875 6.203125 41.984375 11.859375 
Q 46.1875 17.53125 46.1875 27.296875 
Q 46.1875 37.015625 41.984375 42.703125 
Q 37.796875 48.390625 30.609375 48.390625 
z
M 30.609375 56 
Q 42.328125 56 49.015625 48.375 
Q 55.71875 40.765625 55.71875 27.296875 
Q 55.71875 13.875 49.015625 6.21875 
Q 42.328125 -1.421875 30.609375 -1.421875 
Q 18.84375 -1.421875 12.171875 6.21875 
Q 5.515625 13.875 5.515625 27.296875 
Q 5.515625 40.765625 12.171875 48.375 
Q 18.84375 56 30.609375 56 
z
" id="DejaVuSans-111"/>
      <path d="M 18.109375 8.203125 
L 18.109375 -20.796875 
L 9.078125 -20.796875 
L 9.078125 54.6875 
L 18.109375 54.6875 
L 18.109375 46.390625 
Q 20.953125 51.265625 25.265625 53.625 
Q 29.59375 56 35.59375 56 
Q 45.5625 56 51.78125 48.09375 
Q 58.015625 40.1875 58.015625 27.296875 
Q 58.015625 14.40625 51.78125 6.484375 
Q 45.5625 -1.421875 35.59375 -1.421875 
Q 29.59375 -1.421875 25.265625 0.953125 
Q 20.953125 3.328125 18.109375 8.203125 
z
M 48.6875 27.296875 
Q 48.6875 37.203125 44.609375 42.84375 
Q 40.53125 48.484375 33.40625 48.484375 
Q 26.265625 48.484375 22.1875 42.84375 
Q 18.109375 37.203125 18.109375 27.296875 
Q 18.109375 17.390625 22.1875 11.75 
Q 26.265625 6.109375 33.40625 6.109375 
Q 40.53125 6.109375 44.609375 11.75 
Q 48.6875 17.390625 48.6875 27.296875 
z
" id="DejaVuSans-112"/>
      <path d="M 48.6875 27.296875 
Q 48.6875 37.203125 44.609375 42.84375 
Q 40.53125 48.484375 33.40625 48.484375 
Q 26.265625 48.484375 22.1875 42.84375 
Q 18.109375 37.203125 18.109375 27.296875 
Q 18.109375 17.390625 22.1875 11.75 
Q 26.265625 6.109375 33.40625 6.109375 
Q 40.53125 6.109375 44.609375 11.75 
Q 48.6875 17.390625 48.6875 27.296875 
z
M 18.109375 46.390625 
Q 20.953125 51.265625 25.265625 53.625 
Q 29.59375 56 35.59375 56 
Q 45.5625 56 51.78125 48.09375 
Q 58.015625 40.1875 58.015625 27.296875 
Q 58.015625 14.40625 51.78125 6.484375 
Q 45.5625 -1.421875 35.59375 -1.421875 
Q 29.59375 -1.421875 25.265625 0.953125 
Q 20.953125 3.328125 18.109375 8.203125 
L 18.109375 0 
L 9.078125 0 
L 9.078125 75.984375 
L 18.109375 75.984375 
z
" id="DejaVuSans-98"/>
      <path d="M 4.203125 54.6875 
L 13.1875 54.6875 
L 24.421875 12.015625 
L 35.59375 54.6875 
L 46.1875 54.6875 
L 57.421875 12.015625 
L 68.609375 54.6875 
L 77.59375 54.6875 
L 63.28125 0 
L 52.6875 0 
L 40.921875 44.828125 
L 29.109375 0 
L 18.5 0 
z
" id="DejaVuSans-119"/>
      <path d="M 54.890625 33.015625 
L 54.890625 0 
L 45.90625 0 
L 45.90625 32.71875 
Q 45.90625 40.484375 42.875 44.328125 
Q 39.84375 48.1875 33.796875 48.1875 
Q 26.515625 48.1875 22.3125 43.546875 
Q 18.109375 38.921875 18.109375 30.90625 
L 18.109375 0 
L 9.078125 0 
L 9.078125 75.984375 
L 18.109375 75.984375 
L 18.109375 46.1875 
Q 21.34375 51.125 25.703125 53.5625 
Q 30.078125 56 35.796875 56 
Q 45.21875 56 50.046875 50.171875 
Q 54.890625 44.34375 54.890625 33.015625 
z
" id="DejaVuSans-104"/>
      <path d="M 9.421875 75.984375 
L 18.40625 75.984375 
L 18.40625 0 
L 9.421875 0 
z
" id="DejaVuSans-108"/>
     </defs>
     <use xlink:href="#DejaVuSans-76"/>
     <use x="53.962891" xlink:href="#DejaVuSans-111"/>
     <use x="115.144531" xlink:href="#DejaVuSans-111"/>
     <use x="176.326172" xlink:href="#DejaVuSans-112"/>
     <use x="239.802734" xlink:href="#DejaVuSans-32"/>
     <use x="271.589844" xlink:href="#DejaVuSans-103"/>
     <use x="335.066406" xlink:href="#DejaVuSans-97"/>
     <use x="396.345703" xlink:href="#DejaVuSans-105"/>
     <use x="424.128906" xlink:href="#DejaVuSans-110"/>
     <use x="487.507812" xlink:href="#DejaVuSans-32"/>
     <use x="519.294922" xlink:href="#DejaVuSans-98"/>
     <use x="582.771484" xlink:href="#DejaVuSans-97"/>
     <use x="644.050781" xlink:href="#DejaVuSans-110"/>
     <use x="707.429688" xlink:href="#DejaVuSans-100"/>
     <use x="770.90625" xlink:href="#DejaVuSans-119"/>
     <use x="852.693359" xlink:href="#DejaVuSans-105"/>
     <use x="880.476562" xlink:href="#DejaVuSans-100"/>
     <use x="943.953125" xlink:href="#DejaVuSans-116"/>
     <use x="983.162109" xlink:href="#DejaVuSans-104"/>
     <use x="1046.541016" xlink:href="#DejaVuSans-32"/>
     <use x="1078.328125" xlink:href="#DejaVuSans-108"/>
     <use x="1106.111328" xlink:href="#DejaVuSans-105"/>
     <use x="1133.894531" xlink:href="#DejaVuSans-109"/>
     <use x="1231.306641" xlink:href="#DejaVuSans-105"/>
     <use x="1259.089844" xlink:href="#DejaVuSans-116"/>
     <use x="1298.298828" xlink:href="#DejaVuSans-101"/>
     <use x="1359.822266" xlink:href="#DejaVuSans-100"/>
     <use x="1423.298828" xlink:href="#DejaVuSans-32"/>
     <use x="1455.085938" xlink:href="#DejaVuSans-97"/>
     <use x="1516.365234" xlink:href="#DejaVuSans-109"/>
     <use x="1613.777344" xlink:href="#DejaVuSans-112"/>
     <use x="1677.253906" xlink:href="#DejaVuSans-108"/>
     <use x="1705.037109" xlink:href="#DejaVuSans-105"/>
     <use x="1732.820312" xlink:href="#DejaVuSans-102"/>
     <use x="1768.025391" xlink:href="#DejaVuSans-105"/>
     <use x="1795.808594" xlink:href="#DejaVuSans-101"/>
     <use x="1857.332031" xlink:href="#DejaVuSans-114"/>
    </g>
   </g>
   <g id="legend_1">
    <g id="patch_7">
     <path d="M 67.05 303.6 
L 241.374375 303.6 
Q 243.374375 303.6 243.374375 301.6 
L 243.374375 185.4625 
Q 243.374375 183.4625 241.374375 183.4625 
L 67.05 183.4625 
Q 65.05 183.4625 65.05 185.4625 
L 65.05 301.6 
Q 65.05 303.6 67.05 303.6 
z
" style="fill:#ffffff;opacity:0.8;stroke:#cccccc;stroke-linejoin:miter;"/>
    </g>
    <g id="line2d_121">
     <path d="M 67.05 191.080625 
L 77.05 191.080625 
" style="fill:none;stroke:#ff0000;stroke-linecap:square;stroke-width:2;"/>
    </g>
    <g id="line2d_122"/>
    <g id="text_15">
     <!-- loopgain, Rphz =  1.4e+01 -->
     <g transform="translate(79.05 194.580625)scale(0.12 -0.12)">
      <defs>
       <path d="M 11.71875 12.40625 
L 22.015625 12.40625 
L 22.015625 4 
L 14.015625 -11.625 
L 7.71875 -11.625 
L 11.71875 4 
z
" id="DejaVuSans-44"/>
       <path d="M 44.390625 34.1875 
Q 47.5625 33.109375 50.5625 29.59375 
Q 53.5625 26.078125 56.59375 19.921875 
L 66.609375 0 
L 56 0 
L 46.6875 18.703125 
Q 43.0625 26.03125 39.671875 28.421875 
Q 36.28125 30.8125 30.421875 30.8125 
L 19.671875 30.8125 
L 19.671875 0 
L 9.8125 0 
L 9.8125 72.90625 
L 32.078125 72.90625 
Q 44.578125 72.90625 50.734375 67.671875 
Q 56.890625 62.453125 56.890625 51.90625 
Q 56.890625 45.015625 53.6875 40.46875 
Q 50.484375 35.9375 44.390625 34.1875 
z
M 19.671875 64.796875 
L 19.671875 38.921875 
L 32.078125 38.921875 
Q 39.203125 38.921875 42.84375 42.21875 
Q 46.484375 45.515625 46.484375 51.90625 
Q 46.484375 58.296875 42.84375 61.546875 
Q 39.203125 64.796875 32.078125 64.796875 
z
" id="DejaVuSans-82"/>
       <path d="M 10.59375 45.40625 
L 73.1875 45.40625 
L 73.1875 37.203125 
L 10.59375 37.203125 
z
M 10.59375 25.484375 
L 73.1875 25.484375 
L 73.1875 17.1875 
L 10.59375 17.1875 
z
" id="DejaVuSans-61"/>
       <path d="M 10.6875 12.40625 
L 21 12.40625 
L 21 0 
L 10.6875 0 
z
" id="DejaVuSans-46"/>
       <path d="M 46 62.703125 
L 46 35.5 
L 73.1875 35.5 
L 73.1875 27.203125 
L 46 27.203125 
L 46 0 
L 37.796875 0 
L 37.796875 27.203125 
L 10.59375 27.203125 
L 10.59375 35.5 
L 37.796875 35.5 
L 37.796875 62.703125 
z
" id="DejaVuSans-43"/>
      </defs>
      <use xlink:href="#DejaVuSans-108"/>
      <use x="27.783203" xlink:href="#DejaVuSans-111"/>
      <use x="88.964844" xlink:href="#DejaVuSans-111"/>
      <use x="150.146484" xlink:href="#DejaVuSans-112"/>
      <use x="213.623047" xlink:href="#DejaVuSans-103"/>
      <use x="277.099609" xlink:href="#DejaVuSans-97"/>
      <use x="338.378906" xlink:href="#DejaVuSans-105"/>
      <use x="366.162109" xlink:href="#DejaVuSans-110"/>
      <use x="429.541016" xlink:href="#DejaVuSans-44"/>
      <use x="461.328125" xlink:href="#DejaVuSans-32"/>
      <use x="493.115234" xlink:href="#DejaVuSans-82"/>
      <use x="562.597656" xlink:href="#DejaVuSans-112"/>
      <use x="626.074219" xlink:href="#DejaVuSans-104"/>
      <use x="689.453125" xlink:href="#DejaVuSans-122"/>
      <use x="741.943359" xlink:href="#DejaVuSans-32"/>
      <use x="773.730469" xlink:href="#DejaVuSans-61"/>
      <use x="857.519531" xlink:href="#DejaVuSans-32"/>
      <use x="889.306641" xlink:href="#DejaVuSans-32"/>
      <use x="921.09375" xlink:href="#DejaVuSans-49"/>
      <use x="984.716797" xlink:href="#DejaVuSans-46"/>
      <use x="1016.503906" xlink:href="#DejaVuSans-52"/>
      <use x="1080.126953" xlink:href="#DejaVuSans-101"/>
      <use x="1141.650391" xlink:href="#DejaVuSans-43"/>
      <use x="1225.439453" xlink:href="#DejaVuSans-48"/>
      <use x="1289.0625" xlink:href="#DejaVuSans-49"/>
     </g>
    </g>
    <g id="line2d_123">
     <path d="M 67.05 202.694375 
L 77.05 202.694375 
" style="fill:none;stroke:#0000ff;stroke-linecap:square;stroke-width:2;"/>
    </g>
    <g id="line2d_124"/>
    <g id="text_16">
     <!-- loopgain, Rphz =  2.1e+01 -->
     <g transform="translate(79.05 206.194375)scale(0.12 -0.12)">
      <use xlink:href="#DejaVuSans-108"/>
      <use x="27.783203" xlink:href="#DejaVuSans-111"/>
      <use x="88.964844" xlink:href="#DejaVuSans-111"/>
      <use x="150.146484" xlink:href="#DejaVuSans-112"/>
      <use x="213.623047" xlink:href="#DejaVuSans-103"/>
      <use x="277.099609" xlink:href="#DejaVuSans-97"/>
      <use x="338.378906" xlink:href="#DejaVuSans-105"/>
      <use x="366.162109" xlink:href="#DejaVuSans-110"/>
      <use x="429.541016" xlink:href="#DejaVuSans-44"/>
      <use x="461.328125" xlink:href="#DejaVuSans-32"/>
      <use x="493.115234" xlink:href="#DejaVuSans-82"/>
      <use x="562.597656" xlink:href="#DejaVuSans-112"/>
      <use x="626.074219" xlink:href="#DejaVuSans-104"/>
      <use x="689.453125" xlink:href="#DejaVuSans-122"/>
      <use x="741.943359" xlink:href="#DejaVuSans-32"/>
      <use x="773.730469" xlink:href="#DejaVuSans-61"/>
      <use x="857.519531" xlink:href="#DejaVuSans-32"/>
      <use x="889.306641" xlink:href="#DejaVuSans-32"/>
      <use x="921.09375" xlink:href="#DejaVuSans-50"/>
      <use x="984.716797" xlink:href="#DejaVuSans-46"/>
      <use x="1016.503906" xlink:href="#DejaVuSans-49"/>
      <use x="1080.126953" xlink:href="#DejaVuSans-101"/>
      <use x="1141.650391" xlink:href="#DejaVuSans-43"/>
      <use x="1225.439453" xlink:href="#DejaVuSans-48"/>
      <use x="1289.0625" xlink:href="#DejaVuSans-49"/>
     </g>
    </g>
    <g id="line2d_125">
     <path d="M 67.05 214.308125 
L 77.05 214.308125 
" style="fill:none;stroke:#008000;stroke-linecap:square;stroke-width:2;"/>
    </g>
    <g id="line2d_126"/>
    <g id="text_17">
     <!-- loopgain, Rphz =  3.1e+01 -->
     <g transform="translate(79.05 217.808125)scale(0.12 -0.12)">
      <use xlink:href="#DejaVuSans-108"/>
      <use x="27.783203" xlink:href="#DejaVuSans-111"/>
      <use x="88.964844" xlink:href="#DejaVuSans-111"/>
      <use x="150.146484" xlink:href="#DejaVuSans-112"/>
      <use x="213.623047" xlink:href="#DejaVuSans-103"/>
      <use x="277.099609" xlink:href="#DejaVuSans-97"/>
      <use x="338.378906" xlink:href="#DejaVuSans-105"/>
      <use x="366.162109" xlink:href="#DejaVuSans-110"/>
      <use x="429.541016" xlink:href="#DejaVuSans-44"/>
      <use x="461.328125" xlink:href="#DejaVuSans-32"/>
      <use x="493.115234" xlink:href="#DejaVuSans-82"/>
      <use x="562.597656" xlink:href="#DejaVuSans-112"/>
      <use x="626.074219" xlink:href="#DejaVuSans-104"/>
      <use x="689.453125" xlink:href="#DejaVuSans-122"/>
      <use x="741.943359" xlink:href="#DejaVuSans-32"/>
      <use x="773.730469" xlink:href="#DejaVuSans-61"/>
      <use x="857.519531" xlink:href="#DejaVuSans-32"/>
      <use x="889.306641" xlink:href="#DejaVuSans-32"/>
      <use x="921.09375" xlink:href="#DejaVuSans-51"/>
      <use x="984.716797" xlink:href="#DejaVuSans-46"/>
      <use x="1016.503906" xlink:href="#DejaVuSans-49"/>
      <use x="1080.126953" xlink:href="#DejaVuSans-101"/>
      <use x="1141.650391" xlink:href="#DejaVuSans-43"/>
      <use x="1225.439453" xlink:href="#DejaVuSans-48"/>
      <use x="1289.0625" xlink:href="#DejaVuSans-49"/>
     </g>
    </g>
    <g id="line2d_127">
     <path d="M 67.05 225.921875 
L 77.05 225.921875 
" style="fill:none;stroke:#00bfbf;stroke-linecap:square;stroke-width:2;"/>
    </g>
    <g id="line2d_128"/>
    <g id="text_18">
     <!-- loopgain, Rphz =  4.7e+01 -->
     <g transform="translate(79.05 229.421875)scale(0.12 -0.12)">
      <defs>
       <path d="M 8.203125 72.90625 
L 55.078125 72.90625 
L 55.078125 68.703125 
L 28.609375 0 
L 18.3125 0 
L 43.21875 64.59375 
L 8.203125 64.59375 
z
" id="DejaVuSans-55"/>
      </defs>
      <use xlink:href="#DejaVuSans-108"/>
      <use x="27.783203" xlink:href="#DejaVuSans-111"/>
      <use x="88.964844" xlink:href="#DejaVuSans-111"/>
      <use x="150.146484" xlink:href="#DejaVuSans-112"/>
      <use x="213.623047" xlink:href="#DejaVuSans-103"/>
      <use x="277.099609" xlink:href="#DejaVuSans-97"/>
      <use x="338.378906" xlink:href="#DejaVuSans-105"/>
      <use x="366.162109" xlink:href="#DejaVuSans-110"/>
      <use x="429.541016" xlink:href="#DejaVuSans-44"/>
      <use x="461.328125" xlink:href="#DejaVuSans-32"/>
      <use x="493.115234" xlink:href="#DejaVuSans-82"/>
      <use x="562.597656" xlink:href="#DejaVuSans-112"/>
      <use x="626.074219" xlink:href="#DejaVuSans-104"/>
      <use x="689.453125" xlink:href="#DejaVuSans-122"/>
      <use x="741.943359" xlink:href="#DejaVuSans-32"/>
      <use x="773.730469" xlink:href="#DejaVuSans-61"/>
      <use x="857.519531" xlink:href="#DejaVuSans-32"/>
      <use x="889.306641" xlink:href="#DejaVuSans-32"/>
      <use x="921.09375" xlink:href="#DejaVuSans-52"/>
      <use x="984.716797" xlink:href="#DejaVuSans-46"/>
      <use x="1016.503906" xlink:href="#DejaVuSans-55"/>
      <use x="1080.126953" xlink:href="#DejaVuSans-101"/>
      <use x="1141.650391" xlink:href="#DejaVuSans-43"/>
      <use x="1225.439453" xlink:href="#DejaVuSans-48"/>
      <use x="1289.0625" xlink:href="#DejaVuSans-49"/>
     </g>
    </g>
    <g id="line2d_129">
     <path d="M 67.05 237.535625 
L 77.05 237.535625 
" style="fill:none;stroke:#bf00bf;stroke-linecap:square;stroke-width:2;"/>
    </g>
    <g id="line2d_130"/>
    <g id="text_19">
     <!-- loopgain, Rphz =  7.0e+01 -->
     <g transform="translate(79.05 241.035625)scale(0.12 -0.12)">
      <use xlink:href="#DejaVuSans-108"/>
      <use x="27.783203" xlink:href="#DejaVuSans-111"/>
      <use x="88.964844" xlink:href="#DejaVuSans-111"/>
      <use x="150.146484" xlink:href="#DejaVuSans-112"/>
      <use x="213.623047" xlink:href="#DejaVuSans-103"/>
      <use x="277.099609" xlink:href="#DejaVuSans-97"/>
      <use x="338.378906" xlink:href="#DejaVuSans-105"/>
      <use x="366.162109" xlink:href="#DejaVuSans-110"/>
      <use x="429.541016" xlink:href="#DejaVuSans-44"/>
      <use x="461.328125" xlink:href="#DejaVuSans-32"/>
      <use x="493.115234" xlink:href="#DejaVuSans-82"/>
      <use x="562.597656" xlink:href="#DejaVuSans-112"/>
      <use x="626.074219" xlink:href="#DejaVuSans-104"/>
      <use x="689.453125" xlink:href="#DejaVuSans-122"/>
      <use x="741.943359" xlink:href="#DejaVuSans-32"/>
      <use x="773.730469" xlink:href="#DejaVuSans-61"/>
      <use x="857.519531" xlink:href="#DejaVuSans-32"/>
      <use x="889.306641" xlink:href="#DejaVuSans-32"/>
      <use x="921.09375" xlink:href="#DejaVuSans-55"/>
      <use x="984.716797" xlink:href="#DejaVuSans-46"/>
      <use x="1016.503906" xlink:href="#DejaVuSans-48"/>
      <use x="1080.126953" xlink:href="#DejaVuSans-101"/>
      <use x="1141.650391" xlink:href="#DejaVuSans-43"/>
      <use x="1225.439453" xlink:href="#DejaVuSans-48"/>
      <use x="1289.0625" xlink:href="#DejaVuSans-49"/>
     </g>
    </g>
    <g id="line2d_131">
     <path d="M 67.05 249.149375 
L 77.05 249.149375 
" style="fill:none;stroke:#bfbf00;stroke-linecap:square;stroke-width:2;"/>
    </g>
    <g id="line2d_132"/>
    <g id="text_20">
     <!-- loopgain, Rphz =  1.0e+02 -->
     <g transform="translate(79.05 252.649375)scale(0.12 -0.12)">
      <use xlink:href="#DejaVuSans-108"/>
      <use x="27.783203" xlink:href="#DejaVuSans-111"/>
      <use x="88.964844" xlink:href="#DejaVuSans-111"/>
      <use x="150.146484" xlink:href="#DejaVuSans-112"/>
      <use x="213.623047" xlink:href="#DejaVuSans-103"/>
      <use x="277.099609" xlink:href="#DejaVuSans-97"/>
      <use x="338.378906" xlink:href="#DejaVuSans-105"/>
      <use x="366.162109" xlink:href="#DejaVuSans-110"/>
      <use x="429.541016" xlink:href="#DejaVuSans-44"/>
      <use x="461.328125" xlink:href="#DejaVuSans-32"/>
      <use x="493.115234" xlink:href="#DejaVuSans-82"/>
      <use x="562.597656" xlink:href="#DejaVuSans-112"/>
      <use x="626.074219" xlink:href="#DejaVuSans-104"/>
      <use x="689.453125" xlink:href="#DejaVuSans-122"/>
      <use x="741.943359" xlink:href="#DejaVuSans-32"/>
      <use x="773.730469" xlink:href="#DejaVuSans-61"/>
      <use x="857.519531" xlink:href="#DejaVuSans-32"/>
      <use x="889.306641" xlink:href="#DejaVuSans-32"/>
      <use x="921.09375" xlink:href="#DejaVuSans-49"/>
      <use x="984.716797" xlink:href="#DejaVuSans-46"/>
      <use x="1016.503906" xlink:href="#DejaVuSans-48"/>
      <use x="1080.126953" xlink:href="#DejaVuSans-101"/>
      <use x="1141.650391" xlink:href="#DejaVuSans-43"/>
      <use x="1225.439453" xlink:href="#DejaVuSans-48"/>
      <use x="1289.0625" xlink:href="#DejaVuSans-50"/>
     </g>
    </g>
    <g id="line2d_133">
     <path d="M 67.05 260.763125 
L 77.05 260.763125 
" style="fill:none;stroke:#000000;stroke-linecap:square;stroke-width:2;"/>
    </g>
    <g id="line2d_134"/>
    <g id="text_21">
     <!-- loopgain, Rphz =  1.6e+02 -->
     <g transform="translate(79.05 264.263125)scale(0.12 -0.12)">
      <defs>
       <path d="M 33.015625 40.375 
Q 26.375 40.375 22.484375 35.828125 
Q 18.609375 31.296875 18.609375 23.390625 
Q 18.609375 15.53125 22.484375 10.953125 
Q 26.375 6.390625 33.015625 6.390625 
Q 39.65625 6.390625 43.53125 10.953125 
Q 47.40625 15.53125 47.40625 23.390625 
Q 47.40625 31.296875 43.53125 35.828125 
Q 39.65625 40.375 33.015625 40.375 
z
M 52.59375 71.296875 
L 52.59375 62.3125 
Q 48.875 64.0625 45.09375 64.984375 
Q 41.3125 65.921875 37.59375 65.921875 
Q 27.828125 65.921875 22.671875 59.328125 
Q 17.53125 52.734375 16.796875 39.40625 
Q 19.671875 43.65625 24.015625 45.921875 
Q 28.375 48.1875 33.59375 48.1875 
Q 44.578125 48.1875 50.953125 41.515625 
Q 57.328125 34.859375 57.328125 23.390625 
Q 57.328125 12.15625 50.6875 5.359375 
Q 44.046875 -1.421875 33.015625 -1.421875 
Q 20.359375 -1.421875 13.671875 8.265625 
Q 6.984375 17.96875 6.984375 36.375 
Q 6.984375 53.65625 15.1875 63.9375 
Q 23.390625 74.21875 37.203125 74.21875 
Q 40.921875 74.21875 44.703125 73.484375 
Q 48.484375 72.75 52.59375 71.296875 
z
" id="DejaVuSans-54"/>
      </defs>
      <use xlink:href="#DejaVuSans-108"/>
      <use x="27.783203" xlink:href="#DejaVuSans-111"/>
      <use x="88.964844" xlink:href="#DejaVuSans-111"/>
      <use x="150.146484" xlink:href="#DejaVuSans-112"/>
      <use x="213.623047" xlink:href="#DejaVuSans-103"/>
      <use x="277.099609" xlink:href="#DejaVuSans-97"/>
      <use x="338.378906" xlink:href="#DejaVuSans-105"/>
      <use x="366.162109" xlink:href="#DejaVuSans-110"/>
      <use x="429.541016" xlink:href="#DejaVuSans-44"/>
      <use x="461.328125" xlink:href="#DejaVuSans-32"/>
      <use x="493.115234" xlink:href="#DejaVuSans-82"/>
      <use x="562.597656" xlink:href="#DejaVuSans-112"/>
      <use x="626.074219" xlink:href="#DejaVuSans-104"/>
      <use x="689.453125" xlink:href="#DejaVuSans-122"/>
      <use x="741.943359" xlink:href="#DejaVuSans-32"/>
      <use x="773.730469" xlink:href="#DejaVuSans-61"/>
      <use x="857.519531" xlink:href="#DejaVuSans-32"/>
      <use x="889.306641" xlink:href="#DejaVuSans-32"/>
      <use x="921.09375" xlink:href="#DejaVuSans-49"/>
      <use x="984.716797" xlink:href="#DejaVuSans-46"/>
      <use x="1016.503906" xlink:href="#DejaVuSans-54"/>
      <use x="1080.126953" xlink:href="#DejaVuSans-101"/>
      <use x="1141.650391" xlink:href="#DejaVuSans-43"/>
      <use x="1225.439453" xlink:href="#DejaVuSans-48"/>
      <use x="1289.0625" xlink:href="#DejaVuSans-50"/>
     </g>
    </g>
    <g id="line2d_135">
     <path d="M 67.05 272.376875 
L 77.05 272.376875 
" style="fill:none;stroke:#ff0000;stroke-linecap:square;stroke-width:2;"/>
    </g>
    <g id="line2d_136"/>
    <g id="text_22">
     <!-- loopgain, Rphz =  2.4e+02 -->
     <g transform="translate(79.05 275.876875)scale(0.12 -0.12)">
      <use xlink:href="#DejaVuSans-108"/>
      <use x="27.783203" xlink:href="#DejaVuSans-111"/>
      <use x="88.964844" xlink:href="#DejaVuSans-111"/>
      <use x="150.146484" xlink:href="#DejaVuSans-112"/>
      <use x="213.623047" xlink:href="#DejaVuSans-103"/>
      <use x="277.099609" xlink:href="#DejaVuSans-97"/>
      <use x="338.378906" xlink:href="#DejaVuSans-105"/>
      <use x="366.162109" xlink:href="#DejaVuSans-110"/>
      <use x="429.541016" xlink:href="#DejaVuSans-44"/>
      <use x="461.328125" xlink:href="#DejaVuSans-32"/>
      <use x="493.115234" xlink:href="#DejaVuSans-82"/>
      <use x="562.597656" xlink:href="#DejaVuSans-112"/>
      <use x="626.074219" xlink:href="#DejaVuSans-104"/>
      <use x="689.453125" xlink:href="#DejaVuSans-122"/>
      <use x="741.943359" xlink:href="#DejaVuSans-32"/>
      <use x="773.730469" xlink:href="#DejaVuSans-61"/>
      <use x="857.519531" xlink:href="#DejaVuSans-32"/>
      <use x="889.306641" xlink:href="#DejaVuSans-32"/>
      <use x="921.09375" xlink:href="#DejaVuSans-50"/>
      <use x="984.716797" xlink:href="#DejaVuSans-46"/>
      <use x="1016.503906" xlink:href="#DejaVuSans-52"/>
      <use x="1080.126953" xlink:href="#DejaVuSans-101"/>
      <use x="1141.650391" xlink:href="#DejaVuSans-43"/>
      <use x="1225.439453" xlink:href="#DejaVuSans-48"/>
      <use x="1289.0625" xlink:href="#DejaVuSans-50"/>
     </g>
    </g>
    <g id="line2d_137">
     <path d="M 67.05 283.990625 
L 77.05 283.990625 
" style="fill:none;stroke:#0000ff;stroke-linecap:square;stroke-width:2;"/>
    </g>
    <g id="line2d_138"/>
    <g id="text_23">
     <!-- loopgain, Rphz =  3.5e+02 -->
     <g transform="translate(79.05 287.490625)scale(0.12 -0.12)">
      <use xlink:href="#DejaVuSans-108"/>
      <use x="27.783203" xlink:href="#DejaVuSans-111"/>
      <use x="88.964844" xlink:href="#DejaVuSans-111"/>
      <use x="150.146484" xlink:href="#DejaVuSans-112"/>
      <use x="213.623047" xlink:href="#DejaVuSans-103"/>
      <use x="277.099609" xlink:href="#DejaVuSans-97"/>
      <use x="338.378906" xlink:href="#DejaVuSans-105"/>
      <use x="366.162109" xlink:href="#DejaVuSans-110"/>
      <use x="429.541016" xlink:href="#DejaVuSans-44"/>
      <use x="461.328125" xlink:href="#DejaVuSans-32"/>
      <use x="493.115234" xlink:href="#DejaVuSans-82"/>
      <use x="562.597656" xlink:href="#DejaVuSans-112"/>
      <use x="626.074219" xlink:href="#DejaVuSans-104"/>
      <use x="689.453125" xlink:href="#DejaVuSans-122"/>
      <use x="741.943359" xlink:href="#DejaVuSans-32"/>
      <use x="773.730469" xlink:href="#DejaVuSans-61"/>
      <use x="857.519531" xlink:href="#DejaVuSans-32"/>
      <use x="889.306641" xlink:href="#DejaVuSans-32"/>
      <use x="921.09375" xlink:href="#DejaVuSans-51"/>
      <use x="984.716797" xlink:href="#DejaVuSans-46"/>
      <use x="1016.503906" xlink:href="#DejaVuSans-53"/>
      <use x="1080.126953" xlink:href="#DejaVuSans-101"/>
      <use x="1141.650391" xlink:href="#DejaVuSans-43"/>
      <use x="1225.439453" xlink:href="#DejaVuSans-48"/>
      <use x="1289.0625" xlink:href="#DejaVuSans-50"/>
     </g>
    </g>
    <g id="line2d_139">
     <path d="M 67.05 295.604375 
L 77.05 295.604375 
" style="fill:none;stroke:#008000;stroke-linecap:square;stroke-width:2;"/>
    </g>
    <g id="line2d_140"/>
    <g id="text_24">
     <!-- loopgain, Rphz =  5.3e+02 -->
     <g transform="translate(79.05 299.104375)scale(0.12 -0.12)">
      <use xlink:href="#DejaVuSans-108"/>
      <use x="27.783203" xlink:href="#DejaVuSans-111"/>
      <use x="88.964844" xlink:href="#DejaVuSans-111"/>
      <use x="150.146484" xlink:href="#DejaVuSans-112"/>
      <use x="213.623047" xlink:href="#DejaVuSans-103"/>
      <use x="277.099609" xlink:href="#DejaVuSans-97"/>
      <use x="338.378906" xlink:href="#DejaVuSans-105"/>
      <use x="366.162109" xlink:href="#DejaVuSans-110"/>
      <use x="429.541016" xlink:href="#DejaVuSans-44"/>
      <use x="461.328125" xlink:href="#DejaVuSans-32"/>
      <use x="493.115234" xlink:href="#DejaVuSans-82"/>
      <use x="562.597656" xlink:href="#DejaVuSans-112"/>
      <use x="626.074219" xlink:href="#DejaVuSans-104"/>
      <use x="689.453125" xlink:href="#DejaVuSans-122"/>
      <use x="741.943359" xlink:href="#DejaVuSans-32"/>
      <use x="773.730469" xlink:href="#DejaVuSans-61"/>
      <use x="857.519531" xlink:href="#DejaVuSans-32"/>
      <use x="889.306641" xlink:href="#DejaVuSans-32"/>
      <use x="921.09375" xlink:href="#DejaVuSans-53"/>
      <use x="984.716797" xlink:href="#DejaVuSans-46"/>
      <use x="1016.503906" xlink:href="#DejaVuSans-51"/>
      <use x="1080.126953" xlink:href="#DejaVuSans-101"/>
      <use x="1141.650391" xlink:href="#DejaVuSans-43"/>
      <use x="1225.439453" xlink:href="#DejaVuSans-48"/>
      <use x="1289.0625" xlink:href="#DejaVuSans-50"/>
     </g>
    </g>
   </g>
  </g>
 </g>
 <defs>
  <clipPath id="pf55a7a6db7">
   <rect height="281.8" width="433.15" x="60.05" y="26.8"/>
  </clipPath>
 </defs>
</svg>
