<?xml version="1.0" encoding="utf-8" standalone="no"?>
<!DOCTYPE svg PUBLIC "-//W3C//DTD SVG 1.1//EN"
  "http://www.w3.org/Graphics/SVG/1.1/DTD/svg11.dtd">
<!-- Created with matplotlib (https://matplotlib.org/) -->
<svg height="360pt" version="1.1" viewBox="0 0 504 360" width="504pt" xmlns="http://www.w3.org/2000/svg" xmlns:xlink="http://www.w3.org/1999/xlink">
 <metadata>
  <rdf:RDF xmlns:cc="http://creativecommons.org/ns#" xmlns:dc="http://purl.org/dc/elements/1.1/" xmlns:rdf="http://www.w3.org/1999/02/22-rdf-syntax-ns#">
   <cc:Work>
    <dc:type rdf:resource="http://purl.org/dc/dcmitype/StillImage"/>
    <dc:date>2022-01-13T15:47:09.175997</dc:date>
    <dc:format>image/svg+xml</dc:format>
    <dc:creator>
     <cc:Agent>
      <dc:title>Matplotlib v3.3.4, https://matplotlib.org/</dc:title>
     </cc:Agent>
    </dc:creator>
   </cc:Work>
  </rdf:RDF>
 </metadata>
 <defs>
  <style type="text/css">*{stroke-linecap:butt;stroke-linejoin:round;}</style>
 </defs>
 <g id="figure_1">
  <g id="patch_1">
   <path d="M 0 360 
L 504 360 
L 504 0 
L 0 0 
z
" style="fill:#ffffff;"/>
  </g>
  <g id="axes_1">
   <g id="patch_2">
    <path d="M 60.05 308.6 
L 493.2 308.6 
L 493.2 26.8 
L 60.05 26.8 
z
" style="fill:#ffffff;"/>
   </g>
   <g id="matplotlib.axis_1">
    <g id="xtick_1">
     <g id="line2d_1">
      <path clip-path="url(#p4cc3295648)" d="M 79.738636 308.6 
L 79.738636 26.8 
" style="fill:none;stroke:#808080;stroke-linecap:square;stroke-width:0.8;"/>
     </g>
     <g id="line2d_2">
      <defs>
       <path d="M 0 0 
L 0 3.5 
" id="m32d4fa02f1" style="stroke:#000000;stroke-width:0.8;"/>
      </defs>
      <g>
       <use style="stroke:#000000;stroke-width:0.8;" x="79.738636" xlink:href="#m32d4fa02f1" y="308.6"/>
      </g>
     </g>
     <g id="text_1">
      <!-- $\mathdefault{10^{0}}$ -->
      <g transform="translate(69.178636 324.718125)scale(0.12 -0.12)">
       <defs>
        <path d="M 12.40625 8.296875 
L 28.515625 8.296875 
L 28.515625 63.921875 
L 10.984375 60.40625 
L 10.984375 69.390625 
L 28.421875 72.90625 
L 38.28125 72.90625 
L 38.28125 8.296875 
L 54.390625 8.296875 
L 54.390625 0 
L 12.40625 0 
z
" id="DejaVuSans-49"/>
        <path d="M 31.78125 66.40625 
Q 24.171875 66.40625 20.328125 58.90625 
Q 16.5 51.421875 16.5 36.375 
Q 16.5 21.390625 20.328125 13.890625 
Q 24.171875 6.390625 31.78125 6.390625 
Q 39.453125 6.390625 43.28125 13.890625 
Q 47.125 21.390625 47.125 36.375 
Q 47.125 51.421875 43.28125 58.90625 
Q 39.453125 66.40625 31.78125 66.40625 
z
M 31.78125 74.21875 
Q 44.046875 74.21875 50.515625 64.515625 
Q 56.984375 54.828125 56.984375 36.375 
Q 56.984375 17.96875 50.515625 8.265625 
Q 44.046875 -1.421875 31.78125 -1.421875 
Q 19.53125 -1.421875 13.0625 8.265625 
Q 6.59375 17.96875 6.59375 36.375 
Q 6.59375 54.828125 13.0625 64.515625 
Q 19.53125 74.21875 31.78125 74.21875 
z
" id="DejaVuSans-48"/>
       </defs>
       <use transform="translate(0 0.765625)" xlink:href="#DejaVuSans-49"/>
       <use transform="translate(63.623047 0.765625)" xlink:href="#DejaVuSans-48"/>
       <use transform="translate(128.203125 39.046875)scale(0.7)" xlink:href="#DejaVuSans-48"/>
      </g>
     </g>
    </g>
    <g id="xtick_2">
     <g id="line2d_3">
      <path clip-path="url(#p4cc3295648)" d="M 311.510078 308.6 
L 311.510078 26.8 
" style="fill:none;stroke:#808080;stroke-linecap:square;stroke-width:0.8;"/>
     </g>
     <g id="line2d_4">
      <g>
       <use style="stroke:#000000;stroke-width:0.8;" x="311.510078" xlink:href="#m32d4fa02f1" y="308.6"/>
      </g>
     </g>
     <g id="text_2">
      <!-- $\mathdefault{10^{1}}$ -->
      <g transform="translate(300.950078 324.718125)scale(0.12 -0.12)">
       <use transform="translate(0 0.684375)" xlink:href="#DejaVuSans-49"/>
       <use transform="translate(63.623047 0.684375)" xlink:href="#DejaVuSans-48"/>
       <use transform="translate(128.203125 38.965625)scale(0.7)" xlink:href="#DejaVuSans-49"/>
      </g>
     </g>
    </g>
    <g id="xtick_3">
     <g id="line2d_5">
      <path clip-path="url(#p4cc3295648)" d="M 69.133357 308.6 
L 69.133357 26.8 
" style="fill:none;stroke:#808080;stroke-dasharray:0.8,1.32;stroke-dashoffset:0;stroke-width:0.8;"/>
     </g>
     <g id="line2d_6">
      <defs>
       <path d="M 0 0 
L 0 2 
" id="m6605e03368" style="stroke:#000000;stroke-width:0.6;"/>
      </defs>
      <g>
       <use style="stroke:#000000;stroke-width:0.6;" x="69.133357" xlink:href="#m6605e03368" y="308.6"/>
      </g>
     </g>
    </g>
    <g id="xtick_4">
     <g id="line2d_7">
      <path clip-path="url(#p4cc3295648)" d="M 149.508792 308.6 
L 149.508792 26.8 
" style="fill:none;stroke:#808080;stroke-dasharray:0.8,1.32;stroke-dashoffset:0;stroke-width:0.8;"/>
     </g>
     <g id="line2d_8">
      <g>
       <use style="stroke:#000000;stroke-width:0.6;" x="149.508792" xlink:href="#m6605e03368" y="308.6"/>
      </g>
     </g>
    </g>
    <g id="xtick_5">
     <g id="line2d_9">
      <path clip-path="url(#p4cc3295648)" d="M 190.321717 308.6 
L 190.321717 26.8 
" style="fill:none;stroke:#808080;stroke-dasharray:0.8,1.32;stroke-dashoffset:0;stroke-width:0.8;"/>
     </g>
     <g id="line2d_10">
      <g>
       <use style="stroke:#000000;stroke-width:0.6;" x="190.321717" xlink:href="#m6605e03368" y="308.6"/>
      </g>
     </g>
    </g>
    <g id="xtick_6">
     <g id="line2d_11">
      <path clip-path="url(#p4cc3295648)" d="M 219.278949 308.6 
L 219.278949 26.8 
" style="fill:none;stroke:#808080;stroke-dasharray:0.8,1.32;stroke-dashoffset:0;stroke-width:0.8;"/>
     </g>
     <g id="line2d_12">
      <g>
       <use style="stroke:#000000;stroke-width:0.6;" x="219.278949" xlink:href="#m6605e03368" y="308.6"/>
      </g>
     </g>
    </g>
    <g id="xtick_7">
     <g id="line2d_13">
      <path clip-path="url(#p4cc3295648)" d="M 241.739922 308.6 
L 241.739922 26.8 
" style="fill:none;stroke:#808080;stroke-dasharray:0.8,1.32;stroke-dashoffset:0;stroke-width:0.8;"/>
     </g>
     <g id="line2d_14">
      <g>
       <use style="stroke:#000000;stroke-width:0.6;" x="241.739922" xlink:href="#m6605e03368" y="308.6"/>
      </g>
     </g>
    </g>
    <g id="xtick_8">
     <g id="line2d_15">
      <path clip-path="url(#p4cc3295648)" d="M 260.091874 308.6 
L 260.091874 26.8 
" style="fill:none;stroke:#808080;stroke-dasharray:0.8,1.32;stroke-dashoffset:0;stroke-width:0.8;"/>
     </g>
     <g id="line2d_16">
      <g>
       <use style="stroke:#000000;stroke-width:0.6;" x="260.091874" xlink:href="#m6605e03368" y="308.6"/>
      </g>
     </g>
    </g>
    <g id="xtick_9">
     <g id="line2d_17">
      <path clip-path="url(#p4cc3295648)" d="M 275.608227 308.6 
L 275.608227 26.8 
" style="fill:none;stroke:#808080;stroke-dasharray:0.8,1.32;stroke-dashoffset:0;stroke-width:0.8;"/>
     </g>
     <g id="line2d_18">
      <g>
       <use style="stroke:#000000;stroke-width:0.6;" x="275.608227" xlink:href="#m6605e03368" y="308.6"/>
      </g>
     </g>
    </g>
    <g id="xtick_10">
     <g id="line2d_19">
      <path clip-path="url(#p4cc3295648)" d="M 289.049105 308.6 
L 289.049105 26.8 
" style="fill:none;stroke:#808080;stroke-dasharray:0.8,1.32;stroke-dashoffset:0;stroke-width:0.8;"/>
     </g>
     <g id="line2d_20">
      <g>
       <use style="stroke:#000000;stroke-width:0.6;" x="289.049105" xlink:href="#m6605e03368" y="308.6"/>
      </g>
     </g>
    </g>
    <g id="xtick_11">
     <g id="line2d_21">
      <path clip-path="url(#p4cc3295648)" d="M 300.904798 308.6 
L 300.904798 26.8 
" style="fill:none;stroke:#808080;stroke-dasharray:0.8,1.32;stroke-dashoffset:0;stroke-width:0.8;"/>
     </g>
     <g id="line2d_22">
      <g>
       <use style="stroke:#000000;stroke-width:0.6;" x="300.904798" xlink:href="#m6605e03368" y="308.6"/>
      </g>
     </g>
    </g>
    <g id="xtick_12">
     <g id="line2d_23">
      <path clip-path="url(#p4cc3295648)" d="M 381.280234 308.6 
L 381.280234 26.8 
" style="fill:none;stroke:#808080;stroke-dasharray:0.8,1.32;stroke-dashoffset:0;stroke-width:0.8;"/>
     </g>
     <g id="line2d_24">
      <g>
       <use style="stroke:#000000;stroke-width:0.6;" x="381.280234" xlink:href="#m6605e03368" y="308.6"/>
      </g>
     </g>
    </g>
    <g id="xtick_13">
     <g id="line2d_25">
      <path clip-path="url(#p4cc3295648)" d="M 422.093159 308.6 
L 422.093159 26.8 
" style="fill:none;stroke:#808080;stroke-dasharray:0.8,1.32;stroke-dashoffset:0;stroke-width:0.8;"/>
     </g>
     <g id="line2d_26">
      <g>
       <use style="stroke:#000000;stroke-width:0.6;" x="422.093159" xlink:href="#m6605e03368" y="308.6"/>
      </g>
     </g>
    </g>
    <g id="xtick_14">
     <g id="line2d_27">
      <path clip-path="url(#p4cc3295648)" d="M 451.05039 308.6 
L 451.05039 26.8 
" style="fill:none;stroke:#808080;stroke-dasharray:0.8,1.32;stroke-dashoffset:0;stroke-width:0.8;"/>
     </g>
     <g id="line2d_28">
      <g>
       <use style="stroke:#000000;stroke-width:0.6;" x="451.05039" xlink:href="#m6605e03368" y="308.6"/>
      </g>
     </g>
    </g>
    <g id="xtick_15">
     <g id="line2d_29">
      <path clip-path="url(#p4cc3295648)" d="M 473.511364 308.6 
L 473.511364 26.8 
" style="fill:none;stroke:#808080;stroke-dasharray:0.8,1.32;stroke-dashoffset:0;stroke-width:0.8;"/>
     </g>
     <g id="line2d_30">
      <g>
       <use style="stroke:#000000;stroke-width:0.6;" x="473.511364" xlink:href="#m6605e03368" y="308.6"/>
      </g>
     </g>
    </g>
    <g id="xtick_16">
     <g id="line2d_31">
      <path clip-path="url(#p4cc3295648)" d="M 491.863315 308.6 
L 491.863315 26.8 
" style="fill:none;stroke:#808080;stroke-dasharray:0.8,1.32;stroke-dashoffset:0;stroke-width:0.8;"/>
     </g>
     <g id="line2d_32">
      <g>
       <use style="stroke:#000000;stroke-width:0.6;" x="491.863315" xlink:href="#m6605e03368" y="308.6"/>
      </g>
     </g>
    </g>
    <g id="text_3">
     <!-- frequency [MHz] -->
     <g transform="translate(227.10625 340.331875)scale(0.12 -0.12)">
      <defs>
       <path d="M 37.109375 75.984375 
L 37.109375 68.5 
L 28.515625 68.5 
Q 23.6875 68.5 21.796875 66.546875 
Q 19.921875 64.59375 19.921875 59.515625 
L 19.921875 54.6875 
L 34.71875 54.6875 
L 34.71875 47.703125 
L 19.921875 47.703125 
L 19.921875 0 
L 10.890625 0 
L 10.890625 47.703125 
L 2.296875 47.703125 
L 2.296875 54.6875 
L 10.890625 54.6875 
L 10.890625 58.5 
Q 10.890625 67.625 15.140625 71.796875 
Q 19.390625 75.984375 28.609375 75.984375 
z
" id="DejaVuSans-102"/>
       <path d="M 41.109375 46.296875 
Q 39.59375 47.171875 37.8125 47.578125 
Q 36.03125 48 33.890625 48 
Q 26.265625 48 22.1875 43.046875 
Q 18.109375 38.09375 18.109375 28.8125 
L 18.109375 0 
L 9.078125 0 
L 9.078125 54.6875 
L 18.109375 54.6875 
L 18.109375 46.1875 
Q 20.953125 51.171875 25.484375 53.578125 
Q 30.03125 56 36.53125 56 
Q 37.453125 56 38.578125 55.875 
Q 39.703125 55.765625 41.0625 55.515625 
z
" id="DejaVuSans-114"/>
       <path d="M 56.203125 29.59375 
L 56.203125 25.203125 
L 14.890625 25.203125 
Q 15.484375 15.921875 20.484375 11.0625 
Q 25.484375 6.203125 34.421875 6.203125 
Q 39.59375 6.203125 44.453125 7.46875 
Q 49.3125 8.734375 54.109375 11.28125 
L 54.109375 2.78125 
Q 49.265625 0.734375 44.1875 -0.34375 
Q 39.109375 -1.421875 33.890625 -1.421875 
Q 20.796875 -1.421875 13.15625 6.1875 
Q 5.515625 13.8125 5.515625 26.8125 
Q 5.515625 40.234375 12.765625 48.109375 
Q 20.015625 56 32.328125 56 
Q 43.359375 56 49.78125 48.890625 
Q 56.203125 41.796875 56.203125 29.59375 
z
M 47.21875 32.234375 
Q 47.125 39.59375 43.09375 43.984375 
Q 39.0625 48.390625 32.421875 48.390625 
Q 24.90625 48.390625 20.390625 44.140625 
Q 15.875 39.890625 15.1875 32.171875 
z
" id="DejaVuSans-101"/>
       <path d="M 14.796875 27.296875 
Q 14.796875 17.390625 18.875 11.75 
Q 22.953125 6.109375 30.078125 6.109375 
Q 37.203125 6.109375 41.296875 11.75 
Q 45.40625 17.390625 45.40625 27.296875 
Q 45.40625 37.203125 41.296875 42.84375 
Q 37.203125 48.484375 30.078125 48.484375 
Q 22.953125 48.484375 18.875 42.84375 
Q 14.796875 37.203125 14.796875 27.296875 
z
M 45.40625 8.203125 
Q 42.578125 3.328125 38.25 0.953125 
Q 33.9375 -1.421875 27.875 -1.421875 
Q 17.96875 -1.421875 11.734375 6.484375 
Q 5.515625 14.40625 5.515625 27.296875 
Q 5.515625 40.1875 11.734375 48.09375 
Q 17.96875 56 27.875 56 
Q 33.9375 56 38.25 53.625 
Q 42.578125 51.265625 45.40625 46.390625 
L 45.40625 54.6875 
L 54.390625 54.6875 
L 54.390625 -20.796875 
L 45.40625 -20.796875 
z
" id="DejaVuSans-113"/>
       <path d="M 8.5 21.578125 
L 8.5 54.6875 
L 17.484375 54.6875 
L 17.484375 21.921875 
Q 17.484375 14.15625 20.5 10.265625 
Q 23.53125 6.390625 29.59375 6.390625 
Q 36.859375 6.390625 41.078125 11.03125 
Q 45.3125 15.671875 45.3125 23.6875 
L 45.3125 54.6875 
L 54.296875 54.6875 
L 54.296875 0 
L 45.3125 0 
L 45.3125 8.40625 
Q 42.046875 3.421875 37.71875 1 
Q 33.40625 -1.421875 27.6875 -1.421875 
Q 18.265625 -1.421875 13.375 4.4375 
Q 8.5 10.296875 8.5 21.578125 
z
M 31.109375 56 
z
" id="DejaVuSans-117"/>
       <path d="M 54.890625 33.015625 
L 54.890625 0 
L 45.90625 0 
L 45.90625 32.71875 
Q 45.90625 40.484375 42.875 44.328125 
Q 39.84375 48.1875 33.796875 48.1875 
Q 26.515625 48.1875 22.3125 43.546875 
Q 18.109375 38.921875 18.109375 30.90625 
L 18.109375 0 
L 9.078125 0 
L 9.078125 54.6875 
L 18.109375 54.6875 
L 18.109375 46.1875 
Q 21.34375 51.125 25.703125 53.5625 
Q 30.078125 56 35.796875 56 
Q 45.21875 56 50.046875 50.171875 
Q 54.890625 44.34375 54.890625 33.015625 
z
" id="DejaVuSans-110"/>
       <path d="M 48.78125 52.59375 
L 48.78125 44.1875 
Q 44.96875 46.296875 41.140625 47.34375 
Q 37.3125 48.390625 33.40625 48.390625 
Q 24.65625 48.390625 19.8125 42.84375 
Q 14.984375 37.3125 14.984375 27.296875 
Q 14.984375 17.28125 19.8125 11.734375 
Q 24.65625 6.203125 33.40625 6.203125 
Q 37.3125 6.203125 41.140625 7.25 
Q 44.96875 8.296875 48.78125 10.40625 
L 48.78125 2.09375 
Q 45.015625 0.34375 40.984375 -0.53125 
Q 36.96875 -1.421875 32.421875 -1.421875 
Q 20.0625 -1.421875 12.78125 6.34375 
Q 5.515625 14.109375 5.515625 27.296875 
Q 5.515625 40.671875 12.859375 48.328125 
Q 20.21875 56 33.015625 56 
Q 37.15625 56 41.109375 55.140625 
Q 45.0625 54.296875 48.78125 52.59375 
z
" id="DejaVuSans-99"/>
       <path d="M 32.171875 -5.078125 
Q 28.375 -14.84375 24.75 -17.8125 
Q 21.140625 -20.796875 15.09375 -20.796875 
L 7.90625 -20.796875 
L 7.90625 -13.28125 
L 13.1875 -13.28125 
Q 16.890625 -13.28125 18.9375 -11.515625 
Q 21 -9.765625 23.484375 -3.21875 
L 25.09375 0.875 
L 2.984375 54.6875 
L 12.5 54.6875 
L 29.59375 11.921875 
L 46.6875 54.6875 
L 56.203125 54.6875 
z
" id="DejaVuSans-121"/>
       <path id="DejaVuSans-32"/>
       <path d="M 8.59375 75.984375 
L 29.296875 75.984375 
L 29.296875 69 
L 17.578125 69 
L 17.578125 -6.203125 
L 29.296875 -6.203125 
L 29.296875 -13.1875 
L 8.59375 -13.1875 
z
" id="DejaVuSans-91"/>
       <path d="M 9.8125 72.90625 
L 24.515625 72.90625 
L 43.109375 23.296875 
L 61.8125 72.90625 
L 76.515625 72.90625 
L 76.515625 0 
L 66.890625 0 
L 66.890625 64.015625 
L 48.09375 14.015625 
L 38.1875 14.015625 
L 19.390625 64.015625 
L 19.390625 0 
L 9.8125 0 
z
" id="DejaVuSans-77"/>
       <path d="M 9.8125 72.90625 
L 19.671875 72.90625 
L 19.671875 43.015625 
L 55.515625 43.015625 
L 55.515625 72.90625 
L 65.375 72.90625 
L 65.375 0 
L 55.515625 0 
L 55.515625 34.71875 
L 19.671875 34.71875 
L 19.671875 0 
L 9.8125 0 
z
" id="DejaVuSans-72"/>
       <path d="M 5.515625 54.6875 
L 48.1875 54.6875 
L 48.1875 46.484375 
L 14.40625 7.171875 
L 48.1875 7.171875 
L 48.1875 0 
L 4.296875 0 
L 4.296875 8.203125 
L 38.09375 47.515625 
L 5.515625 47.515625 
z
" id="DejaVuSans-122"/>
       <path d="M 30.421875 75.984375 
L 30.421875 -13.1875 
L 9.71875 -13.1875 
L 9.71875 -6.203125 
L 21.390625 -6.203125 
L 21.390625 69 
L 9.71875 69 
L 9.71875 75.984375 
z
" id="DejaVuSans-93"/>
      </defs>
      <use xlink:href="#DejaVuSans-102"/>
      <use x="35.205078" xlink:href="#DejaVuSans-114"/>
      <use x="74.068359" xlink:href="#DejaVuSans-101"/>
      <use x="135.591797" xlink:href="#DejaVuSans-113"/>
      <use x="199.068359" xlink:href="#DejaVuSans-117"/>
      <use x="262.447266" xlink:href="#DejaVuSans-101"/>
      <use x="323.970703" xlink:href="#DejaVuSans-110"/>
      <use x="387.349609" xlink:href="#DejaVuSans-99"/>
      <use x="442.330078" xlink:href="#DejaVuSans-121"/>
      <use x="501.509766" xlink:href="#DejaVuSans-32"/>
      <use x="533.296875" xlink:href="#DejaVuSans-91"/>
      <use x="572.310547" xlink:href="#DejaVuSans-77"/>
      <use x="658.589844" xlink:href="#DejaVuSans-72"/>
      <use x="733.785156" xlink:href="#DejaVuSans-122"/>
      <use x="786.275391" xlink:href="#DejaVuSans-93"/>
     </g>
    </g>
   </g>
   <g id="matplotlib.axis_2">
    <g id="ytick_1">
     <g id="line2d_33">
      <path clip-path="url(#p4cc3295648)" d="M 60.05 302.833969 
L 493.2 302.833969 
" style="fill:none;stroke:#808080;stroke-linecap:square;stroke-width:0.8;"/>
     </g>
     <g id="line2d_34">
      <defs>
       <path d="M 0 0 
L -3.5 0 
" id="ma71ddbf694" style="stroke:#000000;stroke-width:0.8;"/>
      </defs>
      <g>
       <use style="stroke:#000000;stroke-width:0.8;" x="60.05" xlink:href="#ma71ddbf694" y="302.833969"/>
      </g>
     </g>
     <g id="text_4">
      <!-- −12 -->
      <g transform="translate(27.724375 307.393031)scale(0.12 -0.12)">
       <defs>
        <path d="M 10.59375 35.5 
L 73.1875 35.5 
L 73.1875 27.203125 
L 10.59375 27.203125 
z
" id="DejaVuSans-8722"/>
        <path d="M 19.1875 8.296875 
L 53.609375 8.296875 
L 53.609375 0 
L 7.328125 0 
L 7.328125 8.296875 
Q 12.9375 14.109375 22.625 23.890625 
Q 32.328125 33.6875 34.8125 36.53125 
Q 39.546875 41.84375 41.421875 45.53125 
Q 43.3125 49.21875 43.3125 52.78125 
Q 43.3125 58.59375 39.234375 62.25 
Q 35.15625 65.921875 28.609375 65.921875 
Q 23.96875 65.921875 18.8125 64.3125 
Q 13.671875 62.703125 7.8125 59.421875 
L 7.8125 69.390625 
Q 13.765625 71.78125 18.9375 73 
Q 24.125 74.21875 28.421875 74.21875 
Q 39.75 74.21875 46.484375 68.546875 
Q 53.21875 62.890625 53.21875 53.421875 
Q 53.21875 48.921875 51.53125 44.890625 
Q 49.859375 40.875 45.40625 35.40625 
Q 44.1875 33.984375 37.640625 27.21875 
Q 31.109375 20.453125 19.1875 8.296875 
z
" id="DejaVuSans-50"/>
       </defs>
       <use xlink:href="#DejaVuSans-8722"/>
       <use x="83.789062" xlink:href="#DejaVuSans-49"/>
       <use x="147.412109" xlink:href="#DejaVuSans-50"/>
      </g>
     </g>
    </g>
    <g id="ytick_2">
     <g id="line2d_35">
      <path clip-path="url(#p4cc3295648)" d="M 60.05 258.671344 
L 493.2 258.671344 
" style="fill:none;stroke:#808080;stroke-linecap:square;stroke-width:0.8;"/>
     </g>
     <g id="line2d_36">
      <g>
       <use style="stroke:#000000;stroke-width:0.8;" x="60.05" xlink:href="#ma71ddbf694" y="258.671344"/>
      </g>
     </g>
     <g id="text_5">
      <!-- −11 -->
      <g transform="translate(27.724375 263.230406)scale(0.12 -0.12)">
       <use xlink:href="#DejaVuSans-8722"/>
       <use x="83.789062" xlink:href="#DejaVuSans-49"/>
       <use x="147.412109" xlink:href="#DejaVuSans-49"/>
      </g>
     </g>
    </g>
    <g id="ytick_3">
     <g id="line2d_37">
      <path clip-path="url(#p4cc3295648)" d="M 60.05 214.508718 
L 493.2 214.508718 
" style="fill:none;stroke:#808080;stroke-linecap:square;stroke-width:0.8;"/>
     </g>
     <g id="line2d_38">
      <g>
       <use style="stroke:#000000;stroke-width:0.8;" x="60.05" xlink:href="#ma71ddbf694" y="214.508718"/>
      </g>
     </g>
     <g id="text_6">
      <!-- −10 -->
      <g transform="translate(27.724375 219.067781)scale(0.12 -0.12)">
       <use xlink:href="#DejaVuSans-8722"/>
       <use x="83.789062" xlink:href="#DejaVuSans-49"/>
       <use x="147.412109" xlink:href="#DejaVuSans-48"/>
      </g>
     </g>
    </g>
    <g id="ytick_4">
     <g id="line2d_39">
      <path clip-path="url(#p4cc3295648)" d="M 60.05 170.346093 
L 493.2 170.346093 
" style="fill:none;stroke:#808080;stroke-linecap:square;stroke-width:0.8;"/>
     </g>
     <g id="line2d_40">
      <g>
       <use style="stroke:#000000;stroke-width:0.8;" x="60.05" xlink:href="#ma71ddbf694" y="170.346093"/>
      </g>
     </g>
     <g id="text_7">
      <!-- −9 -->
      <g transform="translate(35.359375 174.905156)scale(0.12 -0.12)">
       <defs>
        <path d="M 10.984375 1.515625 
L 10.984375 10.5 
Q 14.703125 8.734375 18.5 7.8125 
Q 22.3125 6.890625 25.984375 6.890625 
Q 35.75 6.890625 40.890625 13.453125 
Q 46.046875 20.015625 46.78125 33.40625 
Q 43.953125 29.203125 39.59375 26.953125 
Q 35.25 24.703125 29.984375 24.703125 
Q 19.046875 24.703125 12.671875 31.3125 
Q 6.296875 37.9375 6.296875 49.421875 
Q 6.296875 60.640625 12.9375 67.421875 
Q 19.578125 74.21875 30.609375 74.21875 
Q 43.265625 74.21875 49.921875 64.515625 
Q 56.59375 54.828125 56.59375 36.375 
Q 56.59375 19.140625 48.40625 8.859375 
Q 40.234375 -1.421875 26.421875 -1.421875 
Q 22.703125 -1.421875 18.890625 -0.6875 
Q 15.09375 0.046875 10.984375 1.515625 
z
M 30.609375 32.421875 
Q 37.25 32.421875 41.125 36.953125 
Q 45.015625 41.5 45.015625 49.421875 
Q 45.015625 57.28125 41.125 61.84375 
Q 37.25 66.40625 30.609375 66.40625 
Q 23.96875 66.40625 20.09375 61.84375 
Q 16.21875 57.28125 16.21875 49.421875 
Q 16.21875 41.5 20.09375 36.953125 
Q 23.96875 32.421875 30.609375 32.421875 
z
" id="DejaVuSans-57"/>
       </defs>
       <use xlink:href="#DejaVuSans-8722"/>
       <use x="83.789062" xlink:href="#DejaVuSans-57"/>
      </g>
     </g>
    </g>
    <g id="ytick_5">
     <g id="line2d_41">
      <path clip-path="url(#p4cc3295648)" d="M 60.05 126.183468 
L 493.2 126.183468 
" style="fill:none;stroke:#808080;stroke-linecap:square;stroke-width:0.8;"/>
     </g>
     <g id="line2d_42">
      <g>
       <use style="stroke:#000000;stroke-width:0.8;" x="60.05" xlink:href="#ma71ddbf694" y="126.183468"/>
      </g>
     </g>
     <g id="text_8">
      <!-- −8 -->
      <g transform="translate(35.359375 130.742531)scale(0.12 -0.12)">
       <defs>
        <path d="M 31.78125 34.625 
Q 24.75 34.625 20.71875 30.859375 
Q 16.703125 27.09375 16.703125 20.515625 
Q 16.703125 13.921875 20.71875 10.15625 
Q 24.75 6.390625 31.78125 6.390625 
Q 38.8125 6.390625 42.859375 10.171875 
Q 46.921875 13.96875 46.921875 20.515625 
Q 46.921875 27.09375 42.890625 30.859375 
Q 38.875 34.625 31.78125 34.625 
z
M 21.921875 38.8125 
Q 15.578125 40.375 12.03125 44.71875 
Q 8.5 49.078125 8.5 55.328125 
Q 8.5 64.0625 14.71875 69.140625 
Q 20.953125 74.21875 31.78125 74.21875 
Q 42.671875 74.21875 48.875 69.140625 
Q 55.078125 64.0625 55.078125 55.328125 
Q 55.078125 49.078125 51.53125 44.71875 
Q 48 40.375 41.703125 38.8125 
Q 48.828125 37.15625 52.796875 32.3125 
Q 56.78125 27.484375 56.78125 20.515625 
Q 56.78125 9.90625 50.3125 4.234375 
Q 43.84375 -1.421875 31.78125 -1.421875 
Q 19.734375 -1.421875 13.25 4.234375 
Q 6.78125 9.90625 6.78125 20.515625 
Q 6.78125 27.484375 10.78125 32.3125 
Q 14.796875 37.15625 21.921875 38.8125 
z
M 18.3125 54.390625 
Q 18.3125 48.734375 21.84375 45.5625 
Q 25.390625 42.390625 31.78125 42.390625 
Q 38.140625 42.390625 41.71875 45.5625 
Q 45.3125 48.734375 45.3125 54.390625 
Q 45.3125 60.0625 41.71875 63.234375 
Q 38.140625 66.40625 31.78125 66.40625 
Q 25.390625 66.40625 21.84375 63.234375 
Q 18.3125 60.0625 18.3125 54.390625 
z
" id="DejaVuSans-56"/>
       </defs>
       <use xlink:href="#DejaVuSans-8722"/>
       <use x="83.789062" xlink:href="#DejaVuSans-56"/>
      </g>
     </g>
    </g>
    <g id="ytick_6">
     <g id="line2d_43">
      <path clip-path="url(#p4cc3295648)" d="M 60.05 82.020843 
L 493.2 82.020843 
" style="fill:none;stroke:#808080;stroke-linecap:square;stroke-width:0.8;"/>
     </g>
     <g id="line2d_44">
      <g>
       <use style="stroke:#000000;stroke-width:0.8;" x="60.05" xlink:href="#ma71ddbf694" y="82.020843"/>
      </g>
     </g>
     <g id="text_9">
      <!-- −7 -->
      <g transform="translate(35.359375 86.579906)scale(0.12 -0.12)">
       <defs>
        <path d="M 8.203125 72.90625 
L 55.078125 72.90625 
L 55.078125 68.703125 
L 28.609375 0 
L 18.3125 0 
L 43.21875 64.59375 
L 8.203125 64.59375 
z
" id="DejaVuSans-55"/>
       </defs>
       <use xlink:href="#DejaVuSans-8722"/>
       <use x="83.789062" xlink:href="#DejaVuSans-55"/>
      </g>
     </g>
    </g>
    <g id="ytick_7">
     <g id="line2d_45">
      <path clip-path="url(#p4cc3295648)" d="M 60.05 37.858218 
L 493.2 37.858218 
" style="fill:none;stroke:#808080;stroke-linecap:square;stroke-width:0.8;"/>
     </g>
     <g id="line2d_46">
      <g>
       <use style="stroke:#000000;stroke-width:0.8;" x="60.05" xlink:href="#ma71ddbf694" y="37.858218"/>
      </g>
     </g>
     <g id="text_10">
      <!-- −6 -->
      <g transform="translate(35.359375 42.41728)scale(0.12 -0.12)">
       <defs>
        <path d="M 33.015625 40.375 
Q 26.375 40.375 22.484375 35.828125 
Q 18.609375 31.296875 18.609375 23.390625 
Q 18.609375 15.53125 22.484375 10.953125 
Q 26.375 6.390625 33.015625 6.390625 
Q 39.65625 6.390625 43.53125 10.953125 
Q 47.40625 15.53125 47.40625 23.390625 
Q 47.40625 31.296875 43.53125 35.828125 
Q 39.65625 40.375 33.015625 40.375 
z
M 52.59375 71.296875 
L 52.59375 62.3125 
Q 48.875 64.0625 45.09375 64.984375 
Q 41.3125 65.921875 37.59375 65.921875 
Q 27.828125 65.921875 22.671875 59.328125 
Q 17.53125 52.734375 16.796875 39.40625 
Q 19.671875 43.65625 24.015625 45.921875 
Q 28.375 48.1875 33.59375 48.1875 
Q 44.578125 48.1875 50.953125 41.515625 
Q 57.328125 34.859375 57.328125 23.390625 
Q 57.328125 12.15625 50.6875 5.359375 
Q 44.046875 -1.421875 33.015625 -1.421875 
Q 20.359375 -1.421875 13.671875 8.265625 
Q 6.984375 17.96875 6.984375 36.375 
Q 6.984375 53.65625 15.1875 63.9375 
Q 23.390625 74.21875 37.203125 74.21875 
Q 40.921875 74.21875 44.703125 73.484375 
Q 48.484375 72.75 52.59375 71.296875 
z
" id="DejaVuSans-54"/>
       </defs>
       <use xlink:href="#DejaVuSans-8722"/>
       <use x="83.789062" xlink:href="#DejaVuSans-54"/>
      </g>
     </g>
    </g>
    <g id="text_11">
     <!-- magnitude [dB] -->
     <g transform="translate(21.22875 214.669687)rotate(-90)scale(0.12 -0.12)">
      <defs>
       <path d="M 52 44.1875 
Q 55.375 50.25 60.0625 53.125 
Q 64.75 56 71.09375 56 
Q 79.640625 56 84.28125 50.015625 
Q 88.921875 44.046875 88.921875 33.015625 
L 88.921875 0 
L 79.890625 0 
L 79.890625 32.71875 
Q 79.890625 40.578125 77.09375 44.375 
Q 74.3125 48.1875 68.609375 48.1875 
Q 61.625 48.1875 57.5625 43.546875 
Q 53.515625 38.921875 53.515625 30.90625 
L 53.515625 0 
L 44.484375 0 
L 44.484375 32.71875 
Q 44.484375 40.625 41.703125 44.40625 
Q 38.921875 48.1875 33.109375 48.1875 
Q 26.21875 48.1875 22.15625 43.53125 
Q 18.109375 38.875 18.109375 30.90625 
L 18.109375 0 
L 9.078125 0 
L 9.078125 54.6875 
L 18.109375 54.6875 
L 18.109375 46.1875 
Q 21.1875 51.21875 25.484375 53.609375 
Q 29.78125 56 35.6875 56 
Q 41.65625 56 45.828125 52.96875 
Q 50 49.953125 52 44.1875 
z
" id="DejaVuSans-109"/>
       <path d="M 34.28125 27.484375 
Q 23.390625 27.484375 19.1875 25 
Q 14.984375 22.515625 14.984375 16.5 
Q 14.984375 11.71875 18.140625 8.90625 
Q 21.296875 6.109375 26.703125 6.109375 
Q 34.1875 6.109375 38.703125 11.40625 
Q 43.21875 16.703125 43.21875 25.484375 
L 43.21875 27.484375 
z
M 52.203125 31.203125 
L 52.203125 0 
L 43.21875 0 
L 43.21875 8.296875 
Q 40.140625 3.328125 35.546875 0.953125 
Q 30.953125 -1.421875 24.3125 -1.421875 
Q 15.921875 -1.421875 10.953125 3.296875 
Q 6 8.015625 6 15.921875 
Q 6 25.140625 12.171875 29.828125 
Q 18.359375 34.515625 30.609375 34.515625 
L 43.21875 34.515625 
L 43.21875 35.40625 
Q 43.21875 41.609375 39.140625 45 
Q 35.0625 48.390625 27.6875 48.390625 
Q 23 48.390625 18.546875 47.265625 
Q 14.109375 46.140625 10.015625 43.890625 
L 10.015625 52.203125 
Q 14.9375 54.109375 19.578125 55.046875 
Q 24.21875 56 28.609375 56 
Q 40.484375 56 46.34375 49.84375 
Q 52.203125 43.703125 52.203125 31.203125 
z
" id="DejaVuSans-97"/>
       <path d="M 45.40625 27.984375 
Q 45.40625 37.75 41.375 43.109375 
Q 37.359375 48.484375 30.078125 48.484375 
Q 22.859375 48.484375 18.828125 43.109375 
Q 14.796875 37.75 14.796875 27.984375 
Q 14.796875 18.265625 18.828125 12.890625 
Q 22.859375 7.515625 30.078125 7.515625 
Q 37.359375 7.515625 41.375 12.890625 
Q 45.40625 18.265625 45.40625 27.984375 
z
M 54.390625 6.78125 
Q 54.390625 -7.171875 48.1875 -13.984375 
Q 42 -20.796875 29.203125 -20.796875 
Q 24.46875 -20.796875 20.265625 -20.09375 
Q 16.0625 -19.390625 12.109375 -17.921875 
L 12.109375 -9.1875 
Q 16.0625 -11.328125 19.921875 -12.34375 
Q 23.78125 -13.375 27.78125 -13.375 
Q 36.625 -13.375 41.015625 -8.765625 
Q 45.40625 -4.15625 45.40625 5.171875 
L 45.40625 9.625 
Q 42.625 4.78125 38.28125 2.390625 
Q 33.9375 0 27.875 0 
Q 17.828125 0 11.671875 7.65625 
Q 5.515625 15.328125 5.515625 27.984375 
Q 5.515625 40.671875 11.671875 48.328125 
Q 17.828125 56 27.875 56 
Q 33.9375 56 38.28125 53.609375 
Q 42.625 51.21875 45.40625 46.390625 
L 45.40625 54.6875 
L 54.390625 54.6875 
z
" id="DejaVuSans-103"/>
       <path d="M 9.421875 54.6875 
L 18.40625 54.6875 
L 18.40625 0 
L 9.421875 0 
z
M 9.421875 75.984375 
L 18.40625 75.984375 
L 18.40625 64.59375 
L 9.421875 64.59375 
z
" id="DejaVuSans-105"/>
       <path d="M 18.3125 70.21875 
L 18.3125 54.6875 
L 36.8125 54.6875 
L 36.8125 47.703125 
L 18.3125 47.703125 
L 18.3125 18.015625 
Q 18.3125 11.328125 20.140625 9.421875 
Q 21.96875 7.515625 27.59375 7.515625 
L 36.8125 7.515625 
L 36.8125 0 
L 27.59375 0 
Q 17.1875 0 13.234375 3.875 
Q 9.28125 7.765625 9.28125 18.015625 
L 9.28125 47.703125 
L 2.6875 47.703125 
L 2.6875 54.6875 
L 9.28125 54.6875 
L 9.28125 70.21875 
z
" id="DejaVuSans-116"/>
       <path d="M 45.40625 46.390625 
L 45.40625 75.984375 
L 54.390625 75.984375 
L 54.390625 0 
L 45.40625 0 
L 45.40625 8.203125 
Q 42.578125 3.328125 38.25 0.953125 
Q 33.9375 -1.421875 27.875 -1.421875 
Q 17.96875 -1.421875 11.734375 6.484375 
Q 5.515625 14.40625 5.515625 27.296875 
Q 5.515625 40.1875 11.734375 48.09375 
Q 17.96875 56 27.875 56 
Q 33.9375 56 38.25 53.625 
Q 42.578125 51.265625 45.40625 46.390625 
z
M 14.796875 27.296875 
Q 14.796875 17.390625 18.875 11.75 
Q 22.953125 6.109375 30.078125 6.109375 
Q 37.203125 6.109375 41.296875 11.75 
Q 45.40625 17.390625 45.40625 27.296875 
Q 45.40625 37.203125 41.296875 42.84375 
Q 37.203125 48.484375 30.078125 48.484375 
Q 22.953125 48.484375 18.875 42.84375 
Q 14.796875 37.203125 14.796875 27.296875 
z
" id="DejaVuSans-100"/>
       <path d="M 19.671875 34.8125 
L 19.671875 8.109375 
L 35.5 8.109375 
Q 43.453125 8.109375 47.28125 11.40625 
Q 51.125 14.703125 51.125 21.484375 
Q 51.125 28.328125 47.28125 31.5625 
Q 43.453125 34.8125 35.5 34.8125 
z
M 19.671875 64.796875 
L 19.671875 42.828125 
L 34.28125 42.828125 
Q 41.5 42.828125 45.03125 45.53125 
Q 48.578125 48.25 48.578125 53.8125 
Q 48.578125 59.328125 45.03125 62.0625 
Q 41.5 64.796875 34.28125 64.796875 
z
M 9.8125 72.90625 
L 35.015625 72.90625 
Q 46.296875 72.90625 52.390625 68.21875 
Q 58.5 63.53125 58.5 54.890625 
Q 58.5 48.1875 55.375 44.234375 
Q 52.25 40.28125 46.1875 39.3125 
Q 53.46875 37.75 57.5 32.78125 
Q 61.53125 27.828125 61.53125 20.40625 
Q 61.53125 10.640625 54.890625 5.3125 
Q 48.25 0 35.984375 0 
L 9.8125 0 
z
" id="DejaVuSans-66"/>
      </defs>
      <use xlink:href="#DejaVuSans-109"/>
      <use x="97.412109" xlink:href="#DejaVuSans-97"/>
      <use x="158.691406" xlink:href="#DejaVuSans-103"/>
      <use x="222.167969" xlink:href="#DejaVuSans-110"/>
      <use x="285.546875" xlink:href="#DejaVuSans-105"/>
      <use x="313.330078" xlink:href="#DejaVuSans-116"/>
      <use x="352.539062" xlink:href="#DejaVuSans-117"/>
      <use x="415.917969" xlink:href="#DejaVuSans-100"/>
      <use x="479.394531" xlink:href="#DejaVuSans-101"/>
      <use x="540.917969" xlink:href="#DejaVuSans-32"/>
      <use x="572.705078" xlink:href="#DejaVuSans-91"/>
      <use x="611.71875" xlink:href="#DejaVuSans-100"/>
      <use x="675.195312" xlink:href="#DejaVuSans-66"/>
      <use x="743.798828" xlink:href="#DejaVuSans-93"/>
     </g>
    </g>
   </g>
   <g id="line2d_47">
    <path clip-path="url(#p4cc3295648)" d="M 79.738636 39.609091 
L 83.716139 39.609092 
L 87.693641 39.609094 
L 91.671143 39.609096 
L 95.648646 39.609098 
L 99.626148 39.6091 
L 103.60365 39.609102 
L 107.581152 39.609105 
L 111.558655 39.609107 
L 115.536157 39.60911 
L 119.513659 39.609114 
L 123.491162 39.609117 
L 127.468664 39.609121 
L 131.446166 39.609125 
L 135.423669 39.609129 
L 139.401171 39.609134 
L 143.378673 39.609139 
L 147.356175 39.609144 
L 151.333678 39.60915 
L 155.31118 39.609156 
L 159.288682 39.609163 
L 163.266185 39.609171 
L 167.243687 39.609179 
L 171.221189 39.609188 
L 175.198691 39.609197 
L 179.176194 39.609208 
L 183.153696 39.609219 
L 187.131198 39.609231 
L 191.108701 39.609244 
L 195.086203 39.609258 
L 199.063705 39.609273 
L 203.041208 39.60929 
L 207.01871 39.609308 
L 210.996212 39.609327 
L 214.973714 39.609348 
L 218.951217 39.609371 
L 222.928719 39.609395 
L 226.906221 39.609422 
L 230.883724 39.60945 
L 234.861226 39.609482 
L 238.838728 39.609515 
L 242.81623 39.609552 
L 246.793733 39.609591 
L 250.771235 39.609634 
L 254.748737 39.60968 
L 258.72624 39.60973 
L 262.703742 39.609784 
L 266.681244 39.609843 
L 270.658747 39.609906 
L 274.636249 39.609975 
L 278.613751 39.610049 
L 282.591253 39.610129 
L 286.568756 39.610216 
L 290.546258 39.61031 
L 294.52376 39.610412 
L 298.501263 39.610522 
L 302.478765 39.610641 
L 306.456267 39.61077 
L 310.43377 39.61091 
L 314.411272 39.611061 
L 318.388774 39.611225 
L 322.366276 39.611402 
L 326.343779 39.611593 
L 330.321281 39.611801 
L 334.298783 39.612025 
L 338.276286 39.612268 
L 342.253788 39.612531 
L 346.23129 39.612815 
L 350.208792 39.613123 
L 354.186295 39.613456 
L 358.163797 39.613817 
L 362.141299 39.614207 
L 366.118802 39.614629 
L 370.096304 39.615086 
L 374.073806 39.615581 
L 378.051309 39.616116 
L 382.028811 39.616696 
L 386.006313 39.617323 
L 389.983815 39.618002 
L 393.961318 39.618736 
L 397.93882 39.619531 
L 401.916322 39.620391 
L 405.893825 39.621322 
L 409.871327 39.62233 
L 413.848829 39.62342 
L 417.826331 39.624601 
L 421.803834 39.625878 
L 425.781336 39.62726 
L 429.758838 39.628757 
L 433.736341 39.630376 
L 437.713843 39.632129 
L 441.691345 39.634026 
L 445.668848 39.636079 
L 449.64635 39.638301 
L 453.623852 39.640706 
L 457.601354 39.643309 
L 461.578857 39.646126 
L 465.556359 39.649176 
L 469.533861 39.652476 
L 473.511364 39.656048 
" style="fill:none;stroke:#ff0000;stroke-linecap:square;stroke-width:2;"/>
   </g>
   <g id="line2d_48">
    <path clip-path="url(#p4cc3295648)" d="M 79.738636 39.609204 
L 83.716139 39.609215 
L 87.693641 39.609227 
L 91.671143 39.60924 
L 95.648646 39.609254 
L 99.626148 39.609269 
L 103.60365 39.609285 
L 107.581152 39.609302 
L 111.558655 39.609321 
L 115.536157 39.609342 
L 119.513659 39.609364 
L 123.491162 39.609388 
L 127.468664 39.609414 
L 131.446166 39.609442 
L 135.423669 39.609472 
L 139.401171 39.609505 
L 143.378673 39.609541 
L 147.356175 39.609579 
L 151.333678 39.609621 
L 155.31118 39.609666 
L 159.288682 39.609715 
L 163.266185 39.609768 
L 167.243687 39.609825 
L 171.221189 39.609887 
L 175.198691 39.609954 
L 179.176194 39.610026 
L 183.153696 39.610105 
L 187.131198 39.61019 
L 191.108701 39.610282 
L 195.086203 39.610381 
L 199.063705 39.610489 
L 203.041208 39.610605 
L 207.01871 39.610732 
L 210.996212 39.610868 
L 214.973714 39.611016 
L 218.951217 39.611176 
L 222.928719 39.611349 
L 226.906221 39.611536 
L 230.883724 39.611738 
L 234.861226 39.611958 
L 238.838728 39.612195 
L 242.81623 39.612452 
L 246.793733 39.61273 
L 250.771235 39.61303 
L 254.748737 39.613356 
L 258.72624 39.613708 
L 262.703742 39.614089 
L 266.681244 39.614502 
L 270.658747 39.614949 
L 274.636249 39.615432 
L 278.613751 39.615955 
L 282.591253 39.616521 
L 286.568756 39.617133 
L 290.546258 39.617796 
L 294.52376 39.618514 
L 298.501263 39.61929 
L 302.478765 39.62013 
L 306.456267 39.621039 
L 310.43377 39.622024 
L 314.411272 39.623089 
L 318.388774 39.624241 
L 322.366276 39.625488 
L 326.343779 39.626838 
L 330.321281 39.628299 
L 334.298783 39.62988 
L 338.276286 39.631591 
L 342.253788 39.633442 
L 346.23129 39.635446 
L 350.208792 39.637615 
L 354.186295 39.639961 
L 358.163797 39.642501 
L 362.141299 39.645249 
L 366.118802 39.648223 
L 370.096304 39.651442 
L 374.073806 39.654925 
L 378.051309 39.658695 
L 382.028811 39.662774 
L 386.006313 39.667188 
L 389.983815 39.671965 
L 393.961318 39.677134 
L 397.93882 39.682728 
L 401.916322 39.688782 
L 405.893825 39.695333 
L 409.871327 39.702422 
L 413.848829 39.710092 
L 417.826331 39.718393 
L 421.803834 39.727375 
L 425.781336 39.737094 
L 429.758838 39.747611 
L 433.736341 39.758991 
L 437.713843 39.771305 
L 441.691345 39.784628 
L 445.668848 39.799044 
L 449.64635 39.814642 
L 453.623852 39.831519 
L 457.601354 39.849778 
L 461.578857 39.869533 
L 465.556359 39.890906 
L 469.533861 39.914029 
L 473.511364 39.939044 
" style="fill:none;stroke:#0000ff;stroke-linecap:square;stroke-width:2;"/>
   </g>
   <g id="line2d_49">
    <path clip-path="url(#p4cc3295648)" d="M 79.738636 39.60946 
L 83.716139 39.609492 
L 87.693641 39.609526 
L 91.671143 39.609564 
L 95.648646 39.609604 
L 99.626148 39.609648 
L 103.60365 39.609695 
L 107.581152 39.609746 
L 111.558655 39.609802 
L 115.536157 39.609862 
L 119.513659 39.609927 
L 123.491162 39.609997 
L 127.468664 39.610073 
L 131.446166 39.610155 
L 135.423669 39.610245 
L 139.401171 39.610341 
L 143.378673 39.610445 
L 147.356175 39.610558 
L 151.333678 39.61068 
L 155.31118 39.610813 
L 159.288682 39.610956 
L 163.266185 39.611111 
L 167.243687 39.611278 
L 171.221189 39.61146 
L 175.198691 39.611656 
L 179.176194 39.611869 
L 183.153696 39.612099 
L 187.131198 39.612348 
L 191.108701 39.612617 
L 195.086203 39.612909 
L 199.063705 39.613224 
L 203.041208 39.613565 
L 207.01871 39.613935 
L 210.996212 39.614335 
L 214.973714 39.614768 
L 218.951217 39.615236 
L 222.928719 39.615743 
L 226.906221 39.616292 
L 230.883724 39.616885 
L 234.861226 39.617528 
L 238.838728 39.618223 
L 242.81623 39.618976 
L 246.793733 39.61979 
L 250.771235 39.620671 
L 254.748737 39.621625 
L 258.72624 39.622657 
L 262.703742 39.623775 
L 266.681244 39.624984 
L 270.658747 39.626292 
L 274.636249 39.627708 
L 278.613751 39.62924 
L 282.591253 39.630899 
L 286.568756 39.632694 
L 290.546258 39.634636 
L 294.52376 39.636738 
L 298.501263 39.639013 
L 302.478765 39.641475 
L 306.456267 39.644139 
L 310.43377 39.647022 
L 314.411272 39.650143 
L 318.388774 39.653519 
L 322.366276 39.657174 
L 326.343779 39.661129 
L 330.321281 39.665409 
L 334.298783 39.67004 
L 338.276286 39.675053 
L 342.253788 39.680477 
L 346.23129 39.686347 
L 350.208792 39.692699 
L 354.186295 39.699574 
L 358.163797 39.707013 
L 362.141299 39.715063 
L 366.118802 39.723775 
L 370.096304 39.733203 
L 374.073806 39.743404 
L 378.051309 39.754444 
L 382.028811 39.76639 
L 386.006313 39.779318 
L 389.983815 39.793306 
L 393.961318 39.808443 
L 397.93882 39.824822 
L 401.916322 39.842546 
L 405.893825 39.861724 
L 409.871327 39.882474 
L 413.848829 39.904927 
L 417.826331 39.929222 
L 421.803834 39.955507 
L 425.781336 39.983948 
L 429.758838 40.014718 
L 433.736341 40.048009 
L 437.713843 40.084027 
L 441.691345 40.122992 
L 445.668848 40.165146 
L 449.64635 40.210748 
L 453.623852 40.260079 
L 457.601354 40.31344 
L 461.578857 40.37116 
L 465.556359 40.433592 
L 469.533861 40.501116 
L 473.511364 40.574146 
" style="fill:none;stroke:#008000;stroke-linecap:square;stroke-width:2;"/>
   </g>
   <g id="line2d_50">
    <path clip-path="url(#p4cc3295648)" d="M 79.738636 39.610054 
L 83.716139 39.610135 
L 87.693641 39.610222 
L 91.671143 39.610317 
L 95.648646 39.610419 
L 99.626148 39.61053 
L 103.60365 39.61065 
L 107.581152 39.610779 
L 111.558655 39.61092 
L 115.536157 39.611072 
L 119.513659 39.611236 
L 123.491162 39.611414 
L 127.468664 39.611607 
L 131.446166 39.611815 
L 135.423669 39.612041 
L 139.401171 39.612285 
L 143.378673 39.612549 
L 147.356175 39.612835 
L 151.333678 39.613144 
L 155.31118 39.613479 
L 159.288682 39.613842 
L 163.266185 39.614234 
L 167.243687 39.614658 
L 171.221189 39.615118 
L 175.198691 39.615615 
L 179.176194 39.616153 
L 183.153696 39.616735 
L 187.131198 39.617366 
L 191.108701 39.618048 
L 195.086203 39.618786 
L 199.063705 39.619584 
L 203.041208 39.620449 
L 207.01871 39.621384 
L 210.996212 39.622397 
L 214.973714 39.623493 
L 218.951217 39.624679 
L 222.928719 39.625962 
L 226.906221 39.627351 
L 230.883724 39.628854 
L 234.861226 39.630481 
L 238.838728 39.632241 
L 242.81623 39.634146 
L 246.793733 39.636208 
L 250.771235 39.638439 
L 254.748737 39.640854 
L 258.72624 39.643468 
L 262.703742 39.646296 
L 266.681244 39.649357 
L 270.658747 39.652669 
L 274.636249 39.656254 
L 278.613751 39.660133 
L 282.591253 39.664331 
L 286.568756 39.668875 
L 290.546258 39.673792 
L 294.52376 39.679113 
L 298.501263 39.684871 
L 302.478765 39.691103 
L 306.456267 39.697847 
L 310.43377 39.705145 
L 314.411272 39.713043 
L 318.388774 39.72159 
L 322.366276 39.73084 
L 326.343779 39.740849 
L 330.321281 39.751681 
L 334.298783 39.763402 
L 338.276286 39.776086 
L 342.253788 39.789813 
L 346.23129 39.804666 
L 350.208792 39.82074 
L 354.186295 39.838133 
L 358.163797 39.856954 
L 362.141299 39.877321 
L 366.118802 39.899359 
L 370.096304 39.923205 
L 374.073806 39.949008 
L 378.051309 39.976928 
L 382.028811 40.007139 
L 386.006313 40.039826 
L 389.983815 40.075193 
L 393.961318 40.113459 
L 397.93882 40.15486 
L 401.916322 40.199653 
L 405.893825 40.248114 
L 409.871327 40.300541 
L 413.848829 40.357259 
L 417.826331 40.418616 
L 421.803834 40.48499 
L 425.781336 40.556787 
L 429.758838 40.634449 
L 433.736341 40.718451 
L 437.713843 40.809306 
L 441.691345 40.907568 
L 445.668848 41.013835 
L 449.64635 41.128754 
L 453.623852 41.25302 
L 457.601354 41.387385 
L 461.578857 41.532658 
L 465.556359 41.689715 
L 469.533861 41.859494 
L 473.511364 42.043011 
" style="fill:none;stroke:#00bfbf;stroke-linecap:square;stroke-width:2;"/>
   </g>
   <g id="line2d_51">
    <path clip-path="url(#p4cc3295648)" d="M 79.738636 39.61147 
L 83.716139 39.611667 
L 87.693641 39.61188 
L 91.671143 39.612111 
L 95.648646 39.612361 
L 99.626148 39.612631 
L 103.60365 39.612924 
L 107.581152 39.613241 
L 111.558655 39.613584 
L 115.536157 39.613955 
L 119.513659 39.614356 
L 123.491162 39.614791 
L 127.468664 39.615261 
L 131.446166 39.61577 
L 135.423669 39.616321 
L 139.401171 39.616917 
L 143.378673 39.617562 
L 147.356175 39.61826 
L 151.333678 39.619016 
L 155.31118 39.619834 
L 159.288682 39.620719 
L 163.266185 39.621676 
L 167.243687 39.622713 
L 171.221189 39.623835 
L 175.198691 39.625049 
L 179.176194 39.626362 
L 183.153696 39.627784 
L 187.131198 39.629323 
L 191.108701 39.630988 
L 195.086203 39.632791 
L 199.063705 39.634741 
L 203.041208 39.636852 
L 207.01871 39.639136 
L 210.996212 39.641608 
L 214.973714 39.644284 
L 218.951217 39.647179 
L 222.928719 39.650312 
L 226.906221 39.653704 
L 230.883724 39.657373 
L 234.861226 39.661345 
L 238.838728 39.665643 
L 242.81623 39.670294 
L 246.793733 39.675328 
L 250.771235 39.680776 
L 254.748737 39.686671 
L 258.72624 39.693051 
L 262.703742 39.699956 
L 266.681244 39.707427 
L 270.658747 39.715513 
L 274.636249 39.724264 
L 278.613751 39.733733 
L 282.591253 39.743981 
L 286.568756 39.755071 
L 290.546258 39.767072 
L 294.52376 39.780059 
L 298.501263 39.794113 
L 302.478765 39.809321 
L 306.456267 39.825778 
L 310.43377 39.843587 
L 314.411272 39.862859 
L 318.388774 39.883713 
L 322.366276 39.906279 
L 326.343779 39.930697 
L 330.321281 39.957119 
L 334.298783 39.98571 
L 338.276286 40.016647 
L 342.253788 40.050121 
L 346.23129 40.08634 
L 350.208792 40.12553 
L 354.186295 40.167932 
L 358.163797 40.213809 
L 362.141299 40.263444 
L 366.118802 40.317146 
L 370.096304 40.375244 
L 374.073806 40.438098 
L 378.051309 40.506094 
L 382.028811 40.579651 
L 386.006313 40.659221 
L 389.983815 40.745293 
L 393.961318 40.838393 
L 397.93882 40.939092 
L 401.916322 41.048005 
L 405.893825 41.165795 
L 409.871327 41.293179 
L 413.848829 41.430931 
L 417.826331 41.579884 
L 421.803834 41.740939 
L 425.781336 41.915065 
L 429.758838 42.103309 
L 433.736341 42.306797 
L 437.713843 42.526742 
L 441.691345 42.764452 
L 445.668848 43.021334 
L 449.64635 43.2989 
L 453.623852 43.598778 
L 457.601354 43.922716 
L 461.578857 44.272593 
L 465.556359 44.650425 
L 469.533861 45.058376 
L 473.511364 45.498763 
" style="fill:none;stroke:#bf00bf;stroke-linecap:square;stroke-width:2;"/>
   </g>
   <g id="line2d_52">
    <path clip-path="url(#p4cc3295648)" d="M 79.738636 39.614902 
L 83.716139 39.615381 
L 87.693641 39.6159 
L 91.671143 39.616461 
L 95.648646 39.617069 
L 99.626148 39.617727 
L 103.60365 39.618438 
L 107.581152 39.619209 
L 111.558655 39.620042 
L 115.536157 39.620944 
L 119.513659 39.62192 
L 123.491162 39.622977 
L 127.468664 39.624121 
L 131.446166 39.625358 
L 135.423669 39.626697 
L 139.401171 39.628147 
L 143.378673 39.629715 
L 147.356175 39.631413 
L 151.333678 39.63325 
L 155.31118 39.635238 
L 159.288682 39.63739 
L 163.266185 39.639718 
L 167.243687 39.642238 
L 171.221189 39.644965 
L 175.198691 39.647917 
L 179.176194 39.651111 
L 183.153696 39.654568 
L 187.131198 39.658309 
L 191.108701 39.662357 
L 195.086203 39.666739 
L 199.063705 39.67148 
L 203.041208 39.676612 
L 207.01871 39.682165 
L 210.996212 39.688174 
L 214.973714 39.694678 
L 218.951217 39.701716 
L 222.928719 39.709333 
L 226.906221 39.717576 
L 230.883724 39.726496 
L 234.861226 39.736149 
L 238.838728 39.746596 
L 242.81623 39.757901 
L 246.793733 39.770135 
L 250.771235 39.783374 
L 254.748737 39.7977 
L 258.72624 39.813204 
L 262.703742 39.829981 
L 266.681244 39.848136 
L 270.658747 39.867782 
L 274.636249 39.889041 
L 278.613751 39.912046 
L 282.591253 39.93694 
L 286.568756 39.963876 
L 290.546258 39.993024 
L 294.52376 40.024563 
L 298.501263 40.05869 
L 302.478765 40.095616 
L 306.456267 40.13557 
L 310.43377 40.1788 
L 314.411272 40.225573 
L 318.388774 40.27618 
L 322.366276 40.330932 
L 326.343779 40.390169 
L 330.321281 40.454255 
L 334.298783 40.523586 
L 338.276286 40.598589 
L 342.253788 40.679725 
L 346.23129 40.767493 
L 350.208792 40.86243 
L 354.186295 40.965119 
L 358.163797 41.076188 
L 362.141299 41.196314 
L 366.118802 41.326229 
L 370.096304 41.466724 
L 374.073806 41.61865 
L 378.051309 41.782926 
L 382.028811 41.960545 
L 386.006313 42.152576 
L 389.983815 42.36017 
L 393.961318 42.584568 
L 397.93882 42.827108 
L 401.916322 43.089229 
L 405.893825 43.37248 
L 409.871327 43.678527 
L 413.848829 44.009162 
L 417.826331 44.366309 
L 421.803834 44.752037 
L 425.781336 45.168563 
L 429.758838 45.618267 
L 433.736341 46.103699 
L 437.713843 46.627591 
L 441.691345 47.192866 
L 445.668848 47.802646 
L 449.64635 48.460267 
L 453.623852 49.169289 
L 457.601354 49.933504 
L 461.578857 50.756945 
L 465.556359 51.643903 
L 469.533861 52.598927 
L 473.511364 53.626839 
" style="fill:none;stroke:#bfbf00;stroke-linecap:square;stroke-width:2;"/>
   </g>
   <g id="line2d_53">
    <path clip-path="url(#p4cc3295648)" d="M 79.738636 39.623319 
L 83.716139 39.62449 
L 87.693641 39.625758 
L 91.671143 39.62713 
L 95.648646 39.628615 
L 99.626148 39.630222 
L 103.60365 39.631962 
L 107.581152 39.633844 
L 111.558655 39.635881 
L 115.536157 39.638085 
L 119.513659 39.640471 
L 123.491162 39.643053 
L 127.468664 39.645847 
L 131.446166 39.648871 
L 135.423669 39.652144 
L 139.401171 39.655685 
L 143.378673 39.659518 
L 147.356175 39.663666 
L 151.333678 39.668155 
L 155.31118 39.673013 
L 159.288682 39.678271 
L 163.266185 39.68396 
L 167.243687 39.690118 
L 171.221189 39.696781 
L 175.198691 39.703992 
L 179.176194 39.711796 
L 183.153696 39.720241 
L 187.131198 39.729381 
L 191.108701 39.739271 
L 195.086203 39.749974 
L 199.063705 39.761557 
L 203.041208 39.774092 
L 207.01871 39.787656 
L 210.996212 39.802335 
L 214.973714 39.818219 
L 218.951217 39.835409 
L 222.928719 39.85401 
L 226.906221 39.874139 
L 230.883724 39.89592 
L 234.861226 39.919491 
L 238.838728 39.944996 
L 242.81623 39.972595 
L 246.793733 40.002458 
L 250.771235 40.034773 
L 254.748737 40.069739 
L 258.72624 40.107572 
L 262.703742 40.148509 
L 266.681244 40.192802 
L 270.658747 40.240726 
L 274.636249 40.292577 
L 278.613751 40.348676 
L 282.591253 40.409369 
L 286.568756 40.475032 
L 290.546258 40.546069 
L 294.52376 40.622917 
L 298.501263 40.70605 
L 302.478765 40.795977 
L 306.456267 40.893252 
L 310.43377 40.998469 
L 314.411272 41.112273 
L 318.388774 41.235358 
L 322.366276 41.368474 
L 326.343779 41.512431 
L 330.321281 41.668102 
L 334.298783 41.836429 
L 338.276286 42.018429 
L 342.253788 42.215197 
L 346.23129 42.427915 
L 350.208792 42.657854 
L 354.186295 42.906385 
L 358.163797 43.174984 
L 362.141299 43.465238 
L 366.118802 43.778857 
L 370.096304 44.117676 
L 374.073806 44.483671 
L 378.051309 44.878959 
L 382.028811 45.305817 
L 386.006313 45.766686 
L 389.983815 46.264182 
L 393.961318 46.801105 
L 397.93882 47.380454 
L 401.916322 48.005435 
L 405.893825 48.679471 
L 409.871327 49.406214 
L 413.848829 50.189558 
L 417.826331 51.033644 
L 421.803834 51.942878 
L 425.781336 52.921933 
L 429.758838 53.975764 
L 433.736341 55.109612 
L 437.713843 56.329011 
L 441.691345 57.639795 
L 445.668848 59.048099 
L 449.64635 60.560363 
L 453.623852 62.183324 
L 457.601354 63.92402 
L 461.578857 65.789773 
L 465.556359 67.788186 
L 469.533861 69.927118 
L 473.511364 72.214671 
" style="fill:none;stroke:#000000;stroke-linecap:square;stroke-width:2;"/>
   </g>
   <g id="line2d_54">
    <path clip-path="url(#p4cc3295648)" d="M 79.738636 39.644119 
L 83.716139 39.647001 
L 87.693641 39.65012 
L 91.671143 39.653496 
L 95.648646 39.657148 
L 99.626148 39.661102 
L 103.60365 39.66538 
L 107.581152 39.67001 
L 111.558655 39.67502 
L 115.536157 39.680442 
L 119.513659 39.686311 
L 123.491162 39.692661 
L 127.468664 39.699534 
L 131.446166 39.706971 
L 135.423669 39.71502 
L 139.401171 39.72373 
L 143.378673 39.733156 
L 147.356175 39.743357 
L 151.333678 39.754396 
L 155.31118 39.766342 
L 159.288682 39.77927 
L 163.266185 39.79326 
L 167.243687 39.808399 
L 171.221189 39.824782 
L 175.198691 39.84251 
L 179.176194 39.861695 
L 183.153696 39.882455 
L 187.131198 39.90492 
L 191.108701 39.929229 
L 195.086203 39.955534 
L 199.063705 39.983998 
L 203.041208 40.014798 
L 207.01871 40.048126 
L 210.996212 40.084187 
L 214.973714 40.123207 
L 218.951217 40.165426 
L 222.928719 40.211107 
L 226.906221 40.260532 
L 230.883724 40.314007 
L 234.861226 40.371863 
L 238.838728 40.434457 
L 242.81623 40.502176 
L 246.793733 40.575436 
L 250.771235 40.654689 
L 254.748737 40.740423 
L 258.72624 40.833163 
L 262.703742 40.933479 
L 266.681244 41.041986 
L 270.658747 41.159346 
L 274.636249 41.286275 
L 278.613751 41.423548 
L 282.591253 41.571998 
L 286.568756 41.732525 
L 290.546258 41.906101 
L 294.52376 42.093774 
L 298.501263 42.296671 
L 302.478765 42.51601 
L 306.456267 42.753102 
L 310.43377 43.009359 
L 314.411272 43.286301 
L 318.388774 43.585563 
L 322.366276 43.908907 
L 326.343779 44.258222 
L 330.321281 44.635541 
L 334.298783 45.043048 
L 338.276286 45.483084 
L 342.253788 45.958162 
L 346.23129 46.470974 
L 350.208792 47.024403 
L 354.186295 47.621533 
L 358.163797 48.265661 
L 362.141299 48.960308 
L 366.118802 49.709229 
L 370.096304 50.516426 
L 374.073806 51.386156 
L 378.051309 52.322943 
L 382.028811 53.33159 
L 386.006313 54.417181 
L 389.983815 55.585096 
L 393.961318 56.841015 
L 397.93882 58.19092 
L 401.916322 59.641102 
L 405.893825 61.198159 
L 409.871327 62.868995 
L 413.848829 64.660813 
L 417.826331 66.58111 
L 421.803834 68.637659 
L 425.781336 70.838498 
L 429.758838 73.191905 
L 433.736341 75.706371 
L 437.713843 78.390572 
L 441.691345 81.253327 
L 445.668848 84.303559 
L 449.64635 87.550247 
L 453.623852 91.002369 
L 457.601354 94.668843 
L 461.578857 98.558466 
L 465.556359 102.679846 
L 469.533861 107.041323 
L 473.511364 111.650904 
" style="fill:none;stroke:#ff0000;stroke-linecap:square;stroke-width:2;"/>
   </g>
   <g id="line2d_55">
    <path clip-path="url(#p4cc3295648)" d="M 79.738636 39.695775 
L 83.716139 39.702904 
L 87.693641 39.710618 
L 91.671143 39.718967 
L 95.648646 39.728002 
L 99.626148 39.737779 
L 103.60365 39.748359 
L 107.581152 39.759809 
L 111.558655 39.7722 
L 115.536157 39.78561 
L 119.513659 39.80012 
L 123.491162 39.815823 
L 127.468664 39.832816 
L 131.446166 39.851204 
L 135.423669 39.871103 
L 139.401171 39.892636 
L 143.378673 39.915937 
L 147.356175 39.941151 
L 151.333678 39.968435 
L 155.31118 39.997958 
L 159.288682 40.029903 
L 163.266185 40.06447 
L 167.243687 40.101873 
L 171.221189 40.142343 
L 175.198691 40.186132 
L 179.176194 40.233511 
L 183.153696 40.284772 
L 187.131198 40.340234 
L 191.108701 40.400239 
L 195.086203 40.465157 
L 199.063705 40.535389 
L 203.041208 40.611367 
L 207.01871 40.69356 
L 210.996212 40.782472 
L 214.973714 40.87865 
L 218.951217 40.982683 
L 222.928719 41.095207 
L 226.906221 41.21691 
L 230.883724 41.348535 
L 234.861226 41.490882 
L 238.838728 41.644816 
L 242.81623 41.811269 
L 246.793733 41.991248 
L 250.771235 42.185838 
L 254.748737 42.396206 
L 258.72624 42.623614 
L 262.703742 42.869419 
L 266.681244 43.135083 
L 270.658747 43.422179 
L 274.636249 43.732399 
L 278.613751 44.067564 
L 282.591253 44.429632 
L 286.568756 44.820703 
L 290.546258 45.243035 
L 294.52376 45.699049 
L 298.501263 46.191342 
L 302.478765 46.722693 
L 306.456267 47.296082 
L 310.43377 47.914692 
L 314.411272 48.581925 
L 318.388774 49.301413 
L 322.366276 50.07703 
L 326.343779 50.912898 
L 330.321281 51.813404 
L 334.298783 52.783205 
L 338.276286 53.827242 
L 342.253788 54.950746 
L 346.23129 56.159244 
L 350.208792 57.458567 
L 354.186295 58.854855 
L 358.163797 60.354556 
L 362.141299 61.964429 
L 366.118802 63.691538 
L 370.096304 65.543247 
L 374.073806 67.52721 
L 378.051309 69.651355 
L 382.028811 71.923868 
L 386.006313 74.353168 
L 389.983815 76.947881 
L 393.961318 79.716803 
L 397.93882 82.668862 
L 401.916322 85.813075 
L 405.893825 89.158496 
L 409.871327 92.714159 
L 413.848829 96.489022 
L 417.826331 100.491895 
L 421.803834 104.731375 
L 425.781336 109.215772 
L 429.758838 113.953035 
L 433.736341 118.950676 
L 437.713843 124.215694 
L 441.691345 129.754503 
L 445.668848 135.572859 
L 449.64635 141.675796 
L 453.623852 148.067566 
L 457.601354 154.751589 
L 461.578857 161.730404 
L 465.556359 169.005641 
L 469.533861 176.577995 
L 473.511364 184.447214 
" style="fill:none;stroke:#0000ff;stroke-linecap:square;stroke-width:2;"/>
   </g>
   <g id="line2d_56">
    <path clip-path="url(#p4cc3295648)" d="M 79.738636 39.824431 
L 83.716139 39.842131 
L 87.693641 39.861285 
L 91.671143 39.882011 
L 95.648646 39.90444 
L 99.626148 39.92871 
L 103.60365 39.954972 
L 107.581152 39.983391 
L 111.558655 40.014141 
L 115.536157 40.047415 
L 119.513659 40.083418 
L 123.491162 40.122375 
L 127.468664 40.164527 
L 131.446166 40.210135 
L 135.423669 40.259481 
L 139.401171 40.312871 
L 143.378673 40.370634 
L 147.356175 40.433129 
L 151.333678 40.50074 
L 155.31118 40.573884 
L 159.288682 40.653012 
L 163.266185 40.73861 
L 167.243687 40.831205 
L 171.221189 40.931364 
L 175.198691 41.039701 
L 179.176194 41.156879 
L 183.153696 41.283612 
L 187.131198 41.420672 
L 191.108701 41.568894 
L 195.086203 41.729176 
L 199.063705 41.902488 
L 203.041208 42.089877 
L 207.01871 42.292469 
L 210.996212 42.511481 
L 214.973714 42.748223 
L 218.951217 43.004103 
L 222.928719 43.280643 
L 226.906221 43.579474 
L 230.883724 43.902357 
L 234.861226 44.25118 
L 238.838728 44.627975 
L 242.81623 45.034923 
L 246.793733 45.474365 
L 250.771235 45.948813 
L 254.748737 46.460957 
L 258.72624 47.013679 
L 262.703742 47.610064 
L 266.681244 48.253408 
L 270.658747 48.947232 
L 274.636249 49.695293 
L 278.613751 50.501593 
L 282.591253 51.370394 
L 286.568756 52.306221 
L 290.546258 53.313883 
L 294.52376 54.398469 
L 298.501263 55.565369 
L 302.478765 56.82027 
L 306.456267 58.169169 
L 310.43377 59.618369 
L 314.411272 61.174486 
L 318.388774 62.844446 
L 322.366276 64.635478 
L 326.343779 66.555106 
L 330.321281 68.61114 
L 334.298783 70.811658 
L 338.276286 73.164983 
L 342.253788 75.679663 
L 346.23129 78.364434 
L 350.208792 81.228188 
L 354.186295 84.279927 
L 358.163797 87.528722 
L 362.141299 90.983654 
L 366.118802 94.653757 
L 370.096304 98.547957 
L 374.073806 102.675005 
L 378.051309 107.043403 
L 382.028811 111.661332 
L 386.006313 116.536579 
L 389.983815 121.676459 
L 393.961318 127.08774 
L 397.93882 132.776575 
L 401.916322 138.748431 
L 405.893825 145.008025 
L 409.871327 151.559274 
L 413.848829 158.405241 
L 417.826331 165.548102 
L 421.803834 172.989114 
L 425.781336 180.728602 
L 429.758838 188.765952 
L 433.736341 197.099615 
L 437.713843 205.72713 
L 441.691345 214.645146 
L 445.668848 223.849467 
L 449.64635 233.335095 
L 453.623852 243.096288 
L 457.601354 253.126623 
L 461.578857 263.419061 
L 465.556359 273.966021 
L 469.533861 284.759452 
L 473.511364 295.790909 
" style="fill:none;stroke:#008000;stroke-linecap:square;stroke-width:2;"/>
   </g>
   <g id="patch_3">
    <path d="M 60.05 308.6 
L 60.05 26.8 
" style="fill:none;stroke:#000000;stroke-linecap:square;stroke-linejoin:miter;stroke-width:0.8;"/>
   </g>
   <g id="patch_4">
    <path d="M 493.2 308.6 
L 493.2 26.8 
" style="fill:none;stroke:#000000;stroke-linecap:square;stroke-linejoin:miter;stroke-width:0.8;"/>
   </g>
   <g id="patch_5">
    <path d="M 60.05 308.6 
L 493.2 308.6 
" style="fill:none;stroke:#000000;stroke-linecap:square;stroke-linejoin:miter;stroke-width:0.8;"/>
   </g>
   <g id="patch_6">
    <path d="M 60.05 26.8 
L 493.2 26.8 
" style="fill:none;stroke:#000000;stroke-linecap:square;stroke-linejoin:miter;stroke-width:0.8;"/>
   </g>
   <g id="text_12">
    <!-- Bandwidth limited amplifier - zoomed -->
    <g transform="translate(163.75375 20.8)scale(0.12 -0.12)">
     <defs>
      <path d="M 4.203125 54.6875 
L 13.1875 54.6875 
L 24.421875 12.015625 
L 35.59375 54.6875 
L 46.1875 54.6875 
L 57.421875 12.015625 
L 68.609375 54.6875 
L 77.59375 54.6875 
L 63.28125 0 
L 52.6875 0 
L 40.921875 44.828125 
L 29.109375 0 
L 18.5 0 
z
" id="DejaVuSans-119"/>
      <path d="M 54.890625 33.015625 
L 54.890625 0 
L 45.90625 0 
L 45.90625 32.71875 
Q 45.90625 40.484375 42.875 44.328125 
Q 39.84375 48.1875 33.796875 48.1875 
Q 26.515625 48.1875 22.3125 43.546875 
Q 18.109375 38.921875 18.109375 30.90625 
L 18.109375 0 
L 9.078125 0 
L 9.078125 75.984375 
L 18.109375 75.984375 
L 18.109375 46.1875 
Q 21.34375 51.125 25.703125 53.5625 
Q 30.078125 56 35.796875 56 
Q 45.21875 56 50.046875 50.171875 
Q 54.890625 44.34375 54.890625 33.015625 
z
" id="DejaVuSans-104"/>
      <path d="M 9.421875 75.984375 
L 18.40625 75.984375 
L 18.40625 0 
L 9.421875 0 
z
" id="DejaVuSans-108"/>
      <path d="M 18.109375 8.203125 
L 18.109375 -20.796875 
L 9.078125 -20.796875 
L 9.078125 54.6875 
L 18.109375 54.6875 
L 18.109375 46.390625 
Q 20.953125 51.265625 25.265625 53.625 
Q 29.59375 56 35.59375 56 
Q 45.5625 56 51.78125 48.09375 
Q 58.015625 40.1875 58.015625 27.296875 
Q 58.015625 14.40625 51.78125 6.484375 
Q 45.5625 -1.421875 35.59375 -1.421875 
Q 29.59375 -1.421875 25.265625 0.953125 
Q 20.953125 3.328125 18.109375 8.203125 
z
M 48.6875 27.296875 
Q 48.6875 37.203125 44.609375 42.84375 
Q 40.53125 48.484375 33.40625 48.484375 
Q 26.265625 48.484375 22.1875 42.84375 
Q 18.109375 37.203125 18.109375 27.296875 
Q 18.109375 17.390625 22.1875 11.75 
Q 26.265625 6.109375 33.40625 6.109375 
Q 40.53125 6.109375 44.609375 11.75 
Q 48.6875 17.390625 48.6875 27.296875 
z
" id="DejaVuSans-112"/>
      <path d="M 4.890625 31.390625 
L 31.203125 31.390625 
L 31.203125 23.390625 
L 4.890625 23.390625 
z
" id="DejaVuSans-45"/>
      <path d="M 30.609375 48.390625 
Q 23.390625 48.390625 19.1875 42.75 
Q 14.984375 37.109375 14.984375 27.296875 
Q 14.984375 17.484375 19.15625 11.84375 
Q 23.34375 6.203125 30.609375 6.203125 
Q 37.796875 6.203125 41.984375 11.859375 
Q 46.1875 17.53125 46.1875 27.296875 
Q 46.1875 37.015625 41.984375 42.703125 
Q 37.796875 48.390625 30.609375 48.390625 
z
M 30.609375 56 
Q 42.328125 56 49.015625 48.375 
Q 55.71875 40.765625 55.71875 27.296875 
Q 55.71875 13.875 49.015625 6.21875 
Q 42.328125 -1.421875 30.609375 -1.421875 
Q 18.84375 -1.421875 12.171875 6.21875 
Q 5.515625 13.875 5.515625 27.296875 
Q 5.515625 40.765625 12.171875 48.375 
Q 18.84375 56 30.609375 56 
z
" id="DejaVuSans-111"/>
     </defs>
     <use xlink:href="#DejaVuSans-66"/>
     <use x="68.603516" xlink:href="#DejaVuSans-97"/>
     <use x="129.882812" xlink:href="#DejaVuSans-110"/>
     <use x="193.261719" xlink:href="#DejaVuSans-100"/>
     <use x="256.738281" xlink:href="#DejaVuSans-119"/>
     <use x="338.525391" xlink:href="#DejaVuSans-105"/>
     <use x="366.308594" xlink:href="#DejaVuSans-100"/>
     <use x="429.785156" xlink:href="#DejaVuSans-116"/>
     <use x="468.994141" xlink:href="#DejaVuSans-104"/>
     <use x="532.373047" xlink:href="#DejaVuSans-32"/>
     <use x="564.160156" xlink:href="#DejaVuSans-108"/>
     <use x="591.943359" xlink:href="#DejaVuSans-105"/>
     <use x="619.726562" xlink:href="#DejaVuSans-109"/>
     <use x="717.138672" xlink:href="#DejaVuSans-105"/>
     <use x="744.921875" xlink:href="#DejaVuSans-116"/>
     <use x="784.130859" xlink:href="#DejaVuSans-101"/>
     <use x="845.654297" xlink:href="#DejaVuSans-100"/>
     <use x="909.130859" xlink:href="#DejaVuSans-32"/>
     <use x="940.917969" xlink:href="#DejaVuSans-97"/>
     <use x="1002.197266" xlink:href="#DejaVuSans-109"/>
     <use x="1099.609375" xlink:href="#DejaVuSans-112"/>
     <use x="1163.085938" xlink:href="#DejaVuSans-108"/>
     <use x="1190.869141" xlink:href="#DejaVuSans-105"/>
     <use x="1218.652344" xlink:href="#DejaVuSans-102"/>
     <use x="1253.857422" xlink:href="#DejaVuSans-105"/>
     <use x="1281.640625" xlink:href="#DejaVuSans-101"/>
     <use x="1343.164062" xlink:href="#DejaVuSans-114"/>
     <use x="1384.277344" xlink:href="#DejaVuSans-32"/>
     <use x="1416.064453" xlink:href="#DejaVuSans-45"/>
     <use x="1452.148438" xlink:href="#DejaVuSans-32"/>
     <use x="1483.935547" xlink:href="#DejaVuSans-122"/>
     <use x="1536.425781" xlink:href="#DejaVuSans-111"/>
     <use x="1597.607422" xlink:href="#DejaVuSans-111"/>
     <use x="1658.789062" xlink:href="#DejaVuSans-109"/>
     <use x="1756.201172" xlink:href="#DejaVuSans-101"/>
     <use x="1817.724609" xlink:href="#DejaVuSans-100"/>
    </g>
   </g>
   <g id="legend_1">
    <g id="patch_7">
     <path d="M 67.05 303.6 
L 208.359375 303.6 
Q 210.359375 303.6 210.359375 301.6 
L 210.359375 185.4625 
Q 210.359375 183.4625 208.359375 183.4625 
L 67.05 183.4625 
Q 65.05 183.4625 65.05 185.4625 
L 65.05 301.6 
Q 65.05 303.6 67.05 303.6 
z
" style="fill:#ffffff;opacity:0.8;stroke:#cccccc;stroke-linejoin:miter;"/>
    </g>
    <g id="line2d_57">
     <path d="M 67.05 191.080625 
L 77.05 191.080625 
" style="fill:none;stroke:#ff0000;stroke-linecap:square;stroke-width:2;"/>
    </g>
    <g id="line2d_58"/>
    <g id="text_13">
     <!-- gain, Lphz =  8.5e-09 -->
     <g transform="translate(79.05 194.580625)scale(0.12 -0.12)">
      <defs>
       <path d="M 11.71875 12.40625 
L 22.015625 12.40625 
L 22.015625 4 
L 14.015625 -11.625 
L 7.71875 -11.625 
L 11.71875 4 
z
" id="DejaVuSans-44"/>
       <path d="M 9.8125 72.90625 
L 19.671875 72.90625 
L 19.671875 8.296875 
L 55.171875 8.296875 
L 55.171875 0 
L 9.8125 0 
z
" id="DejaVuSans-76"/>
       <path d="M 10.59375 45.40625 
L 73.1875 45.40625 
L 73.1875 37.203125 
L 10.59375 37.203125 
z
M 10.59375 25.484375 
L 73.1875 25.484375 
L 73.1875 17.1875 
L 10.59375 17.1875 
z
" id="DejaVuSans-61"/>
       <path d="M 10.6875 12.40625 
L 21 12.40625 
L 21 0 
L 10.6875 0 
z
" id="DejaVuSans-46"/>
       <path d="M 10.796875 72.90625 
L 49.515625 72.90625 
L 49.515625 64.59375 
L 19.828125 64.59375 
L 19.828125 46.734375 
Q 21.96875 47.46875 24.109375 47.828125 
Q 26.265625 48.1875 28.421875 48.1875 
Q 40.625 48.1875 47.75 41.5 
Q 54.890625 34.8125 54.890625 23.390625 
Q 54.890625 11.625 47.5625 5.09375 
Q 40.234375 -1.421875 26.90625 -1.421875 
Q 22.3125 -1.421875 17.546875 -0.640625 
Q 12.796875 0.140625 7.71875 1.703125 
L 7.71875 11.625 
Q 12.109375 9.234375 16.796875 8.0625 
Q 21.484375 6.890625 26.703125 6.890625 
Q 35.15625 6.890625 40.078125 11.328125 
Q 45.015625 15.765625 45.015625 23.390625 
Q 45.015625 31 40.078125 35.4375 
Q 35.15625 39.890625 26.703125 39.890625 
Q 22.75 39.890625 18.8125 39.015625 
Q 14.890625 38.140625 10.796875 36.28125 
z
" id="DejaVuSans-53"/>
      </defs>
      <use xlink:href="#DejaVuSans-103"/>
      <use x="63.476562" xlink:href="#DejaVuSans-97"/>
      <use x="124.755859" xlink:href="#DejaVuSans-105"/>
      <use x="152.539062" xlink:href="#DejaVuSans-110"/>
      <use x="215.917969" xlink:href="#DejaVuSans-44"/>
      <use x="247.705078" xlink:href="#DejaVuSans-32"/>
      <use x="279.492188" xlink:href="#DejaVuSans-76"/>
      <use x="335.205078" xlink:href="#DejaVuSans-112"/>
      <use x="398.681641" xlink:href="#DejaVuSans-104"/>
      <use x="462.060547" xlink:href="#DejaVuSans-122"/>
      <use x="514.550781" xlink:href="#DejaVuSans-32"/>
      <use x="546.337891" xlink:href="#DejaVuSans-61"/>
      <use x="630.126953" xlink:href="#DejaVuSans-32"/>
      <use x="661.914062" xlink:href="#DejaVuSans-32"/>
      <use x="693.701172" xlink:href="#DejaVuSans-56"/>
      <use x="757.324219" xlink:href="#DejaVuSans-46"/>
      <use x="789.111328" xlink:href="#DejaVuSans-53"/>
      <use x="852.734375" xlink:href="#DejaVuSans-101"/>
      <use x="914.257812" xlink:href="#DejaVuSans-45"/>
      <use x="950.341797" xlink:href="#DejaVuSans-48"/>
      <use x="1013.964844" xlink:href="#DejaVuSans-57"/>
     </g>
    </g>
    <g id="line2d_59">
     <path d="M 67.05 202.694375 
L 77.05 202.694375 
" style="fill:none;stroke:#0000ff;stroke-linecap:square;stroke-width:2;"/>
    </g>
    <g id="line2d_60"/>
    <g id="text_14">
     <!-- gain, Lphz =  1.3e-08 -->
     <g transform="translate(79.05 206.194375)scale(0.12 -0.12)">
      <defs>
       <path d="M 40.578125 39.3125 
Q 47.65625 37.796875 51.625 33 
Q 55.609375 28.21875 55.609375 21.1875 
Q 55.609375 10.40625 48.1875 4.484375 
Q 40.765625 -1.421875 27.09375 -1.421875 
Q 22.515625 -1.421875 17.65625 -0.515625 
Q 12.796875 0.390625 7.625 2.203125 
L 7.625 11.71875 
Q 11.71875 9.328125 16.59375 8.109375 
Q 21.484375 6.890625 26.8125 6.890625 
Q 36.078125 6.890625 40.9375 10.546875 
Q 45.796875 14.203125 45.796875 21.1875 
Q 45.796875 27.640625 41.28125 31.265625 
Q 36.765625 34.90625 28.71875 34.90625 
L 20.21875 34.90625 
L 20.21875 43.015625 
L 29.109375 43.015625 
Q 36.375 43.015625 40.234375 45.921875 
Q 44.09375 48.828125 44.09375 54.296875 
Q 44.09375 59.90625 40.109375 62.90625 
Q 36.140625 65.921875 28.71875 65.921875 
Q 24.65625 65.921875 20.015625 65.03125 
Q 15.375 64.15625 9.8125 62.3125 
L 9.8125 71.09375 
Q 15.4375 72.65625 20.34375 73.4375 
Q 25.25 74.21875 29.59375 74.21875 
Q 40.828125 74.21875 47.359375 69.109375 
Q 53.90625 64.015625 53.90625 55.328125 
Q 53.90625 49.265625 50.4375 45.09375 
Q 46.96875 40.921875 40.578125 39.3125 
z
" id="DejaVuSans-51"/>
      </defs>
      <use xlink:href="#DejaVuSans-103"/>
      <use x="63.476562" xlink:href="#DejaVuSans-97"/>
      <use x="124.755859" xlink:href="#DejaVuSans-105"/>
      <use x="152.539062" xlink:href="#DejaVuSans-110"/>
      <use x="215.917969" xlink:href="#DejaVuSans-44"/>
      <use x="247.705078" xlink:href="#DejaVuSans-32"/>
      <use x="279.492188" xlink:href="#DejaVuSans-76"/>
      <use x="335.205078" xlink:href="#DejaVuSans-112"/>
      <use x="398.681641" xlink:href="#DejaVuSans-104"/>
      <use x="462.060547" xlink:href="#DejaVuSans-122"/>
      <use x="514.550781" xlink:href="#DejaVuSans-32"/>
      <use x="546.337891" xlink:href="#DejaVuSans-61"/>
      <use x="630.126953" xlink:href="#DejaVuSans-32"/>
      <use x="661.914062" xlink:href="#DejaVuSans-32"/>
      <use x="693.701172" xlink:href="#DejaVuSans-49"/>
      <use x="757.324219" xlink:href="#DejaVuSans-46"/>
      <use x="789.111328" xlink:href="#DejaVuSans-51"/>
      <use x="852.734375" xlink:href="#DejaVuSans-101"/>
      <use x="914.257812" xlink:href="#DejaVuSans-45"/>
      <use x="950.341797" xlink:href="#DejaVuSans-48"/>
      <use x="1013.964844" xlink:href="#DejaVuSans-56"/>
     </g>
    </g>
    <g id="line2d_61">
     <path d="M 67.05 214.308125 
L 77.05 214.308125 
" style="fill:none;stroke:#008000;stroke-linecap:square;stroke-width:2;"/>
    </g>
    <g id="line2d_62"/>
    <g id="text_15">
     <!-- gain, Lphz =  2.1e-08 -->
     <g transform="translate(79.05 217.808125)scale(0.12 -0.12)">
      <use xlink:href="#DejaVuSans-103"/>
      <use x="63.476562" xlink:href="#DejaVuSans-97"/>
      <use x="124.755859" xlink:href="#DejaVuSans-105"/>
      <use x="152.539062" xlink:href="#DejaVuSans-110"/>
      <use x="215.917969" xlink:href="#DejaVuSans-44"/>
      <use x="247.705078" xlink:href="#DejaVuSans-32"/>
      <use x="279.492188" xlink:href="#DejaVuSans-76"/>
      <use x="335.205078" xlink:href="#DejaVuSans-112"/>
      <use x="398.681641" xlink:href="#DejaVuSans-104"/>
      <use x="462.060547" xlink:href="#DejaVuSans-122"/>
      <use x="514.550781" xlink:href="#DejaVuSans-32"/>
      <use x="546.337891" xlink:href="#DejaVuSans-61"/>
      <use x="630.126953" xlink:href="#DejaVuSans-32"/>
      <use x="661.914062" xlink:href="#DejaVuSans-32"/>
      <use x="693.701172" xlink:href="#DejaVuSans-50"/>
      <use x="757.324219" xlink:href="#DejaVuSans-46"/>
      <use x="789.111328" xlink:href="#DejaVuSans-49"/>
      <use x="852.734375" xlink:href="#DejaVuSans-101"/>
      <use x="914.257812" xlink:href="#DejaVuSans-45"/>
      <use x="950.341797" xlink:href="#DejaVuSans-48"/>
      <use x="1013.964844" xlink:href="#DejaVuSans-56"/>
     </g>
    </g>
    <g id="line2d_63">
     <path d="M 67.05 225.921875 
L 77.05 225.921875 
" style="fill:none;stroke:#00bfbf;stroke-linecap:square;stroke-width:2;"/>
    </g>
    <g id="line2d_64"/>
    <g id="text_16">
     <!-- gain, Lphz =  3.4e-08 -->
     <g transform="translate(79.05 229.421875)scale(0.12 -0.12)">
      <defs>
       <path d="M 37.796875 64.3125 
L 12.890625 25.390625 
L 37.796875 25.390625 
z
M 35.203125 72.90625 
L 47.609375 72.90625 
L 47.609375 25.390625 
L 58.015625 25.390625 
L 58.015625 17.1875 
L 47.609375 17.1875 
L 47.609375 0 
L 37.796875 0 
L 37.796875 17.1875 
L 4.890625 17.1875 
L 4.890625 26.703125 
z
" id="DejaVuSans-52"/>
      </defs>
      <use xlink:href="#DejaVuSans-103"/>
      <use x="63.476562" xlink:href="#DejaVuSans-97"/>
      <use x="124.755859" xlink:href="#DejaVuSans-105"/>
      <use x="152.539062" xlink:href="#DejaVuSans-110"/>
      <use x="215.917969" xlink:href="#DejaVuSans-44"/>
      <use x="247.705078" xlink:href="#DejaVuSans-32"/>
      <use x="279.492188" xlink:href="#DejaVuSans-76"/>
      <use x="335.205078" xlink:href="#DejaVuSans-112"/>
      <use x="398.681641" xlink:href="#DejaVuSans-104"/>
      <use x="462.060547" xlink:href="#DejaVuSans-122"/>
      <use x="514.550781" xlink:href="#DejaVuSans-32"/>
      <use x="546.337891" xlink:href="#DejaVuSans-61"/>
      <use x="630.126953" xlink:href="#DejaVuSans-32"/>
      <use x="661.914062" xlink:href="#DejaVuSans-32"/>
      <use x="693.701172" xlink:href="#DejaVuSans-51"/>
      <use x="757.324219" xlink:href="#DejaVuSans-46"/>
      <use x="789.111328" xlink:href="#DejaVuSans-52"/>
      <use x="852.734375" xlink:href="#DejaVuSans-101"/>
      <use x="914.257812" xlink:href="#DejaVuSans-45"/>
      <use x="950.341797" xlink:href="#DejaVuSans-48"/>
      <use x="1013.964844" xlink:href="#DejaVuSans-56"/>
     </g>
    </g>
    <g id="line2d_65">
     <path d="M 67.05 237.535625 
L 77.05 237.535625 
" style="fill:none;stroke:#bf00bf;stroke-linecap:square;stroke-width:2;"/>
    </g>
    <g id="line2d_66"/>
    <g id="text_17">
     <!-- gain, Lphz =  5.3e-08 -->
     <g transform="translate(79.05 241.035625)scale(0.12 -0.12)">
      <use xlink:href="#DejaVuSans-103"/>
      <use x="63.476562" xlink:href="#DejaVuSans-97"/>
      <use x="124.755859" xlink:href="#DejaVuSans-105"/>
      <use x="152.539062" xlink:href="#DejaVuSans-110"/>
      <use x="215.917969" xlink:href="#DejaVuSans-44"/>
      <use x="247.705078" xlink:href="#DejaVuSans-32"/>
      <use x="279.492188" xlink:href="#DejaVuSans-76"/>
      <use x="335.205078" xlink:href="#DejaVuSans-112"/>
      <use x="398.681641" xlink:href="#DejaVuSans-104"/>
      <use x="462.060547" xlink:href="#DejaVuSans-122"/>
      <use x="514.550781" xlink:href="#DejaVuSans-32"/>
      <use x="546.337891" xlink:href="#DejaVuSans-61"/>
      <use x="630.126953" xlink:href="#DejaVuSans-32"/>
      <use x="661.914062" xlink:href="#DejaVuSans-32"/>
      <use x="693.701172" xlink:href="#DejaVuSans-53"/>
      <use x="757.324219" xlink:href="#DejaVuSans-46"/>
      <use x="789.111328" xlink:href="#DejaVuSans-51"/>
      <use x="852.734375" xlink:href="#DejaVuSans-101"/>
      <use x="914.257812" xlink:href="#DejaVuSans-45"/>
      <use x="950.341797" xlink:href="#DejaVuSans-48"/>
      <use x="1013.964844" xlink:href="#DejaVuSans-56"/>
     </g>
    </g>
    <g id="line2d_67">
     <path d="M 67.05 249.149375 
L 77.05 249.149375 
" style="fill:none;stroke:#bfbf00;stroke-linecap:square;stroke-width:2;"/>
    </g>
    <g id="line2d_68"/>
    <g id="text_18">
     <!-- gain, Lphz =  8.4e-08 -->
     <g transform="translate(79.05 252.649375)scale(0.12 -0.12)">
      <use xlink:href="#DejaVuSans-103"/>
      <use x="63.476562" xlink:href="#DejaVuSans-97"/>
      <use x="124.755859" xlink:href="#DejaVuSans-105"/>
      <use x="152.539062" xlink:href="#DejaVuSans-110"/>
      <use x="215.917969" xlink:href="#DejaVuSans-44"/>
      <use x="247.705078" xlink:href="#DejaVuSans-32"/>
      <use x="279.492188" xlink:href="#DejaVuSans-76"/>
      <use x="335.205078" xlink:href="#DejaVuSans-112"/>
      <use x="398.681641" xlink:href="#DejaVuSans-104"/>
      <use x="462.060547" xlink:href="#DejaVuSans-122"/>
      <use x="514.550781" xlink:href="#DejaVuSans-32"/>
      <use x="546.337891" xlink:href="#DejaVuSans-61"/>
      <use x="630.126953" xlink:href="#DejaVuSans-32"/>
      <use x="661.914062" xlink:href="#DejaVuSans-32"/>
      <use x="693.701172" xlink:href="#DejaVuSans-56"/>
      <use x="757.324219" xlink:href="#DejaVuSans-46"/>
      <use x="789.111328" xlink:href="#DejaVuSans-52"/>
      <use x="852.734375" xlink:href="#DejaVuSans-101"/>
      <use x="914.257812" xlink:href="#DejaVuSans-45"/>
      <use x="950.341797" xlink:href="#DejaVuSans-48"/>
      <use x="1013.964844" xlink:href="#DejaVuSans-56"/>
     </g>
    </g>
    <g id="line2d_69">
     <path d="M 67.05 260.763125 
L 77.05 260.763125 
" style="fill:none;stroke:#000000;stroke-linecap:square;stroke-width:2;"/>
    </g>
    <g id="line2d_70"/>
    <g id="text_19">
     <!-- gain, Lphz =  1.3e-07 -->
     <g transform="translate(79.05 264.263125)scale(0.12 -0.12)">
      <use xlink:href="#DejaVuSans-103"/>
      <use x="63.476562" xlink:href="#DejaVuSans-97"/>
      <use x="124.755859" xlink:href="#DejaVuSans-105"/>
      <use x="152.539062" xlink:href="#DejaVuSans-110"/>
      <use x="215.917969" xlink:href="#DejaVuSans-44"/>
      <use x="247.705078" xlink:href="#DejaVuSans-32"/>
      <use x="279.492188" xlink:href="#DejaVuSans-76"/>
      <use x="335.205078" xlink:href="#DejaVuSans-112"/>
      <use x="398.681641" xlink:href="#DejaVuSans-104"/>
      <use x="462.060547" xlink:href="#DejaVuSans-122"/>
      <use x="514.550781" xlink:href="#DejaVuSans-32"/>
      <use x="546.337891" xlink:href="#DejaVuSans-61"/>
      <use x="630.126953" xlink:href="#DejaVuSans-32"/>
      <use x="661.914062" xlink:href="#DejaVuSans-32"/>
      <use x="693.701172" xlink:href="#DejaVuSans-49"/>
      <use x="757.324219" xlink:href="#DejaVuSans-46"/>
      <use x="789.111328" xlink:href="#DejaVuSans-51"/>
      <use x="852.734375" xlink:href="#DejaVuSans-101"/>
      <use x="914.257812" xlink:href="#DejaVuSans-45"/>
      <use x="950.341797" xlink:href="#DejaVuSans-48"/>
      <use x="1013.964844" xlink:href="#DejaVuSans-55"/>
     </g>
    </g>
    <g id="line2d_71">
     <path d="M 67.05 272.376875 
L 77.05 272.376875 
" style="fill:none;stroke:#ff0000;stroke-linecap:square;stroke-width:2;"/>
    </g>
    <g id="line2d_72"/>
    <g id="text_20">
     <!-- gain, Lphz =  2.1e-07 -->
     <g transform="translate(79.05 275.876875)scale(0.12 -0.12)">
      <use xlink:href="#DejaVuSans-103"/>
      <use x="63.476562" xlink:href="#DejaVuSans-97"/>
      <use x="124.755859" xlink:href="#DejaVuSans-105"/>
      <use x="152.539062" xlink:href="#DejaVuSans-110"/>
      <use x="215.917969" xlink:href="#DejaVuSans-44"/>
      <use x="247.705078" xlink:href="#DejaVuSans-32"/>
      <use x="279.492188" xlink:href="#DejaVuSans-76"/>
      <use x="335.205078" xlink:href="#DejaVuSans-112"/>
      <use x="398.681641" xlink:href="#DejaVuSans-104"/>
      <use x="462.060547" xlink:href="#DejaVuSans-122"/>
      <use x="514.550781" xlink:href="#DejaVuSans-32"/>
      <use x="546.337891" xlink:href="#DejaVuSans-61"/>
      <use x="630.126953" xlink:href="#DejaVuSans-32"/>
      <use x="661.914062" xlink:href="#DejaVuSans-32"/>
      <use x="693.701172" xlink:href="#DejaVuSans-50"/>
      <use x="757.324219" xlink:href="#DejaVuSans-46"/>
      <use x="789.111328" xlink:href="#DejaVuSans-49"/>
      <use x="852.734375" xlink:href="#DejaVuSans-101"/>
      <use x="914.257812" xlink:href="#DejaVuSans-45"/>
      <use x="950.341797" xlink:href="#DejaVuSans-48"/>
      <use x="1013.964844" xlink:href="#DejaVuSans-55"/>
     </g>
    </g>
    <g id="line2d_73">
     <path d="M 67.05 283.990625 
L 77.05 283.990625 
" style="fill:none;stroke:#0000ff;stroke-linecap:square;stroke-width:2;"/>
    </g>
    <g id="line2d_74"/>
    <g id="text_21">
     <!-- gain, Lphz =  3.4e-07 -->
     <g transform="translate(79.05 287.490625)scale(0.12 -0.12)">
      <use xlink:href="#DejaVuSans-103"/>
      <use x="63.476562" xlink:href="#DejaVuSans-97"/>
      <use x="124.755859" xlink:href="#DejaVuSans-105"/>
      <use x="152.539062" xlink:href="#DejaVuSans-110"/>
      <use x="215.917969" xlink:href="#DejaVuSans-44"/>
      <use x="247.705078" xlink:href="#DejaVuSans-32"/>
      <use x="279.492188" xlink:href="#DejaVuSans-76"/>
      <use x="335.205078" xlink:href="#DejaVuSans-112"/>
      <use x="398.681641" xlink:href="#DejaVuSans-104"/>
      <use x="462.060547" xlink:href="#DejaVuSans-122"/>
      <use x="514.550781" xlink:href="#DejaVuSans-32"/>
      <use x="546.337891" xlink:href="#DejaVuSans-61"/>
      <use x="630.126953" xlink:href="#DejaVuSans-32"/>
      <use x="661.914062" xlink:href="#DejaVuSans-32"/>
      <use x="693.701172" xlink:href="#DejaVuSans-51"/>
      <use x="757.324219" xlink:href="#DejaVuSans-46"/>
      <use x="789.111328" xlink:href="#DejaVuSans-52"/>
      <use x="852.734375" xlink:href="#DejaVuSans-101"/>
      <use x="914.257812" xlink:href="#DejaVuSans-45"/>
      <use x="950.341797" xlink:href="#DejaVuSans-48"/>
      <use x="1013.964844" xlink:href="#DejaVuSans-55"/>
     </g>
    </g>
    <g id="line2d_75">
     <path d="M 67.05 295.604375 
L 77.05 295.604375 
" style="fill:none;stroke:#008000;stroke-linecap:square;stroke-width:2;"/>
    </g>
    <g id="line2d_76"/>
    <g id="text_22">
     <!-- gain, Lphz =  5.3e-07 -->
     <g transform="translate(79.05 299.104375)scale(0.12 -0.12)">
      <use xlink:href="#DejaVuSans-103"/>
      <use x="63.476562" xlink:href="#DejaVuSans-97"/>
      <use x="124.755859" xlink:href="#DejaVuSans-105"/>
      <use x="152.539062" xlink:href="#DejaVuSans-110"/>
      <use x="215.917969" xlink:href="#DejaVuSans-44"/>
      <use x="247.705078" xlink:href="#DejaVuSans-32"/>
      <use x="279.492188" xlink:href="#DejaVuSans-76"/>
      <use x="335.205078" xlink:href="#DejaVuSans-112"/>
      <use x="398.681641" xlink:href="#DejaVuSans-104"/>
      <use x="462.060547" xlink:href="#DejaVuSans-122"/>
      <use x="514.550781" xlink:href="#DejaVuSans-32"/>
      <use x="546.337891" xlink:href="#DejaVuSans-61"/>
      <use x="630.126953" xlink:href="#DejaVuSans-32"/>
      <use x="661.914062" xlink:href="#DejaVuSans-32"/>
      <use x="693.701172" xlink:href="#DejaVuSans-53"/>
      <use x="757.324219" xlink:href="#DejaVuSans-46"/>
      <use x="789.111328" xlink:href="#DejaVuSans-51"/>
      <use x="852.734375" xlink:href="#DejaVuSans-101"/>
      <use x="914.257812" xlink:href="#DejaVuSans-45"/>
      <use x="950.341797" xlink:href="#DejaVuSans-48"/>
      <use x="1013.964844" xlink:href="#DejaVuSans-55"/>
     </g>
    </g>
   </g>
  </g>
 </g>
 <defs>
  <clipPath id="p4cc3295648">
   <rect height="281.8" width="433.15" x="60.05" y="26.8"/>
  </clipPath>
 </defs>
</svg>
