<?xml version="1.0" encoding="utf-8" standalone="no"?>
<!DOCTYPE svg PUBLIC "-//W3C//DTD SVG 1.1//EN"
  "http://www.w3.org/Graphics/SVG/1.1/DTD/svg11.dtd">
<!-- Created with matplotlib (https://matplotlib.org/) -->
<svg height="360pt" version="1.1" viewBox="0 0 504 360" width="504pt" xmlns="http://www.w3.org/2000/svg" xmlns:xlink="http://www.w3.org/1999/xlink">
 <metadata>
  <rdf:RDF xmlns:cc="http://creativecommons.org/ns#" xmlns:dc="http://purl.org/dc/elements/1.1/" xmlns:rdf="http://www.w3.org/1999/02/22-rdf-syntax-ns#">
   <cc:Work>
    <dc:type rdf:resource="http://purl.org/dc/dcmitype/StillImage"/>
    <dc:date>2022-01-10T14:36:22.497886</dc:date>
    <dc:format>image/svg+xml</dc:format>
    <dc:creator>
     <cc:Agent>
      <dc:title>Matplotlib v3.3.4, https://matplotlib.org/</dc:title>
     </cc:Agent>
    </dc:creator>
   </cc:Work>
  </rdf:RDF>
 </metadata>
 <defs>
  <style type="text/css">*{stroke-linecap:butt;stroke-linejoin:round;}</style>
 </defs>
 <g id="figure_1">
  <g id="patch_1">
   <path d="M 0 360 
L 504 360 
L 504 0 
L 0 0 
z
" style="fill:#ffffff;"/>
  </g>
  <g id="axes_1">
   <g id="patch_2">
    <path d="M 58.175 314.3875 
L 493.2 314.3875 
L 493.2 28.8 
L 58.175 28.8 
z
" style="fill:#ffffff;"/>
   </g>
   <g id="matplotlib.axis_1">
    <g id="xtick_1">
     <g id="line2d_1">
      <path clip-path="url(#p0f38d62dc5)" d="M 77.948802 314.3875 
L 77.948802 28.8 
" style="fill:none;stroke:#808080;stroke-linecap:square;stroke-width:0.8;"/>
     </g>
     <g id="line2d_2">
      <defs>
       <path d="M 0 0 
L 0 3.5 
" id="m6413bc99d7" style="stroke:#000000;stroke-width:0.8;"/>
      </defs>
      <g>
       <use style="stroke:#000000;stroke-width:0.8;" x="77.948802" xlink:href="#m6413bc99d7" y="314.3875"/>
      </g>
     </g>
     <g id="text_1">
      <!-- 0.000 -->
      <g transform="translate(60.771927 330.505625)scale(0.12 -0.12)">
       <defs>
        <path d="M 31.78125 66.40625 
Q 24.171875 66.40625 20.328125 58.90625 
Q 16.5 51.421875 16.5 36.375 
Q 16.5 21.390625 20.328125 13.890625 
Q 24.171875 6.390625 31.78125 6.390625 
Q 39.453125 6.390625 43.28125 13.890625 
Q 47.125 21.390625 47.125 36.375 
Q 47.125 51.421875 43.28125 58.90625 
Q 39.453125 66.40625 31.78125 66.40625 
z
M 31.78125 74.21875 
Q 44.046875 74.21875 50.515625 64.515625 
Q 56.984375 54.828125 56.984375 36.375 
Q 56.984375 17.96875 50.515625 8.265625 
Q 44.046875 -1.421875 31.78125 -1.421875 
Q 19.53125 -1.421875 13.0625 8.265625 
Q 6.59375 17.96875 6.59375 36.375 
Q 6.59375 54.828125 13.0625 64.515625 
Q 19.53125 74.21875 31.78125 74.21875 
z
" id="DejaVuSans-48"/>
        <path d="M 10.6875 12.40625 
L 21 12.40625 
L 21 0 
L 10.6875 0 
z
" id="DejaVuSans-46"/>
       </defs>
       <use xlink:href="#DejaVuSans-48"/>
       <use x="63.623047" xlink:href="#DejaVuSans-46"/>
       <use x="95.410156" xlink:href="#DejaVuSans-48"/>
       <use x="159.033203" xlink:href="#DejaVuSans-48"/>
       <use x="222.65625" xlink:href="#DejaVuSans-48"/>
      </g>
     </g>
    </g>
    <g id="xtick_2">
     <g id="line2d_3">
      <path clip-path="url(#p0f38d62dc5)" d="M 139.742135 314.3875 
L 139.742135 28.8 
" style="fill:none;stroke:#808080;stroke-linecap:square;stroke-width:0.8;"/>
     </g>
     <g id="line2d_4">
      <g>
       <use style="stroke:#000000;stroke-width:0.8;" x="139.742135" xlink:href="#m6413bc99d7" y="314.3875"/>
      </g>
     </g>
     <g id="text_2">
      <!-- 0.001 -->
      <g transform="translate(122.56526 330.505625)scale(0.12 -0.12)">
       <defs>
        <path d="M 12.40625 8.296875 
L 28.515625 8.296875 
L 28.515625 63.921875 
L 10.984375 60.40625 
L 10.984375 69.390625 
L 28.421875 72.90625 
L 38.28125 72.90625 
L 38.28125 8.296875 
L 54.390625 8.296875 
L 54.390625 0 
L 12.40625 0 
z
" id="DejaVuSans-49"/>
       </defs>
       <use xlink:href="#DejaVuSans-48"/>
       <use x="63.623047" xlink:href="#DejaVuSans-46"/>
       <use x="95.410156" xlink:href="#DejaVuSans-48"/>
       <use x="159.033203" xlink:href="#DejaVuSans-48"/>
       <use x="222.65625" xlink:href="#DejaVuSans-49"/>
      </g>
     </g>
    </g>
    <g id="xtick_3">
     <g id="line2d_5">
      <path clip-path="url(#p0f38d62dc5)" d="M 201.535469 314.3875 
L 201.535469 28.8 
" style="fill:none;stroke:#808080;stroke-linecap:square;stroke-width:0.8;"/>
     </g>
     <g id="line2d_6">
      <g>
       <use style="stroke:#000000;stroke-width:0.8;" x="201.535469" xlink:href="#m6413bc99d7" y="314.3875"/>
      </g>
     </g>
     <g id="text_3">
      <!-- 0.002 -->
      <g transform="translate(184.358594 330.505625)scale(0.12 -0.12)">
       <defs>
        <path d="M 19.1875 8.296875 
L 53.609375 8.296875 
L 53.609375 0 
L 7.328125 0 
L 7.328125 8.296875 
Q 12.9375 14.109375 22.625 23.890625 
Q 32.328125 33.6875 34.8125 36.53125 
Q 39.546875 41.84375 41.421875 45.53125 
Q 43.3125 49.21875 43.3125 52.78125 
Q 43.3125 58.59375 39.234375 62.25 
Q 35.15625 65.921875 28.609375 65.921875 
Q 23.96875 65.921875 18.8125 64.3125 
Q 13.671875 62.703125 7.8125 59.421875 
L 7.8125 69.390625 
Q 13.765625 71.78125 18.9375 73 
Q 24.125 74.21875 28.421875 74.21875 
Q 39.75 74.21875 46.484375 68.546875 
Q 53.21875 62.890625 53.21875 53.421875 
Q 53.21875 48.921875 51.53125 44.890625 
Q 49.859375 40.875 45.40625 35.40625 
Q 44.1875 33.984375 37.640625 27.21875 
Q 31.109375 20.453125 19.1875 8.296875 
z
" id="DejaVuSans-50"/>
       </defs>
       <use xlink:href="#DejaVuSans-48"/>
       <use x="63.623047" xlink:href="#DejaVuSans-46"/>
       <use x="95.410156" xlink:href="#DejaVuSans-48"/>
       <use x="159.033203" xlink:href="#DejaVuSans-48"/>
       <use x="222.65625" xlink:href="#DejaVuSans-50"/>
      </g>
     </g>
    </g>
    <g id="xtick_4">
     <g id="line2d_7">
      <path clip-path="url(#p0f38d62dc5)" d="M 263.328802 314.3875 
L 263.328802 28.8 
" style="fill:none;stroke:#808080;stroke-linecap:square;stroke-width:0.8;"/>
     </g>
     <g id="line2d_8">
      <g>
       <use style="stroke:#000000;stroke-width:0.8;" x="263.328802" xlink:href="#m6413bc99d7" y="314.3875"/>
      </g>
     </g>
     <g id="text_4">
      <!-- 0.003 -->
      <g transform="translate(246.151927 330.505625)scale(0.12 -0.12)">
       <defs>
        <path d="M 40.578125 39.3125 
Q 47.65625 37.796875 51.625 33 
Q 55.609375 28.21875 55.609375 21.1875 
Q 55.609375 10.40625 48.1875 4.484375 
Q 40.765625 -1.421875 27.09375 -1.421875 
Q 22.515625 -1.421875 17.65625 -0.515625 
Q 12.796875 0.390625 7.625 2.203125 
L 7.625 11.71875 
Q 11.71875 9.328125 16.59375 8.109375 
Q 21.484375 6.890625 26.8125 6.890625 
Q 36.078125 6.890625 40.9375 10.546875 
Q 45.796875 14.203125 45.796875 21.1875 
Q 45.796875 27.640625 41.28125 31.265625 
Q 36.765625 34.90625 28.71875 34.90625 
L 20.21875 34.90625 
L 20.21875 43.015625 
L 29.109375 43.015625 
Q 36.375 43.015625 40.234375 45.921875 
Q 44.09375 48.828125 44.09375 54.296875 
Q 44.09375 59.90625 40.109375 62.90625 
Q 36.140625 65.921875 28.71875 65.921875 
Q 24.65625 65.921875 20.015625 65.03125 
Q 15.375 64.15625 9.8125 62.3125 
L 9.8125 71.09375 
Q 15.4375 72.65625 20.34375 73.4375 
Q 25.25 74.21875 29.59375 74.21875 
Q 40.828125 74.21875 47.359375 69.109375 
Q 53.90625 64.015625 53.90625 55.328125 
Q 53.90625 49.265625 50.4375 45.09375 
Q 46.96875 40.921875 40.578125 39.3125 
z
" id="DejaVuSans-51"/>
       </defs>
       <use xlink:href="#DejaVuSans-48"/>
       <use x="63.623047" xlink:href="#DejaVuSans-46"/>
       <use x="95.410156" xlink:href="#DejaVuSans-48"/>
       <use x="159.033203" xlink:href="#DejaVuSans-48"/>
       <use x="222.65625" xlink:href="#DejaVuSans-51"/>
      </g>
     </g>
    </g>
    <g id="xtick_5">
     <g id="line2d_9">
      <path clip-path="url(#p0f38d62dc5)" d="M 325.122136 314.3875 
L 325.122136 28.8 
" style="fill:none;stroke:#808080;stroke-linecap:square;stroke-width:0.8;"/>
     </g>
     <g id="line2d_10">
      <g>
       <use style="stroke:#000000;stroke-width:0.8;" x="325.122136" xlink:href="#m6413bc99d7" y="314.3875"/>
      </g>
     </g>
     <g id="text_5">
      <!-- 0.004 -->
      <g transform="translate(307.945261 330.505625)scale(0.12 -0.12)">
       <defs>
        <path d="M 37.796875 64.3125 
L 12.890625 25.390625 
L 37.796875 25.390625 
z
M 35.203125 72.90625 
L 47.609375 72.90625 
L 47.609375 25.390625 
L 58.015625 25.390625 
L 58.015625 17.1875 
L 47.609375 17.1875 
L 47.609375 0 
L 37.796875 0 
L 37.796875 17.1875 
L 4.890625 17.1875 
L 4.890625 26.703125 
z
" id="DejaVuSans-52"/>
       </defs>
       <use xlink:href="#DejaVuSans-48"/>
       <use x="63.623047" xlink:href="#DejaVuSans-46"/>
       <use x="95.410156" xlink:href="#DejaVuSans-48"/>
       <use x="159.033203" xlink:href="#DejaVuSans-48"/>
       <use x="222.65625" xlink:href="#DejaVuSans-52"/>
      </g>
     </g>
    </g>
    <g id="xtick_6">
     <g id="line2d_11">
      <path clip-path="url(#p0f38d62dc5)" d="M 386.915469 314.3875 
L 386.915469 28.8 
" style="fill:none;stroke:#808080;stroke-linecap:square;stroke-width:0.8;"/>
     </g>
     <g id="line2d_12">
      <g>
       <use style="stroke:#000000;stroke-width:0.8;" x="386.915469" xlink:href="#m6413bc99d7" y="314.3875"/>
      </g>
     </g>
     <g id="text_6">
      <!-- 0.005 -->
      <g transform="translate(369.738594 330.505625)scale(0.12 -0.12)">
       <defs>
        <path d="M 10.796875 72.90625 
L 49.515625 72.90625 
L 49.515625 64.59375 
L 19.828125 64.59375 
L 19.828125 46.734375 
Q 21.96875 47.46875 24.109375 47.828125 
Q 26.265625 48.1875 28.421875 48.1875 
Q 40.625 48.1875 47.75 41.5 
Q 54.890625 34.8125 54.890625 23.390625 
Q 54.890625 11.625 47.5625 5.09375 
Q 40.234375 -1.421875 26.90625 -1.421875 
Q 22.3125 -1.421875 17.546875 -0.640625 
Q 12.796875 0.140625 7.71875 1.703125 
L 7.71875 11.625 
Q 12.109375 9.234375 16.796875 8.0625 
Q 21.484375 6.890625 26.703125 6.890625 
Q 35.15625 6.890625 40.078125 11.328125 
Q 45.015625 15.765625 45.015625 23.390625 
Q 45.015625 31 40.078125 35.4375 
Q 35.15625 39.890625 26.703125 39.890625 
Q 22.75 39.890625 18.8125 39.015625 
Q 14.890625 38.140625 10.796875 36.28125 
z
" id="DejaVuSans-53"/>
       </defs>
       <use xlink:href="#DejaVuSans-48"/>
       <use x="63.623047" xlink:href="#DejaVuSans-46"/>
       <use x="95.410156" xlink:href="#DejaVuSans-48"/>
       <use x="159.033203" xlink:href="#DejaVuSans-48"/>
       <use x="222.65625" xlink:href="#DejaVuSans-53"/>
      </g>
     </g>
    </g>
    <g id="xtick_7">
     <g id="line2d_13">
      <path clip-path="url(#p0f38d62dc5)" d="M 448.708803 314.3875 
L 448.708803 28.8 
" style="fill:none;stroke:#808080;stroke-linecap:square;stroke-width:0.8;"/>
     </g>
     <g id="line2d_14">
      <g>
       <use style="stroke:#000000;stroke-width:0.8;" x="448.708803" xlink:href="#m6413bc99d7" y="314.3875"/>
      </g>
     </g>
     <g id="text_7">
      <!-- 0.006 -->
      <g transform="translate(431.531928 330.505625)scale(0.12 -0.12)">
       <defs>
        <path d="M 33.015625 40.375 
Q 26.375 40.375 22.484375 35.828125 
Q 18.609375 31.296875 18.609375 23.390625 
Q 18.609375 15.53125 22.484375 10.953125 
Q 26.375 6.390625 33.015625 6.390625 
Q 39.65625 6.390625 43.53125 10.953125 
Q 47.40625 15.53125 47.40625 23.390625 
Q 47.40625 31.296875 43.53125 35.828125 
Q 39.65625 40.375 33.015625 40.375 
z
M 52.59375 71.296875 
L 52.59375 62.3125 
Q 48.875 64.0625 45.09375 64.984375 
Q 41.3125 65.921875 37.59375 65.921875 
Q 27.828125 65.921875 22.671875 59.328125 
Q 17.53125 52.734375 16.796875 39.40625 
Q 19.671875 43.65625 24.015625 45.921875 
Q 28.375 48.1875 33.59375 48.1875 
Q 44.578125 48.1875 50.953125 41.515625 
Q 57.328125 34.859375 57.328125 23.390625 
Q 57.328125 12.15625 50.6875 5.359375 
Q 44.046875 -1.421875 33.015625 -1.421875 
Q 20.359375 -1.421875 13.671875 8.265625 
Q 6.984375 17.96875 6.984375 36.375 
Q 6.984375 53.65625 15.1875 63.9375 
Q 23.390625 74.21875 37.203125 74.21875 
Q 40.921875 74.21875 44.703125 73.484375 
Q 48.484375 72.75 52.59375 71.296875 
z
" id="DejaVuSans-54"/>
       </defs>
       <use xlink:href="#DejaVuSans-48"/>
       <use x="63.623047" xlink:href="#DejaVuSans-46"/>
       <use x="95.410156" xlink:href="#DejaVuSans-48"/>
       <use x="159.033203" xlink:href="#DejaVuSans-48"/>
       <use x="222.65625" xlink:href="#DejaVuSans-54"/>
      </g>
     </g>
    </g>
    <g id="text_8">
     <!-- $I_{D}$ [$A$] -->
     <g transform="translate(259.7875 346.119375)scale(0.12 -0.12)">
      <defs>
       <path d="M 16.890625 72.90625 
L 26.8125 72.90625 
L 12.59375 0 
L 2.6875 0 
z
" id="DejaVuSans-Oblique-73"/>
       <path d="M 16.890625 72.90625 
L 38.09375 72.90625 
Q 54.984375 72.90625 63.59375 65.75 
Q 72.21875 58.59375 72.21875 44.484375 
Q 72.21875 35.15625 68.9375 26.53125 
Q 65.671875 17.921875 59.90625 12.015625 
Q 54.109375 5.953125 45.171875 2.96875 
Q 36.234375 0 24.03125 0 
L 2.6875 0 
z
M 25.203125 64.796875 
L 14.203125 8.109375 
L 27.09375 8.109375 
Q 43.65625 8.109375 52.734375 17.625 
Q 61.8125 27.15625 61.8125 44.484375 
Q 61.8125 54.984375 55.953125 59.890625 
Q 50.09375 64.796875 37.59375 64.796875 
z
" id="DejaVuSans-Oblique-68"/>
       <path id="DejaVuSans-32"/>
       <path d="M 8.59375 75.984375 
L 29.296875 75.984375 
L 29.296875 69 
L 17.578125 69 
L 17.578125 -6.203125 
L 29.296875 -6.203125 
L 29.296875 -13.1875 
L 8.59375 -13.1875 
z
" id="DejaVuSans-91"/>
       <path d="M 36.8125 72.90625 
L 48 72.90625 
L 61.53125 0 
L 51.21875 0 
L 48.1875 18.703125 
L 15.375 18.703125 
L 5.078125 0 
L -5.328125 0 
z
M 40.375 63.1875 
L 19.921875 26.90625 
L 46.6875 26.90625 
z
" id="DejaVuSans-Oblique-65"/>
       <path d="M 30.421875 75.984375 
L 30.421875 -13.1875 
L 9.71875 -13.1875 
L 9.71875 -6.203125 
L 21.390625 -6.203125 
L 21.390625 69 
L 9.71875 69 
L 9.71875 75.984375 
z
" id="DejaVuSans-93"/>
      </defs>
      <use transform="translate(0 0.015625)" xlink:href="#DejaVuSans-Oblique-73"/>
      <use transform="translate(29.492188 -16.390625)scale(0.7)" xlink:href="#DejaVuSans-Oblique-68"/>
      <use transform="translate(86.12793 0.015625)" xlink:href="#DejaVuSans-32"/>
      <use transform="translate(117.915039 0.015625)" xlink:href="#DejaVuSans-91"/>
      <use transform="translate(156.928711 0.015625)" xlink:href="#DejaVuSans-Oblique-65"/>
      <use transform="translate(225.336914 0.015625)" xlink:href="#DejaVuSans-93"/>
     </g>
    </g>
   </g>
   <g id="matplotlib.axis_2">
    <g id="ytick_1">
     <g id="line2d_15">
      <path clip-path="url(#p0f38d62dc5)" d="M 58.175 301.417023 
L 493.2 301.417023 
" style="fill:none;stroke:#808080;stroke-linecap:square;stroke-width:0.8;"/>
     </g>
     <g id="line2d_16">
      <defs>
       <path d="M 0 0 
L -3.5 0 
" id="mc81f49a196" style="stroke:#000000;stroke-width:0.8;"/>
      </defs>
      <g>
       <use style="stroke:#000000;stroke-width:0.8;" x="58.175" xlink:href="#mc81f49a196" y="301.417023"/>
      </g>
     </g>
     <g id="text_9">
      <!-- 0.00 -->
      <g transform="translate(24.45625 305.976085)scale(0.12 -0.12)">
       <use xlink:href="#DejaVuSans-48"/>
       <use x="63.623047" xlink:href="#DejaVuSans-46"/>
       <use x="95.410156" xlink:href="#DejaVuSans-48"/>
       <use x="159.033203" xlink:href="#DejaVuSans-48"/>
      </g>
     </g>
    </g>
    <g id="ytick_2">
     <g id="line2d_17">
      <path clip-path="url(#p0f38d62dc5)" d="M 58.175 246.269103 
L 493.2 246.269103 
" style="fill:none;stroke:#808080;stroke-linecap:square;stroke-width:0.8;"/>
     </g>
     <g id="line2d_18">
      <g>
       <use style="stroke:#000000;stroke-width:0.8;" x="58.175" xlink:href="#mc81f49a196" y="246.269103"/>
      </g>
     </g>
     <g id="text_10">
      <!-- 0.02 -->
      <g transform="translate(24.45625 250.828165)scale(0.12 -0.12)">
       <use xlink:href="#DejaVuSans-48"/>
       <use x="63.623047" xlink:href="#DejaVuSans-46"/>
       <use x="95.410156" xlink:href="#DejaVuSans-48"/>
       <use x="159.033203" xlink:href="#DejaVuSans-50"/>
      </g>
     </g>
    </g>
    <g id="ytick_3">
     <g id="line2d_19">
      <path clip-path="url(#p0f38d62dc5)" d="M 58.175 191.121183 
L 493.2 191.121183 
" style="fill:none;stroke:#808080;stroke-linecap:square;stroke-width:0.8;"/>
     </g>
     <g id="line2d_20">
      <g>
       <use style="stroke:#000000;stroke-width:0.8;" x="58.175" xlink:href="#mc81f49a196" y="191.121183"/>
      </g>
     </g>
     <g id="text_11">
      <!-- 0.04 -->
      <g transform="translate(24.45625 195.680245)scale(0.12 -0.12)">
       <use xlink:href="#DejaVuSans-48"/>
       <use x="63.623047" xlink:href="#DejaVuSans-46"/>
       <use x="95.410156" xlink:href="#DejaVuSans-48"/>
       <use x="159.033203" xlink:href="#DejaVuSans-52"/>
      </g>
     </g>
    </g>
    <g id="ytick_4">
     <g id="line2d_21">
      <path clip-path="url(#p0f38d62dc5)" d="M 58.175 135.973263 
L 493.2 135.973263 
" style="fill:none;stroke:#808080;stroke-linecap:square;stroke-width:0.8;"/>
     </g>
     <g id="line2d_22">
      <g>
       <use style="stroke:#000000;stroke-width:0.8;" x="58.175" xlink:href="#mc81f49a196" y="135.973263"/>
      </g>
     </g>
     <g id="text_12">
      <!-- 0.06 -->
      <g transform="translate(24.45625 140.532326)scale(0.12 -0.12)">
       <use xlink:href="#DejaVuSans-48"/>
       <use x="63.623047" xlink:href="#DejaVuSans-46"/>
       <use x="95.410156" xlink:href="#DejaVuSans-48"/>
       <use x="159.033203" xlink:href="#DejaVuSans-54"/>
      </g>
     </g>
    </g>
    <g id="ytick_5">
     <g id="line2d_23">
      <path clip-path="url(#p0f38d62dc5)" d="M 58.175 80.825343 
L 493.2 80.825343 
" style="fill:none;stroke:#808080;stroke-linecap:square;stroke-width:0.8;"/>
     </g>
     <g id="line2d_24">
      <g>
       <use style="stroke:#000000;stroke-width:0.8;" x="58.175" xlink:href="#mc81f49a196" y="80.825343"/>
      </g>
     </g>
     <g id="text_13">
      <!-- 0.08 -->
      <g transform="translate(24.45625 85.384406)scale(0.12 -0.12)">
       <defs>
        <path d="M 31.78125 34.625 
Q 24.75 34.625 20.71875 30.859375 
Q 16.703125 27.09375 16.703125 20.515625 
Q 16.703125 13.921875 20.71875 10.15625 
Q 24.75 6.390625 31.78125 6.390625 
Q 38.8125 6.390625 42.859375 10.171875 
Q 46.921875 13.96875 46.921875 20.515625 
Q 46.921875 27.09375 42.890625 30.859375 
Q 38.875 34.625 31.78125 34.625 
z
M 21.921875 38.8125 
Q 15.578125 40.375 12.03125 44.71875 
Q 8.5 49.078125 8.5 55.328125 
Q 8.5 64.0625 14.71875 69.140625 
Q 20.953125 74.21875 31.78125 74.21875 
Q 42.671875 74.21875 48.875 69.140625 
Q 55.078125 64.0625 55.078125 55.328125 
Q 55.078125 49.078125 51.53125 44.71875 
Q 48 40.375 41.703125 38.8125 
Q 48.828125 37.15625 52.796875 32.3125 
Q 56.78125 27.484375 56.78125 20.515625 
Q 56.78125 9.90625 50.3125 4.234375 
Q 43.84375 -1.421875 31.78125 -1.421875 
Q 19.734375 -1.421875 13.25 4.234375 
Q 6.78125 9.90625 6.78125 20.515625 
Q 6.78125 27.484375 10.78125 32.3125 
Q 14.796875 37.15625 21.921875 38.8125 
z
M 18.3125 54.390625 
Q 18.3125 48.734375 21.84375 45.5625 
Q 25.390625 42.390625 31.78125 42.390625 
Q 38.140625 42.390625 41.71875 45.5625 
Q 45.3125 48.734375 45.3125 54.390625 
Q 45.3125 60.0625 41.71875 63.234375 
Q 38.140625 66.40625 31.78125 66.40625 
Q 25.390625 66.40625 21.84375 63.234375 
Q 18.3125 60.0625 18.3125 54.390625 
z
" id="DejaVuSans-56"/>
       </defs>
       <use xlink:href="#DejaVuSans-48"/>
       <use x="63.623047" xlink:href="#DejaVuSans-46"/>
       <use x="95.410156" xlink:href="#DejaVuSans-48"/>
       <use x="159.033203" xlink:href="#DejaVuSans-56"/>
      </g>
     </g>
    </g>
    <g id="text_14">
     <!-- $g_{m}$ [$1/\Omega$] -->
     <g transform="translate(17.93625 196.67375)rotate(-90)scale(0.12 -0.12)">
      <defs>
       <path d="M 59.625 54.6875 
L 50.296875 6.78125 
Q 47.609375 -7.125 40.015625 -13.953125 
Q 32.421875 -20.796875 19.578125 -20.796875 
Q 14.84375 -20.796875 10.78125 -20.09375 
Q 6.734375 -19.390625 3.21875 -17.921875 
L 4.890625 -9.1875 
Q 8.203125 -11.328125 11.90625 -12.34375 
Q 15.625 -13.375 19.828125 -13.375 
Q 28.375 -13.375 33.859375 -8.703125 
Q 39.359375 -4.046875 41.109375 4.6875 
L 41.890625 8.796875 
Q 38.140625 4.5 33.15625 2.25 
Q 28.171875 0 22.40625 0 
Q 14.109375 0 9.34375 5.484375 
Q 4.59375 10.984375 4.59375 20.609375 
Q 4.59375 28.171875 7.46875 35.421875 
Q 10.359375 42.671875 15.578125 48.296875 
Q 19.046875 52 23.65625 54 
Q 28.265625 56 33.296875 56 
Q 38.8125 56 42.90625 53.4375 
Q 47.015625 50.875 49.03125 46.1875 
L 50.59375 54.6875 
z
M 46.09375 34.625 
Q 46.09375 41.265625 42.96875 44.875 
Q 39.84375 48.484375 34.078125 48.484375 
Q 30.515625 48.484375 27.296875 47.0625 
Q 24.078125 45.65625 21.78125 43.109375 
Q 18.0625 38.921875 15.984375 33.234375 
Q 13.921875 27.546875 13.921875 21.484375 
Q 13.921875 14.75 17.0625 11.125 
Q 20.21875 7.515625 26.125 7.515625 
Q 34.671875 7.515625 40.375 15.25 
Q 46.09375 23 46.09375 34.625 
z
" id="DejaVuSans-Oblique-103"/>
       <path d="M 89.796875 33.015625 
L 83.40625 0 
L 74.421875 0 
L 80.71875 32.71875 
Q 81.109375 34.8125 81.296875 36.328125 
Q 81.5 37.84375 81.5 38.921875 
Q 81.5 43.3125 79.046875 45.75 
Q 76.609375 48.1875 72.21875 48.1875 
Q 65.671875 48.1875 60.546875 43.28125 
Q 55.421875 38.375 53.90625 30.515625 
L 47.90625 0 
L 38.921875 0 
L 45.3125 32.71875 
Q 45.703125 34.515625 45.890625 36.046875 
Q 46.09375 37.59375 46.09375 38.8125 
Q 46.09375 43.265625 43.65625 45.71875 
Q 41.21875 48.1875 36.921875 48.1875 
Q 30.28125 48.1875 25.140625 43.28125 
Q 20.015625 38.375 18.5 30.515625 
L 12.5 0 
L 3.515625 0 
L 14.203125 54.6875 
L 23.1875 54.6875 
L 21.484375 46.1875 
Q 25.140625 50.984375 30.046875 53.484375 
Q 34.96875 56 40.578125 56 
Q 46.53125 56 50.359375 52.875 
Q 54.203125 49.75 54.984375 44.1875 
Q 59.078125 49.953125 64.46875 52.96875 
Q 69.875 56 75.875 56 
Q 82.90625 56 86.734375 51.953125 
Q 90.578125 47.90625 90.578125 40.484375 
Q 90.578125 38.875 90.375 36.9375 
Q 90.1875 35.015625 89.796875 33.015625 
z
" id="DejaVuSans-Oblique-109"/>
       <path d="M 25.390625 72.90625 
L 33.6875 72.90625 
L 8.296875 -9.28125 
L 0 -9.28125 
z
" id="DejaVuSans-47"/>
       <path d="M 72.609375 8.6875 
L 72.609375 0 
L 43.3125 0 
L 43.3125 8.6875 
Q 51.953125 13.421875 56.78125 21.53125 
Q 61.625 29.640625 61.625 39.5 
Q 61.625 51.21875 55.171875 58.296875 
Q 48.734375 65.375 38.1875 65.375 
Q 27.640625 65.375 21.171875 58.265625 
Q 14.703125 51.171875 14.703125 39.5 
Q 14.703125 29.640625 19.53125 21.53125 
Q 24.421875 13.421875 33.109375 8.6875 
L 33.109375 0 
L 3.8125 0 
L 3.8125 8.6875 
L 19.390625 8.6875 
Q 11.671875 15.484375 8.109375 22.75 
Q 4.59375 30.03125 4.59375 39.015625 
Q 4.59375 54.546875 13.96875 64.15625 
Q 23.296875 73.78125 38.1875 73.78125 
Q 52.984375 73.78125 62.40625 64.15625 
Q 71.78125 54.59375 71.78125 39.5 
Q 71.78125 30.03125 68.3125 22.796875 
Q 64.84375 15.578125 56.984375 8.6875 
z
" id="DejaVuSans-937"/>
      </defs>
      <use transform="translate(0 0.015625)" xlink:href="#DejaVuSans-Oblique-103"/>
      <use transform="translate(63.476562 -16.390625)scale(0.7)" xlink:href="#DejaVuSans-Oblique-109"/>
      <use transform="translate(134.399414 0.015625)" xlink:href="#DejaVuSans-32"/>
      <use transform="translate(166.186523 0.015625)" xlink:href="#DejaVuSans-91"/>
      <use transform="translate(205.200195 0.015625)" xlink:href="#DejaVuSans-49"/>
      <use transform="translate(268.823242 0.015625)" xlink:href="#DejaVuSans-47"/>
      <use transform="translate(302.514648 0.015625)" xlink:href="#DejaVuSans-937"/>
      <use transform="translate(378.930664 0.015625)" xlink:href="#DejaVuSans-93"/>
     </g>
    </g>
   </g>
   <g id="line2d_25">
    <path clip-path="url(#p0f38d62dc5)" d="M 77.948864 301.40625 
L 78.07245 301.283078 
L 80.049837 299.056264 
L 85.30227 293.490116 
L 93.891544 284.750742 
L 103.531304 275.269544 
L 116.81687 262.680214 
L 117.867357 261.716173 
L 121.204197 258.641787 
L 122.56365 257.410913 
L 124.108484 255.995872 
L 135.787424 245.596298 
L 138.259157 243.445309 
L 138.753504 243.024558 
L 143.449797 238.964871 
L 144.314904 238.239924 
L 145.180011 237.475877 
L 146.230497 236.602417 
L 146.910224 236.006737 
L 148.393264 234.757912 
L 150.556031 232.957636 
L 151.050377 232.524339 
L 163.285457 222.47261 
L 163.409044 222.405192 
L 163.532631 222.270024 
L 163.594424 222.270024 
L 163.779804 222.066363 
L 163.903391 221.998255 
L 164.026977 221.861681 
L 164.088771 221.861681 
L 164.212357 221.724639 
L 164.274151 221.724639 
L 164.459531 221.518193 
L 164.583117 221.44912 
L 164.706704 221.310643 
L 164.768497 221.310643 
L 164.892084 221.171698 
L 164.953877 221.171698 
L 165.139257 220.962357 
L 165.571811 220.611037 
L 165.695397 220.540392 
L 166.127951 220.185378 
L 166.189744 220.185378 
L 166.375124 219.970852 
L 166.498711 219.899077 
L 167.054851 219.393205 
L 167.240231 219.320438 
L 167.796371 218.807341 
L 167.919957 218.733498 
L 168.290717 218.436885 
L 168.414304 218.36238 
L 168.846857 217.987926 
L 168.970444 217.912649 
L 169.341204 217.61008 
L 169.464791 217.534114 
L 169.897344 217.152132 
L 170.020931 217.075311 
L 170.453484 216.689137 
L 170.638864 216.611462 
L 171.071417 216.221014 
L 171.195004 216.142511 
L 171.565764 215.826955 
L 171.689351 215.747707 
L 172.060111 215.429228 
L 172.183697 215.349236 
L 172.554457 215.027806 
L 172.678044 215.027806 
L 172.801631 214.866168 
L 172.863424 214.866168 
L 172.987011 214.70395 
L 173.172391 214.622607 
L 173.666737 214.131322 
L 173.852117 214.048876 
L 174.284671 213.634439 
L 174.531844 213.551055 
L 174.964397 213.131848 
L 175.149777 213.047527 
L 175.582331 212.623495 
L 175.829504 212.538209 
L 175.953091 212.367112 
L 176.138471 212.28133 
L 176.509231 211.936517 
L 176.756404 211.84988 
L 176.879991 211.676136 
L 176.941784 211.676136 
L 177.065371 211.501703 
L 177.250751 211.414239 
L 177.621511 211.062671 
L 177.806891 210.974351 
L 178.115857 210.708345 
L 178.239444 210.619309 
L 178.486617 210.440768 
L 178.610204 210.351208 
L 178.980964 209.991285 
L 179.166344 209.900842 
L 179.475311 209.628466 
L 179.722484 209.537335 
L 179.846071 209.354492 
L 180.031451 209.262781 
L 180.402211 208.894172 
L 180.587591 208.801551 
L 180.896557 208.522585 
L 181.081937 208.42922 
L 181.329111 208.241937 
L 181.390904 208.241937 
L 181.514491 208.053911 
L 181.761664 207.95958 
L 182.070631 207.675513 
L 182.132424 207.675513 
L 182.256011 207.485198 
L 182.503184 207.389737 
L 182.812151 207.102195 
L 182.873944 207.102195 
L 182.997531 206.909509 
L 183.244704 206.812862 
L 183.615464 206.424345 
L 183.800844 206.326733 
L 184.048017 206.130875 
L 184.171604 206.130875 
L 184.295191 205.93419 
L 184.480571 205.835558 
L 184.789537 205.538421 
L 185.036711 205.438962 
L 185.345677 205.139343 
L 185.469264 205.139343 
L 185.592851 204.938549 
L 185.840024 204.837849 
L 186.210784 204.432898 
L 186.519751 204.331123 
L 186.643337 204.126965 
L 186.890511 204.024555 
L 187.199477 203.716003 
L 187.446651 203.612738 
L 187.817411 203.197419 
L 187.879204 203.301594 
L 187.940997 203.197419 
L 188.188171 202.988464 
L 188.435344 202.883628 
L 188.620724 202.567823 
L 188.682517 202.673321 
L 188.744311 202.673321 
L 188.867897 202.462105 
L 189.053277 202.356138 
L 189.300451 202.14357 
L 189.424037 202.036942 
L 189.609417 201.930093 
L 189.794797 201.822995 
L 190.103764 201.500325 
L 190.412731 201.392318 
L 190.536317 201.175586 
L 190.721697 201.175586 
L 190.845284 200.95789 
L 191.092457 200.848697 
L 191.401424 200.519685 
L 191.648597 200.409527 
L 191.895771 200.188521 
L 192.019357 200.077646 
L 192.266531 199.855152 
L 192.328324 199.966523 
L 192.390117 199.855152 
L 192.699084 199.519605 
L 192.884464 199.519605 
L 193.193431 199.181824 
L 193.378811 199.181824 
L 193.502397 198.955386 
L 193.687777 198.955386 
L 193.811364 198.727956 
L 193.996744 198.727956 
L 194.120331 198.499506 
L 194.305711 198.499506 
L 194.429297 198.270035 
L 194.491091 198.270035 
L 194.676471 198.154914 
L 194.738264 198.154914 
L 194.985437 197.9239 
L 195.047231 197.9239 
L 195.294404 197.691837 
L 195.356197 197.691837 
L 195.603371 197.458754 
L 195.665164 197.458754 
L 195.912337 197.224624 
L 195.974131 197.224624 
L 196.283097 196.871429 
L 196.406684 196.871429 
L 196.715651 196.515835 
L 196.839237 196.634624 
L 196.962824 196.396743 
L 197.024617 196.396743 
L 197.209997 196.277403 
L 197.271791 196.277403 
L 197.518964 196.037923 
L 197.580757 196.037923 
L 197.889724 195.676622 
L 198.013311 195.676622 
L 198.260484 195.434357 
L 198.384071 195.434357 
L 198.631244 195.191017 
L 198.693037 195.191017 
L 198.940211 194.946518 
L 199.063797 194.946518 
L 199.310971 194.700917 
L 199.372764 194.700917 
L 199.619937 194.454185 
L 199.681731 194.454185 
L 199.928904 194.206296 
L 200.052491 194.206296 
L 200.361457 193.83231 
L 200.608631 193.83231 
L 200.855804 193.581525 
L 200.917597 193.581525 
L 201.164771 193.329581 
L 201.226564 193.329581 
L 201.473737 193.076452 
L 201.597324 193.076452 
L 201.720911 192.82211 
L 201.844497 192.949419 
L 201.968084 192.694526 
L 202.153464 192.694526 
L 202.338844 192.438391 
L 202.462431 192.438391 
L 202.647811 192.181071 
L 202.894984 192.181071 
L 203.018571 191.92251 
L 203.080364 192.051942 
L 203.265744 191.792774 
L 203.327537 191.792774 
L 203.451124 191.662736 
L 203.512917 191.662736 
L 203.636504 191.532393 
L 203.760091 191.532393 
L 203.945471 191.270772 
L 204.130851 191.270772 
L 204.316231 191.007882 
L 204.439817 191.007882 
L 204.563404 190.875968 
L 204.625197 190.875968 
L 204.748784 190.743751 
L 204.810577 190.743751 
L 204.934164 190.478351 
L 205.057751 190.611203 
L 205.181337 190.345169 
L 205.243131 190.478351 
L 205.428511 190.211656 
L 205.552097 190.211656 
L 205.675684 190.077839 
L 205.737477 190.077839 
L 205.922857 189.809242 
L 206.046444 189.809242 
L 206.170031 189.674432 
L 206.293617 189.674432 
L 206.417204 189.53932 
L 206.478997 189.53932 
L 206.602584 189.403877 
L 206.664377 189.403877 
L 206.787964 189.268103 
L 206.849757 189.268103 
L 207.035137 188.995562 
L 207.282311 188.995562 
L 207.467691 188.721697 
L 207.653071 188.721697 
L 207.838451 188.446509 
L 208.023831 188.446509 
L 208.209211 188.169942 
L 208.332797 188.169942 
L 208.456384 188.031162 
L 208.579971 188.031162 
L 208.703557 187.892052 
L 208.765351 187.892052 
L 208.950731 187.612783 
L 209.197904 187.612783 
L 209.383284 187.332107 
L 209.506871 187.332107 
L 209.630457 187.191287 
L 209.754044 187.191287 
L 209.877631 187.050081 
L 209.939424 187.050081 
L 210.124804 186.766648 
L 210.371977 186.766648 
L 210.557357 186.481809 
L 210.680944 186.481809 
L 210.804531 186.338838 
L 210.989911 186.338838 
L 211.175291 186.051876 
L 211.360671 186.051876 
L 211.484257 185.90783 
L 211.546051 185.90783 
L 211.669637 185.763452 
L 211.731431 185.763452 
L 211.855017 185.618717 
L 211.916811 185.618717 
L 212.040397 185.473595 
L 212.163984 185.473595 
L 212.287571 185.182276 
L 212.411157 185.328115 
L 212.596537 185.036079 
L 212.720124 185.036079 
L 212.843711 184.889496 
L 212.967297 184.889496 
L 213.090884 184.742554 
L 213.152677 184.742554 
L 213.276264 184.595226 
L 213.399851 184.595226 
L 213.523437 184.44754 
L 213.585231 184.44754 
L 213.708817 184.299496 
L 213.770611 184.299496 
L 213.894197 184.151037 
L 213.955991 184.151037 
L 214.079577 184.002221 
L 214.264957 184.002221 
L 214.388544 183.853046 
L 214.450337 183.853046 
L 214.635717 183.55351 
L 214.697511 183.55351 
L 214.759304 183.703457 
L 214.944684 183.403176 
L 215.068271 183.403176 
L 215.191857 183.252457 
L 215.253651 183.252457 
L 215.377237 183.101352 
L 215.500824 183.101352 
L 215.624411 182.949861 
L 215.686204 182.949861 
L 215.809791 182.797983 
L 215.933377 182.797983 
L 216.056964 182.645692 
L 216.118757 182.645692 
L 216.242344 182.493043 
L 216.365931 182.493043 
L 216.489517 182.33998 
L 216.551311 182.33998 
L 216.674897 182.186531 
L 216.798484 182.186531 
L 216.922071 182.032695 
L 216.983864 182.032695 
L 217.107451 181.878447 
L 217.231037 181.878447 
L 217.354624 181.723812 
L 217.416417 181.723812 
L 217.540004 181.568764 
L 217.725384 181.568764 
L 217.848971 181.413329 
L 217.910764 181.413329 
L 218.096144 181.10122 
L 218.157937 181.10122 
L 218.219731 181.257481 
L 218.405111 180.944544 
L 218.590491 180.944544 
L 218.714077 180.787483 
L 218.775871 180.787483 
L 218.899457 180.630008 
L 219.023044 180.630008 
L 219.146631 180.47212 
L 219.208424 180.47212 
L 219.332011 180.313818 
L 219.455597 180.313818 
L 219.579184 180.155074 
L 219.640977 180.155074 
L 219.702771 179.995945 
L 219.826357 180.155074 
L 219.949944 179.836402 
L 220.011737 179.995945 
L 220.197117 179.676418 
L 220.444291 179.676418 
L 220.567877 179.355209 
L 220.691464 179.51602 
L 220.876844 179.193956 
L 221.062224 179.193956 
L 221.185811 179.03229 
L 221.309397 179.03229 
L 221.432984 178.870183 
L 221.494777 178.870183 
L 221.556571 178.707662 
L 221.618364 178.870183 
L 221.741951 178.5447 
L 221.803744 178.707662 
L 221.927331 178.5447 
L 221.989124 178.5447 
L 222.112711 178.381297 
L 222.298091 178.381297 
L 222.421677 178.053222 
L 222.545264 178.21748 
L 222.730644 177.888522 
L 222.977817 177.888522 
L 223.101404 177.723354 
L 223.163197 177.723354 
L 223.286784 177.557773 
L 223.348577 177.557773 
L 223.410371 177.39175 
L 223.533957 177.557773 
L 223.719337 177.225258 
L 223.904717 177.225258 
L 224.028304 177.058353 
L 224.151891 177.058353 
L 224.275477 176.890979 
L 224.337271 176.890979 
L 224.399064 176.723136 
L 224.522651 176.890979 
L 224.646237 176.55488 
L 224.708031 176.723136 
L 224.831617 176.55488 
L 224.893411 176.55488 
L 225.016997 176.386128 
L 225.078791 176.386128 
L 225.202377 176.216934 
L 225.387757 176.216934 
L 225.511344 176.047299 
L 225.634931 176.047299 
L 225.758517 175.877195 
L 225.820311 175.877195 
L 225.943897 175.706622 
L 226.129277 175.706622 
L 226.252864 175.535581 
L 226.314657 175.535581 
L 226.438244 175.364071 
L 226.685417 175.364071 
L 226.809004 175.019672 
L 226.932591 175.19212 
L 227.117971 174.846756 
L 227.365144 174.846756 
L 227.488731 174.673371 
L 227.674111 174.673371 
L 227.797697 174.325195 
L 227.921284 174.499517 
L 228.044871 174.325195 
L 228.106664 174.325195 
L 228.230251 174.150376 
L 228.415631 174.150376 
L 228.539217 173.97506 
L 228.601011 173.97506 
L 228.724597 173.799276 
L 228.909977 173.799276 
L 229.033564 173.623024 
L 229.157151 173.623024 
L 229.280737 173.446275 
L 229.342531 173.446275 
L 229.466117 173.269029 
L 229.713291 173.269029 
L 229.836877 173.091287 
L 229.898671 173.091287 
L 230.022257 172.913049 
L 230.269431 172.913049 
L 230.393017 172.555112 
L 230.516604 172.734343 
L 230.640191 172.555112 
L 230.701984 172.555112 
L 230.825571 172.375385 
L 231.010951 172.375385 
L 231.134537 172.195161 
L 231.196331 172.195161 
L 231.319917 172.014414 
L 231.381711 172.195161 
L 231.567091 171.833198 
L 231.814264 171.833198 
L 231.937851 171.651458 
L 232.123231 171.651458 
L 232.308611 171.286434 
L 232.370404 171.286434 
L 232.432197 171.469194 
L 232.617577 171.10315 
L 232.741164 171.286434 
L 232.864751 170.919342 
L 232.926544 171.10315 
L 233.050131 170.919342 
L 233.111924 170.919342 
L 233.235511 170.73501 
L 233.420891 170.73501 
L 233.544477 170.550182 
L 233.729857 170.550182 
L 233.853444 170.364829 
L 233.915237 170.364829 
L 234.038824 170.178926 
L 234.224204 170.178926 
L 234.347791 169.992498 
L 234.533171 169.992498 
L 234.656757 169.805574 
L 234.718551 169.805574 
L 234.780344 169.618071 
L 234.903931 169.805574 
L 235.027517 169.430072 
L 235.151104 169.618071 
L 235.274691 169.241521 
L 235.398277 169.430072 
L 235.521864 169.241521 
L 235.583657 169.241521 
L 235.707244 169.052419 
L 235.769037 169.241521 
L 235.954417 168.862793 
L 236.263384 168.862793 
L 236.386971 168.481886 
L 236.510557 168.672616 
L 236.634144 168.481886 
L 236.757731 168.481886 
L 236.881317 168.290606 
L 237.066697 168.290606 
L 237.190284 168.098774 
L 237.313871 168.098774 
L 237.437457 167.906418 
L 237.622837 167.906418 
L 237.746424 167.713483 
L 237.870011 167.713483 
L 237.993597 167.519969 
L 238.178977 167.519969 
L 238.302564 167.325931 
L 238.549737 167.325931 
L 238.673324 167.131314 
L 238.735117 167.131314 
L 238.858704 166.936118 
L 239.105877 166.936118 
L 239.229464 166.74037 
L 239.291257 166.74037 
L 239.353051 166.544044 
L 239.476637 166.74037 
L 239.662017 166.347166 
L 239.723811 166.544044 
L 239.847397 166.347166 
L 239.909191 166.347166 
L 240.032777 166.149681 
L 240.279951 166.149681 
L 240.403537 165.951645 
L 240.588917 165.951645 
L 240.712504 165.753002 
L 240.836091 165.753002 
L 240.959677 165.553808 
L 241.145057 165.553808 
L 241.268644 165.354007 
L 241.454024 165.354007 
L 241.577611 165.153599 
L 241.762991 165.153599 
L 241.886577 164.95264 
L 242.010164 164.95264 
L 242.133751 164.751047 
L 242.195544 164.95264 
L 242.319131 164.548902 
L 242.442717 164.751047 
L 242.628097 164.346123 
L 242.689891 164.346123 
L 242.751684 164.548902 
L 242.875271 164.346123 
L 242.937064 164.346123 
L 243.060651 164.142765 
L 243.307824 164.142765 
L 243.431411 163.938773 
L 243.616791 163.938773 
L 243.740377 163.734202 
L 243.863964 163.734202 
L 243.987551 163.528997 
L 244.049344 163.734202 
L 244.172931 163.323212 
L 244.296517 163.528997 
L 244.481897 163.116794 
L 244.543691 163.116794 
L 244.605484 163.323212 
L 244.729071 163.116794 
L 244.790864 163.116794 
L 244.914451 162.909741 
L 245.223417 162.909741 
L 245.347004 162.702109 
L 245.408797 162.702109 
L 245.532384 162.493815 
L 245.841351 162.493815 
L 245.964937 162.284915 
L 246.026731 162.284915 
L 246.088524 162.07538 
L 246.212111 162.284915 
L 246.397491 161.865211 
L 246.459284 161.865211 
L 246.521077 162.07538 
L 246.644664 161.865211 
L 246.706457 161.865211 
L 246.830044 161.654409 
L 247.077217 161.654409 
L 247.200804 161.442971 
L 247.386184 161.442971 
L 247.509771 161.230873 
L 247.756944 161.230873 
L 247.880531 161.018139 
L 247.942324 161.018139 
L 248.004117 160.804772 
L 248.127704 161.018139 
L 248.251291 160.804772 
L 248.313084 160.804772 
L 248.436671 160.590771 
L 248.498464 160.804772 
L 248.622051 160.37608 
L 248.745637 160.590771 
L 248.869224 160.37608 
L 248.992811 160.37608 
L 249.116397 160.160755 
L 249.301777 160.160755 
L 249.363571 159.944768 
L 249.487157 160.160755 
L 249.672537 159.728119 
L 249.734331 159.728119 
L 249.796124 159.944768 
L 249.919711 159.510809 
L 250.043297 159.728119 
L 250.166884 159.510809 
L 250.352264 159.510809 
L 250.475851 159.292809 
L 250.661231 159.292809 
L 250.723024 159.074175 
L 250.846611 159.292809 
L 250.970197 158.854852 
L 251.093784 159.074175 
L 251.217371 158.854852 
L 251.279164 158.854852 
L 251.340957 158.634839 
L 251.464544 158.854852 
L 251.588131 158.634839 
L 251.649924 158.634839 
L 251.773511 158.414165 
L 251.835304 158.634839 
L 251.958891 158.192774 
L 252.082477 158.414165 
L 252.206064 158.192774 
L 252.391444 158.192774 
L 252.515031 157.970721 
L 252.700411 157.970721 
L 252.823997 157.747978 
L 253.132964 157.747978 
L 253.256551 157.524546 
L 253.318344 157.524546 
L 253.380137 157.300425 
L 253.503724 157.524546 
L 253.627311 157.300425 
L 253.750897 157.300425 
L 253.874484 157.075587 
L 254.059864 157.075587 
L 254.121657 156.85006 
L 254.245244 157.075587 
L 254.430624 156.623815 
L 254.492417 156.623815 
L 254.554211 156.85006 
L 254.677798 156.623815 
L 254.739591 156.623815 
L 254.801384 156.396882 
L 254.924971 156.623815 
L 255.048558 156.396882 
L 255.110351 156.396882 
L 255.233938 156.169203 
L 255.295731 156.396882 
L 255.419318 156.169203 
L 255.481111 156.169203 
L 255.604698 155.940836 
L 255.913664 155.940836 
L 256.037251 155.711724 
L 256.222631 155.711724 
L 256.346218 155.481922 
L 256.655184 155.481922 
L 256.778771 155.251377 
L 256.964151 155.251377 
L 257.087738 155.020086 
L 257.334911 155.020086 
L 257.458498 154.788079 
L 257.643878 154.788079 
L 257.767464 154.555355 
L 258.138224 154.555355 
L 258.261811 154.321858 
L 258.323604 154.321858 
L 258.447191 154.087645 
L 258.570778 154.321858 
L 258.756158 153.85266 
L 258.817951 153.85266 
L 258.879744 154.087645 
L 259.003331 153.85266 
L 259.065124 153.85266 
L 259.126918 153.61693 
L 259.250504 153.85266 
L 259.374091 153.61693 
L 259.435884 153.61693 
L 259.559471 153.380456 
L 259.621264 153.61693 
L 259.744851 153.380456 
L 259.806644 153.380456 
L 259.868438 153.143209 
L 259.992024 153.380456 
L 260.115611 153.143209 
L 260.177404 153.143209 
L 260.300991 152.905219 
L 260.362784 153.143209 
L 260.486371 152.905219 
L 260.671751 152.905219 
L 260.795338 152.666456 
L 260.980718 152.666456 
L 261.104304 152.426921 
L 261.166098 152.666456 
L 261.289684 152.426921 
L 261.351478 152.426921 
L 261.475064 152.186614 
L 261.845824 152.186614 
L 261.969411 151.945535 
L 262.031204 151.945535 
L 262.092998 151.703656 
L 262.216584 151.945535 
L 262.340171 151.703656 
L 262.525551 151.703656 
L 262.649138 151.461005 
L 262.958104 151.461005 
L 263.081691 151.217582 
L 263.267071 151.217582 
L 263.390658 150.973359 
L 263.452451 151.217582 
L 263.576038 150.973359 
L 263.637831 150.973359 
L 263.761418 150.728337 
L 263.885004 150.973359 
L 264.070384 150.482515 
L 264.132178 150.728337 
L 264.255764 150.482515 
L 264.317558 150.728337 
L 264.502938 150.235894 
L 264.626524 150.482515 
L 264.811904 149.988445 
L 264.873698 149.988445 
L 264.935491 150.235894 
L 265.059078 149.988445 
L 265.244458 149.988445 
L 265.368044 149.740197 
L 265.738804 149.740197 
L 265.862391 149.491149 
L 265.924184 149.491149 
L 265.985978 149.241274 
L 266.109564 149.491149 
L 266.233151 149.241274 
L 266.480324 149.241274 
L 266.603911 148.990571 
L 266.789291 148.990571 
L 266.912878 148.739041 
L 267.036464 148.990571 
L 267.221844 148.486685 
L 267.345431 148.739041 
L 267.469018 148.486685 
L 267.654398 148.486685 
L 267.777984 148.233473 
L 268.086951 148.233473 
L 268.210538 147.979462 
L 268.395918 147.979462 
L 268.457711 147.724568 
L 268.581298 147.979462 
L 268.704884 147.724568 
L 268.828471 147.724568 
L 268.952058 147.468847 
L 269.013851 147.724568 
L 269.137438 147.468847 
L 269.199231 147.468847 
L 269.261024 147.212271 
L 269.384611 147.468847 
L 269.508198 147.212271 
L 269.631784 147.212271 
L 269.755371 146.954813 
L 269.817164 147.212271 
L 269.940751 146.954813 
L 270.002544 146.954813 
L 270.064338 146.696528 
L 270.187924 146.954813 
L 270.311511 146.696528 
L 270.496891 146.696528 
L 270.620478 146.43736 
L 270.682271 146.696528 
L 270.805858 146.43736 
L 270.867651 146.43736 
L 270.929444 146.177338 
L 271.053031 146.43736 
L 271.176618 146.177338 
L 271.300204 146.177338 
L 271.423791 145.916433 
L 271.485584 146.177338 
L 271.609171 145.916433 
L 271.794551 145.916433 
L 271.918138 145.654646 
L 272.227104 145.654646 
L 272.350691 145.391976 
L 272.659658 145.391976 
L 272.783244 145.128424 
L 273.092211 145.128424 
L 273.215798 144.863963 
L 273.401178 144.863963 
L 273.462971 144.598618 
L 273.586558 144.863963 
L 273.710144 144.598618 
L 273.895524 144.598618 
L 274.019111 144.332364 
L 274.080904 144.598618 
L 274.204491 144.332364 
L 274.266284 144.332364 
L 274.389871 144.065228 
L 274.513458 144.332364 
L 274.637044 144.065228 
L 274.698838 144.065228 
L 274.822424 143.797154 
L 274.884218 144.065228 
L 275.007804 143.797154 
L 275.193184 143.797154 
L 275.316771 143.528197 
L 275.440358 143.797154 
L 275.625738 143.258303 
L 275.749324 143.528197 
L 275.872911 143.258303 
L 276.058291 143.258303 
L 276.181878 142.987472 
L 276.305464 143.258303 
L 276.490844 142.71573 
L 276.614431 142.987472 
L 276.738018 142.71573 
L 277.046984 142.71573 
L 277.170571 142.443052 
L 277.417744 142.443052 
L 277.541331 142.169408 
L 277.850298 142.169408 
L 277.912091 141.894854 
L 278.035678 142.169408 
L 278.159264 141.894854 
L 278.221058 141.894854 
L 278.344644 141.619335 
L 278.406438 141.894854 
L 278.530024 141.619335 
L 278.591818 141.894854 
L 278.715404 141.342878 
L 278.838991 141.619335 
L 278.962578 141.342878 
L 279.209751 141.342878 
L 279.333338 141.065457 
L 279.395131 141.342878 
L 279.518718 141.065457 
L 279.580511 141.065457 
L 279.642304 140.78707 
L 279.765891 141.065457 
L 279.889478 140.78707 
L 280.136651 140.78707 
L 280.260238 140.507718 
L 280.322031 140.78707 
L 280.445618 140.507718 
L 280.507411 140.507718 
L 280.630998 140.227374 
L 280.754584 140.507718 
L 280.878171 140.227374 
L 281.001758 140.227374 
L 281.125344 139.946064 
L 281.187138 140.227374 
L 281.310724 139.946064 
L 281.496104 139.946064 
L 281.619691 139.663789 
L 281.743278 139.946064 
L 281.928658 139.380495 
L 281.990451 139.380495 
L 282.114038 139.663789 
L 282.237624 139.380495 
L 282.423004 139.380495 
L 282.546591 139.096235 
L 282.608384 139.096235 
L 282.670178 139.380495 
L 282.793764 138.810954 
L 282.917351 139.096235 
L 283.040938 139.096235 
L 283.164524 138.810954 
L 283.349904 138.810954 
L 283.473491 138.524682 
L 283.597078 138.810954 
L 283.782458 138.237388 
L 283.844251 138.237388 
L 283.967838 138.524682 
L 284.091424 138.237388 
L 284.400391 138.237388 
L 284.523978 137.949075 
L 284.832944 137.949075 
L 284.956531 137.659742 
L 285.018324 137.949075 
L 285.141911 137.659742 
L 285.203704 137.659742 
L 285.265498 137.369415 
L 285.389084 137.659742 
L 285.512671 137.369415 
L 285.759844 137.369415 
L 285.883431 137.078014 
L 285.945224 137.369415 
L 286.068811 137.078014 
L 286.254191 137.078014 
L 286.377778 136.785592 
L 286.501364 137.078014 
L 286.686744 136.49215 
L 286.748538 136.49215 
L 286.872124 136.785592 
L 286.995711 136.49215 
L 287.181091 136.49215 
L 287.242884 136.197632 
L 287.366471 136.49215 
L 287.490058 136.197632 
L 287.737231 136.197632 
L 287.860818 135.902067 
L 287.922611 136.197632 
L 288.046198 135.902067 
L 288.231578 135.902067 
L 288.355164 135.605454 
L 288.787718 135.605454 
L 288.911304 135.307766 
L 288.973098 135.605454 
L 289.096684 135.307766 
L 289.158478 135.307766 
L 289.282064 135.009002 
L 289.405651 135.307766 
L 289.529238 135.009002 
L 289.714618 135.009002 
L 289.838204 134.709162 
L 289.899998 135.009002 
L 290.023584 134.709162 
L 290.208964 134.709162 
L 290.332551 134.408248 
L 290.394344 134.408248 
L 290.517931 134.709162 
L 290.703311 134.106258 
L 290.826898 134.408248 
L 290.950484 134.106258 
L 291.012278 134.408248 
L 291.135864 133.803165 
L 291.259451 134.106258 
L 291.383038 133.803165 
L 291.506624 134.106258 
L 291.692004 133.498941 
L 291.753798 133.498941 
L 291.877384 133.803165 
L 292.000971 133.498941 
L 292.309938 133.498941 
L 292.433524 133.193642 
L 292.804284 133.193642 
L 292.927871 132.887241 
L 292.989664 133.193642 
L 293.113251 132.887241 
L 293.298631 132.887241 
L 293.422218 132.579681 
L 293.484011 132.579681 
L 293.607598 132.887241 
L 293.792978 132.271045 
L 293.916564 132.579681 
L 294.040151 132.271045 
L 294.101944 132.579681 
L 294.225531 131.961252 
L 294.349118 132.271045 
L 294.410911 131.961252 
L 294.534498 132.271045 
L 294.658084 131.961252 
L 294.781671 131.961252 
L 294.905258 131.6503 
L 295.028844 131.961252 
L 295.152431 131.6503 
L 295.337811 131.6503 
L 295.399604 131.338246 
L 295.523191 131.6503 
L 295.646778 131.338246 
L 295.893951 131.338246 
L 296.017538 131.025033 
L 296.079331 131.338246 
L 296.202918 131.025033 
L 296.511884 131.025033 
L 296.635471 130.710635 
L 297.068024 130.710635 
L 297.191611 130.395106 
L 297.500578 130.395106 
L 297.562371 130.078392 
L 297.685958 130.395106 
L 297.809544 130.078392 
L 298.056718 130.078392 
L 298.180304 129.760519 
L 298.242098 130.078392 
L 298.365684 129.760519 
L 298.674651 129.760519 
L 298.798238 129.441461 
L 299.230791 129.441461 
L 299.354378 129.121189 
L 299.416171 129.441461 
L 299.539758 129.121189 
L 299.601551 129.121189 
L 299.663344 128.79976 
L 299.786931 129.121189 
L 299.910518 128.79976 
L 300.343071 128.79976 
L 300.466658 128.477117 
L 300.775624 128.477117 
L 300.837418 128.15326 
L 300.961004 128.477117 
L 301.084591 128.15326 
L 301.393558 128.15326 
L 301.517144 127.828163 
L 301.578938 128.15326 
L 301.702524 127.828163 
L 301.887904 127.828163 
L 301.949698 127.501881 
L 302.073284 127.828163 
L 302.196871 127.501881 
L 302.444044 127.501881 
L 302.567631 127.174357 
L 302.691218 127.501881 
L 302.814804 127.174357 
L 303.000184 127.174357 
L 303.061978 126.845593 
L 303.185564 127.174357 
L 303.309151 126.845593 
L 303.618118 126.845593 
L 303.741704 126.515588 
L 303.803498 126.845593 
L 303.927084 126.515588 
L 304.236051 126.515588 
L 304.359638 126.184342 
L 304.853984 126.184342 
L 304.977571 125.851827 
L 305.039364 126.184342 
L 305.162951 125.851827 
L 305.224744 125.851827 
L 305.286538 125.518045 
L 305.410124 125.851827 
L 305.533711 125.518045 
L 305.595504 125.518045 
L 305.719091 125.851827 
L 305.842678 125.183021 
L 305.966264 125.518045 
L 306.028058 125.518045 
L 306.151644 125.183021 
L 306.213438 125.518045 
L 306.337024 125.183021 
L 306.398818 125.183021 
L 306.460611 124.846674 
L 306.584198 125.183021 
L 306.707784 124.846674 
L 307.202131 124.846674 
L 307.325718 124.509086 
L 307.634684 124.509086 
L 307.696478 124.170174 
L 307.820064 124.509086 
L 307.943651 124.170174 
L 308.314411 124.170174 
L 308.437998 123.829967 
L 308.499791 124.170174 
L 308.623378 123.829967 
L 308.808758 123.829967 
L 308.870551 123.488463 
L 308.994138 123.829967 
L 309.117724 123.488463 
L 309.488484 123.488463 
L 309.612071 123.145636 
L 309.673864 123.488463 
L 309.797451 123.145636 
L 309.982831 123.145636 
L 310.044624 122.801458 
L 310.168211 123.145636 
L 310.291798 122.801458 
L 310.724351 122.801458 
L 310.847938 122.455984 
L 310.909731 122.801458 
L 311.033318 122.455984 
L 311.218698 122.455984 
L 311.280491 122.109159 
L 311.404078 122.455984 
L 311.527664 122.109159 
L 311.960218 122.109159 
L 312.083804 121.760982 
L 312.207391 121.760982 
L 312.269184 122.109159 
L 312.392771 121.411455 
L 312.516358 121.760982 
L 312.639944 121.411455 
L 312.763531 121.760982 
L 312.887118 121.411455 
L 313.072498 121.411455 
L 313.196084 121.060576 
L 313.257878 121.411455 
L 313.381464 121.060576 
L 313.443258 121.411455 
L 313.566844 121.060576 
L 313.628638 121.060576 
L 313.690431 120.708319 
L 313.814018 121.060576 
L 313.937604 120.708319 
L 314.431951 120.708319 
L 314.555538 120.354683 
L 314.617331 120.708319 
L 314.740918 120.354683 
L 314.926298 120.354683 
L 315.049884 119.999668 
L 315.173471 120.354683 
L 315.297058 119.999668 
L 315.606024 119.999668 
L 315.729611 119.643247 
L 315.791404 119.999668 
L 315.914991 119.643247 
L 316.223958 119.643247 
L 316.285751 119.28542 
L 316.409338 119.643247 
L 316.532924 119.28542 
L 316.903684 119.28542 
L 317.027271 118.926186 
L 317.089064 119.28542 
L 317.212651 118.926186 
L 317.521618 118.926186 
L 317.645204 118.565519 
L 317.768791 118.926186 
L 317.892378 118.565519 
L 318.077758 118.565519 
L 318.201344 118.203445 
L 318.324931 118.565519 
L 318.448518 118.203445 
L 318.757484 118.203445 
L 318.819278 117.839938 
L 318.942864 118.203445 
L 319.066451 117.839938 
L 319.499004 117.839938 
L 319.622591 117.474969 
L 319.684384 117.839938 
L 319.807971 117.474969 
L 319.993351 117.474969 
L 320.055144 117.108538 
L 320.178731 117.474969 
L 320.302318 117.108538 
L 320.425904 117.474969 
L 320.549491 117.108538 
L 320.611284 117.108538 
L 320.734871 116.740674 
L 320.858458 117.108538 
L 320.982044 116.740674 
L 321.043838 117.108538 
L 321.167424 116.740674 
L 321.352804 116.740674 
L 321.414598 116.371321 
L 321.538184 116.740674 
L 321.661771 116.371321 
L 322.156118 116.371321 
L 322.279704 116.000479 
L 322.341498 116.371321 
L 322.465084 116.000479 
L 322.650464 116.000479 
L 322.712258 115.628148 
L 322.835844 116.000479 
L 322.959431 115.628148 
L 323.515571 115.628148 
L 323.639158 115.254327 
L 323.700951 115.628148 
L 323.824538 115.254327 
L 324.009918 115.254327 
L 324.071711 114.879018 
L 324.195298 115.254327 
L 324.318884 114.879018 
L 324.813231 114.879018 
L 324.936818 114.502165 
L 324.998611 114.879018 
L 325.122198 114.502165 
L 325.183991 114.879018 
L 325.307578 114.123795 
L 325.431164 114.502165 
L 325.492958 114.123795 
L 325.616544 114.502165 
L 325.740131 114.123795 
L 326.172684 114.123795 
L 326.296271 113.743881 
L 326.358064 114.123795 
L 326.481651 113.743881 
L 326.790618 113.743881 
L 326.852411 113.362423 
L 326.975998 113.743881 
L 327.099584 113.362423 
L 327.532138 113.362423 
L 327.655724 112.979421 
L 327.717518 113.362423 
L 327.841104 112.979421 
L 327.902898 113.362423 
L 328.026484 112.594874 
L 328.150071 112.979421 
L 328.273658 112.979421 
L 328.397244 112.594874 
L 328.459038 112.594874 
L 328.582624 112.979421 
L 328.768004 112.208728 
L 328.829798 112.208728 
L 328.953384 112.594874 
L 329.015178 112.594874 
L 329.138764 112.208728 
L 329.200558 112.594874 
L 329.324144 112.208728 
L 329.509524 112.208728 
L 329.571318 111.821011 
L 329.694904 112.208728 
L 329.818491 111.821011 
L 329.942078 112.208728 
L 330.065664 111.821011 
L 330.189251 111.821011 
L 330.312838 111.431694 
L 330.436424 111.821011 
L 330.560011 111.431694 
L 330.621804 111.821011 
L 330.745391 111.431694 
L 330.930771 111.431694 
L 330.992564 111.040778 
L 331.116151 111.431694 
L 331.239738 111.040778 
L 331.363324 111.431694 
L 331.486911 111.040778 
L 331.610498 111.040778 
L 331.734084 110.648235 
L 331.857671 111.040778 
L 331.981258 110.648235 
L 332.043051 111.040778 
L 332.166638 110.648235 
L 332.352018 110.648235 
L 332.413811 110.254093 
L 332.537398 110.648235 
L 332.660984 110.254093 
L 332.784571 110.648235 
L 332.908158 110.254093 
L 333.093538 110.254093 
L 333.217124 109.858324 
L 333.340711 110.254093 
L 333.464298 109.858324 
L 333.526091 110.254093 
L 333.649678 109.858324 
L 333.835058 109.858324 
L 333.896851 109.460901 
L 334.020438 109.858324 
L 334.144024 109.460901 
L 334.700164 109.460901 
L 334.823751 109.061823 
L 334.885544 109.460901 
L 335.009131 109.061823 
L 335.070924 109.460901 
L 335.194511 109.061823 
L 335.256304 109.061823 
L 335.318098 108.661063 
L 335.441684 109.061823 
L 335.565271 108.661063 
L 335.627064 108.661063 
L 335.750651 109.061823 
L 335.874238 108.661063 
L 335.997824 108.661063 
L 336.121411 108.258648 
L 336.244998 108.661063 
L 336.368584 108.258648 
L 336.430378 108.661063 
L 336.553964 108.258648 
L 336.862931 108.258648 
L 336.986518 107.854552 
L 337.110104 108.258648 
L 337.233691 107.854552 
L 337.604451 107.854552 
L 337.728038 107.448774 
L 337.789831 107.854552 
L 337.913418 107.448774 
L 337.975211 107.854552 
L 338.098798 107.448774 
L 338.284178 107.448774 
L 338.345971 107.041286 
L 338.469558 107.448774 
L 338.593144 107.041286 
L 339.211078 107.041286 
L 339.334664 106.63206 
L 339.396458 107.041286 
L 339.520044 106.63206 
L 339.829011 106.63206 
L 339.890804 106.221126 
L 340.014391 106.63206 
L 340.137978 106.221126 
L 340.755911 106.221126 
L 340.879498 105.808454 
L 340.941291 106.221126 
L 341.064878 105.808454 
L 341.373844 105.808454 
L 341.497431 105.394017 
L 341.621018 105.808454 
L 341.744604 105.394017 
L 342.238951 105.394017 
L 342.362538 104.977843 
L 342.424331 105.394017 
L 342.547918 104.977843 
L 342.609711 105.394017 
L 342.733298 104.559877 
L 342.856884 104.977843 
L 342.980471 104.977843 
L 343.042264 104.559877 
L 343.165851 104.977843 
L 343.289438 104.559877 
L 343.783784 104.559877 
L 343.907371 104.140147 
L 343.969164 104.559877 
L 344.092751 104.140147 
L 344.154544 104.559877 
L 344.278131 104.140147 
L 344.339924 104.140147 
L 344.401718 103.718623 
L 344.525304 104.140147 
L 344.587098 103.718623 
L 344.710684 104.140147 
L 344.834271 103.718623 
L 345.390411 103.718623 
L 345.513998 103.29528 
L 345.575791 103.718623 
L 345.699378 103.29528 
L 345.761171 103.718623 
L 345.884758 103.29528 
L 345.946551 103.29528 
L 346.008344 102.870117 
L 346.131931 103.29528 
L 346.193724 102.870117 
L 346.317311 103.29528 
L 346.440898 102.870117 
L 346.997038 102.870117 
L 347.120624 102.443135 
L 347.182418 102.870117 
L 347.306004 102.443135 
L 347.738558 102.443135 
L 347.862144 102.014304 
L 347.985731 102.443135 
L 348.109318 102.014304 
L 348.541871 102.014304 
L 348.665458 101.583627 
L 348.789044 102.014304 
L 348.912631 101.583627 
L 349.345184 101.583627 
L 349.406978 101.151102 
L 349.530564 101.583627 
L 349.654151 101.151102 
L 350.272084 101.151102 
L 350.395671 100.716674 
L 350.457464 101.151102 
L 350.581051 100.716674 
L 351.013604 100.716674 
L 351.137191 100.280371 
L 351.260778 100.716674 
L 351.384364 100.280371 
L 351.816918 100.280371 
L 351.940504 99.842166 
L 352.064091 100.280371 
L 352.187678 99.842166 
L 352.311264 99.842166 
L 352.373058 100.280371 
L 352.496644 99.402058 
L 352.620231 99.842166 
L 352.743818 99.842166 
L 352.867404 99.402058 
L 352.929198 99.402058 
L 353.052784 99.842166 
L 353.176371 99.402058 
L 353.361751 99.402058 
L 353.485338 98.96002 
L 353.608924 99.402058 
L 353.670718 99.402058 
L 353.794304 98.96002 
L 353.856098 99.402058 
L 353.979684 98.96002 
L 354.288651 98.96002 
L 354.350444 98.516024 
L 354.474031 98.96002 
L 354.597618 98.516024 
L 354.659411 98.516024 
L 354.782998 98.96002 
L 354.906584 98.516024 
L 355.030171 98.516024 
L 355.153758 98.070098 
L 355.277344 98.516024 
L 355.339138 98.516024 
L 355.462724 98.070098 
L 355.524518 98.516024 
L 355.648104 98.070098 
L 356.080658 98.070098 
L 356.204244 97.622186 
L 356.327831 98.070098 
L 356.451418 97.622186 
L 356.945764 97.622186 
L 357.069351 97.172317 
L 357.131144 97.622186 
L 357.254731 97.172317 
L 357.316524 97.622186 
L 357.440111 97.172317 
L 357.749078 97.172317 
L 357.872664 96.720435 
L 357.996251 97.172317 
L 358.119838 96.720435 
L 358.737771 96.720435 
L 358.861358 96.266568 
L 358.923151 96.720435 
L 359.046738 96.266568 
L 359.108531 96.720435 
L 359.232118 96.266568 
L 359.417498 96.266568 
L 359.479291 95.810687 
L 359.602878 96.266568 
L 359.726464 95.810687 
L 359.850051 96.266568 
L 359.973638 95.810687 
L 360.406191 95.810687 
L 360.529778 95.352767 
L 360.653364 95.810687 
L 360.776951 95.352767 
L 360.900538 95.352767 
L 360.962331 95.810687 
L 361.085918 95.352767 
L 361.147711 95.352767 
L 361.209504 94.892778 
L 361.333091 95.352767 
L 361.394884 94.892778 
L 361.518471 95.352767 
L 361.642058 94.892778 
L 362.259991 94.892778 
L 362.383578 94.430776 
L 362.445371 94.892778 
L 362.568958 94.430776 
L 362.630751 94.892778 
L 362.754338 94.430776 
L 362.939718 94.430776 
L 363.001511 93.966679 
L 363.125098 94.430776 
L 363.186891 93.966679 
L 363.310478 94.430776 
L 363.434064 93.966679 
L 364.051998 93.966679 
L 364.175584 93.500486 
L 364.299171 93.966679 
L 364.422758 93.500486 
L 364.855311 93.500486 
L 364.917104 93.032197 
L 365.040691 93.500486 
L 365.164278 93.032197 
L 365.287864 93.500486 
L 365.411451 93.032197 
L 365.720418 93.032197 
L 365.844005 92.561813 
L 365.967591 93.032197 
L 366.029385 93.032197 
L 366.152971 92.561813 
L 366.276558 92.561813 
L 366.338351 93.032197 
L 366.461938 92.561813 
L 366.523731 92.561813 
L 366.585525 92.089306 
L 366.709111 92.561813 
L 366.832698 92.561813 
L 366.956285 92.089306 
L 367.018078 92.089306 
L 367.141665 92.561813 
L 367.265251 92.089306 
L 367.636011 92.089306 
L 367.759598 91.61462 
L 367.883185 92.089306 
L 368.006771 91.61462 
L 368.068565 92.089306 
L 368.192151 91.61462 
L 368.501118 91.61462 
L 368.562911 91.137811 
L 368.686498 91.61462 
L 368.810085 91.137811 
L 368.933671 91.61462 
L 369.057258 91.137811 
L 369.551605 91.137811 
L 369.675191 90.658796 
L 369.798778 91.137811 
L 369.922365 90.658796 
L 370.045951 90.658796 
L 370.107745 91.137811 
L 370.231331 90.658796 
L 370.293125 90.658796 
L 370.354918 90.177631 
L 370.478505 90.658796 
L 370.540298 90.177631 
L 370.663885 90.658796 
L 370.787471 90.177631 
L 370.849265 90.177631 
L 370.972851 90.658796 
L 371.096438 90.177631 
L 371.281818 90.177631 
L 371.405405 89.694232 
L 371.528991 90.177631 
L 371.590785 90.177631 
L 371.714371 89.694232 
L 371.776165 90.177631 
L 371.899751 89.694232 
L 372.332305 89.694232 
L 372.394098 89.208627 
L 372.517685 89.694232 
L 372.641271 89.208627 
L 372.764858 89.694232 
L 372.888445 89.208627 
L 373.320998 89.208627 
L 373.444585 88.720788 
L 373.568171 89.208627 
L 373.691758 88.720788 
L 373.753551 89.208627 
L 373.877138 88.720788 
L 374.309691 88.720788 
L 374.371485 88.230716 
L 374.495071 88.720788 
L 374.618658 88.230716 
L 374.742245 88.230716 
L 374.865831 88.720788 
L 374.989418 88.230716 
L 375.113005 88.230716 
L 375.236591 87.738383 
L 375.360178 88.230716 
L 375.421971 88.230716 
L 375.545558 87.738383 
L 375.669145 88.230716 
L 375.792731 87.738383 
L 376.225285 87.738383 
L 376.287078 87.243734 
L 376.410665 87.738383 
L 376.534251 87.243734 
L 376.596045 87.243734 
L 376.719631 87.738383 
L 376.843218 87.243734 
L 377.213978 87.243734 
L 377.337565 86.746823 
L 377.461151 87.243734 
L 377.584738 86.746823 
L 377.646531 87.243734 
L 377.770118 86.746823 
L 378.202671 86.746823 
L 378.264465 86.247597 
L 378.388051 86.746823 
L 378.449845 86.247597 
L 378.573431 86.746823 
L 378.697018 86.247597 
L 379.253158 86.247597 
L 379.376745 85.746027 
L 379.500331 86.247597 
L 379.623918 85.746027 
L 379.685711 86.247597 
L 379.809298 85.746027 
L 380.241851 85.746027 
L 380.303645 85.242112 
L 380.427231 85.746027 
L 380.550818 85.242112 
L 380.612611 85.242112 
L 380.736198 85.746027 
L 380.859785 85.242112 
L 381.168751 85.242112 
L 381.292338 84.735855 
L 381.415925 85.242112 
L 381.477718 85.242112 
L 381.601305 84.735855 
L 381.663098 85.242112 
L 381.786685 84.735855 
L 381.910271 84.735855 
L 381.972065 85.242112 
L 382.095651 84.227225 
L 382.219238 84.735855 
L 382.342825 84.735855 
L 382.466411 84.227225 
L 382.589998 84.735855 
L 382.713585 84.227225 
L 383.455105 84.227225 
L 383.578691 83.716197 
L 383.640485 84.227225 
L 383.764071 83.716197 
L 383.825865 84.227225 
L 383.949451 83.716197 
L 384.258418 83.716197 
L 384.320211 83.202742 
L 384.443798 83.716197 
L 384.567385 83.202742 
L 384.690971 83.716197 
L 384.814558 83.202742 
L 385.494285 83.202742 
L 385.617871 82.686861 
L 385.679665 83.202742 
L 385.803251 82.686861 
L 385.865045 83.202742 
L 385.988631 82.686861 
L 386.421185 82.686861 
L 386.482978 82.168553 
L 386.606565 82.686861 
L 386.730151 82.168553 
L 386.853738 82.686861 
L 386.977325 82.168553 
L 387.471671 82.168553 
L 387.595258 81.647764 
L 387.718845 82.168553 
L 387.842431 81.647764 
L 387.904225 82.168553 
L 388.027811 81.647764 
L 388.089605 82.168553 
L 388.213191 81.647764 
L 388.398571 81.647764 
L 388.460365 81.124521 
L 388.583951 81.647764 
L 388.645745 81.124521 
L 388.769331 81.647764 
L 388.892918 81.124521 
L 389.016505 81.647764 
L 389.140091 81.124521 
L 389.572645 81.124521 
L 389.696231 80.59874 
L 389.819818 81.124521 
L 389.881611 81.124521 
L 390.005198 80.59874 
L 390.066991 81.124521 
L 390.190578 80.59874 
L 390.623131 80.59874 
L 390.684925 80.070478 
L 390.808511 80.59874 
L 390.870305 80.070478 
L 390.993891 80.59874 
L 391.117478 80.070478 
L 391.920791 80.070478 
L 392.044378 79.53968 
L 392.106171 80.070478 
L 392.229758 79.53968 
L 392.291551 80.070478 
L 392.415138 79.53968 
L 392.847691 79.53968 
L 392.909485 79.006317 
L 393.033071 79.53968 
L 393.156658 79.006317 
L 393.280245 79.53968 
L 393.403831 79.006317 
L 394.021765 79.006317 
L 394.145351 78.470389 
L 394.268938 79.006317 
L 394.392525 78.470389 
L 394.454318 79.006317 
L 394.577905 78.470389 
L 395.010458 78.470389 
L 395.072251 77.93187 
L 395.195838 78.470389 
L 395.257631 77.93187 
L 395.381218 78.470389 
L 395.504805 77.93187 
L 395.690185 77.93187 
L 395.813771 78.470389 
L 395.999151 77.390731 
L 396.122738 77.93187 
L 396.308118 77.93187 
L 396.431705 77.390731 
L 396.555291 77.93187 
L 396.678878 77.390731 
L 396.740671 77.93187 
L 396.864258 77.390731 
L 397.173225 77.390731 
L 397.235018 76.846972 
L 397.358605 77.390731 
L 397.420398 76.846972 
L 397.543985 77.390731 
L 397.667571 76.846972 
L 397.791158 77.390731 
L 397.914745 76.846972 
L 398.409091 76.846972 
L 398.532678 76.300594 
L 398.656265 76.846972 
L 398.718058 76.846972 
L 398.841645 76.300594 
L 398.903438 76.846972 
L 399.027025 76.300594 
L 399.583165 76.300594 
L 399.644958 75.751514 
L 399.768545 76.300594 
L 399.892131 75.751514 
L 400.015718 76.300594 
L 400.139305 75.751514 
L 400.757238 75.751514 
L 400.880825 75.199759 
L 401.004411 75.751514 
L 401.127998 75.199759 
L 401.189791 75.751514 
L 401.313378 75.199759 
L 401.436965 75.199759 
L 401.498758 75.751514 
L 401.622345 75.199759 
L 401.684138 75.199759 
L 401.745931 74.645329 
L 401.869518 75.199759 
L 401.931311 74.645329 
L 402.054898 75.199759 
L 402.116691 74.645329 
L 402.240278 75.199759 
L 402.363865 74.645329 
L 403.167178 74.645329 
L 403.290765 74.088142 
L 403.352558 74.645329 
L 403.476145 74.088142 
L 403.537938 74.645329 
L 403.661525 74.088142 
L 403.723318 74.645329 
L 403.846905 74.088142 
L 404.032285 74.088142 
L 404.094078 73.528225 
L 404.217665 74.088142 
L 404.279458 73.528225 
L 404.403045 74.088142 
L 404.526631 73.528225 
L 404.650218 74.088142 
L 404.773805 73.528225 
L 405.453531 73.528225 
L 405.577118 72.965524 
L 405.700705 73.528225 
L 405.824291 72.965524 
L 405.886085 73.528225 
L 406.009671 72.965524 
L 406.133258 72.965524 
L 406.195051 73.528225 
L 406.318638 72.400064 
L 406.442225 72.965524 
L 406.565811 72.965524 
L 406.627605 72.400064 
L 406.751191 72.965524 
L 406.874778 72.400064 
L 406.998365 72.965524 
L 407.121951 72.400064 
L 407.863471 72.400064 
L 407.987058 71.831765 
L 408.110645 72.400064 
L 408.234231 71.831765 
L 408.296025 72.400064 
L 408.419611 71.831765 
L 408.975751 71.831765 
L 409.037545 71.260653 
L 409.161131 71.831765 
L 409.284718 71.260653 
L 409.408305 71.831765 
L 409.531891 71.260653 
L 410.273411 71.260653 
L 410.396998 70.686701 
L 410.520585 71.260653 
L 410.644171 70.686701 
L 410.705965 71.260653 
L 410.829551 70.686701 
L 411.385691 70.686701 
L 411.447485 70.109882 
L 411.571071 70.686701 
L 411.694658 70.109882 
L 411.818245 70.686701 
L 411.941831 70.109882 
L 412.745145 70.109882 
L 412.868731 69.530167 
L 412.992318 70.109882 
L 413.115905 69.530167 
L 413.177698 70.109882 
L 413.301285 69.530167 
L 413.857425 69.530167 
L 413.919218 68.947529 
L 414.042805 69.530167 
L 414.166391 68.947529 
L 414.289978 69.530167 
L 414.413565 68.947529 
L 414.660738 68.947529 
L 414.784325 69.530167 
L 414.907911 68.361968 
L 415.031498 68.947529 
L 415.278671 68.947529 
L 415.402258 68.361968 
L 415.464051 68.947529 
L 415.587638 68.361968 
L 415.649431 68.947529 
L 415.773018 68.361968 
L 415.834811 68.947529 
L 415.958398 68.361968 
L 416.267365 68.361968 
L 416.329158 67.773457 
L 416.452745 68.361968 
L 416.514538 67.773457 
L 416.638125 68.361968 
L 416.761711 67.773457 
L 416.823505 67.773457 
L 416.947091 68.361968 
L 417.070678 67.773457 
L 417.626818 67.773457 
L 417.750405 67.181941 
L 417.873991 67.773457 
L 417.935785 67.773457 
L 418.059371 67.181941 
L 418.121165 67.773457 
L 418.244751 67.181941 
L 418.306545 67.773457 
L 418.430131 67.181941 
L 418.739098 67.181941 
L 418.800891 66.587446 
L 418.924478 67.181941 
L 418.986271 66.587446 
L 419.109858 67.181941 
L 419.171651 66.587446 
L 419.295238 67.181941 
L 419.418825 66.587446 
L 419.604205 66.587446 
L 419.727791 67.181941 
L 419.851378 66.587446 
L 419.974965 66.587446 
L 420.098551 65.989918 
L 420.222138 66.587446 
L 420.345725 66.587446 
L 420.469311 65.989918 
L 420.592898 66.587446 
L 420.716485 65.989918 
L 420.778278 66.587446 
L 420.901865 65.989918 
L 421.458005 65.989918 
L 421.519798 65.38933 
L 421.643385 65.989918 
L 421.705178 65.38933 
L 421.828765 65.989918 
L 421.952351 65.38933 
L 422.014145 65.38933 
L 422.137731 65.989918 
L 422.261318 65.38933 
L 422.693871 65.38933 
L 422.817458 64.785681 
L 422.941045 65.38933 
L 423.064631 65.38933 
L 423.188218 64.785681 
L 423.250011 65.38933 
L 423.373598 64.785681 
L 423.435391 65.38933 
L 423.558978 64.785681 
L 423.991531 64.785681 
L 424.053325 64.178916 
L 424.176911 64.785681 
L 424.238705 64.178916 
L 424.362291 64.785681 
L 424.485878 64.178916 
L 424.609465 64.785681 
L 424.733051 64.178916 
L 425.536365 64.178916 
L 425.659951 63.569063 
L 425.783538 64.178916 
L 425.907125 63.569063 
L 425.968918 64.178916 
L 426.092505 63.569063 
L 426.154298 64.178916 
L 426.277885 63.569063 
L 426.586851 63.569063 
L 426.648645 62.956066 
L 426.772231 63.569063 
L 426.895818 63.569063 
L 427.019405 62.956066 
L 427.142991 63.569063 
L 427.266578 62.956066 
L 427.328371 62.956066 
L 427.451958 63.569063 
L 427.575545 62.956066 
L 428.008098 62.956066 
L 428.131685 62.339871 
L 428.255271 62.956066 
L 428.378858 62.956066 
L 428.502445 62.339871 
L 428.564238 62.956066 
L 428.687825 62.339871 
L 428.749618 62.956066 
L 428.873205 62.339871 
L 429.429345 62.339871 
L 429.491138 61.720504 
L 429.614725 62.339871 
L 429.676518 61.720504 
L 429.800105 62.339871 
L 429.923691 61.720504 
L 430.047278 61.720504 
L 430.170865 62.339871 
L 430.294451 61.720504 
L 430.727005 61.720504 
L 430.850591 61.097912 
L 430.974178 61.720504 
L 431.097765 61.720504 
L 431.221351 61.097912 
L 431.283145 61.720504 
L 431.406731 61.097912 
L 431.468525 61.720504 
L 431.592111 61.097912 
L 432.148251 61.097912 
L 432.210045 60.472093 
L 432.333631 61.097912 
L 432.395425 60.472093 
L 432.519011 61.097912 
L 432.642598 60.472093 
L 432.766185 61.097912 
L 432.889771 60.472093 
L 433.631291 60.472093 
L 433.754878 59.842993 
L 433.878465 60.472093 
L 434.002051 59.842993 
L 434.125638 60.472093 
L 434.249225 59.842993 
L 434.372811 59.842993 
L 434.434605 60.472093 
L 434.558191 59.842993 
L 434.743571 59.842993 
L 434.805365 59.210585 
L 434.928951 59.842993 
L 435.052538 59.842993 
L 435.114331 59.210585 
L 435.237918 59.842993 
L 435.361505 59.210585 
L 435.423298 59.210585 
L 435.546885 59.842993 
L 435.670471 59.210585 
L 436.473785 59.210585 
L 436.597371 58.574867 
L 436.720958 59.210585 
L 436.844545 58.574867 
L 436.968131 59.210585 
L 437.091718 58.574867 
L 437.338891 58.574867 
L 437.400685 59.210585 
L 437.524271 57.935813 
L 437.647858 58.574867 
L 437.771445 58.574867 
L 437.833238 57.935813 
L 437.956825 58.574867 
L 438.018618 57.935813 
L 438.142205 58.574867 
L 438.265791 57.935813 
L 438.389378 58.574867 
L 438.512965 57.935813 
L 439.254485 57.935813 
L 439.378071 57.293395 
L 439.501658 57.935813 
L 439.563451 57.935813 
L 439.687038 57.293395 
L 439.748831 57.935813 
L 439.872418 57.293395 
L 439.934211 57.935813 
L 440.057798 57.293395 
L 440.613938 57.293395 
L 440.675731 56.647558 
L 440.799318 57.293395 
L 440.861111 56.647558 
L 440.984698 57.293395 
L 441.108285 56.647558 
L 441.231871 57.293395 
L 441.355458 56.647558 
L 442.220565 56.647558 
L 442.344151 55.998301 
L 442.467738 56.647558 
L 442.591325 55.998301 
L 442.653118 56.647558 
L 442.776705 55.998301 
L 442.838498 56.647558 
L 442.962085 55.998301 
L 443.085671 55.998301 
L 443.147465 56.647558 
L 443.271051 55.345598 
L 443.394638 55.998301 
L 443.641811 55.998301 
L 443.765398 55.345598 
L 443.888985 55.998301 
L 444.012571 55.345598 
L 444.136158 55.998301 
L 444.259745 55.345598 
L 444.506918 55.345598 
L 444.630505 55.998301 
L 444.815885 54.689393 
L 444.939471 55.345598 
L 445.186645 55.345598 
L 445.310231 54.689393 
L 445.433818 55.345598 
L 445.557405 54.689393 
L 445.680991 55.345598 
L 445.804578 54.689393 
L 446.051751 54.689393 
L 446.113545 55.345598 
L 446.237131 54.029713 
L 446.360718 54.689393 
L 446.607891 54.689393 
L 446.731478 54.029713 
L 446.855065 54.689393 
L 446.978651 54.029713 
L 447.102238 54.689393 
L 447.225825 54.029713 
L 447.411205 54.029713 
L 447.534791 54.689393 
L 447.658378 54.029713 
L 447.720171 54.029713 
L 447.843758 53.366477 
L 447.967345 54.029713 
L 448.214518 54.029713 
L 448.338105 53.366477 
L 448.461691 54.029713 
L 448.585278 53.366477 
L 448.647071 54.029713 
L 448.770658 53.366477 
L 448.832451 54.029713 
L 448.956038 53.366477 
L 449.388591 53.366477 
L 449.450385 52.699656 
L 449.573971 53.366477 
L 449.697558 53.366477 
L 449.821145 52.699656 
L 449.944731 53.366477 
L 450.068318 52.699656 
L 450.130111 52.699656 
L 450.253698 53.366477 
L 450.377285 52.699656 
L 451.118805 52.699656 
L 451.242391 52.029278 
L 451.365978 52.699656 
L 451.489565 52.029278 
L 451.613151 52.699656 
L 451.736738 52.029278 
L 451.798531 52.699656 
L 451.922118 52.029278 
L 452.601845 52.029278 
L 452.663638 51.35526 
L 452.787225 52.029278 
L 452.910811 51.35526 
L 453.034398 52.029278 
L 453.157985 51.35526 
L 453.219778 51.35526 
L 453.343365 52.029278 
L 453.466951 51.35526 
L 454.146678 51.35526 
L 454.270265 50.677575 
L 454.393851 51.35526 
L 454.455645 51.35526 
L 454.579231 50.677575 
L 454.702818 51.35526 
L 454.826405 50.677575 
L 454.949991 50.677575 
L 455.011785 51.35526 
L 455.135371 50.677575 
L 455.567925 50.677575 
L 455.629718 49.996222 
L 455.753305 50.677575 
L 455.876891 50.677575 
L 456.000478 49.996222 
L 456.124065 50.677575 
L 456.247651 49.996222 
L 456.371238 50.677575 
L 456.494825 49.996222 
L 457.298138 49.996222 
L 457.421725 49.311147 
L 457.545311 49.996222 
L 457.607105 49.996222 
L 457.730691 49.311147 
L 457.854278 49.996222 
L 457.977865 49.311147 
L 458.101451 49.311147 
L 458.163245 49.996222 
L 458.286831 49.311147 
L 458.719385 49.311147 
L 458.781178 48.622322 
L 458.904765 49.311147 
L 459.028351 49.311147 
L 459.151938 48.622322 
L 459.275525 49.311147 
L 459.399111 48.622322 
L 459.522698 49.311147 
L 459.646285 48.622322 
L 460.511391 48.622322 
L 460.634978 47.929747 
L 460.758565 48.622322 
L 460.820358 48.622322 
L 460.943945 47.929747 
L 461.005738 48.622322 
L 461.129325 47.929747 
L 461.191118 48.622322 
L 461.314705 47.929747 
L 461.376498 48.622322 
L 461.500085 47.929747 
L 461.932638 47.929747 
L 461.994431 47.233339 
L 462.118018 47.929747 
L 462.179811 47.233339 
L 462.303398 47.929747 
L 462.365191 47.233339 
L 462.488778 47.929747 
L 462.612365 47.233339 
L 462.674158 47.233339 
L 462.797745 47.929747 
L 462.921331 47.233339 
L 463.724645 47.233339 
L 463.848231 46.533126 
L 463.971818 47.233339 
L 464.033611 47.233339 
L 464.157198 46.533126 
L 464.218991 47.233339 
L 464.342578 46.533126 
L 464.404371 47.233339 
L 464.527958 46.533126 
L 464.589751 47.233339 
L 464.713338 46.533126 
L 465.269478 46.533126 
L 465.331271 45.829025 
L 465.454858 46.533126 
L 465.516651 45.829025 
L 465.640238 46.533126 
L 465.763825 45.829025 
L 465.887411 46.533126 
L 466.010998 45.829025 
L 466.134585 45.829025 
L 466.258171 46.533126 
L 466.381758 45.829025 
L 466.814311 45.829025 
L 466.937898 45.121008 
L 467.061485 45.829025 
L 467.246865 45.829025 
L 467.370451 45.121008 
L 467.432245 45.829025 
L 467.555831 45.121008 
L 467.679418 45.829025 
L 467.803005 45.121008 
L 467.926591 45.121008 
L 467.988385 45.829025 
L 468.111971 45.121008 
L 468.420938 45.121008 
L 468.482731 44.409076 
L 468.606318 45.121008 
L 468.729905 45.121008 
L 468.791698 44.409076 
L 468.915285 45.121008 
L 469.038871 44.409076 
L 469.162458 45.121008 
L 469.286045 44.409076 
L 469.409631 44.409076 
L 469.533218 45.121008 
L 469.656805 44.409076 
L 470.274738 44.409076 
L 470.398325 43.693201 
L 470.521911 44.409076 
L 470.583705 44.409076 
L 470.707291 43.693201 
L 470.830878 44.409076 
L 470.954465 43.693201 
L 471.016258 44.409076 
L 471.139845 43.693201 
L 471.201638 44.409076 
L 471.325225 43.693201 
L 472.004951 43.693201 
L 472.066745 42.9733 
L 472.190331 43.693201 
L 472.252125 42.9733 
L 472.375711 43.693201 
L 472.499298 42.9733 
L 472.561091 42.9733 
L 472.684678 43.693201 
L 472.808265 42.9733 
L 472.993645 42.9733 
L 473.117231 43.693201 
L 473.240818 42.9733 
L 473.302611 42.9733 
L 473.426136 41.78125 
L 473.426136 41.78125 
" style="fill:none;stroke:#00bfbf;stroke-linecap:square;stroke-width:2;"/>
   </g>
   <g id="patch_3">
    <path d="M 58.175 314.3875 
L 58.175 28.8 
" style="fill:none;stroke:#000000;stroke-linecap:square;stroke-linejoin:miter;stroke-width:0.8;"/>
   </g>
   <g id="patch_4">
    <path d="M 493.2 314.3875 
L 493.2 28.8 
" style="fill:none;stroke:#000000;stroke-linecap:square;stroke-linejoin:miter;stroke-width:0.8;"/>
   </g>
   <g id="patch_5">
    <path d="M 58.175 314.3875 
L 493.2 314.3875 
" style="fill:none;stroke:#000000;stroke-linecap:square;stroke-linejoin:miter;stroke-width:0.8;"/>
   </g>
   <g id="patch_6">
    <path d="M 58.175 28.8 
L 493.2 28.8 
" style="fill:none;stroke:#000000;stroke-linecap:square;stroke-linejoin:miter;stroke-width:0.8;"/>
   </g>
   <g id="text_15">
    <!-- The $g_{m}$ versus the $I_{D}$ -->
    <g transform="translate(214.0075 22.8)scale(0.12 -0.12)">
     <defs>
      <path d="M -0.296875 72.90625 
L 61.375 72.90625 
L 61.375 64.59375 
L 35.5 64.59375 
L 35.5 0 
L 25.59375 0 
L 25.59375 64.59375 
L -0.296875 64.59375 
z
" id="DejaVuSans-84"/>
      <path d="M 54.890625 33.015625 
L 54.890625 0 
L 45.90625 0 
L 45.90625 32.71875 
Q 45.90625 40.484375 42.875 44.328125 
Q 39.84375 48.1875 33.796875 48.1875 
Q 26.515625 48.1875 22.3125 43.546875 
Q 18.109375 38.921875 18.109375 30.90625 
L 18.109375 0 
L 9.078125 0 
L 9.078125 75.984375 
L 18.109375 75.984375 
L 18.109375 46.1875 
Q 21.34375 51.125 25.703125 53.5625 
Q 30.078125 56 35.796875 56 
Q 45.21875 56 50.046875 50.171875 
Q 54.890625 44.34375 54.890625 33.015625 
z
" id="DejaVuSans-104"/>
      <path d="M 56.203125 29.59375 
L 56.203125 25.203125 
L 14.890625 25.203125 
Q 15.484375 15.921875 20.484375 11.0625 
Q 25.484375 6.203125 34.421875 6.203125 
Q 39.59375 6.203125 44.453125 7.46875 
Q 49.3125 8.734375 54.109375 11.28125 
L 54.109375 2.78125 
Q 49.265625 0.734375 44.1875 -0.34375 
Q 39.109375 -1.421875 33.890625 -1.421875 
Q 20.796875 -1.421875 13.15625 6.1875 
Q 5.515625 13.8125 5.515625 26.8125 
Q 5.515625 40.234375 12.765625 48.109375 
Q 20.015625 56 32.328125 56 
Q 43.359375 56 49.78125 48.890625 
Q 56.203125 41.796875 56.203125 29.59375 
z
M 47.21875 32.234375 
Q 47.125 39.59375 43.09375 43.984375 
Q 39.0625 48.390625 32.421875 48.390625 
Q 24.90625 48.390625 20.390625 44.140625 
Q 15.875 39.890625 15.1875 32.171875 
z
" id="DejaVuSans-101"/>
      <path d="M 2.984375 54.6875 
L 12.5 54.6875 
L 29.59375 8.796875 
L 46.6875 54.6875 
L 56.203125 54.6875 
L 35.6875 0 
L 23.484375 0 
z
" id="DejaVuSans-118"/>
      <path d="M 41.109375 46.296875 
Q 39.59375 47.171875 37.8125 47.578125 
Q 36.03125 48 33.890625 48 
Q 26.265625 48 22.1875 43.046875 
Q 18.109375 38.09375 18.109375 28.8125 
L 18.109375 0 
L 9.078125 0 
L 9.078125 54.6875 
L 18.109375 54.6875 
L 18.109375 46.1875 
Q 20.953125 51.171875 25.484375 53.578125 
Q 30.03125 56 36.53125 56 
Q 37.453125 56 38.578125 55.875 
Q 39.703125 55.765625 41.0625 55.515625 
z
" id="DejaVuSans-114"/>
      <path d="M 44.28125 53.078125 
L 44.28125 44.578125 
Q 40.484375 46.53125 36.375 47.5 
Q 32.28125 48.484375 27.875 48.484375 
Q 21.1875 48.484375 17.84375 46.4375 
Q 14.5 44.390625 14.5 40.28125 
Q 14.5 37.15625 16.890625 35.375 
Q 19.28125 33.59375 26.515625 31.984375 
L 29.59375 31.296875 
Q 39.15625 29.25 43.1875 25.515625 
Q 47.21875 21.78125 47.21875 15.09375 
Q 47.21875 7.46875 41.1875 3.015625 
Q 35.15625 -1.421875 24.609375 -1.421875 
Q 20.21875 -1.421875 15.453125 -0.5625 
Q 10.6875 0.296875 5.421875 2 
L 5.421875 11.28125 
Q 10.40625 8.6875 15.234375 7.390625 
Q 20.0625 6.109375 24.8125 6.109375 
Q 31.15625 6.109375 34.5625 8.28125 
Q 37.984375 10.453125 37.984375 14.40625 
Q 37.984375 18.0625 35.515625 20.015625 
Q 33.0625 21.96875 24.703125 23.78125 
L 21.578125 24.515625 
Q 13.234375 26.265625 9.515625 29.90625 
Q 5.8125 33.546875 5.8125 39.890625 
Q 5.8125 47.609375 11.28125 51.796875 
Q 16.75 56 26.8125 56 
Q 31.78125 56 36.171875 55.265625 
Q 40.578125 54.546875 44.28125 53.078125 
z
" id="DejaVuSans-115"/>
      <path d="M 8.5 21.578125 
L 8.5 54.6875 
L 17.484375 54.6875 
L 17.484375 21.921875 
Q 17.484375 14.15625 20.5 10.265625 
Q 23.53125 6.390625 29.59375 6.390625 
Q 36.859375 6.390625 41.078125 11.03125 
Q 45.3125 15.671875 45.3125 23.6875 
L 45.3125 54.6875 
L 54.296875 54.6875 
L 54.296875 0 
L 45.3125 0 
L 45.3125 8.40625 
Q 42.046875 3.421875 37.71875 1 
Q 33.40625 -1.421875 27.6875 -1.421875 
Q 18.265625 -1.421875 13.375 4.4375 
Q 8.5 10.296875 8.5 21.578125 
z
M 31.109375 56 
z
" id="DejaVuSans-117"/>
      <path d="M 18.3125 70.21875 
L 18.3125 54.6875 
L 36.8125 54.6875 
L 36.8125 47.703125 
L 18.3125 47.703125 
L 18.3125 18.015625 
Q 18.3125 11.328125 20.140625 9.421875 
Q 21.96875 7.515625 27.59375 7.515625 
L 36.8125 7.515625 
L 36.8125 0 
L 27.59375 0 
Q 17.1875 0 13.234375 3.875 
Q 9.28125 7.765625 9.28125 18.015625 
L 9.28125 47.703125 
L 2.6875 47.703125 
L 2.6875 54.6875 
L 9.28125 54.6875 
L 9.28125 70.21875 
z
" id="DejaVuSans-116"/>
     </defs>
     <use transform="translate(0 0.015625)" xlink:href="#DejaVuSans-84"/>
     <use transform="translate(61.083984 0.015625)" xlink:href="#DejaVuSans-104"/>
     <use transform="translate(124.462891 0.015625)" xlink:href="#DejaVuSans-101"/>
     <use transform="translate(185.986328 0.015625)" xlink:href="#DejaVuSans-32"/>
     <use transform="translate(217.773438 0.015625)" xlink:href="#DejaVuSans-Oblique-103"/>
     <use transform="translate(281.25 -16.390625)scale(0.7)" xlink:href="#DejaVuSans-Oblique-109"/>
     <use transform="translate(352.172852 0.015625)" xlink:href="#DejaVuSans-32"/>
     <use transform="translate(383.959961 0.015625)" xlink:href="#DejaVuSans-118"/>
     <use transform="translate(443.139648 0.015625)" xlink:href="#DejaVuSans-101"/>
     <use transform="translate(504.663086 0.015625)" xlink:href="#DejaVuSans-114"/>
     <use transform="translate(545.776367 0.015625)" xlink:href="#DejaVuSans-115"/>
     <use transform="translate(597.875977 0.015625)" xlink:href="#DejaVuSans-117"/>
     <use transform="translate(661.254883 0.015625)" xlink:href="#DejaVuSans-115"/>
     <use transform="translate(713.354492 0.015625)" xlink:href="#DejaVuSans-32"/>
     <use transform="translate(745.141602 0.015625)" xlink:href="#DejaVuSans-116"/>
     <use transform="translate(784.350586 0.015625)" xlink:href="#DejaVuSans-104"/>
     <use transform="translate(847.729492 0.015625)" xlink:href="#DejaVuSans-101"/>
     <use transform="translate(909.25293 0.015625)" xlink:href="#DejaVuSans-32"/>
     <use transform="translate(941.040039 0.015625)" xlink:href="#DejaVuSans-Oblique-73"/>
     <use transform="translate(970.532227 -16.390625)scale(0.7)" xlink:href="#DejaVuSans-Oblique-68"/>
    </g>
   </g>
   <g id="legend_1">
    <g id="patch_7">
     <path d="M 65.175 49.41375 
L 120.51375 49.41375 
Q 122.51375 49.41375 122.51375 47.41375 
L 122.51375 35.8 
Q 122.51375 33.8 120.51375 33.8 
L 65.175 33.8 
Q 63.175 33.8 63.175 35.8 
L 63.175 47.41375 
Q 63.175 49.41375 65.175 49.41375 
z
" style="fill:#ffffff;opacity:0.8;stroke:#cccccc;stroke-linejoin:miter;"/>
    </g>
    <g id="line2d_26">
     <path d="M 65.175 41.418125 
L 75.175 41.418125 
" style="fill:none;stroke:#00bfbf;stroke-linecap:square;stroke-width:2;"/>
    </g>
    <g id="line2d_27"/>
    <g id="text_16">
     <!-- LTtrace -->
     <g transform="translate(77.175 44.918125)scale(0.12 -0.12)">
      <defs>
       <path d="M 9.8125 72.90625 
L 19.671875 72.90625 
L 19.671875 8.296875 
L 55.171875 8.296875 
L 55.171875 0 
L 9.8125 0 
z
" id="DejaVuSans-76"/>
       <path d="M 34.28125 27.484375 
Q 23.390625 27.484375 19.1875 25 
Q 14.984375 22.515625 14.984375 16.5 
Q 14.984375 11.71875 18.140625 8.90625 
Q 21.296875 6.109375 26.703125 6.109375 
Q 34.1875 6.109375 38.703125 11.40625 
Q 43.21875 16.703125 43.21875 25.484375 
L 43.21875 27.484375 
z
M 52.203125 31.203125 
L 52.203125 0 
L 43.21875 0 
L 43.21875 8.296875 
Q 40.140625 3.328125 35.546875 0.953125 
Q 30.953125 -1.421875 24.3125 -1.421875 
Q 15.921875 -1.421875 10.953125 3.296875 
Q 6 8.015625 6 15.921875 
Q 6 25.140625 12.171875 29.828125 
Q 18.359375 34.515625 30.609375 34.515625 
L 43.21875 34.515625 
L 43.21875 35.40625 
Q 43.21875 41.609375 39.140625 45 
Q 35.0625 48.390625 27.6875 48.390625 
Q 23 48.390625 18.546875 47.265625 
Q 14.109375 46.140625 10.015625 43.890625 
L 10.015625 52.203125 
Q 14.9375 54.109375 19.578125 55.046875 
Q 24.21875 56 28.609375 56 
Q 40.484375 56 46.34375 49.84375 
Q 52.203125 43.703125 52.203125 31.203125 
z
" id="DejaVuSans-97"/>
       <path d="M 48.78125 52.59375 
L 48.78125 44.1875 
Q 44.96875 46.296875 41.140625 47.34375 
Q 37.3125 48.390625 33.40625 48.390625 
Q 24.65625 48.390625 19.8125 42.84375 
Q 14.984375 37.3125 14.984375 27.296875 
Q 14.984375 17.28125 19.8125 11.734375 
Q 24.65625 6.203125 33.40625 6.203125 
Q 37.3125 6.203125 41.140625 7.25 
Q 44.96875 8.296875 48.78125 10.40625 
L 48.78125 2.09375 
Q 45.015625 0.34375 40.984375 -0.53125 
Q 36.96875 -1.421875 32.421875 -1.421875 
Q 20.0625 -1.421875 12.78125 6.34375 
Q 5.515625 14.109375 5.515625 27.296875 
Q 5.515625 40.671875 12.859375 48.328125 
Q 20.21875 56 33.015625 56 
Q 37.15625 56 41.109375 55.140625 
Q 45.0625 54.296875 48.78125 52.59375 
z
" id="DejaVuSans-99"/>
      </defs>
      <use xlink:href="#DejaVuSans-76"/>
      <use x="41.962891" xlink:href="#DejaVuSans-84"/>
      <use x="103.046875" xlink:href="#DejaVuSans-116"/>
      <use x="142.255859" xlink:href="#DejaVuSans-114"/>
      <use x="183.369141" xlink:href="#DejaVuSans-97"/>
      <use x="244.648438" xlink:href="#DejaVuSans-99"/>
      <use x="299.628906" xlink:href="#DejaVuSans-101"/>
     </g>
    </g>
   </g>
  </g>
 </g>
 <defs>
  <clipPath id="p0f38d62dc5">
   <rect height="285.5875" width="435.025" x="58.175" y="28.8"/>
  </clipPath>
 </defs>
</svg>
