<?xml version="1.0" encoding="utf-8" standalone="no"?>
<!DOCTYPE svg PUBLIC "-//W3C//DTD SVG 1.1//EN"
  "http://www.w3.org/Graphics/SVG/1.1/DTD/svg11.dtd">
<!-- Created with matplotlib (https://matplotlib.org/) -->
<svg height="360pt" version="1.1" viewBox="0 0 504 360" width="504pt" xmlns="http://www.w3.org/2000/svg" xmlns:xlink="http://www.w3.org/1999/xlink">
 <metadata>
  <rdf:RDF xmlns:cc="http://creativecommons.org/ns#" xmlns:dc="http://purl.org/dc/elements/1.1/" xmlns:rdf="http://www.w3.org/1999/02/22-rdf-syntax-ns#">
   <cc:Work>
    <dc:type rdf:resource="http://purl.org/dc/dcmitype/StillImage"/>
    <dc:date>2022-01-10T20:57:34.764994</dc:date>
    <dc:format>image/svg+xml</dc:format>
    <dc:creator>
     <cc:Agent>
      <dc:title>Matplotlib v3.3.4, https://matplotlib.org/</dc:title>
     </cc:Agent>
    </dc:creator>
   </cc:Work>
  </rdf:RDF>
 </metadata>
 <defs>
  <style type="text/css">*{stroke-linecap:butt;stroke-linejoin:round;}</style>
 </defs>
 <g id="figure_1">
  <g id="patch_1">
   <path d="M 0 360 
L 504 360 
L 504 0 
L 0 0 
z
" style="fill:#ffffff;"/>
  </g>
  <g id="axes_1">
   <g id="patch_2">
    <path d="M 67.675 308.6 
L 493.2 308.6 
L 493.2 26.8 
L 67.675 26.8 
z
" style="fill:#ffffff;"/>
   </g>
   <g id="matplotlib.axis_1">
    <g id="xtick_1">
     <g id="line2d_1">
      <path clip-path="url(#pb623dd2c2c)" d="M 87.017045 308.6 
L 87.017045 26.8 
" style="fill:none;stroke:#808080;stroke-linecap:square;stroke-width:0.8;"/>
     </g>
     <g id="line2d_2">
      <defs>
       <path d="M 0 0 
L 0 3.5 
" id="me4bb0bb9d1" style="stroke:#000000;stroke-width:0.8;"/>
      </defs>
      <g>
       <use style="stroke:#000000;stroke-width:0.8;" x="87.017045" xlink:href="#me4bb0bb9d1" y="308.6"/>
      </g>
     </g>
     <g id="text_1">
      <!-- $\mathdefault{10^{0}}$ -->
      <g transform="translate(76.457045 324.718125)scale(0.12 -0.12)">
       <defs>
        <path d="M 12.40625 8.296875 
L 28.515625 8.296875 
L 28.515625 63.921875 
L 10.984375 60.40625 
L 10.984375 69.390625 
L 28.421875 72.90625 
L 38.28125 72.90625 
L 38.28125 8.296875 
L 54.390625 8.296875 
L 54.390625 0 
L 12.40625 0 
z
" id="DejaVuSans-49"/>
        <path d="M 31.78125 66.40625 
Q 24.171875 66.40625 20.328125 58.90625 
Q 16.5 51.421875 16.5 36.375 
Q 16.5 21.390625 20.328125 13.890625 
Q 24.171875 6.390625 31.78125 6.390625 
Q 39.453125 6.390625 43.28125 13.890625 
Q 47.125 21.390625 47.125 36.375 
Q 47.125 51.421875 43.28125 58.90625 
Q 39.453125 66.40625 31.78125 66.40625 
z
M 31.78125 74.21875 
Q 44.046875 74.21875 50.515625 64.515625 
Q 56.984375 54.828125 56.984375 36.375 
Q 56.984375 17.96875 50.515625 8.265625 
Q 44.046875 -1.421875 31.78125 -1.421875 
Q 19.53125 -1.421875 13.0625 8.265625 
Q 6.59375 17.96875 6.59375 36.375 
Q 6.59375 54.828125 13.0625 64.515625 
Q 19.53125 74.21875 31.78125 74.21875 
z
" id="DejaVuSans-48"/>
       </defs>
       <use transform="translate(0 0.765625)" xlink:href="#DejaVuSans-49"/>
       <use transform="translate(63.623047 0.765625)" xlink:href="#DejaVuSans-48"/>
       <use transform="translate(128.203125 39.046875)scale(0.7)" xlink:href="#DejaVuSans-48"/>
      </g>
     </g>
    </g>
    <g id="xtick_2">
     <g id="line2d_3">
      <path clip-path="url(#pb623dd2c2c)" d="M 164.385227 308.6 
L 164.385227 26.8 
" style="fill:none;stroke:#808080;stroke-linecap:square;stroke-width:0.8;"/>
     </g>
     <g id="line2d_4">
      <g>
       <use style="stroke:#000000;stroke-width:0.8;" x="164.385227" xlink:href="#me4bb0bb9d1" y="308.6"/>
      </g>
     </g>
     <g id="text_2">
      <!-- $\mathdefault{10^{1}}$ -->
      <g transform="translate(153.825227 324.718125)scale(0.12 -0.12)">
       <use transform="translate(0 0.684375)" xlink:href="#DejaVuSans-49"/>
       <use transform="translate(63.623047 0.684375)" xlink:href="#DejaVuSans-48"/>
       <use transform="translate(128.203125 38.965625)scale(0.7)" xlink:href="#DejaVuSans-49"/>
      </g>
     </g>
    </g>
    <g id="xtick_3">
     <g id="line2d_5">
      <path clip-path="url(#pb623dd2c2c)" d="M 241.753409 308.6 
L 241.753409 26.8 
" style="fill:none;stroke:#808080;stroke-linecap:square;stroke-width:0.8;"/>
     </g>
     <g id="line2d_6">
      <g>
       <use style="stroke:#000000;stroke-width:0.8;" x="241.753409" xlink:href="#me4bb0bb9d1" y="308.6"/>
      </g>
     </g>
     <g id="text_3">
      <!-- $\mathdefault{10^{2}}$ -->
      <g transform="translate(231.193409 324.718125)scale(0.12 -0.12)">
       <defs>
        <path d="M 19.1875 8.296875 
L 53.609375 8.296875 
L 53.609375 0 
L 7.328125 0 
L 7.328125 8.296875 
Q 12.9375 14.109375 22.625 23.890625 
Q 32.328125 33.6875 34.8125 36.53125 
Q 39.546875 41.84375 41.421875 45.53125 
Q 43.3125 49.21875 43.3125 52.78125 
Q 43.3125 58.59375 39.234375 62.25 
Q 35.15625 65.921875 28.609375 65.921875 
Q 23.96875 65.921875 18.8125 64.3125 
Q 13.671875 62.703125 7.8125 59.421875 
L 7.8125 69.390625 
Q 13.765625 71.78125 18.9375 73 
Q 24.125 74.21875 28.421875 74.21875 
Q 39.75 74.21875 46.484375 68.546875 
Q 53.21875 62.890625 53.21875 53.421875 
Q 53.21875 48.921875 51.53125 44.890625 
Q 49.859375 40.875 45.40625 35.40625 
Q 44.1875 33.984375 37.640625 27.21875 
Q 31.109375 20.453125 19.1875 8.296875 
z
" id="DejaVuSans-50"/>
       </defs>
       <use transform="translate(0 0.765625)" xlink:href="#DejaVuSans-49"/>
       <use transform="translate(63.623047 0.765625)" xlink:href="#DejaVuSans-48"/>
       <use transform="translate(128.203125 39.046875)scale(0.7)" xlink:href="#DejaVuSans-50"/>
      </g>
     </g>
    </g>
    <g id="xtick_4">
     <g id="line2d_7">
      <path clip-path="url(#pb623dd2c2c)" d="M 319.121591 308.6 
L 319.121591 26.8 
" style="fill:none;stroke:#808080;stroke-linecap:square;stroke-width:0.8;"/>
     </g>
     <g id="line2d_8">
      <g>
       <use style="stroke:#000000;stroke-width:0.8;" x="319.121591" xlink:href="#me4bb0bb9d1" y="308.6"/>
      </g>
     </g>
     <g id="text_4">
      <!-- $\mathdefault{10^{3}}$ -->
      <g transform="translate(308.561591 324.718125)scale(0.12 -0.12)">
       <defs>
        <path d="M 40.578125 39.3125 
Q 47.65625 37.796875 51.625 33 
Q 55.609375 28.21875 55.609375 21.1875 
Q 55.609375 10.40625 48.1875 4.484375 
Q 40.765625 -1.421875 27.09375 -1.421875 
Q 22.515625 -1.421875 17.65625 -0.515625 
Q 12.796875 0.390625 7.625 2.203125 
L 7.625 11.71875 
Q 11.71875 9.328125 16.59375 8.109375 
Q 21.484375 6.890625 26.8125 6.890625 
Q 36.078125 6.890625 40.9375 10.546875 
Q 45.796875 14.203125 45.796875 21.1875 
Q 45.796875 27.640625 41.28125 31.265625 
Q 36.765625 34.90625 28.71875 34.90625 
L 20.21875 34.90625 
L 20.21875 43.015625 
L 29.109375 43.015625 
Q 36.375 43.015625 40.234375 45.921875 
Q 44.09375 48.828125 44.09375 54.296875 
Q 44.09375 59.90625 40.109375 62.90625 
Q 36.140625 65.921875 28.71875 65.921875 
Q 24.65625 65.921875 20.015625 65.03125 
Q 15.375 64.15625 9.8125 62.3125 
L 9.8125 71.09375 
Q 15.4375 72.65625 20.34375 73.4375 
Q 25.25 74.21875 29.59375 74.21875 
Q 40.828125 74.21875 47.359375 69.109375 
Q 53.90625 64.015625 53.90625 55.328125 
Q 53.90625 49.265625 50.4375 45.09375 
Q 46.96875 40.921875 40.578125 39.3125 
z
" id="DejaVuSans-51"/>
       </defs>
       <use transform="translate(0 0.765625)" xlink:href="#DejaVuSans-49"/>
       <use transform="translate(63.623047 0.765625)" xlink:href="#DejaVuSans-48"/>
       <use transform="translate(128.203125 39.046875)scale(0.7)" xlink:href="#DejaVuSans-51"/>
      </g>
     </g>
    </g>
    <g id="xtick_5">
     <g id="line2d_9">
      <path clip-path="url(#pb623dd2c2c)" d="M 396.489773 308.6 
L 396.489773 26.8 
" style="fill:none;stroke:#808080;stroke-linecap:square;stroke-width:0.8;"/>
     </g>
     <g id="line2d_10">
      <g>
       <use style="stroke:#000000;stroke-width:0.8;" x="396.489773" xlink:href="#me4bb0bb9d1" y="308.6"/>
      </g>
     </g>
     <g id="text_5">
      <!-- $\mathdefault{10^{4}}$ -->
      <g transform="translate(385.929773 324.718125)scale(0.12 -0.12)">
       <defs>
        <path d="M 37.796875 64.3125 
L 12.890625 25.390625 
L 37.796875 25.390625 
z
M 35.203125 72.90625 
L 47.609375 72.90625 
L 47.609375 25.390625 
L 58.015625 25.390625 
L 58.015625 17.1875 
L 47.609375 17.1875 
L 47.609375 0 
L 37.796875 0 
L 37.796875 17.1875 
L 4.890625 17.1875 
L 4.890625 26.703125 
z
" id="DejaVuSans-52"/>
       </defs>
       <use transform="translate(0 0.684375)" xlink:href="#DejaVuSans-49"/>
       <use transform="translate(63.623047 0.684375)" xlink:href="#DejaVuSans-48"/>
       <use transform="translate(128.203125 38.965625)scale(0.7)" xlink:href="#DejaVuSans-52"/>
      </g>
     </g>
    </g>
    <g id="xtick_6">
     <g id="line2d_11">
      <path clip-path="url(#pb623dd2c2c)" d="M 473.857955 308.6 
L 473.857955 26.8 
" style="fill:none;stroke:#808080;stroke-linecap:square;stroke-width:0.8;"/>
     </g>
     <g id="line2d_12">
      <g>
       <use style="stroke:#000000;stroke-width:0.8;" x="473.857955" xlink:href="#me4bb0bb9d1" y="308.6"/>
      </g>
     </g>
     <g id="text_6">
      <!-- $\mathdefault{10^{5}}$ -->
      <g transform="translate(463.297955 324.718125)scale(0.12 -0.12)">
       <defs>
        <path d="M 10.796875 72.90625 
L 49.515625 72.90625 
L 49.515625 64.59375 
L 19.828125 64.59375 
L 19.828125 46.734375 
Q 21.96875 47.46875 24.109375 47.828125 
Q 26.265625 48.1875 28.421875 48.1875 
Q 40.625 48.1875 47.75 41.5 
Q 54.890625 34.8125 54.890625 23.390625 
Q 54.890625 11.625 47.5625 5.09375 
Q 40.234375 -1.421875 26.90625 -1.421875 
Q 22.3125 -1.421875 17.546875 -0.640625 
Q 12.796875 0.140625 7.71875 1.703125 
L 7.71875 11.625 
Q 12.109375 9.234375 16.796875 8.0625 
Q 21.484375 6.890625 26.703125 6.890625 
Q 35.15625 6.890625 40.078125 11.328125 
Q 45.015625 15.765625 45.015625 23.390625 
Q 45.015625 31 40.078125 35.4375 
Q 35.15625 39.890625 26.703125 39.890625 
Q 22.75 39.890625 18.8125 39.015625 
Q 14.890625 38.140625 10.796875 36.28125 
z
" id="DejaVuSans-53"/>
       </defs>
       <use transform="translate(0 0.684375)" xlink:href="#DejaVuSans-49"/>
       <use transform="translate(63.623047 0.684375)" xlink:href="#DejaVuSans-48"/>
       <use transform="translate(128.203125 38.965625)scale(0.7)" xlink:href="#DejaVuSans-53"/>
      </g>
     </g>
    </g>
    <g id="xtick_7">
     <g id="line2d_13">
      <path clip-path="url(#pb623dd2c2c)" d="M 69.853011 308.6 
L 69.853011 26.8 
" style="fill:none;stroke:#808080;stroke-dasharray:0.8,1.32;stroke-dashoffset:0;stroke-width:0.8;"/>
     </g>
     <g id="line2d_14">
      <defs>
       <path d="M 0 0 
L 0 2 
" id="m8246dba512" style="stroke:#000000;stroke-width:0.6;"/>
      </defs>
      <g>
       <use style="stroke:#000000;stroke-width:0.6;" x="69.853011" xlink:href="#m8246dba512" y="308.6"/>
      </g>
     </g>
    </g>
    <g id="xtick_8">
     <g id="line2d_15">
      <path clip-path="url(#pb623dd2c2c)" d="M 75.032562 308.6 
L 75.032562 26.8 
" style="fill:none;stroke:#808080;stroke-dasharray:0.8,1.32;stroke-dashoffset:0;stroke-width:0.8;"/>
     </g>
     <g id="line2d_16">
      <g>
       <use style="stroke:#000000;stroke-width:0.6;" x="75.032562" xlink:href="#m8246dba512" y="308.6"/>
      </g>
     </g>
    </g>
    <g id="xtick_9">
     <g id="line2d_17">
      <path clip-path="url(#pb623dd2c2c)" d="M 79.519294 308.6 
L 79.519294 26.8 
" style="fill:none;stroke:#808080;stroke-dasharray:0.8,1.32;stroke-dashoffset:0;stroke-width:0.8;"/>
     </g>
     <g id="line2d_18">
      <g>
       <use style="stroke:#000000;stroke-width:0.6;" x="79.519294" xlink:href="#m8246dba512" y="308.6"/>
      </g>
     </g>
    </g>
    <g id="xtick_10">
     <g id="line2d_19">
      <path clip-path="url(#pb623dd2c2c)" d="M 83.476872 308.6 
L 83.476872 26.8 
" style="fill:none;stroke:#808080;stroke-dasharray:0.8,1.32;stroke-dashoffset:0;stroke-width:0.8;"/>
     </g>
     <g id="line2d_20">
      <g>
       <use style="stroke:#000000;stroke-width:0.6;" x="83.476872" xlink:href="#m8246dba512" y="308.6"/>
      </g>
     </g>
    </g>
    <g id="xtick_11">
     <g id="line2d_21">
      <path clip-path="url(#pb623dd2c2c)" d="M 110.307189 308.6 
L 110.307189 26.8 
" style="fill:none;stroke:#808080;stroke-dasharray:0.8,1.32;stroke-dashoffset:0;stroke-width:0.8;"/>
     </g>
     <g id="line2d_22">
      <g>
       <use style="stroke:#000000;stroke-width:0.6;" x="110.307189" xlink:href="#m8246dba512" y="308.6"/>
      </g>
     </g>
    </g>
    <g id="xtick_12">
     <g id="line2d_23">
      <path clip-path="url(#pb623dd2c2c)" d="M 123.931049 308.6 
L 123.931049 26.8 
" style="fill:none;stroke:#808080;stroke-dasharray:0.8,1.32;stroke-dashoffset:0;stroke-width:0.8;"/>
     </g>
     <g id="line2d_24">
      <g>
       <use style="stroke:#000000;stroke-width:0.6;" x="123.931049" xlink:href="#m8246dba512" y="308.6"/>
      </g>
     </g>
    </g>
    <g id="xtick_13">
     <g id="line2d_25">
      <path clip-path="url(#pb623dd2c2c)" d="M 133.597332 308.6 
L 133.597332 26.8 
" style="fill:none;stroke:#808080;stroke-dasharray:0.8,1.32;stroke-dashoffset:0;stroke-width:0.8;"/>
     </g>
     <g id="line2d_26">
      <g>
       <use style="stroke:#000000;stroke-width:0.6;" x="133.597332" xlink:href="#m8246dba512" y="308.6"/>
      </g>
     </g>
    </g>
    <g id="xtick_14">
     <g id="line2d_27">
      <path clip-path="url(#pb623dd2c2c)" d="M 141.095084 308.6 
L 141.095084 26.8 
" style="fill:none;stroke:#808080;stroke-dasharray:0.8,1.32;stroke-dashoffset:0;stroke-width:0.8;"/>
     </g>
     <g id="line2d_28">
      <g>
       <use style="stroke:#000000;stroke-width:0.6;" x="141.095084" xlink:href="#m8246dba512" y="308.6"/>
      </g>
     </g>
    </g>
    <g id="xtick_15">
     <g id="line2d_29">
      <path clip-path="url(#pb623dd2c2c)" d="M 147.221193 308.6 
L 147.221193 26.8 
" style="fill:none;stroke:#808080;stroke-dasharray:0.8,1.32;stroke-dashoffset:0;stroke-width:0.8;"/>
     </g>
     <g id="line2d_30">
      <g>
       <use style="stroke:#000000;stroke-width:0.6;" x="147.221193" xlink:href="#m8246dba512" y="308.6"/>
      </g>
     </g>
    </g>
    <g id="xtick_16">
     <g id="line2d_31">
      <path clip-path="url(#pb623dd2c2c)" d="M 152.400744 308.6 
L 152.400744 26.8 
" style="fill:none;stroke:#808080;stroke-dasharray:0.8,1.32;stroke-dashoffset:0;stroke-width:0.8;"/>
     </g>
     <g id="line2d_32">
      <g>
       <use style="stroke:#000000;stroke-width:0.6;" x="152.400744" xlink:href="#m8246dba512" y="308.6"/>
      </g>
     </g>
    </g>
    <g id="xtick_17">
     <g id="line2d_33">
      <path clip-path="url(#pb623dd2c2c)" d="M 156.887476 308.6 
L 156.887476 26.8 
" style="fill:none;stroke:#808080;stroke-dasharray:0.8,1.32;stroke-dashoffset:0;stroke-width:0.8;"/>
     </g>
     <g id="line2d_34">
      <g>
       <use style="stroke:#000000;stroke-width:0.6;" x="156.887476" xlink:href="#m8246dba512" y="308.6"/>
      </g>
     </g>
    </g>
    <g id="xtick_18">
     <g id="line2d_35">
      <path clip-path="url(#pb623dd2c2c)" d="M 160.845053 308.6 
L 160.845053 26.8 
" style="fill:none;stroke:#808080;stroke-dasharray:0.8,1.32;stroke-dashoffset:0;stroke-width:0.8;"/>
     </g>
     <g id="line2d_36">
      <g>
       <use style="stroke:#000000;stroke-width:0.6;" x="160.845053" xlink:href="#m8246dba512" y="308.6"/>
      </g>
     </g>
    </g>
    <g id="xtick_19">
     <g id="line2d_37">
      <path clip-path="url(#pb623dd2c2c)" d="M 187.675371 308.6 
L 187.675371 26.8 
" style="fill:none;stroke:#808080;stroke-dasharray:0.8,1.32;stroke-dashoffset:0;stroke-width:0.8;"/>
     </g>
     <g id="line2d_38">
      <g>
       <use style="stroke:#000000;stroke-width:0.6;" x="187.675371" xlink:href="#m8246dba512" y="308.6"/>
      </g>
     </g>
    </g>
    <g id="xtick_20">
     <g id="line2d_39">
      <path clip-path="url(#pb623dd2c2c)" d="M 201.299231 308.6 
L 201.299231 26.8 
" style="fill:none;stroke:#808080;stroke-dasharray:0.8,1.32;stroke-dashoffset:0;stroke-width:0.8;"/>
     </g>
     <g id="line2d_40">
      <g>
       <use style="stroke:#000000;stroke-width:0.6;" x="201.299231" xlink:href="#m8246dba512" y="308.6"/>
      </g>
     </g>
    </g>
    <g id="xtick_21">
     <g id="line2d_41">
      <path clip-path="url(#pb623dd2c2c)" d="M 210.965514 308.6 
L 210.965514 26.8 
" style="fill:none;stroke:#808080;stroke-dasharray:0.8,1.32;stroke-dashoffset:0;stroke-width:0.8;"/>
     </g>
     <g id="line2d_42">
      <g>
       <use style="stroke:#000000;stroke-width:0.6;" x="210.965514" xlink:href="#m8246dba512" y="308.6"/>
      </g>
     </g>
    </g>
    <g id="xtick_22">
     <g id="line2d_43">
      <path clip-path="url(#pb623dd2c2c)" d="M 218.463266 308.6 
L 218.463266 26.8 
" style="fill:none;stroke:#808080;stroke-dasharray:0.8,1.32;stroke-dashoffset:0;stroke-width:0.8;"/>
     </g>
     <g id="line2d_44">
      <g>
       <use style="stroke:#000000;stroke-width:0.6;" x="218.463266" xlink:href="#m8246dba512" y="308.6"/>
      </g>
     </g>
    </g>
    <g id="xtick_23">
     <g id="line2d_45">
      <path clip-path="url(#pb623dd2c2c)" d="M 224.589375 308.6 
L 224.589375 26.8 
" style="fill:none;stroke:#808080;stroke-dasharray:0.8,1.32;stroke-dashoffset:0;stroke-width:0.8;"/>
     </g>
     <g id="line2d_46">
      <g>
       <use style="stroke:#000000;stroke-width:0.6;" x="224.589375" xlink:href="#m8246dba512" y="308.6"/>
      </g>
     </g>
    </g>
    <g id="xtick_24">
     <g id="line2d_47">
      <path clip-path="url(#pb623dd2c2c)" d="M 229.768926 308.6 
L 229.768926 26.8 
" style="fill:none;stroke:#808080;stroke-dasharray:0.8,1.32;stroke-dashoffset:0;stroke-width:0.8;"/>
     </g>
     <g id="line2d_48">
      <g>
       <use style="stroke:#000000;stroke-width:0.6;" x="229.768926" xlink:href="#m8246dba512" y="308.6"/>
      </g>
     </g>
    </g>
    <g id="xtick_25">
     <g id="line2d_49">
      <path clip-path="url(#pb623dd2c2c)" d="M 234.255658 308.6 
L 234.255658 26.8 
" style="fill:none;stroke:#808080;stroke-dasharray:0.8,1.32;stroke-dashoffset:0;stroke-width:0.8;"/>
     </g>
     <g id="line2d_50">
      <g>
       <use style="stroke:#000000;stroke-width:0.6;" x="234.255658" xlink:href="#m8246dba512" y="308.6"/>
      </g>
     </g>
    </g>
    <g id="xtick_26">
     <g id="line2d_51">
      <path clip-path="url(#pb623dd2c2c)" d="M 238.213235 308.6 
L 238.213235 26.8 
" style="fill:none;stroke:#808080;stroke-dasharray:0.8,1.32;stroke-dashoffset:0;stroke-width:0.8;"/>
     </g>
     <g id="line2d_52">
      <g>
       <use style="stroke:#000000;stroke-width:0.6;" x="238.213235" xlink:href="#m8246dba512" y="308.6"/>
      </g>
     </g>
    </g>
    <g id="xtick_27">
     <g id="line2d_53">
      <path clip-path="url(#pb623dd2c2c)" d="M 265.043553 308.6 
L 265.043553 26.8 
" style="fill:none;stroke:#808080;stroke-dasharray:0.8,1.32;stroke-dashoffset:0;stroke-width:0.8;"/>
     </g>
     <g id="line2d_54">
      <g>
       <use style="stroke:#000000;stroke-width:0.6;" x="265.043553" xlink:href="#m8246dba512" y="308.6"/>
      </g>
     </g>
    </g>
    <g id="xtick_28">
     <g id="line2d_55">
      <path clip-path="url(#pb623dd2c2c)" d="M 278.667413 308.6 
L 278.667413 26.8 
" style="fill:none;stroke:#808080;stroke-dasharray:0.8,1.32;stroke-dashoffset:0;stroke-width:0.8;"/>
     </g>
     <g id="line2d_56">
      <g>
       <use style="stroke:#000000;stroke-width:0.6;" x="278.667413" xlink:href="#m8246dba512" y="308.6"/>
      </g>
     </g>
    </g>
    <g id="xtick_29">
     <g id="line2d_57">
      <path clip-path="url(#pb623dd2c2c)" d="M 288.333696 308.6 
L 288.333696 26.8 
" style="fill:none;stroke:#808080;stroke-dasharray:0.8,1.32;stroke-dashoffset:0;stroke-width:0.8;"/>
     </g>
     <g id="line2d_58">
      <g>
       <use style="stroke:#000000;stroke-width:0.6;" x="288.333696" xlink:href="#m8246dba512" y="308.6"/>
      </g>
     </g>
    </g>
    <g id="xtick_30">
     <g id="line2d_59">
      <path clip-path="url(#pb623dd2c2c)" d="M 295.831447 308.6 
L 295.831447 26.8 
" style="fill:none;stroke:#808080;stroke-dasharray:0.8,1.32;stroke-dashoffset:0;stroke-width:0.8;"/>
     </g>
     <g id="line2d_60">
      <g>
       <use style="stroke:#000000;stroke-width:0.6;" x="295.831447" xlink:href="#m8246dba512" y="308.6"/>
      </g>
     </g>
    </g>
    <g id="xtick_31">
     <g id="line2d_61">
      <path clip-path="url(#pb623dd2c2c)" d="M 301.957557 308.6 
L 301.957557 26.8 
" style="fill:none;stroke:#808080;stroke-dasharray:0.8,1.32;stroke-dashoffset:0;stroke-width:0.8;"/>
     </g>
     <g id="line2d_62">
      <g>
       <use style="stroke:#000000;stroke-width:0.6;" x="301.957557" xlink:href="#m8246dba512" y="308.6"/>
      </g>
     </g>
    </g>
    <g id="xtick_32">
     <g id="line2d_63">
      <path clip-path="url(#pb623dd2c2c)" d="M 307.137108 308.6 
L 307.137108 26.8 
" style="fill:none;stroke:#808080;stroke-dasharray:0.8,1.32;stroke-dashoffset:0;stroke-width:0.8;"/>
     </g>
     <g id="line2d_64">
      <g>
       <use style="stroke:#000000;stroke-width:0.6;" x="307.137108" xlink:href="#m8246dba512" y="308.6"/>
      </g>
     </g>
    </g>
    <g id="xtick_33">
     <g id="line2d_65">
      <path clip-path="url(#pb623dd2c2c)" d="M 311.623839 308.6 
L 311.623839 26.8 
" style="fill:none;stroke:#808080;stroke-dasharray:0.8,1.32;stroke-dashoffset:0;stroke-width:0.8;"/>
     </g>
     <g id="line2d_66">
      <g>
       <use style="stroke:#000000;stroke-width:0.6;" x="311.623839" xlink:href="#m8246dba512" y="308.6"/>
      </g>
     </g>
    </g>
    <g id="xtick_34">
     <g id="line2d_67">
      <path clip-path="url(#pb623dd2c2c)" d="M 315.581417 308.6 
L 315.581417 26.8 
" style="fill:none;stroke:#808080;stroke-dasharray:0.8,1.32;stroke-dashoffset:0;stroke-width:0.8;"/>
     </g>
     <g id="line2d_68">
      <g>
       <use style="stroke:#000000;stroke-width:0.6;" x="315.581417" xlink:href="#m8246dba512" y="308.6"/>
      </g>
     </g>
    </g>
    <g id="xtick_35">
     <g id="line2d_69">
      <path clip-path="url(#pb623dd2c2c)" d="M 342.411734 308.6 
L 342.411734 26.8 
" style="fill:none;stroke:#808080;stroke-dasharray:0.8,1.32;stroke-dashoffset:0;stroke-width:0.8;"/>
     </g>
     <g id="line2d_70">
      <g>
       <use style="stroke:#000000;stroke-width:0.6;" x="342.411734" xlink:href="#m8246dba512" y="308.6"/>
      </g>
     </g>
    </g>
    <g id="xtick_36">
     <g id="line2d_71">
      <path clip-path="url(#pb623dd2c2c)" d="M 356.035595 308.6 
L 356.035595 26.8 
" style="fill:none;stroke:#808080;stroke-dasharray:0.8,1.32;stroke-dashoffset:0;stroke-width:0.8;"/>
     </g>
     <g id="line2d_72">
      <g>
       <use style="stroke:#000000;stroke-width:0.6;" x="356.035595" xlink:href="#m8246dba512" y="308.6"/>
      </g>
     </g>
    </g>
    <g id="xtick_37">
     <g id="line2d_73">
      <path clip-path="url(#pb623dd2c2c)" d="M 365.701878 308.6 
L 365.701878 26.8 
" style="fill:none;stroke:#808080;stroke-dasharray:0.8,1.32;stroke-dashoffset:0;stroke-width:0.8;"/>
     </g>
     <g id="line2d_74">
      <g>
       <use style="stroke:#000000;stroke-width:0.6;" x="365.701878" xlink:href="#m8246dba512" y="308.6"/>
      </g>
     </g>
    </g>
    <g id="xtick_38">
     <g id="line2d_75">
      <path clip-path="url(#pb623dd2c2c)" d="M 373.199629 308.6 
L 373.199629 26.8 
" style="fill:none;stroke:#808080;stroke-dasharray:0.8,1.32;stroke-dashoffset:0;stroke-width:0.8;"/>
     </g>
     <g id="line2d_76">
      <g>
       <use style="stroke:#000000;stroke-width:0.6;" x="373.199629" xlink:href="#m8246dba512" y="308.6"/>
      </g>
     </g>
    </g>
    <g id="xtick_39">
     <g id="line2d_77">
      <path clip-path="url(#pb623dd2c2c)" d="M 379.325738 308.6 
L 379.325738 26.8 
" style="fill:none;stroke:#808080;stroke-dasharray:0.8,1.32;stroke-dashoffset:0;stroke-width:0.8;"/>
     </g>
     <g id="line2d_78">
      <g>
       <use style="stroke:#000000;stroke-width:0.6;" x="379.325738" xlink:href="#m8246dba512" y="308.6"/>
      </g>
     </g>
    </g>
    <g id="xtick_40">
     <g id="line2d_79">
      <path clip-path="url(#pb623dd2c2c)" d="M 384.50529 308.6 
L 384.50529 26.8 
" style="fill:none;stroke:#808080;stroke-dasharray:0.8,1.32;stroke-dashoffset:0;stroke-width:0.8;"/>
     </g>
     <g id="line2d_80">
      <g>
       <use style="stroke:#000000;stroke-width:0.6;" x="384.50529" xlink:href="#m8246dba512" y="308.6"/>
      </g>
     </g>
    </g>
    <g id="xtick_41">
     <g id="line2d_81">
      <path clip-path="url(#pb623dd2c2c)" d="M 388.992021 308.6 
L 388.992021 26.8 
" style="fill:none;stroke:#808080;stroke-dasharray:0.8,1.32;stroke-dashoffset:0;stroke-width:0.8;"/>
     </g>
     <g id="line2d_82">
      <g>
       <use style="stroke:#000000;stroke-width:0.6;" x="388.992021" xlink:href="#m8246dba512" y="308.6"/>
      </g>
     </g>
    </g>
    <g id="xtick_42">
     <g id="line2d_83">
      <path clip-path="url(#pb623dd2c2c)" d="M 392.949599 308.6 
L 392.949599 26.8 
" style="fill:none;stroke:#808080;stroke-dasharray:0.8,1.32;stroke-dashoffset:0;stroke-width:0.8;"/>
     </g>
     <g id="line2d_84">
      <g>
       <use style="stroke:#000000;stroke-width:0.6;" x="392.949599" xlink:href="#m8246dba512" y="308.6"/>
      </g>
     </g>
    </g>
    <g id="xtick_43">
     <g id="line2d_85">
      <path clip-path="url(#pb623dd2c2c)" d="M 419.779916 308.6 
L 419.779916 26.8 
" style="fill:none;stroke:#808080;stroke-dasharray:0.8,1.32;stroke-dashoffset:0;stroke-width:0.8;"/>
     </g>
     <g id="line2d_86">
      <g>
       <use style="stroke:#000000;stroke-width:0.6;" x="419.779916" xlink:href="#m8246dba512" y="308.6"/>
      </g>
     </g>
    </g>
    <g id="xtick_44">
     <g id="line2d_87">
      <path clip-path="url(#pb623dd2c2c)" d="M 433.403777 308.6 
L 433.403777 26.8 
" style="fill:none;stroke:#808080;stroke-dasharray:0.8,1.32;stroke-dashoffset:0;stroke-width:0.8;"/>
     </g>
     <g id="line2d_88">
      <g>
       <use style="stroke:#000000;stroke-width:0.6;" x="433.403777" xlink:href="#m8246dba512" y="308.6"/>
      </g>
     </g>
    </g>
    <g id="xtick_45">
     <g id="line2d_89">
      <path clip-path="url(#pb623dd2c2c)" d="M 443.07006 308.6 
L 443.07006 26.8 
" style="fill:none;stroke:#808080;stroke-dasharray:0.8,1.32;stroke-dashoffset:0;stroke-width:0.8;"/>
     </g>
     <g id="line2d_90">
      <g>
       <use style="stroke:#000000;stroke-width:0.6;" x="443.07006" xlink:href="#m8246dba512" y="308.6"/>
      </g>
     </g>
    </g>
    <g id="xtick_46">
     <g id="line2d_91">
      <path clip-path="url(#pb623dd2c2c)" d="M 450.567811 308.6 
L 450.567811 26.8 
" style="fill:none;stroke:#808080;stroke-dasharray:0.8,1.32;stroke-dashoffset:0;stroke-width:0.8;"/>
     </g>
     <g id="line2d_92">
      <g>
       <use style="stroke:#000000;stroke-width:0.6;" x="450.567811" xlink:href="#m8246dba512" y="308.6"/>
      </g>
     </g>
    </g>
    <g id="xtick_47">
     <g id="line2d_93">
      <path clip-path="url(#pb623dd2c2c)" d="M 456.69392 308.6 
L 456.69392 26.8 
" style="fill:none;stroke:#808080;stroke-dasharray:0.8,1.32;stroke-dashoffset:0;stroke-width:0.8;"/>
     </g>
     <g id="line2d_94">
      <g>
       <use style="stroke:#000000;stroke-width:0.6;" x="456.69392" xlink:href="#m8246dba512" y="308.6"/>
      </g>
     </g>
    </g>
    <g id="xtick_48">
     <g id="line2d_95">
      <path clip-path="url(#pb623dd2c2c)" d="M 461.873472 308.6 
L 461.873472 26.8 
" style="fill:none;stroke:#808080;stroke-dasharray:0.8,1.32;stroke-dashoffset:0;stroke-width:0.8;"/>
     </g>
     <g id="line2d_96">
      <g>
       <use style="stroke:#000000;stroke-width:0.6;" x="461.873472" xlink:href="#m8246dba512" y="308.6"/>
      </g>
     </g>
    </g>
    <g id="xtick_49">
     <g id="line2d_97">
      <path clip-path="url(#pb623dd2c2c)" d="M 466.360203 308.6 
L 466.360203 26.8 
" style="fill:none;stroke:#808080;stroke-dasharray:0.8,1.32;stroke-dashoffset:0;stroke-width:0.8;"/>
     </g>
     <g id="line2d_98">
      <g>
       <use style="stroke:#000000;stroke-width:0.6;" x="466.360203" xlink:href="#m8246dba512" y="308.6"/>
      </g>
     </g>
    </g>
    <g id="xtick_50">
     <g id="line2d_99">
      <path clip-path="url(#pb623dd2c2c)" d="M 470.317781 308.6 
L 470.317781 26.8 
" style="fill:none;stroke:#808080;stroke-dasharray:0.8,1.32;stroke-dashoffset:0;stroke-width:0.8;"/>
     </g>
     <g id="line2d_100">
      <g>
       <use style="stroke:#000000;stroke-width:0.6;" x="470.317781" xlink:href="#m8246dba512" y="308.6"/>
      </g>
     </g>
    </g>
    <g id="text_7">
     <!-- frequency [MHz] -->
     <g transform="translate(230.91875 340.331875)scale(0.12 -0.12)">
      <defs>
       <path d="M 37.109375 75.984375 
L 37.109375 68.5 
L 28.515625 68.5 
Q 23.6875 68.5 21.796875 66.546875 
Q 19.921875 64.59375 19.921875 59.515625 
L 19.921875 54.6875 
L 34.71875 54.6875 
L 34.71875 47.703125 
L 19.921875 47.703125 
L 19.921875 0 
L 10.890625 0 
L 10.890625 47.703125 
L 2.296875 47.703125 
L 2.296875 54.6875 
L 10.890625 54.6875 
L 10.890625 58.5 
Q 10.890625 67.625 15.140625 71.796875 
Q 19.390625 75.984375 28.609375 75.984375 
z
" id="DejaVuSans-102"/>
       <path d="M 41.109375 46.296875 
Q 39.59375 47.171875 37.8125 47.578125 
Q 36.03125 48 33.890625 48 
Q 26.265625 48 22.1875 43.046875 
Q 18.109375 38.09375 18.109375 28.8125 
L 18.109375 0 
L 9.078125 0 
L 9.078125 54.6875 
L 18.109375 54.6875 
L 18.109375 46.1875 
Q 20.953125 51.171875 25.484375 53.578125 
Q 30.03125 56 36.53125 56 
Q 37.453125 56 38.578125 55.875 
Q 39.703125 55.765625 41.0625 55.515625 
z
" id="DejaVuSans-114"/>
       <path d="M 56.203125 29.59375 
L 56.203125 25.203125 
L 14.890625 25.203125 
Q 15.484375 15.921875 20.484375 11.0625 
Q 25.484375 6.203125 34.421875 6.203125 
Q 39.59375 6.203125 44.453125 7.46875 
Q 49.3125 8.734375 54.109375 11.28125 
L 54.109375 2.78125 
Q 49.265625 0.734375 44.1875 -0.34375 
Q 39.109375 -1.421875 33.890625 -1.421875 
Q 20.796875 -1.421875 13.15625 6.1875 
Q 5.515625 13.8125 5.515625 26.8125 
Q 5.515625 40.234375 12.765625 48.109375 
Q 20.015625 56 32.328125 56 
Q 43.359375 56 49.78125 48.890625 
Q 56.203125 41.796875 56.203125 29.59375 
z
M 47.21875 32.234375 
Q 47.125 39.59375 43.09375 43.984375 
Q 39.0625 48.390625 32.421875 48.390625 
Q 24.90625 48.390625 20.390625 44.140625 
Q 15.875 39.890625 15.1875 32.171875 
z
" id="DejaVuSans-101"/>
       <path d="M 14.796875 27.296875 
Q 14.796875 17.390625 18.875 11.75 
Q 22.953125 6.109375 30.078125 6.109375 
Q 37.203125 6.109375 41.296875 11.75 
Q 45.40625 17.390625 45.40625 27.296875 
Q 45.40625 37.203125 41.296875 42.84375 
Q 37.203125 48.484375 30.078125 48.484375 
Q 22.953125 48.484375 18.875 42.84375 
Q 14.796875 37.203125 14.796875 27.296875 
z
M 45.40625 8.203125 
Q 42.578125 3.328125 38.25 0.953125 
Q 33.9375 -1.421875 27.875 -1.421875 
Q 17.96875 -1.421875 11.734375 6.484375 
Q 5.515625 14.40625 5.515625 27.296875 
Q 5.515625 40.1875 11.734375 48.09375 
Q 17.96875 56 27.875 56 
Q 33.9375 56 38.25 53.625 
Q 42.578125 51.265625 45.40625 46.390625 
L 45.40625 54.6875 
L 54.390625 54.6875 
L 54.390625 -20.796875 
L 45.40625 -20.796875 
z
" id="DejaVuSans-113"/>
       <path d="M 8.5 21.578125 
L 8.5 54.6875 
L 17.484375 54.6875 
L 17.484375 21.921875 
Q 17.484375 14.15625 20.5 10.265625 
Q 23.53125 6.390625 29.59375 6.390625 
Q 36.859375 6.390625 41.078125 11.03125 
Q 45.3125 15.671875 45.3125 23.6875 
L 45.3125 54.6875 
L 54.296875 54.6875 
L 54.296875 0 
L 45.3125 0 
L 45.3125 8.40625 
Q 42.046875 3.421875 37.71875 1 
Q 33.40625 -1.421875 27.6875 -1.421875 
Q 18.265625 -1.421875 13.375 4.4375 
Q 8.5 10.296875 8.5 21.578125 
z
M 31.109375 56 
z
" id="DejaVuSans-117"/>
       <path d="M 54.890625 33.015625 
L 54.890625 0 
L 45.90625 0 
L 45.90625 32.71875 
Q 45.90625 40.484375 42.875 44.328125 
Q 39.84375 48.1875 33.796875 48.1875 
Q 26.515625 48.1875 22.3125 43.546875 
Q 18.109375 38.921875 18.109375 30.90625 
L 18.109375 0 
L 9.078125 0 
L 9.078125 54.6875 
L 18.109375 54.6875 
L 18.109375 46.1875 
Q 21.34375 51.125 25.703125 53.5625 
Q 30.078125 56 35.796875 56 
Q 45.21875 56 50.046875 50.171875 
Q 54.890625 44.34375 54.890625 33.015625 
z
" id="DejaVuSans-110"/>
       <path d="M 48.78125 52.59375 
L 48.78125 44.1875 
Q 44.96875 46.296875 41.140625 47.34375 
Q 37.3125 48.390625 33.40625 48.390625 
Q 24.65625 48.390625 19.8125 42.84375 
Q 14.984375 37.3125 14.984375 27.296875 
Q 14.984375 17.28125 19.8125 11.734375 
Q 24.65625 6.203125 33.40625 6.203125 
Q 37.3125 6.203125 41.140625 7.25 
Q 44.96875 8.296875 48.78125 10.40625 
L 48.78125 2.09375 
Q 45.015625 0.34375 40.984375 -0.53125 
Q 36.96875 -1.421875 32.421875 -1.421875 
Q 20.0625 -1.421875 12.78125 6.34375 
Q 5.515625 14.109375 5.515625 27.296875 
Q 5.515625 40.671875 12.859375 48.328125 
Q 20.21875 56 33.015625 56 
Q 37.15625 56 41.109375 55.140625 
Q 45.0625 54.296875 48.78125 52.59375 
z
" id="DejaVuSans-99"/>
       <path d="M 32.171875 -5.078125 
Q 28.375 -14.84375 24.75 -17.8125 
Q 21.140625 -20.796875 15.09375 -20.796875 
L 7.90625 -20.796875 
L 7.90625 -13.28125 
L 13.1875 -13.28125 
Q 16.890625 -13.28125 18.9375 -11.515625 
Q 21 -9.765625 23.484375 -3.21875 
L 25.09375 0.875 
L 2.984375 54.6875 
L 12.5 54.6875 
L 29.59375 11.921875 
L 46.6875 54.6875 
L 56.203125 54.6875 
z
" id="DejaVuSans-121"/>
       <path id="DejaVuSans-32"/>
       <path d="M 8.59375 75.984375 
L 29.296875 75.984375 
L 29.296875 69 
L 17.578125 69 
L 17.578125 -6.203125 
L 29.296875 -6.203125 
L 29.296875 -13.1875 
L 8.59375 -13.1875 
z
" id="DejaVuSans-91"/>
       <path d="M 9.8125 72.90625 
L 24.515625 72.90625 
L 43.109375 23.296875 
L 61.8125 72.90625 
L 76.515625 72.90625 
L 76.515625 0 
L 66.890625 0 
L 66.890625 64.015625 
L 48.09375 14.015625 
L 38.1875 14.015625 
L 19.390625 64.015625 
L 19.390625 0 
L 9.8125 0 
z
" id="DejaVuSans-77"/>
       <path d="M 9.8125 72.90625 
L 19.671875 72.90625 
L 19.671875 43.015625 
L 55.515625 43.015625 
L 55.515625 72.90625 
L 65.375 72.90625 
L 65.375 0 
L 55.515625 0 
L 55.515625 34.71875 
L 19.671875 34.71875 
L 19.671875 0 
L 9.8125 0 
z
" id="DejaVuSans-72"/>
       <path d="M 5.515625 54.6875 
L 48.1875 54.6875 
L 48.1875 46.484375 
L 14.40625 7.171875 
L 48.1875 7.171875 
L 48.1875 0 
L 4.296875 0 
L 4.296875 8.203125 
L 38.09375 47.515625 
L 5.515625 47.515625 
z
" id="DejaVuSans-122"/>
       <path d="M 30.421875 75.984375 
L 30.421875 -13.1875 
L 9.71875 -13.1875 
L 9.71875 -6.203125 
L 21.390625 -6.203125 
L 21.390625 69 
L 9.71875 69 
L 9.71875 75.984375 
z
" id="DejaVuSans-93"/>
      </defs>
      <use xlink:href="#DejaVuSans-102"/>
      <use x="35.205078" xlink:href="#DejaVuSans-114"/>
      <use x="74.068359" xlink:href="#DejaVuSans-101"/>
      <use x="135.591797" xlink:href="#DejaVuSans-113"/>
      <use x="199.068359" xlink:href="#DejaVuSans-117"/>
      <use x="262.447266" xlink:href="#DejaVuSans-101"/>
      <use x="323.970703" xlink:href="#DejaVuSans-110"/>
      <use x="387.349609" xlink:href="#DejaVuSans-99"/>
      <use x="442.330078" xlink:href="#DejaVuSans-121"/>
      <use x="501.509766" xlink:href="#DejaVuSans-32"/>
      <use x="533.296875" xlink:href="#DejaVuSans-91"/>
      <use x="572.310547" xlink:href="#DejaVuSans-77"/>
      <use x="658.589844" xlink:href="#DejaVuSans-72"/>
      <use x="733.785156" xlink:href="#DejaVuSans-122"/>
      <use x="786.275391" xlink:href="#DejaVuSans-93"/>
     </g>
    </g>
   </g>
   <g id="matplotlib.axis_2">
    <g id="ytick_1">
     <g id="line2d_101">
      <path clip-path="url(#pb623dd2c2c)" d="M 67.675 278.058893 
L 493.2 278.058893 
" style="fill:none;stroke:#808080;stroke-linecap:square;stroke-width:0.8;"/>
     </g>
     <g id="line2d_102">
      <defs>
       <path d="M 0 0 
L -3.5 0 
" id="m9dfe990012" style="stroke:#000000;stroke-width:0.8;"/>
      </defs>
      <g>
       <use style="stroke:#000000;stroke-width:0.8;" x="67.675" xlink:href="#m9dfe990012" y="278.058893"/>
      </g>
     </g>
     <g id="text_8">
      <!-- −100 -->
      <g transform="translate(27.714375 282.617955)scale(0.12 -0.12)">
       <defs>
        <path d="M 10.59375 35.5 
L 73.1875 35.5 
L 73.1875 27.203125 
L 10.59375 27.203125 
z
" id="DejaVuSans-8722"/>
       </defs>
       <use xlink:href="#DejaVuSans-8722"/>
       <use x="83.789062" xlink:href="#DejaVuSans-49"/>
       <use x="147.412109" xlink:href="#DejaVuSans-48"/>
       <use x="211.035156" xlink:href="#DejaVuSans-48"/>
      </g>
     </g>
    </g>
    <g id="ytick_2">
     <g id="line2d_103">
      <path clip-path="url(#pb623dd2c2c)" d="M 67.675 239.110795 
L 493.2 239.110795 
" style="fill:none;stroke:#808080;stroke-linecap:square;stroke-width:0.8;"/>
     </g>
     <g id="line2d_104">
      <g>
       <use style="stroke:#000000;stroke-width:0.8;" x="67.675" xlink:href="#m9dfe990012" y="239.110795"/>
      </g>
     </g>
     <g id="text_9">
      <!-- −75 -->
      <g transform="translate(35.349375 243.669857)scale(0.12 -0.12)">
       <defs>
        <path d="M 8.203125 72.90625 
L 55.078125 72.90625 
L 55.078125 68.703125 
L 28.609375 0 
L 18.3125 0 
L 43.21875 64.59375 
L 8.203125 64.59375 
z
" id="DejaVuSans-55"/>
       </defs>
       <use xlink:href="#DejaVuSans-8722"/>
       <use x="83.789062" xlink:href="#DejaVuSans-55"/>
       <use x="147.412109" xlink:href="#DejaVuSans-53"/>
      </g>
     </g>
    </g>
    <g id="ytick_3">
     <g id="line2d_105">
      <path clip-path="url(#pb623dd2c2c)" d="M 67.675 200.162697 
L 493.2 200.162697 
" style="fill:none;stroke:#808080;stroke-linecap:square;stroke-width:0.8;"/>
     </g>
     <g id="line2d_106">
      <g>
       <use style="stroke:#000000;stroke-width:0.8;" x="67.675" xlink:href="#m9dfe990012" y="200.162697"/>
      </g>
     </g>
     <g id="text_10">
      <!-- −50 -->
      <g transform="translate(35.349375 204.721759)scale(0.12 -0.12)">
       <use xlink:href="#DejaVuSans-8722"/>
       <use x="83.789062" xlink:href="#DejaVuSans-53"/>
       <use x="147.412109" xlink:href="#DejaVuSans-48"/>
      </g>
     </g>
    </g>
    <g id="ytick_4">
     <g id="line2d_107">
      <path clip-path="url(#pb623dd2c2c)" d="M 67.675 161.214599 
L 493.2 161.214599 
" style="fill:none;stroke:#808080;stroke-linecap:square;stroke-width:0.8;"/>
     </g>
     <g id="line2d_108">
      <g>
       <use style="stroke:#000000;stroke-width:0.8;" x="67.675" xlink:href="#m9dfe990012" y="161.214599"/>
      </g>
     </g>
     <g id="text_11">
      <!-- −25 -->
      <g transform="translate(35.349375 165.773661)scale(0.12 -0.12)">
       <use xlink:href="#DejaVuSans-8722"/>
       <use x="83.789062" xlink:href="#DejaVuSans-50"/>
       <use x="147.412109" xlink:href="#DejaVuSans-53"/>
      </g>
     </g>
    </g>
    <g id="ytick_5">
     <g id="line2d_109">
      <path clip-path="url(#pb623dd2c2c)" d="M 67.675 122.2665 
L 493.2 122.2665 
" style="fill:none;stroke:#808080;stroke-linecap:square;stroke-width:0.8;"/>
     </g>
     <g id="line2d_110">
      <g>
       <use style="stroke:#000000;stroke-width:0.8;" x="67.675" xlink:href="#m9dfe990012" y="122.2665"/>
      </g>
     </g>
     <g id="text_12">
      <!-- 0 -->
      <g transform="translate(53.04 126.825563)scale(0.12 -0.12)">
       <use xlink:href="#DejaVuSans-48"/>
      </g>
     </g>
    </g>
    <g id="ytick_6">
     <g id="line2d_111">
      <path clip-path="url(#pb623dd2c2c)" d="M 67.675 83.318402 
L 493.2 83.318402 
" style="fill:none;stroke:#808080;stroke-linecap:square;stroke-width:0.8;"/>
     </g>
     <g id="line2d_112">
      <g>
       <use style="stroke:#000000;stroke-width:0.8;" x="67.675" xlink:href="#m9dfe990012" y="83.318402"/>
      </g>
     </g>
     <g id="text_13">
      <!-- 25 -->
      <g transform="translate(45.405 87.877465)scale(0.12 -0.12)">
       <use xlink:href="#DejaVuSans-50"/>
       <use x="63.623047" xlink:href="#DejaVuSans-53"/>
      </g>
     </g>
    </g>
    <g id="ytick_7">
     <g id="line2d_113">
      <path clip-path="url(#pb623dd2c2c)" d="M 67.675 44.370304 
L 493.2 44.370304 
" style="fill:none;stroke:#808080;stroke-linecap:square;stroke-width:0.8;"/>
     </g>
     <g id="line2d_114">
      <g>
       <use style="stroke:#000000;stroke-width:0.8;" x="67.675" xlink:href="#m9dfe990012" y="44.370304"/>
      </g>
     </g>
     <g id="text_14">
      <!-- 50 -->
      <g transform="translate(45.405 48.929367)scale(0.12 -0.12)">
       <use xlink:href="#DejaVuSans-53"/>
       <use x="63.623047" xlink:href="#DejaVuSans-48"/>
      </g>
     </g>
    </g>
    <g id="text_15">
     <!-- magnitude [dB] -->
     <g transform="translate(21.21875 214.669687)rotate(-90)scale(0.12 -0.12)">
      <defs>
       <path d="M 52 44.1875 
Q 55.375 50.25 60.0625 53.125 
Q 64.75 56 71.09375 56 
Q 79.640625 56 84.28125 50.015625 
Q 88.921875 44.046875 88.921875 33.015625 
L 88.921875 0 
L 79.890625 0 
L 79.890625 32.71875 
Q 79.890625 40.578125 77.09375 44.375 
Q 74.3125 48.1875 68.609375 48.1875 
Q 61.625 48.1875 57.5625 43.546875 
Q 53.515625 38.921875 53.515625 30.90625 
L 53.515625 0 
L 44.484375 0 
L 44.484375 32.71875 
Q 44.484375 40.625 41.703125 44.40625 
Q 38.921875 48.1875 33.109375 48.1875 
Q 26.21875 48.1875 22.15625 43.53125 
Q 18.109375 38.875 18.109375 30.90625 
L 18.109375 0 
L 9.078125 0 
L 9.078125 54.6875 
L 18.109375 54.6875 
L 18.109375 46.1875 
Q 21.1875 51.21875 25.484375 53.609375 
Q 29.78125 56 35.6875 56 
Q 41.65625 56 45.828125 52.96875 
Q 50 49.953125 52 44.1875 
z
" id="DejaVuSans-109"/>
       <path d="M 34.28125 27.484375 
Q 23.390625 27.484375 19.1875 25 
Q 14.984375 22.515625 14.984375 16.5 
Q 14.984375 11.71875 18.140625 8.90625 
Q 21.296875 6.109375 26.703125 6.109375 
Q 34.1875 6.109375 38.703125 11.40625 
Q 43.21875 16.703125 43.21875 25.484375 
L 43.21875 27.484375 
z
M 52.203125 31.203125 
L 52.203125 0 
L 43.21875 0 
L 43.21875 8.296875 
Q 40.140625 3.328125 35.546875 0.953125 
Q 30.953125 -1.421875 24.3125 -1.421875 
Q 15.921875 -1.421875 10.953125 3.296875 
Q 6 8.015625 6 15.921875 
Q 6 25.140625 12.171875 29.828125 
Q 18.359375 34.515625 30.609375 34.515625 
L 43.21875 34.515625 
L 43.21875 35.40625 
Q 43.21875 41.609375 39.140625 45 
Q 35.0625 48.390625 27.6875 48.390625 
Q 23 48.390625 18.546875 47.265625 
Q 14.109375 46.140625 10.015625 43.890625 
L 10.015625 52.203125 
Q 14.9375 54.109375 19.578125 55.046875 
Q 24.21875 56 28.609375 56 
Q 40.484375 56 46.34375 49.84375 
Q 52.203125 43.703125 52.203125 31.203125 
z
" id="DejaVuSans-97"/>
       <path d="M 45.40625 27.984375 
Q 45.40625 37.75 41.375 43.109375 
Q 37.359375 48.484375 30.078125 48.484375 
Q 22.859375 48.484375 18.828125 43.109375 
Q 14.796875 37.75 14.796875 27.984375 
Q 14.796875 18.265625 18.828125 12.890625 
Q 22.859375 7.515625 30.078125 7.515625 
Q 37.359375 7.515625 41.375 12.890625 
Q 45.40625 18.265625 45.40625 27.984375 
z
M 54.390625 6.78125 
Q 54.390625 -7.171875 48.1875 -13.984375 
Q 42 -20.796875 29.203125 -20.796875 
Q 24.46875 -20.796875 20.265625 -20.09375 
Q 16.0625 -19.390625 12.109375 -17.921875 
L 12.109375 -9.1875 
Q 16.0625 -11.328125 19.921875 -12.34375 
Q 23.78125 -13.375 27.78125 -13.375 
Q 36.625 -13.375 41.015625 -8.765625 
Q 45.40625 -4.15625 45.40625 5.171875 
L 45.40625 9.625 
Q 42.625 4.78125 38.28125 2.390625 
Q 33.9375 0 27.875 0 
Q 17.828125 0 11.671875 7.65625 
Q 5.515625 15.328125 5.515625 27.984375 
Q 5.515625 40.671875 11.671875 48.328125 
Q 17.828125 56 27.875 56 
Q 33.9375 56 38.28125 53.609375 
Q 42.625 51.21875 45.40625 46.390625 
L 45.40625 54.6875 
L 54.390625 54.6875 
z
" id="DejaVuSans-103"/>
       <path d="M 9.421875 54.6875 
L 18.40625 54.6875 
L 18.40625 0 
L 9.421875 0 
z
M 9.421875 75.984375 
L 18.40625 75.984375 
L 18.40625 64.59375 
L 9.421875 64.59375 
z
" id="DejaVuSans-105"/>
       <path d="M 18.3125 70.21875 
L 18.3125 54.6875 
L 36.8125 54.6875 
L 36.8125 47.703125 
L 18.3125 47.703125 
L 18.3125 18.015625 
Q 18.3125 11.328125 20.140625 9.421875 
Q 21.96875 7.515625 27.59375 7.515625 
L 36.8125 7.515625 
L 36.8125 0 
L 27.59375 0 
Q 17.1875 0 13.234375 3.875 
Q 9.28125 7.765625 9.28125 18.015625 
L 9.28125 47.703125 
L 2.6875 47.703125 
L 2.6875 54.6875 
L 9.28125 54.6875 
L 9.28125 70.21875 
z
" id="DejaVuSans-116"/>
       <path d="M 45.40625 46.390625 
L 45.40625 75.984375 
L 54.390625 75.984375 
L 54.390625 0 
L 45.40625 0 
L 45.40625 8.203125 
Q 42.578125 3.328125 38.25 0.953125 
Q 33.9375 -1.421875 27.875 -1.421875 
Q 17.96875 -1.421875 11.734375 6.484375 
Q 5.515625 14.40625 5.515625 27.296875 
Q 5.515625 40.1875 11.734375 48.09375 
Q 17.96875 56 27.875 56 
Q 33.9375 56 38.25 53.625 
Q 42.578125 51.265625 45.40625 46.390625 
z
M 14.796875 27.296875 
Q 14.796875 17.390625 18.875 11.75 
Q 22.953125 6.109375 30.078125 6.109375 
Q 37.203125 6.109375 41.296875 11.75 
Q 45.40625 17.390625 45.40625 27.296875 
Q 45.40625 37.203125 41.296875 42.84375 
Q 37.203125 48.484375 30.078125 48.484375 
Q 22.953125 48.484375 18.875 42.84375 
Q 14.796875 37.203125 14.796875 27.296875 
z
" id="DejaVuSans-100"/>
       <path d="M 19.671875 34.8125 
L 19.671875 8.109375 
L 35.5 8.109375 
Q 43.453125 8.109375 47.28125 11.40625 
Q 51.125 14.703125 51.125 21.484375 
Q 51.125 28.328125 47.28125 31.5625 
Q 43.453125 34.8125 35.5 34.8125 
z
M 19.671875 64.796875 
L 19.671875 42.828125 
L 34.28125 42.828125 
Q 41.5 42.828125 45.03125 45.53125 
Q 48.578125 48.25 48.578125 53.8125 
Q 48.578125 59.328125 45.03125 62.0625 
Q 41.5 64.796875 34.28125 64.796875 
z
M 9.8125 72.90625 
L 35.015625 72.90625 
Q 46.296875 72.90625 52.390625 68.21875 
Q 58.5 63.53125 58.5 54.890625 
Q 58.5 48.1875 55.375 44.234375 
Q 52.25 40.28125 46.1875 39.3125 
Q 53.46875 37.75 57.5 32.78125 
Q 61.53125 27.828125 61.53125 20.40625 
Q 61.53125 10.640625 54.890625 5.3125 
Q 48.25 0 35.984375 0 
L 9.8125 0 
z
" id="DejaVuSans-66"/>
      </defs>
      <use xlink:href="#DejaVuSans-109"/>
      <use x="97.412109" xlink:href="#DejaVuSans-97"/>
      <use x="158.691406" xlink:href="#DejaVuSans-103"/>
      <use x="222.167969" xlink:href="#DejaVuSans-110"/>
      <use x="285.546875" xlink:href="#DejaVuSans-105"/>
      <use x="313.330078" xlink:href="#DejaVuSans-116"/>
      <use x="352.539062" xlink:href="#DejaVuSans-117"/>
      <use x="415.917969" xlink:href="#DejaVuSans-100"/>
      <use x="479.394531" xlink:href="#DejaVuSans-101"/>
      <use x="540.917969" xlink:href="#DejaVuSans-32"/>
      <use x="572.705078" xlink:href="#DejaVuSans-91"/>
      <use x="611.71875" xlink:href="#DejaVuSans-100"/>
      <use x="675.195312" xlink:href="#DejaVuSans-66"/>
      <use x="743.798828" xlink:href="#DejaVuSans-93"/>
     </g>
    </g>
   </g>
   <g id="line2d_115">
    <path clip-path="url(#pb623dd2c2c)" d="M 87.017045 131.649229 
L 90.924529 131.650039 
L 94.832013 131.65106 
L 98.739497 131.652349 
L 102.646981 131.653974 
L 106.554465 131.656025 
L 110.461949 131.658612 
L 114.369433 131.661874 
L 118.276917 131.665989 
L 122.184401 131.671178 
L 126.091885 131.67772 
L 129.999369 131.685966 
L 133.906853 131.696357 
L 137.814337 131.709447 
L 141.72182 131.725927 
L 145.629304 131.746667 
L 149.536788 131.772747 
L 153.444272 131.805515 
L 157.351756 131.846638 
L 161.25924 131.898177 
L 165.166724 131.962658 
L 169.074208 132.043159 
L 172.981692 132.143397 
L 176.889176 132.267808 
L 180.79666 132.421611 
L 184.704144 132.610847 
L 188.611628 132.842349 
L 192.519112 133.123643 
L 196.426596 133.462743 
L 200.334079 133.867821 
L 204.241563 134.34676 
L 208.149047 134.906624 
L 212.056531 135.553085 
L 215.964015 136.289917 
L 219.871499 137.118634 
L 223.778983 138.03835 
L 227.686467 139.0459 
L 231.593951 140.136182 
L 235.501435 141.302676 
L 239.408919 142.538019 
L 243.316403 143.83458 
L 247.223887 145.184943 
L 251.131371 146.582285 
L 255.038854 148.020641 
L 258.946338 149.495062 
L 262.853822 151.001702 
L 266.761306 152.537859 
L 270.66879 154.101982 
L 274.576274 155.693671 
L 278.483758 157.313679 
L 282.391242 158.963912 
L 286.298726 160.647424 
L 290.20621 162.368406 
L 294.113694 164.132131 
L 298.021178 165.94485 
L 301.928662 167.813599 
L 305.836146 169.745906 
L 309.743629 171.749378 
L 313.651113 173.83118 
L 317.558597 175.997457 
L 321.466081 178.252767 
L 325.373565 180.5996 
L 329.281049 183.038108 
L 333.188533 185.566055 
L 337.096017 188.179038 
L 341.003501 190.870899 
L 344.910985 193.634262 
L 348.818469 196.461101 
L 352.725953 199.343251 
L 356.633437 202.27282 
L 360.540921 205.242475 
L 364.448404 208.245622 
L 368.355888 211.276473 
L 372.263372 214.330053 
L 376.170856 217.402155 
L 380.07834 220.489269 
L 383.985824 223.588495 
L 387.893308 226.697458 
L 391.800792 229.814226 
L 395.708276 232.937237 
L 399.61576 236.06523 
L 403.523244 239.197195 
L 407.430728 242.332322 
L 411.338212 245.469964 
L 415.245696 248.609604 
L 419.15318 251.750832 
L 423.060663 254.893321 
L 426.968147 258.03681 
L 430.875631 261.181093 
L 434.783115 264.326005 
L 438.690599 267.471417 
L 442.598083 270.617224 
L 446.505567 273.763345 
L 450.413051 276.909716 
L 454.320535 280.056283 
L 458.228019 283.203007 
L 462.135503 286.349854 
L 466.042987 289.4968 
L 469.950471 292.643824 
L 473.857955 295.790909 
" style="fill:none;stroke:#ff0000;stroke-linecap:square;stroke-width:2;"/>
   </g>
   <g id="line2d_116">
    <path clip-path="url(#pb623dd2c2c)" d="M 87.017045 131.678956 
L 90.924529 131.67978 
L 94.832013 131.680819 
L 98.739497 131.68213 
L 102.646981 131.683785 
L 106.554465 131.685872 
L 110.461949 131.688504 
L 114.369433 131.691825 
L 118.276917 131.696012 
L 122.184401 131.701293 
L 126.091885 131.70795 
L 129.999369 131.716341 
L 133.906853 131.726915 
L 137.814337 131.740233 
L 141.72182 131.757002 
L 145.629304 131.778102 
L 149.536788 131.804634 
L 153.444272 131.837965 
L 157.351756 131.87979 
L 161.25924 131.9322 
L 165.166724 131.997757 
L 169.074208 132.07958 
L 172.981692 132.181433 
L 176.889176 132.307797 
L 180.79666 132.463942 
L 184.704144 132.655946 
L 188.611628 132.890672 
L 192.519112 133.175647 
L 196.426596 133.518847 
L 200.334079 133.928354 
L 204.241563 134.411897 
L 208.149047 134.976301 
L 212.056531 135.626918 
L 215.964015 136.367118 
L 219.871499 137.197932 
L 223.778983 138.117924 
L 227.686467 139.12331 
L 231.593951 140.208305 
L 235.501435 141.365615 
L 239.408919 142.586989 
L 243.316403 143.863734 
L 247.223887 145.187145 
L 251.131371 146.548801 
L 255.038854 147.940738 
L 258.946338 149.355507 
L 262.853822 150.786131 
L 266.761306 152.226011 
L 270.66879 153.66877 
L 274.576274 155.108083 
L 278.483758 156.537498 
L 282.391242 157.950276 
L 286.298726 159.339284 
L 290.20621 160.696998 
L 294.113694 162.015725 
L 298.021178 163.288219 
L 301.928662 164.509004 
L 305.836146 165.676908 
L 309.743629 166.79953 
L 313.651113 167.900405 
L 317.558597 169.028802 
L 321.466081 170.268709 
L 325.373565 171.736574 
L 329.281049 173.552221 
L 333.188533 175.782841 
L 337.096017 178.399159 
L 341.003501 181.288888 
L 344.910985 184.314013 
L 348.818469 187.360219 
L 352.725953 190.354763 
L 356.633437 193.26256 
L 360.540921 196.075394 
L 364.448404 198.80183 
L 368.355888 201.459734 
L 372.263372 204.071154 
L 376.170856 206.658903 
L 380.07834 209.244293 
L 383.985824 211.845678 
L 387.893308 214.477616 
L 391.800792 217.150539 
L 395.708276 219.870843 
L 399.61576 222.64132 
L 403.523244 225.461801 
L 407.430728 228.329905 
L 411.338212 231.24178 
L 415.245696 234.192757 
L 419.15318 237.177868 
L 423.060663 240.192221 
L 426.968147 243.231249 
L 430.875631 246.290839 
L 434.783115 249.367395 
L 438.690599 252.457836 
L 442.598083 255.559568 
L 446.505567 258.670432 
L 450.413051 261.788653 
L 454.320535 264.91278 
L 458.228019 268.041636 
L 462.135503 271.174271 
L 466.042987 274.30992 
L 469.950471 277.44797 
L 473.857955 280.587931 
" style="fill:none;stroke:#0000ff;stroke-linecap:square;stroke-width:2;"/>
   </g>
   <g id="line2d_117">
    <path clip-path="url(#pb623dd2c2c)" d="M 87.017045 39.609091 
L 90.924529 39.655086 
L 94.832013 39.712666 
L 98.739497 39.784607 
L 102.646981 39.87427 
L 106.554465 39.98568 
L 110.461949 40.123601 
L 114.369433 40.293572 
L 118.276917 40.501905 
L 122.184401 40.755609 
L 126.091885 41.062214 
L 129.999369 41.429483 
L 133.906853 41.864991 
L 137.814337 42.375599 
L 141.72182 42.966856 
L 145.629304 43.642419 
L 149.536788 44.403575 
L 153.444272 45.248938 
L 157.351756 46.174401 
L 161.25924 47.173312 
L 165.166724 48.236835 
L 169.074208 49.354419 
L 172.981692 50.514276 
L 176.889176 51.703802 
L 180.79666 52.909909 
L 184.704144 54.119272 
L 188.611628 55.318518 
L 192.519112 56.494404 
L 196.426596 57.634041 
L 200.334079 58.725208 
L 204.241563 59.75679 
L 208.149047 60.719336 
L 212.056531 61.60571 
L 215.964015 62.411816 
L 219.871499 63.137348 
L 223.778983 63.786611 
L 227.686467 64.369502 
L 231.593951 64.902868 
L 235.501435 65.412432 
L 239.408919 65.935374 
L 243.316403 66.523028 
L 247.223887 67.242013 
L 251.131371 68.170477 
L 255.038854 69.38591 
L 258.946338 70.944987 
L 262.853822 72.86433 
L 266.761306 75.115125 
L 270.66879 77.635742 
L 274.576274 80.352838 
L 278.483758 83.198421 
L 282.391242 86.117749 
L 286.298726 89.070057 
L 290.20621 92.025899 
L 294.113694 94.963825 
L 298.021178 97.867585 
L 301.928662 100.724175 
L 305.836146 103.522678 
L 309.743629 106.253736 
L 313.651113 108.909476 
L 317.558597 111.483739 
L 321.466081 113.972441 
L 325.373565 116.373946 
L 329.281049 118.689303 
L 333.188533 120.92229 
L 337.096017 123.079228 
L 341.003501 125.168623 
L 344.910985 127.200688 
L 348.818469 129.186851 
L 352.725953 131.139306 
L 356.633437 133.070654 
L 360.540921 134.993625 
L 364.448404 136.920864 
L 368.355888 138.864728 
L 372.263372 140.837051 
L 376.170856 142.84882 
L 380.07834 144.90976 
L 383.985824 147.027814 
L 387.893308 149.208585 
L 391.800792 151.454812 
L 395.708276 153.765965 
L 399.61576 156.138057 
L 403.523244 158.563719 
L 407.430728 161.032531 
L 411.338212 163.531575 
L 415.245696 166.046142 
L 419.15318 168.56053 
L 423.060663 171.058882 
L 426.968147 173.526021 
L 430.875631 175.948247 
L 434.783115 178.314045 
L 438.690599 180.61464 
L 442.598083 182.844332 
L 446.505567 185.00057 
L 450.413051 187.083744 
L 454.320535 189.096748 
L 458.228019 191.044388 
L 462.135503 192.932741 
L 466.042987 194.768538 
L 469.950471 196.558656 
L 473.857955 198.30973 
" style="fill:none;stroke:#000000;stroke-linecap:square;stroke-width:2;"/>
   </g>
   <g id="line2d_118">
    <path clip-path="url(#pb623dd2c2c)" d="M 87.017045 122.29623 
L 90.924529 122.296246 
L 94.832013 122.296265 
L 98.739497 122.296289 
L 102.646981 122.29632 
L 106.554465 122.296358 
L 110.461949 122.296407 
L 114.369433 122.296468 
L 118.276917 122.296546 
L 122.184401 122.296643 
L 126.091885 122.296766 
L 129.999369 122.29692 
L 133.906853 122.297114 
L 137.814337 122.297358 
L 141.72182 122.297665 
L 145.629304 122.298049 
L 149.536788 122.29853 
L 153.444272 122.299131 
L 157.351756 122.29988 
L 161.25924 122.300811 
L 165.166724 122.301962 
L 169.074208 122.303379 
L 172.981692 122.305113 
L 176.889176 122.307219 
L 180.79666 122.309751 
L 184.704144 122.312761 
L 188.611628 122.316289 
L 192.519112 122.320353 
L 196.426596 122.324937 
L 200.334079 122.329978 
L 204.241563 122.335352 
L 208.149047 122.340864 
L 212.056531 122.346247 
L 215.964015 122.351164 
L 219.871499 122.355214 
L 223.778983 122.357954 
L 227.686467 122.358899 
L 231.593951 122.357534 
L 235.501435 122.353299 
L 239.408919 122.34557 
L 243.316403 122.333625 
L 247.223887 122.316598 
L 251.131371 122.293425 
L 255.038854 122.26278 
L 258.946338 122.223006 
L 262.853822 122.172031 
L 266.761306 122.107286 
L 270.66879 122.025605 
L 274.576274 121.923136 
L 278.483758 121.795257 
L 282.391242 121.636522 
L 286.298726 121.440698 
L 290.20621 121.200926 
L 294.113694 120.910159 
L 298.021178 120.562061 
L 301.928662 120.152679 
L 305.836146 119.683413 
L 309.743629 119.16597 
L 313.651113 118.630025 
L 317.558597 118.133416 
L 321.466081 117.771326 
L 325.373565 117.673882 
L 329.281049 117.976492 
L 333.188533 118.76283 
L 337.096017 120.019643 
L 341.003501 121.648728 
L 344.910985 123.522876 
L 348.818469 125.534343 
L 352.725953 127.612315 
L 356.633437 129.71916 
L 360.540921 131.840278 
L 364.448404 133.974916 
L 368.355888 136.129699 
L 372.263372 138.314422 
L 376.170856 140.539372 
L 380.07834 142.813564 
L 383.985824 145.143576 
L 387.893308 147.532818 
L 391.800792 149.981164 
L 395.708276 152.484923 
L 399.61576 155.037097 
L 403.523244 157.627854 
L 407.430728 160.245115 
L 411.338212 162.875217 
L 415.245696 165.503559 
L 419.15318 168.115245 
L 423.060663 170.695719 
L 426.968147 173.231394 
L 430.875631 175.710275 
L 434.783115 178.122534 
L 438.690599 180.46098 
L 442.598083 182.721343 
L 446.505567 184.902325 
L 450.413051 187.00539 
L 454.320535 189.034338 
L 458.228019 190.99473 
L 462.135503 192.893261 
L 466.042987 194.73717 
L 469.950471 196.533747 
L 473.857955 198.289958 
" style="fill:none;stroke:#bf00bf;stroke-linecap:square;stroke-width:2;"/>
   </g>
   <g id="line2d_119">
    <path clip-path="url(#pb623dd2c2c)" d="M 87.017045 226.047781 
L 90.924529 224.494085 
L 94.832013 222.94531 
L 98.739497 221.402572 
L 102.646981 219.867189 
L 106.554465 218.340685 
L 110.461949 216.824782 
L 114.369433 215.321361 
L 118.276917 213.832382 
L 122.184401 212.359759 
L 126.091885 210.905171 
L 129.999369 209.469818 
L 133.906853 208.054136 
L 137.814337 206.657512 
L 141.72182 205.278069 
L 145.629304 203.912575 
L 149.536788 202.556548 
L 153.444272 201.204585 
L 157.351756 199.850856 
L 161.25924 198.489697 
L 165.166724 197.116161 
L 169.074208 195.726424 
L 172.981692 194.317987 
L 176.889176 192.889668 
L 180.79666 191.44143 
L 184.704144 189.97412 
L 188.611628 188.489185 
L 192.519112 186.988417 
L 196.426596 185.473766 
L 200.334079 183.947216 
L 204.241563 182.410757 
L 208.149047 180.866434 
L 212.056531 179.316503 
L 215.964015 177.76372 
L 219.871499 176.211823 
L 223.778983 174.666292 
L 227.686467 173.135529 
L 231.593951 171.632628 
L 235.501435 170.177874 
L 239.408919 168.801954 
L 243.316403 167.549265 
L 247.223887 166.479564 
L 251.131371 165.66462 
L 255.038854 165.176308 
L 258.946338 165.066636 
L 262.853822 165.348606 
L 266.761306 165.990878 
L 270.66879 166.930414 
L 274.576274 168.093587 
L 278.483758 169.413248 
L 282.391242 170.836639 
L 286.298726 172.326111 
L 290.20621 173.856461 
L 294.113694 175.411558 
L 298.021178 176.981444 
L 301.928662 178.560192 
L 305.836146 180.144453 
L 309.743629 181.732517 
L 313.651113 183.323722 
L 317.558597 184.918109 
L 321.466081 186.516212 
L 325.373565 188.118966 
L 329.281049 189.727663 
L 333.188533 191.343962 
L 337.096017 192.969928 
L 341.003501 194.608087 
L 344.910985 196.261508 
L 348.818469 197.933877 
L 352.725953 199.629581 
L 356.633437 201.353779 
L 360.540921 203.112434 
L 364.448404 204.912302 
L 368.355888 206.760836 
L 372.263372 208.665996 
L 376.170856 210.635936 
L 380.07834 212.678565 
L 383.985824 214.801021 
L 387.893308 217.009102 
L 391.800792 219.30674 
L 395.708276 221.695609 
L 399.61576 224.17496 
L 403.523244 226.741693 
L 407.430728 229.390674 
L 411.338212 232.115219 
L 415.245696 234.90766 
L 419.15318 237.759893 
L 423.060663 240.663863 
L 426.968147 243.611915 
L 430.875631 246.597042 
L 434.783115 249.613006 
L 438.690599 252.654387 
L 442.598083 255.716558 
L 446.505567 258.795629 
L 450.413051 261.88837 
L 454.320535 264.992122 
L 458.228019 268.104716 
L 462.135503 271.224388 
L 466.042987 274.349718 
L 469.950471 277.47956 
L 473.857955 280.612997 
" style="fill:none;stroke:#008000;stroke-linecap:square;stroke-width:2;"/>
   </g>
   <g id="patch_3">
    <path d="M 67.675 308.6 
L 67.675 26.8 
" style="fill:none;stroke:#000000;stroke-linecap:square;stroke-linejoin:miter;stroke-width:0.8;"/>
   </g>
   <g id="patch_4">
    <path d="M 493.2 308.6 
L 493.2 26.8 
" style="fill:none;stroke:#000000;stroke-linecap:square;stroke-linejoin:miter;stroke-width:0.8;"/>
   </g>
   <g id="patch_5">
    <path d="M 67.675 308.6 
L 493.2 308.6 
" style="fill:none;stroke:#000000;stroke-linecap:square;stroke-linejoin:miter;stroke-width:0.8;"/>
   </g>
   <g id="patch_6">
    <path d="M 67.675 26.8 
L 493.2 26.8 
" style="fill:none;stroke:#000000;stroke-linecap:square;stroke-linejoin:miter;stroke-width:0.8;"/>
   </g>
   <g id="text_16">
    <!-- Bandwidth limited amplifier -->
    <g transform="translate(197.381563 20.8)scale(0.12 -0.12)">
     <defs>
      <path d="M 4.203125 54.6875 
L 13.1875 54.6875 
L 24.421875 12.015625 
L 35.59375 54.6875 
L 46.1875 54.6875 
L 57.421875 12.015625 
L 68.609375 54.6875 
L 77.59375 54.6875 
L 63.28125 0 
L 52.6875 0 
L 40.921875 44.828125 
L 29.109375 0 
L 18.5 0 
z
" id="DejaVuSans-119"/>
      <path d="M 54.890625 33.015625 
L 54.890625 0 
L 45.90625 0 
L 45.90625 32.71875 
Q 45.90625 40.484375 42.875 44.328125 
Q 39.84375 48.1875 33.796875 48.1875 
Q 26.515625 48.1875 22.3125 43.546875 
Q 18.109375 38.921875 18.109375 30.90625 
L 18.109375 0 
L 9.078125 0 
L 9.078125 75.984375 
L 18.109375 75.984375 
L 18.109375 46.1875 
Q 21.34375 51.125 25.703125 53.5625 
Q 30.078125 56 35.796875 56 
Q 45.21875 56 50.046875 50.171875 
Q 54.890625 44.34375 54.890625 33.015625 
z
" id="DejaVuSans-104"/>
      <path d="M 9.421875 75.984375 
L 18.40625 75.984375 
L 18.40625 0 
L 9.421875 0 
z
" id="DejaVuSans-108"/>
      <path d="M 18.109375 8.203125 
L 18.109375 -20.796875 
L 9.078125 -20.796875 
L 9.078125 54.6875 
L 18.109375 54.6875 
L 18.109375 46.390625 
Q 20.953125 51.265625 25.265625 53.625 
Q 29.59375 56 35.59375 56 
Q 45.5625 56 51.78125 48.09375 
Q 58.015625 40.1875 58.015625 27.296875 
Q 58.015625 14.40625 51.78125 6.484375 
Q 45.5625 -1.421875 35.59375 -1.421875 
Q 29.59375 -1.421875 25.265625 0.953125 
Q 20.953125 3.328125 18.109375 8.203125 
z
M 48.6875 27.296875 
Q 48.6875 37.203125 44.609375 42.84375 
Q 40.53125 48.484375 33.40625 48.484375 
Q 26.265625 48.484375 22.1875 42.84375 
Q 18.109375 37.203125 18.109375 27.296875 
Q 18.109375 17.390625 22.1875 11.75 
Q 26.265625 6.109375 33.40625 6.109375 
Q 40.53125 6.109375 44.609375 11.75 
Q 48.6875 17.390625 48.6875 27.296875 
z
" id="DejaVuSans-112"/>
     </defs>
     <use xlink:href="#DejaVuSans-66"/>
     <use x="68.603516" xlink:href="#DejaVuSans-97"/>
     <use x="129.882812" xlink:href="#DejaVuSans-110"/>
     <use x="193.261719" xlink:href="#DejaVuSans-100"/>
     <use x="256.738281" xlink:href="#DejaVuSans-119"/>
     <use x="338.525391" xlink:href="#DejaVuSans-105"/>
     <use x="366.308594" xlink:href="#DejaVuSans-100"/>
     <use x="429.785156" xlink:href="#DejaVuSans-116"/>
     <use x="468.994141" xlink:href="#DejaVuSans-104"/>
     <use x="532.373047" xlink:href="#DejaVuSans-32"/>
     <use x="564.160156" xlink:href="#DejaVuSans-108"/>
     <use x="591.943359" xlink:href="#DejaVuSans-105"/>
     <use x="619.726562" xlink:href="#DejaVuSans-109"/>
     <use x="717.138672" xlink:href="#DejaVuSans-105"/>
     <use x="744.921875" xlink:href="#DejaVuSans-116"/>
     <use x="784.130859" xlink:href="#DejaVuSans-101"/>
     <use x="845.654297" xlink:href="#DejaVuSans-100"/>
     <use x="909.130859" xlink:href="#DejaVuSans-32"/>
     <use x="940.917969" xlink:href="#DejaVuSans-97"/>
     <use x="1002.197266" xlink:href="#DejaVuSans-109"/>
     <use x="1099.609375" xlink:href="#DejaVuSans-112"/>
     <use x="1163.085938" xlink:href="#DejaVuSans-108"/>
     <use x="1190.869141" xlink:href="#DejaVuSans-105"/>
     <use x="1218.652344" xlink:href="#DejaVuSans-102"/>
     <use x="1253.857422" xlink:href="#DejaVuSans-105"/>
     <use x="1281.640625" xlink:href="#DejaVuSans-101"/>
     <use x="1343.164062" xlink:href="#DejaVuSans-114"/>
    </g>
   </g>
   <g id="legend_1">
    <g id="patch_7">
     <path d="M 407.5025 93.86875 
L 486.2 93.86875 
Q 488.2 93.86875 488.2 91.86875 
L 488.2 33.8 
Q 488.2 31.8 486.2 31.8 
L 407.5025 31.8 
Q 405.5025 31.8 405.5025 33.8 
L 405.5025 91.86875 
Q 405.5025 93.86875 407.5025 93.86875 
z
" style="fill:#ffffff;opacity:0.8;stroke:#cccccc;stroke-linejoin:miter;"/>
    </g>
    <g id="line2d_120">
     <path d="M 407.5025 39.418125 
L 417.5025 39.418125 
" style="fill:none;stroke:#ff0000;stroke-linecap:square;stroke-width:2;"/>
    </g>
    <g id="line2d_121"/>
    <g id="text_17">
     <!-- asymptotic -->
     <g transform="translate(419.5025 42.918125)scale(0.12 -0.12)">
      <defs>
       <path d="M 44.28125 53.078125 
L 44.28125 44.578125 
Q 40.484375 46.53125 36.375 47.5 
Q 32.28125 48.484375 27.875 48.484375 
Q 21.1875 48.484375 17.84375 46.4375 
Q 14.5 44.390625 14.5 40.28125 
Q 14.5 37.15625 16.890625 35.375 
Q 19.28125 33.59375 26.515625 31.984375 
L 29.59375 31.296875 
Q 39.15625 29.25 43.1875 25.515625 
Q 47.21875 21.78125 47.21875 15.09375 
Q 47.21875 7.46875 41.1875 3.015625 
Q 35.15625 -1.421875 24.609375 -1.421875 
Q 20.21875 -1.421875 15.453125 -0.5625 
Q 10.6875 0.296875 5.421875 2 
L 5.421875 11.28125 
Q 10.40625 8.6875 15.234375 7.390625 
Q 20.0625 6.109375 24.8125 6.109375 
Q 31.15625 6.109375 34.5625 8.28125 
Q 37.984375 10.453125 37.984375 14.40625 
Q 37.984375 18.0625 35.515625 20.015625 
Q 33.0625 21.96875 24.703125 23.78125 
L 21.578125 24.515625 
Q 13.234375 26.265625 9.515625 29.90625 
Q 5.8125 33.546875 5.8125 39.890625 
Q 5.8125 47.609375 11.28125 51.796875 
Q 16.75 56 26.8125 56 
Q 31.78125 56 36.171875 55.265625 
Q 40.578125 54.546875 44.28125 53.078125 
z
" id="DejaVuSans-115"/>
       <path d="M 30.609375 48.390625 
Q 23.390625 48.390625 19.1875 42.75 
Q 14.984375 37.109375 14.984375 27.296875 
Q 14.984375 17.484375 19.15625 11.84375 
Q 23.34375 6.203125 30.609375 6.203125 
Q 37.796875 6.203125 41.984375 11.859375 
Q 46.1875 17.53125 46.1875 27.296875 
Q 46.1875 37.015625 41.984375 42.703125 
Q 37.796875 48.390625 30.609375 48.390625 
z
M 30.609375 56 
Q 42.328125 56 49.015625 48.375 
Q 55.71875 40.765625 55.71875 27.296875 
Q 55.71875 13.875 49.015625 6.21875 
Q 42.328125 -1.421875 30.609375 -1.421875 
Q 18.84375 -1.421875 12.171875 6.21875 
Q 5.515625 13.875 5.515625 27.296875 
Q 5.515625 40.765625 12.171875 48.375 
Q 18.84375 56 30.609375 56 
z
" id="DejaVuSans-111"/>
      </defs>
      <use xlink:href="#DejaVuSans-97"/>
      <use x="61.279297" xlink:href="#DejaVuSans-115"/>
      <use x="113.378906" xlink:href="#DejaVuSans-121"/>
      <use x="172.558594" xlink:href="#DejaVuSans-109"/>
      <use x="269.970703" xlink:href="#DejaVuSans-112"/>
      <use x="333.447266" xlink:href="#DejaVuSans-116"/>
      <use x="372.65625" xlink:href="#DejaVuSans-111"/>
      <use x="433.837891" xlink:href="#DejaVuSans-116"/>
      <use x="473.046875" xlink:href="#DejaVuSans-105"/>
      <use x="500.830078" xlink:href="#DejaVuSans-99"/>
     </g>
    </g>
    <g id="line2d_122">
     <path d="M 407.5025 51.031875 
L 417.5025 51.031875 
" style="fill:none;stroke:#0000ff;stroke-linecap:square;stroke-width:2;"/>
    </g>
    <g id="line2d_123"/>
    <g id="text_18">
     <!-- gain -->
     <g transform="translate(419.5025 54.531875)scale(0.12 -0.12)">
      <use xlink:href="#DejaVuSans-103"/>
      <use x="63.476562" xlink:href="#DejaVuSans-97"/>
      <use x="124.755859" xlink:href="#DejaVuSans-105"/>
      <use x="152.539062" xlink:href="#DejaVuSans-110"/>
     </g>
    </g>
    <g id="line2d_124">
     <path d="M 407.5025 62.645625 
L 417.5025 62.645625 
" style="fill:none;stroke:#000000;stroke-linecap:square;stroke-width:2;"/>
    </g>
    <g id="line2d_125"/>
    <g id="text_19">
     <!-- loopgain -->
     <g transform="translate(419.5025 66.145625)scale(0.12 -0.12)">
      <use xlink:href="#DejaVuSans-108"/>
      <use x="27.783203" xlink:href="#DejaVuSans-111"/>
      <use x="88.964844" xlink:href="#DejaVuSans-111"/>
      <use x="150.146484" xlink:href="#DejaVuSans-112"/>
      <use x="213.623047" xlink:href="#DejaVuSans-103"/>
      <use x="277.099609" xlink:href="#DejaVuSans-97"/>
      <use x="338.378906" xlink:href="#DejaVuSans-105"/>
      <use x="366.162109" xlink:href="#DejaVuSans-110"/>
     </g>
    </g>
    <g id="line2d_126">
     <path d="M 407.5025 74.259375 
L 417.5025 74.259375 
" style="fill:none;stroke:#bf00bf;stroke-linecap:square;stroke-width:2;"/>
    </g>
    <g id="line2d_127"/>
    <g id="text_20">
     <!-- servo -->
     <g transform="translate(419.5025 77.759375)scale(0.12 -0.12)">
      <defs>
       <path d="M 2.984375 54.6875 
L 12.5 54.6875 
L 29.59375 8.796875 
L 46.6875 54.6875 
L 56.203125 54.6875 
L 35.6875 0 
L 23.484375 0 
z
" id="DejaVuSans-118"/>
      </defs>
      <use xlink:href="#DejaVuSans-115"/>
      <use x="52.099609" xlink:href="#DejaVuSans-101"/>
      <use x="113.623047" xlink:href="#DejaVuSans-114"/>
      <use x="154.736328" xlink:href="#DejaVuSans-118"/>
      <use x="213.916016" xlink:href="#DejaVuSans-111"/>
     </g>
    </g>
    <g id="line2d_128">
     <path d="M 407.5025 85.873125 
L 417.5025 85.873125 
" style="fill:none;stroke:#008000;stroke-linecap:square;stroke-width:2;"/>
    </g>
    <g id="line2d_129"/>
    <g id="text_21">
     <!-- direct -->
     <g transform="translate(419.5025 89.373125)scale(0.12 -0.12)">
      <use xlink:href="#DejaVuSans-100"/>
      <use x="63.476562" xlink:href="#DejaVuSans-105"/>
      <use x="91.259766" xlink:href="#DejaVuSans-114"/>
      <use x="130.123047" xlink:href="#DejaVuSans-101"/>
      <use x="191.646484" xlink:href="#DejaVuSans-99"/>
      <use x="246.626953" xlink:href="#DejaVuSans-116"/>
     </g>
    </g>
   </g>
  </g>
 </g>
 <defs>
  <clipPath id="pb623dd2c2c">
   <rect height="281.8" width="425.525" x="67.675" y="26.8"/>
  </clipPath>
 </defs>
</svg>
