<?xml version="1.0" encoding="utf-8" standalone="no"?>
<!DOCTYPE svg PUBLIC "-//W3C//DTD SVG 1.1//EN"
  "http://www.w3.org/Graphics/SVG/1.1/DTD/svg11.dtd">
<!-- Created with matplotlib (https://matplotlib.org/) -->
<svg height="360pt" version="1.1" viewBox="0 0 504 360" width="504pt" xmlns="http://www.w3.org/2000/svg" xmlns:xlink="http://www.w3.org/1999/xlink">
 <metadata>
  <rdf:RDF xmlns:cc="http://creativecommons.org/ns#" xmlns:dc="http://purl.org/dc/elements/1.1/" xmlns:rdf="http://www.w3.org/1999/02/22-rdf-syntax-ns#">
   <cc:Work>
    <dc:type rdf:resource="http://purl.org/dc/dcmitype/StillImage"/>
    <dc:date>2022-01-10T20:56:50.966094</dc:date>
    <dc:format>image/svg+xml</dc:format>
    <dc:creator>
     <cc:Agent>
      <dc:title>Matplotlib v3.3.4, https://matplotlib.org/</dc:title>
     </cc:Agent>
    </dc:creator>
   </cc:Work>
  </rdf:RDF>
 </metadata>
 <defs>
  <style type="text/css">*{stroke-linecap:butt;stroke-linejoin:round;}</style>
 </defs>
 <g id="figure_1">
  <g id="patch_1">
   <path d="M 0 360 
L 504 360 
L 504 0 
L 0 0 
z
" style="fill:#ffffff;"/>
  </g>
  <g id="axes_1">
   <g id="patch_2">
    <path d="M 67.675 308.6 
L 493.2 308.6 
L 493.2 26.8 
L 67.675 26.8 
z
" style="fill:#ffffff;"/>
   </g>
   <g id="matplotlib.axis_1">
    <g id="xtick_1">
     <g id="line2d_1">
      <path clip-path="url(#pb1cf29a1b3)" d="M 87.017045 308.6 
L 87.017045 26.8 
" style="fill:none;stroke:#808080;stroke-linecap:square;stroke-width:0.8;"/>
     </g>
     <g id="line2d_2">
      <defs>
       <path d="M 0 0 
L 0 3.5 
" id="m6732583fac" style="stroke:#000000;stroke-width:0.8;"/>
      </defs>
      <g>
       <use style="stroke:#000000;stroke-width:0.8;" x="87.017045" xlink:href="#m6732583fac" y="308.6"/>
      </g>
     </g>
     <g id="text_1">
      <!-- $\mathdefault{10^{0}}$ -->
      <g transform="translate(76.457045 324.718125)scale(0.12 -0.12)">
       <defs>
        <path d="M 12.40625 8.296875 
L 28.515625 8.296875 
L 28.515625 63.921875 
L 10.984375 60.40625 
L 10.984375 69.390625 
L 28.421875 72.90625 
L 38.28125 72.90625 
L 38.28125 8.296875 
L 54.390625 8.296875 
L 54.390625 0 
L 12.40625 0 
z
" id="DejaVuSans-49"/>
        <path d="M 31.78125 66.40625 
Q 24.171875 66.40625 20.328125 58.90625 
Q 16.5 51.421875 16.5 36.375 
Q 16.5 21.390625 20.328125 13.890625 
Q 24.171875 6.390625 31.78125 6.390625 
Q 39.453125 6.390625 43.28125 13.890625 
Q 47.125 21.390625 47.125 36.375 
Q 47.125 51.421875 43.28125 58.90625 
Q 39.453125 66.40625 31.78125 66.40625 
z
M 31.78125 74.21875 
Q 44.046875 74.21875 50.515625 64.515625 
Q 56.984375 54.828125 56.984375 36.375 
Q 56.984375 17.96875 50.515625 8.265625 
Q 44.046875 -1.421875 31.78125 -1.421875 
Q 19.53125 -1.421875 13.0625 8.265625 
Q 6.59375 17.96875 6.59375 36.375 
Q 6.59375 54.828125 13.0625 64.515625 
Q 19.53125 74.21875 31.78125 74.21875 
z
" id="DejaVuSans-48"/>
       </defs>
       <use transform="translate(0 0.765625)" xlink:href="#DejaVuSans-49"/>
       <use transform="translate(63.623047 0.765625)" xlink:href="#DejaVuSans-48"/>
       <use transform="translate(128.203125 39.046875)scale(0.7)" xlink:href="#DejaVuSans-48"/>
      </g>
     </g>
    </g>
    <g id="xtick_2">
     <g id="line2d_3">
      <path clip-path="url(#pb1cf29a1b3)" d="M 164.385227 308.6 
L 164.385227 26.8 
" style="fill:none;stroke:#808080;stroke-linecap:square;stroke-width:0.8;"/>
     </g>
     <g id="line2d_4">
      <g>
       <use style="stroke:#000000;stroke-width:0.8;" x="164.385227" xlink:href="#m6732583fac" y="308.6"/>
      </g>
     </g>
     <g id="text_2">
      <!-- $\mathdefault{10^{1}}$ -->
      <g transform="translate(153.825227 324.718125)scale(0.12 -0.12)">
       <use transform="translate(0 0.684375)" xlink:href="#DejaVuSans-49"/>
       <use transform="translate(63.623047 0.684375)" xlink:href="#DejaVuSans-48"/>
       <use transform="translate(128.203125 38.965625)scale(0.7)" xlink:href="#DejaVuSans-49"/>
      </g>
     </g>
    </g>
    <g id="xtick_3">
     <g id="line2d_5">
      <path clip-path="url(#pb1cf29a1b3)" d="M 241.753409 308.6 
L 241.753409 26.8 
" style="fill:none;stroke:#808080;stroke-linecap:square;stroke-width:0.8;"/>
     </g>
     <g id="line2d_6">
      <g>
       <use style="stroke:#000000;stroke-width:0.8;" x="241.753409" xlink:href="#m6732583fac" y="308.6"/>
      </g>
     </g>
     <g id="text_3">
      <!-- $\mathdefault{10^{2}}$ -->
      <g transform="translate(231.193409 324.718125)scale(0.12 -0.12)">
       <defs>
        <path d="M 19.1875 8.296875 
L 53.609375 8.296875 
L 53.609375 0 
L 7.328125 0 
L 7.328125 8.296875 
Q 12.9375 14.109375 22.625 23.890625 
Q 32.328125 33.6875 34.8125 36.53125 
Q 39.546875 41.84375 41.421875 45.53125 
Q 43.3125 49.21875 43.3125 52.78125 
Q 43.3125 58.59375 39.234375 62.25 
Q 35.15625 65.921875 28.609375 65.921875 
Q 23.96875 65.921875 18.8125 64.3125 
Q 13.671875 62.703125 7.8125 59.421875 
L 7.8125 69.390625 
Q 13.765625 71.78125 18.9375 73 
Q 24.125 74.21875 28.421875 74.21875 
Q 39.75 74.21875 46.484375 68.546875 
Q 53.21875 62.890625 53.21875 53.421875 
Q 53.21875 48.921875 51.53125 44.890625 
Q 49.859375 40.875 45.40625 35.40625 
Q 44.1875 33.984375 37.640625 27.21875 
Q 31.109375 20.453125 19.1875 8.296875 
z
" id="DejaVuSans-50"/>
       </defs>
       <use transform="translate(0 0.765625)" xlink:href="#DejaVuSans-49"/>
       <use transform="translate(63.623047 0.765625)" xlink:href="#DejaVuSans-48"/>
       <use transform="translate(128.203125 39.046875)scale(0.7)" xlink:href="#DejaVuSans-50"/>
      </g>
     </g>
    </g>
    <g id="xtick_4">
     <g id="line2d_7">
      <path clip-path="url(#pb1cf29a1b3)" d="M 319.121591 308.6 
L 319.121591 26.8 
" style="fill:none;stroke:#808080;stroke-linecap:square;stroke-width:0.8;"/>
     </g>
     <g id="line2d_8">
      <g>
       <use style="stroke:#000000;stroke-width:0.8;" x="319.121591" xlink:href="#m6732583fac" y="308.6"/>
      </g>
     </g>
     <g id="text_4">
      <!-- $\mathdefault{10^{3}}$ -->
      <g transform="translate(308.561591 324.718125)scale(0.12 -0.12)">
       <defs>
        <path d="M 40.578125 39.3125 
Q 47.65625 37.796875 51.625 33 
Q 55.609375 28.21875 55.609375 21.1875 
Q 55.609375 10.40625 48.1875 4.484375 
Q 40.765625 -1.421875 27.09375 -1.421875 
Q 22.515625 -1.421875 17.65625 -0.515625 
Q 12.796875 0.390625 7.625 2.203125 
L 7.625 11.71875 
Q 11.71875 9.328125 16.59375 8.109375 
Q 21.484375 6.890625 26.8125 6.890625 
Q 36.078125 6.890625 40.9375 10.546875 
Q 45.796875 14.203125 45.796875 21.1875 
Q 45.796875 27.640625 41.28125 31.265625 
Q 36.765625 34.90625 28.71875 34.90625 
L 20.21875 34.90625 
L 20.21875 43.015625 
L 29.109375 43.015625 
Q 36.375 43.015625 40.234375 45.921875 
Q 44.09375 48.828125 44.09375 54.296875 
Q 44.09375 59.90625 40.109375 62.90625 
Q 36.140625 65.921875 28.71875 65.921875 
Q 24.65625 65.921875 20.015625 65.03125 
Q 15.375 64.15625 9.8125 62.3125 
L 9.8125 71.09375 
Q 15.4375 72.65625 20.34375 73.4375 
Q 25.25 74.21875 29.59375 74.21875 
Q 40.828125 74.21875 47.359375 69.109375 
Q 53.90625 64.015625 53.90625 55.328125 
Q 53.90625 49.265625 50.4375 45.09375 
Q 46.96875 40.921875 40.578125 39.3125 
z
" id="DejaVuSans-51"/>
       </defs>
       <use transform="translate(0 0.765625)" xlink:href="#DejaVuSans-49"/>
       <use transform="translate(63.623047 0.765625)" xlink:href="#DejaVuSans-48"/>
       <use transform="translate(128.203125 39.046875)scale(0.7)" xlink:href="#DejaVuSans-51"/>
      </g>
     </g>
    </g>
    <g id="xtick_5">
     <g id="line2d_9">
      <path clip-path="url(#pb1cf29a1b3)" d="M 396.489773 308.6 
L 396.489773 26.8 
" style="fill:none;stroke:#808080;stroke-linecap:square;stroke-width:0.8;"/>
     </g>
     <g id="line2d_10">
      <g>
       <use style="stroke:#000000;stroke-width:0.8;" x="396.489773" xlink:href="#m6732583fac" y="308.6"/>
      </g>
     </g>
     <g id="text_5">
      <!-- $\mathdefault{10^{4}}$ -->
      <g transform="translate(385.929773 324.718125)scale(0.12 -0.12)">
       <defs>
        <path d="M 37.796875 64.3125 
L 12.890625 25.390625 
L 37.796875 25.390625 
z
M 35.203125 72.90625 
L 47.609375 72.90625 
L 47.609375 25.390625 
L 58.015625 25.390625 
L 58.015625 17.1875 
L 47.609375 17.1875 
L 47.609375 0 
L 37.796875 0 
L 37.796875 17.1875 
L 4.890625 17.1875 
L 4.890625 26.703125 
z
" id="DejaVuSans-52"/>
       </defs>
       <use transform="translate(0 0.684375)" xlink:href="#DejaVuSans-49"/>
       <use transform="translate(63.623047 0.684375)" xlink:href="#DejaVuSans-48"/>
       <use transform="translate(128.203125 38.965625)scale(0.7)" xlink:href="#DejaVuSans-52"/>
      </g>
     </g>
    </g>
    <g id="xtick_6">
     <g id="line2d_11">
      <path clip-path="url(#pb1cf29a1b3)" d="M 473.857955 308.6 
L 473.857955 26.8 
" style="fill:none;stroke:#808080;stroke-linecap:square;stroke-width:0.8;"/>
     </g>
     <g id="line2d_12">
      <g>
       <use style="stroke:#000000;stroke-width:0.8;" x="473.857955" xlink:href="#m6732583fac" y="308.6"/>
      </g>
     </g>
     <g id="text_6">
      <!-- $\mathdefault{10^{5}}$ -->
      <g transform="translate(463.297955 324.718125)scale(0.12 -0.12)">
       <defs>
        <path d="M 10.796875 72.90625 
L 49.515625 72.90625 
L 49.515625 64.59375 
L 19.828125 64.59375 
L 19.828125 46.734375 
Q 21.96875 47.46875 24.109375 47.828125 
Q 26.265625 48.1875 28.421875 48.1875 
Q 40.625 48.1875 47.75 41.5 
Q 54.890625 34.8125 54.890625 23.390625 
Q 54.890625 11.625 47.5625 5.09375 
Q 40.234375 -1.421875 26.90625 -1.421875 
Q 22.3125 -1.421875 17.546875 -0.640625 
Q 12.796875 0.140625 7.71875 1.703125 
L 7.71875 11.625 
Q 12.109375 9.234375 16.796875 8.0625 
Q 21.484375 6.890625 26.703125 6.890625 
Q 35.15625 6.890625 40.078125 11.328125 
Q 45.015625 15.765625 45.015625 23.390625 
Q 45.015625 31 40.078125 35.4375 
Q 35.15625 39.890625 26.703125 39.890625 
Q 22.75 39.890625 18.8125 39.015625 
Q 14.890625 38.140625 10.796875 36.28125 
z
" id="DejaVuSans-53"/>
       </defs>
       <use transform="translate(0 0.684375)" xlink:href="#DejaVuSans-49"/>
       <use transform="translate(63.623047 0.684375)" xlink:href="#DejaVuSans-48"/>
       <use transform="translate(128.203125 38.965625)scale(0.7)" xlink:href="#DejaVuSans-53"/>
      </g>
     </g>
    </g>
    <g id="xtick_7">
     <g id="line2d_13">
      <path clip-path="url(#pb1cf29a1b3)" d="M 69.853011 308.6 
L 69.853011 26.8 
" style="fill:none;stroke:#808080;stroke-dasharray:0.8,1.32;stroke-dashoffset:0;stroke-width:0.8;"/>
     </g>
     <g id="line2d_14">
      <defs>
       <path d="M 0 0 
L 0 2 
" id="m5d19a0b460" style="stroke:#000000;stroke-width:0.6;"/>
      </defs>
      <g>
       <use style="stroke:#000000;stroke-width:0.6;" x="69.853011" xlink:href="#m5d19a0b460" y="308.6"/>
      </g>
     </g>
    </g>
    <g id="xtick_8">
     <g id="line2d_15">
      <path clip-path="url(#pb1cf29a1b3)" d="M 75.032562 308.6 
L 75.032562 26.8 
" style="fill:none;stroke:#808080;stroke-dasharray:0.8,1.32;stroke-dashoffset:0;stroke-width:0.8;"/>
     </g>
     <g id="line2d_16">
      <g>
       <use style="stroke:#000000;stroke-width:0.6;" x="75.032562" xlink:href="#m5d19a0b460" y="308.6"/>
      </g>
     </g>
    </g>
    <g id="xtick_9">
     <g id="line2d_17">
      <path clip-path="url(#pb1cf29a1b3)" d="M 79.519294 308.6 
L 79.519294 26.8 
" style="fill:none;stroke:#808080;stroke-dasharray:0.8,1.32;stroke-dashoffset:0;stroke-width:0.8;"/>
     </g>
     <g id="line2d_18">
      <g>
       <use style="stroke:#000000;stroke-width:0.6;" x="79.519294" xlink:href="#m5d19a0b460" y="308.6"/>
      </g>
     </g>
    </g>
    <g id="xtick_10">
     <g id="line2d_19">
      <path clip-path="url(#pb1cf29a1b3)" d="M 83.476872 308.6 
L 83.476872 26.8 
" style="fill:none;stroke:#808080;stroke-dasharray:0.8,1.32;stroke-dashoffset:0;stroke-width:0.8;"/>
     </g>
     <g id="line2d_20">
      <g>
       <use style="stroke:#000000;stroke-width:0.6;" x="83.476872" xlink:href="#m5d19a0b460" y="308.6"/>
      </g>
     </g>
    </g>
    <g id="xtick_11">
     <g id="line2d_21">
      <path clip-path="url(#pb1cf29a1b3)" d="M 110.307189 308.6 
L 110.307189 26.8 
" style="fill:none;stroke:#808080;stroke-dasharray:0.8,1.32;stroke-dashoffset:0;stroke-width:0.8;"/>
     </g>
     <g id="line2d_22">
      <g>
       <use style="stroke:#000000;stroke-width:0.6;" x="110.307189" xlink:href="#m5d19a0b460" y="308.6"/>
      </g>
     </g>
    </g>
    <g id="xtick_12">
     <g id="line2d_23">
      <path clip-path="url(#pb1cf29a1b3)" d="M 123.931049 308.6 
L 123.931049 26.8 
" style="fill:none;stroke:#808080;stroke-dasharray:0.8,1.32;stroke-dashoffset:0;stroke-width:0.8;"/>
     </g>
     <g id="line2d_24">
      <g>
       <use style="stroke:#000000;stroke-width:0.6;" x="123.931049" xlink:href="#m5d19a0b460" y="308.6"/>
      </g>
     </g>
    </g>
    <g id="xtick_13">
     <g id="line2d_25">
      <path clip-path="url(#pb1cf29a1b3)" d="M 133.597332 308.6 
L 133.597332 26.8 
" style="fill:none;stroke:#808080;stroke-dasharray:0.8,1.32;stroke-dashoffset:0;stroke-width:0.8;"/>
     </g>
     <g id="line2d_26">
      <g>
       <use style="stroke:#000000;stroke-width:0.6;" x="133.597332" xlink:href="#m5d19a0b460" y="308.6"/>
      </g>
     </g>
    </g>
    <g id="xtick_14">
     <g id="line2d_27">
      <path clip-path="url(#pb1cf29a1b3)" d="M 141.095084 308.6 
L 141.095084 26.8 
" style="fill:none;stroke:#808080;stroke-dasharray:0.8,1.32;stroke-dashoffset:0;stroke-width:0.8;"/>
     </g>
     <g id="line2d_28">
      <g>
       <use style="stroke:#000000;stroke-width:0.6;" x="141.095084" xlink:href="#m5d19a0b460" y="308.6"/>
      </g>
     </g>
    </g>
    <g id="xtick_15">
     <g id="line2d_29">
      <path clip-path="url(#pb1cf29a1b3)" d="M 147.221193 308.6 
L 147.221193 26.8 
" style="fill:none;stroke:#808080;stroke-dasharray:0.8,1.32;stroke-dashoffset:0;stroke-width:0.8;"/>
     </g>
     <g id="line2d_30">
      <g>
       <use style="stroke:#000000;stroke-width:0.6;" x="147.221193" xlink:href="#m5d19a0b460" y="308.6"/>
      </g>
     </g>
    </g>
    <g id="xtick_16">
     <g id="line2d_31">
      <path clip-path="url(#pb1cf29a1b3)" d="M 152.400744 308.6 
L 152.400744 26.8 
" style="fill:none;stroke:#808080;stroke-dasharray:0.8,1.32;stroke-dashoffset:0;stroke-width:0.8;"/>
     </g>
     <g id="line2d_32">
      <g>
       <use style="stroke:#000000;stroke-width:0.6;" x="152.400744" xlink:href="#m5d19a0b460" y="308.6"/>
      </g>
     </g>
    </g>
    <g id="xtick_17">
     <g id="line2d_33">
      <path clip-path="url(#pb1cf29a1b3)" d="M 156.887476 308.6 
L 156.887476 26.8 
" style="fill:none;stroke:#808080;stroke-dasharray:0.8,1.32;stroke-dashoffset:0;stroke-width:0.8;"/>
     </g>
     <g id="line2d_34">
      <g>
       <use style="stroke:#000000;stroke-width:0.6;" x="156.887476" xlink:href="#m5d19a0b460" y="308.6"/>
      </g>
     </g>
    </g>
    <g id="xtick_18">
     <g id="line2d_35">
      <path clip-path="url(#pb1cf29a1b3)" d="M 160.845053 308.6 
L 160.845053 26.8 
" style="fill:none;stroke:#808080;stroke-dasharray:0.8,1.32;stroke-dashoffset:0;stroke-width:0.8;"/>
     </g>
     <g id="line2d_36">
      <g>
       <use style="stroke:#000000;stroke-width:0.6;" x="160.845053" xlink:href="#m5d19a0b460" y="308.6"/>
      </g>
     </g>
    </g>
    <g id="xtick_19">
     <g id="line2d_37">
      <path clip-path="url(#pb1cf29a1b3)" d="M 187.675371 308.6 
L 187.675371 26.8 
" style="fill:none;stroke:#808080;stroke-dasharray:0.8,1.32;stroke-dashoffset:0;stroke-width:0.8;"/>
     </g>
     <g id="line2d_38">
      <g>
       <use style="stroke:#000000;stroke-width:0.6;" x="187.675371" xlink:href="#m5d19a0b460" y="308.6"/>
      </g>
     </g>
    </g>
    <g id="xtick_20">
     <g id="line2d_39">
      <path clip-path="url(#pb1cf29a1b3)" d="M 201.299231 308.6 
L 201.299231 26.8 
" style="fill:none;stroke:#808080;stroke-dasharray:0.8,1.32;stroke-dashoffset:0;stroke-width:0.8;"/>
     </g>
     <g id="line2d_40">
      <g>
       <use style="stroke:#000000;stroke-width:0.6;" x="201.299231" xlink:href="#m5d19a0b460" y="308.6"/>
      </g>
     </g>
    </g>
    <g id="xtick_21">
     <g id="line2d_41">
      <path clip-path="url(#pb1cf29a1b3)" d="M 210.965514 308.6 
L 210.965514 26.8 
" style="fill:none;stroke:#808080;stroke-dasharray:0.8,1.32;stroke-dashoffset:0;stroke-width:0.8;"/>
     </g>
     <g id="line2d_42">
      <g>
       <use style="stroke:#000000;stroke-width:0.6;" x="210.965514" xlink:href="#m5d19a0b460" y="308.6"/>
      </g>
     </g>
    </g>
    <g id="xtick_22">
     <g id="line2d_43">
      <path clip-path="url(#pb1cf29a1b3)" d="M 218.463266 308.6 
L 218.463266 26.8 
" style="fill:none;stroke:#808080;stroke-dasharray:0.8,1.32;stroke-dashoffset:0;stroke-width:0.8;"/>
     </g>
     <g id="line2d_44">
      <g>
       <use style="stroke:#000000;stroke-width:0.6;" x="218.463266" xlink:href="#m5d19a0b460" y="308.6"/>
      </g>
     </g>
    </g>
    <g id="xtick_23">
     <g id="line2d_45">
      <path clip-path="url(#pb1cf29a1b3)" d="M 224.589375 308.6 
L 224.589375 26.8 
" style="fill:none;stroke:#808080;stroke-dasharray:0.8,1.32;stroke-dashoffset:0;stroke-width:0.8;"/>
     </g>
     <g id="line2d_46">
      <g>
       <use style="stroke:#000000;stroke-width:0.6;" x="224.589375" xlink:href="#m5d19a0b460" y="308.6"/>
      </g>
     </g>
    </g>
    <g id="xtick_24">
     <g id="line2d_47">
      <path clip-path="url(#pb1cf29a1b3)" d="M 229.768926 308.6 
L 229.768926 26.8 
" style="fill:none;stroke:#808080;stroke-dasharray:0.8,1.32;stroke-dashoffset:0;stroke-width:0.8;"/>
     </g>
     <g id="line2d_48">
      <g>
       <use style="stroke:#000000;stroke-width:0.6;" x="229.768926" xlink:href="#m5d19a0b460" y="308.6"/>
      </g>
     </g>
    </g>
    <g id="xtick_25">
     <g id="line2d_49">
      <path clip-path="url(#pb1cf29a1b3)" d="M 234.255658 308.6 
L 234.255658 26.8 
" style="fill:none;stroke:#808080;stroke-dasharray:0.8,1.32;stroke-dashoffset:0;stroke-width:0.8;"/>
     </g>
     <g id="line2d_50">
      <g>
       <use style="stroke:#000000;stroke-width:0.6;" x="234.255658" xlink:href="#m5d19a0b460" y="308.6"/>
      </g>
     </g>
    </g>
    <g id="xtick_26">
     <g id="line2d_51">
      <path clip-path="url(#pb1cf29a1b3)" d="M 238.213235 308.6 
L 238.213235 26.8 
" style="fill:none;stroke:#808080;stroke-dasharray:0.8,1.32;stroke-dashoffset:0;stroke-width:0.8;"/>
     </g>
     <g id="line2d_52">
      <g>
       <use style="stroke:#000000;stroke-width:0.6;" x="238.213235" xlink:href="#m5d19a0b460" y="308.6"/>
      </g>
     </g>
    </g>
    <g id="xtick_27">
     <g id="line2d_53">
      <path clip-path="url(#pb1cf29a1b3)" d="M 265.043553 308.6 
L 265.043553 26.8 
" style="fill:none;stroke:#808080;stroke-dasharray:0.8,1.32;stroke-dashoffset:0;stroke-width:0.8;"/>
     </g>
     <g id="line2d_54">
      <g>
       <use style="stroke:#000000;stroke-width:0.6;" x="265.043553" xlink:href="#m5d19a0b460" y="308.6"/>
      </g>
     </g>
    </g>
    <g id="xtick_28">
     <g id="line2d_55">
      <path clip-path="url(#pb1cf29a1b3)" d="M 278.667413 308.6 
L 278.667413 26.8 
" style="fill:none;stroke:#808080;stroke-dasharray:0.8,1.32;stroke-dashoffset:0;stroke-width:0.8;"/>
     </g>
     <g id="line2d_56">
      <g>
       <use style="stroke:#000000;stroke-width:0.6;" x="278.667413" xlink:href="#m5d19a0b460" y="308.6"/>
      </g>
     </g>
    </g>
    <g id="xtick_29">
     <g id="line2d_57">
      <path clip-path="url(#pb1cf29a1b3)" d="M 288.333696 308.6 
L 288.333696 26.8 
" style="fill:none;stroke:#808080;stroke-dasharray:0.8,1.32;stroke-dashoffset:0;stroke-width:0.8;"/>
     </g>
     <g id="line2d_58">
      <g>
       <use style="stroke:#000000;stroke-width:0.6;" x="288.333696" xlink:href="#m5d19a0b460" y="308.6"/>
      </g>
     </g>
    </g>
    <g id="xtick_30">
     <g id="line2d_59">
      <path clip-path="url(#pb1cf29a1b3)" d="M 295.831447 308.6 
L 295.831447 26.8 
" style="fill:none;stroke:#808080;stroke-dasharray:0.8,1.32;stroke-dashoffset:0;stroke-width:0.8;"/>
     </g>
     <g id="line2d_60">
      <g>
       <use style="stroke:#000000;stroke-width:0.6;" x="295.831447" xlink:href="#m5d19a0b460" y="308.6"/>
      </g>
     </g>
    </g>
    <g id="xtick_31">
     <g id="line2d_61">
      <path clip-path="url(#pb1cf29a1b3)" d="M 301.957557 308.6 
L 301.957557 26.8 
" style="fill:none;stroke:#808080;stroke-dasharray:0.8,1.32;stroke-dashoffset:0;stroke-width:0.8;"/>
     </g>
     <g id="line2d_62">
      <g>
       <use style="stroke:#000000;stroke-width:0.6;" x="301.957557" xlink:href="#m5d19a0b460" y="308.6"/>
      </g>
     </g>
    </g>
    <g id="xtick_32">
     <g id="line2d_63">
      <path clip-path="url(#pb1cf29a1b3)" d="M 307.137108 308.6 
L 307.137108 26.8 
" style="fill:none;stroke:#808080;stroke-dasharray:0.8,1.32;stroke-dashoffset:0;stroke-width:0.8;"/>
     </g>
     <g id="line2d_64">
      <g>
       <use style="stroke:#000000;stroke-width:0.6;" x="307.137108" xlink:href="#m5d19a0b460" y="308.6"/>
      </g>
     </g>
    </g>
    <g id="xtick_33">
     <g id="line2d_65">
      <path clip-path="url(#pb1cf29a1b3)" d="M 311.623839 308.6 
L 311.623839 26.8 
" style="fill:none;stroke:#808080;stroke-dasharray:0.8,1.32;stroke-dashoffset:0;stroke-width:0.8;"/>
     </g>
     <g id="line2d_66">
      <g>
       <use style="stroke:#000000;stroke-width:0.6;" x="311.623839" xlink:href="#m5d19a0b460" y="308.6"/>
      </g>
     </g>
    </g>
    <g id="xtick_34">
     <g id="line2d_67">
      <path clip-path="url(#pb1cf29a1b3)" d="M 315.581417 308.6 
L 315.581417 26.8 
" style="fill:none;stroke:#808080;stroke-dasharray:0.8,1.32;stroke-dashoffset:0;stroke-width:0.8;"/>
     </g>
     <g id="line2d_68">
      <g>
       <use style="stroke:#000000;stroke-width:0.6;" x="315.581417" xlink:href="#m5d19a0b460" y="308.6"/>
      </g>
     </g>
    </g>
    <g id="xtick_35">
     <g id="line2d_69">
      <path clip-path="url(#pb1cf29a1b3)" d="M 342.411734 308.6 
L 342.411734 26.8 
" style="fill:none;stroke:#808080;stroke-dasharray:0.8,1.32;stroke-dashoffset:0;stroke-width:0.8;"/>
     </g>
     <g id="line2d_70">
      <g>
       <use style="stroke:#000000;stroke-width:0.6;" x="342.411734" xlink:href="#m5d19a0b460" y="308.6"/>
      </g>
     </g>
    </g>
    <g id="xtick_36">
     <g id="line2d_71">
      <path clip-path="url(#pb1cf29a1b3)" d="M 356.035595 308.6 
L 356.035595 26.8 
" style="fill:none;stroke:#808080;stroke-dasharray:0.8,1.32;stroke-dashoffset:0;stroke-width:0.8;"/>
     </g>
     <g id="line2d_72">
      <g>
       <use style="stroke:#000000;stroke-width:0.6;" x="356.035595" xlink:href="#m5d19a0b460" y="308.6"/>
      </g>
     </g>
    </g>
    <g id="xtick_37">
     <g id="line2d_73">
      <path clip-path="url(#pb1cf29a1b3)" d="M 365.701878 308.6 
L 365.701878 26.8 
" style="fill:none;stroke:#808080;stroke-dasharray:0.8,1.32;stroke-dashoffset:0;stroke-width:0.8;"/>
     </g>
     <g id="line2d_74">
      <g>
       <use style="stroke:#000000;stroke-width:0.6;" x="365.701878" xlink:href="#m5d19a0b460" y="308.6"/>
      </g>
     </g>
    </g>
    <g id="xtick_38">
     <g id="line2d_75">
      <path clip-path="url(#pb1cf29a1b3)" d="M 373.199629 308.6 
L 373.199629 26.8 
" style="fill:none;stroke:#808080;stroke-dasharray:0.8,1.32;stroke-dashoffset:0;stroke-width:0.8;"/>
     </g>
     <g id="line2d_76">
      <g>
       <use style="stroke:#000000;stroke-width:0.6;" x="373.199629" xlink:href="#m5d19a0b460" y="308.6"/>
      </g>
     </g>
    </g>
    <g id="xtick_39">
     <g id="line2d_77">
      <path clip-path="url(#pb1cf29a1b3)" d="M 379.325738 308.6 
L 379.325738 26.8 
" style="fill:none;stroke:#808080;stroke-dasharray:0.8,1.32;stroke-dashoffset:0;stroke-width:0.8;"/>
     </g>
     <g id="line2d_78">
      <g>
       <use style="stroke:#000000;stroke-width:0.6;" x="379.325738" xlink:href="#m5d19a0b460" y="308.6"/>
      </g>
     </g>
    </g>
    <g id="xtick_40">
     <g id="line2d_79">
      <path clip-path="url(#pb1cf29a1b3)" d="M 384.50529 308.6 
L 384.50529 26.8 
" style="fill:none;stroke:#808080;stroke-dasharray:0.8,1.32;stroke-dashoffset:0;stroke-width:0.8;"/>
     </g>
     <g id="line2d_80">
      <g>
       <use style="stroke:#000000;stroke-width:0.6;" x="384.50529" xlink:href="#m5d19a0b460" y="308.6"/>
      </g>
     </g>
    </g>
    <g id="xtick_41">
     <g id="line2d_81">
      <path clip-path="url(#pb1cf29a1b3)" d="M 388.992021 308.6 
L 388.992021 26.8 
" style="fill:none;stroke:#808080;stroke-dasharray:0.8,1.32;stroke-dashoffset:0;stroke-width:0.8;"/>
     </g>
     <g id="line2d_82">
      <g>
       <use style="stroke:#000000;stroke-width:0.6;" x="388.992021" xlink:href="#m5d19a0b460" y="308.6"/>
      </g>
     </g>
    </g>
    <g id="xtick_42">
     <g id="line2d_83">
      <path clip-path="url(#pb1cf29a1b3)" d="M 392.949599 308.6 
L 392.949599 26.8 
" style="fill:none;stroke:#808080;stroke-dasharray:0.8,1.32;stroke-dashoffset:0;stroke-width:0.8;"/>
     </g>
     <g id="line2d_84">
      <g>
       <use style="stroke:#000000;stroke-width:0.6;" x="392.949599" xlink:href="#m5d19a0b460" y="308.6"/>
      </g>
     </g>
    </g>
    <g id="xtick_43">
     <g id="line2d_85">
      <path clip-path="url(#pb1cf29a1b3)" d="M 419.779916 308.6 
L 419.779916 26.8 
" style="fill:none;stroke:#808080;stroke-dasharray:0.8,1.32;stroke-dashoffset:0;stroke-width:0.8;"/>
     </g>
     <g id="line2d_86">
      <g>
       <use style="stroke:#000000;stroke-width:0.6;" x="419.779916" xlink:href="#m5d19a0b460" y="308.6"/>
      </g>
     </g>
    </g>
    <g id="xtick_44">
     <g id="line2d_87">
      <path clip-path="url(#pb1cf29a1b3)" d="M 433.403777 308.6 
L 433.403777 26.8 
" style="fill:none;stroke:#808080;stroke-dasharray:0.8,1.32;stroke-dashoffset:0;stroke-width:0.8;"/>
     </g>
     <g id="line2d_88">
      <g>
       <use style="stroke:#000000;stroke-width:0.6;" x="433.403777" xlink:href="#m5d19a0b460" y="308.6"/>
      </g>
     </g>
    </g>
    <g id="xtick_45">
     <g id="line2d_89">
      <path clip-path="url(#pb1cf29a1b3)" d="M 443.07006 308.6 
L 443.07006 26.8 
" style="fill:none;stroke:#808080;stroke-dasharray:0.8,1.32;stroke-dashoffset:0;stroke-width:0.8;"/>
     </g>
     <g id="line2d_90">
      <g>
       <use style="stroke:#000000;stroke-width:0.6;" x="443.07006" xlink:href="#m5d19a0b460" y="308.6"/>
      </g>
     </g>
    </g>
    <g id="xtick_46">
     <g id="line2d_91">
      <path clip-path="url(#pb1cf29a1b3)" d="M 450.567811 308.6 
L 450.567811 26.8 
" style="fill:none;stroke:#808080;stroke-dasharray:0.8,1.32;stroke-dashoffset:0;stroke-width:0.8;"/>
     </g>
     <g id="line2d_92">
      <g>
       <use style="stroke:#000000;stroke-width:0.6;" x="450.567811" xlink:href="#m5d19a0b460" y="308.6"/>
      </g>
     </g>
    </g>
    <g id="xtick_47">
     <g id="line2d_93">
      <path clip-path="url(#pb1cf29a1b3)" d="M 456.69392 308.6 
L 456.69392 26.8 
" style="fill:none;stroke:#808080;stroke-dasharray:0.8,1.32;stroke-dashoffset:0;stroke-width:0.8;"/>
     </g>
     <g id="line2d_94">
      <g>
       <use style="stroke:#000000;stroke-width:0.6;" x="456.69392" xlink:href="#m5d19a0b460" y="308.6"/>
      </g>
     </g>
    </g>
    <g id="xtick_48">
     <g id="line2d_95">
      <path clip-path="url(#pb1cf29a1b3)" d="M 461.873472 308.6 
L 461.873472 26.8 
" style="fill:none;stroke:#808080;stroke-dasharray:0.8,1.32;stroke-dashoffset:0;stroke-width:0.8;"/>
     </g>
     <g id="line2d_96">
      <g>
       <use style="stroke:#000000;stroke-width:0.6;" x="461.873472" xlink:href="#m5d19a0b460" y="308.6"/>
      </g>
     </g>
    </g>
    <g id="xtick_49">
     <g id="line2d_97">
      <path clip-path="url(#pb1cf29a1b3)" d="M 466.360203 308.6 
L 466.360203 26.8 
" style="fill:none;stroke:#808080;stroke-dasharray:0.8,1.32;stroke-dashoffset:0;stroke-width:0.8;"/>
     </g>
     <g id="line2d_98">
      <g>
       <use style="stroke:#000000;stroke-width:0.6;" x="466.360203" xlink:href="#m5d19a0b460" y="308.6"/>
      </g>
     </g>
    </g>
    <g id="xtick_50">
     <g id="line2d_99">
      <path clip-path="url(#pb1cf29a1b3)" d="M 470.317781 308.6 
L 470.317781 26.8 
" style="fill:none;stroke:#808080;stroke-dasharray:0.8,1.32;stroke-dashoffset:0;stroke-width:0.8;"/>
     </g>
     <g id="line2d_100">
      <g>
       <use style="stroke:#000000;stroke-width:0.6;" x="470.317781" xlink:href="#m5d19a0b460" y="308.6"/>
      </g>
     </g>
    </g>
    <g id="text_7">
     <!-- frequency [MHz] -->
     <g transform="translate(230.91875 340.331875)scale(0.12 -0.12)">
      <defs>
       <path d="M 37.109375 75.984375 
L 37.109375 68.5 
L 28.515625 68.5 
Q 23.6875 68.5 21.796875 66.546875 
Q 19.921875 64.59375 19.921875 59.515625 
L 19.921875 54.6875 
L 34.71875 54.6875 
L 34.71875 47.703125 
L 19.921875 47.703125 
L 19.921875 0 
L 10.890625 0 
L 10.890625 47.703125 
L 2.296875 47.703125 
L 2.296875 54.6875 
L 10.890625 54.6875 
L 10.890625 58.5 
Q 10.890625 67.625 15.140625 71.796875 
Q 19.390625 75.984375 28.609375 75.984375 
z
" id="DejaVuSans-102"/>
       <path d="M 41.109375 46.296875 
Q 39.59375 47.171875 37.8125 47.578125 
Q 36.03125 48 33.890625 48 
Q 26.265625 48 22.1875 43.046875 
Q 18.109375 38.09375 18.109375 28.8125 
L 18.109375 0 
L 9.078125 0 
L 9.078125 54.6875 
L 18.109375 54.6875 
L 18.109375 46.1875 
Q 20.953125 51.171875 25.484375 53.578125 
Q 30.03125 56 36.53125 56 
Q 37.453125 56 38.578125 55.875 
Q 39.703125 55.765625 41.0625 55.515625 
z
" id="DejaVuSans-114"/>
       <path d="M 56.203125 29.59375 
L 56.203125 25.203125 
L 14.890625 25.203125 
Q 15.484375 15.921875 20.484375 11.0625 
Q 25.484375 6.203125 34.421875 6.203125 
Q 39.59375 6.203125 44.453125 7.46875 
Q 49.3125 8.734375 54.109375 11.28125 
L 54.109375 2.78125 
Q 49.265625 0.734375 44.1875 -0.34375 
Q 39.109375 -1.421875 33.890625 -1.421875 
Q 20.796875 -1.421875 13.15625 6.1875 
Q 5.515625 13.8125 5.515625 26.8125 
Q 5.515625 40.234375 12.765625 48.109375 
Q 20.015625 56 32.328125 56 
Q 43.359375 56 49.78125 48.890625 
Q 56.203125 41.796875 56.203125 29.59375 
z
M 47.21875 32.234375 
Q 47.125 39.59375 43.09375 43.984375 
Q 39.0625 48.390625 32.421875 48.390625 
Q 24.90625 48.390625 20.390625 44.140625 
Q 15.875 39.890625 15.1875 32.171875 
z
" id="DejaVuSans-101"/>
       <path d="M 14.796875 27.296875 
Q 14.796875 17.390625 18.875 11.75 
Q 22.953125 6.109375 30.078125 6.109375 
Q 37.203125 6.109375 41.296875 11.75 
Q 45.40625 17.390625 45.40625 27.296875 
Q 45.40625 37.203125 41.296875 42.84375 
Q 37.203125 48.484375 30.078125 48.484375 
Q 22.953125 48.484375 18.875 42.84375 
Q 14.796875 37.203125 14.796875 27.296875 
z
M 45.40625 8.203125 
Q 42.578125 3.328125 38.25 0.953125 
Q 33.9375 -1.421875 27.875 -1.421875 
Q 17.96875 -1.421875 11.734375 6.484375 
Q 5.515625 14.40625 5.515625 27.296875 
Q 5.515625 40.1875 11.734375 48.09375 
Q 17.96875 56 27.875 56 
Q 33.9375 56 38.25 53.625 
Q 42.578125 51.265625 45.40625 46.390625 
L 45.40625 54.6875 
L 54.390625 54.6875 
L 54.390625 -20.796875 
L 45.40625 -20.796875 
z
" id="DejaVuSans-113"/>
       <path d="M 8.5 21.578125 
L 8.5 54.6875 
L 17.484375 54.6875 
L 17.484375 21.921875 
Q 17.484375 14.15625 20.5 10.265625 
Q 23.53125 6.390625 29.59375 6.390625 
Q 36.859375 6.390625 41.078125 11.03125 
Q 45.3125 15.671875 45.3125 23.6875 
L 45.3125 54.6875 
L 54.296875 54.6875 
L 54.296875 0 
L 45.3125 0 
L 45.3125 8.40625 
Q 42.046875 3.421875 37.71875 1 
Q 33.40625 -1.421875 27.6875 -1.421875 
Q 18.265625 -1.421875 13.375 4.4375 
Q 8.5 10.296875 8.5 21.578125 
z
M 31.109375 56 
z
" id="DejaVuSans-117"/>
       <path d="M 54.890625 33.015625 
L 54.890625 0 
L 45.90625 0 
L 45.90625 32.71875 
Q 45.90625 40.484375 42.875 44.328125 
Q 39.84375 48.1875 33.796875 48.1875 
Q 26.515625 48.1875 22.3125 43.546875 
Q 18.109375 38.921875 18.109375 30.90625 
L 18.109375 0 
L 9.078125 0 
L 9.078125 54.6875 
L 18.109375 54.6875 
L 18.109375 46.1875 
Q 21.34375 51.125 25.703125 53.5625 
Q 30.078125 56 35.796875 56 
Q 45.21875 56 50.046875 50.171875 
Q 54.890625 44.34375 54.890625 33.015625 
z
" id="DejaVuSans-110"/>
       <path d="M 48.78125 52.59375 
L 48.78125 44.1875 
Q 44.96875 46.296875 41.140625 47.34375 
Q 37.3125 48.390625 33.40625 48.390625 
Q 24.65625 48.390625 19.8125 42.84375 
Q 14.984375 37.3125 14.984375 27.296875 
Q 14.984375 17.28125 19.8125 11.734375 
Q 24.65625 6.203125 33.40625 6.203125 
Q 37.3125 6.203125 41.140625 7.25 
Q 44.96875 8.296875 48.78125 10.40625 
L 48.78125 2.09375 
Q 45.015625 0.34375 40.984375 -0.53125 
Q 36.96875 -1.421875 32.421875 -1.421875 
Q 20.0625 -1.421875 12.78125 6.34375 
Q 5.515625 14.109375 5.515625 27.296875 
Q 5.515625 40.671875 12.859375 48.328125 
Q 20.21875 56 33.015625 56 
Q 37.15625 56 41.109375 55.140625 
Q 45.0625 54.296875 48.78125 52.59375 
z
" id="DejaVuSans-99"/>
       <path d="M 32.171875 -5.078125 
Q 28.375 -14.84375 24.75 -17.8125 
Q 21.140625 -20.796875 15.09375 -20.796875 
L 7.90625 -20.796875 
L 7.90625 -13.28125 
L 13.1875 -13.28125 
Q 16.890625 -13.28125 18.9375 -11.515625 
Q 21 -9.765625 23.484375 -3.21875 
L 25.09375 0.875 
L 2.984375 54.6875 
L 12.5 54.6875 
L 29.59375 11.921875 
L 46.6875 54.6875 
L 56.203125 54.6875 
z
" id="DejaVuSans-121"/>
       <path id="DejaVuSans-32"/>
       <path d="M 8.59375 75.984375 
L 29.296875 75.984375 
L 29.296875 69 
L 17.578125 69 
L 17.578125 -6.203125 
L 29.296875 -6.203125 
L 29.296875 -13.1875 
L 8.59375 -13.1875 
z
" id="DejaVuSans-91"/>
       <path d="M 9.8125 72.90625 
L 24.515625 72.90625 
L 43.109375 23.296875 
L 61.8125 72.90625 
L 76.515625 72.90625 
L 76.515625 0 
L 66.890625 0 
L 66.890625 64.015625 
L 48.09375 14.015625 
L 38.1875 14.015625 
L 19.390625 64.015625 
L 19.390625 0 
L 9.8125 0 
z
" id="DejaVuSans-77"/>
       <path d="M 9.8125 72.90625 
L 19.671875 72.90625 
L 19.671875 43.015625 
L 55.515625 43.015625 
L 55.515625 72.90625 
L 65.375 72.90625 
L 65.375 0 
L 55.515625 0 
L 55.515625 34.71875 
L 19.671875 34.71875 
L 19.671875 0 
L 9.8125 0 
z
" id="DejaVuSans-72"/>
       <path d="M 5.515625 54.6875 
L 48.1875 54.6875 
L 48.1875 46.484375 
L 14.40625 7.171875 
L 48.1875 7.171875 
L 48.1875 0 
L 4.296875 0 
L 4.296875 8.203125 
L 38.09375 47.515625 
L 5.515625 47.515625 
z
" id="DejaVuSans-122"/>
       <path d="M 30.421875 75.984375 
L 30.421875 -13.1875 
L 9.71875 -13.1875 
L 9.71875 -6.203125 
L 21.390625 -6.203125 
L 21.390625 69 
L 9.71875 69 
L 9.71875 75.984375 
z
" id="DejaVuSans-93"/>
      </defs>
      <use xlink:href="#DejaVuSans-102"/>
      <use x="35.205078" xlink:href="#DejaVuSans-114"/>
      <use x="74.068359" xlink:href="#DejaVuSans-101"/>
      <use x="135.591797" xlink:href="#DejaVuSans-113"/>
      <use x="199.068359" xlink:href="#DejaVuSans-117"/>
      <use x="262.447266" xlink:href="#DejaVuSans-101"/>
      <use x="323.970703" xlink:href="#DejaVuSans-110"/>
      <use x="387.349609" xlink:href="#DejaVuSans-99"/>
      <use x="442.330078" xlink:href="#DejaVuSans-121"/>
      <use x="501.509766" xlink:href="#DejaVuSans-32"/>
      <use x="533.296875" xlink:href="#DejaVuSans-91"/>
      <use x="572.310547" xlink:href="#DejaVuSans-77"/>
      <use x="658.589844" xlink:href="#DejaVuSans-72"/>
      <use x="733.785156" xlink:href="#DejaVuSans-122"/>
      <use x="786.275391" xlink:href="#DejaVuSans-93"/>
     </g>
    </g>
   </g>
   <g id="matplotlib.axis_2">
    <g id="ytick_1">
     <g id="line2d_101">
      <path clip-path="url(#pb1cf29a1b3)" d="M 67.675 266.004476 
L 493.2 266.004476 
" style="fill:none;stroke:#808080;stroke-linecap:square;stroke-width:0.8;"/>
     </g>
     <g id="line2d_102">
      <defs>
       <path d="M 0 0 
L -3.5 0 
" id="m5fccb396ec" style="stroke:#000000;stroke-width:0.8;"/>
      </defs>
      <g>
       <use style="stroke:#000000;stroke-width:0.8;" x="67.675" xlink:href="#m5fccb396ec" y="266.004476"/>
      </g>
     </g>
     <g id="text_8">
      <!-- −200 -->
      <g transform="translate(27.714375 270.563539)scale(0.12 -0.12)">
       <defs>
        <path d="M 10.59375 35.5 
L 73.1875 35.5 
L 73.1875 27.203125 
L 10.59375 27.203125 
z
" id="DejaVuSans-8722"/>
       </defs>
       <use xlink:href="#DejaVuSans-8722"/>
       <use x="83.789062" xlink:href="#DejaVuSans-50"/>
       <use x="147.412109" xlink:href="#DejaVuSans-48"/>
       <use x="211.035156" xlink:href="#DejaVuSans-48"/>
      </g>
     </g>
    </g>
    <g id="ytick_2">
     <g id="line2d_103">
      <path clip-path="url(#pb1cf29a1b3)" d="M 67.675 206.143284 
L 493.2 206.143284 
" style="fill:none;stroke:#808080;stroke-linecap:square;stroke-width:0.8;"/>
     </g>
     <g id="line2d_104">
      <g>
       <use style="stroke:#000000;stroke-width:0.8;" x="67.675" xlink:href="#m5fccb396ec" y="206.143284"/>
      </g>
     </g>
     <g id="text_9">
      <!-- −100 -->
      <g transform="translate(27.714375 210.702346)scale(0.12 -0.12)">
       <use xlink:href="#DejaVuSans-8722"/>
       <use x="83.789062" xlink:href="#DejaVuSans-49"/>
       <use x="147.412109" xlink:href="#DejaVuSans-48"/>
       <use x="211.035156" xlink:href="#DejaVuSans-48"/>
      </g>
     </g>
    </g>
    <g id="ytick_3">
     <g id="line2d_105">
      <path clip-path="url(#pb1cf29a1b3)" d="M 67.675 146.282091 
L 493.2 146.282091 
" style="fill:none;stroke:#808080;stroke-linecap:square;stroke-width:0.8;"/>
     </g>
     <g id="line2d_106">
      <g>
       <use style="stroke:#000000;stroke-width:0.8;" x="67.675" xlink:href="#m5fccb396ec" y="146.282091"/>
      </g>
     </g>
     <g id="text_10">
      <!-- 0 -->
      <g transform="translate(53.04 150.841153)scale(0.12 -0.12)">
       <use xlink:href="#DejaVuSans-48"/>
      </g>
     </g>
    </g>
    <g id="ytick_4">
     <g id="line2d_107">
      <path clip-path="url(#pb1cf29a1b3)" d="M 67.675 86.420898 
L 493.2 86.420898 
" style="fill:none;stroke:#808080;stroke-linecap:square;stroke-width:0.8;"/>
     </g>
     <g id="line2d_108">
      <g>
       <use style="stroke:#000000;stroke-width:0.8;" x="67.675" xlink:href="#m5fccb396ec" y="86.420898"/>
      </g>
     </g>
     <g id="text_11">
      <!-- 100 -->
      <g transform="translate(37.77 90.97996)scale(0.12 -0.12)">
       <use xlink:href="#DejaVuSans-49"/>
       <use x="63.623047" xlink:href="#DejaVuSans-48"/>
       <use x="127.246094" xlink:href="#DejaVuSans-48"/>
      </g>
     </g>
    </g>
    <g id="text_12">
     <!-- phase [deg] -->
     <g transform="translate(21.21875 203.704687)rotate(-90)scale(0.12 -0.12)">
      <defs>
       <path d="M 18.109375 8.203125 
L 18.109375 -20.796875 
L 9.078125 -20.796875 
L 9.078125 54.6875 
L 18.109375 54.6875 
L 18.109375 46.390625 
Q 20.953125 51.265625 25.265625 53.625 
Q 29.59375 56 35.59375 56 
Q 45.5625 56 51.78125 48.09375 
Q 58.015625 40.1875 58.015625 27.296875 
Q 58.015625 14.40625 51.78125 6.484375 
Q 45.5625 -1.421875 35.59375 -1.421875 
Q 29.59375 -1.421875 25.265625 0.953125 
Q 20.953125 3.328125 18.109375 8.203125 
z
M 48.6875 27.296875 
Q 48.6875 37.203125 44.609375 42.84375 
Q 40.53125 48.484375 33.40625 48.484375 
Q 26.265625 48.484375 22.1875 42.84375 
Q 18.109375 37.203125 18.109375 27.296875 
Q 18.109375 17.390625 22.1875 11.75 
Q 26.265625 6.109375 33.40625 6.109375 
Q 40.53125 6.109375 44.609375 11.75 
Q 48.6875 17.390625 48.6875 27.296875 
z
" id="DejaVuSans-112"/>
       <path d="M 54.890625 33.015625 
L 54.890625 0 
L 45.90625 0 
L 45.90625 32.71875 
Q 45.90625 40.484375 42.875 44.328125 
Q 39.84375 48.1875 33.796875 48.1875 
Q 26.515625 48.1875 22.3125 43.546875 
Q 18.109375 38.921875 18.109375 30.90625 
L 18.109375 0 
L 9.078125 0 
L 9.078125 75.984375 
L 18.109375 75.984375 
L 18.109375 46.1875 
Q 21.34375 51.125 25.703125 53.5625 
Q 30.078125 56 35.796875 56 
Q 45.21875 56 50.046875 50.171875 
Q 54.890625 44.34375 54.890625 33.015625 
z
" id="DejaVuSans-104"/>
       <path d="M 34.28125 27.484375 
Q 23.390625 27.484375 19.1875 25 
Q 14.984375 22.515625 14.984375 16.5 
Q 14.984375 11.71875 18.140625 8.90625 
Q 21.296875 6.109375 26.703125 6.109375 
Q 34.1875 6.109375 38.703125 11.40625 
Q 43.21875 16.703125 43.21875 25.484375 
L 43.21875 27.484375 
z
M 52.203125 31.203125 
L 52.203125 0 
L 43.21875 0 
L 43.21875 8.296875 
Q 40.140625 3.328125 35.546875 0.953125 
Q 30.953125 -1.421875 24.3125 -1.421875 
Q 15.921875 -1.421875 10.953125 3.296875 
Q 6 8.015625 6 15.921875 
Q 6 25.140625 12.171875 29.828125 
Q 18.359375 34.515625 30.609375 34.515625 
L 43.21875 34.515625 
L 43.21875 35.40625 
Q 43.21875 41.609375 39.140625 45 
Q 35.0625 48.390625 27.6875 48.390625 
Q 23 48.390625 18.546875 47.265625 
Q 14.109375 46.140625 10.015625 43.890625 
L 10.015625 52.203125 
Q 14.9375 54.109375 19.578125 55.046875 
Q 24.21875 56 28.609375 56 
Q 40.484375 56 46.34375 49.84375 
Q 52.203125 43.703125 52.203125 31.203125 
z
" id="DejaVuSans-97"/>
       <path d="M 44.28125 53.078125 
L 44.28125 44.578125 
Q 40.484375 46.53125 36.375 47.5 
Q 32.28125 48.484375 27.875 48.484375 
Q 21.1875 48.484375 17.84375 46.4375 
Q 14.5 44.390625 14.5 40.28125 
Q 14.5 37.15625 16.890625 35.375 
Q 19.28125 33.59375 26.515625 31.984375 
L 29.59375 31.296875 
Q 39.15625 29.25 43.1875 25.515625 
Q 47.21875 21.78125 47.21875 15.09375 
Q 47.21875 7.46875 41.1875 3.015625 
Q 35.15625 -1.421875 24.609375 -1.421875 
Q 20.21875 -1.421875 15.453125 -0.5625 
Q 10.6875 0.296875 5.421875 2 
L 5.421875 11.28125 
Q 10.40625 8.6875 15.234375 7.390625 
Q 20.0625 6.109375 24.8125 6.109375 
Q 31.15625 6.109375 34.5625 8.28125 
Q 37.984375 10.453125 37.984375 14.40625 
Q 37.984375 18.0625 35.515625 20.015625 
Q 33.0625 21.96875 24.703125 23.78125 
L 21.578125 24.515625 
Q 13.234375 26.265625 9.515625 29.90625 
Q 5.8125 33.546875 5.8125 39.890625 
Q 5.8125 47.609375 11.28125 51.796875 
Q 16.75 56 26.8125 56 
Q 31.78125 56 36.171875 55.265625 
Q 40.578125 54.546875 44.28125 53.078125 
z
" id="DejaVuSans-115"/>
       <path d="M 45.40625 46.390625 
L 45.40625 75.984375 
L 54.390625 75.984375 
L 54.390625 0 
L 45.40625 0 
L 45.40625 8.203125 
Q 42.578125 3.328125 38.25 0.953125 
Q 33.9375 -1.421875 27.875 -1.421875 
Q 17.96875 -1.421875 11.734375 6.484375 
Q 5.515625 14.40625 5.515625 27.296875 
Q 5.515625 40.1875 11.734375 48.09375 
Q 17.96875 56 27.875 56 
Q 33.9375 56 38.25 53.625 
Q 42.578125 51.265625 45.40625 46.390625 
z
M 14.796875 27.296875 
Q 14.796875 17.390625 18.875 11.75 
Q 22.953125 6.109375 30.078125 6.109375 
Q 37.203125 6.109375 41.296875 11.75 
Q 45.40625 17.390625 45.40625 27.296875 
Q 45.40625 37.203125 41.296875 42.84375 
Q 37.203125 48.484375 30.078125 48.484375 
Q 22.953125 48.484375 18.875 42.84375 
Q 14.796875 37.203125 14.796875 27.296875 
z
" id="DejaVuSans-100"/>
       <path d="M 45.40625 27.984375 
Q 45.40625 37.75 41.375 43.109375 
Q 37.359375 48.484375 30.078125 48.484375 
Q 22.859375 48.484375 18.828125 43.109375 
Q 14.796875 37.75 14.796875 27.984375 
Q 14.796875 18.265625 18.828125 12.890625 
Q 22.859375 7.515625 30.078125 7.515625 
Q 37.359375 7.515625 41.375 12.890625 
Q 45.40625 18.265625 45.40625 27.984375 
z
M 54.390625 6.78125 
Q 54.390625 -7.171875 48.1875 -13.984375 
Q 42 -20.796875 29.203125 -20.796875 
Q 24.46875 -20.796875 20.265625 -20.09375 
Q 16.0625 -19.390625 12.109375 -17.921875 
L 12.109375 -9.1875 
Q 16.0625 -11.328125 19.921875 -12.34375 
Q 23.78125 -13.375 27.78125 -13.375 
Q 36.625 -13.375 41.015625 -8.765625 
Q 45.40625 -4.15625 45.40625 5.171875 
L 45.40625 9.625 
Q 42.625 4.78125 38.28125 2.390625 
Q 33.9375 0 27.875 0 
Q 17.828125 0 11.671875 7.65625 
Q 5.515625 15.328125 5.515625 27.984375 
Q 5.515625 40.671875 11.671875 48.328125 
Q 17.828125 56 27.875 56 
Q 33.9375 56 38.28125 53.609375 
Q 42.625 51.21875 45.40625 46.390625 
L 45.40625 54.6875 
L 54.390625 54.6875 
z
" id="DejaVuSans-103"/>
      </defs>
      <use xlink:href="#DejaVuSans-112"/>
      <use x="63.476562" xlink:href="#DejaVuSans-104"/>
      <use x="126.855469" xlink:href="#DejaVuSans-97"/>
      <use x="188.134766" xlink:href="#DejaVuSans-115"/>
      <use x="240.234375" xlink:href="#DejaVuSans-101"/>
      <use x="301.757812" xlink:href="#DejaVuSans-32"/>
      <use x="333.544922" xlink:href="#DejaVuSans-91"/>
      <use x="372.558594" xlink:href="#DejaVuSans-100"/>
      <use x="436.035156" xlink:href="#DejaVuSans-101"/>
      <use x="497.558594" xlink:href="#DejaVuSans-103"/>
      <use x="561.035156" xlink:href="#DejaVuSans-93"/>
     </g>
    </g>
   </g>
   <g id="line2d_109">
    <path clip-path="url(#pb1cf29a1b3)" d="M 87.017045 39.609091 
L 90.924529 39.741825 
L 94.832013 39.890885 
L 98.739497 40.058266 
L 102.646981 40.246202 
L 106.554465 40.457192 
L 110.461949 40.694027 
L 114.369433 40.959822 
L 118.276917 41.258047 
L 122.184401 41.592557 
L 126.091885 41.967621 
L 129.999369 42.387954 
L 133.906853 42.858736 
L 137.814337 43.38562 
L 141.72182 43.974731 
L 145.629304 44.632639 
L 149.536788 45.366287 
L 153.444272 46.18289 
L 157.351756 47.089758 
L 161.25924 48.09404 
L 165.166724 49.202372 
L 169.074208 50.420416 
L 172.981692 51.752269 
L 176.889176 53.199783 
L 180.79666 54.761814 
L 184.704144 56.433479 
L 188.611628 58.205556 
L 192.519112 60.064145 
L 196.426596 61.99075 
L 200.334079 63.962876 
L 204.241563 65.95516 
L 208.149047 67.940916 
L 212.056531 69.89389 
L 215.964015 71.789944 
L 219.871499 73.608424 
L 223.778983 75.33303 
L 227.686467 76.95216 
L 231.593951 78.458768 
L 235.501435 79.849879 
L 239.408919 81.125904 
L 243.316403 82.28988 
L 247.223887 83.346746 
L 251.131371 84.302703 
L 255.038854 85.16469 
L 258.946338 85.939971 
L 262.853822 86.635835 
L 266.761306 87.259384 
L 270.66879 87.817388 
L 274.576274 88.316206 
L 278.483758 88.761736 
L 282.391242 89.159399 
L 286.298726 89.514147 
L 290.20621 89.830474 
L 294.113694 90.112444 
L 298.021178 90.363722 
L 301.928662 90.587598 
L 305.836146 90.787028 
L 309.743629 90.964656 
L 313.651113 91.122848 
L 317.558597 91.26372 
L 321.466081 91.389158 
L 325.373565 91.500849 
L 329.281049 91.600293 
L 333.188533 91.688832 
L 337.096017 91.767659 
L 341.003501 91.837837 
L 344.910985 91.900315 
L 348.818469 91.955936 
L 352.725953 92.005453 
L 356.633437 92.049535 
L 360.540921 92.088779 
L 364.448404 92.123715 
L 368.355888 92.154816 
L 372.263372 92.182503 
L 376.170856 92.207151 
L 380.07834 92.229093 
L 383.985824 92.248626 
L 387.893308 92.266015 
L 391.800792 92.281495 
L 395.708276 92.295275 
L 399.61576 92.307542 
L 403.523244 92.318463 
L 407.430728 92.328185 
L 411.338212 92.33684 
L 415.245696 92.344544 
L 419.15318 92.351403 
L 423.060663 92.357508 
L 426.968147 92.362944 
L 430.875631 92.367782 
L 434.783115 92.37209 
L 438.690599 92.375924 
L 442.598083 92.379338 
L 446.505567 92.382377 
L 450.413051 92.385082 
L 454.320535 92.38749 
L 458.228019 92.389634 
L 462.135503 92.391542 
L 466.042987 92.393241 
L 469.950471 92.394753 
L 473.857955 92.3961 
" style="fill:none;stroke:#ff0000;stroke-linecap:square;stroke-width:2;"/>
   </g>
   <g id="line2d_110">
    <path clip-path="url(#pb1cf29a1b3)" d="M 87.017045 39.620687 
L 90.924529 39.754849 
L 94.832013 39.905513 
L 98.739497 40.074694 
L 102.646981 40.264651 
L 106.554465 40.477909 
L 110.461949 40.71729 
L 114.369433 40.98594 
L 118.276917 41.287366 
L 122.184401 41.625463 
L 126.091885 42.004546 
L 129.999369 42.429377 
L 133.906853 42.905188 
L 137.814337 43.43769 
L 141.72182 44.033068 
L 145.629304 44.697952 
L 149.536788 45.439351 
L 153.444272 46.264542 
L 157.351756 47.180893 
L 161.25924 48.195606 
L 165.166724 49.315359 
L 169.074208 50.545838 
L 172.981692 51.891148 
L 176.889176 53.353121 
L 180.79666 54.930574 
L 184.704144 56.618566 
L 188.611628 58.40781 
L 192.519112 60.284353 
L 196.426596 62.229685 
L 200.334079 64.221363 
L 204.241563 66.234165 
L 208.149047 68.241661 
L 212.056531 70.217968 
L 215.964015 72.139432 
L 219.871499 73.985978 
L 223.778983 75.741964 
L 227.686467 77.396501 
L 231.593951 78.943299 
L 235.501435 80.380182 
L 239.408919 81.708398 
L 243.316403 82.931872 
L 247.223887 84.056497 
L 251.131371 85.089509 
L 255.038854 86.038983 
L 258.946338 86.913442 
L 262.853822 87.721581 
L 266.761306 88.472078 
L 270.66879 89.173478 
L 274.576274 89.834144 
L 278.483758 90.462246 
L 282.391242 91.065788 
L 286.298726 91.652669 
L 290.20621 92.23077 
L 294.113694 92.808072 
L 298.021178 93.392826 
L 301.928662 93.993768 
L 305.836146 94.62045 
L 309.743629 95.283707 
L 313.651113 95.996385 
L 317.558597 96.774473 
L 321.466081 97.638903 
L 325.373565 98.618499 
L 329.281049 99.754892 
L 333.188533 101.110999 
L 337.096017 102.786291 
L 341.003501 104.945707 
L 344.910985 107.877339 
L 348.818469 112.111324 
L 352.725953 118.647995 
L 356.633437 129.157993 
L 360.540921 144.612001 
L 364.448404 160.932274 
L 368.355888 172.742718 
L 372.263372 180.090194 
L 376.170856 184.737151 
L 380.07834 187.855606 
L 383.985824 190.071914 
L 387.893308 191.723056 
L 391.800792 192.999884 
L 395.708276 194.016638 
L 399.61576 194.84521 
L 403.523244 195.532868 
L 407.430728 196.111886 
L 411.338212 196.605052 
L 415.245696 197.028938 
L 419.15318 197.395923 
L 423.060663 197.715475 
L 426.968147 197.994999 
L 430.875631 198.240397 
L 434.783115 198.456456 
L 438.690599 198.647118 
L 442.598083 198.815675 
L 446.505567 198.964902 
L 450.413051 199.097169 
L 454.320535 199.214508 
L 458.228019 199.318679 
L 462.135503 199.411212 
L 466.042987 199.493445 
L 469.950471 199.56655 
L 473.857955 199.631559 
" style="fill:none;stroke:#0000ff;stroke-linecap:square;stroke-width:2;"/>
   </g>
   <g id="line2d_111">
    <path clip-path="url(#pb1cf29a1b3)" d="M 87.017045 43.740629 
L 90.924529 44.366891 
L 94.832013 45.063897 
L 98.739497 45.837833 
L 102.646981 46.694719 
L 106.554465 47.64008 
L 110.461949 48.678524 
L 114.369433 49.813189 
L 118.276917 51.045087 
L 122.184401 52.372364 
L 126.091885 53.789532 
L 129.999369 55.286795 
L 133.906853 56.849577 
L 137.814337 58.458432 
L 141.72182 60.089447 
L 145.629304 61.715217 
L 149.536788 63.306323 
L 153.444272 64.833177 
L 157.351756 66.267979 
L 161.25924 67.586519 
L 165.166724 68.769652 
L 169.074208 69.80433 
L 172.981692 70.684227 
L 176.889176 71.410024 
L 180.79666 71.989455 
L 184.704144 72.437164 
L 188.611628 72.774351 
L 192.519112 73.028118 
L 196.426596 73.2304 
L 200.334079 73.416386 
L 204.241563 73.6224 
L 208.149047 73.883386 
L 212.056531 74.230243 
L 215.964015 74.68737 
L 219.871499 75.270796 
L 223.778983 75.987192 
L 227.686467 76.833935 
L 231.593951 77.800204 
L 235.501435 78.868906 
L 239.408919 80.019123 
L 243.316403 81.228675 
L 247.223887 82.476418 
L 251.131371 83.744035 
L 255.038854 85.017172 
L 258.946338 86.285951 
L 262.853822 87.544964 
L 266.761306 88.79292 
L 270.66879 90.032088 
L 274.576274 91.267677 
L 278.483758 92.507221 
L 282.391242 93.760025 
L 286.298726 95.036666 
L 290.20621 96.348563 
L 294.113694 97.707557 
L 298.021178 99.125507 
L 301.928662 100.613835 
L 305.836146 102.183022 
L 309.743629 103.842005 
L 313.651113 105.597501 
L 317.558597 107.453271 
L 321.466081 109.40939 
L 325.373565 111.461623 
L 329.281049 113.601054 
L 333.188533 115.814101 
L 337.096017 118.083039 
L 341.003501 120.387055 
L 344.910985 122.703769 
L 348.818469 125.011004 
L 352.725953 127.288562 
L 356.633437 129.51972 
L 360.540921 131.692264 
L 364.448404 133.798984 
L 368.355888 135.837665 
L 372.263372 137.810687 
L 376.170856 139.724379 
L 380.07834 141.588251 
L 383.985824 143.414211 
L 387.893308 145.215806 
L 391.800792 147.007521 
L 395.708276 148.804115 
L 399.61576 150.619972 
L 403.523244 152.468434 
L 407.430728 154.361093 
L 411.338212 156.307032 
L 415.245696 158.312036 
L 419.15318 160.377818 
L 423.060663 162.501381 
L 426.968147 164.674617 
L 430.875631 166.884309 
L 434.783115 169.112641 
L 438.690599 171.338237 
L 442.598083 173.537668 
L 446.505567 175.687208 
L 450.413051 177.764595 
L 454.320535 179.75051 
L 458.228019 181.629604 
L 462.135503 183.390977 
L 466.042987 185.028162 
L 469.950471 186.538727 
L 473.857955 187.923635 
" style="fill:none;stroke:#000000;stroke-linecap:square;stroke-width:2;"/>
   </g>
   <g id="line2d_112">
    <path clip-path="url(#pb1cf29a1b3)" d="M 87.017045 146.293616 
L 90.924529 146.295036 
L 94.832013 146.29663 
L 98.739497 146.298419 
L 102.646981 146.300428 
L 106.554465 146.302682 
L 110.461949 146.305212 
L 114.369433 146.308049 
L 118.276917 146.31123 
L 122.184401 146.314796 
L 126.091885 146.31879 
L 129.999369 146.32326 
L 133.906853 146.328258 
L 137.814337 146.333841 
L 141.72182 146.340068 
L 145.629304 146.347 
L 149.536788 146.3547 
L 153.444272 146.363232 
L 157.351756 146.372652 
L 161.25924 146.383013 
L 165.166724 146.394354 
L 169.074208 146.406701 
L 172.981692 146.420057 
L 176.889176 146.434404 
L 180.79666 146.4497 
L 184.704144 146.465885 
L 188.611628 146.482892 
L 192.519112 146.500669 
L 196.426596 146.519196 
L 200.334079 146.538523 
L 204.241563 146.55879 
L 208.149047 146.580248 
L 212.056531 146.603266 
L 215.964015 146.628323 
L 219.871499 146.655996 
L 223.778983 146.686937 
L 227.686467 146.721855 
L 231.593951 146.761504 
L 235.501435 146.806676 
L 239.408919 146.858207 
L 243.316403 146.916983 
L 247.223887 146.983956 
L 251.131371 147.060166 
L 255.038854 147.146757 
L 258.946338 147.245004 
L 262.853822 147.356338 
L 266.761306 147.482377 
L 270.66879 147.624961 
L 274.576274 147.786191 
L 278.483758 147.968479 
L 282.391242 148.17461 
L 286.298726 148.407824 
L 290.20621 148.671911 
L 294.113694 148.971355 
L 298.021178 149.31151 
L 301.928662 149.698862 
L 305.836146 150.141384 
L 309.743629 150.649051 
L 313.651113 151.234606 
L 317.558597 151.914711 
L 321.466081 152.711734 
L 325.373565 153.656624 
L 329.281049 154.793682 
L 333.188533 156.18883 
L 337.096017 157.944611 
L 341.003501 160.228835 
L 344.910985 163.332064 
L 348.818469 167.786406 
L 352.725953 174.593723 
L 356.633437 185.425936 
L 360.540921 201.255032 
L 364.448404 218.004895 
L 368.355888 230.301657 
L 372.263372 238.195182 
L 376.170856 243.451804 
L 380.07834 247.248311 
L 383.985824 250.216639 
L 387.893308 252.700017 
L 391.800792 254.895986 
L 395.708276 256.925618 
L 399.61576 258.867402 
L 403.523244 260.774463 
L 407.430728 262.68361 
L 411.338212 264.620143 
L 415.245696 266.600357 
L 419.15318 268.6328 
L 423.060663 270.718899 
L 426.968147 272.853383 
L 430.875631 275.024817 
L 434.783115 277.216465 
L 438.690599 279.407569 
L 442.598083 281.575007 
L 446.505567 283.695163 
L 450.413051 285.745755 
L 454.320535 287.707372 
L 458.228019 289.564521 
L 462.135503 291.306137 
L 466.042987 292.925579 
L 469.950471 294.420238 
L 473.857955 295.790909 
" style="fill:none;stroke:#bf00bf;stroke-linecap:square;stroke-width:2;"/>
   </g>
   <g id="line2d_113">
    <path clip-path="url(#pb1cf29a1b3)" d="M 87.017045 94.455499 
L 90.924529 94.698231 
L 94.832013 94.966947 
L 98.739497 95.26334 
L 102.646981 95.588775 
L 106.554465 95.944101 
L 110.461949 96.329405 
L 114.369433 96.743735 
L 118.276917 97.184807 
L 122.184401 97.648738 
L 126.091885 98.129873 
L 129.999369 98.620806 
L 133.906853 99.112674 
L 137.814337 99.595822 
L 141.72182 100.06085 
L 145.629304 100.499943 
L 149.536788 100.908304 
L 153.444272 101.285379 
L 157.351756 101.635609 
L 161.25924 101.968495 
L 165.166724 102.297979 
L 169.074208 102.6413 
L 172.981692 103.01759 
L 176.889176 103.446501 
L 180.79666 103.947069 
L 184.704144 104.536886 
L 188.611628 105.231576 
L 192.519112 106.044465 
L 196.426596 106.98635 
L 200.334079 108.065244 
L 204.241563 109.286053 
L 208.149047 110.650151 
L 212.056531 112.154899 
L 215.964015 113.793196 
L 219.871499 115.553198 
L 223.778983 117.418365 
L 227.686467 119.367946 
L 231.593951 121.377993 
L 235.501435 123.422823 
L 239.408919 125.476772 
L 243.316403 127.515983 
L 247.223887 129.519958 
L 251.131371 131.472676 
L 255.038854 133.363171 
L 258.946338 135.185599 
L 262.853822 136.9389 
L 266.761306 138.626195 
L 270.66879 140.254061 
L 274.576274 141.831791 
L 278.483758 143.370713 
L 282.391242 144.883584 
L 286.298726 146.384078 
L 290.20621 147.88634 
L 294.113694 149.404576 
L 298.021178 150.952649 
L 301.928662 152.543637 
L 305.836146 154.189336 
L 309.743629 155.899668 
L 313.651113 157.68201 
L 317.558597 159.540467 
L 321.466081 161.475137 
L 325.373565 163.481492 
L 329.281049 165.55 
L 333.188533 167.666135 
L 337.096017 169.810883 
L 341.003501 171.961791 
L 344.910985 174.094459 
L 348.818469 176.184306 
L 352.725953 178.208308 
L 356.633437 180.146477 
L 360.540921 181.98287 
L 364.448404 183.706062 
L 368.355888 185.30912 
L 372.263372 186.789192 
L 376.170856 188.146866 
L 380.07834 189.385431 
L 383.985824 190.510147 
L 387.893308 191.527595 
L 391.800792 192.445128 
L 395.708276 193.270449 
L 399.61576 194.011291 
L 403.523244 194.675191 
L 407.430728 195.269342 
L 411.338212 195.8005 
L 415.245696 196.274934 
L 419.15318 196.698411 
L 423.060663 197.076196 
L 426.968147 197.413073 
L 430.875631 197.713366 
L 434.783115 197.980976 
L 438.690599 198.219407 
L 442.598083 198.431803 
L 446.505567 198.620982 
L 450.413051 198.789462 
L 454.320535 198.939495 
L 458.228019 199.073092 
L 462.135503 199.192047 
L 466.042987 199.297961 
L 469.950471 199.392259 
L 473.857955 199.476213 
" style="fill:none;stroke:#008000;stroke-linecap:square;stroke-width:2;"/>
   </g>
   <g id="patch_3">
    <path d="M 67.675 308.6 
L 67.675 26.8 
" style="fill:none;stroke:#000000;stroke-linecap:square;stroke-linejoin:miter;stroke-width:0.8;"/>
   </g>
   <g id="patch_4">
    <path d="M 493.2 308.6 
L 493.2 26.8 
" style="fill:none;stroke:#000000;stroke-linecap:square;stroke-linejoin:miter;stroke-width:0.8;"/>
   </g>
   <g id="patch_5">
    <path d="M 67.675 308.6 
L 493.2 308.6 
" style="fill:none;stroke:#000000;stroke-linecap:square;stroke-linejoin:miter;stroke-width:0.8;"/>
   </g>
   <g id="patch_6">
    <path d="M 67.675 26.8 
L 493.2 26.8 
" style="fill:none;stroke:#000000;stroke-linecap:square;stroke-linejoin:miter;stroke-width:0.8;"/>
   </g>
   <g id="text_13">
    <!-- Bandwidth limited amplifier phase -->
    <g transform="translate(177.36875 20.8)scale(0.12 -0.12)">
     <defs>
      <path d="M 19.671875 34.8125 
L 19.671875 8.109375 
L 35.5 8.109375 
Q 43.453125 8.109375 47.28125 11.40625 
Q 51.125 14.703125 51.125 21.484375 
Q 51.125 28.328125 47.28125 31.5625 
Q 43.453125 34.8125 35.5 34.8125 
z
M 19.671875 64.796875 
L 19.671875 42.828125 
L 34.28125 42.828125 
Q 41.5 42.828125 45.03125 45.53125 
Q 48.578125 48.25 48.578125 53.8125 
Q 48.578125 59.328125 45.03125 62.0625 
Q 41.5 64.796875 34.28125 64.796875 
z
M 9.8125 72.90625 
L 35.015625 72.90625 
Q 46.296875 72.90625 52.390625 68.21875 
Q 58.5 63.53125 58.5 54.890625 
Q 58.5 48.1875 55.375 44.234375 
Q 52.25 40.28125 46.1875 39.3125 
Q 53.46875 37.75 57.5 32.78125 
Q 61.53125 27.828125 61.53125 20.40625 
Q 61.53125 10.640625 54.890625 5.3125 
Q 48.25 0 35.984375 0 
L 9.8125 0 
z
" id="DejaVuSans-66"/>
      <path d="M 4.203125 54.6875 
L 13.1875 54.6875 
L 24.421875 12.015625 
L 35.59375 54.6875 
L 46.1875 54.6875 
L 57.421875 12.015625 
L 68.609375 54.6875 
L 77.59375 54.6875 
L 63.28125 0 
L 52.6875 0 
L 40.921875 44.828125 
L 29.109375 0 
L 18.5 0 
z
" id="DejaVuSans-119"/>
      <path d="M 9.421875 54.6875 
L 18.40625 54.6875 
L 18.40625 0 
L 9.421875 0 
z
M 9.421875 75.984375 
L 18.40625 75.984375 
L 18.40625 64.59375 
L 9.421875 64.59375 
z
" id="DejaVuSans-105"/>
      <path d="M 18.3125 70.21875 
L 18.3125 54.6875 
L 36.8125 54.6875 
L 36.8125 47.703125 
L 18.3125 47.703125 
L 18.3125 18.015625 
Q 18.3125 11.328125 20.140625 9.421875 
Q 21.96875 7.515625 27.59375 7.515625 
L 36.8125 7.515625 
L 36.8125 0 
L 27.59375 0 
Q 17.1875 0 13.234375 3.875 
Q 9.28125 7.765625 9.28125 18.015625 
L 9.28125 47.703125 
L 2.6875 47.703125 
L 2.6875 54.6875 
L 9.28125 54.6875 
L 9.28125 70.21875 
z
" id="DejaVuSans-116"/>
      <path d="M 9.421875 75.984375 
L 18.40625 75.984375 
L 18.40625 0 
L 9.421875 0 
z
" id="DejaVuSans-108"/>
      <path d="M 52 44.1875 
Q 55.375 50.25 60.0625 53.125 
Q 64.75 56 71.09375 56 
Q 79.640625 56 84.28125 50.015625 
Q 88.921875 44.046875 88.921875 33.015625 
L 88.921875 0 
L 79.890625 0 
L 79.890625 32.71875 
Q 79.890625 40.578125 77.09375 44.375 
Q 74.3125 48.1875 68.609375 48.1875 
Q 61.625 48.1875 57.5625 43.546875 
Q 53.515625 38.921875 53.515625 30.90625 
L 53.515625 0 
L 44.484375 0 
L 44.484375 32.71875 
Q 44.484375 40.625 41.703125 44.40625 
Q 38.921875 48.1875 33.109375 48.1875 
Q 26.21875 48.1875 22.15625 43.53125 
Q 18.109375 38.875 18.109375 30.90625 
L 18.109375 0 
L 9.078125 0 
L 9.078125 54.6875 
L 18.109375 54.6875 
L 18.109375 46.1875 
Q 21.1875 51.21875 25.484375 53.609375 
Q 29.78125 56 35.6875 56 
Q 41.65625 56 45.828125 52.96875 
Q 50 49.953125 52 44.1875 
z
" id="DejaVuSans-109"/>
     </defs>
     <use xlink:href="#DejaVuSans-66"/>
     <use x="68.603516" xlink:href="#DejaVuSans-97"/>
     <use x="129.882812" xlink:href="#DejaVuSans-110"/>
     <use x="193.261719" xlink:href="#DejaVuSans-100"/>
     <use x="256.738281" xlink:href="#DejaVuSans-119"/>
     <use x="338.525391" xlink:href="#DejaVuSans-105"/>
     <use x="366.308594" xlink:href="#DejaVuSans-100"/>
     <use x="429.785156" xlink:href="#DejaVuSans-116"/>
     <use x="468.994141" xlink:href="#DejaVuSans-104"/>
     <use x="532.373047" xlink:href="#DejaVuSans-32"/>
     <use x="564.160156" xlink:href="#DejaVuSans-108"/>
     <use x="591.943359" xlink:href="#DejaVuSans-105"/>
     <use x="619.726562" xlink:href="#DejaVuSans-109"/>
     <use x="717.138672" xlink:href="#DejaVuSans-105"/>
     <use x="744.921875" xlink:href="#DejaVuSans-116"/>
     <use x="784.130859" xlink:href="#DejaVuSans-101"/>
     <use x="845.654297" xlink:href="#DejaVuSans-100"/>
     <use x="909.130859" xlink:href="#DejaVuSans-32"/>
     <use x="940.917969" xlink:href="#DejaVuSans-97"/>
     <use x="1002.197266" xlink:href="#DejaVuSans-109"/>
     <use x="1099.609375" xlink:href="#DejaVuSans-112"/>
     <use x="1163.085938" xlink:href="#DejaVuSans-108"/>
     <use x="1190.869141" xlink:href="#DejaVuSans-105"/>
     <use x="1218.652344" xlink:href="#DejaVuSans-102"/>
     <use x="1253.857422" xlink:href="#DejaVuSans-105"/>
     <use x="1281.640625" xlink:href="#DejaVuSans-101"/>
     <use x="1343.164062" xlink:href="#DejaVuSans-114"/>
     <use x="1384.277344" xlink:href="#DejaVuSans-32"/>
     <use x="1416.064453" xlink:href="#DejaVuSans-112"/>
     <use x="1479.541016" xlink:href="#DejaVuSans-104"/>
     <use x="1542.919922" xlink:href="#DejaVuSans-97"/>
     <use x="1604.199219" xlink:href="#DejaVuSans-115"/>
     <use x="1656.298828" xlink:href="#DejaVuSans-101"/>
    </g>
   </g>
   <g id="legend_1">
    <g id="patch_7">
     <path d="M 74.675 303.6 
L 153.3725 303.6 
Q 155.3725 303.6 155.3725 301.6 
L 155.3725 243.53125 
Q 155.3725 241.53125 153.3725 241.53125 
L 74.675 241.53125 
Q 72.675 241.53125 72.675 243.53125 
L 72.675 301.6 
Q 72.675 303.6 74.675 303.6 
z
" style="fill:#ffffff;opacity:0.8;stroke:#cccccc;stroke-linejoin:miter;"/>
    </g>
    <g id="line2d_114">
     <path d="M 74.675 249.149375 
L 84.675 249.149375 
" style="fill:none;stroke:#ff0000;stroke-linecap:square;stroke-width:2;"/>
    </g>
    <g id="line2d_115"/>
    <g id="text_14">
     <!-- asymptotic -->
     <g transform="translate(86.675 252.649375)scale(0.12 -0.12)">
      <defs>
       <path d="M 30.609375 48.390625 
Q 23.390625 48.390625 19.1875 42.75 
Q 14.984375 37.109375 14.984375 27.296875 
Q 14.984375 17.484375 19.15625 11.84375 
Q 23.34375 6.203125 30.609375 6.203125 
Q 37.796875 6.203125 41.984375 11.859375 
Q 46.1875 17.53125 46.1875 27.296875 
Q 46.1875 37.015625 41.984375 42.703125 
Q 37.796875 48.390625 30.609375 48.390625 
z
M 30.609375 56 
Q 42.328125 56 49.015625 48.375 
Q 55.71875 40.765625 55.71875 27.296875 
Q 55.71875 13.875 49.015625 6.21875 
Q 42.328125 -1.421875 30.609375 -1.421875 
Q 18.84375 -1.421875 12.171875 6.21875 
Q 5.515625 13.875 5.515625 27.296875 
Q 5.515625 40.765625 12.171875 48.375 
Q 18.84375 56 30.609375 56 
z
" id="DejaVuSans-111"/>
      </defs>
      <use xlink:href="#DejaVuSans-97"/>
      <use x="61.279297" xlink:href="#DejaVuSans-115"/>
      <use x="113.378906" xlink:href="#DejaVuSans-121"/>
      <use x="172.558594" xlink:href="#DejaVuSans-109"/>
      <use x="269.970703" xlink:href="#DejaVuSans-112"/>
      <use x="333.447266" xlink:href="#DejaVuSans-116"/>
      <use x="372.65625" xlink:href="#DejaVuSans-111"/>
      <use x="433.837891" xlink:href="#DejaVuSans-116"/>
      <use x="473.046875" xlink:href="#DejaVuSans-105"/>
      <use x="500.830078" xlink:href="#DejaVuSans-99"/>
     </g>
    </g>
    <g id="line2d_116">
     <path d="M 74.675 260.763125 
L 84.675 260.763125 
" style="fill:none;stroke:#0000ff;stroke-linecap:square;stroke-width:2;"/>
    </g>
    <g id="line2d_117"/>
    <g id="text_15">
     <!-- gain -->
     <g transform="translate(86.675 264.263125)scale(0.12 -0.12)">
      <use xlink:href="#DejaVuSans-103"/>
      <use x="63.476562" xlink:href="#DejaVuSans-97"/>
      <use x="124.755859" xlink:href="#DejaVuSans-105"/>
      <use x="152.539062" xlink:href="#DejaVuSans-110"/>
     </g>
    </g>
    <g id="line2d_118">
     <path d="M 74.675 272.376875 
L 84.675 272.376875 
" style="fill:none;stroke:#000000;stroke-linecap:square;stroke-width:2;"/>
    </g>
    <g id="line2d_119"/>
    <g id="text_16">
     <!-- loopgain -->
     <g transform="translate(86.675 275.876875)scale(0.12 -0.12)">
      <use xlink:href="#DejaVuSans-108"/>
      <use x="27.783203" xlink:href="#DejaVuSans-111"/>
      <use x="88.964844" xlink:href="#DejaVuSans-111"/>
      <use x="150.146484" xlink:href="#DejaVuSans-112"/>
      <use x="213.623047" xlink:href="#DejaVuSans-103"/>
      <use x="277.099609" xlink:href="#DejaVuSans-97"/>
      <use x="338.378906" xlink:href="#DejaVuSans-105"/>
      <use x="366.162109" xlink:href="#DejaVuSans-110"/>
     </g>
    </g>
    <g id="line2d_120">
     <path d="M 74.675 283.990625 
L 84.675 283.990625 
" style="fill:none;stroke:#bf00bf;stroke-linecap:square;stroke-width:2;"/>
    </g>
    <g id="line2d_121"/>
    <g id="text_17">
     <!-- servo -->
     <g transform="translate(86.675 287.490625)scale(0.12 -0.12)">
      <defs>
       <path d="M 2.984375 54.6875 
L 12.5 54.6875 
L 29.59375 8.796875 
L 46.6875 54.6875 
L 56.203125 54.6875 
L 35.6875 0 
L 23.484375 0 
z
" id="DejaVuSans-118"/>
      </defs>
      <use xlink:href="#DejaVuSans-115"/>
      <use x="52.099609" xlink:href="#DejaVuSans-101"/>
      <use x="113.623047" xlink:href="#DejaVuSans-114"/>
      <use x="154.736328" xlink:href="#DejaVuSans-118"/>
      <use x="213.916016" xlink:href="#DejaVuSans-111"/>
     </g>
    </g>
    <g id="line2d_122">
     <path d="M 74.675 295.604375 
L 84.675 295.604375 
" style="fill:none;stroke:#008000;stroke-linecap:square;stroke-width:2;"/>
    </g>
    <g id="line2d_123"/>
    <g id="text_18">
     <!-- direct -->
     <g transform="translate(86.675 299.104375)scale(0.12 -0.12)">
      <use xlink:href="#DejaVuSans-100"/>
      <use x="63.476562" xlink:href="#DejaVuSans-105"/>
      <use x="91.259766" xlink:href="#DejaVuSans-114"/>
      <use x="130.123047" xlink:href="#DejaVuSans-101"/>
      <use x="191.646484" xlink:href="#DejaVuSans-99"/>
      <use x="246.626953" xlink:href="#DejaVuSans-116"/>
     </g>
    </g>
   </g>
  </g>
 </g>
 <defs>
  <clipPath id="pb1cf29a1b3">
   <rect height="281.8" width="425.525" x="67.675" y="26.8"/>
  </clipPath>
 </defs>
</svg>
